<?xml version="1.0" standalone="no"?>
<!DOCTYPE svg PUBLIC "-//W3C//DTD SVG 20010904//EN"
 "http://www.w3.org/TR/2001/REC-SVG-20010904/DTD/svg10.dtd">
<svg version="1.0" xmlns="http://www.w3.org/2000/svg"
 width="185.000000pt" height="272.000000pt" viewBox="0 0 185.000000 272.000000"
 preserveAspectRatio="xMidYMid meet">

<g transform="translate(0.000000,272.000000) scale(0.100000,-0.100000)"
fill="#000000" stroke="none">
<path d="M149 2652 l-77 -3 -6 -252 c-4 -139 -6 -718 -4 -1287 l3 -1035 866
-3 866 -2 6 427 c4 236 7 814 7 1286 0 677 -3 859 -13 862 -13 5 -1527 12
-1648 7z m1628 -724 c-4 -381 -7 -948 -7 -1261 l0 -567 -837 2 -838 3 -1 1250
c0 688 1 1253 4 1258 2 4 382 7 844 7 l841 0 -6 -692z"/>
<path d="M117 2603 c-4 -3 -7 -564 -7 -1245 l0 -1238 478 -1 c553 -1 1093 -1
1140 0 l32 1 0 1239 0 1239 -30 6 c-42 8 -1605 8 -1613 -1z m169 -25 c42 -1
61 -6 61 -14 0 -17 -97 -38 -111 -24 -15 15 -29 12 -22 -6 9 -22 -11 -54 -34
-54 -16 0 -19 -7 -18 -37 1 -45 14 -83 27 -83 6 0 8 7 4 16 -4 12 -2 15 8 12
8 -3 14 -11 14 -19 0 -8 14 -19 30 -26 38 -15 9 -17 -33 -2 -26 9 -35 8 -48
-5 -8 -9 -20 -16 -25 -16 -16 0 -23 30 -9 43 9 9 11 8 8 -5 -1 -9 2 -16 7 -15
13 3 8 77 -7 94 -7 9 -7 13 1 13 14 0 15 37 1 45 -5 3 -10 21 -10 40 0 41 22
58 65 50 17 -4 57 -7 91 -7z m317 -15 c7 3 11 10 10 16 -2 6 2 11 8 11 6 0 9
-7 6 -15 -9 -22 13 -29 27 -9 18 24 27 6 31 -59 2 -29 1 -41 -2 -27 -8 42 -33
62 -68 56 -23 -5 -27 -3 -15 5 11 8 8 9 -15 4 -16 -4 -38 -14 -47 -22 -32 -29
-19 -2 15 30 21 21 33 27 35 19 2 -7 9 -11 15 -9z m217 -2 c12 -30 2 -69 -17
-64 -17 5 -43 -9 -43 -23 0 -8 -5 -14 -11 -14 -6 0 -9 7 -5 15 3 10 -1 15 -14
15 -10 0 -21 4 -24 8 -2 4 10 6 29 4 23 -3 39 2 53 16 11 11 23 17 27 14 3 -4
3 1 -1 11 -6 17 -7 17 -19 0 -8 -10 -17 -15 -21 -11 -4 4 -13 3 -20 -3 -15
-12 -44 -5 -44 10 0 5 8 7 19 4 13 -3 20 2 25 21 9 38 50 36 66 -3z m40 15 c0
-8 -7 -16 -15 -20 -15 -5 -21 14 -8 27 11 12 23 8 23 -7z m127 -28 c22 -24 52
-66 66 -94 22 -44 57 -87 57 -71 0 3 -15 32 -34 64 -19 33 -38 71 -41 86 -4
15 -13 27 -21 27 -8 0 -14 7 -14 15 0 26 16 17 45 -25 30 -43 53 -55 92 -46
16 5 22 3 18 -4 -3 -5 -13 -10 -21 -10 -8 0 -14 -7 -14 -15 0 -8 -4 -15 -10
-15 -5 0 -10 5 -10 11 0 13 -29 38 -44 39 -18 0 56 -68 80 -74 25 -7 33 -26
12 -26 -14 0 13 -17 77 -50 l40 -20 -30 0 c-17 0 -48 9 -70 20 -43 22 -55 24
-55 11 0 -15 84 -51 119 -51 45 0 95 33 116 76 19 41 31 40 15 -1 -9 -23 -7
-30 7 -41 21 -16 37 -18 28 -4 -3 6 -2 10 4 10 11 0 -5 56 -22 78 -5 6 -6 12
-1 12 5 0 2 5 -6 11 -8 6 -10 9 -3 7 6 -2 23 -19 36 -38 23 -35 28 -36 78 -24
17 4 31 0 41 -10 9 -8 18 -12 22 -9 9 9 34 -27 40 -59 8 -40 0 -53 -45 -73
-32 -15 -44 -16 -65 -6 -14 6 -30 9 -35 5 -5 -3 -8 0 -7 7 2 7 -9 19 -25 26
-44 23 -21 34 26 13 53 -24 66 -24 97 0 l25 19 -24 -4 c-12 -2 -28 -9 -35 -14
-13 -11 -56 -4 -56 8 0 4 10 13 23 20 13 7 23 22 23 37 2 23 1 24 -15 10 -10
-9 -27 -16 -39 -16 -12 0 -22 -6 -22 -13 0 -8 -11 -19 -25 -25 -31 -14 -46
-15 -25 -2 12 7 12 12 2 22 -11 11 -20 9 -52 -10 -43 -24 -116 -30 -153 -11
-12 6 -37 25 -54 42 -23 22 -33 26 -33 15 0 -32 -40 -68 -75 -68 -41 0 -68 37
-70 95 -1 22 -5 51 -9 64 -10 30 7 49 29 31 11 -9 13 -16 5 -24 -5 -5 -10 -34
-10 -64 0 -47 2 -53 15 -42 8 7 25 10 40 6 23 -6 25 -3 25 24 0 39 -20 77 -60
115 l-31 30 -34 -37 c-36 -39 -62 -106 -51 -134 6 -16 7 -16 20 1 10 14 16 16
34 6 42 -22 21 -71 -30 -71 -32 0 -78 39 -78 67 0 13 -7 11 -32 -14 -18 -17
-43 -36 -55 -42 -34 -18 -104 -13 -141 9 -43 26 -66 26 -59 0 6 -25 -1 -25
-32 -1 -18 14 -21 20 -11 26 9 5 11 4 6 -3 -9 -15 -3 -15 28 -1 23 11 23 13
10 45 -9 20 -10 34 -4 34 5 0 10 -7 10 -15 0 -24 59 -83 91 -90 81 -18 155 28
205 127 30 60 100 138 123 138 9 0 35 -19 58 -42z m119 25 c3 -10 8 -24 10
-32 3 -11 7 -11 19 -1 10 8 15 9 15 2 0 -17 -16 -22 -49 -16 -32 7 -57 36 -46
54 10 16 45 11 51 -7z m144 1 c0 -9 6 -14 13 -11 6 2 11 10 10 16 -2 6 2 11 7
11 6 0 10 -6 10 -14 0 -8 14 -24 30 -36 23 -17 29 -27 25 -43 -5 -16 -4 -18 3
-8 6 8 12 9 16 3 12 -19 -21 -20 -38 0 -9 10 -30 24 -46 30 -17 5 -27 14 -24
19 3 5 -9 4 -28 -4 -23 -9 -37 -24 -45 -48 l-12 -34 3 46 c2 25 7 53 13 63 9
16 11 16 22 2 18 -22 30 -20 24 4 -3 11 0 20 6 20 6 0 11 -7 11 -16z m472 4
c8 -7 18 -22 22 -33 5 -14 0 -12 -17 8 -16 21 -30 28 -47 25 -25 -3 -27 -24
-3 -22 7 1 11 -1 9 -5 -3 -4 4 -18 15 -31 16 -21 20 -23 29 -10 6 9 10 10 10
3 0 -6 -4 -15 -10 -18 -14 -8 -13 -45 1 -45 8 0 8 -4 0 -14 -18 -21 -19 -98
-2 -104 10 -3 12 0 8 12 -4 9 -2 16 3 16 17 0 11 -30 -6 -37 -10 -4 -22 1 -29
10 -7 10 -20 17 -31 17 -17 0 -17 -1 2 -16 19 -15 19 -15 -1 -5 -11 5 -34 7
-50 5 l-30 -4 30 12 c21 9 30 19 27 31 -2 10 3 17 12 17 19 0 21 -16 4 -23 -8
-3 -6 -6 5 -6 21 -1 34 29 35 82 1 30 -2 37 -17 37 -26 0 -44 25 -36 50 7 22
-4 27 -23 8 -9 -9 -24 -8 -66 2 -74 18 -64 36 19 32 35 -1 67 2 70 8 9 14 48
12 67 -2z m-1237 -35 c-7 -25 -8 -26 -15 -8 -4 11 -3 26 3 33 15 18 20 7 12
-25z m907 -3 c-3 -33 -2 -33 18 -15 11 10 23 15 28 11 4 -4 -1 -13 -11 -20 -9
-7 -17 -24 -18 -37 l0 -24 -9 23 c-5 12 -16 22 -25 22 -8 0 -15 5 -15 10 0 6
4 10 10 10 5 0 7 13 3 31 -5 25 -3 31 8 27 9 -3 13 -17 11 -38z m-978 -29 c9
-11 8 -13 -4 -9 -8 2 -16 18 -17 34 -1 18 0 22 4 9 3 -11 10 -26 17 -34z
m1066 25 c0 -8 -7 -20 -17 -27 -15 -13 -15 -12 -6 6 6 11 8 26 5 34 -3 8 0 11
7 7 6 -4 11 -13 11 -20z m-1105 -25 c-4 -24 -2 -48 5 -61 15 -28 4 -39 -15
-14 -15 20 -19 55 -9 92 11 39 26 25 19 -17z m1139 -13 c2 -24 -3 -43 -16 -59
l-20 -24 7 30 7 30 -34 -30 -33 -30 29 32 c16 18 33 30 38 27 5 -3 6 14 2 38
-5 32 -4 40 5 32 6 -6 13 -26 15 -46z m-1059 28 c11 -8 25 -12 32 -9 7 3 19 1
26 -5 8 -7 18 -6 31 4 33 23 39 16 9 -10 -19 -17 -30 -21 -35 -13 -5 8 -8 7
-8 -3 0 -12 -2 -12 -9 -2 -4 8 -14 12 -22 11 -17 -4 -59 18 -59 31 0 14 13 12
35 -4z m-165 -21 c0 -8 -4 -15 -10 -15 -5 0 -10 7 -10 15 0 8 5 15 10 15 6 0
10 -7 10 -15z m39 -3 c-9 -14 -8 -26 5 -53 l17 -34 -21 24 c-23 26 -26 51 -8
69 17 17 20 15 7 -6z m1221 -2 c11 -20 -7 -71 -30 -85 -6 -4 -2 10 9 31 14 25
17 42 11 48 -10 10 -14 26 -5 26 2 0 9 -9 15 -20z m45 11 c9 -16 -9 -20 -23
-5 -10 12 -10 14 2 14 8 0 17 -4 21 -9z m-322 -27 c-4 -12 -8 -13 -14 -3 -9
15 -2 32 11 24 5 -3 6 -13 3 -21z m-663 7 c0 -6 -4 -13 -10 -16 -5 -3 -10 1
-10 9 0 9 5 16 10 16 6 0 10 -4 10 -9z m171 -51 c-23 -42 -39 -58 -77 -76 -27
-13 -62 -24 -79 -24 -26 0 -23 4 33 32 48 24 60 34 51 44 -8 10 -5 15 14 19
14 4 37 20 53 36 15 16 29 27 31 26 2 -2 -10 -28 -26 -57z m-504 31 c22 -18
23 -20 4 -18 -12 1 -21 5 -21 10 0 13 -25 -15 -34 -38 -6 -16 -9 -17 -16 -5
-13 21 -13 23 10 48 25 27 26 27 57 3z m301 0 c3 -8 -1 -12 -9 -9 -7 2 -15 10
-17 17 -3 8 1 12 9 9 7 -2 15 -10 17 -17z m72 10 c0 -12 -20 -25 -27 -18 -7 7
6 27 18 27 5 0 9 -4 9 -9z m588 -10 c3 -8 -1 -12 -9 -9 -7 2 -15 10 -17 17 -3
8 1 12 9 9 7 -2 15 -10 17 -17z m70 7 c-2 -6 -10 -14 -16 -16 -7 -2 -10 2 -6
12 7 18 28 22 22 4z m136 -10 c-10 -13 -20 -25 -21 -27 -2 -2 -3 5 -3 17 0 11
8 23 18 25 9 3 19 5 21 6 2 0 -4 -9 -15 -21z m-1029 -18 c16 -16 24 -30 18
-30 -7 0 -21 14 -33 30 -12 17 -20 30 -18 30 3 0 17 -13 33 -30z m28 10 c3
-11 4 -20 3 -20 -2 0 -11 9 -21 20 -15 17 -16 20 -3 20 9 0 18 -9 21 -20z
m1204 13 c-4 -3 0 -11 9 -17 9 -7 12 -18 8 -29 -8 -21 -24 -22 -24 -2 0 8 -5
15 -10 15 -7 0 -7 -6 -1 -19 8 -14 6 -22 -8 -35 -22 -20 -35 -20 -50 -2 -14
17 5 56 26 56 6 0 15 5 18 10 4 6 1 9 -6 8 -6 -2 -14 3 -16 10 -3 8 6 12 28
12 18 0 29 -3 26 -7z m-1171 -55 c-25 -57 -44 -68 -79 -45 -21 13 -22 13 -22
-9 0 -13 5 -24 10 -24 6 0 19 -7 29 -15 19 -14 18 -15 -5 -24 -15 -5 -29 -5
-36 1 -15 12 -66 21 -59 10 3 -5 19 -15 35 -22 25 -10 36 -9 75 9 61 26 68 10
10 -24 -73 -43 -154 -25 -154 34 0 29 21 76 31 70 4 -2 16 4 28 15 19 17 32
18 80 5 8 -2 25 12 39 34 36 53 45 46 18 -15z m429 31 c11 -17 -1 -21 -15 -4
-8 9 -8 15 -2 15 6 0 14 -5 17 -11z m75 2 c0 -5 -7 -11 -14 -14 -10 -4 -13 -1
-9 9 6 15 23 19 23 5z m-420 -11 c0 -5 -7 -10 -15 -10 -8 0 -15 5 -15 10 0 6
7 10 15 10 8 0 15 -4 15 -10z m50 0 c0 -5 -4 -10 -10 -10 -5 0 -10 5 -10 10 0
6 5 10 10 10 6 0 10 -4 10 -10z m50 0 c0 -5 -7 -10 -15 -10 -8 0 -15 5 -15 10
0 6 7 10 15 10 8 0 15 -4 15 -10z m570 0 c0 -5 -7 -10 -15 -10 -8 0 -15 5 -15
10 0 6 7 10 15 10 8 0 15 -4 15 -10z m48 -1 c-2 -6 -8 -10 -13 -10 -5 0 -11 4
-13 10 -2 6 4 11 13 11 9 0 15 -5 13 -11z m52 1 c0 -5 -7 -10 -15 -10 -8 0
-15 5 -15 10 0 6 7 10 15 10 8 0 15 -4 15 -10z m-1042 -12 c17 -17 15 -45 -5
-52 -10 -4 -24 1 -37 13 -16 17 -17 22 -6 35 15 19 32 20 48 4z m609 -15 c3
-7 -3 -9 -16 -6 -12 3 -21 10 -21 15 0 13 32 6 37 -9z m103 8 c0 -10 -24 -21
-43 -21 -7 0 -3 7 7 15 22 17 36 19 36 6z m-426 -16 c-6 -16 -24 -21 -24 -7 0
11 11 22 21 22 5 0 6 -7 3 -15z m76 -7 c0 -13 -23 -5 -28 10 -2 7 2 10 12 6 9
-3 16 -11 16 -16z m586 -5 c-10 -10 -19 5 -10 18 6 11 8 11 12 0 2 -7 1 -15
-2 -18z m75 14 c-1 -12 -15 -9 -19 4 -3 6 1 10 8 8 6 -3 11 -8 11 -12z m-701
-18 c0 -5 -4 -9 -10 -9 -5 0 -10 7 -10 16 0 8 5 12 10 9 6 -3 10 -10 10 -16z
m665 -8 c-9 -16 -25 -3 -18 15 4 10 9 12 15 6 6 -6 7 -15 3 -21z m450 -91 c-7
-11 -125 -10 -125 1 0 5 15 9 33 9 17 0 39 4 46 9 17 11 55 -5 46 -19z m-1472
11 c9 0 17 -5 17 -10 0 -9 -109 -13 -122 -5 -5 3 -6 9 -3 14 4 7 28 7 108 1z
m387 -16 c0 -2 -9 -3 -19 -2 -11 0 -18 5 -15 9 4 6 34 0 34 -7z m73 8 c-7 -2
-19 -2 -25 0 -7 3 -2 5 12 5 14 0 19 -2 13 -5z m305 -10 c-10 -2 -26 -2 -35 0
-10 3 -2 5 17 5 19 0 27 -2 18 -5z m100 0 c-16 -2 -40 -2 -55 0 -16 2 -3 4 27
4 30 0 43 -2 28 -4z m65 0 c-7 -2 -19 -2 -25 0 -7 3 -2 5 12 5 14 0 19 -2 13
-5z m-676 -25 c12 -13 28 -41 37 -63 l16 -40 -24 27 c-18 20 -26 24 -36 15
-10 -9 -11 -9 -6 0 9 16 -13 28 -26 15 -15 -15 10 -45 33 -39 15 4 16 0 7 -32
-20 -70 -37 -91 -101 -121 -34 -16 -88 -36 -119 -45 -89 -24 -126 -73 -97
-126 18 -35 4 -43 -26 -15 -25 23 -27 29 -16 52 7 16 8 31 2 42 -7 12 -11 6
-20 -29 l-11 -44 6 45 c4 25 6 53 6 63 0 9 3 17 7 17 4 0 18 23 31 50 22 47
23 52 7 67 -16 16 -17 15 -17 -19 0 -36 -14 -57 -28 -43 -4 4 -1 10 6 12 18 7
16 88 -3 103 -8 7 -15 16 -15 21 0 20 17 6 45 -36 24 -36 32 -42 44 -32 11 10
13 8 7 -10 -11 -34 12 -37 29 -2 9 17 19 28 22 25 3 -3 -4 -20 -16 -39 -21
-34 -20 -50 4 -41 7 3 15 -2 18 -10 4 -9 16 -16 27 -16 32 0 95 36 114 65 22
34 18 89 -7 93 -15 3 -18 0 -12 -18 5 -17 4 -21 -6 -18 -8 3 -13 15 -12 27 3
20 -16 29 -30 15 -7 -7 20 -53 41 -71 13 -11 13 -13 -3 -19 -11 -5 -22 -1 -30
10 -10 13 -18 14 -38 7 -14 -5 -27 -16 -30 -23 -2 -7 -8 -10 -12 -6 -4 4 0 18
8 32 16 23 16 25 -3 31 -24 7 -26 30 -5 39 39 15 -3 86 -50 86 -49 0 -86 -70
-52 -99 11 -8 16 -5 25 14 20 43 60 27 48 -19 -14 -58 -96 -23 -96 40 0 69 84
101 133 51 13 -12 31 -21 40 -19 11 2 17 -3 17 -13 0 -12 -5 -15 -16 -11 -11
4 -18 -1 -21 -14 -3 -11 -9 -20 -12 -20 -4 0 -8 -7 -8 -14 0 -19 23 -7 56 28
14 14 33 26 42 26 10 0 33 15 51 34 39 41 48 43 75 14z m920 -13 c42 -43 79
-54 97 -30 7 10 18 15 24 11 6 -3 22 5 36 19 55 55 143 16 134 -60 -4 -32 -3
-35 9 -19 7 10 16 15 20 11 3 -4 -1 -15 -10 -25 -20 -22 -23 -98 -4 -105 6 -2
9 -8 5 -12 -13 -14 -28 7 -28 42 0 30 -2 34 -15 23 -8 -7 -15 -19 -15 -27 0
-18 38 -93 48 -93 4 0 7 -10 8 -22 1 -13 4 -43 7 -68 l7 -45 -10 41 c-7 25
-16 41 -25 41 -18 0 -18 -5 0 -37 8 -14 15 -45 16 -70 1 -41 2 -43 9 -15 l8
30 1 -28 c0 -15 -6 -44 -14 -64 -9 -20 -13 -43 -10 -50 3 -8 0 -11 -6 -7 -10
6 -9 19 6 71 3 10 -4 -1 -15 -25 -15 -33 -17 -48 -10 -63 13 -24 2 -25 -17 -1
-12 16 -16 14 -53 -28 -61 -68 -71 -131 -24 -152 12 -6 34 -8 49 -4 21 5 26
12 23 34 -2 21 -8 27 -27 27 -13 0 -26 -6 -29 -13 -2 -8 2 -12 10 -10 7 2 15
-1 16 -7 1 -5 -6 -10 -15 -10 -27 0 -24 48 5 60 13 6 22 19 22 32 0 30 35 48
66 34 13 -6 24 -17 24 -24 0 -19 -20 -36 -36 -30 -16 6 -19 33 -4 33 6 0 10
-5 10 -11 0 -5 5 -7 11 -3 17 10 -14 36 -34 28 -22 -8 -30 -39 -18 -63 6 -11
11 -33 11 -50 0 -24 4 -31 19 -31 24 0 44 -24 39 -47 -4 -21 -29 -24 -36 -4
-3 10 0 12 12 8 9 -4 16 -3 16 1 0 20 -28 32 -75 32 -62 0 -104 18 -106 45 -1
20 -1 26 9 59 5 19 5 19 -20 0 -42 -31 -53 -54 -34 -72 15 -15 16 -15 16 3 0
15 3 16 12 7 9 -9 9 -15 0 -24 -19 -19 -47 4 -47 36 1 14 -3 26 -8 26 -4 0 -5
5 -2 10 3 6 15 10 25 10 14 0 18 5 13 17 -4 9 -2 14 3 11 5 -4 20 -1 33 7 23
12 22 13 -24 19 -46 7 -80 -4 -56 -18 6 -4 11 -2 11 4 0 6 5 8 10 5 14 -8 3
-25 -16 -25 -22 0 -30 31 -11 45 12 9 29 9 67 1 38 -7 53 -7 62 2 10 10 6 11
-18 6 -59 -12 -124 45 -124 109 0 13 9 50 20 82 25 72 26 115 4 115 -13 0 -14
-3 -5 -13 12 -15 4 -30 -10 -21 -14 8 -10 41 4 47 17 6 32 -3 40 -23 4 -11 7
-10 12 8 4 12 11 22 16 22 5 0 4 -12 -1 -26 -6 -14 -7 -30 -4 -35 3 -6 -1 -18
-8 -27 -29 -34 -27 -37 20 -34 57 4 92 -22 92 -68 0 -34 -31 -70 -59 -70 -22
0 -51 25 -51 44 0 20 27 39 45 32 8 -3 15 -1 15 4 0 14 -54 12 -68 -2 -19 -19
-14 -47 13 -73 13 -14 20 -25 15 -25 -15 0 -50 52 -50 76 0 24 33 54 61 54 21
0 53 -36 44 -49 -3 -6 -17 -8 -31 -5 -19 5 -24 2 -24 -14 0 -38 59 -35 74 4
10 26 7 39 -14 62 -24 25 -75 29 -103 8 -28 -21 -39 -73 -23 -110 15 -37 31
-51 69 -60 26 -6 27 -5 22 21 -5 23 -4 25 5 11 14 -22 48 -23 79 -2 29 21 60
89 61 132 l0 32 -21 -21 c-27 -27 -35 -18 -19 20 24 60 -12 100 -120 131 -41
11 -83 24 -92 27 -17 5 -18 -25 -21 -508 l-2 -514 -2 520 -2 519 -26 13 c-50
27 -76 125 -35 138 23 7 27 35 5 35 -8 0 -15 -5 -15 -12 0 -6 -6 -3 -14 8 -14
18 -14 18 -12 -8 2 -15 -1 -25 -6 -22 -5 3 -16 0 -25 -8 -15 -12 -15 -11 -4
10 15 29 9 38 -12 18 -13 -13 -17 -12 -38 10 -18 20 -21 29 -13 42 14 22 48
22 52 0 2 -12 -3 -18 -15 -18 -15 0 -15 2 -3 10 8 5 11 12 7 16 -11 12 -30
-13 -24 -30 9 -22 29 -20 63 6 l28 22 -25 8 c-23 7 -23 8 3 4 15 -1 33 1 40 5
18 12 17 13 55 -26z m-880 19 c-3 -3 -12 -4 -19 -1 -8 3 -5 6 6 6 11 1 17 -2
13 -5z m68 -14 c4 -13 -1 -29 -13 -45 -17 -21 -21 -23 -38 -10 -10 7 -16 17
-11 21 4 4 7 2 7 -5 0 -9 5 -9 20 -1 21 11 28 50 9 50 -6 0 -9 -7 -5 -15 3 -9
0 -15 -9 -15 -15 0 -20 21 -8 33 13 14 42 6 48 -13z m473 13 c-87 -2 -229 -2
-315 0 -87 1 -16 3 157 3 173 0 244 -2 158 -3z m-5 -20 c-84 -2 -222 -2 -305
0 -84 1 -16 3 152 3 168 0 236 -2 153 -3z m-843 -13 c0 -5 -2 -10 -4 -10 -3 0
-8 5 -11 10 -3 6 -1 10 4 10 6 0 11 -4 11 -10z m22 -22 c-7 -7 -12 -8 -12 -2
0 14 12 26 19 19 2 -3 -1 -11 -7 -17z m840 -36 c211 -104 290 -367 169 -564
-21 -33 -25 -45 -14 -41 11 4 14 2 9 -5 -4 -7 -13 -12 -19 -12 -13 -1 -95 -70
-83 -70 4 0 29 11 56 25 49 25 83 33 65 16 -17 -15 -189 -85 -208 -84 -9 1
-16 -1 -13 -5 2 -4 -7 -7 -20 -7 -13 0 -24 4 -24 9 0 5 -8 2 -17 -5 -9 -8 -5
4 10 26 32 47 33 55 9 55 -10 0 -28 -13 -40 -30 -32 -43 -26 -51 8 -10 39 44
39 26 1 -21 -21 -25 -38 -35 -62 -37 -39 -3 -49 -15 -49 -58 0 -24 -5 -33 -22
-37 -13 -4 -26 -1 -30 6 -5 9 -48 11 -155 10 -93 -1 -142 2 -133 7 8 6 67 10
130 10 78 0 110 3 100 10 -8 5 -44 10 -80 11 -83 1 -168 12 -155 20 6 4 69 0
140 -7 134 -14 162 -13 149 8 -5 8 -2 9 10 5 10 -4 15 -3 11 3 -3 6 4 10 17
11 17 1 13 3 -12 10 -19 4 -41 6 -48 4 -8 -3 -10 0 -6 7 5 8 2 9 -9 5 -18 -7
-217 80 -217 95 0 4 36 -10 80 -32 44 -22 80 -39 80 -36 0 2 -18 15 -39 29
-21 14 -54 47 -72 72 -33 46 -34 47 -51 25 -39 -48 -61 -131 -62 -230 0 -82 4
-104 28 -160 38 -91 40 -97 22 -97 -8 0 -13 4 -10 8 3 5 -4 26 -16 48 -47 93
-57 233 -24 335 19 57 54 126 65 126 4 0 -1 21 -11 48 -74 197 12 411 204 508
69 35 73 35 171 32 90 -3 108 -7 167 -36z m-769 -122 c-9 -11 -19 -17 -21 -15
-6 6 18 35 29 35 5 0 1 -9 -8 -20z m134 -887 c-1 -159 -2 -29 -2 287 0 316 1
446 2 288 2 -159 2 -417 0 -575z m930 805 c-3 -7 -5 -2 -5 12 0 14 2 19 5 13
2 -7 2 -19 0 -25z m-1057 -38 c0 -13 -1 -13 -10 0 -5 8 -10 22 -10 30 0 13 1
13 10 0 5 -8 10 -22 10 -30z m60 25 c12 -15 6 -35 -12 -35 -5 0 -8 7 -4 15 3
8 1 15 -5 15 -20 0 -20 -32 0 -99 33 -109 25 -156 -31 -191 -35 -21 -74 -27
-63 -10 3 6 16 10 29 10 59 0 96 102 56 153 -40 51 -130 28 -130 -33 0 -15 7
-33 14 -40 21 -17 60 -9 64 14 4 16 0 18 -27 13 -25 -5 -31 -3 -31 11 0 41 48
56 82 25 30 -27 22 -85 -16 -105 -21 -10 -20 -10 2 14 26 28 28 60 6 82 -19
20 -38 20 -54 2 -10 -13 -7 -15 17 -13 24 2 28 -2 31 -25 5 -39 -36 -58 -71
-35 -73 48 -11 158 73 129 23 -9 31 -9 28 0 -2 6 -14 12 -26 13 -12 1 -25 5
-29 10 -5 4 2 4 15 1 29 -10 28 -1 -9 45 -17 21 -27 39 -23 39 5 0 18 -12 30
-27 21 -27 23 -27 30 -8 16 45 34 55 54 30z m955 5 c3 -6 -1 -7 -9 -4 -18 7
-21 14 -7 14 6 0 13 -4 16 -10z m210 -30 c-10 -11 -20 -18 -23 -15 -3 3 3 14
13 25 10 11 20 18 23 15 3 -3 -3 -14 -13 -25z m-1284 -6 c17 -16 16 -49 -2
-38 -5 3 -7 -1 -4 -8 3 -7 -6 -18 -20 -25 -24 -11 -36 -1 -15 12 12 7 14 26 3
24 -24 -4 -43 2 -37 12 4 6 19 9 35 5 27 -5 29 -4 19 14 -13 24 -3 26 21 4z
m1324 -3 c-5 -16 -1 -19 26 -18 18 1 34 -3 36 -10 3 -7 -7 -10 -26 -9 -33 2
-41 -8 -16 -18 8 -3 15 -10 15 -16 0 -16 -56 16 -64 36 -4 10 1 25 10 35 22
24 27 24 19 0z m-1188 -73 c-2 -13 -4 -5 -4 17 -1 22 1 32 4 23 2 -10 2 -28 0
-40z m1143 22 c-8 -5 -19 -10 -25 -10 -5 0 -3 5 5 10 8 5 20 10 25 10 6 0 3
-5 -5 -10z m-163 -57 c-3 -10 -5 -4 -5 12 0 17 2 24 5 18 2 -7 2 -21 0 -30z
m-1247 -9 c0 -30 31 -93 56 -116 30 -26 74 -28 74 -2 0 8 4 12 10 9 13 -8 -11
-45 -30 -46 -10 0 -7 -4 7 -11 15 -7 34 -8 62 0 46 11 79 -4 68 -32 -8 -20
-37 -21 -37 -1 0 8 5 15 11 15 5 0 7 -5 3 -12 -5 -7 -3 -8 5 -3 25 15 -6 27
-50 20 -39 -7 -41 -9 -24 -21 10 -7 22 -11 26 -8 5 3 9 -1 9 -9 0 -8 10 -18
23 -22 12 -3 17 -8 11 -11 -6 -3 -9 -16 -6 -29 3 -17 -1 -27 -12 -31 -20 -8
-21 -24 -2 -24 36 0 61 -81 30 -98 -14 -8 -14 -10 0 -21 32 -27 8 -101 -32
-101 -13 0 -12 -3 3 -20 12 -13 15 -27 11 -45 -5 -20 -4 -25 6 -20 7 4 4 -1
-7 -10 -11 -9 -19 -21 -17 -26 1 -5 -9 -9 -22 -9 -41 0 -38 -17 4 -28 30 -7
42 -7 50 3 8 10 8 15 -1 21 -8 4 -9 3 -5 -4 4 -7 2 -12 -3 -12 -6 0 -11 7 -11
15 0 20 29 19 36 0 10 -26 -16 -47 -50 -39 l-31 6 35 -24 c52 -35 59 -76 30
-176 -22 -77 -22 -112 0 -112 7 0 9 8 5 22 -6 16 -4 20 8 15 9 -3 17 -1 19 4
2 6 4 -11 5 -38 0 -40 -1 -43 -7 -18 -4 17 -8 24 -9 17 -2 -25 -46 -9 -50 18
-3 24 -4 23 -17 -10 l-12 -35 2 41 c1 23 6 48 12 55 26 34 26 39 -5 33 -49
-10 -80 3 -98 41 -15 31 -15 36 1 60 22 33 41 40 72 27 41 -19 21 -82 -21 -65
-13 4 -16 3 -11 -5 9 -16 49 -15 64 0 18 18 14 49 -10 75 -12 13 -16 23 -10
23 17 0 42 -42 42 -72 0 -38 -41 -65 -75 -50 -14 7 -25 20 -25 30 0 26 11 34
27 20 16 -13 39 4 29 21 -9 15 -49 14 -64 -1 -20 -20 -14 -65 10 -82 61 -43
142 17 123 91 -9 38 -44 73 -71 73 -28 0 -40 17 -17 23 15 4 15 5 -2 6 -11 0
-27 -4 -35 -9 -13 -8 -12 -10 3 -10 9 0 17 -4 17 -10 0 -5 -13 -10 -28 -10
-42 0 -88 -58 -106 -134 -5 -22 -10 -26 -19 -17 -8 8 -8 22 1 56 7 25 12 55
12 67 0 17 3 19 12 10 9 -9 9 -18 -1 -38 -6 -15 -10 -28 -8 -31 10 -9 29 59
23 84 -6 27 -6 27 9 8 15 -19 15 -19 34 0 16 16 17 25 9 45 -9 21 -12 22 -15
8 -6 -23 -49 -34 -68 -18 -25 21 -19 50 10 50 16 0 25 -6 25 -15 0 -8 -4 -15
-10 -15 -5 0 -10 5 -10 11 0 5 -5 7 -11 3 -17 -10 14 -36 35 -28 14 6 17 14
11 43 -3 20 -7 49 -9 64 -2 18 -12 33 -27 41 -16 7 -24 20 -24 36 0 27 25 35
33 11 3 -10 0 -12 -12 -8 -9 4 -16 3 -16 -1 0 -20 28 -32 72 -32 58 0 98 -17
98 -42 0 -10 4 -18 9 -18 6 0 4 -12 -4 -27 -20 -38 -10 -41 25 -8 33 32 39 60
14 69 -12 4 -15 2 -10 -9 3 -8 1 -15 -5 -15 -6 0 -9 8 -7 17 2 14 -9 22 -45
35 -48 17 -157 92 -157 108 0 17 120 97 164 110 34 9 44 16 36 25 -10 12 -4
25 11 25 5 0 6 -7 3 -15 -5 -11 -2 -13 10 -9 32 12 10 59 -41 88 -14 8 -7 -19
10 -41 6 -9 6 -13 -2 -13 -6 0 -11 -9 -11 -19 0 -25 -21 -33 -100 -40 -51 -5
-66 -10 -68 -23 -2 -13 1 -16 12 -12 9 3 16 2 16 -4 0 -18 -30 -22 -37 -5 -8
21 9 47 34 51 14 2 20 11 21 35 0 18 4 48 7 68 6 29 3 37 -11 43 -19 7 -53
-18 -40 -31 4 -4 11 -1 16 7 5 8 12 11 15 8 10 -10 -4 -28 -21 -28 -20 0 -29
27 -14 45 18 22 46 18 64 -7 l15 -22 10 25 c7 19 5 28 -10 44 -19 19 -19 19
-34 0 -14 -19 -14 -18 -9 12 3 17 1 39 -5 50 -10 15 -10 14 -5 -8 3 -15 1 -30
-5 -33 -7 -5 -11 2 -11 17 0 13 -5 38 -11 56 -12 34 -4 86 11 76 6 -3 10 -17
10 -31z m45 -34 c4 -17 22 -43 43 -60 20 -16 31 -30 25 -30 -23 0 -69 49 -80
84 -6 20 -7 36 -3 36 5 0 11 -13 15 -30z m1490 -7 c-16 -39 -57 -83 -78 -83
-7 0 2 11 20 25 17 14 37 41 43 60 6 19 16 35 21 35 5 0 2 -17 -6 -37z m-288
-50 c-2 -16 -4 -3 -4 27 0 30 2 43 4 28 2 -16 2 -40 0 -55z m-980 -645 c-1
-117 -2 -24 -2 207 0 231 1 327 2 213 2 -114 2 -303 0 -420z m980 535 c-3 -10
-5 -4 -5 12 0 17 2 24 5 18 2 -7 2 -21 0 -30z m243 -23 c-19 -12 -19 -10 -13
25 6 29 6 29 16 6 8 -17 7 -25 -3 -31z m-326 29 c-3 -5 4 -26 16 -48 37 -73
53 -166 42 -246 -10 -72 -41 -166 -67 -199 -27 -36 -24 -11 6 50 62 124 62
263 1 386 -16 32 -27 60 -25 61 7 7 32 3 27 -4z m-4 -71 c0 -17 -10 -6 -25 25
l-16 32 20 -25 c11 -14 21 -28 21 -32z m117 20 c-3 -8 -6 -5 -6 6 -1 11 2 17
5 13 3 -3 4 -12 1 -19z m-1271 -38 c0 -10 -7 -22 -16 -28 -13 -8 -16 -4 -17
23 -1 26 3 32 16 28 9 -2 17 -12 17 -23z m1588 -8 c1 -24 -2 -27 -14 -19 -9 5
-16 17 -16 27 0 10 4 16 8 14 4 -3 8 0 8 7 0 26 13 -2 14 -29z m-347 -54 c-2
-13 -4 -5 -4 17 -1 22 1 32 4 23 2 -10 2 -28 0 -40z m-720 -5 c56 -20 101 -39
98 -41 -4 -5 -225 68 -225 74 0 10 31 2 127 -33z m633 33 c0 -6 -221 -79 -225
-74 -5 4 193 76 213 77 6 1 12 -1 12 -3z m326 -41 c28 -14 63 -38 79 -55 l29
-30 -28 -29 c-34 -35 -135 -91 -165 -91 -30 0 -77 26 -85 45 -10 28 -7 54 10
63 14 8 14 10 0 21 -22 18 -20 57 4 81 28 28 93 26 156 -5z m-954 -26 c54 -12
96 -24 94 -26 -7 -8 -236 41 -236 50 0 5 10 7 23 4 12 -3 66 -16 119 -28z
m638 22 c0 -9 -228 -57 -235 -49 -3 3 48 16 112 30 65 14 119 26 121 27 1 1 2
-3 2 -8z m77 -63 c-2 -13 -4 -5 -4 17 -1 22 1 32 4 23 2 -10 2 -28 0 -40z
m-582 32 c-3 -5 -12 -10 -18 -10 -7 0 -6 4 3 10 19 12 23 12 15 0z m255 -6 c0
-2 -7 -4 -15 -4 -8 0 -15 4 -15 10 0 5 7 7 15 4 8 -4 15 -8 15 -10z m-24 -10
l29 -16 -30 5 c-27 5 -28 4 -10 -9 10 -8 24 -14 29 -15 6 -1 0 -4 -14 -8 -18
-5 13 -14 115 -35 77 -16 144 -32 150 -37 13 -13 6 -12 -118 17 -88 20 -116
23 -135 14 -14 -6 -27 -8 -30 -6 -3 3 6 10 19 15 16 7 19 10 7 10 -9 1 -20 -3
-23 -9 -3 -5 -18 -10 -33 -11 -24 -1 -24 -2 7 -9 19 -5 41 -6 49 -2 11 4 13 1
7 -8 -5 -9 -4 -11 4 -6 6 4 57 -14 114 -40 111 -50 113 -51 105 -59 -3 -3 -35
10 -70 30 -36 19 -69 35 -73 35 -4 0 14 -19 41 -42 26 -24 53 -42 60 -40 7 1
16 -3 20 -9 5 -8 2 -10 -8 -7 -11 5 -5 -14 19 -60 18 -37 38 -92 44 -124 20
-113 -22 -247 -105 -336 -25 -27 -43 -51 -40 -54 3 -3 -3 -5 -13 -4 -10 0 -17
-4 -16 -9 1 -6 -6 -11 -15 -12 -9 0 -44 -11 -77 -23 -90 -33 -208 -26 -298 18
-198 98 -280 338 -182 537 25 53 88 126 135 158 14 10 -12 -1 -57 -23 -46 -22
-83 -36 -83 -32 0 8 82 49 180 90 25 10 52 17 60 15 10 -3 8 1 -4 11 -24 20
-8 21 17 1 11 -7 26 -11 35 -7 12 4 8 -6 -11 -32 -17 -22 -26 -43 -23 -53 6
-14 11 -12 36 12 17 16 30 34 30 39 -1 6 -11 -1 -23 -16 -37 -45 -41 -32 -6
17 29 40 37 45 70 45 33 0 38 3 44 30 4 16 4 34 1 39 -4 5 2 14 11 20 24 14
26 14 59 -5z m-86 -9 c15 -18 10 -45 -12 -59 -33 -20 -69 20 -54 60 7 18 50
18 66 -1z m-443 -32 c-3 -10 -5 -4 -5 12 0 17 2 24 5 18 2 -7 2 -21 0 -30z
m300 31 c-3 -3 -12 -4 -19 -1 -8 3 -5 6 6 6 11 1 17 -2 13 -5z m493 -4 c-14
-4 -72 -8 -130 -7 -100 0 -101 1 -35 7 106 10 195 10 165 0z m-20 -38 c86 -14
24 -18 -90 -6 l-115 11 80 1 c44 0 100 -3 125 -6z m107 -69 c-2 -16 -4 -3 -4
27 0 30 2 43 4 28 2 -16 2 -40 0 -55z m-622 52 c-33 -13 -235 -51 -235 -44 0
4 17 11 38 15 20 3 64 12 97 19 56 12 122 18 100 10z m-83 -51 c-98 -36 -151
-51 -141 -40 8 9 200 74 219 75 8 0 -27 -16 -78 -35z m504 -1 c62 -20 111 -39
109 -43 -3 -4 -51 9 -107 29 -133 49 -135 49 -124 50 5 1 60 -15 122 -36z
m554 7 c0 -23 -26 -50 -47 -50 -9 0 -13 -6 -10 -14 3 -8 -1 -33 -10 -55 -17
-45 -7 -71 27 -71 20 0 34 26 20 35 -6 4 -10 1 -10 -4 0 -6 -4 -11 -10 -11 -5
0 -10 7 -10 15 0 20 39 20 46 0 14 -35 -46 -61 -74 -33 -7 7 -12 22 -12 34 0
16 -7 24 -22 26 -16 2 -24 11 -26 29 -3 29 23 48 42 29 8 -8 4 -12 -12 -16
-23 -7 -29 -19 -12 -29 20 -12 50 6 50 29 0 54 -71 58 -97 6 -16 -32 5 -81 55
-133 29 -30 38 -34 45 -22 4 8 12 15 18 15 5 0 4 -8 -2 -18 -9 -14 -8 -25 5
-48 l17 -29 -6 35 c-4 30 -2 28 14 -15 34 -88 23 -186 -32 -292 -26 -51 -26
-51 -7 -75 l19 -23 1 42 c0 40 14 63 28 48 4 -4 1 -10 -5 -12 -17 -6 -17 -95
-1 -111 6 -6 9 -14 7 -17 -3 -3 -21 16 -39 42 -19 26 -36 41 -38 35 -2 -7 -9
-12 -15 -12 -8 0 -8 3 0 11 6 6 9 18 6 25 -3 8 0 14 6 14 7 0 23 25 37 55 25
58 32 92 13 65 -7 -10 -9 -11 -7 -2 2 8 8 13 13 12 14 -2 23 37 23 100 l-1 55
-7 -50 c-7 -58 -33 -106 -70 -129 l-25 -16 28 6 c16 4 27 2 27 -4 0 -6 -30
-14 -67 -18 -47 -5 -62 -9 -48 -14 11 -4 24 -5 28 -3 5 3 15 -3 22 -13 13 -18
14 -18 29 1 8 11 16 17 16 14 0 -13 -31 -65 -56 -94 l-26 -30 21 38 c16 29 19
43 11 58 -13 24 -22 25 -13 2 6 -17 5 -17 -13 -1 -28 24 -45 24 -89 1 -60 -31
-77 -54 -73 -99 2 -29 8 -40 22 -42 15 -3 18 0 13 17 -3 14 0 21 9 21 8 0 13
-9 11 -21 -4 -41 21 -29 59 28 21 31 40 51 42 44 2 -7 -3 -20 -12 -30 -19 -20
-21 -35 -4 -25 7 5 8 3 3 -6 -6 -10 -4 -12 8 -7 11 4 17 1 17 -8 0 -8 -4 -15
-9 -15 -11 0 -21 -38 -15 -55 8 -19 59 -38 84 -30 11 4 28 18 37 31 13 20 14
30 4 51 l-12 25 -24 -28 c-23 -26 -26 -27 -41 -12 -13 12 -14 20 -5 37 15 27
55 27 81 1 67 -67 -48 -162 -118 -98 -13 13 -31 23 -39 23 -9 0 -18 6 -21 14
-3 10 0 12 11 8 10 -4 21 3 31 18 23 34 1 43 -32 13 -15 -13 -46 -32 -68 -42
-23 -10 -47 -29 -53 -42 -14 -32 -21 -30 -71 11 -23 19 -47 35 -54 35 -18 0
-35 -21 -29 -36 8 -23 25 -16 18 7 -5 15 -3 20 6 17 21 -7 23 -37 4 -44 -23
-9 -49 19 -40 45 5 16 15 21 41 21 24 0 33 4 28 11 -4 7 -1 10 7 7 8 -3 14
-10 14 -15 0 -6 4 -15 9 -20 5 -4 6 -3 3 3 -4 7 0 14 8 18 9 3 15 0 15 -9 0
-18 16 -20 26 -3 4 6 -4 20 -19 33 -33 25 -33 34 -5 88 12 23 21 49 20 57 -2
12 -1 12 6 2 8 -11 17 -10 50 7 23 12 66 28 97 36 119 31 168 84 130 141 -8
13 -15 26 -15 29 0 12 21 4 40 -15 l20 -20 0 29 c0 43 -17 82 -53 119 -34 35
-70 41 -87 15 -10 -16 -11 -15 -7 5 4 17 1 22 -15 22 -31 0 -56 -18 -74 -51
-43 -83 56 -170 123 -107 27 25 29 45 6 70 -19 21 -59 24 -66 4 -8 -21 13 -38
31 -24 10 9 15 9 22 -2 22 -36 -33 -63 -75 -36 -33 22 -33 65 0 96 14 13 27
21 30 18 3 -2 -6 -15 -20 -28 -14 -13 -25 -31 -25 -41 0 -23 36 -48 61 -42 26
7 24 20 -2 19 -12 -1 -26 7 -33 17 -9 15 -7 22 13 38 29 24 32 24 65 -2 34
-26 34 -68 2 -98 -20 -19 -33 -22 -69 -20 -45 4 -47 1 -23 -30 6 -7 11 -32 12
-55 2 -41 2 -41 -9 -11 -11 30 -11 30 -17 6 -7 -31 -23 -36 -44 -15 -13 12
-14 19 -5 30 6 8 15 11 21 8 5 -3 4 -12 -4 -22 -11 -13 -11 -14 2 -10 23 7 23
47 0 112 -24 71 -25 97 -5 136 19 38 43 50 97 51 34 0 39 2 22 9 -13 5 -39 4
-64 -2 -34 -9 -44 -8 -57 5 -13 13 -14 19 -4 31 13 15 41 11 41 -6 0 -5 -10
-6 -22 -3 -21 7 -22 6 -8 -9 14 -14 21 -14 60 -2 l45 14 -32 7 c-18 4 -30 11
-27 16 3 5 1 9 -3 9 -5 0 -18 7 -29 16 -10 8 -14 13 -8 10 8 -4 11 5 10 27 -1
28 2 32 24 32 18 0 25 -5 24 -17 -1 -10 2 -18 7 -18 5 0 9 9 9 20 0 11 3 19 8
18 4 -1 17 3 29 10 12 7 45 11 73 10 36 -2 54 2 60 12 14 22 12 30 -5 24 -15
-6 -21 7 -9 19 11 11 34 -5 34 -23z m-1223 -12 c-3 -7 -5 -2 -5 12 0 14 2 19
5 13 2 -7 2 -19 0 -25z m810 0 c-3 -7 -5 -2 -5 12 0 14 2 19 5 13 2 -7 2 -19
0 -25z m-788 -63 c0 -5 -4 -3 -9 5 -5 8 -9 22 -9 30 0 16 17 -16 18 -35z
m-393 -5 c0 -10 -4 -16 -8 -14 -4 3 -8 -2 -8 -11 0 -9 -4 -14 -9 -11 -5 3 -9
21 -8 40 1 28 3 32 17 24 9 -6 16 -18 16 -28z m1241 -338 c-1 -70 -3 -12 -3
128 0 140 2 198 3 127 2 -70 2 -184 0 -255z m347 337 c-2 -33 -14 -54 -14 -25
0 9 -4 15 -9 12 -12 -8 -8 27 4 36 18 13 21 9 19 -23z m-443 -32 c-10 -9 -11
-8 -5 6 3 10 9 15 12 12 3 -3 0 -11 -7 -18z m-686 -7 c-3 -5 -11 -10 -16 -10
-6 0 -7 5 -4 10 3 6 11 10 16 10 6 0 7 -4 4 -10z m1035 -45 c0 -25 -18 -25
-22 -1 -4 17 -1 23 9 19 7 -3 13 -11 13 -18z m-1355 -74 c3 -5 1 -12 -5 -16
-5 -3 -10 1 -10 9 0 18 6 21 15 7z m-65 -39 c-22 -22 -40 -48 -40 -60 0 -12
-4 -22 -10 -22 -13 0 -13 4 4 44 7 18 26 42 41 54 45 36 49 25 5 -16z m1427
-4 c12 -12 24 -36 27 -53 5 -25 3 -22 -13 13 -11 23 -31 47 -46 54 -14 6 -25
15 -25 20 0 12 31 -6 57 -34z m-210 -100 c-3 -7 -5 -2 -5 12 0 14 2 19 5 13 2
-7 2 -19 0 -25z m-1252 -5 c-5 -10 -10 -33 -13 -51 -3 -26 1 -36 22 -53 32
-25 28 -36 -6 -18 -12 7 -26 13 -30 14 -3 0 -10 4 -15 9 -5 5 -3 6 5 2 16 -10
15 6 -3 30 -19 25 -19 40 2 64 22 25 48 27 38 3z m-11 -200 c37 -71 45 -96 25
-76 -8 8 -18 4 -35 -15 l-23 -27 -1 42 c0 23 -4 45 -10 48 -14 9 -12 27 3 23
6 -3 14 -22 17 -44 5 -37 6 -38 18 -17 11 19 9 29 -9 65 -12 24 -25 45 -29 48
-4 3 -7 12 -8 20 0 8 -3 40 -6 70 l-6 55 14 -61 c8 -34 30 -93 50 -131z m76
165 c0 -5 4 -6 10 -3 18 11 23 -43 6 -61 -21 -20 -34 -10 -15 12 11 14 10 16
-11 14 -38 -3 -50 -1 -50 10 0 6 12 10 27 10 21 0 24 3 15 12 -17 17 -15 29 3
22 8 -4 15 -10 15 -16z m1187 -10 c-3 -7 -5 -2 -5 12 0 14 2 19 5 13 2 -7 2
-19 0 -25z m180 11 c-9 -6 -17 -15 -17 -20 0 -6 4 -8 9 -5 14 9 42 -5 35 -16
-3 -5 -17 -7 -31 -3 -21 5 -24 3 -18 -15 8 -25 -6 -26 -22 -1 -17 27 -6 56 25
68 32 11 45 6 19 -8z m-1160 -66 c-2 -16 -4 -3 -4 27 0 30 2 43 4 28 2 -16 2
-40 0 -55z m-137 63 c0 -2 -7 -7 -16 -10 -8 -3 -12 -2 -9 4 6 10 25 14 25 6z
m-22 -75 c-7 -12 -16 -21 -21 -21 -8 0 -2 14 16 38 16 20 20 6 5 -17z m1267
-19 c-6 -7 -34 29 -34 43 0 6 9 -1 20 -14 11 -13 17 -26 14 -29z m-220 -2 c-3
-5 -12 -10 -18 -10 -7 0 -6 4 3 10 19 12 23 12 15 0z m-1025 -26 c105 -31 163
-78 170 -139 4 -35 0 -43 -20 -50 -11 -3 -20 -13 -20 -21 0 -17 30 -19 31 -1
0 10 2 10 6 0 7 -20 22 -15 18 5 -2 12 3 18 16 19 10 1 19 -2 19 -8 0 -5 -6
-9 -12 -10 -10 0 -10 -2 0 -6 17 -7 15 -23 -3 -23 -8 0 -15 -2 -15 -4 0 -2 -3
-11 -6 -19 -4 -11 2 -17 18 -19 13 -3 0 -5 -29 -6 -42 -1 -53 3 -58 17 -3 11
-28 29 -56 40 -27 12 -52 28 -55 36 -3 7 -18 18 -34 24 -24 8 -28 7 -23 -5 3
-8 9 -14 13 -14 4 0 10 -9 13 -20 4 -14 10 -18 22 -13 13 4 16 2 13 -8 -3 -8
-11 -14 -19 -14 -8 0 -28 -10 -43 -23 -37 -28 -68 -28 -102 1 -19 17 -27 33
-27 55 0 25 -3 29 -14 21 -8 -7 -13 -8 -13 -1 0 5 7 15 15 22 8 7 15 10 15 6
0 -4 11 1 25 10 46 30 98 -17 60 -55 -15 -15 -17 -15 -31 3 -8 11 -14 25 -14
30 0 7 3 8 8 1 12 -16 32 -16 32 0 0 18 -41 20 -58 3 -35 -35 11 -113 61 -101
50 13 75 62 40 81 -20 12 -10 47 12 38 19 -7 19 -1 -1 30 -19 27 -11 47 9 22
18 -24 53 -32 61 -13 6 16 36 21 36 6 0 -5 -7 -14 -15 -21 -8 -7 -15 -18 -15
-25 0 -8 -6 -15 -12 -18 -10 -4 -10 -7 0 -18 9 -10 15 -10 24 -1 9 9 9 12 0
12 -6 0 -9 7 -6 15 10 24 33 18 27 -6 -5 -17 -2 -20 13 -17 14 2 20 13 22 41
3 30 -2 43 -27 67 -16 17 -26 30 -22 30 4 0 12 -5 19 -12 7 -7 12 -8 12 -2 0
14 -48 36 -61 29 -5 -4 -9 -1 -9 5 0 8 -9 10 -26 6 -15 -4 -23 -3 -20 2 6 10
-39 22 -85 22 -15 0 -31 5 -34 10 -9 15 85 5 155 -16z m137 -21 c-3 -10 -5 -2
-5 17 0 19 2 27 5 18 2 -10 2 -26 0 -35z m-228 -4 c12 15 20 18 31 11 13 -8
12 -12 -4 -27 -18 -17 -19 -17 -12 2 6 20 6 20 -9 1 -13 -17 -12 -23 6 -53 12
-19 19 -36 16 -39 -3 -3 -13 8 -22 25 -8 17 -20 31 -25 31 -6 0 -10 9 -10 19
0 11 -4 23 -10 26 -5 3 -10 12 -9 18 0 7 7 1 16 -11 l17 -24 15 21z m92 -41
c11 -21 11 -22 -4 -9 -10 7 -17 17 -17 22 0 15 9 10 21 -13z m1213 -2 c-3 -9
-10 -16 -15 -16 -5 0 -4 9 3 20 14 22 21 20 12 -4z m-219 -37 c11 -16 1 -19
-13 -3 -7 8 -8 14 -3 14 5 0 13 -5 16 -11z m181 -4 c4 -10 13 -13 25 -10 26 8
24 1 -6 -30 -31 -30 -35 -31 -28 -7 2 10 -3 24 -11 31 -9 8 -16 17 -16 22 0
15 30 10 36 -6z m-1316 -89 c0 -3 -4 -8 -10 -11 -5 -3 -10 -1 -10 4 0 6 5 11
10 11 6 0 10 -2 10 -4z m421 -65 c-14 -25 -39 -28 -48 -5 -6 17 13 42 24 30 4
-4 1 -11 -6 -15 -9 -6 -10 -11 -2 -15 16 -10 25 22 11 39 -6 8 -15 14 -18 13
-20 -2 -25 3 -12 12 11 7 21 3 39 -14 19 -20 21 -27 12 -45z m-346 39 c3 -5 1
-10 -4 -10 -6 0 -11 5 -11 10 0 6 2 10 4 10 3 0 8 -4 11 -10z m1345 -6 c0 -8
-5 -12 -10 -9 -6 4 -8 11 -5 16 9 14 15 11 15 -7z m65 -4 c3 -5 1 -10 -4 -10
-6 0 -11 5 -11 10 0 6 2 10 4 10 3 0 8 -4 11 -10z m-1435 -10 c0 -5 -4 -10
-10 -10 -5 0 -10 5 -10 10 0 6 5 10 10 10 6 0 10 -4 10 -10z m1400 0 c0 -5 -5
-10 -11 -10 -5 0 -7 5 -4 10 3 6 8 10 11 10 2 0 4 -4 4 -10z m-1207 -42 c20
-13 36 -29 37 -36 0 -9 8 -11 23 -8 12 3 16 3 10 0 -17 -8 -16 -21 2 -28 8 -3
30 3 47 14 67 38 137 31 192 -20 l43 -40 6 29 c14 68 112 81 112 16 0 -23 -5
-31 -22 -33 -13 -2 -23 1 -23 7 0 6 -4 11 -10 11 -14 0 -13 -66 1 -93 19 -36
71 -86 84 -80 7 2 25 21 39 42 47 67 57 144 16 119 -44 -28 -70 28 -26 58 22
13 29 14 53 2 15 -7 34 -26 41 -42 l14 -28 28 27 c56 54 146 64 203 24 31 -22
63 -18 53 6 -7 18 -4 18 29 3 15 -7 24 -17 21 -25 -4 -9 3 -13 22 -13 16 0 33
-5 39 -11 7 -7 12 -5 15 9 4 14 -1 23 -18 31 -13 6 -24 15 -24 20 0 14 36 19
56 8 10 -6 27 -12 38 -12 16 -2 15 1 -5 17 -26 20 -62 18 -111 -6 -40 -21 -37
4 5 29 51 31 77 35 112 20 42 -17 55 -40 44 -78 -9 -31 -29 -60 -36 -53 -2 2
-16 -2 -30 -9 -17 -9 -34 -10 -55 -4 -25 7 -33 5 -49 -14 -10 -13 -16 -31 -13
-42 4 -16 3 -17 -5 -5 -7 10 -11 11 -11 3 0 -7 -5 -13 -10 -13 -6 0 -4 16 6
38 19 46 26 92 13 92 -5 0 -18 -5 -28 -12 -17 -10 -17 -14 -5 -45 8 -18 11
-33 6 -33 -4 0 -14 16 -20 34 -24 65 -109 94 -185 62 -41 -16 -76 -58 -118
-137 -29 -54 -92 -119 -117 -119 -17 0 -103 99 -119 138 -14 33 -61 102 -52
76 18 -53 87 -183 97 -184 14 0 16 -16 2 -25 -5 -3 -15 5 -22 19 -14 32 -25
33 -24 4 1 -17 -5 -24 -22 -26 -12 -2 -24 3 -26 10 -15 50 -16 51 -31 38 -10
-8 -15 -9 -15 -2 0 19 19 23 55 13 20 -5 35 -6 35 -1 0 15 -36 30 -72 31 -23
1 -26 3 -10 6 12 2 22 11 22 19 0 8 5 14 10 14 6 0 10 -6 10 -13 0 -7 9 -18
20 -25 30 -18 24 -2 -12 35 -18 18 -40 33 -50 33 -10 0 -18 5 -18 10 0 6 6 10
12 10 18 0 -59 51 -91 60 -25 8 -24 8 9 9 19 1 49 -8 66 -18 17 -11 37 -16 43
-11 9 5 2 14 -22 29 -44 27 -111 28 -154 1 -35 -21 -78 -93 -69 -116 3 -8 1
-14 -5 -14 -5 0 -12 8 -16 18 -14 40 -44 61 -80 55 -61 -10 -112 29 -113 85 0
26 6 36 33 53 38 23 68 20 120 -13z m399 25 c-40 -2 -103 -2 -140 0 -37 2 -4
3 73 3 77 0 107 -2 67 -3z m251 0 c-29 -2 -77 -2 -105 0 -29 2 -6 3 52 3 58 0
81 -1 53 -3z m100 0 c-7 -2 -21 -2 -30 0 -10 3 -4 5 12 5 17 0 24 -2 18 -5z
m-90 -20 c-84 -2 -222 -2 -305 0 -84 1 -16 3 152 3 168 0 236 -2 153 -3z
m-860 -13 c28 -1 37 -3 27 -9 -24 -13 -110 -20 -116 -9 -8 13 17 29 34 23 8
-3 32 -5 55 -5z m900 -7 c-111 -2 -295 -2 -410 0 -114 1 -24 2 202 2 226 0
319 -1 208 -2z m587 -7 c0 -9 -16 -11 -57 -8 -82 6 -87 20 -9 20 47 0 66 -3
66 -12z m-1584 -45 c0 -11 -4 -17 -8 -15 -4 3 -8 12 -8 20 0 8 4 14 8 14 4 0
8 -9 8 -19z m78 3 c31 3 34 2 11 -3 -20 -4 -26 -9 -17 -14 17 -11 15 -27 -3
-27 -9 0 -12 6 -9 15 9 21 -13 19 -25 -3 -5 -10 -10 -37 -9 -59 0 -33 5 -43
24 -52 18 -8 24 -19 24 -41 0 -29 13 -40 25 -20 14 23 105 2 105 -24 0 -3 -25
-6 -56 -6 -30 0 -64 -5 -76 -11 -28 -15 -67 -3 -79 25 -9 18 -7 32 6 60 13 27
14 40 6 49 -7 9 -7 17 0 24 5 5 11 30 12 56 1 27 6 42 11 37 5 -5 28 -8 50 -6z
m866 6 c0 -5 -2 -10 -4 -10 -3 0 -8 5 -11 10 -3 6 -1 10 4 10 6 0 11 -4 11
-10z m663 -5 c4 -8 1 -17 -6 -21 -7 -4 -9 -4 -5 1 4 4 3 14 -3 22 -7 8 -8 13
-1 13 5 0 12 -7 15 -15z m-93 -7 c16 -10 24 -10 41 0 12 8 18 9 15 3 -8 -13
14 -93 29 -103 7 -5 6 -8 -1 -8 -18 0 -24 -38 -8 -51 38 -31 -3 -97 -53 -84
-15 4 -40 8 -56 8 -25 2 -26 3 -10 15 16 11 16 14 3 22 -9 6 -10 10 -3 10 6 0
15 -5 18 -10 12 -19 24 -10 27 22 2 25 9 34 28 38 19 5 25 12 26 35 1 45 -16
85 -34 84 -11 0 -12 -2 -4 -6 6 -2 10 -9 6 -14 -9 -16 -24 -10 -24 10 0 12
-11 23 -27 29 -18 7 -22 11 -10 11 9 1 26 -5 37 -11z m-709 -124 c12 -14 1
-44 -16 -44 -17 0 -28 31 -15 44 5 5 11 37 12 70 l2 61 3 -60 c2 -32 8 -65 14
-71z m288 112 c-47 -17 -94 -53 -77 -58 7 -3 -3 -12 -24 -22 -38 -18 -75 -52
-66 -61 10 -10 38 7 39 24 1 14 2 14 6 -1 2 -9 14 -19 26 -21 14 -3 8 -5 -14
-6 -40 -1 -73 -29 -67 -58 4 -23 38 -31 38 -9 0 9 -8 16 -17 16 -26 0 -3 17
33 24 24 5 33 3 37 -8 4 -9 2 -16 -3 -16 -6 0 -10 5 -10 10 0 21 -16 9 -27
-20 -15 -39 -50 -41 -59 -3 -7 26 -7 26 -15 5 -5 -12 -16 -22 -26 -22 -15 0
-15 2 3 20 29 29 45 50 39 50 -3 0 1 14 10 30 9 17 20 30 26 30 6 0 7 4 4 10
-7 12 23 72 34 66 4 -3 20 4 37 15 17 11 46 19 69 18 l40 0 -36 -13z m-931
-43 c2 -13 -5 -27 -20 -37 -31 -22 -37 -20 -34 9 2 13 -1 22 -5 19 -14 -8 -11
10 3 24 19 19 53 10 56 -15z m303 14 c-1 -12 -15 -9 -19 4 -3 6 1 10 8 8 6 -3
11 -8 11 -12z m669 -2 c0 -8 -4 -15 -10 -15 -5 0 -10 7 -10 15 0 8 5 15 10 15
6 0 10 -7 10 -15z m351 -1 c9 -11 10 -20 2 -32 -13 -22 -43 -22 -56 -1 -24 38
25 68 54 33z m-985 -21 c-10 -10 -19 5 -10 18 6 11 8 11 12 0 2 -7 1 -15 -2
-18z m-66 1 c0 -14 -3 -14 -15 -4 -8 7 -15 14 -15 16 0 2 7 4 15 4 8 0 15 -7
15 -16z m665 5 c11 -17 -1 -21 -15 -4 -8 9 -8 15 -2 15 6 0 14 -5 17 -11z m75
2 c0 -12 -20 -25 -27 -18 -7 7 6 27 18 27 5 0 9 -4 9 -9z m-1059 -71 c5 0 9 4
9 8 0 5 7 9 15 9 11 0 12 -4 4 -14 -17 -19 -63 -17 -55 3 3 8 2 12 -4 9 -14
-8 -24 21 -15 43 5 13 10 9 22 -20 8 -21 19 -38 24 -38z m644 60 c-3 -5 -13
-10 -21 -10 -8 0 -14 5 -14 10 0 6 9 10 21 10 11 0 17 -4 14 -10z m85 0 c8 -5
12 -11 9 -14 -3 -3 -14 1 -25 9 -21 16 -8 20 16 5z m-647 -36 c-15 -30 -15
-38 -3 -57 12 -20 12 -21 -3 -8 -21 17 -22 50 -1 79 23 33 26 27 7 -14z m38
-13 c-8 -14 -8 -28 -1 -47 10 -26 11 -26 26 -8 15 18 15 18 10 1 -3 -10 -6
-23 -6 -28 0 -5 -10 -7 -22 -5 -33 4 -44 67 -21 108 20 33 32 14 14 -21z
m1176 -9 c4 -16 0 -29 -12 -40 -16 -16 -16 -16 -4 5 11 18 10 26 -1 50 -22 42
-23 50 -5 28 9 -11 19 -31 22 -43z m113 32 c0 -19 -4 -25 -14 -21 -10 4 -13 1
-10 -7 7 -18 -29 -26 -49 -11 -21 15 -21 22 -2 22 8 0 15 -4 15 -9 0 -4 5 -8
11 -8 6 0 8 7 5 16 -3 9 -2 12 5 9 6 -4 13 2 16 14 8 30 23 26 23 -5z m-1230
13 c0 -2 -12 -14 -27 -28 l-28 -24 24 28 c23 25 31 32 31 24z m174 -18 c-3 -5
-10 -7 -15 -3 -5 3 -7 10 -3 15 3 5 10 7 15 3 5 -3 7 -10 3 -15z m56 11 c0 -5
-7 -10 -16 -10 -8 0 -12 5 -9 10 3 6 10 10 16 10 5 0 9 -4 9 -10z m564 -11
c-7 -11 -34 -12 -34 -1 0 14 11 21 26 15 8 -3 11 -9 8 -14z m46 6 c0 -8 -4
-15 -10 -15 -5 0 -10 7 -10 15 0 8 5 15 10 15 6 0 10 -7 10 -15z m182 -2 c30
-36 30 -47 0 -19 -18 17 -32 31 -32 33 0 9 19 1 32 -14z m44 0 c15 -21 18 -81
4 -103 -15 -25 -25 -1 -12 32 9 25 8 35 -3 52 -25 35 -15 52 11 19z m-1053
-16 c-3 -13 -12 -23 -22 -24 -16 -1 -16 1 3 23 12 13 22 24 22 24 1 0 -1 -10
-3 -23z m112 13 c-3 -5 -10 -10 -16 -10 -5 0 -9 5 -9 10 0 6 7 10 16 10 8 0
12 -4 9 -10z m345 -5 c-7 -8 -17 -15 -22 -15 -6 0 -5 7 2 15 7 8 17 15 22 15
6 0 5 -7 -2 -15z m76 -12 c-7 -7 -26 7 -26 19 0 6 6 6 15 -2 9 -7 13 -15 11
-17z m346 15 c-9 -9 -15 -9 -24 0 -9 9 -7 12 12 12 19 0 21 -3 12 -12z m117
-22 l22 -23 -23 4 c-15 3 -24 12 -24 24 0 23 -2 24 25 -5z m-877 -18 c-7 -7
-12 -8 -12 -2 0 14 12 26 19 19 2 -3 -1 -11 -7 -17z m83 13 c10 -17 -12 -21
-25 -6 -10 12 -10 15 3 15 9 0 18 -4 22 -9z m41 -23 c-6 -49 -17 -78 -28 -78
-6 0 -8 6 -5 14 5 11 -1 12 -29 3 -19 -6 -34 -16 -34 -24 0 -7 -5 -13 -11 -13
-6 0 -9 6 -6 13 2 6 -11 22 -30 35 -18 12 -33 28 -33 34 0 6 10 2 23 -9 26
-24 57 -36 57 -23 0 6 -7 10 -15 10 -9 0 -27 11 -40 24 -23 23 -24 24 -31 4
-4 -12 -11 -17 -21 -13 -9 3 -24 -2 -35 -11 -25 -23 -36 -9 -13 16 12 13 25
18 37 14 12 -3 24 0 31 11 11 14 15 14 36 -9 14 -15 33 -26 43 -26 10 0 18 -4
18 -10 0 -5 9 -10 19 -10 21 0 61 44 61 66 0 8 2 14 5 14 3 0 4 -15 1 -32z
m494 10 c0 -12 7 -30 17 -40 16 -18 43 -25 43 -10 0 4 12 9 28 10 15 1 37 13
50 27 12 15 22 21 22 15 0 -6 4 -8 10 -5 5 3 7 0 4 -9 -4 -11 0 -13 15 -9 12
3 21 9 21 14 0 4 12 -3 27 -17 14 -13 23 -27 19 -31 -4 -4 -11 -2 -15 6 -14
23 -73 19 -106 -7 -23 -19 -37 -23 -67 -19 -28 4 -40 1 -47 -10 -7 -13 -11
-10 -24 16 -8 17 -11 31 -6 31 6 0 6 8 -1 19 -13 25 -13 41 0 41 6 0 10 -10
10 -22z m60 13 c0 -12 -20 -25 -27 -18 -7 7 6 27 18 27 5 0 9 -4 9 -9z m68
-10 c3 -8 -1 -12 -9 -9 -7 2 -15 10 -17 17 -3 8 1 12 9 9 7 -2 15 -10 17 -17z
m-712 -18 c-10 -10 -19 5 -10 18 6 11 8 11 12 0 2 -7 1 -15 -2 -18z m674 6 c0
-11 -4 -17 -10 -14 -5 3 -10 13 -10 21 0 8 5 14 10 14 6 0 10 -9 10 -21z
m-974 -14 c14 -13 13 -15 -5 -15 -12 0 -21 6 -21 15 0 8 3 15 6 15 3 0 12 -7
20 -15z m1294 0 c0 -8 -4 -15 -10 -15 -5 0 -10 7 -10 15 0 8 5 15 10 15 6 0
10 -7 10 -15z m-121 -34 c-1 -20 -2 -22 -6 -6 -3 11 -10 26 -15 33 -8 9 -7 11
6 6 10 -4 16 -16 15 -33z m-979 -26 c0 -18 -1 -18 -16 -3 -10 10 -14 23 -10
34 6 16 8 16 16 4 6 -8 10 -24 10 -35z m899 4 c-12 -21 -14 -22 -17 -6 -6 28
6 53 19 40 8 -8 7 -18 -2 -34z m178 14 c-13 -3 -15 -8 -8 -17 8 -9 5 -12 -12
-12 -12 1 -25 5 -29 11 -8 11 17 24 47 23 17 0 18 -1 2 -5z m-941 -40 c-10
-10 -19 5 -10 18 6 11 8 11 12 0 2 -7 1 -15 -2 -18z m614 7 c0 -5 -2 -10 -4
-10 -3 0 -8 5 -11 10 -3 6 -1 10 4 10 6 0 11 -4 11 -10z m40 0 c0 -5 -2 -10
-4 -10 -3 0 -8 5 -11 10 -3 6 -1 10 4 10 6 0 11 -4 11 -10z"/>
<path d="M152 2568 c-14 -14 -16 -68 -2 -68 10 0 35 41 32 52 -1 4 6 4 14 1
12 -4 15 -2 12 8 -6 18 -40 23 -56 7z"/>
<path d="M240 2550 c0 -11 14 -11 50 0 22 7 21 8 -12 9 -21 1 -38 -3 -38 -9z"/>
<path d="M182 2518 c-16 -16 -15 -28 3 -28 8 0 15 2 15 4 0 2 3 11 6 20 7 19
-7 21 -24 4z"/>
<path d="M765 2571 c-3 -5 -1 -12 5 -16 12 -7 30 2 30 16 0 12 -27 12 -35 0z"/>
<path d="M883 2538 c-72 -74 -96 -165 -52 -200 28 -23 56 -23 69 1 13 25 -5
38 -19 14 -16 -28 -45 -4 -49 41 -4 44 33 114 77 145 l29 21 37 -41 c20 -23
43 -55 49 -71 26 -60 -15 -136 -49 -93 -15 19 -16 19 -13 -5 4 -37 49 -40 77
-4 27 34 26 47 -3 109 -20 43 -89 125 -106 125 -3 0 -25 -19 -47 -42z"/>
<path d="M1060 2571 c0 -5 6 -14 14 -20 16 -13 32 2 21 19 -8 12 -35 13 -35 1z"/>
<path d="M1276 2539 c3 -5 10 -9 16 -9 6 0 21 -8 32 -17 21 -18 21 -18 3 4
-18 20 -63 40 -51 22z"/>
<path d="M1578 2547 c24 -7 36 -7 44 1 9 9 1 12 -32 11 l-45 -1 33 -11z"/>
<path d="M1662 2513 c2 -10 11 -19 21 -21 16 -3 17 -1 7 17 -13 25 -33 28 -28
4z"/>
<path d="M196 2155 c-3 -9 0 -15 8 -15 7 0 19 7 26 15 10 12 9 15 -8 15 -11 0
-22 -7 -26 -15z"/>
<path d="M469 2116 c-9 -20 -13 -36 -9 -36 10 0 33 46 28 60 -2 6 -11 -5 -19
-24z"/>
<path d="M174 2009 c-18 -36 -23 -57 -17 -70 7 -16 10 -16 37 7 l28 25 -27 -7
c-20 -5 -26 -4 -21 5 4 6 22 12 39 12 18 1 44 4 59 8 l28 6 -25 12 c-19 8 -23
8 -18 0 3 -7 -3 -4 -15 7 -20 17 -22 17 -28 2 -3 -9 -10 -16 -15 -16 -5 0 -2
11 6 24 10 15 12 26 6 30 -6 4 -22 -17 -37 -45z"/>
<path d="M1602 2244 c-14 -10 -22 -26 -23 -47 0 -30 -1 -31 -11 -9 -12 25 -16
26 -38 12 -13 -8 -12 -13 8 -32 19 -19 25 -21 42 -11 10 7 21 9 24 4 8 -12
-21 -34 -34 -26 -16 10 -12 -11 5 -25 8 -7 15 -19 15 -28 0 -13 -2 -13 -17 0
-29 24 -53 29 -59 13 -6 -14 -44 -22 -44 -9 0 3 12 21 27 40 18 25 23 38 15
46 -15 15 -34 0 -27 -23 4 -13 2 -19 -8 -19 -10 0 -13 7 -10 21 5 17 2 20 -13
17 -13 -2 -21 -15 -25 -41 -3 -20 -4 -35 -1 -32 3 3 13 -9 23 -25 11 -17 24
-30 29 -30 6 0 9 -4 5 -9 -3 -5 0 -13 6 -17 8 -4 9 -3 5 4 -10 16 9 15 23 -1
14 -17 71 -10 78 10 5 12 7 12 14 2 6 -11 9 -10 14 4 4 9 -2 32 -15 54 l-22
38 30 -34 c20 -23 31 -30 36 -22 4 6 2 18 -4 26 -9 11 -9 15 -1 15 6 0 11 -5
11 -12 0 -6 10 -2 23 10 16 15 23 34 25 66 1 38 -3 48 -25 65 -31 25 -51 26
-81 5z m13 -42 c-8 -8 -25 10 -19 20 4 6 9 5 15 -3 4 -7 6 -15 4 -17z m65 18
c0 -5 -4 -10 -10 -10 -5 0 -10 5 -10 10 0 6 5 10 10 10 6 0 10 -4 10 -10z
m-20 -35 c0 -8 -7 -15 -16 -15 -23 0 -11 -24 14 -28 17 -3 21 0 15 15 -4 11
-3 14 3 8 5 -5 13 -13 18 -16 17 -13 -33 -30 -54 -19 -19 10 -27 49 -13 63 12
13 33 7 33 -8z m40 5 c0 -5 -4 -10 -10 -10 -5 0 -10 5 -10 10 0 6 5 10 10 10
6 0 10 -4 10 -10z m-151 -154 c-3 -3 -11 5 -18 17 -13 21 -12 21 5 5 10 -10
16 -20 13 -22z"/>
<path d="M1380 2111 c0 -14 39 -57 40 -44 0 6 -5 15 -10 18 -6 4 -8 10 -5 15
3 4 -2 10 -10 14 -8 3 -15 2 -15 -3z"/>
<path d="M1642 2030 c-15 -20 -32 -30 -50 -31 -24 0 -25 -1 -7 -9 11 -5 39 -9
62 -9 23 -1 45 -6 49 -12 5 -8 -2 -10 -21 -6 l-29 5 25 -19 c14 -11 25 -14 28
-7 2 6 7 5 12 -3 7 -12 9 -11 9 1 0 15 -46 120 -53 120 -2 0 -13 -13 -25 -30z
m29 -22 c11 -21 11 -22 -4 -9 -10 7 -17 17 -17 22 0 15 9 10 21 -13z"/>
<path d="M956 2189 c3 -5 16 -9 29 -9 50 0 135 -42 192 -93 56 -52 114 -150
112 -192 0 -11 -6 -1 -14 22 -40 128 -146 225 -276 252 -24 5 -54 12 -66 15
-13 2 -23 1 -23 -5 0 -5 -13 -9 -30 -9 -92 0 -219 -90 -273 -196 -15 -27 -26
-45 -27 -41 -1 19 45 93 83 134 52 57 116 94 187 109 47 11 50 12 20 13 -43 1
-143 -45 -192 -88 -120 -105 -161 -301 -94 -446 35 -77 113 -157 186 -189 57
-26 190 -50 190 -35 0 4 -5 9 -11 11 -6 2 7 24 29 48 39 43 41 44 58 27 18
-16 18 -18 0 -48 l-18 -31 23 7 c143 44 255 183 266 329 14 165 -65 309 -207
381 -48 24 -154 49 -144 34z m-26 -38 c0 -12 -20 -25 -27 -18 -7 7 6 27 18 27
5 0 9 -4 9 -9z m26 -9 c0 -4 4 -16 9 -26 6 -13 3 -29 -8 -48 -9 -15 -12 -28
-6 -28 6 0 8 -4 5 -9 -3 -4 6 -6 19 -3 21 4 27 -1 40 -33 18 -41 14 -64 -14
-89 -17 -16 -18 -20 -4 -48 12 -23 14 -44 8 -87 -5 -31 -8 -68 -8 -82 0 -14
-5 -26 -11 -26 -7 0 -12 27 -13 68 -1 44 -7 76 -17 91 -21 29 -20 48 1 48 9 0
13 3 10 6 -4 4 3 20 15 36 16 23 19 36 12 58 -8 26 -11 28 -28 14 -17 -12 -18
-14 -3 -14 19 0 22 -22 7 -51 -13 -24 -65 -26 -74 -3 -11 30 -6 54 12 55 14 0
14 2 -3 8 -34 14 -44 -25 -20 -81 15 -36 -13 -17 -29 20 -16 36 -16 42 -2 76
11 27 23 38 44 42 l30 6 -17 30 c-15 29 -15 30 7 45 12 9 22 22 22 31 0 14 14
9 16 -6z m-98 -48 c27 -18 28 -31 2 -39 -11 -3 -19 -9 -19 -13 4 -27 -1 -34
-16 -22 -9 7 -13 15 -11 18 3 3 -6 18 -19 34 -14 16 -25 34 -25 40 0 12 57 1
88 -18z m232 6 c0 -11 -9 -25 -20 -32 -11 -7 -20 -20 -20 -30 0 -9 -5 -20 -12
-24 -6 -4 -8 -3 -4 4 3 6 -1 15 -11 20 -14 9 -15 13 -4 26 7 9 9 16 3 16 -5 0
-12 -7 -16 -15 -6 -16 -26 -21 -26 -7 0 20 29 44 60 52 51 12 50 12 50 -10z
m-370 -74 c0 -3 -4 -8 -10 -11 -5 -3 -10 -1 -10 4 0 6 5 11 10 11 6 0 10 -2
10 -4z m480 -16 c0 -5 -2 -10 -4 -10 -3 0 -8 5 -11 10 -3 6 -1 10 4 10 6 0 11
-4 11 -10z m-430 -4 c0 -3 -4 -8 -10 -11 -5 -3 -10 -1 -10 4 0 6 5 11 10 11 6
0 10 -2 10 -4z m340 -26 c0 -5 -4 -10 -10 -10 -5 0 -10 5 -10 10 0 6 5 10 10
10 6 0 10 -4 10 -10z m-300 -4 c0 -11 -19 -15 -25 -6 -3 5 1 10 9 10 9 0 16
-2 16 -4z m-140 -46 c0 -5 -4 -10 -10 -10 -5 0 -10 5 -10 10 0 6 5 10 10 10 6
0 10 -4 10 -10z m510 0 c0 -5 -2 -10 -4 -10 -3 0 -8 5 -11 10 -3 6 -1 10 4 10
6 0 11 -4 11 -10z m-603 -42 c-3 -7 -5 -2 -5 12 0 14 2 19 5 13 2 -7 2 -19 0
-25z m538 22 c3 -5 2 -10 -4 -10 -5 0 -13 5 -16 10 -3 6 -2 10 4 10 5 0 13 -4
16 -10z m-350 -51 l30 -6 -30 -1 c-16 -1 -41 5 -55 13 -35 20 -63 18 -96 -7
l-29 -22 24 27 c29 32 57 38 96 18 17 -9 44 -19 60 -22z m500 21 c4 -7 -7 -8
-32 -4 -31 5 -42 2 -57 -15 -25 -27 -76 -36 -121 -21 -47 16 -40 23 9 9 41
-11 93 2 109 28 9 15 83 18 92 3z m-345 -23 c0 -7 -6 -21 -14 -32 -7 -11 -16
-49 -20 -84 -3 -36 -12 -68 -18 -72 -17 -11 -24 -1 -10 13 15 15 15 53 2 78
-7 14 -7 33 1 65 10 38 15 45 35 45 13 0 24 -6 24 -13z m377 -69 c-2 -18 -4
-6 -4 27 0 33 2 48 4 33 2 -15 2 -42 0 -60z m-730 -5 c-2 -16 -4 -3 -4 27 0
30 2 43 4 28 2 -16 2 -40 0 -55z m233 53 c-76 -19 -82 -30 -20 -37 41 -4 30
-6 -45 -6 -55 0 -83 2 -62 4 20 2 37 8 37 12 0 12 79 39 115 39 11 0 0 -5 -25
-12z m148 -84 c10 -86 1 -238 -17 -271 -5 -7 -13 31 -19 86 -9 75 -9 121 0
186 6 48 15 87 18 87 4 0 12 -40 18 -88z m285 68 c4 0 5 5 2 10 -4 6 2 9 14 7
23 -4 41 -17 22 -17 -7 0 -10 -4 -7 -9 3 -4 -15 -4 -39 2 -32 7 -51 7 -67 -1
-21 -11 -20 -12 9 -6 21 4 40 0 55 -10 12 -9 17 -16 11 -16 -7 0 -15 5 -18 10
-3 6 -15 10 -26 10 -11 0 -18 -3 -16 -7 3 -5 -18 -9 -47 -9 -41 -1 -45 0 -21
6 28 7 27 8 -15 10 l-45 2 50 9 c28 4 64 12 80 17 17 5 34 6 40 1 5 -5 13 -9
18 -9z m-436 -6 c-3 -3 -12 -4 -19 -1 -8 3 -5 6 6 6 11 1 17 -2 13 -5z m-187
-8 c0 -3 -4 -8 -10 -11 -5 -3 -10 -1 -10 4 0 6 5 11 10 11 6 0 10 -2 10 -4z
m453 -23 c-7 -2 -19 -2 -25 0 -7 3 -2 5 12 5 14 0 19 -2 13 -5z m-288 -23 c-3
-5 -10 -10 -16 -10 -5 0 -9 5 -9 10 0 6 7 10 16 10 8 0 12 -4 9 -10z m310 -10
c3 -5 1 -10 -4 -10 -6 0 -11 5 -11 10 0 6 2 10 4 10 3 0 8 -4 11 -10z m-508
-32 c-3 -7 -5 -2 -5 12 0 14 2 19 5 13 2 -7 2 -19 0 -25z m60 2 c-4 -16 -2
-32 3 -35 6 -3 10 1 10 9 0 8 4 17 8 20 5 3 6 -8 4 -25 -2 -16 -7 -29 -10 -29
-14 0 -42 35 -42 54 0 17 2 18 10 6 8 -12 10 -11 10 8 0 12 3 22 6 22 4 0 4
-13 1 -30z m650 -2 c-3 -8 -6 -5 -6 6 -1 11 2 17 5 13 3 -3 4 -12 1 -19z
m-593 -22 c-3 -9 -10 -16 -15 -16 -6 0 -5 9 1 21 13 24 24 20 14 -5z m524 -6
c4 -25 -12 -20 -28 10 -8 15 -6 18 8 16 9 -2 19 -13 20 -26z m-618 -25 c0 -5
-5 -3 -10 5 -5 8 -10 20 -10 25 0 6 5 3 10 -5 5 -8 10 -19 10 -25z m117 13
c-3 -8 -6 -5 -6 6 -1 11 2 17 5 13 3 -3 4 -12 1 -19z m460 -10 c-3 -7 -5 -2
-5 12 0 14 2 19 5 13 2 -7 2 -19 0 -25z m-387 12 c0 -5 -4 -10 -10 -10 -5 0
-10 5 -10 10 0 6 5 10 10 10 6 0 10 -4 10 -10z m349 -30 c0 -10 -3 -8 -9 5 -5
12 -9 14 -9 6 -1 -8 -3 -12 -6 -9 -3 3 -2 13 1 22 5 14 9 15 15 4 5 -7 8 -20
8 -28z m103 -37 c-36 -56 -72 -92 -122 -122 -53 -32 -60 -25 -9 8 59 40 81 59
113 103 16 21 25 42 20 49 -4 8 -3 9 4 5 7 -4 12 -2 12 5 0 7 3 10 6 6 4 -3
-7 -28 -24 -54z m-205 25 c-3 -8 -6 -5 -6 6 -1 11 2 17 5 13 3 -3 4 -12 1 -19z
m-403 -6 c3 7 3 3 1 -8 -7 -26 65 -103 124 -134 20 -10 31 -19 25 -20 -37 -1
-185 140 -184 175 1 6 7 2 14 -8 11 -14 15 -15 20 -5z m455 -15 c0 -21 -1 -21
-9 -2 -5 12 -9 14 -9 6 -1 -8 -3 -12 -6 -9 -9 8 6 38 16 32 5 -3 9 -15 8 -27z
m29 -12 c-3 -3 -9 2 -12 12 -6 14 -5 15 5 6 7 -7 10 -15 7 -18z m-430 -25 c3
-21 2 -22 -12 -11 -19 16 -21 44 -3 39 6 -3 14 -15 15 -28z m72 -5 c0 -5 -5
-3 -10 5 -5 8 -10 20 -10 25 0 6 5 3 10 -5 5 -8 10 -19 10 -25z m-15 -15 c7
-22 6 -23 -9 -11 -9 7 -16 23 -16 34 0 26 15 12 25 -23z m35 5 c0 -8 -4 -15
-10 -15 -5 0 -7 7 -4 15 4 8 8 15 10 15 2 0 4 -7 4 -15z m100 11 c0 -3 -4 -8
-10 -11 -5 -3 -10 -1 -10 4 0 6 5 11 10 11 6 0 10 -2 10 -4z m247 -28 c-3 -8
-6 -5 -6 6 -1 11 2 17 5 13 3 -3 4 -12 1 -19z m-140 -10 c-3 -8 -6 -5 -6 6 -1
11 2 17 5 13 3 -3 4 -12 1 -19z m-173 -18 c-6 -6 -10 -2 -11 12 -2 16 1 18 10
9 7 -7 8 -14 1 -21z m76 26 c0 -3 -4 -8 -10 -11 -5 -3 -10 -1 -10 4 0 6 5 11
10 11 6 0 10 -2 10 -4z m-31 -92 c10 -9 -35 -3 -49 6 -11 8 -7 9 15 4 17 -4
32 -8 34 -10z m54 -11 c-7 -2 -21 -2 -30 0 -10 3 -4 5 12 5 17 0 24 -2 18 -5z"/>
<path d="M918 1653 c6 -2 18 -2 25 0 6 3 1 5 -13 5 -14 0 -19 -2 -12 -5z"/>
<path d="M1135 1470 c-3 -6 1 -7 9 -4 18 7 21 14 7 14 -6 0 -13 -4 -16 -10z"/>
<path d="M790 1350 c0 -5 10 -10 23 -10 18 0 19 2 7 10 -19 13 -30 13 -30 0z"/>
<path d="M131 1784 c0 -11 3 -14 6 -6 3 7 2 16 -1 19 -3 4 -6 -2 -5 -13z"/>
<path d="M234 1613 c5 -27 3 -31 -14 -28 -11 2 -20 0 -20 -6 0 -5 9 -9 20 -9
26 0 46 -36 29 -56 -14 -17 -42 -19 -36 -1 2 6 10 11 16 10 6 -2 11 4 11 12 0
9 -9 15 -25 15 -21 0 -25 -5 -25 -30 0 -34 17 -45 55 -36 53 13 57 81 9 133
l-26 28 6 -32z"/>
<path d="M245 1439 c-58 -31 -106 -70 -102 -83 2 -6 32 -30 67 -53 47 -32 74
-43 102 -43 57 0 97 47 67 77 -13 13 -39 6 -39 -9 0 -7 5 -6 14 1 11 9 15 8
20 -4 8 -22 -29 -55 -62 -55 -34 0 -155 75 -150 93 6 16 95 76 126 84 37 9 76
-8 80 -36 3 -20 0 -23 -15 -17 -14 6 -15 4 -6 -5 6 -6 19 -9 27 -6 41 16 -4
77 -57 77 -18 0 -50 -10 -72 -21z"/>
<path d="M255 1420 c-11 -5 -33 -20 -50 -33 -25 -21 -28 -27 -16 -41 22 -27
114 -66 139 -60 25 7 27 15 10 32 -10 10 -8 16 4 29 16 15 16 17 1 28 -13 9
-13 16 -4 33 11 21 10 22 -26 21 -21 0 -47 -4 -58 -9z m55 -22 c0 -19 -2 -20
-10 -8 -13 19 -13 30 0 30 6 0 10 -10 10 -22z m-35 -16 c-8 -8 -25 10 -19 20
4 6 9 5 15 -3 4 -7 6 -15 4 -17z m29 -13 c30 -1 30 -1 6 -8 -51 -15 -86 -19
-99 -11 -23 14 -1 33 31 26 17 -3 45 -6 62 -7z m-29 -39 c-3 -5 -11 -10 -16
-10 -6 0 -7 5 -4 10 3 6 11 10 16 10 6 0 7 -4 4 -10z m38 -10 c-3 -11 -9 -20
-14 -20 -11 0 -11 3 -3 24 9 23 23 20 17 -4z"/>
<path d="M197 1233 c-4 -3 -7 -19 -7 -34 0 -28 15 -40 38 -31 15 5 16 33 1 30
-6 -2 -14 3 -16 10 -6 16 22 15 36 -2 15 -18 4 -45 -23 -56 -17 -7 -17 -9 -4
-9 14 -1 16 -7 11 -33 -6 -30 -5 -32 11 -19 47 39 59 111 24 135 -23 16 -60
21 -71 9z"/>
<path d="M131 934 c0 -11 3 -14 6 -6 3 7 2 16 -1 19 -3 4 -6 -2 -5 -13z"/>
<path d="M1504 1452 c-16 -11 -32 -45 -27 -59 5 -15 43 -18 43 -3 0 5 -7 7
-15 4 -23 -9 -19 33 4 46 11 5 29 10 41 10 35 0 160 -71 160 -91 0 -4 -28 -26
-61 -48 -62 -42 -103 -51 -140 -31 -23 13 -27 55 -3 46 8 -3 12 -2 9 4 -8 13
-32 13 -40 0 -7 -11 12 -51 29 -62 38 -26 149 15 204 74 l22 24 -42 31 c-82
58 -149 79 -184 55z"/>
<path d="M1518 1418 c15 -15 16 -45 1 -50 -9 -3 -8 -10 2 -25 10 -17 10 -24 1
-36 -10 -12 -8 -16 13 -21 28 -7 93 18 135 53 l25 21 -25 20 c-41 32 -86 50
-126 50 -30 0 -35 -3 -26 -12z m43 -31 c-8 -8 -11 -7 -11 4 0 9 3 19 7 23 4 4
9 2 11 -4 3 -7 -1 -17 -7 -23z m49 3 c0 -5 -7 -10 -16 -10 -8 0 -12 5 -9 10 3
6 10 10 16 10 5 0 9 -4 9 -10z m45 -30 c0 -11 -10 -14 -35 -12 -25 1 -31 -1
-20 -7 8 -6 11 -14 6 -18 -4 -4 -13 0 -20 10 -7 9 -21 17 -30 17 -35 0 -13 19
27 23 61 5 72 3 72 -13z m-85 -46 c0 -8 -4 -12 -10 -9 -5 3 -10 13 -10 21 0 8
5 12 10 9 6 -3 10 -13 10 -21z"/>
<path d="M895 1292 c-9 -10 -5 -23 5 -17 21 13 9 -13 -23 -50 -23 -27 -39 -37
-50 -32 -22 8 -22 36 -1 66 16 23 16 23 -7 16 -96 -30 -192 -116 -235 -210
-17 -36 -28 -81 -31 -129 -24 -313 305 -515 576 -353 64 39 111 93 148 173 24
50 28 72 28 149 0 85 -2 96 -38 167 -62 127 -161 197 -308 217 -33 4 -61 5
-64 3z m78 -19 c-7 -2 -21 -2 -30 0 -10 3 -4 5 12 5 17 0 24 -2 18 -5z m44 -9
c-3 -3 -12 -4 -19 -1 -8 3 -5 6 6 6 11 1 17 -2 13 -5z m63 -19 c33 -19 21 -19
-21 0 -19 8 -27 14 -19 14 8 0 26 -6 40 -14z m-133 -93 c9 -95 0 -247 -17
-265 -4 -4 -12 31 -19 78 -9 68 -9 108 0 186 7 54 15 99 19 99 4 0 12 -44 17
-98z m-213 60 c-58 -42 -126 -123 -119 -141 3 -8 3 -12 -1 -8 -4 4 -13 -5 -20
-20 -7 -16 -13 -21 -13 -12 -2 44 141 209 182 209 5 0 -8 -13 -29 -28z m454
-44 c51 -51 106 -156 99 -189 -4 -20 -5 -19 -6 6 -1 24 -3 27 -12 15 -8 -12
-9 -11 -4 6 8 29 -25 99 -38 82 -6 -9 -7 -8 -3 4 3 9 -4 27 -15 40 l-20 23 7
-24 c4 -15 2 -21 -4 -17 -6 3 -13 -2 -16 -11 -2 -10 -4 2 -3 25 1 39 -3 48
-33 74 -19 16 -26 25 -15 20 11 -6 39 -30 63 -54z m-149 12 c0 -10 -3 -8 -9 5
-12 27 -12 43 0 25 5 -8 9 -22 9 -30z m18 -2 c-3 -7 -5 -2 -5 12 0 14 2 19 5
13 2 -7 2 -19 0 -25z m-180 -10 c-3 -8 -6 -5 -6 6 -1 11 2 17 5 13 3 -3 4 -12
1 -19z m113 12 c0 -5 -5 -10 -11 -10 -5 0 -7 5 -4 10 3 6 8 10 11 10 2 0 4 -4
4 -10z m-197 -15 c-3 -9 -8 -14 -10 -11 -3 3 -2 9 2 15 9 16 15 13 8 -4z m298
-22 c-9 -16 -10 -14 -11 12 0 21 3 26 11 18 8 -8 8 -16 0 -30z m46 3 c2 -29 1
-30 -12 -12 -18 24 -19 43 -2 43 6 0 13 -14 14 -31z m-137 4 c0 -5 -5 -10 -11
-10 -5 0 -7 5 -4 10 3 6 8 10 11 10 2 0 4 -4 4 -10z m114 -26 c3 -8 2 -12 -4
-9 -6 3 -10 10 -10 16 0 14 7 11 14 -7z m-367 -26 c-3 -8 -6 -5 -6 6 -1 11 2
17 5 13 3 -3 4 -12 1 -19z m284 -1 c-10 -9 -11 -8 -5 6 3 10 9 15 12 12 3 -3
0 -11 -7 -18z m-248 -7 c3 -11 1 -18 -4 -14 -5 3 -9 12 -9 20 0 20 7 17 13 -6z
m47 -35 c0 -5 -5 -3 -10 5 -5 8 -10 20 -10 25 0 6 5 3 10 -5 5 -8 10 -19 10
-25z m-89 0 c5 4 6 -1 3 -9 -8 -20 -24 -11 -23 12 0 11 2 12 6 4 2 -6 9 -10
14 -7z m-54 -32 c-3 -10 -5 -4 -5 12 0 17 2 24 5 18 2 -7 2 -21 0 -30z m193
-35 c0 -39 5 -67 14 -77 8 -9 16 -25 18 -36 2 -15 -3 -21 -23 -23 -21 -3 -27
3 -36 33 -8 23 -8 47 -2 68 5 17 9 49 9 70 0 23 4 36 10 32 6 -3 10 -34 10
-67z m354 50 c9 -12 16 -32 15 -43 0 -20 0 -20 -9 0 -7 19 -8 18 -13 -5 -2
-15 -3 -12 -1 7 1 18 -2 35 -7 38 -5 4 -9 -1 -9 -9 0 -8 -4 -17 -8 -20 -5 -3
-6 8 -4 25 5 35 15 37 36 7z m-565 -27 c0 -10 -2 -12 -6 -3 -2 6 -9 10 -14 6
-5 -3 -9 5 -9 17 0 18 2 19 15 9 8 -7 15 -20 14 -29z m324 0 c-3 -21 -1 -47 5
-57 15 -30 -8 -98 -36 -102 -26 -4 -30 22 -7 52 9 12 15 41 15 71 0 41 12 75
26 75 1 0 0 -17 -3 -39z m97 29 c0 -5 -4 -10 -10 -10 -5 0 -10 5 -10 10 0 6 5
10 10 10 6 0 10 -4 10 -10z m57 -12 c-3 -8 -6 -5 -6 6 -1 11 2 17 5 13 3 -3 4
-12 1 -19z m33 -9 c-7 -11 -14 -19 -16 -16 -7 7 7 37 17 37 6 0 5 -9 -1 -21z
m-603 -31 c-3 -8 -6 -5 -6 6 -1 11 2 17 5 13 3 -3 4 -12 1 -19z m213 -18 c0
-5 -2 -10 -4 -10 -3 0 -8 5 -11 10 -3 6 -1 10 4 10 6 0 11 -4 11 -10z m-223
-47 c-3 -10 -5 -2 -5 17 0 19 2 27 5 18 2 -10 2 -26 0 -35z m538 37 c3 -5 -1
-10 -9 -10 -9 0 -16 5 -16 10 0 6 4 10 9 10 6 0 13 -4 16 -10z m192 -57 c-3
-10 -5 -2 -5 17 0 19 2 27 5 18 2 -10 2 -26 0 -35z m-687 22 c0 -19 58 -29 94
-15 16 6 31 9 33 6 2 -2 -11 -9 -29 -14 -41 -13 -143 -14 -113 -2 11 5 15 9 9
9 -12 1 -15 31 -2 31 4 0 8 -7 8 -15z m41 3 c17 -10 23 -10 26 0 5 14 23 16
23 3 0 -18 -40 -22 -62 -7 -27 19 -17 21 13 4z m152 5 c-13 -2 -35 -2 -50 0
-16 2 -5 4 22 4 28 0 40 -2 28 -4z m370 -10 c-29 -2 -77 -2 -105 0 -29 2 -6 3
52 3 58 0 81 -1 53 -3z m-370 -10 c-7 -2 -21 -2 -30 0 -10 3 -4 5 12 5 17 0
24 -2 18 -5z m284 -9 c-3 -3 -12 -4 -19 -1 -8 3 -5 6 6 6 11 1 17 -2 13 -5z
m36 -5 c-12 -12 -93 -32 -100 -25 -3 3 12 8 33 12 22 3 46 10 54 15 21 12 26
11 13 -2z m-556 -36 c-3 -10 -5 -4 -5 12 0 17 2 24 5 18 2 -7 2 -21 0 -30z
m236 21 c20 -4 37 -10 37 -14 0 -4 -19 -4 -42 1 -51 12 -90 4 -114 -22 -18
-20 -45 -23 -79 -9 -15 6 -9 8 22 7 29 -1 47 4 55 15 20 25 59 32 121 22z
m444 -29 c-32 -28 -74 -32 -103 -10 -10 8 -28 15 -39 16 -16 1 -17 2 -3 6 9 2
30 -3 47 -11 40 -21 64 -20 86 4 10 11 23 20 29 20 6 0 -2 -12 -17 -25z m40
-37 c-3 -7 -5 -2 -5 12 0 14 2 19 5 13 2 -7 2 -19 0 -25z m-673 -86 c43 -83
127 -149 226 -177 45 -13 48 -15 16 -11 -57 7 -134 49 -185 98 -45 44 -102
147 -100 183 0 11 6 2 13 -20 7 -22 20 -55 30 -73z m258 71 c-17 -24 -18 -32
-8 -57 10 -26 13 -27 25 -12 9 10 10 16 2 16 -17 0 -13 45 7 70 15 19 22 21
39 12 28 -16 39 -63 18 -78 -14 -10 -13 -12 5 -17 25 -7 36 27 21 67 -13 33
-13 36 -3 36 10 0 38 -70 34 -84 -18 -69 -37 -81 -107 -70 -37 5 -49 12 -60
35 -21 40 -19 59 12 91 33 34 42 29 15 -9z m333 -3 c3 -5 1 -10 -4 -10 -6 0
-11 5 -11 10 0 6 2 10 4 10 3 0 8 -4 11 -10z m-510 -10 c3 -5 -1 -10 -10 -10
-9 0 -13 5 -10 10 3 6 8 10 10 10 2 0 7 -4 10 -10z m561 -54 c-41 -83 -168
-187 -226 -185 -8 0 -1 5 15 11 92 34 190 126 215 204 7 19 14 33 17 30 3 -3
-6 -30 -21 -60z m-606 44 c0 -5 -4 -10 -10 -10 -5 0 -10 5 -10 10 0 6 5 10 10
10 6 0 10 -4 10 -10z m55 -30 c3 -5 1 -10 -4 -10 -6 0 -11 5 -11 10 0 6 2 10
4 10 3 0 8 -4 11 -10z m365 0 c0 -5 -4 -10 -10 -10 -5 0 -10 5 -10 10 0 6 5
10 10 10 6 0 10 -4 10 -10z m-305 -10 c3 -5 1 -10 -4 -10 -6 0 -11 5 -11 10 0
6 2 10 4 10 3 0 8 -4 11 -10z m345 -20 c0 -5 -4 -10 -10 -10 -5 0 -10 5 -10
10 0 6 5 10 10 10 6 0 10 -4 10 -10z m-70 -40 c0 -11 9 -24 20 -30 11 -6 20
-20 20 -31 0 -16 -5 -18 -27 -13 -38 9 -57 20 -74 41 -12 16 -12 17 1 7 11 -9
18 -9 27 1 6 7 9 15 6 19 -3 3 -3 12 1 21 8 21 26 10 26 -15z m120 20 c0 -5
-5 -10 -11 -10 -5 0 -7 5 -4 10 3 6 8 10 11 10 2 0 4 -4 4 -10z m-330 -25 c0
-9 8 -12 25 -9 14 2 25 1 25 -3 -1 -23 -33 -45 -82 -57 -23 -5 -28 -3 -28 13
0 11 9 25 21 31 11 7 18 17 15 25 -2 7 -2 16 1 19 9 8 23 -3 23 -19z m118 -41
c3 -32 -16 -47 -45 -37 -29 10 -10 75 21 71 15 -2 22 -11 24 -34z m4 -59 c0
-5 -5 -11 -11 -13 -6 -2 -11 4 -11 13 0 9 5 15 11 13 6 -2 11 -8 11 -13z m-32
-5 c0 -5 -9 -9 -20 -7 -30 5 -32 12 -5 15 14 1 25 -3 25 -8z m78 -27 c-10 -2
-26 -2 -35 0 -10 3 -2 5 17 5 19 0 27 -2 18 -5z"/>
<path d="M925 1160 c-3 -5 -1 -10 4 -10 6 0 11 5 11 10 0 6 -2 10 -4 10 -3 0
-8 -4 -11 -10z"/>
<path d="M904 1375 c-8 -21 2 -45 19 -45 8 0 20 7 27 15 10 12 10 18 0 30 -7
8 -19 15 -27 15 -7 0 -16 -7 -19 -15z m36 -16 c0 -5 -7 -9 -15 -9 -15 0 -20
12 -9 23 8 8 24 -1 24 -14z"/>
<path d="M1505 1210 c-9 -14 19 -56 45 -70 26 -14 26 0 0 33 -11 14 -20 30
-20 36 0 14 -17 14 -25 1z"/>
<path d="M1721 954 c0 -11 3 -14 6 -6 3 7 2 16 -1 19 -3 4 -6 -2 -5 -13z"/>
<path d="M1391 636 c-7 -8 -14 -27 -16 -43 l-4 -28 10 25 c6 14 15 33 20 43
11 21 6 22 -10 3z"/>
<path d="M1633 565 c-9 -25 2 -27 28 -6 l24 20 -23 1 c-12 0 -25 -7 -29 -15z"/>
<path d="M452 633 c6 -16 18 -35 26 -43 8 -8 5 4 -7 28 -24 47 -37 57 -19 15z"/>
<path d="M338 431 c-16 -9 -28 -19 -28 -23 0 -8 41 2 57 14 13 10 53 2 53 -11
0 -4 -10 -13 -23 -20 -12 -7 -23 -20 -23 -31 0 -17 2 -17 28 -4 35 18 44 13
64 -34 l15 -37 15 34 c15 37 13 46 -18 62 -18 10 -20 9 -14 -7 4 -10 3 -15 -1
-10 -4 4 -8 17 -8 29 0 16 -11 25 -45 38 -41 14 -47 15 -72 0z"/>
<path d="M816 378 c-9 -12 -16 -34 -16 -48 0 -41 48 -127 89 -159 l38 -30 35
29 c43 35 88 121 88 165 0 18 -8 39 -18 48 -24 22 -68 22 -76 1 -9 -23 5 -40
16 -20 19 35 58 6 58 -44 0 -43 -75 -150 -106 -150 -21 0 -82 77 -95 119 -9
31 -9 47 -1 66 13 29 52 35 52 8 0 -13 3 -14 11 -6 19 19 2 43 -30 43 -20 0
-35 -8 -45 -22z"/>
<path d="M764 169 c-8 -14 11 -33 25 -25 6 4 11 11 11 16 0 13 -29 20 -36 9z"/>
<path d="M170 226 c0 -7 7 -19 15 -26 12 -10 15 -9 15 8 0 11 -7 22 -15 26 -9
3 -15 0 -15 -8z"/>
<path d="M136 204 c-10 -25 21 -66 46 -62 24 3 37 28 15 28 -7 0 -19 11 -25
25 -13 29 -27 32 -36 9z"/>
<path d="M240 170 c0 -5 16 -10 36 -10 21 0 33 4 29 10 -3 6 -19 10 -36 10
-16 0 -29 -4 -29 -10z"/>
<path d="M1663 215 c-9 -25 6 -31 22 -9 8 10 15 14 15 8 0 -6 -12 -23 -26 -37
-22 -22 -24 -28 -11 -33 28 -10 51 1 62 30 8 23 6 30 -10 42 -25 18 -44 18
-52 -1z"/>
<path d="M1099 293 c-13 -16 -12 -17 4 -4 16 13 21 21 13 21 -2 0 -10 -8 -17
-17z"/>
<path d="M1327 216 c-3 -8 -25 -20 -47 -26 -47 -13 -48 -26 -2 -15 30 6 70 40
60 50 -3 3 -8 -1 -11 -9z"/>
</g>
</svg>
