<svg xmlns="http://www.w3.org/2000/svg" viewBox="0 0 87 140">
  <rect width="87" height="140" rx="6" ry="6" fill="#fff"/>
  <path d="M40.1 22.2s1.4 2.9-.1 11.2-4.4 13.6-1.5 21.4 9 4.1 9.8 3.2 3.8-3.5 2.7-12.8S47.2 31 47.2 27s.1-6.5 1.9-9.4c.8-1.3.5-.7.6-1.1s-2.8-.9-6.6 1.4-3 4.3-3 4.3z" fill="#325723"/>
  <path d="M38.4 54.8c2.8 7.8 9 4.1 9.7 3.2s3.9-3.5 2.8-12.8S47 31 47 27c-2.6 16.8-11.4 20-8.6 27.8z" fill="red"/>
  <path d="M49.6 16.4a6.2 6.2 0 0 0-4 .3 10.5 10.5 0 0 0-4.8 3.1c-1 1.2-1 2.3-.4 2.9a2.6 2.6 0 0 0 2.7.2 8.6 8.6 0 0 0 2.9-2.2l2.3-2.7 1.2-1.3.3-.3z" fill="#0d3a12"/>
  <path d="M43.1 23s-.7 7.4-3.6 13c0 0 1.1-5.3 1.2-7.1a31.8 31.8 0 0 0-.1-5.5l-.3-.9z" fill="#0d3a12"/>
  <path d="M48 31.9s2.5 8 2.8 11.6 1.2 7.8-1 12.2a7.9 7.9 0 0 1-4.6 3.9s3.2-8.3 2.3-16.4-1.2-9.9-1.2-9.9z" fill="#980805"/>
  <path d="M40.1 22.2s1.4 2.9-.1 11.2-4.4 13.6-1.5 21.4 8.7 4.2 9.8 3.2 3.8-3.5 2.7-12.8S47.2 31 47.2 27s.1-6.5 1.9-9.4a6.7 6.7 0 0 0 .6-1.1c-.1-.2-2.8-.9-6.6 1.5s-3 4.2-3 4.2z" fill="none" stroke="#000" stroke-linecap="round" stroke-linejoin="round" stroke-width=".4"/>
  <path d="M40.1 22.2s.5 1.7 3 .8 5.6-5.9 6.5-6.3" fill="none" stroke="#000" stroke-linecap="round" stroke-linejoin="round" stroke-width=".4"/>
  <path d="M48.1 34.5a19.6 19.6 0 0 0-.7-5.1c-.6-1.8-.4-6.4 0-7.9 0 0-3.4 7.8-5.2 9.7s-.8 1.8-.6 1.8H43a15.3 15.3 0 0 0-2.1 2.2c-.3.7-.7 1.7.4 1.3l1.1-.4a12.1 12.1 0 0 1-2.4 3.8 9.2 9.2 0 0 0-2.7 4.4 16.9 16.9 0 0 0 .6 9.2c.1 0 .2.2.4-.8s1.3-1.8 1.8-3.3.5-1.8.5-1.8.4 1 .7.9 1.2-1.8.8-5.4c0 .3.9 1.3 1.3 1.3s1.7-1.9 2-5.4l-.2-1.1s.5 1 .9 1 1.2-1.7.9-5c.2.4 1 .7 1.1.6z" fill="#fbc219"/>
  <path d="M46.6 25.3a56.2 56.2 0 0 1-2.2 5.4c-.7 1.1-1.2 1.3-.8 1.3h.8l-1.7 2.6c-.6.9-.1.9.1.8l1.4-.9a18 18 0 0 1-2.4 4.4 18.1 18.1 0 0 0-3.5 7.1 25.7 25.7 0 0 0-.3 5.7l2.2-5.3a5 5 0 0 0 .4-1.2s0 1.5.3 1.5.7-2.5 1-3.8a8.4 8.4 0 0 1 .2-1c.1-.2.5.9.9 1.1s.7 1.1 1.6-4.9c.4-1.8.6-2.9.6-2.9a7 7 0 0 0 .5 1.8c.3.1.9-1.5 1.1-3.9s.2-6.9.2-7.1l.2-2v-1z" fill="#d09b07"/>
  <path d="M47.5 21.5s-3.3 7.8-5.1 9.7-.9 1.8-.6 1.8h1.3a15.3 15.3 0 0 0-2.1 2.2c-.3.7-.7 1.7.4 1.3l1.1-.4a12.1 12.1 0 0 1-2.4 3.8 11.3 11.3 0 0 0-2.7 4.4 18 18 0 0 0 .6 9.2c.1 0 .3.2.4-.8s1.3-1.8 1.8-3.3.5-1.8.5-1.8.5 1 .7.9 1.2-1.8.8-5.4c0 .3.9 1.3 1.4 1.3s1.6-1.9 1.9-5.4v-1.1s.4 1 .8 1 1.2-1.7 1-5c0 .1.8 1.3.9.2s-.5-4.2-.7-5.1-.3-6 0-7.5z" fill="none" stroke="#000" stroke-linecap="round" stroke-linejoin="round" stroke-width=".4"/>
  <path d="M47.4 21.7s-1.6 7.9-1.8 9.9-2.5 7.1-4.6 10.2-3.2 8.8-2.9 11.3" fill="none" stroke="#000" stroke-linecap="round" stroke-linejoin="round" stroke-width=".4"/>
  <path d="M68.3 53.8s-1.3-3 .6-11.2 4.8-13.4 2.3-21.4-8.9-4.4-9.6-3.6-4 3.4-3.2 12.8 3.3 14.3 3.2 18.2-.4 6.5-2.3 9.4c-.9 1.3-.5.7-.6 1s2.8 1.1 6.7-1.1 2.9-4.1 2.9-4.1z" fill="red"/>
  <path d="M71.1 21.3c-2.5-7.9-8.9-4.4-9.6-3.6s-4 3.4-3.3 12.8 3.4 14.3 3.3 18.3c3.2-16.8 12.1-19.5 9.6-27.5z" fill="#325723"/>
  <path d="M58.6 59.2a6.9 6.9 0 0 0 4-.1 11.1 11.1 0 0 0 4.9-3c1.1-1.1 1-2.3.4-2.9a2.9 2.9 0 0 0-2.7-.3 8.7 8.7 0 0 0-3 2l-2.4 2.6-1.2 1.4h-.1z" fill="#980805"/>
  <path d="M65.3 52.9A43 43 0 0 1 69.4 40a67.5 67.5 0 0 0-1.4 7.1 35.1 35.1 0 0 0-.1 5.5v.9z" fill="#980805"/>
  <path d="M60.6 43.8s-2.2-7.9-2.2-11.6-.9-7.8 1.4-12.2a7.1 7.1 0 0 1 4.7-3.6s-3.4 8.2-2.9 16.3.8 10.1.8 10.1z" fill="#0d3a12"/>
  <path d="M68.3 53.8s-1.3-3 .6-11.2 4.8-13.4 2.3-21.4-8.5-4.4-9.6-3.6-4 3.4-3.2 12.8 3.3 14.3 3.2 18.2-.4 6.5-2.3 9.4c-.3.6-.6 1-.6 1.1s2.8 1.1 6.7-1.2 2.9-4.1 2.9-4.1z" fill="none" stroke="#000" stroke-linecap="round" stroke-linejoin="round" stroke-width=".4"/>
  <path d="M68.3 53.8s-.4-1.7-3-.9-5.8 5.4-6.6 6.1" fill="none" stroke="#000" stroke-linecap="round" stroke-linejoin="round" stroke-width=".4"/>
  <path d="M60.6 41.3a29.6 29.6 0 0 0 .6 5.5 22.6 22.6 0 0 1-.3 7.5s3.6-7.7 5.5-9.5.9-1.8.6-1.8h-1.3a9.8 9.8 0 0 0 2.2-2.1c.3-.7.8-1.7-.3-1.3l-1.1.2a14.7 14.7 0 0 1 2.6-3.8c1.8-1.9 2.5-3.3 2.7-4.4a16.6 16.6 0 0 0-.2-9.2c-.1 0-.3-.2-.4.8s-1.3 1.6-1.9 3.2-.5 1.8-.5 1.8-.3-1.1-.7-1-1.2 1.8-1.1 5.5c0-.3-.8-1.5-1.3-1.4s-1.8 2-2.2 5.4v1.1a3.8 3.8 0 0 0-.7-1.1c-.3 0-1.2 1.6-1.2 5 0-.1-.8-1.5-1-.4z" fill="#fbc219"/>
  <path d="M62.1 50.7s1.5-4.2 2.4-5.3 1.2-1.3.8-1.3h-.8l1.8-2.5c.6-1 .1-1-.2-.9l-1.3 1a19 19 0 0 1 2.7-4.4 21.7 21.7 0 0 0 3.7-6.8 26.9 26.9 0 0 0 .4-5.5s-2 4.2-2.3 5.3l-.5 1.2s.1-1.6-.2-1.6-.9 2.5-1.1 3.8a2.6 2.6 0 0 1-.3 1c-.1.2-.5-1-.8-1.1s-.7-1.2-1.8 4.9c-.5 1.9-.7 2.8-.7 2.8s-.2-1.7-.4-1.8-.8 1.5-1.2 3.7-.5 6.9-.6 7.1l-.2 2-.2.9z" fill="#d09b07"/>
  <path d="M61 54.4s3.5-7.8 5.4-9.6.9-1.8.6-1.8h-1.3a9.8 9.8 0 0 0 2.2-2.1c.3-.7.8-1.7-.3-1.3l-1.1.2a14.7 14.7 0 0 1 2.6-3.8c1.8-1.9 2.5-3.3 2.7-4.4a16.6 16.6 0 0 0-.2-9.2c-.1 0-.3-.2-.4.8s-1.3 1.6-1.9 3.2-.5 1.8-.5 1.8-.3-1.1-.7-1-1.2 1.8-1.1 5.5c0-.3-.8-1.5-1.3-1.4s-1.8 2-2.2 5.4v1.1a3.8 3.8 0 0 0-.7-1.1c-.3 0-1.2 1.6-1.2 5 0-.1-.8-1.5-.9-.3a32.7 32.7 0 0 0 .4 5.4 26.7 26.7 0 0 1-.1 7.6z" fill="none" stroke="#000" stroke-linecap="round" stroke-linejoin="round" stroke-width=".4"/>
  <path d="M61.4 53.1s1.5-7 1.8-8.9 2.7-7 4.9-10a26.8 26.8 0 0 0 3.5-11.8" fill="none" stroke="#000" stroke-linecap="round" stroke-linejoin="round" stroke-width=".4"/>
  <path d="M26.6 75.3s2.9-1.6 11.2-.3 13.8 3.6 21.4.3 3.6-9.2 2.8-9.8-3.8-3.6-13-2.2-14 4.6-17.9 4.8-6.5.3-9.5-1.4l-1.1-.6c-.3-.1-.9 2.9 1.7 6.6s4.4 2.6 4.4 2.6z" fill="red"/>
  <path d="M59.2 75.3c7.7-3.2 3.6-9.2 2.8-9.8s-3.8-3.6-13-2.2-14 4.6-17.9 4.8c16.9 1.8 20.4 10.5 28.1 7.2z" fill="#325723"/>
  <path d="M20.3 66.2a7.3 7.3 0 0 0 .5 4 13.9 13.9 0 0 0 3.4 4.7c1.2.9 2.3.8 2.9.1a2.6 2.6 0 0 0 .1-2.7 9.5 9.5 0 0 0-2.3-2.7L22 67.4l-1.4-1.1-.3-.2z" fill="#980805"/>
  <path d="M27.3 72.3s7.4.4 13.1 3c0 0-5.3-.8-7.1-.8a28.1 28.1 0 0 0-5.5.4l-.8.2z" fill="#980805"/>
  <path d="M35.9 66.9s7.7-3 11.4-3.3 7.7-1.6 12.3.3a7.4 7.4 0 0 1 4 4.3s-8.5-2.6-16.4-1.4-10 1.7-10 1.7z" fill="#0d3a12"/>
  <path d="M26.6 75.3s2.9-1.6 11.2-.3 13.8 3.6 21.4.3 3.7-8.9 2.8-9.8-3.8-3.6-13-2.2-14 4.6-17.9 4.8-6.5.3-9.5-1.4l-1.1-.6c-.3.1-.9 2.9 1.7 6.6s4.4 2.6 4.4 2.6z" fill="none" stroke="#000" stroke-linecap="round" stroke-linejoin="round" stroke-width=".4"/>
  <path d="M26.6 75.3s1.7-.6.6-3.1-6.2-5.3-6.7-6.1" fill="none" stroke="#000" stroke-linecap="round" stroke-linejoin="round" stroke-width=".4"/>
  <path d="M38.4 66.7a28.7 28.7 0 0 0-4.9.9c-1.8.8-6.3.6-8 .4 0 0 8 2.9 10 4.6s1.8.7 1.9.5v-1.4a10 10 0 0 0 2.3 2c.7.2 1.7.7 1.3-.4l-.3-1.1a10.3 10.3 0 0 1 3.8 2.2 11.7 11.7 0 0 0 4.6 2.4 16.3 16.3 0 0 0 9.1-1.1c0-.1.2-.2-.7-.4s-1.8-1.2-3.5-1.5a6.5 6.5 0 0 0-1.8-.4s1.1-.5 1-.8-1.8-1.1-5.4-.6c.2 0 1.3-1 1.2-1.5s-2.1-1.5-5.6-1.6l-1.2.4s1-.4 1-.8-1.7-1.1-5.1-.7c.2-.2 1.5-1.1.3-1.1z" fill="#fbc219"/>
  <path d="M29.4 68.7a32.4 32.4 0 0 1 5.5 2c1.2.7 1.3 1 1.3.7a5.5 5.5 0 0 0-.1-.9l2.6 1.6c1 .5 1 0 .9-.1a6.9 6.9 0 0 0-1-1.2 16.9 16.9 0 0 1 4.6 2.1 20.7 20.7 0 0 0 7.2 3.2 26.9 26.9 0 0 0 5.7-.2l-5.4-1.8-1.2-.3s1.5 0 1.4-.4-2.5-.6-4-.8H46c-.3-.2.8-.6 1-1s1.1-.8-5-1.4l-2.9-.5s1.7-.3 1.8-.6-1.5-.8-3.8-1a68.9 68.9 0 0 0-7.1.1h-3z" fill="#d09b07"/>
  <path d="M25.4 68.1s7.9 2.8 10 4.5 1.8.7 1.9.5v-1.4a8.2 8.2 0 0 0 2.3 2c.7.2 1.7.7 1.3-.4l-.3-1.1a10.3 10.3 0 0 1 3.8 2.2 11.1 11.1 0 0 0 4.6 2.4 16.4 16.4 0 0 0 9.1-1.1c0-.1.1-.2-.7-.4s-1.8-1.2-3.5-1.5a6.5 6.5 0 0 0-1.8-.4s1.1-.5 1-.8-1.8-1.1-5.5-.6c.3 0 1.4-1 1.3-1.5s-2.1-1.5-5.6-1.6l-1.1.4s1-.4 1-.8-1.7-1.1-5.1-.7c.2 0 1.4-1 .2-1.1a32.1 32.1 0 0 0-5 .9c-1.8.8-6.3.7-7.9.5z" fill="none" stroke="#000" stroke-linecap="round" stroke-linejoin="round" stroke-width=".4"/>
  <path d="M26 68.2l9.7 1.3c2 .1 7.3 2.1 10.4 3.9s9.1 2.7 11.7 2.4" fill="none" stroke="#000" stroke-linecap="round" stroke-linejoin="round" stroke-width=".4"/>
  <path d="M17.8 22.2s1.5 2.9-.1 11.2-4.3 13.6-1.6 21.4 9.1 4.1 9.8 3.2 3.8-3.5 2.7-12.8S24.8 31 24.8 27s.1-6.5 1.9-9.4c.9-1.3.5-.7.6-1.1s-2.7-.9-6.6 1.4-2.9 4.3-2.9 4.3z" fill="#325723"/>
  <path d="M16.1 54.8c2.8 7.8 9.1 4.1 9.8 3.2s3.8-3.5 2.7-12.8S24.8 31 24.8 27c-2.6 16.8-11.4 20-8.7 27.8z" fill="red"/>
  <path d="M27.3 16.4a5.9 5.9 0 0 0-3.9.3 10.9 10.9 0 0 0-4.9 3.1c-.9 1.2-.9 2.3-.3 2.9a2.4 2.4 0 0 0 2.6.2 7.7 7.7 0 0 0 2.9-2.2L26 18l1.2-1.3v-.2z" fill="#0d3a12"/>
  <path d="M20.8 23s-.7 7.4-3.6 13c0 0 1.1-5.3 1.2-7.1a31.8 31.8 0 0 0-.1-5.5l-.2-.9z" fill="#0d3a12"/>
  <path d="M25.8 31.9s2.5 8 2.7 11.6 1.2 7.8-.9 12.2a8.2 8.2 0 0 1-4.6 3.9s3.1-8.3 2.3-16.4-1.2-9.9-1.2-9.9z" fill="#980805"/>
  <path d="M17.8 22.2s1.5 2.9-.1 11.2-4.3 13.6-1.6 21.4 8.7 4.2 9.8 3.2 3.8-3.5 2.7-12.8S24.8 31 24.8 27s.1-6.5 1.9-9.4a6.7 6.7 0 0 0 .6-1.1c-.1-.2-2.7-.9-6.6 1.5s-2.9 4.2-2.9 4.2z" fill="none" stroke="#000" stroke-linecap="round" stroke-linejoin="round" stroke-width=".4"/>
  <path d="M17.8 22.2s.5 1.7 3 .8 5.7-5.9 6.5-6.3" fill="none" stroke="#000" stroke-linecap="round" stroke-linejoin="round" stroke-width=".4"/>
  <path d="M25.9 34.5a25.1 25.1 0 0 0-.7-5.1c-.6-1.8-.4-6.4 0-7.9 0 0-3.4 7.8-5.2 9.7s-.9 1.8-.6 1.8a5.6 5.6 0 0 0 1.3 0 11.5 11.5 0 0 0-2 2.2c-.4.7-.8 1.7.3 1.3l1.1-.4a12.1 12.1 0 0 1-2.4 3.8 9.6 9.6 0 0 0-2.6 4.4 15.9 15.9 0 0 0 .6 9.2c.1 0 .2.2.3-.8s1.3-1.8 1.8-3.3a8.5 8.5 0 0 0 .5-1.8s.5 1 .7.9 1.2-1.8.9-5.4c0 .3.8 1.3 1.3 1.3s1.7-1.9 1.9-5.4v-1.1s.5 1 .8 1 1.2-1.7 1-5c0 .4.9.9 1 .6z" fill="#fbc219"/>
  <path d="M24.3 25.3a49.9 49.9 0 0 1-2.1 5.4c-.8 1.1-1.2 1.3-.9 1.3h.9l-1.7 2.6c-.6.9-.2.8.1.7l1.3-1a14.7 14.7 0 0 1-2.4 4.5 19.6 19.6 0 0 0-3.5 7.1 22.8 22.8 0 0 0-.2 5.6s1.8-4.3 2.1-5.3a3.8 3.8 0 0 0 .4-1.2s0 1.6.4 1.6.7-2.5.9-3.8a2.6 2.6 0 0 1 .3-1c.1-.2.4.8.8 1.1s.7 1.1 1.7-5l.6-2.8s.2 1.6.5 1.8.8-1.5 1.1-3.9.2-7 .2-7.1v-3z" fill="#d09b07"/>
  <path d="M25.2 21.4s-3.3 7.9-5.1 9.8-.8 1.8-.6 1.8a5.6 5.6 0 0 0 1.3 0 11.5 11.5 0 0 0-2 2.2c-.4.7-.7 1.7.3 1.3l1.1-.4a12.1 12.1 0 0 1-2.4 3.8 9.6 9.6 0 0 0-2.6 4.4 15.9 15.9 0 0 0 .6 9.2c.1 0 .2.2.3-.8s1.4-1.8 1.8-3.3a8.5 8.5 0 0 0 .5-1.8s.5 1 .7.9 1.2-1.8.9-5.4c0 .3.8 1.3 1.3 1.3s1.7-1.9 1.9-5.4v-1.1s.5 1 .9 1 1.2-1.7.9-5c0 .1.9 1.3 1 .2a26.2 26.2 0 0 0-.7-5.1c-.7-1.4-.5-6-.1-7.6z" fill="none" stroke="#000" stroke-linecap="round" stroke-linejoin="round" stroke-width=".4"/>
  <path d="M24.9 22.3s-1.3 7.3-1.5 9.3-2.6 7.1-4.6 10.2-3.3 9.4-3 11.9" fill="none" stroke="#000" stroke-linecap="round" stroke-linejoin="round" stroke-width=".4"/>
  <path d="M46.9 117.9s-1.4-2.9.1-11.2 4.4-13.6 1.5-21.4-9-4.1-9.8-3.2-3.8 3.5-2.7 12.8 3.8 14.2 3.8 18.2-.1 6.5-1.9 9.4c-.8 1.3-.5.7-.6 1.1s2.8.9 6.6-1.4 3-4.3 3-4.3z" fill="#325723"/>
  <path d="M48.6 85.3c-2.8-7.8-9-4.1-9.7-3.2s-3.9 3.5-2.8 12.8 3.9 14.2 3.9 18.2c2.6-16.8 11.4-20 8.6-27.8z" fill="red"/>
  <path d="M37.5 123.6a6.2 6.2 0 0 0 4-.3 10 10 0 0 0 4.8-3.1c1-1.2 1-2.3.4-2.9a2.6 2.6 0 0 0-2.7-.2 7.6 7.6 0 0 0-2.8 2.1l-2.3 2.8-1.2 1.3-.4.3z" fill="#0d3a12"/>
  <path d="M44 117s.8-7.4 3.6-13c0 0-1 5.3-1.2 7.1a23.4 23.4 0 0 0 .2 5.5l.2.8z" fill="#0d3a12"/>
  <path d="M39 108.2s-2.5-8-2.8-11.6-1.2-7.8 1-12.2a7.9 7.9 0 0 1 4.6-3.9s-3.2 8.3-2.3 16.4 1.2 10 1.2 10z" fill="#980805"/>
  <path d="M46.9 117.9s-1.4-2.9.1-11.2 4.4-13.6 1.5-21.4-8.7-4.2-9.8-3.2-3.8 3.5-2.7 12.8 3.8 14.2 3.8 18.2-.1 6.5-1.9 9.4a6.7 6.7 0 0 0-.6 1.1c.1.2 2.8.9 6.6-1.5s3-4.2 3-4.2z" fill="none" stroke="#000" stroke-linecap="round" stroke-linejoin="round" stroke-width=".4"/>
  <path d="M46.9 117.9s-.5-1.7-3-.8-5.6 5.9-6.5 6.3" fill="none" stroke="#000" stroke-linecap="round" stroke-linejoin="round" stroke-width=".4"/>
  <path d="M38.9 105.7a24.1 24.1 0 0 0 .7 5c.6 1.8.4 6.4 0 7.9s3.4-7.8 5.2-9.7.8-1.8.6-1.8H44a11.3 11.3 0 0 0 2.1-2.2c.3-.7.7-1.7-.4-1.3l-1.2.2a11.1 11.1 0 0 1 2.4-3.7 11.3 11.3 0 0 0 2.7-4.4 18 18 0 0 0-.6-9.2c-.1 0-.3-.2-.4.8s-1.3 1.8-1.8 3.3-.5 1.8-.5 1.8-.5-1.1-.7-.9-1.2 1.8-.8 5.4c0-.3-.9-1.4-1.4-1.4s-1.6 2-1.9 5.5v1s-.4-.9-.8-.9-1.2 1.7-1 5c.1-.3-.8-1.1-.8-.4z" fill="#fbc219"/>
  <path d="M40.4 114.8a56.2 56.2 0 0 1 2.2-5.4c.7-1.1 1.2-1.3.8-1.3h-.8l1.7-2.6c.6-.9.1-.9-.1-.8a10.4 10.4 0 0 0-1.4 1 17.8 17.8 0 0 1 2.4-4.5 17.5 17.5 0 0 0 3.5-7.1 24.9 24.9 0 0 0 .3-5.6l-2.2 5.2a5 5 0 0 0-.4 1.2s0-1.5-.3-1.5-.7 2.5-1 3.8a5.8 5.8 0 0 1-.2 1c-.1.2-.5-.8-.9-1.1s-.7-1.1-1.6 4.9c-.4 1.8-.6 2.9-.6 2.9a7 7 0 0 0-.5-1.8c-.3-.1-.9 1.5-1.1 3.9a47 47 0 0 0-.2 7.1l-.2 2.3v.9z" fill="#d09b07"/>
  <path d="M39.5 118.8s3.5-8 5.3-9.9.8-1.8.6-1.8H44a11.3 11.3 0 0 0 2.1-2.2c.3-.7.7-1.7-.4-1.3l-1.2.2a11.1 11.1 0 0 1 2.4-3.7 11.3 11.3 0 0 0 2.7-4.4 18 18 0 0 0-.6-9.2c-.1 0-.3-.2-.4.8s-1.3 1.8-1.8 3.3-.5 1.8-.5 1.8-.5-1.1-.7-.9-1.2 1.8-.8 5.4c0-.3-.9-1.4-1.4-1.4s-1.6 2-1.9 5.5v1s-.4-.9-.8-.9-1.2 1.7-1 5c0-.1-.8-1.3-.9-.2a18.9 18.9 0 0 0 .7 5c.7 1.6.3 6.2 0 7.9z" fill="none" stroke="#000" stroke-linecap="round" stroke-linejoin="round" stroke-width=".4"/>
  <path d="M39.6 118.3s1.6-8 1.8-9.9 2.5-7.1 4.6-10.2a23.5 23.5 0 0 0 2.9-11.4" fill="none" stroke="#000" stroke-linecap="round" stroke-linejoin="round" stroke-width=".4"/>
  <path d="M18.8 86.2s1.3 3-.6 11.2-4.8 13.4-2.3 21.4 8.9 4.4 9.6 3.6 4-3.4 3.3-12.8-3.4-14.3-3.3-18.3.4-6.5 2.3-9.3.5-.8.6-1-2.8-1.1-6.7 1.1-2.9 4.1-2.9 4.1z" fill="red"/>
  <path d="M15.9 118.6c2.5 8 8.9 4.5 9.6 3.6s4-3.3 3.3-12.7-3.4-14.3-3.3-18.3c-3.2 16.7-12.1 19.5-9.6 27.4z" fill="#325723"/>
  <path d="M28.4 80.8a6.9 6.9 0 0 0-4 .1 12.1 12.1 0 0 0-4.9 3c-1.1 1.1-1 2.3-.4 2.9a2.9 2.9 0 0 0 2.7.3 8.7 8.7 0 0 0 3-2c.7-.9 2.4-2.7 2.4-2.7l1.2-1.3v-.2z" fill="#980805"/>
  <path d="M21.7 87.1a43.8 43.8 0 0 1-4.1 12.9 67.5 67.5 0 0 0 1.4-7.1 35.1 35.1 0 0 0 .1-5.5v-.9z" fill="#980805"/>
  <path d="M26.4 96.2s2.2 7.9 2.2 11.6.9 7.8-1.4 12.2a7.4 7.4 0 0 1-4.7 3.6s3.4-8.2 2.9-16.3-.8-10.1-.8-10.1z" fill="#0d3a12"/>
  <path d="M18.8 86.2s1.3 3-.6 11.2-4.8 13.4-2.3 21.4 8.5 4.4 9.6 3.6 4-3.4 3.3-12.8-3.4-14.3-3.3-18.3.4-6.5 2.3-9.3a4 4 0 0 0 .6-1.1c-.1-.3-2.8-1.1-6.7 1.2s-2.9 4.1-2.9 4.1z" fill="none" stroke="#000" stroke-linecap="round" stroke-linejoin="round" stroke-width=".4"/>
  <path d="M18.8 86.2s.5 1.7 3 .9 5.9-5.7 6.7-6.1" fill="none" stroke="#000" stroke-linecap="round" stroke-linejoin="round" stroke-width=".4"/>
  <path d="M26.4 98.7a24.6 24.6 0 0 0-.6-5.1 20.8 20.8 0 0 1 .3-7.9s-3.6 7.7-5.5 9.5-.9 1.8-.6 1.8h1.3a9.8 9.8 0 0 0-2.2 2.1c-.3.7-.8 1.6.3 1.3l1.1-.3a16.2 16.2 0 0 1-2.6 3.8c-1.8 1.9-2.5 3.3-2.7 4.4a16.6 16.6 0 0 0 .2 9.2c.1 0 .3.2.4-.8s1.3-1.6 1.9-3.2.5-1.8.5-1.8.3 1.1.7.9 1.2-1.8 1.1-5.4c0 .3.8 1.5 1.3 1.4s1.8-2 2.2-5.5v-1s.4.9.7 1 1.2-1.5 1.2-4.9c0 .4.8 1.7 1 .5z" fill="#fbc219"/>
  <path d="M25.2 89.5a39.9 39.9 0 0 1-2.4 5.3c-.9 1.1-1.2 1.4-.9 1.4h.9a29.9 29.9 0 0 0-1.8 2.5c-.7.9-.2.9.1.8l1.3-.9a17.4 17.4 0 0 1-2.7 4.3 21.7 21.7 0 0 0-3.7 6.8 25 25 0 0 0-.3 5.6s1.9-4.2 2.2-5.3l.5-1.2s-.1 1.5.3 1.5.8-2.5 1-3.8l.3-1c.1-.2.5 1 .8 1.1s.8 1.2 1.8-4.9l.8-2.8s.1 1.7.3 1.8.9-1.4 1.2-3.7.5-6.9.6-7.1l.3-2v-1z" fill="#d09b07"/>
  <path d="M26.1 85.7s-3.5 7.7-5.4 9.5-.8 1.8-.6 1.8h1.3s-1.8 1.3-2.1 2.1-.9 1.6.2 1.3l1.1-.3a13.9 13.9 0 0 1-2.5 3.8c-1.8 1.9-2.6 3.3-2.8 4.4a16.6 16.6 0 0 0 .2 9.2c.2 0 .3.2.4-.8s1.3-1.6 1.9-3.2a8.5 8.5 0 0 0 .5-1.8s.4 1.1.7.9 1.2-1.8 1.1-5.4c0 .3.9 1.5 1.3 1.4s1.8-2 2.2-5.5v-1a4.6 4.6 0 0 0 .7 1c.4 0 1.2-1.5 1.2-4.9 0 .1.8 1.5 1 .3a24.6 24.6 0 0 0-.6-5.1 22.8 22.8 0 0 1 .2-7.7z" fill="none" stroke="#000" stroke-linecap="round" stroke-linejoin="round" stroke-width=".4"/>
  <path d="M25.8 86.4S24.2 94 24 95.9s-2.8 7-5 10-3.6 8.9-3.5 11.4" fill="none" stroke="#000" stroke-linecap="round" stroke-linejoin="round" stroke-width=".4"/>
  <path d="M69.2 117.9s-1.5-2.9.1-11.2 4.3-13.6 1.4-21.4-9-4.1-9.7-3.2-3.9 3.5-2.8 12.8 3.9 14.2 3.9 18.2-.1 6.5-1.9 9.4c-.9 1.3-.5.7-.6 1.1s2.7.9 6.6-1.4 3-4.3 3-4.3z" fill="#325723"/>
  <path d="M70.9 85.3c-2.8-7.8-9.1-4.1-9.8-3.2s-3.8 3.5-2.7 12.8 3.8 14.2 3.8 18.2c2.6-16.8 11.4-20 8.7-27.8z" fill="red"/>
  <path d="M59.8 123.6a6.2 6.2 0 0 0 4-.3 11.1 11.1 0 0 0 4.8-3.1c.9-1.2.9-2.3.3-2.9a2.4 2.4 0 0 0-2.6-.2 7.9 7.9 0 0 0-2.9 2.1l-2.3 2.8-1.2 1.3-.3.3z" fill="#0d3a12"/>
  <path d="M66.3 117s.7-7.4 3.6-13c0 0-1.1 5.3-1.2 7.1a31.8 31.8 0 0 0 .1 5.5l.3.8z" fill="#0d3a12"/>
  <path d="M61.2 108.2s-2.5-8-2.7-11.6-1.2-7.8.9-12.2a8.2 8.2 0 0 1 4.6-3.9s-3.1 8.3-2.3 16.4 1.2 10 1.2 10z" fill="#980805"/>
  <path d="M69.2 117.9s-1.5-2.9.1-11.2 4.3-13.6 1.4-21.4-8.6-4.2-9.7-3.2-3.9 3.5-2.8 12.8 3.9 14.2 3.9 18.2-.1 6.5-1.9 9.4a6.7 6.7 0 0 0-.6 1.1c.1.2 2.7.9 6.6-1.5s3-4.2 3-4.2z" fill="none" stroke="#000" stroke-linecap="round" stroke-linejoin="round" stroke-width=".4"/>
  <path d="M69.2 117.9s-.5-1.7-3-.8-5.7 5.9-6.5 6.3" fill="none" stroke="#000" stroke-linecap="round" stroke-linejoin="round" stroke-width=".4"/>
  <path d="M61.1 105.7a24.1 24.1 0 0 0 .7 5c.6 1.8.4 6.4 0 7.9s3.4-7.8 5.2-9.7.9-1.8.6-1.8h-1.3a9 9 0 0 0 2-2.2c.4-.7.8-1.7-.3-1.3l-1.2.2a11.1 11.1 0 0 1 2.4-3.7 9.6 9.6 0 0 0 2.6-4.4 15.9 15.9 0 0 0-.6-9.2c-.1 0-.2-.2-.3.8s-1.4 1.8-1.8 3.3a8.5 8.5 0 0 0-.5 1.8s-.5-1.1-.7-.9-1.2 1.8-.9 5.4c0-.3-.8-1.4-1.3-1.4s-1.7 2-1.9 5.5v1s-.5-.9-.9-.9-1.2 1.7-.9 5c.1-.3-.8-1.1-.9-.4z" fill="#fbc219"/>
  <path d="M62.7 114.8a49.9 49.9 0 0 1 2.1-5.4c.8-1.1 1.2-1.3.9-1.3h-.9l1.7-2.6c.6-.9.2-.9-.1-.8l-1.3 1a14.7 14.7 0 0 1 2.4-4.5 18.9 18.9 0 0 0 3.5-7.1 22.8 22.8 0 0 0 .2-5.6s-1.8 4.3-2.1 5.2a5 5 0 0 0-.4 1.2s0-1.5-.4-1.5-.7 2.5-.9 3.8a2.6 2.6 0 0 1-.3 1c-.1.2-.4-.8-.8-1.1s-.7-1.1-1.7 4.9c-.4 1.8-.6 2.9-.6 2.9s-.2-1.7-.5-1.8-.8 1.5-1.1 3.9a66.4 66.4 0 0 0-.2 7.1v3z" fill="#d09b07"/>
  <path d="M61.7 118.7s3.5-7.9 5.3-9.8.9-1.8.6-1.8h-1.3a9 9 0 0 0 2-2.2c.4-.7.8-1.7-.3-1.3l-1.2.2a11.1 11.1 0 0 1 2.4-3.7 9.6 9.6 0 0 0 2.6-4.4 15.9 15.9 0 0 0-.6-9.2c-.1 0-.2-.2-.3.8s-1.4 1.8-1.8 3.3a8.5 8.5 0 0 0-.5 1.8s-.5-1.1-.7-.9-1.2 1.8-.9 5.4c0-.3-.8-1.4-1.3-1.4s-1.7 2-1.9 5.5v1s-.5-.9-.9-.9-1.2 1.7-.9 5c0-.1-.9-1.3-1-.2a24.1 24.1 0 0 0 .7 5c.7 1.6.4 6.1 0 7.8z" fill="none" stroke="#000" stroke-linecap="round" stroke-linejoin="round" stroke-width=".4"/>
  <path d="M61.8 118.3s1.6-8 1.8-9.9 2.6-7.1 4.6-10.2 3.1-8.8 2.9-11.4" fill="none" stroke="#000" stroke-linecap="round" stroke-linejoin="round" stroke-width=".4"/>
</svg>
