<svg xmlns="http://www.w3.org/2000/svg" viewBox="0 0 87 140">
  <rect width="87" height="140" rx="6" ry="6" fill="#fff"/>
  <path d="M56.1 84.2s.8-1.8 3.9-1.7a2 2 0 0 1-.4 2.1c.2 0 2.1-1.6 5.4.7a6.3 6.3 0 0 1-3.5 1.5 5.8 5.8 0 0 1 4 2.3 5.2 5.2 0 0 1-2.7.6s1.8.3 2.3 3.4a10.9 10.9 0 0 1-1.7-.5 4.6 4.6 0 0 1 1.7 3.4c-.2-.1-1.5-.2-2.3-.5a8.3 8.3 0 0 1 2 2.8 1.7 1.7 0 0 1-1.3-.2 9.9 9.9 0 0 1 2.1 5.3 5.5 5.5 0 0 1-3.7-2.7 3.5 3.5 0 0 1-.2 2.5 4.5 4.5 0 0 1-2.7-3.7 17 17 0 0 0-.9 2.4 4.8 4.8 0 0 1-.9-3.5 2.9 2.9 0 0 1-1.4 1.2 12 12 0 0 1 0-2.1 5.3 5.3 0 0 1-1.7 1.5 9.4 9.4 0 0 1-.6-2.7c-.1-1.5 2.6-12.1 2.6-12.1z" fill="#325723"/>
  <path d="M65.6 103.4a5.5 5.5 0 0 1-3.7-2.7 3.5 3.5 0 0 1-.2 2.5 4.5 4.5 0 0 1-2.7-3.7 17 17 0 0 0-.9 2.4 4.8 4.8 0 0 1-.9-3.5 2.9 2.9 0 0 1-1.4 1.2 12 12 0 0 1 0-2.1 5.3 5.3 0 0 1-1.7 1.5 9.4 9.4 0 0 1-.6-2.7c0-.8 1-6.7 1.7-9.8a13.1 13.1 0 0 1 5 8.4 20.3 20.3 0 0 0 5.4 8.5z" fill="#0d3a12"/>
  <path d="M56.1 84.2s.8-1.8 3.9-1.7a2 2 0 0 1-.4 2.1c.2 0 2.1-1.6 5.4.7a6.3 6.3 0 0 1-3.5 1.5 5.8 5.8 0 0 1 4 2.3 5.2 5.2 0 0 1-2.7.6s1.8.3 2.3 3.4a10.9 10.9 0 0 1-1.7-.5 4.6 4.6 0 0 1 1.7 3.4c-.2-.1-1.5-.2-2.3-.5a8.3 8.3 0 0 1 2 2.8 1.7 1.7 0 0 1-1.3-.2 9.9 9.9 0 0 1 2.1 5.3 5.5 5.5 0 0 1-3.7-2.7 3.5 3.5 0 0 1-.2 2.5 4.5 4.5 0 0 1-2.7-3.7 17 17 0 0 0-.9 2.4 4.8 4.8 0 0 1-.9-3.5 2.9 2.9 0 0 1-1.4 1.2 12 12 0 0 1 0-2.1 5.3 5.3 0 0 1-1.7 1.5 9.4 9.4 0 0 1-.6-2.7c-.1-1.5 2.6-12.1 2.6-12.1z" fill="none" stroke="#000" stroke-linecap="round" stroke-linejoin="round" stroke-width=".4"/>
  <path d="M22.5 43.7S10.3 57.6 28 72a16.8 16.8 0 0 0 2.1 1.8l1.2-1.7s-3.7-2.9-3.9-6.4a21.7 21.7 0 0 0-1.7-6.6s-1.6.4-1.7 3.3a5.8 5.8 0 0 1 0-5.1 7.1 7.1 0 0 0 .1-5.6 3.8 3.8 0 0 0-2.2 2.5s1.3-3.9.9-6.2a21.7 21.7 0 0 1-.3-4.3z" fill="#fbc219"/>
  <path d="M29.9 72.3s1.5 1.2.8.3-4.7-5.8-4.7-7.8v-3.4a6.3 6.3 0 0 0-1.4 3.8c.1 2.1-3.1-4.4-2.5-7.3a12.7 12.7 0 0 0 .5-2.9 2.6 2.6 0 0 0-1.6 2c-.4 1.6-.6-4.9 0-6.8a4.9 4.9 0 0 0 .4-2.5s-2.5 1.5-2.3 7.2 4.3 13.2 10.8 17.4z" fill="#d09b07"/>
  <path d="M20.6 49.5c-1 8.9 1 12.8 5.5 18.7m-3.6-24.5S10.3 57.6 28 72a16.8 16.8 0 0 0 2.1 1.8l1.2-1.7s-3.7-2.9-3.9-6.4a21.7 21.7 0 0 0-1.7-6.6s-1.6.4-1.7 3.3a5.8 5.8 0 0 1 0-5.1 7.1 7.1 0 0 0 .1-5.6 3.8 3.8 0 0 0-2.2 2.5s1.3-3.9.9-6.2a21.7 21.7 0 0 1-.3-4.3z" fill="none" stroke="#000" stroke-linecap="round" stroke-linejoin="round" stroke-width=".4"/>
  <path d="M42.4 85.3a45.3 45.3 0 0 0-5.9-13.8c-4.4-6.7-4.2-7.7-4.3-8.4s-3 2.2-1.8 8.7c-.1 0-9.1-.3-8 7.9.1-.2 5-6.7 11.1-2.9s7.7 7.5 8.9 12.5a24.6 24.6 0 0 0 0-4z" fill="#fbc219"/>
  <path d="M30.1 71.8c-1.6 0-8.7.6-7.7 7.9.1-.2 5-6.7 11.1-2.9s7.7 7.5 8.9 12.5a24.6 24.6 0 0 0 0-4s-4.1-12.6-12.3-13.5z" fill="#d09b07"/>
  <path d="M49.9 19.6s7.1-6.7 15.5-1.2-.5 19.2-5.5 25.8-6.1 17-5.3 26.3c.2.2-21.2-21.4-4.7-50.9z" fill="#325723"/>
  <path d="M42.4 85.3a45.3 45.3 0 0 0-5.9-13.8c-4.4-6.7-4.2-7.7-4.3-8.4s-3 2.2-1.8 8.7c-.1 0-9.1-.3-8 7.9.1-.2 5-6.7 11.1-2.9s7.7 7.5 8.9 12.5a24.6 24.6 0 0 0 0-4z" fill="none" stroke="#000" stroke-linecap="round" stroke-linejoin="round" stroke-width=".4"/>
  <path d="M49.5 22.2l.5.2c.1.1.2.1.2.2s.1.1.1.2h.1A2.8 2.8 0 0 1 50 24a10.1 10.1 0 0 1-1.3 1.6l-1.9 2 2.5-.4-.8 1.8-.7 2a2.6 2.6 0 0 1-1.5 1.6h.3l.9-.3h1a8.7 8.7 0 0 1-1.2 4.2 10.8 10.8 0 0 0-1.1 4.1 6.6 6.6 0 0 1 1.1-1.6 16.1 16.1 0 0 1 2.2-1.5 6.6 6.6 0 0 1 .4 2.3 5.2 5.2 0 0 1-.4 2.1l-.4.6-.8.9.8-.6h.1l.3-.2h.7a3.3 3.3 0 0 1-.1 2.4l-.3.7a6.9 6.9 0 0 0-1.3 5.3l.3-.5a3.5 3.5 0 0 1 .7-1.1l.9-1 .4-.3c.3-.6.3-.1.3-.1a14.6 14.6 0 0 1-.1 5 11 11 0 0 1-.3 1.6 5.7 5.7 0 0 1 1.1-1.1h.1l.7-.4c.6 1 .2 1.3.3 2.1s-.3 1.3-.3 1.7a7.6 7.6 0 0 1-.4 1.1 13.1 13.1 0 0 0-.9 2.8L53 60v.9a23.3 23.3 0 0 0 .4-3.7 138.5 138.5 0 0 0-.4-19.4 40.7 40.7 0 0 1 4.2-21.7 17.8 17.8 0 0 0-7.4 3.3z" fill="#0d3a12"/>
  <path d="M55.9 84.8s.7-4.2 2.7-5.6 6.7-2.5 8-3.5 3.5-5.7 4.2-6.3-2.5-.9-4.8 1.9a15.7 15.7 0 0 0 2.7-9.9 9 9 0 0 1-2.9 4.3c-2.1 1.5-2.4 1.6-2.5 1.9s.6-2.1-1.4-3.7c.1 0 .4 2.6-2.6 5.9s-3.4 15-3.4 15z" fill="#fbc219"/>
  <path d="M55.9 84.8s.7-4.2 2.7-5.6 6.7-2.5 8-3.5 3.5-5.7 4.2-6.3-2.5-.9-4.8 1.9a15.7 15.7 0 0 0 2.7-9.9 9 9 0 0 1-2.9 4.3c-2.1 1.5-2.4 1.6-2.5 1.9s.6-2.1-1.4-3.7c.1 0 .4 2.6-2.6 5.9s-3.4 15-3.4 15z" fill="none" stroke="#000" stroke-linecap="round" stroke-linejoin="round" stroke-width=".4"/>
  <path d="M36.8 42.1s3.4 27.1 4.7 34.6 2 25.9-10.8 35.2-11.6 8.5-13.2 11.4a19.1 19.1 0 0 0 15-2.9c8-5.3 20.8-12.6 23.4-35.6S36.8 42.1 36.8 42.1z" fill="red"/>
  <path d="M57.5 78.4s.9-5.2 2.7-7.6a15.4 15.4 0 0 0 1.9-2.9 9.7 9.7 0 0 1-.4 2.8c-.4 1 .8-1.3 3.2-2.8l2.3-1.5s-2.6 6.4-5.1 8.3a7.8 7.8 0 0 1 2.1-.5 17.6 17.6 0 0 1-3.4 2.5 10.2 10.2 0 0 0-3.5 3z" fill="#d09b07"/>
  <path d="M29.9 116.7c-7.4 6.2-12.5 6.4-12.4 6.6 1.6-2.9.4-2.1 13.2-11.4s12.2-27.7 10.8-35.2-4.7-34.6-4.7-34.6 2.6 3.1 7.1 9.3c0 0 14.3 41.8-14 65.3z" fill="#980805"/>
  <path d="M65.3 68.5s.3.8-3.5 4.2-5.7 11.1-5.7 11.1" fill="none" stroke="#000" stroke-linecap="round" stroke-linejoin="round" stroke-width=".4"/>
  <path d="M39.6 99.1s2-13.3-8.9-15.3a5.4 5.4 0 0 0 .7 2.9 7.9 7.9 0 0 0-9-2.4 22.5 22.5 0 0 1 1.2 2.1 6.7 6.7 0 0 0-4.4.5 5.2 5.2 0 0 0 1.5 1.6c-.2-.1-4.5-.1-4.5 5.5a5.5 5.5 0 0 0 2.3-1 2.2 2.2 0 0 0-.6 1.9l1.3-.5s-1.4 7.6 4.9 8 4.6-5.5 4.1-6.1a3.8 3.8 0 0 0-4.3-1.2 6.7 6.7 0 0 1 7.7-4c3.5.8 6.8 4.6 7.3 11.4 0 .2.7-3.4.7-3.4z" fill="red"/>
  <path d="M19.2 94.4s-1.4 7.6 4.9 8 4.6-5.5 4.1-6.1a3.8 3.8 0 0 0-4.3-1.2 6.7 6.7 0 0 1 7.7-4c3.5.8 6.8 4.6 7.3 11.4a13.8 13.8 0 0 0 .5-2.6s.2-7.1-5.6-10.4-12.7-1.3-14.6 4.9z" fill="#980805"/>
  <path d="M39.6 99.1s2-13.3-8.9-15.3a5.4 5.4 0 0 0 .7 2.9 7.9 7.9 0 0 0-9-2.4 22.5 22.5 0 0 1 1.2 2.1 6.7 6.7 0 0 0-4.4.5 5.2 5.2 0 0 0 1.5 1.6c-.2-.1-4.5-.1-4.5 5.5a5.5 5.5 0 0 0 2.3-1 2.2 2.2 0 0 0-.6 1.9l1.3-.5s-1.4 7.6 4.9 8 4.6-5.5 4.1-6.1a3.8 3.8 0 0 0-4.3-1.2 6.7 6.7 0 0 1 7.7-4c3.5.8 6.8 4.6 7.3 11.4 0 .2.7-3.4.7-3.4z" fill="none" stroke="#000" stroke-linecap="round" stroke-linejoin="round" stroke-width=".4"/>
  <path d="M36.8 42.1s3.4 27.1 4.7 34.6 2 25.9-10.8 35.2-11.6 8.5-13.2 11.4a19.1 19.1 0 0 0 15-2.9c8-5.3 20.8-12.6 23.4-35.6S36.8 42.1 36.8 42.1z" fill="none" stroke="#000" stroke-linecap="round" stroke-linejoin="round" stroke-width=".4"/>
  <path d="M49.9 19.6s7.1-6.7 15.5-1.2-.5 19.2-5.5 25.8-6.1 17-5.3 26.3c.2.2-21.2-21.4-4.7-50.9z" fill="none" stroke="#000" stroke-linecap="round" stroke-linejoin="round" stroke-width=".4"/>
  <path d="M55.9 84.8v-1.2c-.1-.6-.1-1.2-.2-1.7v-.2a10.6 10.6 0 0 0-.4-1.9 27.5 27.5 0 0 0-5.2-10.2l-6-6 1.5-.5h-.4c-2.9-.8-4.4-2.5-4.7-5.3a5.2 5.2 0 0 1 3.7.1 5.4 5.4 0 0 0-2.1-1.3 5.3 5.3 0 0 1-3-4.1 3.1 3.1 0 0 1 2.4.4 15.9 15.9 0 0 0-3.2-2.7l-.8-1a4.8 4.8 0 0 1-.7-3.1l2.1.5c-3.6-5.6-2.2-8.1-2.2-8.2a7.2 7.2 0 0 1 1.5.7 16.4 16.4 0 0 1-.7-4.3c0-2.1.8-2.4.8-2.4l1.4.7c-.8-3.5.6-4.3.5-4.3s1.6 1.1 1.7 1.2c-.3-4.9 1.2-5.5 1.2-5.5s.5 1 .4 1c4.7-6.6 6.4-5.8 6.4-5.8l-.4 2.8.6.2.2.2v.1a.1.1 0 0 0 .1.1 5.6 5.6 0 0 1-.4 1.2l-1.3 1.6a11.9 11.9 0 0 1-1.7 1.5c0 .1 0 .1-.1.1h2.4l-.7 1.8a14.6 14.6 0 0 0-.7 1.9 2.6 2.6 0 0 1-1.5 1.6h.3l.9-.3h.9a8.7 8.7 0 0 1-1.2 4.2 6.8 6.8 0 0 0-1 3.5 2.2 2.2 0 0 0-.1.8 5.6 5.6 0 0 1 3.3-3.5s1.6 2.1-1.1 5.6a4.8 4.8 0 0 1 1.8-.5s.6.6-.4 3.1-1.6 3.6-1.3 5.3c.1-.1 1.4-2.5 2.5-3.1a13.9 13.9 0 0 1-.3 6.8c0 .1 1.2-1.4 1.9-1.6s1.1 1.8-1.3 7.7c-.1 0 .5-.5 1.7-1.1s.1 1.6.3 4.9c0 1.5 1.8 7.8 2.6 10.2a20.3 20.3 0 0 1 0 10z" fill="#fbc219"/>
  <path d="M55.8 76.6s-3.9-9.3-6.1-10.6-3.3-2-2.3-2.3a1.3 1.3 0 0 1 1.5.2s-4.1-2.2-4.7-3a5.6 5.6 0 0 1-.9-1.5 8.1 8.1 0 0 1 3.8 1.1c1.2 1-2.7-4-3.2-5.6a7 7 0 0 1 1.9 1c.4.5-5.7-6.2-6.2-7.4s3.3.5 3.8 1.3-4.3-6.9-4.2-8.6a7.6 7.6 0 0 1 2.9 2.5c0-.2-2.7-6.4-2.5-7.8a10 10 0 0 1 2.2 2.5c0-.1-.6-4.1-.2-5.9.1-.1.8.8 1 1.5s.6-6.5 3-8a72.5 72.5 0 0 1-1 10c.2-.1 1-1 1.6-1.2a29.9 29.9 0 0 0-1.1 9.1c0 .3-.4-.1 1-1.1-.2.2.8 2.1.2 4.6l1-.9c-.2.3-.6 5.3.8 7.4.1 0 .2-1.2 1.2-1.7a19.6 19.6 0 0 1 .5 6.7c-.5 3.5 5.4 11.3 6 17.7z" fill="#d09b07"/>
  <path d="M55.9 84.8v-1.2c-.1-.6-.1-1.2-.2-1.7v-.2a10.6 10.6 0 0 0-.4-1.9 27.5 27.5 0 0 0-5.2-10.2l-6-6 1.5-.5h-.4c-2.9-.8-4.4-2.5-4.7-5.3a5.2 5.2 0 0 1 3.7.1 5.4 5.4 0 0 0-2.1-1.3 5.3 5.3 0 0 1-3-4.1 3.1 3.1 0 0 1 2.4.4 15.9 15.9 0 0 0-3.2-2.7l-.8-1a4.8 4.8 0 0 1-.7-3.1l2.1.5c-3.6-5.6-2.2-8.1-2.2-8.2a7.2 7.2 0 0 1 1.5.7 16.4 16.4 0 0 1-.7-4.3c0-2.1.8-2.4.8-2.4l1.4.7c-.8-3.5.6-4.3.5-4.3s1.6 1.1 1.7 1.2c-.3-4.9 1.2-5.5 1.2-5.5s.5 1 .4 1c4.7-6.6 6.4-5.8 6.4-5.8l-.4 2.8.6.2.2.2v.1a.1.1 0 0 0 .1.1 5.6 5.6 0 0 1-.4 1.2l-1.3 1.6a11.9 11.9 0 0 1-1.7 1.5c0 .1 0 .1-.1.1h2.4l-.7 1.8a14.6 14.6 0 0 0-.7 1.9 2.6 2.6 0 0 1-1.5 1.6h.3l.9-.3h.9a8.7 8.7 0 0 1-1.2 4.2 6.8 6.8 0 0 0-1 3.5 2.2 2.2 0 0 0-.1.8 5.6 5.6 0 0 1 3.3-3.5s1.6 2.1-1.1 5.6a4.8 4.8 0 0 1 1.8-.5s.6.6-.4 3.1-1.6 3.6-1.3 5.3c.1-.1 1.4-2.5 2.5-3.1a13.9 13.9 0 0 1-.3 6.8c0 .1 1.2-1.4 1.9-1.6s1.1 1.8-1.3 7.7c-.1 0 .5-.5 1.7-1.1s.1 1.6.3 4.9c0 1.5 1.8 7.8 2.6 10.2a20.3 20.3 0 0 1 0 10z" fill="none" stroke="#000" stroke-linecap="round" stroke-linejoin="round" stroke-width=".4"/>
  <path d="M56.6 79.8c-.2-2.4-1.5-5.3-2-6.8a52.2 52.2 0 0 0-2.4-5.4l-1-2.2q-1.8-3.6-3.3-7.5a78.5 78.5 0 0 1-3.3-9.6 26.8 26.8 0 0 1-1.1-6.4v-.5a14.8 14.8 0 0 1-.1-2.1v-.5a38.7 38.7 0 0 1 .3-4.8 30.6 30.6 0 0 1 1-5.1v-.2a36.2 36.2 0 0 1 1.3-3.5c.5-.9 1-1.8 1.6-2.7" fill="none" stroke="#000" stroke-linecap="round" stroke-linejoin="round" stroke-width=".4"/>
  <path d="M48 107s-2.3 2.5-8.3 1.8-5.7-.9-7.3 1.3a18.6 18.6 0 0 1 6.7.4c3.3 1 8.7.7 8.9-3.5z" fill="#ff2d0e"/>
  <path d="M48.1 106.9s-2.4 2.6-8.4 1.9-5.7-.9-7.3 1.3a18.6 18.6 0 0 1 6.7.4c3.3 1 8.8.6 9-3.6z" fill="none" stroke="#000" stroke-linecap="round" stroke-linejoin="round" stroke-width=".4"/>
  <path d="M22.4 118s4.9-2.5 8.2-1.5 1.9 4 .6 4.8a18.3 18.3 0 0 1-13.9 2.1c-.2 0 .3-2.7 5.1-5.4z" fill="#325723"/>
  <path d="M19.4 123.7a4.8 4.8 0 0 1-2.1-.3c-.2 0 .3-2.7 5.1-5.4a15.8 15.8 0 0 1 7.9-1.6s-9.1 7.5-10.9 7.3z" fill="#0d3a12"/>
  <path d="M22.4 118s4.9-2.5 8.2-1.5 1.9 4 .6 4.8a18.3 18.3 0 0 1-13.9 2.1c-.2 0 .3-2.7 5.1-5.4zm33.3-30.8a10.3 10.3 0 0 1 4 5.8 17.2 17.2 0 0 0 3.2 7.1m-23.3-1S37.7 86.8 27.2 88c-6.8 1.1-8 6.4-8 6.4" fill="none" stroke="#000" stroke-linecap="round" stroke-linejoin="round" stroke-width=".4"/>
  <path d="M55.6 87.7s-7.2 9-17.4 11.3a8.1 8.1 0 0 0 .2 3.7c0 .1 11.5-3.5 15.8-8.5 1.1-1.3 1.5-1.5 1.4-6.5z" fill="#ff2d0e"/>
  <path d="M55.6 87.7s-7.2 9-17.4 11.3a8.1 8.1 0 0 0 .2 3.7c0 .1 11.5-3.5 15.8-8.5 1.1-1.3 1.5-1.5 1.4-6.5z" fill="none" stroke="#000" stroke-linecap="round" stroke-linejoin="round" stroke-width=".4"/>
</svg>
