<svg xmlns="http://www.w3.org/2000/svg" viewBox="0 0 87 140">
  <rect width="87" height="140" rx="6" ry="6" fill="#fff"/>
  <path d="M24 81.5s-.6-2.7-3.8-20.8-2.5-29.9-.1-36.6 10.1-6.8 13.2-3.5 3.6 6.8 4.2 15.9-2.2 49.7-2.2 49.7l-2.1 9.1-6.3-.4z" fill="red"/>
  <path d="M36.1 73.5c.8-12.7 1.8-31.2 1.4-37-.6-9.1-1-12.5-4.2-15.9s-10.8-3.2-13.2 3.5a18.9 18.9 0 0 0-.6 1.8z" fill="#325723"/>
  <path d="M27.3 88.5c-8.5-60.7 0-70 0-70a8.1 8.1 0 0 0-7.2 5.6c-2.4 6.7-3 18.6.1 36.6S24 81.5 24 81.5l2.9 13.4z" fill="#980805"/>
  <path d="M24.1 30.8c1.1-10 3.2-12.3 3.2-12.3a8.1 8.1 0 0 0-7.2 5.6" fill="#0d3a12"/>
  <path d="M37.6 85.8s-2.5 3.3-2.8 10.9-.9 13.8-.9 16-3.1 5.3-5.8 6.9a13 13 0 0 1-5.2 1.9c-.5-.1 0-1.5.8-4.9a28.1 28.1 0 0 0 .9-11.7c-.6-5.3-.1-11.8-.3-13.7s-.9-5.8-1-6.2-2-.9-1.8-2.6 1.8-1.4 2.5-.9a4.3 4.3 0 0 1 1.1 2.2 2.3 2.3 0 0 1 1-1.3c.6-.3 1.1.6.7 1.3a4.8 4.8 0 0 0-.5 2.3c.1.6.3-.7.9-.8s.6.1.4 1.5l-.3 1.3c.2-1.4 1.4-.8 1.4-.1s-.3 1.6 0 1.7.5-1.4 1-1.5.6.2.5.8-.7 3.7.1 4.2 1.2-2.7 1.2-3.5.2-1.3.7-1.3.9 2.4.9 1.8 2.2-5.7 4.5-4.3z" fill="#325723"/>
  <path d="M27.1 114.2c-.2.2-2.7 2-4.2 7.3-.2.4 0-1.5.8-4.9a28.1 28.1 0 0 0 .9-11.7c-.6-5.3-.1-11.8-.3-13.7s-.9-5.8-1-6.2-2-.9-1.8-2.6 1.8-1.4 2.5-.9a4.3 4.3 0 0 1 1.1 2.2 2.3 2.3 0 0 1 1-1.3c.6-.3 1.1.6.7 1.3a4.8 4.8 0 0 0-.5 2.3c.1.6.3-.7.9-.8s.6.1.4 1.5l-.3 1.3c.2-1.4-.5 11.2-.2 26.2z" fill="#0d3a12"/>
  <path d="M37.6 85.8s-2.5 3.3-2.8 10.9-.9 13.8-.9 16-3.1 5.3-5.8 6.9a13 13 0 0 1-5.2 1.9c-.5-.1 0-1.5.8-4.9a28.1 28.1 0 0 0 .9-11.7c-.6-5.3-.1-11.8-.3-13.7s-.9-5.8-1-6.2-2-.9-1.8-2.6 1.8-1.4 2.5-.9a4.3 4.3 0 0 1 1.1 2.2 2.3 2.3 0 0 1 1-1.3c.6-.3 1.1.6.7 1.3a4.8 4.8 0 0 0-.5 2.3c.1.6.3-.7.9-.8s.6.1.4 1.5l-.3 1.3c.2-1.4 1.4-.8 1.4-.1s-.3 1.6 0 1.7.5-1.4 1-1.5.6.2.5.8-.7 3.7.1 4.2 1.2-2.7 1.2-3.5.2-1.3.7-1.3.9 2.4.9 1.8 2.2-5.7 4.5-4.3z" fill="none" stroke="#000" stroke-linecap="round" stroke-linejoin="round" stroke-width=".4"/>
  <path d="M33.8 113.3s-.6-2.5-3.4-1.3-6.2 4.9-7.5 9.5" fill="none" stroke="#000" stroke-linecap="round" stroke-linejoin="round" stroke-width=".4"/>
  <path d="M35.5 82.4s-1.5-6-3.6-8-3.8-2-4.3-3.6 2.3-.4 2.3-.4-5.5-2.9-5.4-4.3 2.1-.6 2.1-.6-2.2-2.1-2.1-2.8 1.5-.1 1.5-.1-2.6-3.2-2.8-4.4 1.7-1.1 3 .3-4.4-3.9-4.2-4.9 1.9-1 2.8-.2-4.3-3.2-4.4-5.1 2.4-.5 2.4-.5-3.7-5.2-3.6-7.6 2.8 1.2 2.8 1.2-3-6.1-2.8-8.3 2.4 1.4 2.4 1.4-2.2-5-1.8-6 1.8 1.7 1.8 1.7-2.2-4.8-1.3-6.5 3.1 2.4 3.8 6.2c.1 0 .1-2.4.9-3s.9 3.7.1 9.3c.3 0 .9-2.6 2.2-2.8s.3 5.9-.2 7.1 1.3-2.7 2-2.1.1 5.4-.7 7.3c0 .1 1.1-2 2.5-2.1s.2 6-.5 9.2c.1 0 1.2-2.3 2-2.5s.9 2-.7 6.7c.1.1 1.1-1.7 2-1.9s0 3.4-1 5.5c.1-.1 1.7-1.4 2.3-.9s-.6 3.6-1.8 5.6a1.8 1.8 0 0 1 1.6-.5c.8.2-.1 3.4-.6 4.6a2.7 2.7 0 0 1 1.6-1.5s1.6-1.9-.3 14.5z" fill="#fbc219"/>
  <path d="M28.8 61.6s-2.8-4.4-3-5.8 1.1-.9 1.1-.9a41.6 41.6 0 0 1-3.5-5c-.8-1.7 1.8.3 1.8.3s-3.4-5.2-3.5-6.9 1.8.9 1.8.9-1.9-6.1-1.8-6.9 1.5 1.7 1.5 1.7-1.5-6.3-.7-8 1.8 4 2.1 7.3c0 0 .3-1.2 1-1.1s.6 2.5-.1 6.9c.2 0 .7-2.2 1.4-2.4s-.1 4.8-.3 5.8.4-2.2.8-1.8.6 4.2.4 5.8c0 0 .4-1.7 1.1-1.9s.7 4.7.6 7.2c.1 0 .4-1.9.8-2.1s.7 1.5.3 5.3c1.1-1.7.5 3.8.8 3.3s1.1.6 1.1 4c.2-.6 1.1-1.5 1.1-.7a30.4 30.4 0 0 1 .3 4.6c-.1.1.7-.7 1.2-.3s.2.2.3 8.5c0 0-1.3-4.2-2.6-5.6s-2.1-1.6-2.4-2 1.7-.9 1.7-.9-4-2.2-4.1-3.2.8-.8.8-.8-1.3-1.5-1.3-2 1.2 0 1.2 0-2.8-3.2-2.5-4.5 2.6 1.2 2.6 1.2z" fill="#d09b07"/>
  <path d="M35.5 82.4s-1.5-6-3.6-8-3.8-2-4.3-3.6 2.3-.4 2.3-.4-5.5-2.9-5.4-4.3 2.1-.6 2.1-.6-2.2-2.1-2.1-2.8 1.5-.1 1.5-.1-2.6-3.2-2.8-4.4 1.7-1.1 3 .3-4.4-3.9-4.2-4.9 1.9-1 2.8-.2-4.3-3.2-4.4-5.1 2.4-.5 2.4-.5-3.7-5.2-3.6-7.6 2.8 1.2 2.8 1.2-3-6.1-2.8-8.3 2.4 1.4 2.4 1.4-2.2-5-1.8-6 1.8 1.7 1.8 1.7-2.2-4.8-1.3-6.5 3.1 2.4 3.8 6.2c.1 0 .1-2.4.9-3s.9 3.7.1 9.3c.3 0 .9-2.6 2.2-2.8s.3 5.9-.2 7.1 1.3-2.7 2-2.1.1 5.4-.7 7.3c0 .1 1.1-2 2.5-2.1s.2 6-.5 9.2c.1 0 1.2-2.3 2-2.5s.9 2-.7 6.7c.1.1 1.1-1.7 2-1.9s0 3.4-1 5.5c.1-.1 1.7-1.4 2.3-.9s-.5 3.5-1.7 5.5a2 2 0 0 1 1.7-.5c.8.2-.3 3.5-.8 4.7s1.1-1.7 1.6-1.6 1-.2-.3 14.6z" fill="none" stroke="#000" stroke-linecap="round" stroke-linejoin="round" stroke-width=".4"/>
  <path d="M22.9 32.3s2.9 20.3 7.2 30.4 5.1 13.6 5.5 18.3" fill="none" stroke="#000" stroke-linecap="round" stroke-linejoin="round" stroke-width=".4"/>
  <path d="M35.3 86.2s2.8-40.6 2.2-49.7-1-12.5-4.2-15.9-10.8-3.2-13.2 3.5-3 18.6.1 36.6S24 81.5 24 81.5m.4 17.2a9.7 9.7 0 0 1 10.1-1.5m-10.1 3.3s5.2-3.7 9.9-1.5" fill="none" stroke="#000" stroke-linecap="round" stroke-linejoin="round" stroke-width=".4"/>
  <path d="M63 81.5s.6-2.7 3.8-20.8 2.5-29.9.1-36.6-10.1-6.8-13.2-3.5-3.6 6.8-4.2 15.9 2.2 49.7 2.2 49.7l2.1 9.1 6.3-.4z" fill="red"/>
  <path d="M50.9 73.5c-.8-12.7-1.8-31.2-1.4-37 .6-9.1 1-12.5 4.2-15.9s10.8-3.2 13.2 3.5l.6 1.8z" fill="#325723"/>
  <path d="M59.7 88.5c8.5-60.7 0-70 0-70a8.1 8.1 0 0 1 7.2 5.6c2.4 6.7 3 18.6-.1 36.6S63 81.5 63 81.5l-2.9 13.4z" fill="#980805"/>
  <path d="M62.9 30.8c-1.1-10-3.2-12.3-3.2-12.3a8.1 8.1 0 0 1 7.2 5.6" fill="#0d3a12"/>
  <path d="M49.4 85.8s2.5 3.3 2.8 10.9.9 13.8.9 16 3.1 5.3 5.8 6.9a13 13 0 0 0 5.2 1.9c.5-.1 0-1.5-.8-4.9a28.1 28.1 0 0 1-.9-11.7c.6-5.3.1-11.8.3-13.7s.9-5.8 1-6.2 2-.9 1.8-2.6-1.8-1.4-2.5-.9a4.3 4.3 0 0 0-1.1 2.2 2.3 2.3 0 0 0-1-1.3c-.6-.3-1.1.6-.7 1.3a4.8 4.8 0 0 1 .5 2.3c-.1.6-.3-.7-.9-.8s-.6.1-.4 1.5l.3 1.3c-.2-1.4-1.4-.8-1.4-.1s.3 1.6 0 1.7-.5-1.4-1-1.5-.6.2-.5.8.7 3.7-.1 4.2-1.2-2.7-1.2-3.5-.2-1.3-.7-1.3-.9 2.4-.9 1.8-2.2-5.7-4.5-4.3z" fill="#325723"/>
  <path d="M59.9 114.2c.2.2 2.7 2 4.2 7.3.2.4 0-1.5-.8-4.9a28.1 28.1 0 0 1-.9-11.7c.6-5.3.1-11.8.3-13.7s.9-5.8 1-6.2 2-.9 1.8-2.6-1.8-1.4-2.5-.9a4.3 4.3 0 0 0-1.1 2.2 2.3 2.3 0 0 0-1-1.3c-.6-.3-1.1.6-.7 1.3a4.8 4.8 0 0 1 .5 2.3c-.1.6-.3-.7-.9-.8s-.6.1-.4 1.5l.3 1.3c-.2-1.4.5 11.2.2 26.2z" fill="#0d3a12"/>
  <path d="M49.4 85.8s2.5 3.3 2.8 10.9.9 13.8.9 16 3.1 5.3 5.8 6.9a13 13 0 0 0 5.2 1.9c.5-.1 0-1.5-.8-4.9a28.1 28.1 0 0 1-.9-11.7c.6-5.3.1-11.8.3-13.7s.9-5.8 1-6.2 2-.9 1.8-2.6-1.8-1.4-2.5-.9a4.3 4.3 0 0 0-1.1 2.2 2.3 2.3 0 0 0-1-1.3c-.6-.3-1.1.6-.7 1.3a4.8 4.8 0 0 1 .5 2.3c-.1.6-.3-.7-.9-.8s-.6.1-.4 1.5l.3 1.3c-.2-1.4-1.4-.8-1.4-.1s.3 1.6 0 1.7-.5-1.4-1-1.5-.6.2-.5.8.7 3.7-.1 4.2-1.2-2.7-1.2-3.5-.2-1.3-.7-1.3-.9 2.4-.9 1.8-2.2-5.7-4.5-4.3z" fill="none" stroke="#000" stroke-linecap="round" stroke-linejoin="round" stroke-width=".4"/>
  <path d="M53.2 113.3s.6-2.5 3.4-1.3 6.2 4.9 7.5 9.5" fill="none" stroke="#000" stroke-linecap="round" stroke-linejoin="round" stroke-width=".4"/>
  <path d="M51.5 82.4s1.5-6 3.6-8 3.8-2 4.3-3.6-2.3-.4-2.3-.4 5.5-2.9 5.4-4.3-2.1-.6-2.1-.6 2.2-2.1 2.1-2.8-1.5-.1-1.5-.1 2.6-3.2 2.8-4.4-1.7-1.1-3 .3 4.4-3.9 4.2-4.9-1.9-1-2.8-.2 4.3-3.2 4.4-5.1-2.4-.5-2.4-.5 3.7-5.2 3.6-7.6-2.8 1.2-2.8 1.2 3-6.1 2.8-8.3-2.4 1.4-2.4 1.4 2.2-5 1.8-6-1.8 1.7-1.8 1.7 2.2-4.8 1.3-6.5-3.1 2.4-3.8 6.2c-.1 0-.1-2.4-.9-3s-.9 3.7-.1 9.3c-.3 0-.9-2.6-2.2-2.8s-.3 5.9.2 7.1-1.3-2.7-2-2.1-.1 5.4.7 7.3c0 .1-1.1-2-2.5-2.1s-.2 6 .5 9.2c-.1 0-1.2-2.3-2-2.5s-.9 2 .7 6.7c-.1.1-1.1-1.7-2-1.9s0 3.4 1 5.5c-.1-.1-1.7-1.4-2.3-.9s.6 3.6 1.8 5.6a1.8 1.8 0 0 0-1.6-.5c-.8.2.1 3.4.6 4.6a2.7 2.7 0 0 0-1.6-1.5s-1.6-1.9.3 14.5z" fill="#fbc219"/>
  <path d="M58.2 61.6s2.8-4.4 3-5.8-1.1-.9-1.1-.9a41.6 41.6 0 0 0 3.5-5c.8-1.7-1.8.3-1.8.3s3.4-5.2 3.5-6.9-1.8.9-1.8.9 1.9-6.1 1.8-6.9-1.5 1.7-1.5 1.7 1.5-6.3.7-8-1.8 4-2.1 7.3c0 0-.3-1.2-1-1.1s-.6 2.5.1 6.9c-.2 0-.7-2.2-1.4-2.4s.1 4.8.3 5.8-.4-2.2-.8-1.8-.6 4.2-.4 5.8c0 0-.4-1.7-1.1-1.9s-.7 4.7-.6 7.2c-.1 0-.4-1.9-.8-2.1s-.7 1.5-.3 5.3c-1.1-1.7-.5 3.8-.8 3.3s-1.1.6-1.1 4c-.2-.6-1.1-1.5-1.1-.7a30.4 30.4 0 0 0-.3 4.6c.1.1-.7-.7-1.2-.3s-.2.2-.3 8.5c0 0 1.3-4.2 2.6-5.6s2.1-1.6 2.4-2-1.7-.9-1.7-.9 4-2.2 4.1-3.2-.8-.8-.8-.8 1.3-1.5 1.3-2-1.2 0-1.2 0 2.8-3.2 2.5-4.5-2.6 1.2-2.6 1.2z" fill="#d09b07"/>
  <path d="M51.5 82.4s1.5-6 3.6-8 3.8-2 4.3-3.6-2.3-.4-2.3-.4 5.5-2.9 5.4-4.3-2.1-.6-2.1-.6 2.2-2.1 2.1-2.8-1.5-.1-1.5-.1 2.6-3.2 2.8-4.4-1.7-1.1-3 .3 4.4-3.9 4.2-4.9-1.9-1-2.8-.2 4.3-3.2 4.4-5.1-2.4-.5-2.4-.5 3.7-5.2 3.6-7.6-2.8 1.2-2.8 1.2 3-6.1 2.8-8.3-2.4 1.4-2.4 1.4 2.2-5 1.8-6-1.8 1.7-1.8 1.7 2.2-4.8 1.3-6.5-3.1 2.4-3.8 6.2c-.1 0-.1-2.4-.9-3s-.9 3.7-.1 9.3c-.3 0-.9-2.6-2.2-2.8s-.3 5.9.2 7.1-1.3-2.7-2-2.1-.1 5.4.7 7.3c0 .1-1.1-2-2.5-2.1s-.2 6 .5 9.2c-.1 0-1.2-2.3-2-2.5s-.9 2 .7 6.7c-.1.1-1.1-1.7-2-1.9s0 3.4 1 5.5c-.1-.1-1.7-1.4-2.3-.9s.5 3.5 1.7 5.5a2 2 0 0 0-1.7-.5c-.8.2.3 3.5.8 4.7s-1.1-1.7-1.6-1.6-1-.2.3 14.6z" fill="none" stroke="#000" stroke-linecap="round" stroke-linejoin="round" stroke-width=".4"/>
  <path d="M64.1 32.3s-2.9 20.3-7.2 30.4-5.1 13.6-5.5 18.3" fill="none" stroke="#000" stroke-linecap="round" stroke-linejoin="round" stroke-width=".4"/>
  <path d="M51.7 86.2s-2.8-40.6-2.2-49.7 1-12.5 4.2-15.9 10.8-3.2 13.2 3.5 3 18.6-.1 36.6S63 81.5 63 81.5m-.4 17.2a9.7 9.7 0 0 0-10.1-1.5m10.1 3.3s-5.2-3.7-9.9-1.5" fill="none" stroke="#000" stroke-linecap="round" stroke-linejoin="round" stroke-width=".4"/>
</svg>
