<svg xmlns="http://www.w3.org/2000/svg" viewBox="0 0 87 140"><defs><style>.cls-1{fill:#fff}.cls-5{fill:red}.cls-6{fill:#004da1}.cls-7{fill:#980805}.cls-8{fill:#0065b7}.cls-10{fill:#febf10}.cls-11{fill:#003aa0}.cls-14{fill:#f3bc84}.cls-17,.cls-18{fill:none;stroke:#000;stroke-linecap:round;stroke-linejoin:round}.cls-17{stroke-width:.4px}.cls-18{stroke-width:.3px}</style></defs><g id="Livello_2" data-name="Livello 2"><g id="Livello_1-2" data-name="Livello 1"><rect class="cls-1" width="87" height="140" rx="6" ry="6"/><path d="M36.3 117.06a2.01 2.01 0 0 1 .14-.3h-22.8v8.14h58.68v-8.13h-6.04l.25.25a4.8 4.8 0 0 1-3.7 4.91.76.76 0 0 1-.41-.23.21.21 0 0 1-.04-.08 5.45 5.45 0 0 1-2.15-2.32l-.1-.2-7.7-2.02a.98.98 0 0 1-1.13.8l-1.72-.06a18.13 18.13 0 0 1-2.1-.18q-.98-.25-2-.42l-.77.46-.06.02q0-.02.04-.02-1.03-.13-2-.29l-.52-.12-.04.16-.03.2q-.36.97-.92 2.22a7.75 7.75 0 0 1-1.35 2.03 3.34 3.34 0 0 1-1.56.93l-.8-.11a.13.13 0 0 1-.05-.06 3.96 3.96 0 0 1-1.06-1.27 3.32 3.32 0 0 1-.4-.96 5.65 5.65 0 0 1-.12-.7 5.14 5.14 0 0 1 .46-2.65M31.62 77.5q-.11 1.16-.2 2.39a17.2 17.2 0 0 0 2.93.74 28.38 28.38 0 0 0 8.88-.12 5.03 5.03 0 0 1 1.36.18 2.08 2.08 0 0 0 .41.08.99.99 0 0 1 .27.04 4.5 4.5 0 0 0 .59.07l.5.02a3.33 3.33 0 0 0 .51.04q.24.02.47.06h.16q1.1.02 2.24.02l1.7-.02h.29a5.84 5.84 0 0 1 .68-.04 1.62 1.62 0 0 0 .57-.02 1.38 1.38 0 0 1 .17-.06h.12a.73.73 0 0 1 .18-.02.21.21 0 0 1 .11-.03 2.05 2.05 0 0 0 .28-.06h.11a1.1 1.1 0 0 1 .3 0 .21.21 0 0 0 .15-.06q0-.02.06-.02a.9.9 0 0 0 .4-.1.37.37 0 0 1 .13-.02 2.7 2.7 0 0 0 .3-.08.13.13 0 0 1 .09-.05l.35-.12a.21.21 0 0 1 .11-.04.22.22 0 0 1 .1-.02q.1-.98.16-1.95a43.25 43.25 0 0 0-2.7-17.26h-.01l-3.69.49-.5.58-.61-.43a41.63 41.63 0 0 1-11.64-.95v-.08q-4.22 5.36-5.33 16.83m4.47-41.99a1.45 1.45 0 0 0-.25.06 8.18 8.18 0 0 1-1 .31 4.94 4.94 0 0 0-.66.2h-.1q-.04.04-.06.04l-.47.21a2.06 2.06 0 0 1-.17.12l-.4.31q-.19.2-.36.35a2.01 2.01 0 0 1-.26.22 11.76 11.76 0 0 0-1.03 1.32v.02q-.43.55-1 1.35l.24-.25a2.59 2.59 0 0 1 .43-.32 5.04 5.04 0 0 1 4.02-1 5.31 5.31 0 0 1 2.88 2.76 6.12 6.12 0 0 1 .37 2.87 13.1 13.1 0 0 1-2.61 6l.04.04a.15.15 0 0 1 .06.02v.04a.08.08 0 0 1 .06.08.15.15 0 0 1 .02.06 3.18 3.18 0 0 1-.02.35.18.18 0 0 1-.1.1l-.02.03a23.68 23.68 0 0 0 1.5 7.14 2.49 2.49 0 0 0 .16.33q4.25 1.9 10.98 1.23l.66-.76.74.59a8.63 8.63 0 0 0 3.53-.57q.6-1.9 1.05-3.76v-.04a2.05 2.05 0 0 1 .06-.28 40.07 40.07 0 0 0 1-9.98l-.06-1.15-.26-6.3-.11-.12-.28-.33a2.68 2.68 0 0 0-1.34-.8l-1.05-.37a6.93 6.93 0 0 1-3.2 3.84q-4.74 2.28-8.56-.43a6.57 6.57 0 0 1-2.99-3.96l-1.13.34-.31.1m17.04-19.49l-3.25 1.87-2.03-2.43-1.93 2.22-1.87-2.07-1.54 2.5-2.25-1.9-.93 2.48-3.03-1.62 3.03 6.54h.06a34.54 34.54 0 0 1 7.1-1.04 21.5 21.5 0 0 1 2.24 0q1.15.04 2.26.18a1.4 1.4 0 0 1 .3.04l1.84-6.77M68.7 27.14l-1.5-3.51a3.59 3.59 0 0 0-.75-.08 4.97 4.97 0 0 0-1.8.6l-.9 3.24-.3 6.51.18 6.1.99 8.94a8.32 8.32 0 0 1 .6-1.4q.26-.51.8-1.37a.11.11 0 0 1-.03-.08V46q-.14-.54-.22-1.05a4.04 4.04 0 0 1-.06-.66 6.71 6.71 0 0 1 .06-1.54 9.18 9.18 0 0 1 .31-1.39 2.54 2.54 0 0 1 .12-.37 1.66 1.66 0 0 1 .2.43 3.86 3.86 0 0 1 .25.96l.2.21a3.07 3.07 0 0 1-.07-.78 5.52 5.52 0 0 1 .18-1 5.96 5.96 0 0 1 .39-1.03 1.28 1.28 0 0 1 .12-.19 6.83 6.83 0 0 1 .48-.76 1.7 1.7 0 0 1 .26-.27 2.66 2.66 0 0 1 .12 1.03.8.8 0 0 0 .03.37 3.23 3.23 0 0 1 .12.98l-.06 1a.14.14 0 0 1 .06-.09q.02-.23.1-.74.17-1.34.23-1.66.06-.35.14-.66a1.07 1.07 0 0 0 .06-.14 5.02 5.02 0 0 1 .31-.83 1.75 1.75 0 0 1 .16-.32l-.37.1.52-4.17-.02-1.54z" fill="#325723"/><path d="M43.05 104.93l-.76.37a7.62 7.62 0 0 1-2.09.55q-.23 1.87-.39 3.7l-.1.88-.11 1.23-.06.54a15.52 15.52 0 0 0-.1 2.34 5.99 5.99 0 0 1-.1 1.1 2.7 2.7 0 0 0-.05.56.71.71 0 0 1-.18.6.22.22 0 0 0-.08.16 1.85 1.85 0 0 0-.07.55 1.54 1.54 0 0 0-.06.23q-.16.43-.3.88a.5.5 0 0 1-.05.12l-.14.44a1.79 1.79 0 0 1-.1.24 3.33 3.33 0 0 0-.13.43q-.14.56-.28 1a1.54 1.54 0 0 0-.06.23 5.31 5.31 0 0 1-.21.54 2.65 2.65 0 0 0-.21 1.02.13.13 0 0 0 .05.06l.8.11a3.34 3.34 0 0 0 1.56-.93 7.75 7.75 0 0 0 1.35-2.03q.56-1.25.92-2.23l.03-.19.04-.16.51.12q.98.16 2.01.3.06-.38.14-.73l.66.26q1.01.17 1.99.42a18.13 18.13 0 0 0 2.1.18l1.72.06a.98.98 0 0 0 1.13-.8.48.48 0 0 0-.02-.31.38.38 0 0 0-.17-.18 7.1 7.1 0 0 0-1.76-.76 22.59 22.59 0 0 1-2.44-.9q-.64-.33-1.36-.62a3.61 3.61 0 0 1-1.3-.74 2.62 2.62 0 0 1-.96-2.42l.23-1.54a10.33 10.33 0 0 1 .55-2.05 3.84 3.84 0 0 0 .23-2.08.08.08 0 0 1-.06.07l-.1.1a.37.37 0 0 1-.21.1.13.13 0 0 0-.1.04.11.11 0 0 1-.08.02q-.48.04-.97.04a.2.2 0 0 1-.08-.04h-.06a.27.27 0 0 1-.13-.06l-.67-.2.12-.64z" fill="#ccc"/><path d="M37.14 105.44h-.02l.63 5.65v.14q-.14 1.27-.33 2.46-.12.56-.32 1.22a18.22 18.22 0 0 1-.66 1.86 2.01 2.01 0 0 0-.14.29 5.14 5.14 0 0 0-.46 2.65 5.65 5.65 0 0 0 .11.7 3.32 3.32 0 0 0 .41.96 3.96 3.96 0 0 0 1.06 1.27 2.65 2.65 0 0 1 .21-1.02 5.31 5.31 0 0 0 .21-.54 1.54 1.54 0 0 1 .06-.24q.14-.43.28-1a3.33 3.33 0 0 1 .13-.42 1.79 1.79 0 0 0 .1-.23l.14-.45a.5.5 0 0 0 .06-.12q.13-.45.29-.88a1.54 1.54 0 0 1 .06-.23 1.85 1.85 0 0 1 .07-.55.22.22 0 0 1 .08-.15.71.71 0 0 0 .18-.6 2.7 2.7 0 0 1 .06-.57 5.99 5.99 0 0 0 .1-1.1 15.52 15.52 0 0 1 .1-2.34l.05-.54.12-1.23.1-.88q.15-1.83.38-3.7a7.1 7.1 0 0 1-3.06-.41z" fill="#efeaf0"/><path class="cls-5" d="M62.38 84.28l.1-.98-.34.37-.8.72a4.32 4.32 0 0 0-.72.75 1.53 1.53 0 0 0-.25.74 4.96 4.96 0 0 0 .04.85q.08.14.21.45 1.17 5.56-1.28 15.21-1.2 9.42 0 14.38a9.67 9.67 0 0 0 .8 2.34l.1.2a5.45 5.45 0 0 0 2.14 2.31.21.21 0 0 0 .04.08.76.76 0 0 0 .4.23 4.8 4.8 0 0 0 3.71-4.91l-.25-.25-4.43-4.27q-2.85-2.89-1.23-12.06a57.27 57.27 0 0 0 1-7.27q.06-2.28.1-2.55l.01-.38a4.74 4.74 0 0 1 .06-.74q.06-.46.16-.95l.08-.68.11-1.06a5.12 5.12 0 0 1 .08-.64l.1-1.1.06-.8"/><path class="cls-6" d="M62.6 119.3a.7.7 0 0 0 .05-.17q1.35-1.86 2.77-1.7.45 1.6-1.97 3.24l-.86-1.37"/><path class="cls-5" d="M25.48 76.61q.68 3.36-.17 3.65l-.79 16.77a12.18 12.18 0 0 0 3.83 5.62v-25.3a5.1 5.1 0 0 1-.35.43q-.86.1-.24-4.03-1.48.3-2.28 2.86"/><path class="cls-6" d="M55.32 43.54l.06 1.15q4.17 6.06 2.88 8.38a6.24 6.24 0 0 1 2.89 1.14l.15.23a11.47 11.47 0 0 0-1.8-5.68L56.85 41a2.94 2.94 0 0 0-.18-.45 11.6 11.6 0 0 0-.82-1.97 9.18 9.18 0 0 0-.8-1.34l.26 6.3m-17.04.52a6.12 6.12 0 0 0-.37-2.86q-3.06 6.65-7.33.86a1.21 1.21 0 0 1-.16-1.06 11.28 11.28 0 0 1 .59-1.56 2.59 2.59 0 0 0-.43.32l-.23.25a8.25 8.25 0 0 0-1.97 7.94 1.82 1.82 0 0 1-.32.07.3.3 0 0 0-.11.08h-.02a.06.06 0 0 1-.04.06.45.45 0 0 0-.06.23v.43a.06.06 0 0 1 .04.06q.02.08.14.12l.02.02a.3.3 0 0 0 .15.06.08.08 0 0 1 .06-.02.15.15 0 0 0 .16-.1h.05a.7.7 0 0 0 .18-.06 1.7 1.7 0 0 0 .35-.08.43.43 0 0 1 .2-.04.15.15 0 0 0 .05-.02h.14a.08.08 0 0 0 .06-.01 1.2 1.2 0 0 0 .3-.04.15.15 0 0 0 .05-.02h.25a.48.48 0 0 0 .18-.04h.21a3.72 3.72 0 0 1 .53.04h.16a.9.9 0 0 0 .17.02 10.6 10.6 0 0 1 1.1.17.08.08 0 0 0 .05.02 1.8 1.8 0 0 0 .22.06l.37.12a.13.13 0 0 0 .1.04.08.08 0 0 0 .05.02l.37.17.26.12a.48.48 0 0 1 .33.25.15.15 0 0 0 .06.02 1.9 1.9 0 0 0 .27.23q.02 0 .04.06a.25.25 0 0 0 .16.12l.02.02q.11.16.23.3a.08.08 0 0 1 .02.05 2.05 2.05 0 0 1 .12.18.64.64 0 0 0 .1.07.3.3 0 0 0 .07.12h.06l.02.02a.86.86 0 0 0 .27.04q.02 0 .02-.04a.08.08 0 0 0 .08-.06l.04-.02.02-.04a.18.18 0 0 0 .1-.1 3.18 3.18 0 0 0 .02-.34.15.15 0 0 0-.02-.06.08.08 0 0 0-.06-.08v-.04a.15.15 0 0 0-.06-.02l-.04-.04h-.02a1.27 1.27 0 0 1-.12-.14.34.34 0 0 1 .14.14 13.1 13.1 0 0 0 2.61-6z"/><path class="cls-7" d="M62.65 119.13a.7.7 0 0 1-.06.17l.86 1.37q2.42-1.64 1.97-3.24-1.42-.16-2.77 1.7"/><path class="cls-5" d="M59.55 60.97l-.23-.2.11 21.67v1.58a2.6 2.6 0 0 0 .06.82 3.82 3.82 0 0 0 .33.96 9.22 9.22 0 0 0 .59.93 4.96 4.96 0 0 1-.04-.85 1.53 1.53 0 0 1 .25-.74 4.32 4.32 0 0 1 .72-.75l.8-.72.33-.37.79-.86a5.99 5.99 0 0 0 1.48-2.67l-2.28-16.2-2.91-2.6"/><path class="cls-8" d="M54.4 54.85l.06-.06a4.44 4.44 0 0 1 3.8-1.72q1.29-2.32-2.88-8.38a40.07 40.07 0 0 1-1 9.98 2.05 2.05 0 0 0-.06.28.19.19 0 0 0 .08-.1"/><path class="cls-5" d="M48.9 33.32l-.2-.3-.23.22.24.31a4.35 4.35 0 0 0 .93.96 7.18 7.18 0 0 0 .63.37 5.31 5.31 0 0 0 .54.21 4.46 4.46 0 0 1 .43.16q.5.16 1.04.37l1.05.37a2.68 2.68 0 0 1 1.34.8l.28.33.11.12a9.18 9.18 0 0 1 .8 1.35q.35-.24.43-1.12a2.75 2.75 0 0 0-.68-1.89 6.43 6.43 0 0 0-2.03-1.68 12.04 12.04 0 0 0-2.05-.91c-.74-.3-1.47.23-2.31.24"/><path class="cls-8" d="M37.9 41.2a5.31 5.31 0 0 0-2.88-2.75 5.04 5.04 0 0 0-4.02 1 11.28 11.28 0 0 0-.6 1.55 1.21 1.21 0 0 0 .16 1.06q4.27 5.79 7.33-.86"/><path class="cls-5" d="M41.74 32.8l.12-.46a8.93 8.93 0 0 0-1.89.53 8.98 8.98 0 0 1-1.54.35 4.2 4.2 0 0 0-2.5.86 6.1 6.1 0 0 0-1.75 1.99 4.94 4.94 0 0 1 .66-.2 8.18 8.18 0 0 0 1-.3 1.45 1.45 0 0 1 .25-.07l.31-.1 1.13-.33 1.2-.35 1.73-.56a.24.24 0 0 0 .1-.06 2.02 2.02 0 0 0 .37-.2.06.06 0 0 0 .03-.01.56.56 0 0 0 .18-.18 2.01 2.01 0 0 0 .21-.25.15.15 0 0 0 .02-.06q.02 0 .06-.04v-.06a2.4 2.4 0 0 0 .31-.5z"/><path d="M37.1 83.28q1.27-.29 2.6-.56a3.6 3.6 0 0 1 2.43 1.07 39.79 39.79 0 0 1-.15 4.66 70.63 70.63 0 0 0 .12 15.37q.07.74.2 1.48l.75-.37.04-.02-.12.64.67.2a.27.27 0 0 0 .13.06h.06a.2.2 0 0 0 .08.04q.49 0 .97-.04a.11.11 0 0 0 .08-.02.13.13 0 0 1 .1-.04.37.37 0 0 0 .21-.1l.1-.1a.08.08 0 0 0 .06-.07v-.12a.35.35 0 0 0-.12-.18 39.98 39.98 0 0 0 1.88-10.3A39.95 39.95 0 0 0 51.44 81l-1.7.02q-1.13 0-2.24-.02h-.16q-.23-.04-.47-.06a3.33 3.33 0 0 1-.5-.04q-.26 0-.51-.02a4.5 4.5 0 0 1-.59-.07.99.99 0 0 0-.27-.04 2.08 2.08 0 0 1-.4-.08 5.03 5.03 0 0 0-1.37-.18 28.38 28.38 0 0 1-8.88.12q-.27 3.35 1.66 8.78a27.37 27.37 0 0 1 1.11 4.72l-.02-10.85M54.46 54.8l-.06.06q-.84 3.28 4.78 5.81l.14.12.23.2 1.23.03-.84-1.27h1.29q-.45-.17-.88-.37a13.3 13.3 0 0 1-5.89-4.58M30.04 66.2l.06 1.43a19.04 19.04 0 0 0 .68-2.84l4.35-14.05a.64.64 0 0 1-.1-.07 2.05 2.05 0 0 0-.11-.18.08.08 0 0 0-.02-.06q-.12-.13-.23-.29l-.02-.02a.25.25 0 0 1-.16-.12q-.02-.06-.04-.06a1.9 1.9 0 0 1-.27-.23.15.15 0 0 1-.06-.02.48.48 0 0 0-.33-.25l-.26-.12-.37-.17a.08.08 0 0 1-.05-.02.13.13 0 0 1-.1-.04L28.19 65.6l.43 1.9z" fill="#d09b07"/><path class="cls-10" d="M39.7 82.72q-1.33.27-2.6.56l.02 10.85.06.44a21.89 21.89 0 0 1 .14 2.42l-.06.72a19.88 19.88 0 0 0-.12 7.73 7.1 7.1 0 0 0 3.06.4 7.62 7.62 0 0 0 2.1-.54q-.13-.74-.2-1.48a70.63 70.63 0 0 1-.12-15.37 39.79 39.79 0 0 0 .15-4.66 3.6 3.6 0 0 0-2.43-1.07"/><path class="cls-11" d="M36.95 60.66v.08a41.63 41.63 0 0 0 11.64.95l-1.19-1.1.94-1.1q-6.73.66-10.98-1.23a2.49 2.49 0 0 1-.16-.33 4.2 4.2 0 0 0-.25 2.73m16.44.39l.06-2.38a.43.43 0 0 0-.18.08 8.63 8.63 0 0 1-3.53.57l1.05.99-1.09 1.23 3.69-.49"/><path class="cls-10" d="M62.7 56.39l-1.4-1.95-.15-.23a6.24 6.24 0 0 0-2.89-1.14 4.44 4.44 0 0 0-3.8 1.72 13.3 13.3 0 0 0 5.89 4.58q.43.2.88.37h.62a2.9 2.9 0 0 1-.74-1.65 3.1 3.1 0 0 1 1.68.68l-.08-2.38M31.27 48.7a.9.9 0 0 1-.17-.01h-.16a3.72 3.72 0 0 0-.53-.04h-.21a.48.48 0 0 1-.18.04h-.25a.15.15 0 0 1-.06.02 1.2 1.2 0 0 1-.29.04.08.08 0 0 1-.06.01h-.14a.15.15 0 0 1-.05.02.43.43 0 0 0-.2.04 1.7 1.7 0 0 1-.35.08.7.7 0 0 1-.18.06h-.05a.15.15 0 0 1-.16.1.08.08 0 0 0-.06.02 36.33 36.33 0 0 0-2.03 6.84.52.52 0 0 0-.04.2 23.85 23.85 0 0 0-.39 5.52v.07l-.25.86a18.44 18.44 0 0 0-.9 5.25l1.45-2.28.93 1.71 1.23-1.71.02.05 4.82-16.51-.37-.12a1.8 1.8 0 0 1-.22-.06.08.08 0 0 1-.06-.02 10.6 10.6 0 0 0-1.09-.17m36.61 1.89q0 .02-.04.02a5.33 5.33 0 0 0-1.25.97 8.38 8.38 0 0 0-.86 1.02 15.58 15.58 0 0 0-.7 1.63 5.7 5.7 0 0 1-.33.63l.15.72q.5-.27.7-.4a1.87 1.87 0 0 0 .5-.24 2.5 2.5 0 0 0 .46-.22l.47-.43a3.75 3.75 0 0 0 .7-.85 4.84 4.84 0 0 0 .33-.63 5.12 5.12 0 0 0 .35-1.7v-.01a5.1 5.1 0 0 0-.05-.94 2.23 2.23 0 0 1-.43.43m1.6-13.1a1.75 1.75 0 0 0-.16.3 5.02 5.02 0 0 0-.31.84 1.07 1.07 0 0 1-.06.14q-.08.31-.14.66-.06.32-.23 1.66-.08.5-.1.74a.14.14 0 0 0-.06.1l.06-1.01a3.23 3.23 0 0 0-.12-.98.8.8 0 0 1-.03-.37 2.66 2.66 0 0 0-.12-1.03 1.7 1.7 0 0 0-.25.27 6.83 6.83 0 0 0-.5.76 1.28 1.28 0 0 0-.1.2 5.96 5.96 0 0 0-.4 1.03 5.52 5.52 0 0 0-.18 1 3.07 3.07 0 0 0 .06.77l-.2-.21a3.86 3.86 0 0 0-.25-.96 1.66 1.66 0 0 0-.19-.43 2.54 2.54 0 0 0-.12.37 9.18 9.18 0 0 0-.3 1.39 6.71 6.71 0 0 0-.07 1.54 4.04 4.04 0 0 0 .06.66q.08.51.22 1.06v.1a.11.11 0 0 0 .03.07q-.54.86-.8 1.37a8.32 8.32 0 0 0-.6 1.4 8.57 8.57 0 0 0-.33 3.7l.31 1.55a5.44 5.44 0 0 1 .45-1l.43-.84a3.23 3.23 0 0 0 .43-1.01 5.94 5.94 0 0 0 .17-1.05 1.42 1.42 0 0 1 .02-.24q1.25-.84 1.62-1.11a2.85 2.85 0 0 1 .3-.2 4.41 4.41 0 0 1 .54-.42 4.53 4.53 0 0 0 .62-.69 8 8 0 0 0 .57-.9 4.34 4.34 0 0 0 .43-.99 4.46 4.46 0 0 1 .15-.43 4.52 4.52 0 0 1 .14-.45l.12-.37a2.94 2.94 0 0 1-1.23.51 4.13 4.13 0 0 0 .5-.86q.18-.3.32-.6l.12-.26a4.22 4.22 0 0 0 .25-.87l.21-.98.08-.29q-.37.27-.68.53l-.55.3-.35.24-.88.74a2.07 2.07 0 0 1-.02-.23l.2-.23.02-.14.47-.66a4.14 4.14 0 0 0 .39-.55q.23-.37.43-.74l.4-.7.16-.35a2.85 2.85 0 0 1 .16-.43l.27-.7q.12-.38.21-.73a.7.7 0 0 1 .06-.2l.08-.5.12-1.03.2-.37-.83.56a3.33 3.33 0 0 0-.48.47 2.76 2.76 0 0 0-.43.5q-.18.3-.31.57"/><path class="cls-10" d="M66.24 46.74l-.16-.4a2.83 2.83 0 0 1 .2.47.31.31 0 0 0-.04-.07z"/><path d="M49 58.73l-.66.76-.94 1.09 1.19 1.11.6.43.51-.58 1.09-1.23-1.05-1-.74-.58M38.72 34.72l-1.19.35a6.57 6.57 0 0 0 2.99 3.96q3.82 2.71 8.56.43a6.93 6.93 0 0 0 3.2-3.84q-.53-.21-1.04-.37a7.15 7.15 0 0 1-2.63 2.79 6.87 6.87 0 0 1-9.89-3.32" fill="#fbc219"/><path d="M67.1 62.8l-1.08.16v3.41l.02 1.08v.54q.04.92.16 1.88l.02.7a4.78 4.78 0 0 0 .06.7q.11.97.13 1.97a2.17 2.17 0 0 0 .06.49v.11l.14.45a2.4 2.4 0 0 0 .58.8 1.16 1.16 0 0 0 .22.18 10.42 10.42 0 0 0 .35-1.29 21.73 21.73 0 0 0 .25-7.16.7.7 0 0 0-.06-.2.06.06 0 0 1 .04-.05 24.34 24.34 0 0 0-.9-3.76m.59-9.36a3.75 3.75 0 0 1-.7.85l-.47.43a2.5 2.5 0 0 1-.47.22 1.87 1.87 0 0 1-.48.23l-.7.41a.28.28 0 0 1-.08.06l.07-.04v.04q.43 2.42.7 4.76a1.52 1.52 0 0 0 .9.2q.26-.03.53-.03a.79.79 0 0 1 .35 0q.12-.7.2-1.38a61.63 61.63 0 0 0 .48-6.38 4.84 4.84 0 0 1-.33.63m.33-4.7a2.85 2.85 0 0 0-.29.19q-.37.27-1.62 1.11a1.42 1.42 0 0 0-.02.24 5.94 5.94 0 0 1-.17 1.05 3.23 3.23 0 0 1-.43 1.01l-.43.84a5.44 5.44 0 0 0-.45 1l.1.68a5.7 5.7 0 0 0 .33-.63 15.58 15.58 0 0 1 .7-1.63 8.38 8.38 0 0 1 .86-1.02 5.33 5.33 0 0 1 1.25-.97q.04 0 .04-.02z" fill="#d41111"/><path class="cls-7" d="M54.4 54.85a.19.19 0 0 1-.08.1v.04q-.45 1.87-1.05 3.76a.43.43 0 0 1 .18-.08l-.06 2.38h.02a43.25 43.25 0 0 1 2.69 17.26q-.06.97-.16 1.95a.22.22 0 0 0-.1.02.21.21 0 0 0-.11.04l-.35.12a.13.13 0 0 0-.08.05 2.7 2.7 0 0 1-.31.08.37.37 0 0 0-.12.02.9.9 0 0 1-.41.1q-.06 0-.06.02a.21.21 0 0 1-.15.06 1.1 1.1 0 0 0-.3 0h-.11a2.05 2.05 0 0 1-.28.06.21.21 0 0 0-.11.03.73.73 0 0 0-.18.02h-.12a1.38 1.38 0 0 0-.17.06 1.62 1.62 0 0 1-.57.02 5.84 5.84 0 0 0-.68.04h-.3a39.95 39.95 0 0 1-4.23 13.9 39.98 39.98 0 0 1-1.88 10.3.35.35 0 0 1 .12.17v.12a3.84 3.84 0 0 1-.23 2.08 10.33 10.33 0 0 0-.55 2.05q-.14.82-.23 1.54a2.62 2.62 0 0 0 .95 2.42 3.61 3.61 0 0 0 1.3.74q.73.3 1.37.62a22.59 22.59 0 0 0 2.44.9 7.1 7.1 0 0 1 1.76.76.38.38 0 0 1 .17.18.48.48 0 0 1 .02.3l7.7 2.04a9.67 9.67 0 0 1-.8-2.34q-1.18-4.96 0-14.38 2.46-9.65 1.3-15.2-.14-.32-.22-.46a9.22 9.22 0 0 1-.59-.93 3.82 3.82 0 0 1-.33-.96 2.6 2.6 0 0 1-.06-.82v-1.58l-.11-21.66-.14-.12q-5.62-2.53-4.78-5.81M29.03 70.14q-.31.5-.66 1h.23l.02.01q1.27 4-.27 6.2v21.09l2.61 3.08.04.02.39.5a8.12 8.12 0 0 1 1.62 2.77l.66 1.8a5.87 5.87 0 0 0 1.78 2.55q1.13 1.02 2.3 1.93l-.63-5.65h.02a19.88 19.88 0 0 1 .12-7.73l.06-.72a21.89 21.89 0 0 0-.14-2.42l-.06-.44a27.37 27.37 0 0 0-1.1-4.72q-1.94-5.43-1.67-8.78a17.2 17.2 0 0 1-2.92-.74q.08-1.23.2-2.4 1.1-11.47 5.32-16.83a4.2 4.2 0 0 1 .25-2.73 23.68 23.68 0 0 1-1.5-7.14l-.04.02a.08.08 0 0 1-.08.06q0 .04-.02.04a.86.86 0 0 1-.27-.04l-.02-.02h-.06a.3.3 0 0 1-.08-.12l-4.35 14.05a19.04 19.04 0 0 1-.68 2.84q-.25.74-.54 1.43-.26.56-.53 1.09m39.55-2.71l-.37-.22a1.37 1.37 0 0 1-.2-.39 21.73 21.73 0 0 1-.25 7.16 10.42 10.42 0 0 1-.35 1.29 1.15 1.15 0 0 0 .84.2.93.93 0 0 1 .27-.12 2.19 2.19 0 0 0 .53-.32 2.22 2.22 0 0 0 .48-1.07 7.9 7.9 0 0 0 .22-1.44 6.6 6.6 0 0 0 0-1.02q-.02-.48-.02-1.03.02-.57.06-1.11a6.48 6.48 0 0 1 .08-.74 1.7 1.7 0 0 1-.94.11.75.75 0 0 1-.66-.42.46.46 0 0 1-.06-.2 2.13 2.13 0 0 1-.02-.25l.39-.43m-1.44-4.62h-.04a24.34 24.34 0 0 1 .9 3.76.5.5 0 0 1 .38-.47 1.72 1.72 0 0 1-.27-.58 2.22 2.22 0 0 1-.04-.59l.18-.21h.45l-.14-.22a1.26 1.26 0 0 1 0-.82l.62-.11a.83.83 0 0 0-.23-.37 1.18 1.18 0 0 0-.84-.51 4.17 4.17 0 0 0-.97.12m6.1-27.56q-.18-1.42-.41-2.7l-1.3 2.84-.2.37-.12 1.03-.08.5a.7.7 0 0 0-.05.2l-.22.72-.27.7a2.85 2.85 0 0 0-.16.44l-.15.35-.41.7q-.2.37-.43.74a4.14 4.14 0 0 1-.4.55l-.46.66-.02.14-.2.23a2.07 2.07 0 0 0 .02.23l.88-.74.35-.23.55-.31q.31-.26.68-.53l-.08.3-.21.97a4.22 4.22 0 0 1-.25.87l-.12.26q-.14.3-.31.6a4.13 4.13 0 0 1-.51.86 2.94 2.94 0 0 0 1.23-.5l-.12.36a4.52 4.52 0 0 0-.14.45 4.46 4.46 0 0 0-.15.43 4.34 4.34 0 0 1-.43 1 8 8 0 0 1-.57.9 4.53 4.53 0 0 1-.62.68 4.41 4.41 0 0 0-.55.43l-.13 1.85a2.23 2.23 0 0 0 .43-.43 5.1 5.1 0 0 1 .05.94v.01a5.12 5.12 0 0 1-.35 1.7 61.63 61.63 0 0 1-.48 6.38q-.08.68-.2 1.38a.43.43 0 0 1 .14.02.45.45 0 0 0 .15.04.55.55 0 0 1 .28.08 1.37 1.37 0 0 1 .3.08 2.29 2.29 0 0 1 .54.29l.33.18a.13.13 0 0 1 .06.05l.5.45a.19.19 0 0 1 .1.08l.25.37a.3.3 0 0 1 .08.16 1.42 1.42 0 0 1 .16.45l.13-1.6a30.54 30.54 0 0 1-.07-5.58l.11-1.07q.04-.57.1-1.12.06-.56.16-1.1a3.42 3.42 0 0 0 .07-.53v-.04a4.53 4.53 0 0 0 .08-.57l.12-.56a.06.06 0 0 1 .04-.06 3.42 3.42 0 0 1 .08-.53l.11-.56.14-.6q.1-.28.18-.57l.11-.63q.08-.31.18-.6.11-.49.25-.94.18-.56.3-1.05.03-.31.1-.6l.09-.46a9.03 9.03 0 0 1 .17-1.03.32.32 0 0 1 .02-.08 5.14 5.14 0 0 1 .08-.6q.06-.31.1-.63l.12-.66.05-.56q.04-.32.1-.6.04-.28.06-.57l.06-.6a.99.99 0 0 1 .04-.28q0-.43.02-.84.04-.55.04-1.05v-.14a3.72 3.72 0 0 0-.04-.53 5.78 5.78 0 0 1-.08-.64z"/><path class="cls-14" d="M28.62 71.15l-.02-.02h-.23a5.3 5.3 0 0 0-3.44.2 18.94 18.94 0 0 0-1.24 5.79 6.4 6.4 0 0 0 1.54 3.14h.07q.86-.3.18-3.65.8-2.55 2.28-2.86-.62 4.13.24 4.03a5.1 5.1 0 0 0 .35-.43q1.54-2.2.27-6.2m20.46-47.91l-.04-.04-.31-.63a21.5 21.5 0 0 0-2.25 0q-5.28 2.9-3.88 6.8l-.68 2.76-.06.21-.12.45a2.4 2.4 0 0 1-.3.51v.06l-.07.04a.15.15 0 0 1-.02.06 2.01 2.01 0 0 1-.21.25.56.56 0 0 1-.18.18.06.06 0 0 1-.03.01 4.6 4.6 0 0 0 4.62 2.97q3.3-.37 4.1-2.36a4.35 4.35 0 0 1-.94-.96l-.19-.22.37-.33.11-.38.13-.46a.6.6 0 0 1 .44-.17 1.27 1.27 0 0 1 .19-.3.73.73 0 0 1-.3.05h-.56q-.02 0-.06-.04a1.93 1.93 0 0 1-.27-.02h-.04a.19.19 0 0 1-.14-.06.21.21 0 0 1-.11-.04.74.74 0 0 1-.35-.21l-.02-.04a.12.12 0 0 1-.08-.08.06.06 0 0 0-.04-.06.49.49 0 0 1-.12-.2v.09a.13.13 0 0 1-.06.06.08.08 0 0 1-.01.05.58.58 0 0 1-.06.08l-.32.3a1.25 1.25 0 0 1-.4.25.21.21 0 0 1-.12.04 1.08 1.08 0 0 1-.27.07.19.19 0 0 0-.14.04 3.86 3.86 0 0 1-.96-.1 1.07 1.07 0 0 1-.13-.05l-.3-.14a1.27 1.27 0 0 0-.13-.12 1.93 1.93 0 0 1-.37-.29.15.15 0 0 0-.02-.06q-.04 0-.04-.02a3.72 3.72 0 0 1-.31-.54 2.04 2.04 0 0 1-.12-.33.06.06 0 0 1 .04.05l.02.02h.06a1.28 1.28 0 0 0 .2.12l.03.02a.08.08 0 0 1 .08.04.52.52 0 0 0 .17.12l.02.02h.9a.21.21 0 0 1 .16-.06.08.08 0 0 0 .06-.02 2.86 2.86 0 0 1 .27-.12 3.25 3.25 0 0 1 .31-.14l.43-.29a.02.02 0 0 0 .02-.02.9.9 0 0 1 .49-.39q0-.2.07-.21a.11.11 0 0 0 .1-.06q.02 0 .02-.04h.06a.43.43 0 0 1 .14-.02.39.39 0 0 1 .23.06.06.06 0 0 1 .04.06.06.06 0 0 1 .04.02.68.68 0 0 0 .17.11.5.5 0 0 0 .12.06h.04a.02.02 0 0 0 .02.02q.02.04.06 0h.02a.39.39 0 0 1 .23.06 2.49 2.49 0 0 1 .31.33l.32.37a.47.47 0 0 0 .23.1 1.54 1.54 0 0 0 .23.06.06.06 0 0 0 .06.04 1.9 1.9 0 0 0 .37-.05 5.4 5.4 0 0 0 .57-2.86.72.72 0 0 1 .02-.17 3.22 3.22 0 0 1 .17-.6l.12-.5.08-1.5a.19.19 0 0 1-.14-.05l-.02-.04h-.04l-.02-.02-1.34-1.12-.04-.03-.33-.45"/><path class="cls-14" d="M46.13 25.58h.16a.39.39 0 0 1 .27.02h.04a.63.63 0 0 1 .14.43.28.28 0 0 1-.04.15.02.02 0 0 1-.02.02v.06l-.31.39h-.41a.46.46 0 0 1-.22-.08.08.08 0 0 1-.06-.02v-.06a.24.24 0 0 0-.1-.05.08.08 0 0 0-.01-.06.19.19 0 0 1-.08-.12v-.25a.15.15 0 0 0 .02-.06 1.26 1.26 0 0 0 .25-.31.13.13 0 0 1 .1-.04 1.93 1.93 0 0 0 .27-.02M67.9 60.72a.55.55 0 0 0-.28-.08.45.45 0 0 1-.15-.04.43.43 0 0 0-.14-.02.79.79 0 0 0-.35 0q-.27 0-.53.02a1.52 1.52 0 0 1-.9-.2 2.23 2.23 0 0 1-.42-.3 6.8 6.8 0 0 0-2.3 3.21 6.53 6.53 0 0 0 .56.86l.63.66a3.34 3.34 0 0 1 .35.37 4.58 4.58 0 0 0 .48.4.08.08 0 0 1 .02.05 1.63 1.63 0 0 0 .35.2 1.27 1.27 0 0 1 .14.12.15.15 0 0 0 .06.01 1.9 1.9 0 0 1 .2.12 1.22 1.22 0 0 0 .23.16h.02l.15.11v-3.4l1.08-.16h.04a4.17 4.17 0 0 1 .97-.12 1.18 1.18 0 0 1 .84.5.83.83 0 0 1 .23.38l-.62.11a1.26 1.26 0 0 0 0 .82l.14.22h-.45l-.18.21a2.22 2.22 0 0 0 .04.59 1.72 1.72 0 0 0 .27.58.5.5 0 0 0-.39.47.06.06 0 0 0-.04.06.7.7 0 0 1 .06.2 1.37 1.37 0 0 0 .2.38l.37.22-.4.43a2.13 2.13 0 0 0 .03.25.46.46 0 0 0 .06.2.75.75 0 0 0 .66.42 1.7 1.7 0 0 0 .94-.11l.23-.12a1 1 0 0 0 .49-.82 1.53 1.53 0 0 0 .76-.56.89.89 0 0 0 .15-.96 1.27 1.27 0 0 0 .53-.8 1.04 1.04 0 0 0-.08-.74 2.21 2.21 0 0 0 .2-.59 2.41 2.41 0 0 0-.06-.91 1.99 1.99 0 0 0-.37-.74 1.2 1.2 0 0 0-.33-.3.13.13 0 0 1-.06-.05l-.63-.5a.37.37 0 0 1-.17-.19 2.06 2.06 0 0 1-.18-.11l-.13 1.6a1.42 1.42 0 0 0-.16-.45.3.3 0 0 0-.08-.16l-.25-.37a.19.19 0 0 0-.1-.08l-.5-.45a.13.13 0 0 0-.06-.05l-.33-.18a2.29 2.29 0 0 0-.53-.3 1.37 1.37 0 0 0-.31-.07z"/><path class="cls-1" d="M28.2 65.6l-.03-.06-1.23 1.71-.93-1.71-1.45 2.28q0 .54.04 1.05a8.5 8.5 0 0 0 .12 1.17 8.31 8.31 0 0 0 .21 1.29 5.3 5.3 0 0 1 3.44-.2q.35-.48.66-1 .27-.52.53-1.08.29-.69.54-1.43l-.06-1.42-1.42 1.29-.43-1.9M40.56 34.1a.24.24 0 0 1-.1.06l-1.74.56a6.87 6.87 0 0 0 9.89 3.32 7.15 7.15 0 0 0 2.63-2.79 4.46 4.46 0 0 0-.43-.16 5.31 5.31 0 0 1-.54-.21 7.18 7.18 0 0 1-.63-.37q-.8 1.99-4.1 2.36a4.6 4.6 0 0 1-4.61-2.97 2.02 2.02 0 0 1-.37.2m24.57 26l.17-.18-2.6-3.53.09 2.38a3.1 3.1 0 0 0-1.68-.68 2.9 2.9 0 0 0 .74 1.65h-1.91l.84 1.27-1.23-.04 2.87 2.4.33.26a1.1 1.1 0 0 1 .08-.32 6.8 6.8 0 0 1 2.3-3.21z"/><path class="cls-11" d="M24.43 69s3.63-1 5.08.13c-.05.05-.48 1-.48 1s-3.15-.85-4.31-.09a9.54 9.54 0 0 1-.29-1.04zm39.91-10.15s-2.28 2.01-2.78 3.74a4.23 4.23 0 0 0 .37.44l.33.3s-.11 0 .22-.82a8.3 8.3 0 0 1 2.36-3.11 5.96 5.96 0 0 0-.5-.55z"/><path d="M47.34 29.4a.11.11 0 0 1-.1.06q-.07.02-.07.21a.9.9 0 0 0-.5.4.02.02 0 0 1-.01.01q-.22.14-.43.3a3.25 3.25 0 0 0-.31.13 2.86 2.86 0 0 0-.27.12.08.08 0 0 1-.06.02.21.21 0 0 0-.16.06h-.9l-.02-.02a.52.52 0 0 1-.17-.12.08.08 0 0 0-.08-.04l-.04-.02a1.28 1.28 0 0 1-.2-.12h-.05l-.02-.02a.06.06 0 0 0-.04-.05 2.04 2.04 0 0 0 .12.33 3.72 3.72 0 0 0 .3.54q0 .02.05.02a.15.15 0 0 1 .02.06 1.93 1.93 0 0 0 .37.3 1.27 1.27 0 0 1 .13.11l.3.14a1.07 1.07 0 0 0 .13.06 3.86 3.86 0 0 0 .96.1.19.19 0 0 1 .14-.05 1.08 1.08 0 0 0 .27-.07.21.21 0 0 0 .12-.04 1.25 1.25 0 0 0 .4-.26q.14-.11.32-.29a.58.58 0 0 0 .06-.08.08.08 0 0 0 .01-.05.13.13 0 0 0 .06-.06V31a.49.49 0 0 0 .12.2.06.06 0 0 1 .04.05.12.12 0 0 0 .08.08l.02.04a.74.74 0 0 0 .35.21.21.21 0 0 0 .11.04.19.19 0 0 0 .14.06h.04a1.93 1.93 0 0 0 .27.02q.04.04.06.04h.57a.73.73 0 0 0 .29-.06h.06a.24.24 0 0 1 .13-.04q.04 0 .04-.02a.21.21 0 0 0 .12-.04 1.94 1.94 0 0 0 .41-.25 2.55 2.55 0 0 1 .27-.16l.12-.15a.02.02 0 0 0 .02-.02 1.19 1.19 0 0 0 .14-.18.32.32 0 0 0 .05-.2q.04-.03.04-.05a1.61 1.61 0 0 0 .16-.57h-.02a.68.68 0 0 1-.14.14.9.9 0 0 1-.37.25q-.04.04-.06.04a1.08 1.08 0 0 1-.25.1.21.21 0 0 1-.12.04.37.37 0 0 1-.11.02 4.28 4.28 0 0 1-.57.04.06.06 0 0 1-.06-.04 1.54 1.54 0 0 1-.23-.06.47.47 0 0 1-.23-.1l-.32-.37a2.49 2.49 0 0 0-.3-.33.39.39 0 0 0-.24-.06h-.02q-.04.04-.06 0a.02.02 0 0 1-.02-.02h-.04a.5.5 0 0 1-.12-.06.68.68 0 0 1-.17-.11.06.06 0 0 0-.04-.02.06.06 0 0 0-.04-.06.39.39 0 0 0-.23-.06.43.43 0 0 0-.14.02h-.06q0 .04-.02.04m-.86-6.83a34.54 34.54 0 0 0-7.1 1.04q-1.89 4.64 2.54 8.52l.68-2.77q-1.4-3.9 3.88-6.79m4.5.18q-1.1-.14-2.25-.18l.3.63.05.04.33.45.04.03 1.34 1.12.02.02h.04l.02.03a.19.19 0 0 0 .14.06z" fill="#a67c52"/><path d="M63.94 51.05l.17.8.18.8a8.57 8.57 0 0 1 .33-3.71l-1-8.93-.17-6.1.3-6.52.9-3.24A6.43 6.43 0 0 0 62 27.18a8.05 8.05 0 0 0-.53 1.36q-.3.86-.53 1.85-.15.75-.25 1.55-.12.78-.17 1.56a29.01 29.01 0 0 0 .11 4.23q.1.86.24 1.73A31.86 31.86 0 0 0 62 44.08q.17.6.4 1.23a1.1 1.1 0 0 0 .12.37v.06a1.4 1.4 0 0 0 .08.3q.12.42.26.83l.23.84.23.86q.08.39.2.8.12.43.2.86l.23.82m3.25-27.42l1.5 3.5.92 4.75.02 1.54-.52 4.17.37-.1q.13-.27.3-.56a2.76 2.76 0 0 1 .44-.51 3.33 3.33 0 0 1 .48-.47l.82-.56 1.31-2.83v-.06l-.27-1.3a21.53 21.53 0 0 0-.96-3.15 11.25 11.25 0 0 0-.74-1.48 5.47 5.47 0 0 0-3.67-2.94z" fill="#0d3a12"/><path class="cls-17" d="M64.85 55.69l-.15-.72-.1-.69-.12-.54-.2-1-.17-.8-.17-.8-.24-.81q-.07-.43-.2-.86l-.19-.8-.23-.86-.23-.84q-.14-.4-.26-.84a1.4 1.4 0 0 1-.08-.29v-.06a1.1 1.1 0 0 1-.11-.37q-.24-.62-.41-1.23a31.86 31.86 0 0 1-1.13-4.62q-.14-.88-.24-1.74a29.01 29.01 0 0 1-.11-4.23q.05-.78.17-1.56.1-.8.25-1.54.24-1 .53-1.85a8.05 8.05 0 0 1 .53-1.37 6.43 6.43 0 0 1 2.67-3.02 4.97 4.97 0 0 1 1.8-.6 3.59 3.59 0 0 1 .73.07 5.47 5.47 0 0 1 3.67 2.95 11.25 11.25 0 0 1 .74 1.48 21.52 21.52 0 0 1 .96 3.14l.27 1.3v.07q.23 1.26.41 2.69a5.78 5.78 0 0 0 .08.64 3.72 3.72 0 0 1 .04.53v.13q0 .51-.04 1.06-.02.4-.02.84a.99.99 0 0 0-.04.27l-.06.6q-.02.3-.06.57l-.1.6-.05.57-.12.66-.1.63a5.14 5.14 0 0 0-.08.6.32.32 0 0 0-.02.08 9.02 9.02 0 0 0-.17 1.03l-.1.45-.1.6q-.11.5-.29 1.06-.14.45-.25.93l-.18.6-.11.63q-.08.3-.18.57l-.14.6-.11.57a3.42 3.42 0 0 0-.08.53.06.06 0 0 0-.04.05l-.12.57a4.53 4.53 0 0 1-.08.57v.03a3.42 3.42 0 0 1-.07.53q-.1.55-.16 1.11-.06.55-.1 1.11l-.11 1.08a30.54 30.54 0 0 0 .07 5.57 2.05 2.05 0 0 0 .18.12.37.37 0 0 0 .17.2l.63.48a.13.13 0 0 0 .06.06 1.2 1.2 0 0 1 .33.3 1.99 1.99 0 0 1 .37.74 2.41 2.41 0 0 1 .06.91 2.21 2.21 0 0 1-.2.59 1.04 1.04 0 0 1 .08.74 1.27 1.27 0 0 1-.53.8.89.89 0 0 1-.15.95 1.53 1.53 0 0 1-.76.57 1 1 0 0 1-.49.82l-.23.11a6.48 6.48 0 0 0-.08.75q-.04.54-.06 1.1 0 .55.02 1.04a6.6 6.6 0 0 1 0 1.02 7.91 7.91 0 0 1-.22 1.44 2.22 2.22 0 0 1-.48 1.07 2.19 2.19 0 0 1-.53.31.93.93 0 0 0-.27.12 1.15 1.15 0 0 1-.84-.2 1.16 1.16 0 0 1-.22-.17 2.4 2.4 0 0 1-.58-.8l-.14-.45v-.12a2.17 2.17 0 0 1-.06-.48q-.01-1-.13-1.97a4.78 4.78 0 0 1-.06-.7q0-.36-.02-.7-.12-.96-.16-1.88v-.55l-.02-1.07-.15-.11h-.02a1.22 1.22 0 0 1-.23-.16 1.9 1.9 0 0 0-.2-.12.15.15 0 0 1-.06-.02 1.27 1.27 0 0 0-.13-.11 1.63 1.63 0 0 1-.36-.2.08.08 0 0 0-.02-.06 4.58 4.58 0 0 1-.48-.39 3.34 3.34 0 0 0-.35-.37l-.63-.66a6.54 6.54 0 0 1-.56-.86 1.1 1.1 0 0 0-.08.31l-.33-.25 2.32 16.4a5.99 5.99 0 0 1-1.48 2.67l-.78.86-.1.97-.06.8-.1 1.1a5.12 5.12 0 0 0-.08.64l-.11 1.05-.08.69q-.1.48-.16.95a4.74 4.74 0 0 0-.06.74l-.02.37q-.03.28-.1 2.56a57.27 57.27 0 0 1-.99 7.27q-1.62 9.17 1.23 12.05l4.43 4.27h6.04V125H13.64v-8.14h22.8a18.22 18.22 0 0 0 .66-1.85q.2-.66.32-1.23.19-1.19.33-2.45v-.14q-1.17-.92-2.3-1.93a5.87 5.87 0 0 1-1.78-2.56l-.66-1.79a8.12 8.12 0 0 0-1.62-2.77l-.39-.5-.04-.03-2.61-3.08v4.22a12.18 12.18 0 0 1-3.83-5.62l.79-16.77h-.08a6.4 6.4 0 0 1-1.54-3.14 18.94 18.94 0 0 1 1.24-5.8 8.31 8.31 0 0 1-.21-1.28 8.5 8.5 0 0 1-.12-1.17q-.04-.5-.04-1.05a18.44 18.44 0 0 1 .9-5.25l.25-.86v-.08a23.85 23.85 0 0 1 .4-5.52.52.52 0 0 1 .03-.2 36.33 36.33 0 0 1 2.03-6.84.3.3 0 0 1-.15-.05L28 49.1q-.12-.04-.14-.12a.06.06 0 0 0-.04-.06v-.43a.45.45 0 0 1 .06-.23.06.06 0 0 0 .04-.06h.02a.3.3 0 0 1 .11-.08 1.82 1.82 0 0 0 .32-.08 8.25 8.25 0 0 1 1.97-7.93q.56-.8 1-1.37a11.76 11.76 0 0 1 1.02-1.33 2.01 2.01 0 0 0 .26-.21l.37-.35.39-.31a2.06 2.06 0 0 0 .17-.12q.24-.12.47-.21.02 0 .06-.04h.1a6.1 6.1 0 0 1 1.75-2 4.2 4.2 0 0 1 2.5-.85 8.98 8.98 0 0 0 1.54-.35 8.93 8.93 0 0 1 1.9-.53l.05-.21q-4.43-3.88-2.53-8.52h-.06l-.78-1.68-2.25-4.86 3.03 1.62.93-2.48 2.25 1.9 1.54-2.5 1.87 2.07 1.86-2.25"/><path class="cls-17" d="M51.22 23.04l.06-.15a1.4 1.4 0 0 0-.3-.04l-.06 2.14-.07 1.35-.03.5a3.57 3.57 0 0 0-.26.62 2.93 2.93 0 0 0-.12.36 5.56 5.56 0 0 1-.63 2.9l.55-.05a.21.21 0 0 0 .12-.04 1.08 1.08 0 0 0 .26-.1l.05-.04a.9.9 0 0 0 .37-.25.68.68 0 0 0 .14-.14h.02a1.61 1.61 0 0 1-.16.57l-.03.06a.32.32 0 0 1-.06.2 1.19 1.19 0 0 1-.14.17.02.02 0 0 1-.02.02l-.12.15a2.55 2.55 0 0 0-.27.16 1.94 1.94 0 0 1-.4.25.21.21 0 0 1-.13.04q0 .02-.03.02a.24.24 0 0 0-.14.04h-.06c-.08.09-.55.09-.6.2-.07.08-.24.42-.3.5l-.34.86c.84-.01 2.27-.55 3.01-.25a12.04 12.04 0 0 1 2.05.91 6.43 6.43 0 0 1 2.03 1.68 2.75 2.75 0 0 1 .68 1.9q-.07.87-.43 1.1a11.6 11.6 0 0 1 .82 1.97 2.94 2.94 0 0 1 .18.45l2.63 7.76a11.47 11.47 0 0 1 1.81 5.68l1.4 1.95 1.73 2.34.5.7.37.49-.17.17a2.23 2.23 0 0 0 .43.31q-.28-2.34-.7-4.75v-.04m-2.87-28.44q.9.14 1.75.22a17.97 17.97 0 0 0 4.96-.25 17.06 17.06 0 0 0 2.16-.57m-10.18 5.36a24.38 24.38 0 0 0 2.75.31 29.99 29.99 0 0 0 6.18-.37 27.44 27.44 0 0 0 2.95-.68m-.96-3.14q-1.27.37-2.5.6a20.86 20.86 0 0 1-5.51.24 19.58 19.58 0 0 1-2.13-.35m-23.83-8.93l2.18 1.64 1.08-2.33 1.95 1.59 1.48-2.33 1.85 1.92 1.7-2.05 1.95 2.08 2.65-1.75.66-2.36-3.25 1.87-2.03-2.44"/><path class="cls-17" d="M52.47 18.48l-.62 2.32-.57 2.09m-.38 2.21c-.05 0 .01-.07-.03-.1l-.02-.05h-.04l-.02-.02-1.34-1.1-.04-.05-.33-.45-.04-.03-.31-.63a21.5 21.5 0 0 0-2.25 0q-5.28 2.89-3.88 6.79l-.68 2.77m6.38-2.46a.39.39 0 0 1 .23.06 2.49 2.49 0 0 1 .31.33l.32.37a.47.47 0 0 0 .23.1 1.54 1.54 0 0 0 .23.06.06.06 0 0 0 .06.04 4.28 4.28 0 0 0 .57-.04"/><path class="cls-18" d="M48.7 25.65c-.5.57.33 3.42.3 3.5a.21.21 0 0 1-.04.11.08.08 0 0 1-.02.06.36.36 0 0 1-.12.2.45.45 0 0 0-.15.15h-.06a.95.95 0 0 0-.1.06h-.1a.02.02 0 0 1-.02.02q-.1 0-.1.02"/><path class="cls-17" d="M50.74 25.1a3.64 3.64 0 0 0-2.02.45m-4.74-.03a2.95 2.95 0 0 1 3.5-.1m.82 4.35h-.02q-.04.04-.06 0a.02.02 0 0 1-.02-.02h-.04a.5.5 0 0 1-.12-.06.68.68 0 0 1-.17-.11.06.06 0 0 0-.04-.02.06.06 0 0 0-.04-.06.39.39 0 0 0-.23-.06.43.43 0 0 0-.14.02h-.06q0 .04-.02.04a.11.11 0 0 1-.1.06q-.07.02-.07.21a.9.9 0 0 0-.5.39.02.02 0 0 1-.01.02q-.22.14-.43.3a3.25 3.25 0 0 0-.31.13 2.86 2.86 0 0 0-.27.12.08.08 0 0 1-.06.02.21.21 0 0 0-.16.05h-.9l-.02-.02a.52.52 0 0 1-.17-.11.08.08 0 0 0-.08-.04l-.04-.02a1.28 1.28 0 0 1-.2-.12h-.05l-.02-.02a.06.06 0 0 0-.04-.06 2.04 2.04 0 0 0 .12.34 3.72 3.72 0 0 0 .3.54q0 .02.05.02a.15.15 0 0 1 .02.06 1.93 1.93 0 0 0 .37.3 1.27 1.27 0 0 1 .13.1l.3.15a1.07 1.07 0 0 0 .13.05 3.86 3.86 0 0 0 .96.1.19.19 0 0 1 .14-.04 1.08 1.08 0 0 0 .27-.08.21.21 0 0 0 .12-.03 1.25 1.25 0 0 0 .4-.26l.32-.3a.58.58 0 0 0 .06-.07.08.08 0 0 0 .01-.06.13.13 0 0 0 .06-.06v-.07a.49.49 0 0 0 .12.2.06.06 0 0 1 .04.05.12.12 0 0 0 .08.08l.02.04a.74.74 0 0 0 .35.21.21.21 0 0 0 .11.04.19.19 0 0 0 .14.06h.04a1.93 1.93 0 0 0 .27.02q.04.04.06.04h.57a.73.73 0 0 0 .29-.06m-3.16-2.03a4.1 4.1 0 0 1 .35-.77"/><path class="cls-17" d="M47.19 31.78a1.27 1.27 0 0 0 .6.16.3.3 0 0 0 .25-.1"/><path class="cls-18" d="M50.08 26.98a1.4 1.4 0 0 1-1.33-.23"/><path class="cls-17" d="M50.99 22.85q-1.11-.14-2.26-.18M30.34 40.1l.23-.25a2.59 2.59 0 0 1 .43-.3 5.04 5.04 0 0 1 4.02-1 5.31 5.31 0 0 1 2.88 2.75 6.12 6.12 0 0 1 .37 2.86 13.1 13.1 0 0 1-2.61 6l.04.05a.15.15 0 0 1 .06.02v.04a.08.08 0 0 1 .06.07.15.15 0 0 1 .02.06 3.18 3.18 0 0 1-.02.35.18.18 0 0 1-.1.1l-.02.04a23.68 23.68 0 0 0 1.5 7.14 2.49 2.49 0 0 0 .16.33q4.25 1.9 10.98 1.23l.66-.76.74.58a8.63 8.63 0 0 0 3.53-.56q.6-1.9 1.05-3.77v-.04a2.05 2.05 0 0 1 .06-.27 40.07 40.07 0 0 0 1-9.98l-.06-1.15-.26-6.3-.11-.12-.28-.33a2.68 2.68 0 0 0-1.34-.8l-1.05-.37a6.93 6.93 0 0 1-3.2 3.84q-4.74 2.28-8.56-.43a6.57 6.57 0 0 1-2.99-3.96l-1.13.33-.31.1a1.45 1.45 0 0 0-.25.06 8.18 8.18 0 0 1-1 .31 4.94 4.94 0 0 0-.66.2"/><path class="cls-17" d="M52.28 35.72q-.53-.22-1.04-.37a7.15 7.15 0 0 1-2.63 2.79 6.87 6.87 0 0 1-9.89-3.32l-1.19.35"/><path class="cls-17" d="M51.24 35.35a4.46 4.46 0 0 0-.43-.16 5.31 5.31 0 0 1-.54-.21 3.87 3.87 0 0 1-1.74 2.1 6.71 6.71 0 0 1-5.1.67 6.25 6.25 0 0 1-2.97-1.97l-.68-1.27-1.06.31"/><path class="cls-17" d="M50.27 34.98a7.18 7.18 0 0 1-.63-.37q-.8 1.99-4.1 2.36a4.6 4.6 0 0 1-4.6-2.97 2.02 2.02 0 0 1-.37.2.24.24 0 0 1-.1.06l-.68.25m16.07 4.17a9.18 9.18 0 0 0-.8-1.34m-6.32-3.91c.08.1-.11.12-.03.22a4.35 4.35 0 0 0 .93.96m-1.08-1.23c-.4.49-.68.44-.68.44a1.2 1.2 0 0 1-.91.07l-1.14-.34a11.02 11.02 0 0 1-2.15-1.08M40.93 34a.06.06 0 0 0 .03-.02.56.56 0 0 0 .18-.17 2.01 2.01 0 0 0 .21-.26.15.15 0 0 0 .02-.05q.02 0 .06-.04v-.06a2.4 2.4 0 0 0 .31-.5l.12-.46m28.32 6.13a10.26 10.26 0 0 1-.43.93 10.04 10.04 0 0 1-.57 1q-.25.46-.5 1.01l-.1.94.47-.67a4.14 4.14 0 0 0 .39-.54q.23-.37.43-.74l.4-.7.16-.36a2.85 2.85 0 0 1 .16-.43l.27-.7.22-.72a.7.7 0 0 1 .05-.2l.08-.5.12-1.03.2-.38-.83.57a3.33 3.33 0 0 0-.48.47 2.76 2.76 0 0 0-.43.5q-.18.3-.31.57a1.75 1.75 0 0 0-.16.31 5.02 5.02 0 0 0-.31.84 1.07 1.07 0 0 1-.06.14q-.08.31-.14.66-.06.31-.23 1.66-.2 1.3-.06.8.12-.55.16-.49"/><path class="cls-17" d="M69.48 37.59l-.37.1a23.3 23.3 0 0 1-5.54.45 21.5 21.5 0 0 1-2.95-.32m7.2 3.34a6.44 6.44 0 0 1-.66 2.89 2.53 2.53 0 0 1-.14.33l.02.86.06.3a4.94 4.94 0 0 0 .48-.64 4.11 4.11 0 0 0 .53-.9 5.12 5.12 0 0 0 .27-.95 2.07 2.07 0 0 1-.02-.23v-.08q.08-.9.12-1.72a3.23 3.23 0 0 0-.12-.97.8.8 0 0 1-.03-.37 2.66 2.66 0 0 0-.12-1.04 1.7 1.7 0 0 0-.26.28 6.83 6.83 0 0 0-.48.76 1.28 1.28 0 0 0-.12.2 5.96 5.96 0 0 0-.39 1.03 5.52 5.52 0 0 0-.18.99 3.07 3.07 0 0 0 .06.78l.18 1.7"/><path class="cls-17" d="M66.84 42.68l-.2-.21a3.86 3.86 0 0 0-.25-.96 1.66 1.66 0 0 0-.19-.43 2.54 2.54 0 0 0-.12.37 9.18 9.18 0 0 0-.3 1.39 6.71 6.71 0 0 0-.07 1.54 4.04 4.04 0 0 0 .06.66q.08.5.22 1.05v.1a.11.11 0 0 0 .03.08 1.38 1.38 0 0 0 .06.17 2.87 2.87 0 0 1 .22.47v.04l.35.86.25-.8v-.04l.14-1.73"/><path class="cls-17" d="M66.9 46.97a3.2 3.2 0 0 1 .88-.74l.4-.1.03-.06 1.15-.97a4.13 4.13 0 0 0 .5-.86q.18-.31.32-.6l.12-.26a4.22 4.22 0 0 0 .25-.88l.21-.97.08-.3-.68.53-.55.32-.35.23-.88.74M60.5 33.6a25.84 25.84 0 0 0 2.95.4 21.97 21.97 0 0 0 6.18-.49 22.74 22.74 0 0 0 3.2-.91m-11.97 6.96a12.74 12.74 0 0 0 2.77.55 11.46 11.46 0 0 0 3.84-.43m-1.76 4.7a9.97 9.97 0 0 1-1.66.15 4.92 4.92 0 0 1-2.06-.35m.52 1.66a5.3 5.3 0 0 0 1.78.43 5.14 5.14 0 0 0 1.7-.18"/><path class="cls-17" d="M68.19 46.13a8.46 8.46 0 0 0-.68.84 3.94 3.94 0 0 0-.55.86 5.25 5.25 0 0 0-.39.92 5.2 5.2 0 0 1-.4.93v.04l-.07.43q1.25-.84 1.62-1.11a2.85 2.85 0 0 1 .3-.2 4.4 4.4 0 0 1 .54-.43 4.53 4.53 0 0 0 .62-.68 8 8 0 0 0 .57-.9 4.34 4.34 0 0 0 .43-.99 4.46 4.46 0 0 1 .15-.43 4.52 4.52 0 0 1 .14-.45l.12-.37a2.94 2.94 0 0 1-1.23.5m3.04-.48a3.56 3.56 0 0 1-2.07.8m2.37-2.36a4.28 4.28 0 0 1-2.52.59m-1.82-.82l.2-.24.02-.13a3.46 3.46 0 0 0-.22.29m-2.06 4.17a.3.3 0 0 1-.06-.08l-.16-.39q-.06-.03.02.45a11 11 0 0 1 .14 1.23v.86a3.06 3.06 0 0 1-.08.7m3.39-6.32q-.97 1.23-2.02 2.48a2.83 2.83 0 0 0-.37.57m-.88-3.03l.38 3.9m-2.06 7a5.44 5.44 0 0 1 .45-1l.43-.83a3.23 3.23 0 0 0 .43-1.01 5.94 5.94 0 0 0 .17-1.06 1.42 1.42 0 0 1 .02-.23m.72 2.67l-.25.35a6.82 6.82 0 0 0-.49.98 3.45 3.45 0 0 1-.58.87l-.57.6c.32-.19.48-.25.63-.34a1.87 1.87 0 0 0 .48-.24 2.5 2.5 0 0 0 .47-.21l.47-.43a3.75 3.75 0 0 0 .7-.86 4.84 4.84 0 0 0 .33-.62 5.12 5.12 0 0 0 .35-1.7v-.02a5.1 5.1 0 0 0-.05-.93 2.23 2.23 0 0 1-.43.43q0 .02-.04.02a5.33 5.33 0 0 0-1.25.97 8.38 8.38 0 0 0-.86 1.01 15.58 15.58 0 0 0-.7 1.64 5.7 5.7 0 0 1-.33.63m-.22-1.23a29.6 29.6 0 0 0 .76-3.16 9.85 9.85 0 0 0 .24-1.53m.54-2.78q-.54.86-.8 1.36a8.32 8.32 0 0 0-.6 1.4 8.57 8.57 0 0 0-.33 3.71m6.67-2.04l-2.6.5m0-3.79l-2.03 2.3M24.56 67.92l1.45-2.29.93 1.72 1.23-1.72.02.06.43 1.9 1.42-1.3.06 1.43a19.04 19.04 0 0 0 .68-2.85l4.35-14.04a.64.64 0 0 1-.1-.08 2.05 2.05 0 0 0-.11-.17.08.08 0 0 0-.02-.06q-.12-.14-.23-.3l-.02-.01a.25.25 0 0 1-.16-.12q-.02-.06-.04-.06a1.9 1.9 0 0 1-.27-.23.15.15 0 0 1-.06-.02.48.48 0 0 0-.33-.25l-.26-.12-.37-.18a.08.08 0 0 1-.05-.02.13.13 0 0 1-.1-.04l-.37-.11a1.8 1.8 0 0 1-.22-.06.08.08 0 0 1-.06-.02 10.6 10.6 0 0 0-1.09-.18.9.9 0 0 1-.17-.02h-.16a3.72 3.72 0 0 0-.53-.03h-.21a.48.48 0 0 1-.18.03h-.25a.15.15 0 0 1-.06.02 1.2 1.2 0 0 1-.29.04.08.08 0 0 1-.06.02h-.14a.15.15 0 0 1-.05.02.43.43 0 0 0-.2.04 1.7 1.7 0 0 1-.35.08.7.7 0 0 1-.18.06h-.05a.15.15 0 0 1-.16.1.08.08 0 0 0-.06.01"/><path class="cls-17" d="M28.37 48.04a8.67 8.67 0 0 1 4.8.33 6.67 6.67 0 0 1 2.35 1.66.34.34 0 0 1 .14.14h-.02a1.27 1.27 0 0 1-.12-.14m.18.87l-.04.01a.08.08 0 0 1-.08.06q0 .04-.02.04a.86.86 0 0 1-.27-.04l-.02-.02h-.06a.3.3 0 0 1-.08-.12m.51-.11l.06.17m1.5 7.14a4.2 4.2 0 0 0-.25 2.73v.08a41.63 41.63 0 0 0 11.64.95l-1.19-1.11.94-1.1m-22.2-3.56a3.24 3.24 0 0 1 2.2-2.42M25.3 80.1v.26q.86-.3.18-3.65.8-2.55 2.28-2.87-.62 4.14.24 4.04a5.09 5.09 0 0 0 .35-.43q1.54-2.2.27-6.2l-.02-.02h-.23a5.3 5.3 0 0 0-3.44.2"/><path class="cls-17" d="M28.37 71.23q.35-.49.66-1a5.3 5.3 0 0 0-4.31-.1m5.38-2.41q-.25.74-.54 1.42-.26.57-.53 1.1m-1.72-9.72a4.44 4.44 0 0 0-1.85 2.15m8.89 18.06a28.38 28.38 0 0 0 8.88-.12 5.03 5.03 0 0 1 1.36.18 2.08 2.08 0 0 0 .41.07.99.99 0 0 1 .27.04 4.51 4.51 0 0 0 .59.08l.5.02a3.33 3.33 0 0 0 .51.04q.24.02.47.06h.16q1.1.02 2.24.02l1.7-.02h.29a5.84 5.84 0 0 1 .68-.04 1.62 1.62 0 0 0 .57-.02 1.38 1.38 0 0 1 .17-.06h.12a.72.72 0 0 1 .18-.02.21.21 0 0 1 .11-.04 2.05 2.05 0 0 0 .28-.06h.11a1.1 1.1 0 0 1 .3 0 .21.21 0 0 0 .15-.05q0-.02.06-.02a.9.9 0 0 0 .4-.1.37.37 0 0 1 .13-.02 2.7 2.7 0 0 0 .3-.08.13.13 0 0 1 .09-.06l.35-.11a.21.21 0 0 1 .11-.04.22.22 0 0 1 .1-.02q.1-.98.16-1.95a3.94 3.94 0 0 1-2.5.72q-5.56-.37-11.1-.45a61.52 61.52 0 0 1-10.88-1.1q-.11 1.18-.2 2.4a17.2 17.2 0 0 0 2.93.75q-.27 3.35 1.66 8.77a29.55 29.55 0 0 1 1.17 5.21 21.2 21.2 0 0 1 .14 2.38l-.06.72a19.88 19.88 0 0 0-.12 7.72 7.1 7.1 0 0 0 3.06.41 7.62 7.62 0 0 0 2.1-.54l.75-.37a15.38 15.38 0 0 0 .06-6.77 13.16 13.16 0 0 1 1.15-6.8 23.67 23.67 0 0 0 1.6-10.48m-14.24-3.39q1.12-11.47 5.33-16.83m-7.39 8.38a5.79 5.79 0 0 0-4.96-.17m40.45-6.17a.48.48 0 0 0 .43.24h.06a.57.57 0 0 0 .13.02h.35l1.08-.16h.04a4.17 4.17 0 0 1 .97-.11 1.18 1.18 0 0 1 .84.5.83.83 0 0 1 .23.37l.35.26a.56.56 0 0 0 .43-.06.68.68 0 0 1 .2-.1 2.05 2.05 0 0 0 .06-.84 1.42 1.42 0 0 0-.16-.45.3.3 0 0 0-.08-.15l-.25-.37a.19.19 0 0 0-.1-.08l-.5-.45a.13.13 0 0 0-.06-.06l-.34-.17a2.29 2.29 0 0 0-.52-.3 1.37 1.37 0 0 0-.31-.07.55.55 0 0 0-.28-.08.45.45 0 0 1-.15-.04.43.43 0 0 0-.14-.02.79.79 0 0 0-.35 0q-.27 0-.53.02a1.52 1.52 0 0 1-.9-.2m-4.25-5.96l-.15-.24a6.24 6.24 0 0 0-2.89-1.13 4.44 4.44 0 0 0-3.8 1.72l-.06.06q-.84 3.27 4.78 5.8l.14.13.23.19 1.23.04-.84-1.27h1.91a2.9 2.9 0 0 1-.74-1.66 3.1 3.1 0 0 1 1.68.69l-.08-2.38m2.14-.78v-.02m-2.43 7.78l-.32-.29-.56-.45-1.99-1.66m12.4 3.65q-.48.29-.91.52a1.73 1.73 0 0 1-1 .2 4.84 4.84 0 0 1-.93-.37 2.45 2.45 0 0 1-.41-.26h-.45l-.18.22a2.22 2.22 0 0 0 .04.58 1.72 1.72 0 0 0 .27.59.06.06 0 0 1 .06.04 4.76 4.76 0 0 1 .49.2 7.33 7.33 0 0 1 .88.19 3.97 3.97 0 0 0 .95-.16 2.28 2.28 0 0 0 .74-.21"/><path class="cls-17" d="M68.7 64.81l-.14-.21a1.26 1.26 0 0 1 0-.82l.62-.12m-3.16-.6v3.41m3.85 2.25a1.7 1.7 0 0 1-.94.11.75.75 0 0 1-.66-.43.46.46 0 0 1-.06-.2 2.13 2.13 0 0 1-.02-.25l.39-.42-.37-.22a1.37 1.37 0 0 1-.2-.39.7.7 0 0 0-.06-.2.06.06 0 0 1 .04-.05.5.5 0 0 1 .4-.47m2.2 1.58l-2.01-.25m1.77-6.21l-.13 1.6m-8.12.26a6.73 6.73 0 0 1 2.83-3.65m.2.67a6.8 6.8 0 0 0-2.3 3.21m1.6-4.58a6.71 6.71 0 0 0-2.9 3.9m-7.13-7.78a.19.19 0 0 1-.08.1m-4.58 4.36l1.05 1-1.09 1.23 3.69-.5.06-2.37a.43.43 0 0 0-.18.08m.12 2.3h.02A43.25 43.25 0 0 1 56.1 78.4m-7.51-16.61l.6.43.51-.58m9.62-.76l.11 21.66v1.58a2.59 2.59 0 0 0 .06.82 3.82 3.82 0 0 0 .33.96 9.22 9.22 0 0 0 .59.93 4.96 4.96 0 0 1-.04-.86 1.53 1.53 0 0 1 .25-.74 4.32 4.32 0 0 1 .72-.74l.8-.72.33-.37"/><path class="cls-17" d="M51.44 81.1a39.95 39.95 0 0 1-4.25 13.88 39.98 39.98 0 0 1-1.88 10.3.35.35 0 0 1 .12.18v.11a3.84 3.84 0 0 1-.23 2.09 10.33 10.33 0 0 0-.55 2.05q-.14.82-.23 1.54a2.62 2.62 0 0 0 .95 2.42 3.61 3.61 0 0 0 1.3.74q.73.29 1.37.62a22.59 22.59 0 0 0 2.44.9 7.1 7.1 0 0 1 1.76.76.38.38 0 0 1 .17.17.49.49 0 0 1 .02.32l7.7 2.02a9.67 9.67 0 0 1-.8-2.34q-1.18-4.95 0-14.37 2.44-9.53 1.35-15.1l-.02-.01v-.04a.06.06 0 0 1-.04-.06q-.13-.31-.21-.45m.27.57a.09.09 0 0 1-.02-.06"/><path class="cls-17" d="M61.73 90.34l-.05-.47a3.2 3.2 0 0 0-.1-.64 6.21 6.21 0 0 0-.43-.97l-.47-.86m-14.2-64.73a34.54 34.54 0 0 0-7.1 1.04m-.83-1.68a34.86 34.86 0 0 1 13.3-1.23m16.53 31.44l2.34-.32m-34.28 64.94a2.01 2.01 0 0 0-.14.3 5.14 5.14 0 0 0-.46 2.65 5.65 5.65 0 0 0 .11.7 3.32 3.32 0 0 0 .41.96 3.96 3.96 0 0 0 1.06 1.26.13.13 0 0 0 .05.06l.8.12a3.34 3.34 0 0 0 1.56-.94 7.75 7.75 0 0 0 1.35-2.02q.56-1.25.92-2.23l.03-.2.04-.15-.04-1.93q-.07-.66-.21-1.3a4.77 4.77 0 0 1-.1-1.41l.12-1.05a13.78 13.78 0 0 1 .2-1.49q.11-.83.83-4.54l.12-.64-.04.02"/><path class="cls-17" d="M45.43 105.57a.08.08 0 0 1-.06.08l-.1.1a.37.37 0 0 1-.21.1.13.13 0 0 0-.1.04.11.11 0 0 1-.08.01q-.48.04-.97.04a.2.2 0 0 1-.08-.04h-.06a.27.27 0 0 1-.13-.05l-.67-.2m-.8 11.72l.51.12 2.01.3q.06-.38.14-.73l.66.25q1.01.18 1.99.43a18.13 18.13 0 0 0 2.1.18l1.72.06a.98.98 0 0 0 1.13-.8"/><path class="cls-17" d="M44.69 117.78h.02l.78-.47m-.79.47l-.05.02q0-.02.04-.02m21.59-.92l.25.26a4.8 4.8 0 0 1-3.7 4.91.76.76 0 0 1-.41-.23.21.21 0 0 1-.04-.08 5.45 5.45 0 0 1-2.15-2.32l-.1-.2"/><path class="cls-17" d="M62.38 121.72q-.53-.62.21-2.32a.7.7 0 0 0 .06-.18q1.35-1.85 2.77-1.7a6.03 6.03 0 0 1-1.29-.66 7.75 7.75 0 0 1-2.79-3.33"/><path class="cls-17" d="M62.6 119.4l.85 1.36q2.42-1.63 1.97-3.23m-27.67-6.34l-.63-5.66h.02M73.3 38.55a5.16 5.16 0 0 1-2.87.9M28.35 98.53V77.45M71.13 37.4l2.23-.88m-.53-3.86l-1.31 2.82"/><path class="cls-18" d="M44.18 26.32s1.65-1.3 2.74-.23a1.46 1.46 0 0 1 .04.96m1.73-.89a2.8 2.8 0 0 1 1.67-.1"/><path d="M45.42 25.85s-.18.72.2.87.69.03.74-.1a1.17 1.17 0 0 0 .13-.48c0-.21 0-.24-.2-.34l-.2-.1zm3.89.26s-.23.38-.01.64a.52.52 0 0 0 .67.13.96.96 0 0 0 .21-.65.36.36 0 0 0-.13-.22z"/><circle class="cls-1" cx="46.09" cy="26.07" r=".18"/><circle class="cls-1" cx="49.82" cy="26.3" r=".16"/></g></g></svg>