<svg xmlns="http://www.w3.org/2000/svg" viewBox="0 0 87 140">
  <rect width="87" height="140" rx="6" ry="6" fill="#fff"/>
  <path fill="red" d="M62.6 103.6L52.4 80.2 45.5 86l12.8 22.7 4.3-5.1z"/>
  <path d="M49.7 93.7s-.3-4.4 1.8-3.7 7.5 14.3 7.5 14.3l1.3 2 2.3-2.7-10.2-23.4-6.9 5.8z" fill="#980805"/>
  <path fill="none" stroke="#000" stroke-linecap="round" stroke-linejoin="round" stroke-width=".4" d="M62.6 103.6L52.4 80.2 45.5 86l12.8 22.7 4.3-5.1z"/>
  <path fill="red" d="M36.5 81l-11.3 20.4 3.7 7.5 13.3-20.6-.3-4.2-3.2-2.3-2.2-.8z"/>
  <path d="M35.7 83.4a15.2 15.2 0 0 1-1.9 11.5c-3.7 6.2-5.5 8.6-5.5 8.6l-.5 3.3 2.3.3 7.8-12.3 2.7-4.2.9-6.5-2.8-2.3z" fill="#980805"/>
  <path fill="none" stroke="#000" stroke-linecap="round" stroke-linejoin="round" stroke-width=".4" d="M36.3 81.2l-11.1 20.2 3.7 7.5 13.3-20.6-.3-4.2-3.2-2.3-2.4-.6z"/>
  <path fill="#325723" d="M39.4 83.9l1.9 28.2 4.8-.9 2-28.1-8.7.8z"/>
  <path d="M43.6 83.7s.9 23.5.5 27.3a25.5 25.5 0 0 0 2.4-2.3l1.6-25.6z" fill="#0d3a12"/>
  <path fill="none" stroke="#000" stroke-linecap="round" stroke-linejoin="round" stroke-width=".4" d="M39.4 83.9l1.9 28.2 4.8-.9 2-28.1-8.7.8z"/>
  <path d="M57.7 109.3s-.2 2.4-2.8 1.2-1.6-4.8.4-5.2 2.6.4 2.6.4-.8-2.4.4-4c.1.1 1.7-.5 3 2 0 0-.4-4.4 2.8-4s2.1 4.6-.2 3.8a23.6 23.6 0 0 0 4.5 10.3c3.6 4.7 4 5.1 4 5.1s-4 2.2-7.9 1.3c-1.9-.5-2.5-.6-3.7-2.8s-3.1-8.1-3.1-8.1zm-18.3 1.3s-1.9-.2-1.7-1.9a1.5 1.5 0 0 1 1.7-1.5s1.1-.2 1.5 1.9c.1.2-.3-2.4 1.7-3.3s2.3 2.9 1.6 3.5 2.8-4.1 6.1-1.3a2.6 2.6 0 1 1-3.4 3.7 19.2 19.2 0 0 0-1.6 5.8 4.8 4.8 0 0 1-4.2 4.7c-2.8.4-4.9.4-5.4-1.2s2.6-3.4 3.3-6.1a10.9 10.9 0 0 0 .4-4.3zm-14.2-9.2s.6-3.3-2.6-3.3-2.5 4.6-.2 3.9a4.7 4.7 0 0 1-.6 5.4c-2.3 2.6-8.4 8.8-8.6 9.2s3.8 2.8 6.5 2.6 3.8-1.2 6-4.1 3.2-4.6 5.1-5.8a2.4 2.4 0 0 0 2.9 1.1c1.8-.8 1.1-2.4 1.1-2.8s-1.2-3.6-5.7-1.4c.2.1 2.1-3.3.2-5.1s-4.1.3-4.1.3z" fill="#325723"/>
  <path d="M29.3 110.4s-.8-3-4.2-.9c-1.4 1.1-2.6 6.4-2.6 6.4s-2.5-2.5-8.1.1c-1.2.7-1.1 1.1-1.1 1.1s3.7 2.2 5.7 2.2 3.3-.3 5.6-3 4.7-5.9 4.7-5.9zm28.8.1s.6-2.3 1.5-2.5 3.5 2.6 3.2 5.7a18 18 0 0 1-.4 3.6s1.3-1.7 5.1-.5S72 119 72 119s-1.5 1.6-5.3 1.4-4.1-.7-4.8-1.2-2.4-5.1-2.4-5.1zM46.8 112s-.1-1.6-2.4-.9-1.6 6-1.6 7.2 2.3.4 2.3.4z" fill="#0d3a12"/>
  <path d="M40.2 118.9s-4.5 1.5-4.4 2.6 3.1 1.4 5.3.7 3.4-1.5 3.8-2.5-1.8-1.6-2.6-1.4z" fill="#0d3a12"/>
  <path d="M31.6 62.2s-10.8-13-15.2-20.4-5.4-17.7 1.9-20.6S31.7 28.3 34.5 35s5.7 25.1 5.7 25.1z" fill="#325723"/>
  <path d="M29 25.6c1.8 2 4.5 7.2 5.5 9.4 2.8 6.7 5.7 25.1 5.7 25.1l-8.6 2.1s-.6-.4-4.2-5.1" fill="red"/>
  <path d="M18.3 21.2s5.9-2.9 11.8 5.6c.1.1-1.9 5.1-1.9 5.1s-2.2-5.8-5.9-8.3-4.8-1.9-5.3-1.7z" fill="#0d3a12"/>
  <path d="M27.5 30.8c6.9 8 10 29.9 10 29.9l2.7-.6s-4.5-22.9-5.1-24.4-5-8.9-5-8.9z" fill="#980805"/>
  <path d="M31.6 62.2s-10.8-13-15.2-20.4-5.4-17.7 1.9-20.6S31.7 28.3 34.5 35s5.7 25.1 5.7 25.1z" fill="none" stroke="#000" stroke-linecap="round" stroke-linejoin="round" stroke-width=".4"/>
  <path d="M31.3 62a16.9 16.9 0 0 1 .7-6.6 10.6 10.6 0 0 0 .6-5.7 2.9 2.9 0 0 0-1.9 1.6 35.9 35.9 0 0 0 1.9-7.1 6.8 6.8 0 0 0-2.2 1.2 11.5 11.5 0 0 0 2.4-5 4.1 4.1 0 0 0-1.9.8c0-.1 1.4-5.1 1.2-7.3a2.8 2.8 0 0 0-1 .8 21 21 0 0 0-.2-5.4c0-.1-.6.1-.8.7s.4-3.7-2.1-5.6a4.5 4.5 0 0 1 .1 3.4 16.3 16.3 0 0 0-.6 5.2l-1.9-.8c-.2-.1 0 3.7 1.7 7.2l-1.7-1a7.9 7.9 0 0 0 1.2 6.4 4 4 0 0 0-2-.7c0 .2.3.7.6 1.8a5.9 5.9 0 0 0 1.4 2.7 6.2 6.2 0 0 0-2.3-.4c.2.1.7.5.9 2.3a15.2 15.2 0 0 0 1.6 5.9 17.5 17.5 0 0 0 4.3 5.6z" fill="#fbc219"/>
  <path d="M31.3 62a16.9 16.9 0 0 1 .7-6.6 10.6 10.6 0 0 0 .6-5.7 2.9 2.9 0 0 0-1.9 1.6 35.9 35.9 0 0 0 1.9-7.1 6.8 6.8 0 0 0-2.2 1.2 11.5 11.5 0 0 0 2.4-5 4.1 4.1 0 0 0-1.9.8c0-.1 1.4-5.1 1.2-7.3a2.8 2.8 0 0 0-1 .8 21 21 0 0 0-.2-5.4c0-.1-.6.1-.8.7s.4-3.7-2.1-5.6a4.5 4.5 0 0 1 .1 3.4 16.3 16.3 0 0 0-.6 5.2l-1.9-.8c-.2-.1 0 3.7 1.7 7.2l-1.7-1a7.9 7.9 0 0 0 1.2 6.4 4 4 0 0 0-2-.7c0 .2.3.7.6 1.8a5.9 5.9 0 0 0 1.4 2.7 6.2 6.2 0 0 0-2.3-.4c.2.1.7.5.9 2.3a15.2 15.2 0 0 0 1.6 5.9 17.5 17.5 0 0 0 4.3 5.6z" fill="none" stroke="#000" stroke-linecap="round" stroke-linejoin="round" stroke-width=".4"/>
  <path d="M55.9 62.8S65.8 50.6 69 45.3s5.5-9.4 4.7-15.9-6.2-9-11.6-6.9-8.1 4.6-11 18.6-3.6 18.2-3.6 18.2z" fill="#325723"/>
  <path d="M70.1 23.1s3.1 6.5-1.5 15.4-14.1 23.7-14.1 23.7l1.4.6S68 47.4 69.4 44.9s5.5-9.8 4.5-15.2-3.8-6.6-3.8-6.6z" fill="#0d3a12"/>
  <path d="M54.5 62.2l-7-2.9s.7-4.2 3.6-18.2S56.2 25 60.8 23z" fill="red"/>
  <path d="M54.9 61.5a19.2 19.2 0 0 0-.3-6.1c-.7-3.6-.7-4.9-.2-4.9s1.4 1 1.8 2.1l.3 1.1a28.2 28.2 0 0 1-2-6.2c-.2-2.5-.2-2.8-.2-2.8s.5-.8 1.4 1.8a13.8 13.8 0 0 1-1.2-4.8c.1-.1.8-.3 1.3 1.2a13.5 13.5 0 0 0-.8-4.6 6.5 6.5 0 0 1-.6-3.5V34s1.3-.5 2.6 1.6c0 0-1.3-3.4-.9-5.8l.5-2.5a2.2 2.2 0 0 1 1.4 1.3c.1 0 .1-4.1 3.3-5.7a18.3 18.3 0 0 1-.9 7c-.1.2.4-.5 1.3-.6a11.4 11.4 0 0 1-1.1 5.1 2.1 2.1 0 0 1 1.4-.2 6.2 6.2 0 0 1-.9 4.2 4.8 4.8 0 0 1 2.1-.4 7.8 7.8 0 0 0-1.1 2.4c-.2 1 .1 3.3-.6 5a3.5 3.5 0 0 1 1.9-.7 7.5 7.5 0 0 1-2.7 4.3 15.4 15.4 0 0 1 1.7-.1c-.1.1.4 1.9-2.5 6.4s-2.8 4.5-4.5 6.6-.5-.4-.5-.4z" fill="#fbc219"/>
  <path d="M54.9 61.5a19.2 19.2 0 0 0-.3-6.1c-.7-3.6-.7-4.9-.2-4.9s1.4 1 1.8 2.1l.3 1.1a28.2 28.2 0 0 1-2-6.2c-.2-2.5-.2-2.8-.2-2.8s.5-.8 1.4 1.8a13.8 13.8 0 0 1-1.2-4.8c.1-.1.8-.3 1.3 1.2a13.5 13.5 0 0 0-.8-4.6 6.5 6.5 0 0 1-.6-3.5V34s1.3-.5 2.6 1.6c0 0-1.3-3.4-.9-5.8l.5-2.5a2.2 2.2 0 0 1 1.4 1.3c.1 0 .1-4.1 3.3-5.7a18.3 18.3 0 0 1-.9 7c-.1.2.4-.5 1.3-.6a11.4 11.4 0 0 1-1.1 5.1 2.1 2.1 0 0 1 1.4-.2 6.2 6.2 0 0 1-.9 4.2 4.8 4.8 0 0 1 2.1-.4 7.8 7.8 0 0 0-1.1 2.4c-.2 1 .1 3.3-.6 5a3.5 3.5 0 0 1 1.9-.7 7.5 7.5 0 0 1-2.7 4.3 15.4 15.4 0 0 1 1.7-.1c-.1.1.4 1.9-2.5 6.4s-2.8 4.5-4.5 6.6-.5-.4-.5-.4z" fill="none" stroke="#000" stroke-linecap="round" stroke-linejoin="round" stroke-width=".4"/>
  <path d="M55.9 62.8S65.8 50.6 69 45.3s5.5-9.4 4.7-15.9-6.2-9-11.6-6.9-8.1 4.6-11 18.6-3.6 18.2-3.6 18.2z" fill="none" stroke="#000" stroke-linecap="round" stroke-linejoin="round" stroke-width=".4"/>
  <path d="M39.8 58.5s-6.1-17.9-5.3-29S42.6 17 45.2 17.6s5.4 2.5 6.9 7.6 1.6 10.2-.6 20.4-2.9 13.7-2.9 13.7-6.7 1.8-8.8-.8z" fill="#325723"/>
  <path d="M44.8 59.9l3.8-.6s.8-3.4 2.9-13.7 2-15.3.6-20.4-4.3-7.1-6.9-7.6H44s6.4 12 .8 42.3z" fill="#0d3a12"/>
  <path d="M29.1 31.5s1.1 4.9.8 6.5.4-.8.8-1 .4.6-.8 4.6v.8a2.6 2.6 0 0 1 1.2-.6c.1 0 0 .4-.9 2.4a6.7 6.7 0 0 0-.9 3.2s1.4-1.5 1.9-1.6.3.8-.6 2.5-.6 5.6-.6 5.6a5.5 5.5 0 0 1 1.1-1.9 5.4 5.4 0 0 1-.3 2.9c-.7 2.1 0 6.6 0 6.6s-3.6-6.6-3.8-9.8a1.4 1.4 0 0 1 .9.6c.3.6.2-2.7-.7-4.5l-1-2.1s1.6.5 1.6.7a20.4 20.4 0 0 1-1.3-4.9 2.1 2.1 0 0 1 1.6 1.3c-.1-.2.5-1.9.1-3.3s-1.5-3.6-1.5-4.8a3.1 3.1 0 0 1 1.9 1.3 4.3 4.3 0 0 1 .5-4.5z" fill="#d09b07"/>
  <path d="M42.6 59a5.8 5.8 0 0 0-1-2.5 4.5 4.5 0 0 1-.8-2.8 1.9 1.9 0 0 1 1.8.9c.5 1-.3-2.1-1.1-3.4a9.5 9.5 0 0 1-1.7-4.3 2.5 2.5 0 0 1 2.3 1.4 12.6 12.6 0 0 0-1.3-3.3c0-.1.4-.4 1.3-.1s-2.3-3.7-2.5-6.2a3 3 0 0 1 2.3 1.6c.1-.1-1.7-3.9-1.5-6.4a2.8 2.8 0 0 1 2.2 1.5 16.8 16.8 0 0 1-.5-3c0 .1.6.1.9.6s-.4-2.2.2-3.4 1.1-1.1 1.6-2.7c0-.1 1.3 1.7.7 5.5a5 5 0 0 1 1.4-1 9.7 9.7 0 0 1 0 6.5l1.5-.8a5.2 5.2 0 0 1-1.1 4.3c0 .2.9-.5 1.8-.5a8.5 8.5 0 0 1-2.2 5c.1.1 1.3-.6 2-.6s.2.9-2.1 3.4a10.4 10.4 0 0 1 2.2-.5 5.9 5.9 0 0 1-2.2 4.5L45.7 54a3.2 3.2 0 0 1 1.8-.8c-.1.1.5 1-1.1 3.4S45 59.9 45 59.9z" fill="#fbc219"/>
  <path d="M43.6 59.3a18.6 18.6 0 0 1 1.9-3.4 3.9 3.9 0 0 0 .9-1.3 2.9 2.9 0 0 0-1.6.5s.1-2.4.9-3.2a12 12 0 0 0 1.6-2.3 2 2 0 0 0-1.8.4 4.8 4.8 0 0 0 .7-2.8c0-1.9.4-3.3.8-3.6a4.2 4.2 0 0 0 .5-1 2.3 2.3 0 0 0-1.5.4 12.9 12.9 0 0 0 1.2-3.8 2.1 2.1 0 0 0-1.2.7 12.3 12.3 0 0 0 .3-4.5l-.3-1.8a3.3 3.3 0 0 0-.7 1.1c-.1.5.1-1.8-.7-2.2s-.3 1.4-.7 2.3a4.7 4.7 0 0 0-.5 3.2 9.8 9.8 0 0 0-1.3-2.1c0 .1.3 4.1 1.6 6.2 0 .1-1.3-.9-1.8-.9a23.8 23.8 0 0 0 1.8 4.9l-1.3-.2c.1.1.8.2 1 1.9a22.3 22.3 0 0 0 .4 2.6 4.5 4.5 0 0 0-1.5-1.1 10.2 10.2 0 0 0 .8 3.4c.8 1.5.2 3.9.2 3.9a2.2 2.2 0 0 0-1.1-1.3c.1.1.3 1.4.6 2.5a10 10 0 0 1 .5 1.8z" fill="#d09b07"/>
  <path d="M42.6 59a5.8 5.8 0 0 0-1-2.5 4.5 4.5 0 0 1-.8-2.8 1.9 1.9 0 0 1 1.8.9c.5 1-.3-2.1-1.1-3.4a9.5 9.5 0 0 1-1.7-4.3 2.5 2.5 0 0 1 2.3 1.4 12.6 12.6 0 0 0-1.3-3.3c0-.1.4-.4 1.3-.1s-2.3-3.7-2.5-6.2a3 3 0 0 1 2.3 1.6c.1-.1-1.7-3.9-1.5-6.4a2.8 2.8 0 0 1 2.2 1.5 16.8 16.8 0 0 1-.5-3c0 .1.6.1.9.6s-.4-2.2.2-3.4 1.1-1.1 1.6-2.7c0-.1 1.3 1.7.7 5.5a5 5 0 0 1 1.4-1 9.7 9.7 0 0 1 0 6.5l1.5-.8a5.2 5.2 0 0 1-1.1 4.3c0 .2.9-.5 1.8-.5a8.5 8.5 0 0 1-2.2 5c.1.1 1.3-.6 2-.6s.2.9-2.1 3.4a10.4 10.4 0 0 1 2.2-.5 5.9 5.9 0 0 1-2.2 4.5L45.7 54a3.2 3.2 0 0 1 1.8-.8c-.1.1.5 1-1.1 3.4S45 59.9 45 59.9z" fill="none" stroke="#000" stroke-linecap="round" stroke-linejoin="round" stroke-width=".4"/>
  <path d="M39.8 58.5s-6.1-17.9-5.3-29S42.6 17 45.2 17.6s5.4 2.5 6.9 7.6 1.6 10.2-.6 20.4-2.9 13.7-2.9 13.7-6.7 1.8-8.8-.8zM28.9 33.4s.7 6.8-.2 11.4.5 13.5 2.3 16.8" fill="none" stroke="#000" stroke-linecap="round" stroke-linejoin="round" stroke-width=".4"/>
  <path d="M55.1 61.7s5.1-7.5 5.7-10.2c-.1-.1-1.8.3-2 1a36.2 36.2 0 0 0 1.4-5.4c0 .1-1.1.6-1.3.9a20 20 0 0 0 2-6l.3-2.2s-.3-.1-1.3 1.4a15.5 15.5 0 0 0 .4-3.8c0 .2.3-1.5.3-1.5a2.6 2.6 0 0 0-1.2.8 35.5 35.5 0 0 0 1.2-5.1 3 3 0 0 0-1.2 1.3 15.1 15.1 0 0 0-.5-3.3 4.9 4.9 0 0 0-1.2 2.6 27.4 27.4 0 0 0 0 5.9s-1.6-2-1.9-2a10.5 10.5 0 0 1 .8 3.6c-.2 1.5.7 4.4.9 5.4s-2-1.6-2-1.6a12.1 12.1 0 0 1 1.1 3.3l.3 1.8s.1-.3-.7-.8l-.8-.4a7.8 7.8 0 0 1 1 2.9 13.9 13.9 0 0 0 .6 3.4 2.9 2.9 0 0 1-.2 2.1s-.6-1.6-1.3-1.8a14.1 14.1 0 0 0 .3 2.5 11.2 11.2 0 0 1-.7 5.2z" fill="#d09b07"/>
  <path d="M44.7 35.5s.8 8.9.2 13.1-1.3 10.5-1.3 10.5m15-27.4s-.5 7.9-.5 13 .7 11.3-3.6 17.9m-29.3 38.8s.6-3.3-2.6-3.3-2.5 4.6-.2 3.9a4.7 4.7 0 0 1-.6 5.4c-2.3 2.6-8.4 8.8-8.6 9.2s3.8 2.8 6.5 2.6 3.8-1.2 6-4.1 3.2-4.6 5.1-5.8a2.4 2.4 0 0 0 2.9 1.1c1.8-.8 1.1-2.4 1.1-2.8s-1.2-3.6-5.7-1.4c.2.1 2.1-3.3.2-5.1s-4.1.3-4.1.3zm14.2 9.2s-1.9-.2-1.7-1.9a1.5 1.5 0 0 1 1.7-1.5s1.1-.2 1.5 1.9c.1.2-.3-2.4 1.7-3.3s2.3 2.9 1.6 3.5 2.8-4.1 6.1-1.3a2.6 2.6 0 1 1-3.4 3.7 19.2 19.2 0 0 0-1.6 5.8 4.8 4.8 0 0 1-4.2 4.7c-2.8.4-4.9.4-5.4-1.2s2.6-3.4 3.3-6.1a10.9 10.9 0 0 0 .4-4.3zm18.3-1.3s-.2 2.4-2.8 1.2-1.6-4.8.4-5.2 2.6.4 2.6.4-.8-2.4.4-4c.1.1 1.7-.5 3 2 0 0-.4-4.4 2.8-4s2.1 4.6-.2 3.8a23.6 23.6 0 0 0 4.5 10.3c3.6 4.7 4 5.1 4 5.1s-4 2.2-7.9 1.3c-1.9-.5-2.5-.6-3.7-2.8s-3.1-8.1-3.1-8.1zm-44.5 7.3s8.3-4 10.5.6m21.2 2.2s-.3-3.5-9.2 1.6m25.7-2.7c2.9-4.9 11 .6 11 .6" fill="none" stroke="#000" stroke-linecap="round" stroke-linejoin="round" stroke-width=".4"/>
  <path d="M32.7 75.7a15.7 15.7 0 0 0 1.9 3.8c1.1 1.1 4.7 4.6 5.2 5.8s1.7 3.3 3.8 3.2a5.4 5.4 0 0 0 4-2.2 30.8 30.8 0 0 1 4.4-5 12 12 0 0 0 3-4.1c.6-1.5 3.2-6.5 3.2-7S55.3 61 55.3 61l-6.5-3.8-12.4 1.1-4.1 3.2-1.3 6.8-.9 2.6z" fill="#fbc219"/>
  <path d="M49.6 59.7h-.5a33.9 33.9 0 0 1 1.3 5.7 9.9 9.9 0 0 0 .3 2.4l-.2 1 .2.2 1 .5c.1.1-.3.5-.2.6s-.6.4-.5.4l-.7.6h.8c.6.1.9-.1 1.3 0a.2.2 0 0 1 .2.2l-2.1 1.3a15 15 0 0 1-1.8 6 19.2 19.2 0 0 1 1.5 2.9l.7.7 2.8-3 .5-.7c.4-.7.7-1.4 1-2l.3-.7a1.6 1.6 0 0 1-.3-.9c-.1-.1 0-.3 0-.4h-1l-.4-.5.6-.8 1-.3.7-.3.6-.4.4-.6.2-.5a1.5 1.5 0 0 0-.3-1.8h-.6l-.5.2a1 1 0 0 0-.3 1.1l-.7-.5a1.8 1.8 0 0 1-1.1-.5l-.4-.3a3.8 3.8 0 0 1-.2-3.1 4 4 0 0 1-.7-1.9 8 8 0 0 1-.3-1.5l-.6.9V63a5.5 5.5 0 0 1-1.8-3c0-.2-.1-.2-.2-.3m-2 26.7l1.3-2-1.2-1.8a7 7 0 0 1-2.2 4.8l-.6.6a4.8 4.8 0 0 0 2.7-1.6M35 74.8h-.1l.9 2.8c.1.2 1 1.7 1.2 2.2a.3.3 0 0 0 .3-.3.7.7 0 0 1-.1-.5 4.5 4.5 0 0 1 .1-1.1c0-.2.5-2.8.5-3s0-.5-.2-.5l-2.3-.3h-.2c.1.1 0 .6-.1.7z" fill="#d09b07"/>
  <path d="M32.7 75.7a15.7 15.7 0 0 0 1.9 3.8c1.1 1.1 4.7 4.6 5.2 5.8s1.7 3.3 3.8 3.2a5.4 5.4 0 0 0 4-2.2 30.8 30.8 0 0 1 4.4-5 12 12 0 0 0 3-4.1c.6-1.5 3.2-6.5 3.2-7S55.3 61 55.3 61l-6.5-3.8-12.4 1.1-4.1 3.2-1.3 6.8-.9 2.6z" fill="none" stroke="#000" stroke-linecap="round" stroke-linejoin="round" stroke-width=".37"/>
  <path d="M40.9 82.4l3.8-.4 1.9.5-.2.8-3.2-.1h-2.1l-.2-.8z"/>
  <path d="M44.7 56.8l-2.9-.5a5.5 5.5 0 0 0-4.2.8 5.8 5.8 0 0 0-2.8.2c-.1.1 0-.1.8.4a7.7 7.7 0 0 0-2.9 1.7c-.1.1.7-.1 1.2 0a3.6 3.6 0 0 0-2.3 3.1 2.3 2.3 0 0 1 1.6.7c.1-.1 1-2.6 2.2-3a12.2 12.2 0 0 0 .7 2.8c0-.1.5 0 1-.6s.6.7.6.7a6.6 6.6 0 0 0 1.3-1.6 7.3 7.3 0 0 0 1.2.9c.1.1.7-.4.9-.8s.1.5 1.9.6a3.2 3.2 0 0 0 2.4-1.5 2.2 2.2 0 0 0 .7 1.2 2.5 2.5 0 0 0 .8-1.7c.3-1.3 1.7.4 1.7.4l.5.4c.4.2-.4-1.4.3-1.5s.2 1.8 2 3.3c.1 0 .2.6.1 1.1s.7-.4.8-.9 1 1.3 1 1.3l.4-1.9a9.2 9.2 0 0 0-.3-2.4 17.2 17.2 0 0 1 1.7 2.2 8.3 8.3 0 0 0 .8-1.2 6.8 6.8 0 0 0-2.7-3c-2.1-1.5-3.8-2.1-4.8-1.8a16.8 16.8 0 0 1-3.7.6z" fill="#fbc219" stroke="#000" stroke-linecap="round" stroke-linejoin="round" stroke-width=".37"/>
  <path d="M30.9 62.2a4.3 4.3 0 0 0 .8 3.3 7.5 7.5 0 0 0-1.6-.5 3 3 0 0 0 1 1.8c0 .1 1.5-.4 2.2.4a2.6 2.6 0 0 1-.8 4.1c0-.1 2.9-.1 3-3.7a4.3 4.3 0 0 0 .8-1.7 1.6 1.6 0 0 0-1.3 0c-.7.3 1.4-.8 1.1-2.9a15.9 15.9 0 0 0-.7-2.8 4.5 4.5 0 0 0-2.2 3 2.5 2.5 0 0 0-2.3-1zM53 59.4a9 9 0 0 0 .1 3.7c0 .2-1.1-.9-1.1-.9a7.8 7.8 0 0 0 .9 4.2c.1.2-.7 3.7 2.7 4.1a2 2 0 0 1-.4-2.7 1.6 1.6 0 0 1 2.5-.7s.4-.2.5-1.5-.1-.3-1-.1a4.1 4.1 0 0 0 .8-2.3c0-.1-.6-.4-1.6.2s.9-3.2-3.4-4z" fill="#fbc219" stroke="#000" stroke-linecap="round" stroke-linejoin="round" stroke-width=".37"/>
  <path d="M36.9 68.5a2.2 2.2 0 0 1 3-1.4c2.3.7 3-.2 3-.2s-.7.8 0 2.7a8.1 8.1 0 0 1 .3 3.2l-.2 1.1s-1-.5-1.6.1-.6.9 0 1.4a1.9 1.9 0 0 0 .9.4 3.6 3.6 0 0 0 .7.9 10.6 10.6 0 0 0 2.3.2l1.5-1.1c1-.7 1.2-1.3 1-1.9s-1.2-.6-1.9-.1l-.6.4V71m6.6-2.7s-.8-1.6-3.1-.9-2.4-.1-2.4-.1a4.7 4.7 0 0 1-.2 3.1" fill="none" stroke="#000" stroke-linecap="round" stroke-linejoin="round" stroke-width=".37"/>
  <path d="M43.4 75.4s.3.8.8.8 1.2-.6 1.2-.9m-3.8.3s-.1.5-1.3 1.1-1.5.9-1.5.9m8.5-2a9.7 9.7 0 0 0 2 1.8" fill="none" stroke="#000" stroke-linecap="round" stroke-linejoin="round" stroke-width=".37"/>
  <path d="M34.3 83.4a2.6 2.6 0 0 0 2.3 1.6c1.7.1 4-1.2 5.4-4.8" fill="#fbc219" stroke="#000" stroke-linecap="round" stroke-linejoin="round" stroke-width=".37"/>
  <path d="M42.9 76.8a3.3 3.3 0 0 0-3.2 1.9c-1.1 2.2-1.3 3.3-2.9 3.9s-2.7.2-3-.2.3 1.6 2.2 1.6 4.3-2 5.1-4.6M53 84.6s-3.3 1.3-4.8-1.1a19.4 19.4 0 0 1-2-4c-4.2 1-4.7.3-4.7.3" fill="#fbc219" stroke="#000" stroke-linecap="round" stroke-linejoin="round" stroke-width=".37"/>
  <path d="M45.7 76.7s1.8-.5 3.5 3 3.3 4.2 5 4.3c-.3 0-2.5 1.6-4.9-1.3" fill="#fbc219" stroke="#000" stroke-linecap="round" stroke-linejoin="round" stroke-width=".37"/>
  <path d="M41.8 80.7s1.7-1.2 4.7-.2m-5.6 2.1a3.3 3.3 0 0 0 .7 1.4c.6.5 3.7.5 4.1.1a5.4 5.4 0 0 0 1.4-2.4m-5.9 1.6s4.4-.3 5.1 0m-5.3-.9a8.9 8.9 0 0 1 5.7.2m-.9-1.2c.1-.5 0 0-.1.7m-1.1-1.9a3.3 3.3 0 0 1-.1 1.7m-1.7-1.5a2.9 2.9 0 0 1 .3 1.4m-1.5-.5s.2.1.2.9" fill="none" stroke="#000" stroke-linecap="round" stroke-linejoin="round" stroke-width=".37"/>
  <path d="M32.3 71.2a2.4 2.4 0 0 0 1.6-3c-.4-2.5-3.1-1.4-3.4-1a3.4 3.4 0 0 0-.7 5 25.2 25.2 0 0 1 2.6 4.2c0 .4 1.3-.8 1.3-.8L32.5 74l1.4 1.6a4.1 4.1 0 0 0 1.5-1.8 6.4 6.4 0 0 1-3.4-1.3c-1.3-1.2-.9-2.1-.8-2.4s1.2-.2 1.2-.2m23.1.5s-1.7-2.4.5-3.5 3.2 1.9 3 3-1.8 3.3-2.1 4.1-.4 2.9-.4 2.9-1.5-.6-1.6-1 1.3-2.1 1.3-2.1l-1.5 2s-1.4-1.3-1.4-2.1 3.1-1 3.7-2 .7-2.3.2-2.6-1.2.2-1.2.2" fill="#fbc219" stroke="#000" stroke-linecap="round" stroke-linejoin="round" stroke-width=".37"/>
  <path d="M57.2 67.7s.9 0 1.2 1.3m-26.2-1.3s.6-.1 1 1.1m8 .1a4.8 4.8 0 0 0-2-.7 3.8 3.8 0 0 0-2.1 1.1m14.8 1a7.9 7.9 0 0 1-2.4.2h-2.4a2.4 2.4 0 0 1 1.9-1.6c2.2-.2 1.8.8 2.9 1.4z" fill="none" stroke="#000" stroke-linecap="round" stroke-linejoin="round" stroke-width=".37"/>
  <path d="M37.4 70.7a6.5 6.5 0 0 0 2.3.2h2.2a2.2 2.2 0 0 0-1.9-1.7c-2.1-.2-1.9.9-2.6 1.5zm11.2-2.4s.4-.4 1.7 0a6.4 6.4 0 0 1 1.7.8" fill="none" stroke="#000" stroke-linecap="round" stroke-linejoin="round" stroke-width=".37"/>
  <path d="M40.4 69.5c.3.2-.2.8-.8.9s-1.1-.9-1.1-.9a1.7 1.7 0 0 1 1.9 0zm9.7-.4c.4.6-.1.9-1 1s-.8-.7-.7-.8 1.4-.6 1.7-.2z" stroke="#000" stroke-linecap="round" stroke-linejoin="round" stroke-width=".37"/>
  <path d="M46.6 68.8s.8.2.9-.4" fill="none" stroke="#000" stroke-linecap="round" stroke-linejoin="round" stroke-width=".37"/>
  <path d="M42.4 68.6a.7.7 0 0 1-.9-.5" stroke="#000" stroke-linecap="round" stroke-linejoin="round" stroke-width=".37"/>
  <circle cx="38.9" cy="69.7" r=".3" fill="#fff"/>
  <circle cx="48.7" cy="69.5" r=".3" fill="#fff"/>
</svg>
