<svg xmlns="http://www.w3.org/2000/svg" viewBox="0 0 87 140">
  <rect width="87" height="140" rx="6" ry="6" fill="#fff"/>
  <path d="M17.8 21.9s1.5 2.9-.1 11.2-4.3 13.5-1.6 21.3 9 4.1 9.8 3.3 3.8-3.5 2.9-12.9-3.9-14-3.9-18 .1-6.5 1.9-9.4c.9-1.3.5-.7.6-1s-2.7-1-6.6 1.3-3 4.2-3 4.2z" fill="#325723"/>
  <path d="M27.9 54.9c-3 6.6-9.1 4.4-9.8 2.9s-3.9-4.1-2.9-13.1 2.6-10.3 3.1-14c2.8 16.8 13 16.7 9.6 24.2z" fill="red"/>
  <path d="M27.3 16.2a6.2 6.2 0 0 0-4 .3 11.1 11.1 0 0 0-4.8 3.1c-.9 1.2-.9 2.3-.3 2.9a2.4 2.4 0 0 0 2.6.2 7.9 7.9 0 0 0 2.9-2.1l2.3-2.8 1.2-1.3.3-.3z" fill="#0d3a12"/>
  <path d="M20.8 22.7s-.7 7.4-3.6 13c0 0 1.1-5.3 1.2-7.1a31.8 31.8 0 0 0-.1-5.5l-.2-.7z" fill="#0d3a12"/>
  <path d="M18.2 31.6s-2.1 8-2.8 11.6a19.6 19.6 0 0 0 1.2 12.4c2.2 3.5 2.8 3.5 4.6 3.9 0 0-3.1-8.3-2.3-16.3s1.2-10 1.2-10z" fill="#980805"/>
  <path d="M17.8 21.9s1.5 2.9-.1 11.2-4.3 13.5-1.6 21.3 8.7 4.2 9.8 3.3 3.8-3.5 2.9-12.9-3.9-14-3.9-18 .1-6.5 1.9-9.4l.6-1c-.1-.3-2.7-1-6.6 1.3s-3 4.2-3 4.2z" fill="none" stroke="#000" stroke-linecap="round" stroke-linejoin="round" stroke-width=".4"/>
  <path d="M17.8 21.9s.5 1.7 3 .8 5.7-5.9 6.5-6.3" fill="none" stroke="#000" stroke-linecap="round" stroke-linejoin="round" stroke-width=".4"/>
  <path d="M17.8 35.5c-.2-1.2.5-4.1.5-4.8a39.6 39.6 0 0 0-.2-7.8s3.4 7.8 5.2 9.7.9 1.8.6 1.8a5.6 5.6 0 0 1-1.3 0 13.4 13.4 0 0 1 2.1 2.1c.3.8.8 1.7-.3 1.4l-1.1-.3a10.9 10.9 0 0 0 2.6 3.8 10 10 0 0 1 2.7 4.4 15.6 15.6 0 0 1-.5 9.2c-.1 0-.2.3-.3-.7S26.5 52.5 26 51a8.5 8.5 0 0 1-.5-1.8s-.5 1-.7.9-1.2-1.8-1-5.4c0 .3-.8 1.5-1.3 1.3s-1.8-1.9-2-5.4v-1s-.5.9-.9 1-1.2-1.5-1-5c-.1.1-.7 1.1-.8-.1z" fill="#fbc219"/>
  <path d="M19 26.6s1.6 4.2 2.3 5.4 1.2 1.3.8 1.3h-.8s1.2 1.6 1.7 2.5.1 1-.1.9l-1.4-1a20.4 20.4 0 0 0 2.6 4.5 21.8 21.8 0 0 1 3.6 6.9 30.8 30.8 0 0 1 .2 5.7s-1.8-4.4-2.3-5.3a3.4 3.4 0 0 0-.5-1.2s.2 1.5-.2 1.5-.8-2.5-1.1-3.8a8.4 8.4 0 0 0-.2-1c-.1-.2-.5 1-.9 1.1s-.7 1.2-1.8-4.9c-.4-1.8-.6-2.9-.6-2.9s-.1 1.7-.4 1.8-.9-1.4-1.2-3.8a59.2 59.2 0 0 1-.4-7.2V24z" fill="#d09b07"/>
  <path d="M18.2 22.7s3.5 8 5.3 9.8.8 1.8.6 1.8a6.4 6.4 0 0 1-1.4 0 13.4 13.4 0 0 1 2.1 2.1c.3.7.8 1.7-.3 1.3l-1-.2a10.6 10.6 0 0 0 2.5 3.7 12.7 12.7 0 0 1 2.8 4.5 17.6 17.6 0 0 1-.5 9.2c-.2 0-.3.3-.4-.7s-1.3-1.8-1.8-3.4-.5-1.8-.5-1.8-.5 1.1-.7 1-1.2-1.8-1-5.4c0 .2-.8 1.4-1.3 1.3s-1.8-1.9-2-5.4v-1.1s-.5 1-.8 1.1-1.2-1.6-1.1-5c0 .1-.9 1.4-1 .2a33.7 33.7 0 0 1 .5-5 52.5 52.5 0 0 0 0-8z" fill="none" stroke="#000" stroke-linecap="round" stroke-linejoin="round" stroke-width=".4"/>
  <path d="M18.4 23.5s1.5 7.5 1.8 9.4 2.7 7.1 4.7 10.3 3.5 8.8 3.2 11.3" fill="none" stroke="#000" stroke-linecap="round" stroke-linejoin="round" stroke-width=".4"/>
  <path d="M38.8 53.5s1.5-2.9-.1-11.2-4.3-13.6-1.4-21.4 9-4.1 9.7-3.2 3.9 3.5 2.8 12.8-3.9 14.2-3.9 18.2.1 6.5 2 9.3l.6 1.1c.1.3-2.8 1-6.7-1.3s-3-4.3-3-4.3z" fill="red"/>
  <path d="M37.2 20.9c2.7-7.8 9-4.1 9.7-3.2s3.8 3.5 2.8 12.8-3.9 14.2-3.9 18.2c-2.6-16.8-11.4-20-8.6-27.8z" fill="#325723"/>
  <path d="M48.3 59.1a6.2 6.2 0 0 1-3.9-.2 10.8 10.8 0 0 1-4.8-3.1c-1-1.2-1-2.3-.4-2.9a2.7 2.7 0 0 1 2.6-.3 8.6 8.6 0 0 1 2.9 2.2l2.3 2.8 1.2 1.3.4.2z" fill="#980805"/>
  <path d="M41.7 52.6s-.7-7.3-3.6-12.9c0 0 1.1 5.3 1.2 7.1a31.8 31.8 0 0 1-.1 5.5c-.2.9-.2.8-.2.8z" fill="#980805"/>
  <path d="M46.8 43.8s2.5-8 2.7-11.6 1.2-7.8-.9-12.2a8.2 8.2 0 0 0-4.6-3.9s3.1 8.3 2.3 16.4-1.2 9.9-1.2 9.9z" fill="#0d3a12"/>
  <path d="M38.8 53.5s1.5-2.9-.1-11.2-4.3-13.6-1.4-21.4 8.6-4.2 9.7-3.2 3.9 3.5 2.8 12.8-3.9 14.2-3.9 18.2.1 6.5 2 9.3l.6 1.1c-.2.3-2.8 1-6.7-1.4s-3-4.2-3-4.2z" fill="none" stroke="#000" stroke-linecap="round" stroke-linejoin="round" stroke-width=".4"/>
  <path d="M38.8 53.5s.5-1.7 3-.9 5.7 5.9 6.5 6.4" fill="none" stroke="#000" stroke-linecap="round" stroke-linejoin="round" stroke-width=".4"/>
  <path d="M46.9 41.2a26.2 26.2 0 0 1-.7 5.1c-.6 1.8-.4 6.3 0 7.9 0 0-3.4-7.8-5.2-9.7s-.8-1.8-.6-1.8a5.6 5.6 0 0 1 1.3 0 11.5 11.5 0 0 1-2-2.2c-.4-.7-.7-1.7.3-1.3l1.1.4a11 11 0 0 0-2.4-3.8 9.6 9.6 0 0 1-2.6-4.4 15.6 15.6 0 0 1 .6-9.1c.1 0 .2-.3.3.7s1.4 1.8 1.8 3.3a8.5 8.5 0 0 1 .5 1.8s.5-1 .7-.9 1.2 1.8.9 5.4c0-.3.8-1.3 1.3-1.3s1.7 1.9 1.9 5.4v.8s.5-1 .9-1 1.2 1.7.9 5.1c0-.2.9-1.6 1-.4z" fill="#fbc219"/>
  <path d="M45.3 50.4a49.9 49.9 0 0 0-2.1-5.4c-.8-1.1-1.2-1.4-.9-1.4h.9s-1.1-1.5-1.7-2.5-.1-.9.1-.8l1.3.9a14.8 14.8 0 0 0-2.4-4.4 22.3 22.3 0 0 1-3.5-7.1 29.8 29.8 0 0 1-.2-5.6l2.2 5.2a6.3 6.3 0 0 1 .3 1.2s0-1.5.4-1.5.7 2.5.9 3.8l.3 1c.1.2.5-.9.8-1.1s.7-1.1 1.7 4.9c.4 1.8.6 2.9.6 2.9s.2-1.7.5-1.8.8 1.5 1.1 3.9a64.7 64.7 0 0 1 .2 7v3z" fill="#d09b07"/>
  <path d="M46.2 54.2s-3.4-7.8-5.2-9.7-.8-1.8-.6-1.8a5.6 5.6 0 0 1 1.3 0 11.5 11.5 0 0 1-2-2.2c-.4-.7-.7-1.7.3-1.3l1.1.4a11 11 0 0 0-2.4-3.8 9.6 9.6 0 0 1-2.6-4.4 15.6 15.6 0 0 1 .6-9.1c.1 0 .2-.3.3.7s1.4 1.8 1.8 3.3a8.5 8.5 0 0 1 .5 1.8s.5-1 .7-.9 1.2 1.8.9 5.4c0-.3.8-1.3 1.3-1.3s1.7 1.9 1.9 5.4v.8s.5-1 .9-1 1.2 1.7.9 5.1c0-.1.9-1.3 1-.2a24.1 24.1 0 0 1-.7 5c-.6 1.7-.4 6.1 0 7.8z" fill="none" stroke="#000" stroke-linecap="round" stroke-linejoin="round" stroke-width=".4"/>
  <path d="M46.2 53.8s-1.6-7.9-1.8-9.8-2.6-7.1-4.6-10.2-3.3-8.9-3-11.4" fill="none" stroke="#000" stroke-linecap="round" stroke-linejoin="round" stroke-width=".4"/>
  <path d="M60.9 53.5s1.5-2.9-.1-11.2-4.3-13.6-1.4-21.4 9-4.1 9.7-3.2 3.9 3.5 2.8 12.8S68 44.7 68 48.7s.2 6.5 2 9.3l.6 1.1c.1.3-2.8 1-6.7-1.3s-3-4.3-3-4.3z" fill="red"/>
  <path d="M59.4 20.9c2.7-7.8 9-4.1 9.7-3.2s3.9 3.5 2.8 12.8S68 44.7 68 48.7c-2.7-16.8-11.5-20-8.6-27.8z" fill="#325723"/>
  <path d="M70.4 59.1a6.1 6.1 0 0 1-3.9-.2 10.8 10.8 0 0 1-4.8-3.1c-1-1.2-1-2.3-.4-2.9a2.7 2.7 0 0 1 2.6-.3 8.6 8.6 0 0 1 2.9 2.2c.8.8 2.3 2.8 2.3 2.8l1.2 1.3.4.2z" fill="#980805"/>
  <path d="M63.9 52.6s-.7-7.3-3.6-12.9c0 0 1.1 5.3 1.2 7.1a19.5 19.5 0 0 1-.1 5.5l-.2.8z" fill="#980805"/>
  <path d="M69 43.8s2.5-8 2.8-11.6 1.2-7.8-1-12.2a7.9 7.9 0 0 0-4.6-3.9s3.2 8.3 2.3 16.4-1.2 9.9-1.2 9.9z" fill="#0d3a12"/>
  <path d="M60.9 53.5s1.5-2.9-.1-11.2-4.3-13.6-1.4-21.4 8.6-4.2 9.7-3.2 3.9 3.5 2.8 12.8S68 44.7 68 48.7s.2 6.5 2 9.3l.6 1.1c-.2.3-2.8 1-6.7-1.4s-3-4.2-3-4.2z" fill="none" stroke="#000" stroke-linecap="round" stroke-linejoin="round" stroke-width=".5"/>
  <path d="M60.9 53.5s.5-1.7 3-.9 5.7 5.9 6.5 6.4" fill="none" stroke="#000" stroke-linecap="round" stroke-linejoin="round" stroke-width=".5"/>
  <path d="M69 41.4a34.6 34.6 0 0 1-.6 4.9c-.6 1.8-.4 6.3 0 7.9 0 0-3.4-7.8-5.2-9.7s-.8-1.8-.6-1.8a5.5 5.5 0 0 1 1.3 0 16.2 16.2 0 0 1-2-2.2c-.4-.7-.7-1.7.4-1.3l1 .4a11 11 0 0 0-2.4-3.8 9.6 9.6 0 0 1-2.6-4.4 16.5 16.5 0 0 1 .6-9.1c.1 0 .2-.3.4.7s1.3 1.8 1.8 3.3a16.3 16.3 0 0 1 .4 1.8s.5-1 .8-.9 1.2 1.8.8 5.4c0-.3.8-1.3 1.3-1.3s1.7 1.9 1.9 5.4v1s.5-.9.9-.9 1.2 1.7.9 5c.1-.4.9-.7.9-.4z" fill="#fbc219"/>
  <path d="M67.6 50.4a56.2 56.2 0 0 0-2.2-5.4c-.7-1.1-1.2-1.4-.9-1.4h.9s-1.1-1.5-1.7-2.5-.1-.9.1-.8a9.2 9.2 0 0 1 1.3.9 14.8 14.8 0 0 0-2.4-4.4 20.1 20.1 0 0 1-3.4-7.1 25.1 25.1 0 0 1-.3-5.6l2.2 5.2a6.3 6.3 0 0 1 .3 1.2s0-1.5.4-1.5.7 2.5 1 3.8a8.4 8.4 0 0 0 .2 1c.1.2.5-.9.8-1.1s.8-1.1 1.7 4.9c.4 1.8.6 2.9.6 2.9a7 7 0 0 1 .5-1.8c.3-.1.9 1.5 1.1 3.9s.2 6.9.2 7l.2 2.1v.9z" fill="#d09b07"/>
  <path d="M68.4 54.2s-3.4-7.8-5.2-9.7-.8-1.8-.6-1.8a5.5 5.5 0 0 1 1.3 0 16.2 16.2 0 0 1-2-2.2c-.4-.7-.7-1.7.4-1.3l1 .4a11 11 0 0 0-2.4-3.8 9.6 9.6 0 0 1-2.6-4.4 16.5 16.5 0 0 1 .6-9.1c.1 0 .2-.3.4.7s1.3 1.8 1.8 3.3a16.3 16.3 0 0 1 .4 1.8s.5-1 .8-.9 1.2 1.8.8 5.4c0-.3.8-1.3 1.3-1.3s1.7 1.9 1.9 5.4v1s.5-.9.9-.9 1.2 1.7.9 5c0-.1.9-1.3 1-.2a24.1 24.1 0 0 1-.7 5c-.6 1.5-.4 5.9 0 7.6z" fill="none" stroke="#000" stroke-linecap="round" stroke-linejoin="round" stroke-width=".5"/>
  <path d="M68.3 53.8s-1.6-7.9-1.8-9.8-2.6-7.1-4.6-10.2a23 23 0 0 1-3-11.2" fill="none" stroke="#000" stroke-linecap="round" stroke-linejoin="round" stroke-width=".5"/>
  <path d="M69.1 118s-1.4-2.9.1-11.2 4.4-13.6 1.6-21.4-9-4-9.7-3.2-3.9 3.5-2.9 12.8 3.8 14.2 3.8 18.2-.1 6.5-1.9 9.4c-.8 1.3-.5.7-.6 1s2.8 1 6.6-1.3 3-4.3 3-4.3z" fill="#325723"/>
  <path d="M59 85.1c3-6.6 9.2-4.4 9.9-2.9s3.8 4.1 2.9 13.1-2.7 10.3-3.2 14C66 92.5 55.7 92.6 59 85.1z" fill="red"/>
  <path d="M59.6 123.8a6.2 6.2 0 0 0 4-.3 10.5 10.5 0 0 0 4.8-3.1c1-1.2 1-2.3.4-2.9a2.6 2.6 0 0 0-2.7-.2 7.9 7.9 0 0 0-2.9 2.1c-.6.9-2.3 2.8-2.3 2.8l-1.2 1.3-.3.3z" fill="#0d3a12"/>
  <path d="M66.1 117.1s.7-7.3 3.6-12.9c0 0-1.1 5.3-1.2 7.1a31.8 31.8 0 0 0 .1 5.5l.3.8z" fill="#0d3a12"/>
  <path d="M68.8 108.4s2-8 2.7-11.6a19 19 0 0 0-1.2-12.4c-2.1-3.5-2.7-3.5-4.6-3.9 0 0 3.2 8.3 2.3 16.3s-1.2 10-1.2 10z" fill="#980805"/>
  <path d="M69.1 118s-1.4-2.9.1-11.2 4.4-13.6 1.6-21.4-8.7-4.2-9.7-3.2-3.9 3.5-2.9 12.8 3.8 14.2 3.8 18.2-.1 6.5-1.9 9.4l-.6 1c.1.3 2.8 1 6.6-1.3s3-4.3 3-4.3z" fill="none" stroke="#000" stroke-linecap="round" stroke-linejoin="round" stroke-width=".4"/>
  <path d="M69.1 118s-.5-1.7-3-.9-5.6 5.9-6.5 6.4" fill="none" stroke="#000" stroke-linecap="round" stroke-linejoin="round" stroke-width=".4"/>
  <path d="M69.4 104.2c.1 1.2-.5 4.3-.5 5a29.8 29.8 0 0 0 0 7.9s-3.5-7.8-5.3-9.7-.9-1.8-.6-1.8h1.3a10.3 10.3 0 0 1-2-2.1c-.4-.8-.9-1.7.2-1.4l1.1.3a11.4 11.4 0 0 0-2.5-3.8 9.6 9.6 0 0 1-2.8-4.4 16.5 16.5 0 0 1 .5-9.2c.1 0 .2-.3.3.7s1.4 1.8 1.8 3.3a8.5 8.5 0 0 1 .5 1.8s.5-1 .7-.9 1.2 1.8 1 5.4c0-.3.8-1.5 1.3-1.3s1.8 1.9 2.1 5.4l-.2 1s.5-.9.9-1 1.2 1.5 1.1 5c.1-.1.9-1.4 1.1-.2z" fill="#fbc219"/>
  <path d="M67.9 113.3s-1.6-4.2-2.3-5.4-1.2-1.3-.8-1.3h.8s-1.2-1.6-1.7-2.5-.1-1 .2-.9l1.3 1a22.7 22.7 0 0 0-2.5-4.5 18.4 18.4 0 0 1-3.6-6.9 25.8 25.8 0 0 1-.3-5.7s1.8 4.3 2.3 5.3l.5 1.2s-.1-1.6.2-1.6.9 2.6 1.1 3.9a5.1 5.1 0 0 0 .2.9c.2.3.5-.9.9-1s.7-1.2 1.8 4.9a18.2 18.2 0 0 1 .6 2.9s.1-1.7.5-1.8.8 1.4 1.2 3.8.3 7 .3 7.2v3.1z" fill="#d09b07"/>
  <path d="M68.9 117.3s-3.5-8-5.3-9.8-.9-1.8-.6-1.8a5.6 5.6 0 0 1 1.3 0 10.3 10.3 0 0 1-2-2.1c-.4-.7-.9-1.7.2-1.3l1.1.2a10.6 10.6 0 0 0-2.5-3.7 10.2 10.2 0 0 1-2.8-4.5 16.5 16.5 0 0 1 .5-9.2c.1 0 .2-.3.3.7s1.4 1.8 1.8 3.4a8.5 8.5 0 0 1 .5 1.8s.5-1.1.7-1 1.2 1.8 1 5.4c0-.2.8-1.4 1.3-1.3s1.8 1.9 2.1 5.4l-.2 1.1s.5-1 .9-1.1 1.2 1.6 1.1 5c0-.1.8-1.4.9-.2a24.7 24.7 0 0 1-.4 5c-.3 2-.4 6.3.1 8z" fill="none" stroke="#000" stroke-linecap="round" stroke-linejoin="round" stroke-width=".4"/>
  <path d="M68.5 116.3s-1.4-7.3-1.8-9.2A40.4 40.4 0 0 0 62 96.8c-2-3.1-3.5-9.3-3.2-11.8" fill="none" stroke="#000" stroke-linecap="round" stroke-linejoin="round" stroke-width=".4"/>
  <path d="M48.1 86.5s-1.5 2.9.1 11.2 4.3 13.6 1.6 21.4-9 4.1-9.8 3.2-3.8-3.5-2.7-12.8 3.8-14.2 3.8-18.2-.1-6.5-1.9-9.3-.5-.8-.6-1.1 2.8-1 6.6 1.3 2.9 4.3 2.9 4.3z" fill="red"/>
  <path d="M49.8 119.1c-2.8 7.8-9 4.1-9.8 3.2s-3.8-3.5-2.7-12.8 3.8-14.2 3.8-18.2c2.7 16.8 11.4 20 8.7 27.8z" fill="#325723"/>
  <path d="M38.6 80.7a6.2 6.2 0 0 1 4 .3 11.1 11.1 0 0 1 4.8 3.1c.9 1.2.9 2.3.3 2.9a2.4 2.4 0 0 1-2.6.2 7.5 7.5 0 0 1-2.9-2.1l-2.3-2.8-1.2-1.3h-.1z" fill="#980805"/>
  <path d="M45.2 87.4s.7 7.3 3.6 12.9c0 0-1.1-5.3-1.2-7.1a31.8 31.8 0 0 1 .1-5.5l.3-.8z" fill="#980805"/>
  <path d="M40.2 96.2s-2.6 8-2.8 11.6-1.2 7.8 1 12.2a7.7 7.7 0 0 0 4.5 3.9s-3.1-8.3-2.3-16.4 1.2-9.9 1.2-9.9z" fill="#0d3a12"/>
  <path d="M48.1 86.5s-1.5 2.9.1 11.2 4.3 13.6 1.6 21.4-8.7 4.2-9.8 3.2-3.8-3.5-2.7-12.8 3.8-14.2 3.8-18.2-.1-6.5-1.9-9.3a6.7 6.7 0 0 1-.6-1.1c.1-.3 2.8-1 6.6 1.4s2.9 4.2 2.9 4.2z" fill="none" stroke="#000" stroke-linecap="round" stroke-linejoin="round" stroke-width=".4"/>
  <path d="M48.1 86.5s-.5 1.7-3 .9-5.6-6-6.5-6.4" fill="none" stroke="#000" stroke-linecap="round" stroke-linejoin="round" stroke-width=".4"/>
  <path d="M40 98.6a18.7 18.7 0 0 1 .8-5c.6-1.8.3-6.4 0-7.9 0 0 3.3 7.8 5.1 9.7s.9 1.8.6 1.8h-1.3a9 9 0 0 1 2 2.2c.4.7.8 1.7-.3 1.3l-1.1-.4a12.1 12.1 0 0 0 2.4 3.8 10.6 10.6 0 0 1 2.7 4.4 17.6 17.6 0 0 1-.6 9.1c-.2 0-.3.3-.4-.7s-1.3-1.8-1.8-3.4-.5-1.8-.5-1.8-.5 1.1-.7 1-1.2-1.8-.9-5.4c0 .2-.8 1.3-1.3 1.3s-1.7-1.9-1.9-5.4v-1.1s-.5 1.4-.8 1.4-1.2-1.7-1-5.1c0 .1-.8 1.4-1 .2z" fill="#fbc219"/>
  <path d="M41.6 89.5a38.1 38.1 0 0 0 2.2 5.4c.7 1.1 1.2 1.3.8 1.3h-.8l1.6 2.6c.6.9.2.9-.1.8l-1.2-1a17.8 17.8 0 0 0 2.4 4.5 19.6 19.6 0 0 1 3.5 7.1 24.9 24.9 0 0 1 .3 5.6l-2.2-5.3a3.8 3.8 0 0 1-.4-1.2s0 1.6-.3 1.6-.8-2.5-1-3.8a5.8 5.8 0 0 0-.2-1c-.2-.2-.5.8-.9 1.1s-.7 1.1-1.7-4.9a24.5 24.5 0 0 0-.6-2.9s-.2 1.7-.4 1.8-.9-1.5-1.1-3.9a51.5 51.5 0 0 1-.3-7.1v-3z" fill="#d09b07"/>
  <path d="M40.8 85.8s3.3 7.8 5.1 9.7.9 1.8.6 1.8h-1.3a11.5 11.5 0 0 1 2 2.2c.4.7.8 1.7-.3 1.3l-1.1-.4a11 11 0 0 0 2.4 3.8 11.3 11.3 0 0 1 2.7 4.4 17.6 17.6 0 0 1-.6 9.1c-.2 0-.3.3-.4-.7s-1.3-1.8-1.8-3.3-.5-1.8-.5-1.8-.5 1-.7.9-1.2-1.8-.9-5.4c0 .3-.8 1.3-1.3 1.3s-1.7-1.9-1.9-5.4v-1s-.5 1.2-.8 1.2-1.2-1.7-1-5.1c0 .1-.8 1.3-.9.2a16.3 16.3 0 0 1 .7-5c.6-1.8.3-6.2 0-7.8z" fill="none" stroke="#000" stroke-linecap="round" stroke-linejoin="round" stroke-width=".4"/>
  <path d="M40.8 86s1.5 8 1.8 9.9 2.5 7.1 4.5 10.2 3.3 9.4 3 11.9" fill="none" stroke="#000" stroke-linecap="round" stroke-linejoin="round" stroke-width=".4"/>
  <path d="M26 86.5s-1.5 2.9.1 11.2 4.3 13.6 1.4 21.4-9 4.1-9.7 3.2-3.8-3.5-2.7-12.8 3.8-14.2 3.8-18.2-.1-6.5-1.9-9.3-.5-.8-.6-1.1 2.7-1 6.6 1.3 3 4.3 3 4.3z" fill="red"/>
  <path d="M27.7 119.1c-2.8 7.8-9 4.1-9.8 3.2s-3.8-3.5-2.7-12.8 3.7-14.2 3.7-18.2c2.8 16.8 11.5 20 8.8 27.8z" fill="#325723"/>
  <path d="M16.5 80.7a6.2 6.2 0 0 1 4 .3 11.1 11.1 0 0 1 4.8 3.1c.9 1.2.9 2.3.3 2.9a2.4 2.4 0 0 1-2.6.2 7.5 7.5 0 0 1-2.9-2.1l-2.3-2.8-1.2-1.3-.3-.3z" fill="#980805"/>
  <path d="M23 87.4s.7 7.3 3.6 12.9c0 0-1.1-5.3-1.2-7.1a31.8 31.8 0 0 1 .1-5.5l.2-.8z" fill="#980805"/>
  <path d="M18.1 96.2s-2.6 8-2.8 11.6-1.2 7.8 1 12.2a7.7 7.7 0 0 0 4.5 3.9s-3.1-8.3-2.3-16.4 1.2-9.9 1.2-9.9z" fill="#0d3a12"/>
  <path d="M26 86.5s-1.5 2.9.1 11.2 4.3 13.6 1.4 21.4-8.6 4.2-9.7 3.2-3.8-3.5-2.7-12.8 3.8-14.2 3.8-18.2-.1-6.5-1.9-9.3a6.7 6.7 0 0 1-.6-1.1c.1-.3 2.7-1 6.6 1.4s3 4.2 3 4.2z" fill="none" stroke="#000" stroke-linecap="round" stroke-linejoin="round" stroke-width=".4"/>
  <path d="M26 86.5s-.5 1.7-3 .9-5.7-5.9-6.5-6.4" fill="none" stroke="#000" stroke-linecap="round" stroke-linejoin="round" stroke-width=".4"/>
  <path d="M17.8 98.6a24.1 24.1 0 0 1 .7-5c.6-1.8.4-6.4 0-7.9 0 0 3.4 7.8 5.2 9.7s.8 1.8.6 1.8H23a9 9 0 0 1 2 2.2c.4.7.7 1.7-.3 1.3l-1.1-.4a12.1 12.1 0 0 0 2.4 3.8 9.1 9.1 0 0 1 2.6 4.4 15.6 15.6 0 0 1-.6 9.1c-.1 0-.2.3-.3-.7s-1.4-1.8-1.8-3.4a8.5 8.5 0 0 1-.5-1.8s-.5 1.5-.7 1.4-1.2-1.8-.9-5.4c0 .2-.8 1.3-1.3 1.3s-1.7-1.9-1.9-5.4v-1.1s-.5 1-.8 1-1.2-1.7-1-5.1c0 .1-.9 1.4-1 .2z" fill="#fbc219"/>
  <path d="M19.4 89.5a49.9 49.9 0 0 0 2.1 5.4c.8 1.2 1.2 1.3.9 1.3h-.9l1.7 2.6c.6.9.1.9-.1.8l-1.3-1a14.7 14.7 0 0 0 2.4 4.5 21.4 21.4 0 0 1 3.5 7.1 29.6 29.6 0 0 1 .2 5.6l-2.2-5.3a4.7 4.7 0 0 1-.3-1.2s0 1.6-.4 1.6-.7-2.5-.9-3.8a9.3 9.3 0 0 0-.3-1c-.1-.2-.5.8-.8 1.1s-.7 1.1-1.7-4.9l-.6-2.9s-.2 1.7-.5 1.8-.8-1.5-1.1-3.9a66.4 66.4 0 0 1-.2-7.1V87z" fill="#d09b07"/>
  <path d="M18.5 85.8s3.4 7.8 5.2 9.7.8 1.8.6 1.8a5.6 5.6 0 0 1-1.3 0 11.5 11.5 0 0 1 2 2.2c.4.7.7 1.7-.3 1.3l-1.1-.4a11 11 0 0 0 2.4 3.8 9.6 9.6 0 0 1 2.6 4.4 15.6 15.6 0 0 1-.6 9.1c-.1 0-.2.3-.3-.7s-1.4-1.8-1.8-3.3a8.5 8.5 0 0 1-.5-1.8s-.5 1.3-.7 1.2-1.2-1.8-.9-5.4c0 .2-.8 1.3-1.3 1.3s-1.7-1.9-1.9-5.4v-1.1s-.5 1-.8 1-1.2-1.7-1-5.1c0 .1-.8 1.3-1 .2a18.7 18.7 0 0 1 .8-5 25.4 25.4 0 0 0-.1-7.8z" fill="none" stroke="#000" stroke-linecap="round" stroke-linejoin="round" stroke-width=".4"/>
  <path d="M18.7 86s1.5 8 1.8 9.9S23 103 25 106.1s3.2 9 3 11.5" fill="none" stroke="#000" stroke-linecap="round" stroke-linejoin="round" stroke-width=".4"/>
</svg>
