<svg xmlns="http://www.w3.org/2000/svg" viewBox="0 0 87 140">
  <rect width="87" height="140" rx="6" ry="6" fill="#fff"/>
  <path d="M73.1 25.5s3.7-5.6-1.5-9.1-14 4.8-16 16.1-2 12.4-2 12.4l2.4 4.2z" fill="#325723"/>
  <path d="M71.6 16.3c-5.2-3.5-14 4.8-16 16.1s-2 12.3-2 12.3l3 4.3c2.1-8 1.2-27.4 15-32.7z" fill="#0d3a12"/>
  <path d="M59.8 50s1.3-4.3 2.9-6.2c0 .1-3.4.5-4.7 1.8l-1.4 1.6 1.6 4.5z" fill="red"/>
  <path d="M61.6 45.7a3.2 3.2 0 0 1-.9.3 2.9 2.9 0 0 0-2.3 2.2l.4.5c.2.3.3.4.3.6a3 3 0 0 1-.3 1.8h.2a.4.4 0 0 1 .1-.3v-.2l.4-.2.3-.2.4-1.4.4-.7a4.2 4.2 0 0 1 .6-1.4 5.4 5.4 0 0 1 .3-1" fill="#980805"/>
  <path d="M73.1 25.5s1 4-1.9 6.3a3.7 3.7 0 0 0 2.2-.4s.2 1-1.3 2.2a6.6 6.6 0 0 1-3.2 1.3 5.8 5.8 0 0 1 2 .2s-1.2 2-5.3 3.8a4.7 4.7 0 0 1 2.3.9c0 .1-3.8 1.7-4.8 2.4h2.5a4.2 4.2 0 0 1-1.9 1.2 21.8 21.8 0 0 0-3.8 1.2 14 14 0 0 0-3.1 2.2s-.7-.7-.2-2.4 1.9-3.2 1.4-5.6c0 0 1.2.3 1.2 1.2a13.2 13.2 0 0 1 1-5.2 6.7 6.7 0 0 1 1.1 1.9c.1 0-.4-3.7 1.6-6.6a3.8 3.8 0 0 1 1.2 2.4 8.7 8.7 0 0 1 2.4-4.5c0 .2.5 2.1.5 2.1s2.1-4.5 6.1-4.6z" fill="#fbc219"/>
  <path d="M57.3 45.7a32.4 32.4 0 0 1 4.4-4 14.5 14.5 0 0 1 2.3-.9 1.8 1.8 0 0 0-1.4-.5c-1 .1 1.4-1.8 3.3-3.2s2-1.7 2-1.7h-1.4s3-2 3.6-4.2a18.8 18.8 0 0 1 .9-2.8s-3.3 1.7-4.3 3.2l-.4.7v-1.2s-1.7 2.6-2.2 3.7l-.6 1.3-.6-1.1a9 9 0 0 1-.8 2.4c-.5.7-1 1.6-1 1.6a4.7 4.7 0 0 0-.4-1.5 19.6 19.6 0 0 1-1.9 5.1 9.4 9.4 0 0 0-1.5 3.1z" fill="#d09b07"/>
  <path d="M56.8 46.9a25.5 25.5 0 0 1 6.6-9.4 28.7 28.7 0 0 0 5.8-6.8" fill="none" stroke="#000" stroke-linecap="round" stroke-linejoin="round" stroke-width=".4"/>
  <path d="M53.9 48.4a1.7 1.7 0 0 1-1.9.6c-1.2-.5-1.4-3.6 1.2-4.1s2.9 2.5 2.8 2.9a1.9 1.9 0 0 1 1.9-.8c1.3.3 1.9 1.5.9 3.9a2.2 2.2 0 0 1 3.2-.4c1.7 1.3-.1 4-2 3.1a13.3 13.3 0 0 0 .5 8.6s-3.6 0-5.7-1.8-1.5-5.1-1.5-5.6a9.1 9.1 0 0 0 .6-6.4z" fill="red"/>
  <path d="M53.8 59.2a4.9 4.9 0 0 0 2.8 2l.9.4 2.7.5h.5a29.5 29.5 0 0 0-3.9-4.7 3.2 3.2 0 0 0-1.4-1.1c1.8-2.8.9-5.5-1.4-7.9.9 3.1-.9 5.9-.7 8a14.7 14.7 0 0 0 .5 2.8z" fill="#980805"/>
  <path d="M53.9 48.4a1.7 1.7 0 0 1-1.9.6c-1.2-.5-1.4-3.6 1.2-4.1s2.9 2.5 2.8 2.9a1.9 1.9 0 0 1 1.9-.8c1.3.3 1.9 1.5.9 3.9a2.2 2.2 0 0 1 3.2-.4c1.7 1.3-.1 4-2 3.1a13.3 13.3 0 0 0 .5 8.6s-3.6 0-5.7-1.8-1.5-5.1-1.5-5.6 1.5-3.4.6-6.4zm8.9-4.6a19.7 19.7 0 0 0-2.9 6.2" fill="none" stroke="#000" stroke-linecap="round" stroke-linejoin="round" stroke-width=".4"/>
  <path d="M73.1 25.5s1 4-1.9 6.3a3.7 3.7 0 0 0 2.2-.4s.2 1-1.3 2.2a6.6 6.6 0 0 1-3.2 1.3 5.8 5.8 0 0 1 2 .2s-1.2 2-5.3 3.8a4.7 4.7 0 0 1 2.3.9c0 .1-3.8 1.7-4.8 2.4h2.5a4.2 4.2 0 0 1-1.9 1.2 21.8 21.8 0 0 0-3.8 1.2 14 14 0 0 0-3.1 2.2s-.7-.7-.2-2.4 1.9-3.2 1.4-5.6c0 0 1.2.3 1.2 1.2a13.2 13.2 0 0 1 1-5.2 6.7 6.7 0 0 1 1.1 1.9c.1 0-.4-3.7 1.6-6.6a3.8 3.8 0 0 1 1.2 2.4 8.7 8.7 0 0 1 2.4-4.5c0 .2.5 2.1.5 2.1s2.1-4.5 6.1-4.6z" fill="none" stroke="#000" stroke-linecap="round" stroke-linejoin="round" stroke-width=".4"/>
  <path d="M73.1 25.5s3.7-5.6-1.5-9.1-14 4.8-16 16.1-2 12.2-2 12.2m7.1 17.5s-4.9-7.8-7.4-6" fill="none" stroke="#000" stroke-linecap="round" stroke-linejoin="round" stroke-width=".4"/>
  <path d="M13.9 25.5s-3.7-5.6 1.5-9.1 14.1 4.7 16.1 16 2.1 12.3 2.1 12.3L31.2 49z" fill="#325723"/>
  <path d="M15.4 16.3c5.2-3.5 14 4.8 16 16.1s2 12.3 2 12.3l-3 4.3c-2.1-8-1.2-27.4-15-32.7z" fill="#0d3a12"/>
  <path d="M27.2 50s-1.3-4.3-2.9-6.2c0 .1 3.4.5 4.7 1.8l1.4 1.6-1.6 4.5z" fill="red"/>
  <path d="M25.4 45.7a3 3 0 0 0 .6 1.1 14.7 14.7 0 0 1 .6 1.4l.4.8.3 1.3.4.2.3.3c0 .1.2.1.2.1s.1.2.1.3h.1a6.2 6.2 0 0 1-.2-1.8 4.2 4.2 0 0 0 .2-.6 1.1 1.1 0 0 1 .5-.4 3.5 3.5 0 0 0-2.3-2.3l-1.2-.4" fill="#980805"/>
  <path d="M28.3 51.8v-.2h.1v.2" fill="red"/>
  <path d="M13.9 25.5s-1 4 1.9 6.3a3.7 3.7 0 0 1-2.2-.4s-.2 1 1.3 2.2a6.6 6.6 0 0 0 3.2 1.3 5.8 5.8 0 0 0-2 .2s1.2 2 5.3 3.8a4.7 4.7 0 0 0-2.3.9c0 .1 3.8 1.7 4.8 2.4h-2.5a4.2 4.2 0 0 0 1.9 1.2 21.8 21.8 0 0 1 3.8 1.2 11.1 11.1 0 0 1 3.1 2.2s.7-.7.2-2.4-1.9-3.2-1.4-5.6c0 0-1.2.3-1.2 1.2a13.2 13.2 0 0 0-1-5.2 6.7 6.7 0 0 0-1.1 1.9c-.1 0 .4-3.7-1.6-6.6a3.8 3.8 0 0 0-1.2 2.4 8.7 8.7 0 0 0-2.4-4.5c0 .2-.5 2.1-.5 2.1s-2.1-4.5-6.1-4.6z" fill="#fbc219"/>
  <path d="M29.7 45.7a32.4 32.4 0 0 0-4.4-4 14.5 14.5 0 0 0-2.3-.9 1.8 1.8 0 0 1 1.4-.5c1 .1-1.4-1.8-3.3-3.2s-2-1.7-2-1.7h1.5s-3-2-3.6-4.2a18.8 18.8 0 0 0-.9-2.8s3.3 1.7 4.4 3.2l.3.7v-1.2s1.7 2.6 2.2 3.7l.6 1.3.5-1.1a9 9 0 0 0 .8 2.4 6.9 6.9 0 0 0 .9 1.7 3.8 3.8 0 0 1 .4-1.4 19.4 19.4 0 0 0 1.9 5 17.3 17.3 0 0 1 1.6 3z" fill="#d09b07"/>
  <path d="M17.8 30.7a28.1 28.1 0 0 0 5.8 6.8 25.5 25.5 0 0 1 6.6 9.4" fill="none" stroke="#000" stroke-linecap="round" stroke-linejoin="round" stroke-width=".4"/>
  <path d="M33.1 48.4a1.7 1.7 0 0 0 1.9.6c1.2-.5 1.4-3.6-1.2-4.1s-2.9 2.5-2.8 2.9a1.9 1.9 0 0 0-1.9-.8c-1.3.3-1.9 1.5-.9 3.9a2.2 2.2 0 0 0-3.2-.4c-1.7 1.3.1 4 2 3.1a13.3 13.3 0 0 1-.5 8.6s3.6 0 5.7-1.8 1.5-5.1 1.5-5.6-1.5-3.4-.6-6.4z" fill="red"/>
  <path d="M33.7 56.4c.2-2.1-1.6-5-.7-8-2.3 2.4-3.2 5.1-1.4 7.9a6 6 0 0 0-1.4 1.1 29.5 29.5 0 0 0-3.9 4.7h.5l2.7-.5a1.8 1.8 0 0 0 .9-.4 6.1 6.1 0 0 0 2.8-2 14.7 14.7 0 0 0 .5-2.8z" fill="#980805"/>
  <path d="M33.1 48.4a1.7 1.7 0 0 0 1.9.6c1.2-.5 1.4-3.6-1.2-4.1s-2.9 2.5-2.8 2.9a1.9 1.9 0 0 0-1.9-.8c-1.3.3-1.9 1.5-.9 3.9a2.2 2.2 0 0 0-3.2-.4c-1.7 1.3.1 4 2 3.1a13.3 13.3 0 0 1-.5 8.6s3.6 0 5.7-1.8 1.6-5.1 1.5-5.6-1.5-3.4-.6-6.4zm-8.9-4.6a19.7 19.7 0 0 1 2.9 6.2" fill="none" stroke="#000" stroke-linecap="round" stroke-linejoin="round" stroke-width=".4"/>
  <path d="M13.9 25.5s-1 4 1.9 6.3a3.7 3.7 0 0 1-2.2-.4s-.2 1 1.3 2.2a6.6 6.6 0 0 0 3.2 1.3 5.8 5.8 0 0 0-2 .2s1.2 2 5.3 3.8a4.7 4.7 0 0 0-2.3.9c0 .1 3.8 1.7 4.8 2.4h-2.5a4.2 4.2 0 0 0 1.9 1.2 21.8 21.8 0 0 1 3.8 1.2 11.1 11.1 0 0 1 3.1 2.2s.7-.7.2-2.4-1.9-3.2-1.4-5.6c0 0-1.2.3-1.2 1.2a13.2 13.2 0 0 0-1-5.2 6.7 6.7 0 0 0-1.1 1.9c-.1 0 .4-3.7-1.6-6.6a3.8 3.8 0 0 0-1.2 2.4 8.7 8.7 0 0 0-2.4-4.5c0 .2-.5 2.1-.5 2.1s-2.1-4.5-6.1-4.6z" fill="none" stroke="#000" stroke-linecap="round" stroke-linejoin="round" stroke-width=".4"/>
  <path d="M13.9 25.5s-3.7-5.6 1.5-9.1 14.1 4.7 16.1 16 2.1 12.3 2.1 12.3m-7.3 17.5s4.9-7.8 7.4-6" fill="none" stroke="#000" stroke-linecap="round" stroke-linejoin="round" stroke-width=".4"/>
  <path d="M13.9 114.5s-3.7 5.6 1.5 9.1 14-4.8 16-16.1 2-12.4 2-12.4L31 90.9z" fill="#325723"/>
  <path d="M15.3 123.7c5.2 3.5 13.9-4.8 16-16.1s2-12.3 2-12.3l-3-4.3c-2.1 8-1.2 27.4-15 32.7z" fill="#0d3a12"/>
  <path d="M27.1 90s-1.4 4.3-2.9 6.2c0-.1 3.4-.5 4.7-1.8a7.2 7.2 0 0 0 1.4-1.6l-1.7-4.5z" fill="red"/>
  <path d="M25.3 94.3l.9-.3a2.9 2.9 0 0 0 2.3-2.2l-.5-.5c-.1-.3-.2-.4-.2-.6a3.9 3.9 0 0 1 .2-1.8h-.1a.4.4 0 0 1-.1.3v.2l-.4.2-.3.2-.4 1.4-.4.7a4.2 4.2 0 0 1-.6 1.4 5.4 5.4 0 0 1-.3 1" fill="#980805"/>
  <path d="M13.9 114.5s-1-4 1.9-6.3a3.7 3.7 0 0 0-2.2.4s-.2-1 1.3-2.2a6.6 6.6 0 0 1 3.2-1.3 5.8 5.8 0 0 1-2-.2s1.2-2 5.3-3.8a4.7 4.7 0 0 1-2.3-.9c0-.1 3.8-1.7 4.8-2.4h-2.5a4.2 4.2 0 0 1 1.9-1.2 21.8 21.8 0 0 0 3.8-1.2 14 14 0 0 0 3.1-2.2s.7.7.2 2.4-1.9 3.2-1.4 5.6c0 0-1.2-.3-1.2-1.2a12.9 12.9 0 0 1-1 5.2 6.7 6.7 0 0 1-1.1-1.9c-.1 0 .4 3.7-1.6 6.6a3.8 3.8 0 0 1-1.2-2.4 8.7 8.7 0 0 1-2.4 4.6c0-.2-.5-2.1-.5-2.1s-2.2 4.4-6.1 4.5z" fill="#fbc219"/>
  <path d="M29.6 94.3a29.1 29.1 0 0 1-4.5 4 12.1 12.1 0 0 1-2.2.9 1.8 1.8 0 0 0 1.4.5c1-.1-1.4 1.8-3.4 3.2s-1.9 1.7-1.9 1.7h1.5s-3 2-3.6 4.2a18.8 18.8 0 0 1-.9 2.8s3.3-1.7 4.3-3.2l.4-.7v1.3s1.7-2.6 2.2-3.7l.6-1.3.5 1.1a9 9 0 0 1 .8-2.4l1-1.6a4.7 4.7 0 0 0 .4 1.5 19.6 19.6 0 0 1 1.9-5.1 11.2 11.2 0 0 0 1.5-3.2z" fill="#d09b07"/>
  <path d="M30.1 93.1a26.8 26.8 0 0 1-6.6 9.4 26.5 26.5 0 0 0-5.8 6.8" fill="none" stroke="#000" stroke-linecap="round" stroke-linejoin="round" stroke-width=".4"/>
  <path d="M33 91.6a1.7 1.7 0 0 1 1.9-.6c1.2.5 1.4 3.6-1.2 4.1s-2.9-2.5-2.8-2.9a1.9 1.9 0 0 1-1.9.8c-1.3-.3-1.9-1.5-1-3.9a2.1 2.1 0 0 1-3.1.4 1.8 1.8 0 0 1 1.9-3.1 12.6 12.6 0 0 0-.5-8.6s3.7 0 5.8 1.8 1.5 5.1 1.5 5.6-1.5 3.6-.6 6.4z" fill="red"/>
  <path d="M33.1 80.8a5.5 5.5 0 0 0-2.8-2l-.9-.4-2.6-.5h-.5a29.5 29.5 0 0 0 3.9 4.7 3.2 3.2 0 0 0 1.4 1.1c-1.8 2.8-.9 5.5 1.4 7.9-.9-3.1.6-6.1.7-8a5.8 5.8 0 0 0-.6-2.8z" fill="#980805"/>
  <path d="M33 91.6a1.7 1.7 0 0 1 1.9-.6c1.2.5 1.4 3.6-1.2 4.1s-2.9-2.5-2.8-2.9a1.9 1.9 0 0 1-1.9.8c-1.3-.3-1.9-1.5-1-3.9a2.1 2.1 0 0 1-3.1.4 1.8 1.8 0 0 1 1.9-3.1 12.6 12.6 0 0 0-.5-8.6s3.7 0 5.8 1.8 1.5 5.1 1.5 5.6-1.5 3.6-.6 6.4zm-8.9 4.6A19.7 19.7 0 0 0 27 90" fill="none" stroke="#000" stroke-linecap="round" stroke-linejoin="round" stroke-width=".4"/>
  <path d="M13.9 114.5s-1-4 1.9-6.3a3.7 3.7 0 0 0-2.2.4s-.2-1 1.3-2.2a6.6 6.6 0 0 1 3.2-1.3 5.8 5.8 0 0 1-2-.2s1.2-2 5.3-3.8a4.7 4.7 0 0 1-2.3-.9c0-.1 3.8-1.7 4.8-2.4h-2.5a4.2 4.2 0 0 1 1.9-1.2 21.8 21.8 0 0 0 3.8-1.2 14 14 0 0 0 3.1-2.2s.7.7.2 2.4-1.9 3.2-1.4 5.6c0 0-1.2-.3-1.2-1.2a12.9 12.9 0 0 1-1 5.2 6.7 6.7 0 0 1-1.1-1.9c-.1 0 .4 3.7-1.6 6.6a3.8 3.8 0 0 1-1.2-2.4 8.7 8.7 0 0 1-2.4 4.6c0-.2-.5-2.1-.5-2.1s-2.2 4.4-6.1 4.5z" fill="none" stroke="#000" stroke-linecap="round" stroke-linejoin="round" stroke-width=".4"/>
  <path d="M13.9 114.5s-3.7 5.6 1.5 9.1 14-4.8 16-16.1 2-12.3 2-12.3m-7.2-17.4s4.8 7.8 7.4 6" fill="none" stroke="#000" stroke-linecap="round" stroke-linejoin="round" stroke-width=".4"/>
  <path d="M73 114.5s3.6 5.6-1.5 9.1-14-4.8-16-16.1-2.1-12.4-2.1-12.4l2.4-4.2z" fill="#325723"/>
  <path d="M71.5 123.7c-5.2 3.5-14-4.8-16-16.1s-2.1-12.3-2.1-12.3l3-4.3c2.2 8 1.2 27.4 15.1 32.7z" fill="#0d3a12"/>
  <path d="M59.8 90s1.3 4.3 2.9 6.2c0-.1-3.4-.5-4.7-1.8a7.2 7.2 0 0 1-1.4-1.6l1.6-4.5z" fill="red"/>
  <path d="M61.5 94.3a6 6 0 0 0-.6-1.1 14.7 14.7 0 0 1-.6-1.4l-.4-.8-.3-1.3-.4-.2-.4-.3a.1.1 0 0 0-.1-.1c0-.1-.1-.2-.1-.3h-.1a6.2 6.2 0 0 1 .2 1.8 4.2 4.2 0 0 0-.2.6l-.5.4a3.3 3.3 0 0 0 2.3 2.3l1.2.4" fill="#980805"/>
  <path d="M58.6 88.2v.2h-.1v-.2" fill="red"/>
  <path d="M73 114.5s1-4-1.9-6.3a3.7 3.7 0 0 1 2.2.4s.2-1-1.4-2.2a6.1 6.1 0 0 0-3.1-1.3 5.2 5.2 0 0 0 1.9-.2s-1.2-2-5.2-3.8a4.2 4.2 0 0 0 2.2-.9c0-.1-3.7-1.7-4.8-2.4h2.6a4.2 4.2 0 0 0-2-1.2 19 19 0 0 1-3.7-1.2 13.3 13.3 0 0 1-3-2.3s-.7.7-.2 2.4 1.9 3.2 1.4 5.6c0 0 1.2-.3 1.2-1.2a13.2 13.2 0 0 0 1 5.2 9 9 0 0 0 1.1-1.9c.1 0-.4 3.7 1.6 6.6a4.7 4.7 0 0 0 1.2-2.4 8.2 8.2 0 0 0 2.4 4.5l.5-2s1.9 4.5 6 4.6z" fill="#fbc219"/>
  <path d="M57.2 94.3a32.4 32.4 0 0 0 4.4 4 14.5 14.5 0 0 0 2.3.9 1.8 1.8 0 0 1-1.4.5c-.9-.1 1.5 1.8 3.3 3.2s1.9 1.7 1.9 1.7h-1.3s3 2 3.6 4.2a18.8 18.8 0 0 0 .9 2.8s-3.3-1.7-4.4-3.2l-.3-.7v1.3s-1.7-2.6-2.2-3.7l-.6-1.3-.5 1.1a9 9 0 0 0-.8-2.4L61 101a3.5 3.5 0 0 1-.5 1.5 18.1 18.1 0 0 0-1.8-5.1 9.4 9.4 0 0 1-1.5-3.1z" fill="#d09b07"/>
  <path d="M69.1 109.3a30.5 30.5 0 0 0-5.8-6.8 25.5 25.5 0 0 1-6.6-9.4" fill="none" stroke="#000" stroke-linecap="round" stroke-linejoin="round" stroke-width=".4"/>
  <path d="M53.9 91.6A1.7 1.7 0 0 0 52 91c-1.2.5-1.4 3.6 1.2 4.1s2.9-2.5 2.8-2.9a1.9 1.9 0 0 0 1.9.8c1.3-.3 1.9-1.5.9-3.9a2.2 2.2 0 0 0 3.2.4c1.7-1.3-.1-4-2-3.1a13.3 13.3 0 0 1 .5-8.6s-3.6 0-5.7 1.8-1.5 5.1-1.5 5.6 1.3 3.6.6 6.4z" fill="red"/>
  <path d="M53.2 83.7c.1 1.9 1.6 5.1.7 8.1 2.3-2.4 3.1-5.2 1.3-8a6.5 6.5 0 0 0 1.5-1 34 34 0 0 0 3.8-4.7h-1.3l-1.8.5-1 .4a5.4 5.4 0 0 0-2.7 2 4.4 4.4 0 0 0-.5 2.7z" fill="#980805"/>
  <path d="M53.9 91.6A1.7 1.7 0 0 0 52 91c-1.2.5-1.4 3.6 1.2 4.1s2.9-2.5 2.8-2.9a1.9 1.9 0 0 0 1.9.8c1.3-.3 1.9-1.5.9-3.9a2.2 2.2 0 0 0 3.2.4c1.7-1.3-.1-4-2-3.1a13.3 13.3 0 0 1 .5-8.6s-3.6 0-5.7 1.8-1.6 4.8-1.5 5.6 1.3 3.6.6 6.4zm8.8 4.6a19.7 19.7 0 0 1-2.9-6.2" fill="none" stroke="#000" stroke-linecap="round" stroke-linejoin="round" stroke-width=".4"/>
  <path d="M73 114.5s1-4-1.9-6.3a3.7 3.7 0 0 1 2.2.4s.2-1-1.4-2.2a6.1 6.1 0 0 0-3.1-1.3 5.2 5.2 0 0 0 1.9-.2s-1.2-2-5.2-3.8a4.2 4.2 0 0 0 2.2-.9c0-.1-3.7-1.7-4.8-2.4h2.6a4.2 4.2 0 0 0-2-1.2 19 19 0 0 1-3.7-1.2 13.3 13.3 0 0 1-3-2.3s-.7.7-.2 2.4 1.9 3.2 1.4 5.6c0 0 1.2-.3 1.2-1.2a13.2 13.2 0 0 0 1 5.2 9 9 0 0 0 1.1-1.9c.1 0-.4 3.7 1.6 6.6a4.7 4.7 0 0 0 1.2-2.4 8.2 8.2 0 0 0 2.4 4.5l.5-2s1.9 4.5 6 4.6z" fill="none" stroke="#000" stroke-linecap="round" stroke-linejoin="round" stroke-width=".4"/>
  <path d="M73 114.5s3.6 5.6-1.5 9.1-14-4.8-16-16.1-2.1-12.1-2.1-12.1m7.1-17.6s-4.8 7.8-7.3 6" fill="none" stroke="#000" stroke-linecap="round" stroke-linejoin="round" stroke-width=".4"/>
</svg>
