<svg xmlns="http://www.w3.org/2000/svg" viewBox="0 0 87.04 140.06"><defs><style>.cls-1,.cls-17{fill:#fff}.cls-2{fill:#a77e6a}.cls-3{fill:#325723}.cls-4{fill:#fbc219}.cls-8{fill:#f3bc84}.cls-9{fill:#b3b3b3}.cls-10{fill:#febf10}.cls-11{fill:red}.cls-15,.cls-16{fill:none}.cls-15,.cls-16,.cls-17{stroke:#000}.cls-15,.cls-16{stroke-linecap:round;stroke-linejoin:round}.cls-15{stroke-width:.4px}.cls-16{stroke-width:.3px}.cls-17{stroke-miterlimit:10;stroke-width:.2px}</style></defs><g id="Livello_2" data-name="Livello 2"><g id="Livello_1-2" data-name="Livello 1"><g id="Livello_2-2" data-name="Livello 2"><g id="Livello_1-2-2" data-name="Livello 1-2"><rect class="cls-1" width="87" height="140" rx="6" ry="6"/><rect class="cls-1" x=".04" y=".06" width="87" height="140" rx="6" ry="6"/><path class="cls-2" d="M22.28 110.3a4.42 4.42 0 0 0-.59-3.34l-1.4-.12a2.9 2.9 0 0 1 0 1.08 2.98 2.98 0 0 1-.27.84 4.95 4.95 0 0 1-.82 1.2l-.47.19a1.53 1.53 0 0 0 .49 1.04l.45.43a4.34 4.34 0 0 1 .35.4 2.4 2.4 0 0 0 .73.66h.33a2.26 2.26 0 0 0 .98-1.3 10.95 10.95 0 0 0 .22-1.09m33.67-16.18l-.86-.85a.73.73 0 0 0-.6.55l-.28.86a3.66 3.66 0 0 0-.1.45l-.02 1.38a1.82 1.82 0 0 1-.33 1.3 1.35 1.35 0 0 1-.12.2l-.76.12a5.14 5.14 0 0 1-.3.7 44.37 44.37 0 0 1-6.6 10.2 2.62 2.62 0 0 0-.76 2.21l-2.26 1.72-.04.02-.88 1.86-.55 1.12q2.02 1.94 5.65.14a2.25 2.25 0 0 0 .7-1.26h-.7l.74-.08a4.58 4.58 0 0 0-.12-1.45l.67-1.19q.86.71 1.47-.8l.6-3.18 5.67-9.2q2.43-1.38 1.7-3.6A2.59 2.59 0 0 1 56.5 95a1.09 1.09 0 0 1-.55-.88"/><path class="cls-2" d="M35.11 85.56a14.76 14.76 0 0 1 .2-2.21 1.33 1.33 0 0 1 .21-.47.38.38 0 0 1 .25.14 8.58 8.58 0 0 1 .73 1.31l.29.76.08.24 1.86-.51v-.33a2.06 2.06 0 0 0-.27-.96 3.88 3.88 0 0 1-.16-.47q-.72-2.04-1.25-4.18l-.22-1.13a29.82 29.82 0 0 1-.6-4.45 22 22 0 0 1-10.37 5.51q-.84 7.4.7 11.4a1.5 1.5 0 0 0 .38-.08 13.54 13.54 0 0 0 .2 1.5 18.76 18.76 0 0 0 .48 2.12l-.02.24a29.87 29.87 0 0 0-.98 8.52 6.4 6.4 0 0 0-.56 4.13l-1.98 8.19-.06.32q-1.43 2.6-.9 3.15a5.02 5.02 0 0 0-2.04 1.72 6.63 6.63 0 0 0-1.19 2.8q2.72 1.6 5.44-.99l-.27-2.96 1.06-.18q.33-1.92.8-3.86a72.52 72.52 0 0 1 2.06-7.23q1.8-2.86 1.68-4.6l1.39-3.43.7-1.04 1.28-5.66a32.62 32.62 0 0 0 1.08-7.31m-12.09-6.81l-.33-1.24a5.33 5.33 0 0 1-.61-.53q-.08 1.75-.29 3.51-.1.92-.26 1.84-.37 1.75-.84 3.6a17.14 17.14 0 0 1-1.7 4.26q-1.63 1.88-3.12 3.76a8.34 8.34 0 0 0-1.41 2.37l.37 1.4.4-1.75 2.72-2.18a17.29 17.29 0 0 0 4.31-3q.4-.43.68-.8a.12.12 0 0 1 .08.02 30.07 30.07 0 0 1 0-11.26m5.56-17.83a.33.33 0 0 1-.07.2 1.62 1.62 0 0 0-.1.74q.04 1.19-.02 2.37v.1q-.06.9-.06 1.78a.33.33 0 0 1-.06.2 1.18 1.18 0 0 0-.08.35v.39a4.37 4.37 0 0 1-.04.84q-.09.83-.09 1.75a8.38 8.38 0 0 1-.02 1.31 26.12 26.12 0 0 0-.06 3.74 21.89 21.89 0 0 0 6.48-4.05q-.08-1.55-.12-3.12v-4.25a8.64 8.64 0 0 1 .43 1.3q.2.95.47 1.89a1.16 1.16 0 0 0 .06.2l.16.47a5.65 5.65 0 0 1 .18.57l.13.29a5.04 5.04 0 0 0 .43 1q.94-1 1.85-2.1-.02-.45.05-1.84a15.82 15.82 0 0 0-.07-1.78 1.9 1.9 0 0 0-.63-.35 5.33 5.33 0 0 1-1.29-.61 4.62 4.62 0 0 1-.94-.92 9.95 9.95 0 0 1-1.1-1.61 2.54 2.54 0 0 1-.3-.74 1.95 1.95 0 0 0-.17-.39l-1.2.51q-1.46.58-2.87 1.27l-.96.43v.06m-12.7 1.41a6.13 6.13 0 0 0 0 1v.3l.02.03a1.61 1.61 0 0 1 .06.24.37.37 0 0 1 .06.23.08.08 0 0 0 .02.06v.06l.33.65a1.2 1.2 0 0 0 .1.13q.02.08.16.1l.07.04a2.11 2.11 0 0 1 .38.2.33.33 0 0 0 .09.02q.04.04.04.06h.06a.5.5 0 0 1 .14.2 4.98 4.98 0 0 1 .2.52.45.45 0 0 1 .09.18.32.32 0 0 1 .06.09 3.33 3.33 0 0 0 .35.44.16.16 0 0 0 .06.02.32.32 0 0 1 .12.09.25.25 0 0 0 .2.1 1.27 1.27 0 0 0 .53-.1.46.46 0 0 0 .2-.09l.6-.26a.3.3 0 0 1 .14-.08.04.04 0 0 0 .05-.03v-.01q.22-.15.47-.29a.55.55 0 0 0 .14-.1l.24-.2.37-.35a5.3 5.3 0 0 1 .43-.35.92.92 0 0 1 .16-.16q.04-.02.04-.04a.2.2 0 0 1 .09-.1.08.08 0 0 0 .02-.07 4.06 4.06 0 0 0 .18-.43v-.04a1.67 1.67 0 0 0 .12-.75 2.77 2.77 0 0 0-.12-.84 2.63 2.63 0 0 1-.08-.5h-.12a.57.57 0 0 1-.47-.3 1.08 1.08 0 0 1-.19-.63q-2.88-1.66-5.41.96"/><path class="cls-2" d="M20.53 63.66l.02.04.04.06h-.04a.16.16 0 0 1-.02-.06q-.04-.04-.04-.06.04 0 .04.02m7.8-15.24q-.53-.35-.92-.63l-.16-.13a3.02 3.02 0 0 1-.72-.5 7.94 7.94 0 0 0-3.47-1.54 8.86 8.86 0 0 1 .4 2.1 1.37 1.37 0 0 1 .95.43 1.44 1.44 0 0 1 .4.78 1 1 0 0 1 .1.06.64.64 0 0 1 .21.08 8.24 8.24 0 0 1 .76.51.92.92 0 0 1 .16.17.8.8 0 0 0 .1.18 1.15 1.15 0 0 1 .2.39.2.2 0 0 1 .05.1q.06.86.06 1.72.27-.06.74.53.43.6.55.61a1.52 1.52 0 0 1 .37.53q.22.51.34.74a4.3 4.3 0 0 0 .15.96.23.23 0 0 1 .02.1l.12.6a8.2 8.2 0 0 1 .1 1.3q-.04.6-.1 1.16-.02.51-.06 1a25.53 25.53 0 0 0 2.39-1.16q1.06-.57 2.16-1.06a5.34 5.34 0 0 0-.18-.78 20.22 20.22 0 0 1-.6-2.12l-.14-.47a1 1 0 0 1-.06-.1 3.28 3.28 0 0 0-.39-.96l-.12-.23a11.9 11.9 0 0 1-.7-1.18 4.34 4.34 0 0 0-.83-1.19q-.57-.61-1.14-1.3a3 3 0 0 0-.74-.7"/><path class="cls-2" d="M11.54 43.07l.96.2.04.02q.86.25 1.74.6l.47.26a4.73 4.73 0 0 0-1.09 1.25 2.3 2.3 0 0 0-.26.47h-.04l-.06.4a2.61 2.61 0 0 1-.4.4l-.5.48a1.59 1.59 0 0 0-.37.57 1.98 1.98 0 0 0-.16.56 1.6 1.6 0 0 0-.04.34.77.77 0 0 0 .06.31 1.26 1.26 0 0 1 .06.73 3.39 3.39 0 0 0 .08 2.15 1.41 1.41 0 0 0 .6.57 5.21 5.21 0 0 0 .8.27 9.01 9.01 0 0 1-.15 1.22q-.19.78.2.78v-.06a1.12 1.12 0 0 1 .33-.6 1.12 1.12 0 0 0 .28-.46v.81q.04.04.04.06a.57.57 0 0 0 .15.45.08.08 0 0 1 .02.06.63.63 0 0 0 .18.17c.01.04-.19-.01-.16.01.01.02.09.14.12.14.05.04.07.17.12.2l.94 3.46c.02.59.33 1.48.33 1.83v.18a4.6 4.6 0 0 1 3.1-1.53 3.1 3.1 0 0 1 2.76 1 .54.54 0 0 1 .25-.06H22a20.1 20.1 0 0 0 1.28-9.52 1.52 1.52 0 0 1-1-.45 1.15 1.15 0 0 1-.28-.45 10.12 10.12 0 0 0-7.85 2.39 3 3 0 0 0-.02-.33l-.12-.67a2.34 2.34 0 0 1 0-.76 9.7 9.7 0 0 1 7.95-1.84 1.56 1.56 0 0 1 .32-.53 1.15 1.15 0 0 1 .45-.28 9.88 9.88 0 0 0-3.37-4.93 2.54 2.54 0 0 1 2.19-.24l.14.25a24.36 24.36 0 0 1 11.24 8.6q.5 1.12.94 2.3a3.06 3.06 0 0 0 .83 1.2 2.98 2.98 0 0 1 .8 1.4 44.27 44.27 0 0 1 4.56-1.6 4.3 4.3 0 0 1-1.3-1.1l.07.5a.21.21 0 0 1-.04.07h-.08a5.45 5.45 0 0 1-1.25-.71l-.02-.02a.7.7 0 0 1-.08-.19 1.83 1.83 0 0 1-.16-.22.16.16 0 0 1-.02-.06 3.26 3.26 0 0 1-.15-.39q0-.02-.04-.06v-.06a14.56 14.56 0 0 0-3.65-5.6 9.55 9.55 0 0 0-7.22-4.84q-5.04-2.2-8.3-.2a10.06 10.06 0 0 0-3.26-.88 5.26 5.26 0 0 0 .94 2.39 4.77 4.77 0 0 0-4.14-.88l.18.47"/><path class="cls-2" d="M16.46 42.82a2.7 2.7 0 0 0-.32-.35l-.2-.14-.27-.1a3.58 3.58 0 0 1 2.88 1.6 2.07 2.07 0 0 1-2.09-1M63.16 84a15.9 15.9 0 0 0-.53 2.15 13.96 13.96 0 0 1-2.37-3.92q-.43-.07-.84-.09A49.96 49.96 0 0 0 54 81.9l3.6 4.5.13.22a42.64 42.64 0 0 0 3.54 4.47 54.33 54.33 0 0 0 4.06 4.05q1.98 2.3 1.86 7.78l-.67 7.45a7.02 7.02 0 0 0-.61 4.46 2.47 2.47 0 0 0 .1.55l-2.03 1.78-.85 3.28a5.88 5.88 0 0 0 5.86-3.22l-.33-1.94a2.09 2.09 0 0 0 .68-.45q.92-1.09.1-4.33l1.33-10.1q1.59-1.6-.1-3.73a7.33 7.33 0 0 1-.94-2.23l-.15-.5a11.22 11.22 0 0 1-1.82-4.16l-.36-1.38-.15-.68-.47-2.12a3.44 3.44 0 0 0-2.12-1.98 3.05 3.05 0 0 1-.76-.4 1.11 1.11 0 0 0-.75.78m3.97-22.4l-.06-.03q-3.04-1.67-8.07-1.04l-.57.06a27.37 27.37 0 0 1 6.9 9.4l2.09-.04.26-.1a15.92 15.92 0 0 0 1.68-4.42l.3-1.3q-.45-.68-.98-1.33a7.9 7.9 0 0 0-1.55-1.2z"/><path class="cls-3" d="M41.48 115.95l.56-1.12H26.92q-.47 1.94-.8 3.86l-1.06.18.27 2.96q-2.72 2.6-5.44.98a6.63 6.63 0 0 1 1.19-2.8 5.02 5.02 0 0 1 2.04-1.71q-.53-.55.9-3.15l.06-.32h-5.5l-9.47 10.13 60.93-.16 7.99-9.97h-8.68a2.09 2.09 0 0 1-.68.45l.33 1.94a5.88 5.88 0 0 1-5.86 3.22l.86-3.28 2.02-1.78a2.47 2.47 0 0 1-.1-.55H47.84a2.25 2.25 0 0 1-.7 1.26q-3.63 1.8-5.66-.14M54.3 66.03l-3.48-.17a33.56 33.56 0 0 1-2.47 3.33 9.44 9.44 0 0 0 5.06-2.1 9.08 9.08 0 0 0 .88-1.06"/><path class="cls-4" d="M24.92 79.02l-.94-.08a25.94 25.94 0 0 0 .1 11.27 7.3 7.3 0 0 0 1.3.13 31.56 31.56 0 0 1-.46-11.32m-2.33-2.58l.82-1a13.83 13.83 0 0 1-3.35-6.12 3.9 3.9 0 0 0-.72.8 13.8 13.8 0 0 0 3.25 6.32"/><path class="cls-3" d="M26.6 77.16l-.3.47a23.1 23.1 0 0 0 9.94-5.35q.67-.6 1.34-1.29v-.02l.13-.6a.6.6 0 0 1 .02-.13 2.3 2.3 0 0 0 .16-.66v-.14l.04-.29a33.48 33.48 0 0 1-11.62 7.34l.28.67m16.98-53.99a.12.12 0 0 1 .08.02 11.9 11.9 0 0 1 1.65.45 15.26 15.26 0 0 1 6.01 3.86l.92.94.04-1.22-.53-.58a16.12 16.12 0 0 0-8.25-4.6l.08 1.13m17.89-5.64a1 1 0 0 1-.06-.1 4.64 4.64 0 0 0-4.3.08 12.98 12.98 0 0 0-1.07.88l-.43.45a2.8 2.8 0 0 1 1.06 1.8q.04.47.04.82a6.54 6.54 0 0 1-.3 2 2.01 2.01 0 0 1-.31.53 3.05 3.05 0 0 0-.35.57l.02.4q.1-.26.2-.46.84-1.33 1.54-2.66a4.75 4.75 0 0 0-.1 1.8 11.24 11.24 0 0 0 .26 1.45 3.3 3.3 0 0 1-.2 2.23l.35-.35a1.3 1.3 0 0 0 .38-.51 2.6 2.6 0 0 0 .09.45q.2.94.34 1.92a3.76 3.76 0 0 1-.26 2l.59-.65a8.53 8.53 0 0 0 .2 2.04 21.77 21.77 0 0 0 1.05-3q.2-.74.34-1.4a.86.86 0 0 0 .02-.13l.1-.47a4.1 4.1 0 0 1 .07-.72 2.6 2.6 0 0 1 .08-.47.39.39 0 0 1 .02-.12 7.26 7.26 0 0 0 .22-1.19 1.33 1.33 0 0 1 .1-.49 1.43 1.43 0 0 0 .1-.2 12.8 12.8 0 0 0 .37-2.13 5.64 5.64 0 0 0 .07-.83l.06-.94a3.94 3.94 0 0 0-.02-1.07q-.04-.28-.06-.59a5.23 5.23 0 0 0-.2-.94"/><path class="cls-3" d="M45.65 21.37a1.49 1.49 0 0 1 .25.02 7.72 7.72 0 0 0 1.28.31 3.78 3.78 0 0 1 1.8.76.57.57 0 0 0 .23.14q.4.26.81.6a9.18 9.18 0 0 1 1.33 1.26 1.17 1.17 0 0 0 .19.18q.49.45.94.82a19.34 19.34 0 0 1 .9-3.3c-1.33-2.08-3.36-3.22-5.62-4.79q-6.99-2.17-4.74 3.94 1.3 0 2.63.06z"/><path d="M47.35 83.53h-.19l-.2 3.07a41.04 41.04 0 0 0 5.58 8.74 3.18 3.18 0 0 1 .4.94 3.69 3.69 0 0 1-.06 1.84l.76-.12a1.35 1.35 0 0 0 .12-.2 1.82 1.82 0 0 0 .33-1.3l.02-1.38a3.66 3.66 0 0 1 .1-.45q.14-.45.29-.86a.73.73 0 0 1 .59-.55l.86.85a1.09 1.09 0 0 0 .55.88 2.59 2.59 0 0 0 1.37.35 4.28 4.28 0 0 0-.31-.67q-.14-.68-.22-1.35a17.4 17.4 0 0 1 .4-6.7l-.14-.23-3.6-4.5-6.71-.4.06 2.04m-9.95-7.96v-.08q-.08-.54-.14-1.1a.18.18 0 0 0-.02-.09.27.27 0 0 1-.04-.22.77.77 0 0 1 .04-.25 2.33 2.33 0 0 0 .02-.33 3.62 3.62 0 0 1 .04-.55 6.75 6.75 0 0 1 .08-.73q-.55.55-1.14 1.08a29.82 29.82 0 0 0 .59 4.45l.22 1.13q.53 2.14 1.25 4.18a3.88 3.88 0 0 0 .16.47 2.06 2.06 0 0 1 .27.96v.33l-1.86.51-.08-.24-.29-.76a8.58 8.58 0 0 0-.73-1.3.38.38 0 0 0-.25-.15 1.33 1.33 0 0 0-.2.47 14.76 14.76 0 0 0-.2 2.2 32.62 32.62 0 0 1-1.1 7.32l-1.28 5.66 1.72-2.48.88-2.4q-.53-.33-.55-.64-.09-.43.77-.8l.41-.16 1.06-2.92 5.07-1.9-.04-3.82h-.29l-.02-1.72-.39-.02a.2.2 0 0 1-.1-.04 1.33 1.33 0 0 0-.2-.06 2.02 2.02 0 0 1-.29-.02.39.39 0 0 1-.12-.02.21.21 0 0 1-.08-.04 6.8 6.8 0 0 0-.92-.06 1.09 1.09 0 0 0-.5.1q-.16.02-.18-.06a4.19 4.19 0 0 0-.04-.6l-.02-.38a1.52 1.52 0 0 0-.14-.6.75.75 0 0 1-.06-.22v-.1l-.12-.49a1.17 1.17 0 0 1-.09-.27.33.33 0 0 0-.04-.14q-.08-.24-.14-.5a.45.45 0 0 1-.02-.15.7.7 0 0 0-.12-.25.69.69 0 0 1-.13-.26 1.34 1.34 0 0 0-.2-.6 1 1 0 0 0-.06-.1 1.15 1.15 0 0 0-.08-.32 1.03 1.03 0 0 1-.15-.45v-.06a.27.27 0 0 0-.06-.17.52.52 0 0 1-.1-.24m-2.63-11a8.64 8.64 0 0 0-.43-1.3v4.25q.04 1.57.12 3.12.88-.75 1.74-1.65a5.04 5.04 0 0 1-.43-1l-.13-.29a5.65 5.65 0 0 0-.18-.57l-.16-.47a1.16 1.16 0 0 1-.06-.2q-.27-.94-.47-1.88m.55-6.7q-.88.38-1.72.77a1.95 1.95 0 0 1 .17.4 2.54 2.54 0 0 0 .3.73 9.95 9.95 0 0 0 1.1 1.61 4.62 4.62 0 0 0 .94.92 5.33 5.33 0 0 0 1.29.61 1.9 1.9 0 0 1 .63.35l-.14-1.14a12.51 12.51 0 0 1-.22-1.48l1.16.47h.06a5.25 5.25 0 0 1 2.55 1.41 17.1 17.1 0 0 0-.4-6.88l-2.78 1.08q-1.53.53-2.94 1.15M18.6 71.32a7.83 7.83 0 0 0-.55 2.1 31.16 31.16 0 0 0-.17 5.54 36.7 36.7 0 0 0 .45 4 18.68 18.68 0 0 0-2.35 5.3 17.33 17.33 0 0 0-3.76 5.85q-2.61 2.33-.36 4.66l3.49 7.15a4.76 4.76 0 0 0 .1.47 2.66 2.66 0 0 0 .23.86 3.66 3.66 0 0 0 .32.65 1.8 1.8 0 0 0 .68.53l.73.15a1.15 1.15 0 0 1 .92.61 9.36 9.36 0 0 1 .39.96l.47-.18a4.95 4.95 0 0 0 .82-1.21 2.98 2.98 0 0 0 .26-.84 2.9 2.9 0 0 0 0-1.08 1.9 1.9 0 0 1-.65-.24.13.13 0 0 1-.1-.09l.34-.47a3.3 3.3 0 0 1 .06-.38 2.2 2.2 0 0 0-.98-1.09 9.02 9.02 0 0 0-1.4-.45l-2.68-6.35-.04-.04-.37-1.41a8.34 8.34 0 0 1 1.41-2.37q1.5-1.88 3.12-3.76a17.14 17.14 0 0 0 1.7-4.27q.47-1.84.84-3.6.16-.91.26-1.83.2-1.76.29-3.51a13.09 13.09 0 0 1-3.47-5.66m2-5.19a.55.55 0 0 1-.14.1q-.25.14-.47.29a.04.04 0 0 1-.04.04.3.3 0 0 0-.15.08q.08.2.19.4a.18.18 0 0 0 .12.13.08.08 0 0 1 .02.06.46.46 0 0 0 .4.15 3.61 3.61 0 0 0 .78-.2.14.14 0 0 0 .1-.05l.25-.04a6.17 6.17 0 0 1-.2.8l-.33.63-.41.27a11.33 11.33 0 0 0 3.15 5.78v.24l1.9.37.04.18a17.31 17.31 0 0 0 2.16-.67 26.12 26.12 0 0 1 .06-3.74 8.38 8.38 0 0 0 .02-1.3q0-.93.09-1.76a4.37 4.37 0 0 0 .04-.84v-.39a1.18 1.18 0 0 1 .08-.35.33.33 0 0 0 .06-.2q0-.88.06-1.78v-.1q.06-1.18.02-2.37a1.62 1.62 0 0 1 .1-.74.33.33 0 0 0 .06-.2v-.06q-.96.35-1.85.61a.52.52 0 0 1-.13.06l-.98.25-1.86.47-1.47-.06a.72.72 0 0 1-.22.12 2.63 2.63 0 0 0 .08.49 2.77 2.77 0 0 1 .12.84 1.67 1.67 0 0 1-.12.75v.04a4.06 4.06 0 0 1-.18.43.08.08 0 0 1-.02.06.2.2 0 0 0-.09.1q0 .03-.04.05a.92.92 0 0 0-.16.16 5.3 5.3 0 0 0-.43.35l-.37.34-.24.2m5.78-15.7a.2.2 0 0 0-.04-.1 1.15 1.15 0 0 0-.2-.39.8.8 0 0 1-.1-.18.92.92 0 0 0-.17-.17 8.25 8.25 0 0 0-.76-.5.64.64 0 0 0-.2-.09 1 1 0 0 0-.1-.06 1.2 1.2 0 0 1 .04.33 1.48 1.48 0 0 1-.45 1.08 2.29 2.29 0 0 1-.29.24 1.57 1.57 0 0 1-.77.2h-.07A20.1 20.1 0 0 1 22 60.32a.5.5 0 0 1 .4.28 1.39 1.39 0 0 1 .19.41 8.2 8.2 0 0 0 1.29-.02 13.84 13.84 0 0 0 2.94-.61q.9-.3 1.86-.7.04-.49.06-1 .06-.57.1-1.16a8.2 8.2 0 0 0-.1-1.3l-.12-.6a.23.23 0 0 0-.02-.1 4.3 4.3 0 0 1-.15-.96q-.12-.23-.34-.74a1.52 1.52 0 0 0-.37-.53q-.12-.02-.55-.61-.47-.6-.74-.53 0-.86-.06-1.72m-4.7-7.48a10.16 10.16 0 0 1 1.37 2.68 7.94 7.94 0 0 1 3.47 1.53 3.02 3.02 0 0 0 .72.51l.16.13q.39.28.92.63a3 3 0 0 1 .74.7q.57.69 1.14 1.3a4.34 4.34 0 0 1 .84 1.19 11.9 11.9 0 0 0 .7 1.18l.11.23a3.28 3.28 0 0 1 .4.96 1 1 0 0 0 .05.1q.09.24.15.47a20.22 20.22 0 0 0 .59 2.12 5.34 5.34 0 0 1 .18.78q1.1-.53 2.27-1a2.98 2.98 0 0 0-.8-1.4 3.06 3.06 0 0 1-.83-1.2q-.43-1.18-.94-2.3a24.36 24.36 0 0 0-11.24-8.6m-9.2.32l-.95-.2A6.33 6.33 0 0 0 12.62 45a5.67 5.67 0 0 0 .78.86 2.3 2.3 0 0 1 .26-.47 4.73 4.73 0 0 1 1.09-1.25l-.47-.27q-.88-.34-1.74-.59l-.04-.02m3.63-.8a2.7 2.7 0 0 1 .33.35 2.07 2.07 0 0 0 2.09 1 3.58 3.58 0 0 0-2.88-1.59l.26.1.2.14m59.18 23.58q-2.71-5.8-8.19-4.46a7.9 7.9 0 0 1 1.55 1.21q.53.65.98 1.33l-.3 1.3a15.92 15.92 0 0 1-1.68 4.42l-.26.1-2.09.04a29.83 29.83 0 0 1 1.86 6.03 33.46 33.46 0 0 1 .55 6.82l-.81-.1q-1.37-.19-2.9-.25-1.68-.08-3.76-.26a13.96 13.96 0 0 0 2.37 3.92 15.9 15.9 0 0 1 .53-2.15 1.11 1.11 0 0 1 .75-.77 3.05 3.05 0 0 0 .76.38 3.44 3.44 0 0 1 2.12 1.99l.47 2.12.15.67.37 1.4a11.22 11.22 0 0 0 1.81 4.14l-.24-1.14a16.5 16.5 0 0 1 1.06-8.3 5.48 5.48 0 0 0 1.04 4.78q3.78 3.54 2.33 7.44v.02l.96-.12q2.66-3.15.65-8.1a11.06 11.06 0 0 1-.02-6.61v-.16q2.6-8.42.02-14.81z" fill="#856353"/><path d="M42.1 81.27l-.39-.05.04.47.02 1.72h.29l.04 3.82v.45a2.89 2.89 0 0 1-1.74 2.19.52.52 0 0 0-.12.06l-4.27 2.12-.4.16q-.87.37-.78.8.02.3.55.63a.8.8 0 0 0 .1.05l2.6.18a10.6 10.6 0 0 0 1.2-.06q1.92-.2 2.29-.96 2.1-1.96 2.71.9l2.41-.1a3.5 3.5 0 0 0 .17-.58 14.58 14.58 0 0 0 .06-5.08l.08-1.4.2-3.06h.19l-.06-2.04v-.06h-.19l-1.12-.02z" fill="#ccc"/><path d="M38.9 61.12a21.36 21.36 0 0 1 .34 5.17q-.19 2.62-.57 5.23a12.45 12.45 0 0 0 .42 5.62 17.42 17.42 0 0 1 .7 3.2h.06l2.06.3a41.67 41.67 0 0 1-1.28-7.69.08.08 0 0 0-.06.02 2.44 2.44 0 0 1-.4-2.6 4.78 4.78 0 0 1 .25-2.32 44.54 44.54 0 0 0 1.02-5.52 5.25 5.25 0 0 0-2.55-1.4m16.59 1.14a7.4 7.4 0 0 1-1.19 3.76 9.08 9.08 0 0 1-.88 1.06 9.44 9.44 0 0 1-5.06 2.1l-1.25 1.4a4.85 4.85 0 0 1 .41.85 2.2 2.2 0 0 1 .04 1.18h-.04q.2.62.37 1.27a12.67 12.67 0 0 1 .28 2.68 10.14 10.14 0 0 0 3.78-2.23q.23-.22.43-.45-.37-6.19 5.7-7.52l-2.6-4.1m5.13-17.59q-.04.04-.04.06a7.61 7.61 0 0 0-.28 1.92.33.33 0 0 1-.06.2 1 1 0 0 0-.07.4 1.31 1.31 0 0 1-.2.69 1.34 1.34 0 0 1-.16.2 9.32 9.32 0 0 1-1.51 1.2 12.28 12.28 0 0 1-1.54.87q-.94.45-1.98.9l-.4.16a2.86 2.86 0 0 1-.21.4l-.25.58-.2.22a1.45 1.45 0 0 0 .18.07 2.98 2.98 0 0 1 .4.16 4.19 4.19 0 0 1 .58-.04l.58-.06a5.84 5.84 0 0 1 .57-.15 9.44 9.44 0 0 0 2.72-1.32q2.55-1.92 2.16-3.72a10.64 10.64 0 0 0-.29-2.74m-5.7 1.41q.43-.43.84-.8.06-.04.02-.16l-.02-.47q-.06-1-.06-2v-.12q-.47 1.02-.92 2.06l-1.06 2.66.1.08a11.36 11.36 0 0 1 1.1-1.25m-3.49-9.58h-1.16l-.7.76-1.36-.1-.76.8-1.14-.42-.13 1.98q1.27.43 2.45.8a.91.91 0 0 1 .23.08 1.82 1.82 0 0 0 .57.27h.02a1.61 1.61 0 0 1 .25.06l.47.16a.66.66 0 0 1 .4.27.47.47 0 0 0 .19.1.44.44 0 0 1 .1.08l.04.04.53-4.88m12.75 42.73l2.57.23a20.18 20.18 0 0 0-3-10.69 75.88 75.88 0 0 0-6.19-8.06l-2.04.2 5.9 9.03a.6.6 0 0 1 .06.08 12.75 12.75 0 0 1 2.7 8.9L48.1 77.7a13.47 13.47 0 0 1-.49 2.45l16.5 1.13z" fill="#d09b07"/><path class="cls-8" d="M40.44 49.62l-1.18-.04a3.1 3.1 0 0 0-2.15 1.27l-.14.35v.08a3.13 3.13 0 0 0-.04 1.12q.04.04.04.06a.45.45 0 0 1 .02.15 3.54 3.54 0 0 1 .2.57 1.83 1.83 0 0 0 .17.22.7.7 0 0 0 .08.19l.02.02a5.45 5.45 0 0 0 1.25.71h.08a.21.21 0 0 0 .04-.08q-.04-.24-.06-.49a4.3 4.3 0 0 0 1.28 1.1.45.45 0 0 1 .19.09l.02.04.71.34a6.26 6.26 0 0 1 .15-1.14 12.65 12.65 0 0 0 .2-2.86l-.7-1.53-.18-.17m8.91-4.02a.72.72 0 0 0-.06.29 4.9 4.9 0 0 0 .02.5h-.53a.74.74 0 0 0-.47.44v.06a1.17 1.17 0 0 0 .14 1.04l-.35.47a.86.86 0 0 0-.08.26l.4.82-.01.45.02.39a1.71 1.71 0 0 0 .53.8 1.7 1.7 0 0 1 .29.26 2 2 0 0 0 1.12.82 6.8 6.8 0 0 1 .67.18q.58.08 1.07.1l.5-.04.68-.12h.18a.1.1 0 0 0 .13-.04l.3-.02.25-.57a2.86 2.86 0 0 0 .2-.41q.13-.33.2-.63a4.56 4.56 0 0 0-.38-2.93l-.55-.04h-.06a4.87 4.87 0 0 1-.98-.14 6.43 6.43 0 0 1-1.27-.49 2.03 2.03 0 0 1-1.2-1.71l-.41-.05-.35.31m-3.17-20.02a.16.16 0 0 0-.02-.06.4.4 0 0 0-.06-.2.49.49 0 0 1-.08-.23l-.18-.47a2.9 2.9 0 0 0-.53-.98 11.9 11.9 0 0 0-1.66-.45 5.58 5.58 0 0 0-.49.51 1.33 1.33 0 0 1-.12.15 5.05 5.05 0 0 0-.47.94 3.08 3.08 0 0 1-.19.47 1.28 1.28 0 0 1-.08.24q0 .02-.04.02a.46.46 0 0 1-.08.2.87.87 0 0 1-.08.13 2.15 2.15 0 0 0-.12.18 2.57 2.57 0 0 1-.4.39.06.06 0 0 1-.01.04.65.65 0 0 0-.19.25.02.02 0 0 1-.01.02q-.15.18-.31.42a.72.72 0 0 0-.1.2v.07q0 .02-.05.02a3.15 3.15 0 0 0-.02.35q-.04.18.1.18l.05.02a.37.37 0 0 0 .22.06h.45l.04.04a.1.1 0 0 1 .1.06q0 .02.04.02a.27.27 0 0 0 .17.07l.04.02a1.45 1.45 0 0 0 .39.16l.02.02a3.9 3.9 0 0 1 .38.26l.02.05a.2.2 0 0 1 .15.04 1.37 1.37 0 0 0 .3.22l.02.02a2.48 2.48 0 0 0 .31.02.86.86 0 0 1 .2-.02h.15a.83.83 0 0 1 .4-.02h.07v.02h-.06a.12.12 0 0 1-.09.02.72.72 0 0 1-.2.1l-.39.15a.02.02 0 0 1-.01.02 3.96 3.96 0 0 0-.54.16.52.52 0 0 0-.12.06h-.08a.95.95 0 0 1-.19.02.08.08 0 0 1-.06-.02.45.45 0 0 1-.2-.04 1.35 1.35 0 0 1-.2-.12.64.64 0 0 0-.21-.08h-.1a.18.18 0 0 0-.08-.02 2.31 2.31 0 0 1-.41.27l-.04.02a.64.64 0 0 0-.1.22q-.05.25.08.33a.81.81 0 0 1 .12.1h.02l.04.02h.08l.02.04v.04l-.04.45a1.56 1.56 0 0 0 1.2.94q.8 0 1.6-.06.3.3.67.63l.02.02a.27.27 0 0 1 .13.2.26.26 0 0 0 .06.1 2.87 2.87 0 0 1-1.66.21h-.39a.75.75 0 0 0 .2.43 5.75 5.75 0 0 1-.4.41 1.5 1.5 0 0 0 .57.43.12.12 0 0 0 .08.02l.02.04a4.61 4.61 0 0 0 1.19.43 4.8 4.8 0 0 0 1.6.1 1.52 1.52 0 0 1 .26-.06 4.94 4.94 0 0 0 1.4-.43.72.72 0 0 0 .21-.1h.04a3.83 3.83 0 0 0 1.33-.74l.33-.38a3.92 3.92 0 0 1 .34-.45l-.18-.2-.02-.03-.25-.39a2.03 2.03 0 0 1-.22-.4l-.12-.37a.06.06 0 0 0-.02-.04 1.87 1.87 0 0 0-.1-.25.16.16 0 0 0-.02-.06v-.08a.17.17 0 0 1-.05-.12v-.09a.53.53 0 0 1-.02-.16.34.34 0 0 0-.06-.26.6.6 0 0 1-.06-.09l-.22-.14a.07.07 0 0 1-.06-.04.87.87 0 0 1-.25-.08.9.9 0 0 0-.22-.08.22.22 0 0 0-.13-.04.89.89 0 0 1-.32-.15 1.88 1.88 0 0 1-.66-.65l-.26-.5a.39.39 0 0 0-.02-.11q-.25-.47-.45-.96v-.07q-.02 0-.06-.06a3.33 3.33 0 0 0-.2-.5 2.88 2.88 0 0 1-.21-.48q-.08-.26-.19-.53"/><path class="cls-8" d="M43.59 25.86l.8.29.36.22a4.93 4.93 0 0 0-.71.05 2.6 2.6 0 0 0-.74.1.67.67 0 0 0-.2-.04 5.67 5.67 0 0 1 .06-.88l.43.26z"/><path class="cls-4" d="M54.68 61l.8 1.27 2.6 4.1Q52 67.7 52.37 73.9q-.21.23-.44.45a10.14 10.14 0 0 1-3.78 2.23v.12a8.4 8.4 0 0 1-.06 1l16.06 1.25a12.75 12.75 0 0 0-2.7-8.9.6.6 0 0 0-.06-.1l-5.9-9.02-.82.08"/><path class="cls-3" d="M23.88 74.81v-.24a11.33 11.33 0 0 1-3.15-5.79 8.24 8.24 0 0 0-.67.54 13.83 13.83 0 0 0 3.35 6.12l-.82 1a13.8 13.8 0 0 1-3.25-6.33 4.68 4.68 0 0 0-.73 1.2 13.09 13.09 0 0 0 3.47 5.67 5.33 5.33 0 0 0 .61.53l.33 1.24a30.07 30.07 0 0 0 0 11.26 9.02 9.02 0 0 0 1.06.2 25.94 25.94 0 0 1-.1-11.27l.94.08a31.56 31.56 0 0 0 .47 11.32 5.36 5.36 0 0 0 1.16-.13q-1.53-4-.7-11.4a22 22 0 0 0 10.39-5.51c.4-.36.9-.86 1.26-1.22l.55-5.16c-.6.74-1.23 1.4-1.86 2.07q-.85.9-1.73 1.65a21.89 21.89 0 0 1-6.48 4.05 17.31 17.31 0 0 1-2.16.67l-.04-.18-1.9-.37"/><path class="cls-4" d="M37.38 72.22a6.75 6.75 0 0 0-.08.73 3.62 3.62 0 0 0-.04.55 2.33 2.33 0 0 1-.02.33.77.77 0 0 0-.04.25.27.27 0 0 0 .04.22.18.18 0 0 1 .02.08q.06.57.14 1.1v.09a.52.52 0 0 0 .1.24.27.27 0 0 1 .06.17v.06a1.03 1.03 0 0 0 .15.45 1.15 1.15 0 0 1 .08.32 1 1 0 0 1 .06.1 1.34 1.34 0 0 1 .2.6.69.69 0 0 0 .13.26.7.7 0 0 1 .12.25.45.45 0 0 0 .02.14q.06.27.14.51a.33.33 0 0 1 .04.14 1.17 1.17 0 0 0 .08.27l.13.49v.1a.75.75 0 0 0 .06.23 1.52 1.52 0 0 1 .14.59l.02.39a4.19 4.19 0 0 1 .04.59q.02.08.19.06a1.09 1.09 0 0 1 .49-.1 6.8 6.8 0 0 1 .91.06.21.21 0 0 0 .09.04.39.39 0 0 0 .12.02 2.02 2.02 0 0 0 .29.02 1.33 1.33 0 0 1 .2.06.2.2 0 0 0 .1.04l.39.02-.04-.47.39.04q-.08-.32-.19-.63l-2.06-.29h-.06a17.42 17.42 0 0 0-.7-3.2 12.45 12.45 0 0 1-.42-5.62q.38-2.61.57-5.23a21.36 21.36 0 0 0-.35-5.17h-.06l-1.16-.47a12.51 12.51 0 0 0 .22 1.47l.14 1.15a15.82 15.82 0 0 1 .06 1.77q-.06 1.4-.04 1.84"/><path class="cls-4" d="M26.3 77.63l.3-.47-.3-.67a33.48 33.48 0 0 0 11.63-7.34l-.04.29v.14a2.3 2.3 0 0 1-.16.66.6.6 0 0 0-.02.14l-.13.6v.01q-.67.7-1.34 1.29a23.1 23.1 0 0 1-9.93 5.35"/><path class="cls-9" d="M28.68 59.67q-.96.4-1.86.7a13.84 13.84 0 0 1-2.94.61 8.2 8.2 0 0 1-1.29.02 2.48 2.48 0 0 1 .02.3 1.16 1.16 0 0 1-.2.7 2.15 2.15 0 0 1-.13.19l1.47.06 1.86-.47.98-.25a.52.52 0 0 0 .13-.06q.9-.26 1.85-.61l.96-.43q1.41-.7 2.86-1.27l1.2-.5q.85-.4 1.73-.78 1.4-.62 2.94-1.15 1.39-.53 2.77-1.08l-.06-.14v-.19l-.71-.34-.02-.05a.45.45 0 0 0-.19-.08 44.27 44.27 0 0 0-4.55 1.6q-1.16.47-2.27 1-1.1.49-2.16 1.06a25.53 25.53 0 0 1-2.4 1.16m-12.87 2.7a.07.07 0 0 1 .07-.04q2.53-2.61 5.41-.96v-.06a1.36 1.36 0 0 1 .19-.72 1.74 1.74 0 0 1 .22-.22 3.1 3.1 0 0 0-2.76-1 4.6 4.6 0 0 0-3.1 1.53l-.02 1.47M22 49.89a1.4 1.4 0 0 1-.15-.63 1.48 1.48 0 0 1 .1-.58 9.7 9.7 0 0 0-7.94 1.84 2.34 2.34 0 0 0 0 .76l.12.67a3 3 0 0 1 .02.33A10.12 10.12 0 0 1 22 49.89m1.06-4.27a10.16 10.16 0 0 0-1.37-2.68l-.14-.24a2.54 2.54 0 0 0-2.19.24 9.88 9.88 0 0 1 3.37 4.93 1.27 1.27 0 0 1 .62-.15h.12a8.86 8.86 0 0 0-.41-2.1"/><path class="cls-10" d="M57.68 38.5l-.26.5q-.94 1.76-1.74 3.54v.12q0 1 .06 2l.02.47q.04.12-.02.16-.4.37-.83.8a11.36 11.36 0 0 0-1.1 1.25l.36.38a4.56 4.56 0 0 1 .39 2.93q-.08.3-.2.63l.4-.16q1.04-.45 1.98-.9a12.28 12.28 0 0 0 1.54-.86 9.32 9.32 0 0 0 1.5-1.2 1.34 1.34 0 0 0 .17-.21 1.31 1.31 0 0 0 .2-.7 1 1 0 0 1 .07-.38.33.33 0 0 0 .06-.2 7.61 7.61 0 0 1 .28-1.93q0-.02.04-.06a15.14 15.14 0 0 0-.67-2.06 22.31 22.31 0 0 0-1.94-3.66l-.3-.47m-12.45-.29l-1.32-.65-1.15.8-.02.02-1.18-.84-.58.35-.87-.92a.16.16 0 0 0-.02.06q0 .02-.04.02a.39.39 0 0 1-.02.12l-.13.2a2.26 2.26 0 0 0-.2.46 1.65 1.65 0 0 0-.14.26l-.27.47a.77.77 0 0 0-.14.25q-.23.3-.45.63a1.17 1.17 0 0 1-.19.18.16.16 0 0 1-.02.07.32.32 0 0 0-.12.16.07.07 0 0 1-.06.04.16.16 0 0 1-.02.06 2.83 2.83 0 0 1-.47.61.07.07 0 0 1-.04.07.73.73 0 0 0-.2.2q-.07.06-.82 2.25a11 11 0 0 0-.66 4.4 6.01 6.01 0 0 0 .94 3.44l.07-.06a3.1 3.1 0 0 1 2.14-1.27l1.19.04.18.17 1.61 1.02a1.44 1.44 0 0 0 .35.14 6.37 6.37 0 0 0 .98.3 10.34 10.34 0 0 0 1.98.3q.8.03 1.68 0l1.88-.17h.14a1.7 1.7 0 0 0-.29-.26 1.71 1.71 0 0 1-.53-.8l-.02-.39q0-.24.02-.45l-.4-.82a.86.86 0 0 1 .07-.26l.35-.47a1.17 1.17 0 0 1-.14-1.04v-.06a.74.74 0 0 1 .47-.43h.53a4.9 4.9 0 0 1-.02-.51.72.72 0 0 1 .06-.29l.35-.3.4.03.78-3.94-.04-.04a.44.44 0 0 0-.1-.08.47.47 0 0 1-.18-.1.66.66 0 0 0-.41-.27l-.47-.16a1.61 1.61 0 0 0-.25-.06h-.02a1.82 1.82 0 0 1-.57-.27.91.91 0 0 0-.22-.08q-1.19-.37-2.45-.8l.12-1.98-.12-.06-.92.72m11.41-17.57a2.8 2.8 0 0 0-1.06-1.8l-.6.74-.05.12a1 1 0 0 0-.07.1 6.16 6.16 0 0 0-.12 2.9 5.74 5.74 0 0 0 .33 1 5.05 5.05 0 0 1 .51 1.8l.14-.94a3.05 3.05 0 0 1 .35-.57 2.01 2.01 0 0 0 .3-.53 6.54 6.54 0 0 0 .31-2q0-.35-.04-.82"/><path class="cls-10" d="M53.76 23.66l-.06.6a6.87 6.87 0 0 0 .12 2.1 5.17 5.17 0 0 0 .88 1.94l-1.22-.41q.14.55.32 1.12a12.05 12.05 0 0 0 .74 1.7 5.6 5.6 0 0 0 .53.86 9.9 9.9 0 0 0 1.35 1.57 3.36 3.36 0 0 0-1.35-.7l-.78-.16-.32-.32a6.73 6.73 0 0 0 2 3.55 1.67 1.67 0 0 1-1.1-.22q.42.75.87 1.47a2.9 2.9 0 0 0 .47.55 4.19 4.19 0 0 0 1.66.83l.02-.1.4-.7.05-.03-.06-.64a21.33 21.33 0 0 1 .75-2.16 3.45 3.45 0 0 0 .12-2.23v-.06a8.53 8.53 0 0 1-.2-2.04l-.6.65a3.76 3.76 0 0 0 .27-2q-.14-.98-.34-1.92a2.6 2.6 0 0 1-.09-.45 1.3 1.3 0 0 1-.38.51l-.35.35a3.3 3.3 0 0 0 .2-2.23 11.24 11.24 0 0 1-.26-1.45 4.75 4.75 0 0 1 .1-1.8q-.7 1.33-1.53 2.66-.1.2-.2.47v1.08l-.33-.59a6.34 6.34 0 0 0-1.41-1.63 1.07 1.07 0 0 0-.27-.17"/><path class="cls-4" d="M67.18 76.02a29.83 29.83 0 0 0-1.86-6.03 27.37 27.37 0 0 0-6.9-9.4l-.88.13a75.88 75.88 0 0 1 6.19 8.06 20.18 20.18 0 0 1 3 10.69l-2.57-.23-.04 2.03-16.5-1.13q-.25.66-.52 1.29h.19v.06l6.72.4a49.96 49.96 0 0 1 5.4.25q.42.02.85.09 2.08.18 3.76.26 1.53.06 2.9.25.4.06.81.1a33.46 33.46 0 0 0-.55-6.82z"/><path class="cls-1" d="M41.48 35.14a1 1 0 0 0-.1.06.82.82 0 0 0-.26.27.22.22 0 0 1-.08.04q-.13.12-.25.27l-.1.2-.1.16a.08.08 0 0 1-.07.02.12.12 0 0 1-.02.08l-.18.27-.2.45.88.92.57-.35 1.18.84.02-.02 1.15-.8 1.32.66.92-.72.13.06 1.14.41.76-.8 1.36.1.7-.75h1.16l.29-3.27a.94.94 0 0 1-.39-.08.06.06 0 0 1-.04-.02h-.06a.7.7 0 0 1-.19-.16 1.02 1.02 0 0 1-.26-.23.08.08 0 0 0-.02-.06.59.59 0 0 1-.19-.18 3.92 3.92 0 0 0-.34.45l-.33.38a3.83 3.83 0 0 1-1.33.74h-.04a.72.72 0 0 1-.2.1 4.94 4.94 0 0 1-1.41.43 1.52 1.52 0 0 0-.27.06 4.8 4.8 0 0 1-1.6-.1 4.61 4.61 0 0 1-1.18-.43l-.02-.04a.12.12 0 0 1-.08-.02 1.5 1.5 0 0 1-.57-.43q-.02 0-.06.04a.08.08 0 0 1-.06.02l-.29.2a.08.08 0 0 1-.08.05.32.32 0 0 1-.12.08.07.07 0 0 1-.04.06 1.53 1.53 0 0 0-.17.14 1 1 0 0 1-.1.06 2.63 2.63 0 0 0-.37.41q-.04.04-.06.04a2.79 2.79 0 0 0-.2.23q-.04.04-.06.04a.32.32 0 0 0-.09.12z"/><path class="cls-11" d="M49.1 51.38l-1.88.16q-.87.05-1.67 0a10.34 10.34 0 0 1-1.98-.28 6.37 6.37 0 0 1-.98-.3 1.44 1.44 0 0 1-.35-.15l-1.61-1.02.7 1.53a12.65 12.65 0 0 1-.21 2.86 6.26 6.26 0 0 0-.15 1.14v.19l.07.14a17.1 17.1 0 0 1 .4 6.88 44.54 44.54 0 0 1-1.02 5.52 4.78 4.78 0 0 0-.24 2.33 2.44 2.44 0 0 0 .39 2.6.08.08 0 0 1 .06-.03 41.67 41.67 0 0 0 1.28 7.68l.19.64 3.88.14.06-.2a.52.52 0 0 0 .06-.13 4.23 4.23 0 0 0 .33-1.18v-.12q.06-2.1.08-4.23v-.43a1.88 1.88 0 0 0-.14-.64l-.13-.24a3.4 3.4 0 0 0-.14-.33 3.6 3.6 0 0 1-.4-.86l-.09-.2a.76.76 0 0 1-.16-.37v-.16l-.06-.8-.04-.3v-.04q-.1-.66.3-.86h.04a.13.13 0 0 1 .06-.08 3.02 3.02 0 0 1 .5-.72 1.96 1.96 0 0 0 .5-.82 4.9 4.9 0 0 1 .27-.6.85.85 0 0 1 .12-.17.88.88 0 0 0 .17-.29 4.34 4.34 0 0 0 .2-.6 4.87 4.87 0 0 1 .43-.93l.04-.12.18-.55q.41-1.13.86-2.07a2.15 2.15 0 0 1 .12-.18 1.14 1.14 0 0 0 .09-.5q-.02-1.12-.09-2.24v-.24a2.84 2.84 0 0 0-.18-1.05.87.87 0 0 1-.08-.24 3.8 3.8 0 0 0-.18-.67q-.09-.2-.15-.41a.97.97 0 0 0-.14-.27 1.45 1.45 0 0 1-.23-.43.16.16 0 0 1 .07-.02l.45-.14a.45.45 0 0 1 .14-.06 1.29 1.29 0 0 0 .8-.84 5.95 5.95 0 0 1 .36-.82h.02a10.07 10.07 0 0 0 1.02-2.88 6.8 6.8 0 0 0-.67-.18 2 2 0 0 1-1.12-.82h-.15"/><path class="cls-4" d="M21.94 60.3a.54.54 0 0 0-.25.07 1.74 1.74 0 0 0-.22.22 1.36 1.36 0 0 0-.19.72v.06a1.08 1.08 0 0 0 .19.63.57.57 0 0 0 .47.31h.12a.72.72 0 0 0 .22-.12 2.15 2.15 0 0 0 .13-.19 1.16 1.16 0 0 0 .2-.7 2.48 2.48 0 0 0-.02-.3 1.39 1.39 0 0 0-.18-.4.5.5 0 0 0-.41-.3h-.06m2.46-12.15a1.37 1.37 0 0 0-.93-.43h-.12a1.27 1.27 0 0 0-.62.15 1.15 1.15 0 0 0-.45.28 1.56 1.56 0 0 0-.32.53 1.48 1.48 0 0 0-.1.58 1.4 1.4 0 0 0 .14.63 1.15 1.15 0 0 0 .28.45 1.52 1.52 0 0 0 1 .45h.07a1.57 1.57 0 0 0 .77-.2 2.29 2.29 0 0 0 .29-.25 1.48 1.48 0 0 0 .45-1.08 1.2 1.2 0 0 0-.04-.33 1.44 1.44 0 0 0-.41-.78"/><path class="cls-11" d="M53.7 24.25q.04-.28.06-.59a1.07 1.07 0 0 1 .27.17 6.34 6.34 0 0 1 1.4 1.63q.19.3.33.6v-1.1l-.02-.4-.14.94a5.05 5.05 0 0 0-.51-1.8 5.74 5.74 0 0 1-.33-1 6.16 6.16 0 0 1 .13-2.9 1 1 0 0 1 .06-.1l-1.07 1.49a14.87 14.87 0 0 0-.73 1.63 12.25 12.25 0 0 0-.68 2.64q-.1.57-.16 1.18l-.04.58-.04 1.22a.46.46 0 0 0-.08.2q-.04.33-.06.68l-.4 3.92-.28 3.27-.53 4.88-.78 3.94a2.03 2.03 0 0 0 1.21 1.72 6.43 6.43 0 0 0 1.27.5l.12-.77a10.57 10.57 0 0 1 .65-2.12.08.08 0 0 1 .02-.06l.13-.4.12-.34a25.37 25.37 0 0 1 1.14-3.1q.78-1.7 1.45-3.45a2.9 2.9 0 0 1-.47-.55q-.45-.72-.88-1.48a1.67 1.67 0 0 0 1.1.23 6.73 6.73 0 0 1-2-3.55l.33.32.78.17a3.36 3.36 0 0 1 1.35.69 9.9 9.9 0 0 1-1.35-1.57 5.6 5.6 0 0 1-.53-.86 12.05 12.05 0 0 1-.74-1.7q-.18-.57-.33-1.12l1.23.4a5.17 5.17 0 0 1-.88-1.93 6.87 6.87 0 0 1-.12-2.1z"/><path d="M52.35 63.33q-.77 1.33-1.53 2.53l3.47.17a7.4 7.4 0 0 0 1.19-3.76l-.8-1.27-1.33.17a10.55 10.55 0 0 1-.85 1.87 2.8 2.8 0 0 0-.15.3m9.05-45.9a1 1 0 0 0 .06.1 5.23 5.23 0 0 1 .2.93l.07.6a3.94 3.94 0 0 1 .02 1.06l-.06.94a5.64 5.64 0 0 1-.06.84 12.8 12.8 0 0 1-.37 2.12 1.43 1.43 0 0 1-.1.2 1.33 1.33 0 0 0-.1.5 7.26 7.26 0 0 1-.23 1.18.39.39 0 0 0-.02.12 2.6 2.6 0 0 0-.08.47 4.1 4.1 0 0 0-.06.72l-.1.47a.86.86 0 0 1-.03.14q-.14.65-.34 1.39a21.77 21.77 0 0 1-1.05 3v.06a3.45 3.45 0 0 1-.12 2.23 21.33 21.33 0 0 0-.75 2.16l.06.64 3.2-5.66.54-1.06q3.04-6.5 1.38-11.1a5 5 0 0 0-2.06-2.06M45.9 21.4a1.49 1.49 0 0 0-.25-.02q-1.33-.07-2.63-.07a5.3 5.3 0 0 0 .26.68.73.73 0 0 0 .2.06 16.12 16.12 0 0 1 8.26 4.6l.53.57.04-.57q.06-.62.17-1.19-.45-.37-.94-.82a1.17 1.17 0 0 1-.19-.18 9.18 9.18 0 0 0-1.33-1.27q-.4-.32-.81-.59a.57.57 0 0 1-.23-.14 3.78 3.78 0 0 0-1.8-.76 7.72 7.72 0 0 1-1.28-.3z" fill="#0d3a12"/><path d="M52.62 52.44l-.51.04q-.5-.02-1.07-.1a10.07 10.07 0 0 1-1.02 2.88H50a5.95 5.95 0 0 0-.36.82 1.29 1.29 0 0 1-.8.84.45.45 0 0 0-.14.06l-.45.14a.16.16 0 0 0-.06.02 1.45 1.45 0 0 0 .22.43.97.97 0 0 1 .14.27q.06.2.15.4a3.8 3.8 0 0 1 .18.68.87.87 0 0 0 .08.24 2.84 2.84 0 0 1 .19 1.05v.24q.06 1.12.08 2.25a1.14 1.14 0 0 1-.08.49 2.15 2.15 0 0 0-.13.18q-.45.94-.86 2.06l-.18.56-.04.12a4.87 4.87 0 0 0-.43.94 4.34 4.34 0 0 1-.2.6.88.88 0 0 1-.17.28.85.85 0 0 0-.12.16 4.9 4.9 0 0 0-.26.61 1.96 1.96 0 0 1-.52.82 3.02 3.02 0 0 0-.49.71.13.13 0 0 0-.06.09h-.04q-.4.2-.3.85v.05l.04.3q.04.39.06.8v.16a.76.76 0 0 0 .16.37l.08.2a3.6 3.6 0 0 0 .41.86 3.4 3.4 0 0 1 .14.33l.13.24a1.88 1.88 0 0 1 .14.64v.43q-.02 2.12-.08 4.22v.13a4.23 4.23 0 0 1-.33 1.18.52.52 0 0 1-.06.12l-.06.2 1.12.03q.27-.63.51-1.29a13.47 13.47 0 0 0 .5-2.45 8.4 8.4 0 0 0 .05-1v-.12a12.67 12.67 0 0 0-.28-2.68q-.16-.65-.37-1.27h.04a2.2 2.2 0 0 0-.04-1.18 4.85 4.85 0 0 0-.4-.86l1.24-1.39a33.56 33.56 0 0 0 2.47-3.33q.76-1.2 1.53-2.53a2.8 2.8 0 0 1 .14-.29 10.55 10.55 0 0 0 .86-1.88 11.29 11.29 0 0 0-.2-7.37q-.25-.67-.53-1.35m.75-7.84a.08.08 0 0 0-.02.06 10.57 10.57 0 0 0-.65 2.12l-.12.76a4.87 4.87 0 0 0 .98.14h.06l.55.04-.37-.38-.1-.09 1.06-2.65q.45-1.04.92-2.06.8-1.78 1.74-3.54l.26-.5.19-.35a4.19 4.19 0 0 1-1.66-.84q-.67 1.75-1.45 3.45a25.37 25.37 0 0 0-1.14 3.1l-.12.33z" fill="#980805"/><path d="M21.27 54.16a.73.73 0 0 0-.13-.8l-.4-.11-.43.59a.54.54 0 0 0 .08.4.3.3 0 0 0 .08.15.6.6 0 0 0 .8-.23"/><path d="M41.75 30.77l.04-.45a4.71 4.71 0 0 0-.35 1.53 1.8 1.8 0 0 1-.26.86 3.63 3.63 0 0 1-.33.47l.06-.02a14.2 14.2 0 0 1 2.47-.35h.4a2.87 2.87 0 0 0 1.65-.2.26.26 0 0 1-.06-.1.27.27 0 0 0-.13-.2l-.02-.03q-.36-.32-.67-.63-.8.06-1.6.06a1.56 1.56 0 0 1-1.2-.94m-.04-2.72h-.18a1.38 1.38 0 0 0-.2.43.06.06 0 0 1-.03.04 1.27 1.27 0 0 0-.04.31.37.37 0 0 0 .06.22.52.52 0 0 1 .06.13q.04.04.06.04a.54.54 0 0 0 .25.06.51.51 0 0 1 .29 0 .18.18 0 0 1 .08.02h.1a.64.64 0 0 1 .2.08 1.35 1.35 0 0 0 .2.12.45.45 0 0 0 .21.04.08.08 0 0 0 .06.02.95.95 0 0 0 .19-.02h.08a.52.52 0 0 1 .12-.06 3.96 3.96 0 0 1 .53-.16.02.02 0 0 0 .02-.02l.4-.14a.72.72 0 0 0 .2-.1.12.12 0 0 0 .08-.03h.06v-.02h-.06a.83.83 0 0 0-.41.02h-.14a.86.86 0 0 0-.2.02 2.48 2.48 0 0 1-.31-.02l-.02-.02a1.37 1.37 0 0 1-.31-.22.2.2 0 0 0-.14-.04l-.02-.04a3.9 3.9 0 0 0-.4-.27l-.01-.02h-.12a.07.07 0 0 1-.07-.04.32.32 0 0 1-.2-.12l-.04-.02a.27.27 0 0 1-.16-.06q-.05 0-.05-.02a.1.1 0 0 0-.1-.06l-.04-.04m4.45-2.54a.16.16 0 0 1 .02.06l.19.54a2.88 2.88 0 0 0 .2.47 3.33 3.33 0 0 1 .2.5q.05.07.07.07v.06q.2.49.45.96a.39.39 0 0 1 .02.12l.26.5a1.88 1.88 0 0 0 .66.65.89.89 0 0 0 .32.14.22.22 0 0 1 .13.04.9.9 0 0 1 .22.08.87.87 0 0 0 .25.08.07.07 0 0 0 .06.04l.22.15a.6.6 0 0 0 .06.08.34.34 0 0 1 .06.26.53.53 0 0 0 .02.17v.08a.17.17 0 0 0 .05.12v.08a.16.16 0 0 1 .02.06 1.87 1.87 0 0 1 .1.25.06.06 0 0 1 .02.04l.12.37a2.03 2.03 0 0 0 .22.4l.25.4.02.01q.1.13.18.2a.59.59 0 0 0 .19.2.08.08 0 0 1 .02.05 1.02 1.02 0 0 0 .26.23.7.7 0 0 0 .19.16h.06a.06.06 0 0 0 .04.02.94.94 0 0 0 .39.08l.39-3.92q.02-.35.06-.67a.46.46 0 0 1 .08-.2l-.92-.95a15.26 15.26 0 0 0-6-3.86 2.9 2.9 0 0 1 .52.98l.19.47a.49.49 0 0 0 .08.23.4.4 0 0 1 .06.2z" fill="#a67c52"/><path class="cls-15" d="M67.06 61.7a7.9 7.9 0 0 1 1.55 1.2q.53.66.98 1.33a18.76 18.76 0 0 1 2.86 9.78 33.54 33.54 0 0 1-1.84 9.95 4.76 4.76 0 0 0 .78 5.42q3.78 3.53 2.33 7.43v.02l.96-.12q2.65-3.15.65-8.1a11.06 11.06 0 0 1-.02-6.6v-.17q2.6-8.42.02-14.81l-.08-.88q-2.72-5.8-8.2-4.45l-.05-.02q-3.05-1.68-8.07-1.05l-.57.07a27.37 27.37 0 0 1 6.9 9.4 29.83 29.83 0 0 1 1.86 6.02 33.46 33.46 0 0 1 .55 6.82l-.82-.1q-1.36-.19-2.9-.25-1.67-.08-3.75-.26-.43-.06-.84-.08a49.96 49.96 0 0 0-5.41-.25l3.59 4.5.14.22a42.64 42.64 0 0 0 3.54 4.47 54.33 54.33 0 0 0 4.06 4.05q1.98 2.3 1.86 7.78l-.67 7.46a7.02 7.02 0 0 0-.62 4.45 2.47 2.47 0 0 0 .1.55l-2.02 1.78-.04.14a5.4 5.4 0 0 0 4.9-.88l-.18-1.14a2.09 2.09 0 0 0 .68-.45q.91-1.08.1-4.33l1.33-10.1q1.59-1.6-.1-3.73a7.33 7.33 0 0 1-.95-2.23l-.14-.5-.24-1.15a16.5 16.5 0 0 1 1.06-8.3"/><path class="cls-15" d="M47.55 80.24l16.5 1.13.05-2.02v-.31l-16.06-1.25a13.47 13.47 0 0 1-.49 2.45q-.24.66-.5 1.3h.18v.05l6.72.41a25.22 25.22 0 0 1-6.93 3.1l-.12 1.6a41.04 41.04 0 0 0 5.57 8.74 3.18 3.18 0 0 1 .41.94 3.69 3.69 0 0 1-.06 1.84 5.14 5.14 0 0 1-.3.7 44.37 44.37 0 0 1-6.6 10.2 2.62 2.62 0 0 0-.76 2.21l-2.27 1.72a3.53 3.53 0 0 0 2.86 1.88 7.17 7.17 0 0 0 1.33 0l.74-.08a4.58 4.58 0 0 0-.13-1.45l.68-1.19q.86.72 1.47-.8l.6-3.18 5.67-9.2q2.43-1.38 1.7-3.59a4.28 4.28 0 0 0-.31-.67q-.14-.68-.22-1.35a17.4 17.4 0 0 1 .4-6.7"/><path class="cls-15" d="M64.1 79.35l2.57.22a20.18 20.18 0 0 0-3-10.68 75.88 75.88 0 0 0-6.2-8.07l-2.03.2 5.9 9.03a.6.6 0 0 1 .06.08 12.75 12.75 0 0 1 2.7 8.9m2.57.54q0 .96-.08 1.96l-2.53-.16M52.09 28.75a.46.46 0 0 1 .08-.2l-.92-.95a15.26 15.26 0 0 0-6-3.86 2.9 2.9 0 0 1 .52.98l.19.47a.49.49 0 0 0 .08.23.4.4 0 0 1 .06.2.16.16 0 0 1 .02.06l.19.53a2.88 2.88 0 0 0 .2.47 3.33 3.33 0 0 1 .2.52q.04.06.07.06v.06q.2.49.44.96a.39.39 0 0 1 .02.12l.27.49a1.88 1.88 0 0 0 .65.65.89.89 0 0 0 .33.15.22.22 0 0 1 .12.04.9.9 0 0 1 .23.08.87.87 0 0 0 .24.08.07.07 0 0 0 .06.04l.23.15a.6.6 0 0 0 .06.08.34.34 0 0 1 .06.26.53.53 0 0 0 .02.17v.08a.17.17 0 0 0 .04.12v.08a.16.16 0 0 1 .02.06 1.87 1.87 0 0 1 .1.25.06.06 0 0 1 .02.04l.13.37a2.03 2.03 0 0 0 .22.4l.25.4.02.01q.1.13.18.2a.59.59 0 0 0 .18.2.08.08 0 0 1 .02.05 1.02 1.02 0 0 0 .27.23.7.7 0 0 0 .18.16h.07a.06.06 0 0 0 .04.02.94.94 0 0 0 .38.08l.4-3.92q.02-.35.06-.67z"/><path class="cls-15" d="M51.64 33.34l-.29 3.27-.37 3.84-.94 4.99a2.03 2.03 0 0 0 1.2 1.71 6.43 6.43 0 0 0 1.28.5 4.87 4.87 0 0 0 .98.14h.06l.55.04-.47-.47 1.06-2.66q.45-1.04.92-2.06.8-1.78 1.74-3.54l.26-.5.18-.35a4.19 4.19 0 0 1-1.65-.84 2.9 2.9 0 0 1-.47-.55q-.45-.72-.88-1.47a1.67 1.67 0 0 0 1.1.22 6.73 6.73 0 0 1-2-3.55l.33.32.78.17a3.36 3.36 0 0 1 1.34.7 9.9 9.9 0 0 1-1.34-1.58 5.6 5.6 0 0 1-.53-.86 12.05 12.05 0 0 1-.74-1.7q-.18-.57-.33-1.12l1.23.41a5.17 5.17 0 0 1-.88-1.94 6.87 6.87 0 0 1-.12-2.1q.04-.29.06-.6a1.07 1.07 0 0 1 .26.17 6.34 6.34 0 0 1 1.41 1.63q.19.3.33.6v-1.09l-.02-.4-.04.2-.1.73a5.05 5.05 0 0 0-.51-1.8 5.74 5.74 0 0 1-.33-1 6.16 6.16 0 0 1 .12-2.9 1 1 0 0 1 .06-.1l-1.06 1.5a14.87 14.87 0 0 0-.73 1.63 12.25 12.25 0 0 0-.68 2.63q-.1.57-.16 1.19l-.04.57-.04 1.22"/><path class="cls-15" d="M69.29 114.93h8.68l-7.99 9.97-60.93.16 9.48-10.13h5.49l1.98-8.2a6.4 6.4 0 0 1 .55-4.12 29.87 29.87 0 0 1 .98-8.52l.02-.24a18.76 18.76 0 0 1-.47-2.13 13.54 13.54 0 0 1-.2-1.49 1.5 1.5 0 0 1-.39.08 5.36 5.36 0 0 1-1.16.13 7.3 7.3 0 0 1-1.31-.13 9.02 9.02 0 0 1-1.06-.2.12.12 0 0 0-.09-.02q-.28.37-.67.8a17.29 17.29 0 0 1-4.3 3l-2.73 2.19-.4 1.75.04.04 2.67 6.36a9.02 9.02 0 0 1 1.41.45 2.2 2.2 0 0 1 .98 1.08 3.3 3.3 0 0 0-.06.39l-.35.47a.13.13 0 0 0 .1.08 1.9 1.9 0 0 0 .66.24l1.4.13a4.42 4.42 0 0 1 .6 3.33 10.95 10.95 0 0 1-.22 1.08 2.26 2.26 0 0 1-.98 1.3h-.33a2.4 2.4 0 0 1-.74-.65 4.34 4.34 0 0 0-.34-.4q-.2-.21-.45-.44a1.53 1.53 0 0 1-.5-1.04 9.36 9.36 0 0 0-.38-.96 1.15 1.15 0 0 0-.92-.61l-.73-.14a1.8 1.8 0 0 1-.68-.53 3.66 3.66 0 0 1-.33-.66 2.66 2.66 0 0 1-.22-.86 4.76 4.76 0 0 1-.1-.47l-3.5-7.15q-2.24-2.32.37-4.65a17.33 17.33 0 0 1 3.76-5.87 18.68 18.68 0 0 1 2.35-5.29 36.7 36.7 0 0 1-.45-4 31.16 31.16 0 0 1 .16-5.54 7.83 7.83 0 0 1 .56-2.1 4.68 4.68 0 0 1 .73-1.2 3.9 3.9 0 0 1 .72-.8 8.24 8.24 0 0 1 .67-.53q.2-.15.4-.27l.34-.63a6.17 6.17 0 0 0 .2-.8l-.25.04a.14.14 0 0 1-.1.04 3.61 3.61 0 0 1-.77.2.46.46 0 0 1-.41-.14.08.08 0 0 0-.02-.06.18.18 0 0 1-.13-.12l-.18-.4q-.28.11-.6.26a.46.46 0 0 1-.2.08 1.27 1.27 0 0 1-.53.1.25.25 0 0 1-.2-.1.32.32 0 0 0-.12-.08.16.16 0 0 1-.06-.02 3.33 3.33 0 0 1-.35-.45.32.32 0 0 0-.06-.08.45.45 0 0 0-.09-.19 4.98 4.98 0 0 0-.2-.5.5.5 0 0 0-.14-.21h-.06q0-.02-.04-.06a.33.33 0 0 1-.09-.02 2.11 2.11 0 0 0-.38-.2q-.02 0-.07-.05-.14-.02-.16-.1a1.2 1.2 0 0 1-.1-.12l-.33-.66v-.06a.08.08 0 0 1-.02-.06.37.37 0 0 0-.06-.23 1.61 1.61 0 0 0-.06-.24l-.02-.02v-.3a6.13 6.13 0 0 1 0-1 .07.07 0 0 0-.06.03l.02-1.47v-.18a27.26 27.26 0 0 0-1.53-5.8.08.08 0 0 0-.02-.06.57.57 0 0 1-.15-.45q0-.02-.04-.06v-.82a1.12 1.12 0 0 1-.28.47 1.12 1.12 0 0 0-.33.59v.06q-.39 0-.2-.77a9.01 9.01 0 0 0 .16-1.23 5.21 5.21 0 0 1-.82-.27 1.41 1.41 0 0 1-.6-.57 3.39 3.39 0 0 1-.07-2.14 1.26 1.26 0 0 0-.06-.74.77.77 0 0 1-.07-.3 1.6 1.6 0 0 1 .05-.35 1.98 1.98 0 0 1 .16-.55 1.59 1.59 0 0 1 .37-.57l.5-.5a2.61 2.61 0 0 0 .4-.38l.06-.41h.04a5.67 5.67 0 0 1-.78-.86 6.33 6.33 0 0 1-1.08-1.94l-.19-.47a4.77 4.77 0 0 1 4.15.88 5.26 5.26 0 0 1-.94-2.4 10.06 10.06 0 0 1 3.25.89q3.27-2 8.31.2a9.55 9.55 0 0 1 7.21 4.84 14.56 14.56 0 0 1 3.66 5.6.45.45 0 0 0-.02-.14l-.04-.07a3.13 3.13 0 0 1 .04-1.12v-.08l.14-.35-.06.06a6.01 6.01 0 0 1-.94-3.43 11 11 0 0 1 .66-4.41q.75-2.19.81-2.25a.73.73 0 0 1 .2-.2.07.07 0 0 0 .05-.06 2.83 2.83 0 0 0 .47-.62.16.16 0 0 0 .02-.06.07.07 0 0 0 .06-.04.32.32 0 0 1 .12-.16.16.16 0 0 0 .02-.06 1.17 1.17 0 0 0 .19-.19l.44-.63a.77.77 0 0 1 .15-.24l.26-.47a1.65 1.65 0 0 1 .15-.27 2.26 2.26 0 0 1 .2-.45l.12-.2a.39.39 0 0 0 .02-.13q.04 0 .04-.02a.16.16 0 0 1 .02-.06l.2-.45.2-.26a.12.12 0 0 0 .01-.08.08.08 0 0 0 .06-.02l.1-.17.1-.2.25-.27a.22.22 0 0 0 .08-.04.82.82 0 0 1 .27-.26 1 1 0 0 1 .1-.07.32.32 0 0 1 .08-.12q.02 0 .06-.04a2.79 2.79 0 0 1 .2-.22q.03 0 .07-.04a2.63 2.63 0 0 1 .37-.41 1 1 0 0 0 .1-.06 1.53 1.53 0 0 1 .16-.15.07.07 0 0 0 .04-.06.32.32 0 0 0 .13-.08.08.08 0 0 0 .08-.04l.28-.2a.08.08 0 0 0 .07-.03q.04-.04.06-.04a5.75 5.75 0 0 0 .4-.4.75.75 0 0 1-.2-.43 14.2 14.2 0 0 0-2.47.34l-.06.02a3.63 3.63 0 0 0 .33-.47 1.8 1.8 0 0 0 .26-.85 4.71 4.71 0 0 1 .35-1.54v-.04l-.02-.04h-.08l-.04-.02h-.02a.81.81 0 0 0-.13-.1q-.12-.08-.08-.33a.64.64 0 0 1 .1-.22l.05-.02a2.31 2.31 0 0 0 .4-.27.51.51 0 0 0-.28 0 .54.54 0 0 1-.25-.06q-.02 0-.06-.04a.52.52 0 0 0-.06-.12.37.37 0 0 1-.06-.23 1.27 1.27 0 0 1 .04-.3.06.06 0 0 0 .02-.04 1.38 1.38 0 0 1 .2-.43h-.26a.37.37 0 0 1-.23-.06l-.04-.02c-.1 0-.35-.6.06-.82a8.97 8.97 0 0 0 1.33-1.9 3.08 3.08 0 0 0 .19-.47 5.05 5.05 0 0 1 .47-.94 1.33 1.33 0 0 0 .12-.14 5.58 5.58 0 0 1 .49-.51.12.12 0 0 0-.08-.02l-.08-1.13a.73.73 0 0 1-.2-.06 5.3 5.3 0 0 1-.27-.68q-2.25-6.1 4.73-3.94a12.92 12.92 0 0 1 5.7 4.82m1.49-2.49l.07-.12.59-.74.43-.45a11.55 11.55 0 0 1 1.04-.78 4.72 4.72 0 0 1 4.33-.18 5 5 0 0 1 2.06 2.07q1.66 4.6-1.39 11.09l-.53 1.06-3.2 5.66v.12l-.05-.08-.4.7-.02.1"/><path class="cls-15" d="M55.54 18.94a2.8 2.8 0 0 1 1.06 1.8q.04.47.04.82a6.54 6.54 0 0 1-.3 2 2.01 2.01 0 0 1-.31.53 3.05 3.05 0 0 0-.35.57m.02.41l.2-.47q.84-1.33 1.54-2.65a4.75 4.75 0 0 0-.1 1.8 11.24 11.24 0 0 0 .26 1.44 3.3 3.3 0 0 1-.2 2.23l.34-.35a1.3 1.3 0 0 0 .4-.5 2.6 2.6 0 0 0 .07.44q.2.94.35 1.92a3.76 3.76 0 0 1-.26 2l.59-.65a8.53 8.53 0 0 0 .2 2.04v.06a3.45 3.45 0 0 1-.12 2.23 21.33 21.33 0 0 0-.76 2.17l.07.63-.05.04-.22-.6a4.42 4.42 0 0 0-1.6-1.03 1.26 1.26 0 0 1-.5-.2m-.27-10.75l-.04-4.76"/><path class="cls-16" d="M43.7 25.35l-.4.35.43.27.8.28a1.75 1.75 0 0 0-.76-.84zm1.53-.04c-.22-.43-1.17-1.11-1.84-.68"/><path class="cls-15" d="M43.59 23.3a11.9 11.9 0 0 1 1.65.44"/><path class="cls-16" d="M44.89 26.48l-.37-.23m-1.26-.54a5.67 5.67 0 0 0-.06.88"/><path class="cls-15" d="M41.91 29.38a.18.18 0 0 1 .09.02h.1a.64.64 0 0 1 .2.08 1.35 1.35 0 0 0 .2.13.45.45 0 0 0 .21.04.08.08 0 0 0 .06.02.95.95 0 0 0 .19-.02h.08a.52.52 0 0 1 .12-.06 3.96 3.96 0 0 1 .53-.17.02.02 0 0 0 .02-.01l.39-.15a.72.72 0 0 0 .2-.1.12.12 0 0 0 .09-.02h.06v-.02h-.06a.83.83 0 0 0-.41.02h-.15a.86.86 0 0 0-.2.02 2.48 2.48 0 0 1-.3-.02l-.03-.02a1.37 1.37 0 0 1-.3-.23.2.2 0 0 0-.15-.04l-.02-.04a3.9 3.9 0 0 0-.38-.27l-.02-.02h-.13a.07.07 0 0 1-.06-.04.32.32 0 0 1-.2-.12l-.04-.02a.27.27 0 0 1-.17-.06q-.04 0-.04-.02a.1.1 0 0 0-.1-.06l-.04-.04h-.19m.96.36a1.45 1.45 0 0 1-.38-.16"/><path class="cls-15" d="M42.63 28.05v.2l-.06.17a.17.17 0 0 1-.15.1m.9 4.4h.4a2.87 2.87 0 0 0 1.65-.2.26.26 0 0 1-.07-.11.27.27 0 0 0-.12-.2l-.02-.03q-.37-.32-.67-.63-.8.06-1.6.06a1.56 1.56 0 0 1-1.2-.94l.04-.45m5.59.72c.19.65-1.9 1.5-1.95 1.57m-2.25 1.04a1.5 1.5 0 0 0 .57.43.12.12 0 0 0 .08.02l.02.04a4.61 4.61 0 0 0 1.19.43 4.8 4.8 0 0 0 1.6.1 1.52 1.52 0 0 1 .26-.06 4.94 4.94 0 0 0 1.4-.43.72.72 0 0 0 .21-.1h.04a3.83 3.83 0 0 0 1.33-.73l.33-.4a3.92 3.92 0 0 1 .34-.44m-6.8 1.57l-.59 1.76m-1.04 2.1l.87.28-.04.01.96-.68.58.29.75.37.92-.72.12.06 1.15.41.75-.79 1.37.1.7-.76h1.16m-9.85 1.02l-.57.35-.04-.06a54.56 54.56 0 0 0-.59 10.27l.08 1.54.19.16 1.14.74.35-12.59zm-.61.29l-.84-.86m4.93-2.39l-.21 1.68m12.63-8.93l-.43.6a1.64 1.64 0 0 0-.43 1.36q.02.41-.12.23l.02.8a7.03 7.03 0 0 1 .47 2.26l.06.53.04.27a1.74 1.74 0 0 1 .14-.88 1.35 1.35 0 0 1 .12-.2 3.82 3.82 0 0 1 .02-1.72q.25-.86.47-1.72m-.73-4.49a20.53 20.53 0 0 0-.43 2.1q-.18 1.04-.3 2.05l.12.71v.29"/><path class="cls-15" d="M56.29 30.06v.02l.15.32-.27-.73.1.35.02.04zm-.59-3.91a7.95 7.95 0 0 0 .53 2.25.73.73 0 0 1 .06.2"/><path class="cls-15" d="M56.27 30.01a17.05 17.05 0 0 0-1.32-1.26 1.81 1.81 0 0 1-.31-.35m-.1-2.47a6.24 6.24 0 0 0 .96 1.96 4.14 4.14 0 0 1 .67 1.78m.19 3.57a.27.27 0 0 1 .12.1l.6.72-.07-.45v-.14m-2.25-4.01q.66.94 1.27 1.92a4.4 4.4 0 0 1 .61 1.62"/><path class="cls-15" d="M58.01 36.86a4.8 4.8 0 0 1-.45-.74 4.17 4.17 0 0 1-.33-1.4 3.7 3.7 0 0 0-.22-1.11m-1.68-.43a11.8 11.8 0 0 1 1.37 1.9l.6.98m-.03-3.68a3.6 3.6 0 0 1 .8-1.12l.23-.33m-.09 5.85a4.8 4.8 0 0 1-.26-2.17 18.3 18.3 0 0 1 .28-2.06m-6.03-5.23l-.52-.57a16.12 16.12 0 0 0-8.25-4.6m4.82 12.13l.47 1.19m1.1-2.02l.69 1.32m-.41-2.39a5.5 5.5 0 0 1-3.5 1.6q-2.48.16-3.07-.64m6.51 12.1l-.4-.04-.35.3a.72.72 0 0 0-.06.29 4.9 4.9 0 0 0 .02.5 1.49 1.49 0 0 0 .26.83 4.23 4.23 0 0 0 .72.8 5.5 5.5 0 0 0 .94.6m5.59-12.01a2.52 2.52 0 0 1 .86 1.07l.2.36m-.2.46l.3.46a22.31 22.31 0 0 1 1.95 3.66 15.14 15.14 0 0 1 .67 2.06 10.64 10.64 0 0 1 .29 2.74q.39 1.8-2.17 3.72a9.44 9.44 0 0 1-2.71 1.33 5.84 5.84 0 0 0-.57.14l-.58.06a4.19 4.19 0 0 0-.59.04 2.98 2.98 0 0 0-.39-.16 1.45 1.45 0 0 1-.18-.06l.2-.23-.3.02a.1.1 0 0 1-.13.04h-.18l-.67.13q.28.67.53 1.34a11.29 11.29 0 0 1 .2 7.38l1.33-.17.82-.08M46.9 36.14l-.33-1.37m-35.09 8.4l.96.2.04.02q.86.25 1.73.6l.47.26q.3-.26.8-.65l-.04-.02m.43-1.15l-.27-.1a3.58 3.58 0 0 1 2.88 1.6 2.07 2.07 0 0 1-2.08-1 2.7 2.7 0 0 0-.33-.35l-.2-.15z"/><path class="cls-15" d="M14.68 44.25a4.73 4.73 0 0 0-1.08 1.25 2.3 2.3 0 0 0-.26.47m5.82-3a.3.3 0 0 0 .14.08 2.54 2.54 0 0 1 2.19-.25l.14.25a24.36 24.36 0 0 1 11.23 8.6q.52 1.12.94 2.3a3.06 3.06 0 0 0 .84 1.21 2.98 2.98 0 0 1 .8 1.39 44.27 44.27 0 0 1 4.55-1.6 4.3 4.3 0 0 1-1.28-1.1l.06.5a.21.21 0 0 1-.04.07h-.08a5.45 5.45 0 0 1-1.25-.71l-.02-.02a.7.7 0 0 1-.08-.18 1.83 1.83 0 0 1-.17-.23.16.16 0 0 1-.02-.06 3.26 3.26 0 0 1-.14-.39q0-.02-.04-.06v-.06a3.54 3.54 0 0 1 .2.57M17.75 42.07a5.84 5.84 0 0 1 1.29.8"/><path class="cls-15" d="M15.48 43.6a4.9 4.9 0 0 0 1.15 1.1 6.9 6.9 0 0 0-.4 1.06q-.1.53-.16 1.03a2.64 2.64 0 0 1-.3 1.06 2.36 2.36 0 0 1-.55.67 5.9 5.9 0 0 0-.72.72l-.16.26a3.77 3.77 0 0 0-.3.72 2.17 2.17 0 0 0-.09.4 9.7 9.7 0 0 1 7.95-1.83 1.56 1.56 0 0 1 .32-.53 1.15 1.15 0 0 1 .45-.29 9.88 9.88 0 0 0-3.37-4.92"/><path class="cls-9" d="M23.28 50.79a31.97 31.97 0 0 1-.38 6.24c-.5 1.93-.96 3.28-.96 3.28l.65.7a38.96 38.96 0 0 0 1.46-4.94 20.68 20.68 0 0 0 .23-3.85c-.14-.6-.46-1.5-.46-1.5z"/><path class="cls-15" d="M21.63 43.05A10.16 10.16 0 0 1 23 45.72a8.86 8.86 0 0 1 .4 2.1 1.37 1.37 0 0 1 .95.44 1.44 1.44 0 0 1 .4.77 1.2 1.2 0 0 1 .05.33 1.48 1.48 0 0 1-.45 1.08 2.29 2.29 0 0 1-.29.25 17.5 17.5 0 0 1-1.51 10.05"/><path class="cls-15" d="M23.4 47.83h-.12a1.27 1.27 0 0 0-.6.14M15.77 61a4.6 4.6 0 0 1 3.1-1.53 3.1 3.1 0 0 1 2.76 1 .54.54 0 0 1 .25-.06h.06a20.1 20.1 0 0 0 1.28-9.52 1.52 1.52 0 0 1-1-.45 1.15 1.15 0 0 1-.28-.45 10.12 10.12 0 0 0-7.85 2.4 6.65 6.65 0 0 1 .04.73 1.31 1.31 0 0 1-.1.5"/><path class="cls-15" d="M21.94 50a1.4 1.4 0 0 1-.15-.64 1.48 1.48 0 0 1 .1-.57m2.17 1.9a1.57 1.57 0 0 1-.78.2h-.06"/><path class="cls-16" d="M20.23 52.16a3.08 3.08 0 0 0-1.13.53 2.17 2.17 0 0 0-.55 1.05c-.04.56.23 1.41.15 1.5m2.7-2.8l-.71.72.4.12a.73.73 0 0 1 .13.8.6.6 0 0 1-.8.22.3.3 0 0 1-.08-.14.54.54 0 0 1-.08-.4 4.17 4.17 0 0 1-.6.79q-.11.16-.26.32a1.21 1.21 0 0 0 1.02.09 1.54 1.54 0 0 0 .72-.41 2.08 2.08 0 0 0 .49-.96 3.8 3.8 0 0 0 .06-.74 1.67 1.67 0 0 1 .25-.8l-.19.1-.35.3"/><path class="cls-15" d="M21.94 60.41a.5.5 0 0 1 .4.29 1.39 1.39 0 0 1 .19.4 8.2 8.2 0 0 0 1.29-.02v-.18a.8.8 0 0 0 .06-.16v-.06a2.03 2.03 0 0 0 .06-.31v-.06a.8.8 0 0 1 .06-.17v-.06a.48.48 0 0 1 .08-.3q.04-.02.04-.04a3.2 3.2 0 0 1 .33-.72.08.08 0 0 0 .02-.06.52.52 0 0 1 .06-.12 5.07 5.07 0 0 1 .33-.47 8.56 8.56 0 0 1 .59-.76 6.2 6.2 0 0 0 .73-1.37.13.13 0 0 1 .07-.08.82.82 0 0 0 .16-.45v-.06a.33.33 0 0 0 .04-.14 2.38 2.38 0 0 1 .1-.37.22.22 0 0 0 .04-.12l.02-1.25a4.75 4.75 0 0 0-.08-.6v-.05a1.44 1.44 0 0 1-.08-.35m-12.5-2.14a2.34 2.34 0 0 0 0 .75l.12.68a3 3 0 0 1 .02.32"/><path class="cls-16" d="M20.69 53.16l-.43.59m-1.49 1.45c.08-.03.02.01.1-.04a.75.75 0 0 0 .39-.14l.14-.15"/><path class="cls-15" d="M19.22 65.13a3.54 3.54 0 0 1-.2-.57v-.09a1.78 1.78 0 0 1 .2-.57.08.08 0 0 0 .04-.08 3.42 3.42 0 0 1 .35-.4 1.33 1.33 0 0 0 .14-.13l.33-.27a.2.2 0 0 1 .14-.06q.04 0 .04-.02a.14.14 0 0 0 .1-.04q.13-.02.13.06l.04.04a1.38 1.38 0 0 1 .02.23.28.28 0 0 1-.06.14.23.23 0 0 1-.02.1.23.23 0 0 0-.04.2v.07q.04 0 .04.02l.02.04.04.06h-.04a.16.16 0 0 1-.02-.06q-.04-.04-.04-.06-.09-.14-.3-.06l-.03.02q-.02.04-.04.04a.52.52 0 0 0-.06.12 1.6 1.6 0 0 0-.19.68.67.67 0 0 0 .02.16m1.78 2.5a3.08 3.08 0 0 0 .47-.25l.47-.29q.27-.18.51-.39a.32.32 0 0 1 .06-.08 3.71 3.71 0 0 1 .3-.45v-.06q.05 0 .05-.02a1.6 1.6 0 0 0 .14-.57.07.07 0 0 0 .04-.06q.02-.23.02-.5a.8.8 0 0 0-.12-.44.34.34 0 0 0-.29-.2.32.32 0 0 0 .13-.09.73.73 0 0 0 .16-.33 6.5 6.5 0 0 0 .14-1.12l-1.47-.06a.72.72 0 0 1-.22.12 2.63 2.63 0 0 0 .08.5 2.77 2.77 0 0 1 .12.83 1.67 1.67 0 0 1-.12.76v.04a4.06 4.06 0 0 1-.18.43.08.08 0 0 1-.02.06.2.2 0 0 0-.09.1q0 .02-.04.04a.92.92 0 0 0-.16.16 5.3 5.3 0 0 0-.43.35l-.37.35-.24.2a.55.55 0 0 1-.14.1l-.47.29a.04.04 0 0 1-.04.04.3.3 0 0 0-.15.08m4.07-5.66a13.84 13.84 0 0 0 2.94-.6l.12-1.4a9.53 9.53 0 0 0-.43-3.57m8.99 1.04q-1.17.47-2.27 1-1.1.49-2.16 1.06a25.53 25.53 0 0 1-2.4 1.17q-.95.38-1.85.7m-5.13-.01a1.74 1.74 0 0 0-.22.23 1.36 1.36 0 0 0-.19.71v.06a1.08 1.08 0 0 0 .19.64.57.57 0 0 0 .47.3H22"/><path class="cls-15" d="M22.53 61.1a2.48 2.48 0 0 1 .02.31 1.16 1.16 0 0 1-.2.7 2.15 2.15 0 0 1-.13.18m1.48.06l1.85-.47.98-.25a.52.52 0 0 0 .12-.06q.9-.26 1.86-.6l.96-.44q1.41-.7 2.86-1.26l1.2-.52 1.72-.77q1.41-.61 2.95-1.15 1.39-.53 2.77-1.08l-.06-.14v-.18l-.71-.35-.02-.04a.45.45 0 0 0-.19-.08m-18.77 6.51q-2.88-1.65-5.41.96M20 69.42a13.83 13.83 0 0 0 3.35 6.13l.47-.56v-.32a11.33 11.33 0 0 1-3.15-5.78"/><path class="cls-15" d="M23.35 75.55l-.82 1-.12.12.22.94.33 1.25v.06l.96.12.94.08.37.02.12-.14.9-1.27.28-.47-.28-.67-.49-1.12-.05-.19-1.89-.37m0-.24q0-.94.06-1.86a28.15 28.15 0 0 1 .98-5.68q.8-2.78 1.67-5.5"/><path class="cls-15" d="M26.25 76.59a33.48 33.48 0 0 0 11.62-7.34 1.11 1.11 0 0 1 .04-.3v-.08q.02-.35.02-.72l.06-1.16q-.92 1.1-1.86 2.1-.86.9-1.73 1.66a21.89 21.89 0 0 1-6.48 4.04 17.31 17.31 0 0 1-2.16.67M25.35 79a2.2 2.2 0 0 1 .45-.08 22 22 0 0 0 10.37-5.52q.6-.53 1.15-1.08.02 0 .02-.04v-.06a1.14 1.14 0 0 0 .12-.55 1.57 1.57 0 0 1 .06-.58q-.67.7-1.35 1.29a23.1 23.1 0 0 1-9.92 5.35m-3.62-.13a5.33 5.33 0 0 1-.61-.52 13.09 13.09 0 0 1-3.47-5.66m.73-1.21a13.8 13.8 0 0 0 3.25 6.34m31.31-24.19l.25-.57a2.86 2.86 0 0 0 .2-.4q.13-.34.2-.64a4.56 4.56 0 0 0-.38-2.92m-4.86-1.33h-.53a.74.74 0 0 0-.47.43v.06a1.17 1.17 0 0 0 .14 1.04.52.52 0 0 1 .06.12 4.5 4.5 0 0 0 .45.43q.39.4.8.74l.73.5"/><path class="cls-15" d="M48.39 48.03l-.35.47a.86.86 0 0 0-.08.27l.4.81 1.36 1.27"/><path class="cls-15" d="M48.37 49.58q-.02.2-.02.45l.02.4a1.71 1.71 0 0 0 .53.79 1.7 1.7 0 0 1 .29.26 2 2 0 0 0 1.12.82 6.8 6.8 0 0 1 .67.18q.58.09 1.07.1l.5-.03"/><path class="cls-15" d="M49.19 51.48h-.15l-.08.94q-.24 1.33-.53 2.41a2.03 2.03 0 0 0-.06.31 6.13 6.13 0 0 0 0 1.23 1.21 1.21 0 0 0 .26.71 1.44 1.44 0 0 0 .35.29 1.04 1.04 0 0 0 .96-.4l.35-.48a1.81 1.81 0 0 1 .14-.33q.27-.47.55-1.02.45-1.04.86-2.06a3.74 3.74 0 0 0 .2-.5m-3-1.1l-1.88.17q-.87.04-1.67 0a22.08 22.08 0 0 1-2.93-.54"/><path class="cls-15" d="M40.57 49.89l.69 1.53.92.37a14.6 14.6 0 0 0 4.98.76l1.8-.13m4.34 8.85a10.55 10.55 0 0 1-.87 1.88 2.8 2.8 0 0 0-.14.28q-.78 1.33-1.53 2.54a33.56 33.56 0 0 1-2.47 3.33 9.44 9.44 0 0 0 5.06-2.1 9.08 9.08 0 0 0 .88-1.07 7.4 7.4 0 0 0 1.19-3.76l-.8-1.27m2.86-.28l.88-.12"/><path class="cls-15" d="M42.53 51.05a1.44 1.44 0 0 1-.35-.14l-.47-.28m-1.33-.9l-1.18-.04a3.1 3.1 0 0 0-2.15 1.26m3.86 4.48a6.26 6.26 0 0 1 .15-1.15 12.65 12.65 0 0 0 .2-2.86M38 66.99q-.03-.45.03-1.84a15.82 15.82 0 0 0-.06-1.78l-.14-1.14a12.51 12.51 0 0 1-.23-1.47L36.46 60a2.1 2.1 0 0 1-.8-2.02"/><path class="cls-15" d="M38.83 61.23a21.36 21.36 0 0 1 .35 5.17q-.19 2.61-.58 5.22a12.45 12.45 0 0 0 .43 5.62 17.42 17.42 0 0 1 .7 3.2h.06l2.06.3a41.68 41.68 0 0 1-1.28-7.69.08.08 0 0 0-.07.02 2.44 2.44 0 0 1-.38-2.59 4.78 4.78 0 0 1 .24-2.33 44.54 44.54 0 0 0 1.02-5.51 5.25 5.25 0 0 0-2.55-1.41h-.06l-1.17-.47m3.37-5.01a17.1 17.1 0 0 1 .41 6.89m-3.86 8.46v-.03l.12-.59a.6.6 0 0 1 .02-.14 2.3 2.3 0 0 0 .17-.66v-.14l.04-.28"/><path class="cls-15" d="M37.05 88.99l-.08.24 5.07-1.9-.04-3.82h-.29l-.02-1.71-.39-.02a.2.2 0 0 1-.1-.04 1.33 1.33 0 0 0-.2-.07 2.02 2.02 0 0 1-.3-.02.39.39 0 0 1-.11-.02.21.21 0 0 1-.08-.04 6.8 6.8 0 0 0-.92-.06 1.09 1.09 0 0 0-.5.1q-.16.02-.18-.06a4.19 4.19 0 0 0-.04-.59l-.02-.39a1.52 1.52 0 0 0-.14-.59.75.75 0 0 1-.06-.23v-.1q-.07-.22-.13-.49a1.17 1.17 0 0 1-.08-.26.33.33 0 0 0-.04-.15q-.08-.24-.14-.5a.45.45 0 0 1-.02-.15.7.7 0 0 0-.13-.24.69.69 0 0 1-.12-.27 1.34 1.34 0 0 0-.2-.6 1 1 0 0 0-.06-.1 1.15 1.15 0 0 0-.09-.32 1.03 1.03 0 0 1-.14-.45v-.06a.27.27 0 0 0-.06-.17.52.52 0 0 1-.1-.24v-.08q-.08-.53-.14-1.1a.18.18 0 0 0-.02-.09.27.27 0 0 1-.05-.22.77.77 0 0 1 .05-.25 2.33 2.33 0 0 0 .02-.32 3.62 3.62 0 0 1 .04-.56 6.75 6.75 0 0 1 .08-.73m10.72 5.48a8.4 8.4 0 0 0 .06-1v-.13a12.67 12.67 0 0 0-.28-2.68q-.17-.65-.37-1.26a13.05 13.05 0 0 0-2.06-.3 9.08 9.08 0 0 0-4.82.62m1.28 7.68l.19.64 5 .16m-5-.16l-.39-.04.04.47"/><path class="cls-15" d="M48.1 76.8a91.7 91.7 0 0 0 15.15 1.12c-.14-3.15-.8-4.74-3-8.04l-.5-.67-4.33-6.84m-7.97 10.36h.04a2.2 2.2 0 0 0-.04-1.19 4.85 4.85 0 0 0-.4-.86h-.03q-.71-.16-1.39-.26a15.32 15.32 0 0 0-5.51.06m8.17-1.18l-1.25 1.38m.19 10.91l.06 2.05h-.19l-.08 1.47m.08-1.47l-5.1-.13m4.22-45.86l-.73 14m-3.45 35.68v.45a2.89 2.89 0 0 1-1.74 2.19.52.52 0 0 0-.12.06l-4.27 2.12-.41.17q-.86.36-.78.8.02.3.56.63a.8.8 0 0 0 .1.04l2.6.18a10.6 10.6 0 0 0 1.2-.06q1.92-.2 2.28-.96 2.1-1.96 2.72.9l2.41-.1a3.5 3.5 0 0 0 .16-.58 14.58 14.58 0 0 0 .07-5.08l.08-1.39M32.68 98.63l1.72-2.47.87-2.41m.64-1.6l1.06-2.92m-12.95 25.7l-.06.33q-1.43 2.59-.9 3.14a5.02 5.02 0 0 0-2.04 1.72q1.3 1.8 4.16.81l-.18-1.96 1.06-.18q.33-1.92.8-3.86a72.52 72.52 0 0 1 2.06-7.23q1.8-2.86 1.68-4.6l1.39-3.43.59-.84m10.32 14.22l-.05.02-.87 1.86-.56 1.12q2.03 1.94 5.66.15a2.25 2.25 0 0 0 .7-1.27h-.7m.74-.08a.08.08 0 0 0-.04.08h18.07m-45.63-7.99a2.9 2.9 0 0 1 0 1.08 2.98 2.98 0 0 1-.27.84 4.95 4.95 0 0 1-.81 1.2l-.47.2m-.53-2.76a1.3 1.3 0 0 1-.74.73 6.11 6.11 0 0 1-.77.3"/><path class="cls-15" d="M25.18 120.93l.09 1q-2.72 2.6-5.44.99a6.63 6.63 0 0 1 1.19-2.8m20.96-5.19H26.86m41.94 1.59l.14.8a5.88 5.88 0 0 1-5.86 3.23l.81-3.15M25.8 78.92q-.84 7.4.7 11.4m-1.17.12a31.56 31.56 0 0 1-.47-11.32m2 6.28a30.04 30.04 0 0 0 .02 4.83m-2.96-11.19a25.94 25.94 0 0 0 .1 11.27m-1.06-.2a30.07 30.07 0 0 1 0-11.25"/><path d="M43.68 26.13a.47.47 0 0 1 0 .4c-.11.2-.41.28-.48.15a2.95 2.95 0 0 1 .05-.83z"/><path class="cls-17" d="M58.8 77l-.39.33a.08.08 0 0 1-.1-.01l-.06-.34-.31-.1a.08.08 0 0 1 0-.11l.4-.32a.08.08 0 0 1 .1 0l.37.45a.08.08 0 0 1-.01.1z"/><path class="cls-17" d="M58.99 76.49l-.37.3a.07.07 0 0 1-.1 0l-.39-.47a.07.07 0 0 1 .01-.1l.37-.3m3.29-1.42l.39-.31a.08.08 0 0 0 0-.11l-.32-.12-.04-.32a.08.08 0 0 0-.11-.01l-.38.32a.08.08 0 0 0-.01.1l.36.45a.08.08 0 0 0 .11 0z"/><path class="cls-17" d="M61.26 74.6l.36-.3a.07.07 0 0 0 .01-.1l-.39-.47a.07.07 0 0 0-.1 0l-.36.3"/><path class="cls-1" d="M60.45 73.65l-.64-.77a.12.12 0 0 0-.17-.01l-2.06 1.72a.12.12 0 0 0-.02.17l.6.71c0 .02.94 1.14.95 1.16a1.47 1.47 0 0 0 2.27-1.89l-.93-1.09z"/><path class="cls-4" transform="rotate(-39.79 58.75 73.89)" d="M57.28 73.66h2.93v.46h-2.93z"/><path d="M60.45 73.65l-.64-.77a.12.12 0 0 0-.17-.01l-2.06 1.72a.12.12 0 0 0-.02.17l.6.71c0 .02.94 1.14.95 1.16a1.47 1.47 0 0 0 2.27-1.89l-.93-1.09z" stroke-miterlimit="10" stroke-width=".3" stroke="#000" fill="none"/><path stroke-width=".2" stroke-miterlimit="10" stroke="#000" fill="none" d="M57.8 74.99l2.22-1.86"/><path stroke-width=".2" stroke-linecap="round" stroke-linejoin="round" stroke="#000" fill="#fbc219" d="M60.85 75.57l-.6.13-.23.56-.3-.53-.61-.04.41-.45-.15-.59.56.24.51-.32-.06.61.47.39z"/></g></g></g></g></svg>