<svg xmlns="http://www.w3.org/2000/svg" viewBox="0 0 87 140"><defs><style>.cls-1{fill:#fff}.cls-3{fill:#325723}.cls-9{fill:#0065b7}.cls-14,.cls-15{fill:none;stroke:#000;stroke-linecap:round;stroke-linejoin:round}.cls-14{stroke-width:.4px}.cls-15{stroke-width:.3px}</style></defs><g id="Livello_2" data-name="Livello 2"><g id="Livello_1-2" data-name="Livello 1"><g id="Livello_2-2" data-name="Livello 2"><g id="Livello_1-2-2" data-name="Livello 1-2"><rect class="cls-1" width="87" height="140" rx="6" ry="6"/><path d="M45.25 117.74l-.45.12a13.3 13.3 0 0 1-2.11.33q-.74.1-1.51.25a.63.63 0 0 0-.27.74 1.77 1.77 0 0 0 1.27 1.31 8.91 8.91 0 0 0 2 .35 8.91 8.91 0 0 0 3.07 0 10.35 10.35 0 0 0 2.19-.37v.78a23.74 23.74 0 0 1 2.62.1 1.73 1.73 0 0 0 2-.94 2.52 2.52 0 0 0 .27-.84 10.58 10.58 0 0 0 .1-1.41 1.2 1.2 0 0 1 0-.29 2.34 2.34 0 0 0-.33-.84.67.67 0 0 0-.27-.25 2.7 2.7 0 0 1-1.51.49 8.14 8.14 0 0 1-2.76-.49l-.31-.59a4.19 4.19 0 0 0-2.6 1 3.23 3.23 0 0 1-1.49.59m-10.59-1.21a3.19 3.19 0 0 1-1 0 4.21 4.21 0 0 1-1.9-.76 10.09 10.09 0 0 0-2.23 1.84l-.18.2q-.33.31-.65.57a18 18 0 0 1-1.47 1.15A9.3 9.3 0 0 1 24.6 121q-.78.25-1.51.53a1.34 1.34 0 0 0-.47.37 2.17 2.17 0 0 0 2.52 1.29 13.93 13.93 0 0 0 2.8-.53 23.8 23.8 0 0 0 2.68-1.06 26.79 26.79 0 0 1 2.62-1.1l.22.7q1.17-.25 2.43-.57a.61.61 0 0 0 .59-.43 8 8 0 0 0 .31-2.29v-1.1a1.29 1.29 0 0 0-.57-1.06 3.13 3.13 0 0 1-1.56.78z" fill="#ccc"/><path class="cls-3" d="M36.79 117.86a8 8 0 0 1-.31 2.29.61.61 0 0 1-.59.43q-1.27.33-2.43.57l-.22-.7a26.79 26.79 0 0 0-2.62 1.1 23.8 23.8 0 0 1-2.68 1.06 13.93 13.93 0 0 1-2.8.53 2.17 2.17 0 0 1-2.52-1.29 1.34 1.34 0 0 1 .47-.37q.74-.29 1.51-.53a9.3 9.3 0 0 0 2.6-1.39 18 18 0 0 0 1.47-1.15q.33-.27.65-.57H14.9V125h56.37v-7.14H54.52a1.2 1.2 0 0 0 0 .29 10.58 10.58 0 0 1-.1 1.41 2.52 2.52 0 0 1-.27.84 1.73 1.73 0 0 1-2 .94 23.74 23.74 0 0 0-2.62-.1v-.78a10.35 10.35 0 0 1-2.19.37 8.91 8.91 0 0 1-3.07 0 8.91 8.91 0 0 1-2-.35 1.77 1.77 0 0 1-1.27-1.31.63.63 0 0 1 .27-.74l1.51-.25a13.3 13.3 0 0 0 2.11-.33h-8m15.19-24.22h-.16l-2.09.53a7.79 7.79 0 0 1-.78.18 8.31 8.31 0 0 1-1.08.08h-1.08a3.64 3.64 0 0 0 .22 2.76 1.69 1.69 0 0 0 .29.43 2.34 2.34 0 0 0 .86 2.54 1.26 1.26 0 0 0 .22.14l.35.25.51.18a5.54 5.54 0 0 0 2.66-.12 10.08 10.08 0 0 0 1.62-.51l.31-.12a4.31 4.31 0 0 1 1-.39l.1-.16a2 2 0 0 0 .22-.41 1 1 0 0 0 0-.67l-.12-.16a.25.25 0 0 0-.18-.12.47.47 0 0 1-.18-.1q-.08-.14-.41-.08a2.33 2.33 0 0 1-.61 0h-.11q-.1 0-.1-.06a1.23 1.23 0 0 1 0-.43.72.72 0 0 1 .14-.27l.12-.12a7 7 0 0 0 .51-.92 1.33 1.33 0 0 0 .16-.63v-.12q.06-1.08.06-2.15l-.29.06a21.19 21.19 0 0 0-2.13.45M27.52 22.17a.77.77 0 0 0-.18-.31q-.7-.78-1.41-1.51-5.28 1.57-6.36 9.39v.12a50.47 50.47 0 0 0 .51 11.08q.37 2.6 1.06 5.93a1.77 1.77 0 0 0 0-.25v-1.57l-.14-.73v-.78l.51-2.5q.12.22.29.47a3.4 3.4 0 0 1 .84 1.66 6.26 6.26 0 0 0-.27-1.17 7.94 7.94 0 0 1 .51-6.56.83.83 0 0 0 .14.37 7.41 7.41 0 0 1 1.12 5.56l.35-.53a4.58 4.58 0 0 0 .17-3.84 7 7 0 0 1 0-5.3 1.73 1.73 0 0 0 .25.37q.88 1 1.76 1.9a7.64 7.64 0 0 1-.06-6.3v.82a1.86 1.86 0 0 0 .29.41q.7.61 1.45 1.19a9.12 9.12 0 0 1-.69-7.09 2 2 0 0 0 .25.51l.08.1a8.88 8.88 0 0 0-.47-1.47m35.03 17.7l-.18.16-.27.22a1 1 0 0 1-.18.14.32.32 0 0 1-.27.1.22.22 0 0 1-.12 0h-.06a24.16 24.16 0 0 1-1.78 10.21 4.7 4.7 0 0 0 4.25-4.46 8.8 8.8 0 0 1 1-3.07 23 23 0 0 0-2.43-3.27m-19.96.5l-1 .89a16.47 16.47 0 0 0-2.07 2.07q-2.19 3.77.28 6.8a6.09 6.09 0 0 0 1.06 1.06q4.15 2.74 7.57-.69v-.15l.06-.15.19-.45a9.17 9.17 0 0 0-.15-5.83h-.19a.69.69 0 0 0-.21 0h-.19a.38.38 0 0 1-.28-.08h-.06l-.12-.21v-.43a1.39 1.39 0 0 1-.17.21.49.49 0 0 1-.45.12h-.06l-.19-.06h-.06a.12.12 0 0 0-.08-.08l-.93-.65h-.06a.89.89 0 0 0-.23-.17h-.06a1.7 1.7 0 0 0-.28-.26v-.17a.89.89 0 0 1 .08-.53l-.15.1h-.12a1.7 1.7 0 0 1-.59-.06 1.46 1.46 0 0 1-.49-.26l-.55-.57H43q-.21-.21-.45-.4m11.66-20.07a.73.73 0 0 0 .06-.18.26.26 0 0 1 .06-.1.72.72 0 0 0 .2-.2 1.45 1.45 0 0 0 .65-.06l.37-.41-.55-.64a11.27 11.27 0 0 0-7.59-3.19q-3.7.37-3.39 3.7a9.58 9.58 0 0 0 3.19 5.11A21 21 0 0 0 49.3 26l1 .63q.47.31 1 .59a5.65 5.65 0 0 0 .57.31l.55.31.57.29a9.33 9.33 0 0 0 2.13.8 5.86 5.86 0 0 0 3.35 0 1.52 1.52 0 0 0 1.29-1.17l-.29-1.35a1 1 0 0 1-.74-.1l-.14-.06a.85.85 0 0 1-1-.39 1.34 1.34 0 0 1-.18-.27 1 1 0 0 1-.08-.2c-.36 0-.64.31-1-.1l-.1-.08a1.38 1.38 0 0 1-1-.51 4 4 0 0 1-.33-.7 5.23 5.23 0 0 0-.9-1.32 1.12 1.12 0 0 1-.67.57 1.77 1.77 0 0 1-1.1-.08 2 2 0 0 1-1.08-.92 1.59 1.59 0 0 1 .49-2.25l.14-.08A1.27 1.27 0 0 1 53 20a1.92 1.92 0 0 1 1 1v.06l.21-.71z"/><path d="M39.89 101.52a3.64 3.64 0 0 1 .29-1.08.2.2 0 0 1 .1-.08.76.76 0 0 0 .41-.53 6.3 6.3 0 0 1-2.74.63 10.91 10.91 0 0 1-2.82-.65 2.61 2.61 0 0 1-.76-.37 30.32 30.32 0 0 0-2 10.76l-.59 5.62a4.21 4.21 0 0 0 1.9.76 3.19 3.19 0 0 0 1 0 2.44 2.44 0 0 1 .06-.55 5.54 5.54 0 0 1 .35-1.7.72.72 0 0 1 .1-.2 7.19 7.19 0 0 0 .39-1.35 1.79 1.79 0 0 1 .08-.37 37.62 37.62 0 0 1 1.25-3.74l.16-.45a19 19 0 0 1 1-1.8q.47-.78 1-1.51a.13.13 0 0 1 .06-.08.63.63 0 0 0 .1-.25 8.92 8.92 0 0 1 .31-.84 3.83 3.83 0 0 0 .27-1.08.77.77 0 0 1 0-.25 2.81 2.81 0 0 1 .06-.59 1.61 1.61 0 0 1 .06-.25m14-1.53l-.31.12a10.08 10.08 0 0 1-1.62.51 5.54 5.54 0 0 1-2.66.12l-.51-.18a22.1 22.1 0 0 0 .1 9.49l.27.2a7.25 7.25 0 0 1 1.33.88 1.4 1.4 0 0 0 .7.27.33.33 0 0 0 .2-.06 1.74 1.74 0 0 0 .63-.55 14.89 14.89 0 0 0 1-1.31.52.52 0 0 0 .06-.12q.41-1.27.86-2.54a1.54 1.54 0 0 0 .08-.49q.06-1.08.08-2.17v-.47a33.49 33.49 0 0 0-.2-3.7M63 67.35a1.93 1.93 0 0 0-.59-.39 1.64 1.64 0 0 0-1.66.37A1 1 0 0 1 60 67l-.2-.08-.55.45-.06.55v.57a10.26 10.26 0 0 1-.51 3.93A5.44 5.44 0 0 1 62.17 71a11.66 11.66 0 0 1 .65-2 4.07 4.07 0 0 0 .37-1.33 1.53 1.53 0 0 0 0-.33H63M30 55.16a1.45 1.45 0 0 0 .06.18 6.44 6.44 0 0 1 .12 3.44l5-.51a8.41 8.41 0 0 0-1-4.62l-.08-.14q-3.1-.12-4.31 1.29a.26.26 0 0 1 .1.16.72.72 0 0 1 .1.2m-2.08-31.62a2 2 0 0 1-.25-.51 9.12 9.12 0 0 0 .63 7.06q-.76-.57-1.45-1.19a1.86 1.86 0 0 1-.29-.41v-.82a7.64 7.64 0 0 0 .06 6.3q-.88-.92-1.76-1.9a1.73 1.73 0 0 1-.25-.37 7 7 0 0 0 0 5.3 4.58 4.58 0 0 1-.16 3.87l-.35.53A7.41 7.41 0 0 0 23 35.83a.83.83 0 0 1-.14-.37 7.94 7.94 0 0 0-.49 6.54 6.26 6.26 0 0 1 .29 1.15 3.4 3.4 0 0 0-.84-1.66l-.29-.49-.53 2.54v.78l.08.78v1.47a1.77 1.77 0 0 1 0 .25 2.43 2.43 0 0 0 .06.27.12.12 0 0 1 0-.08l.06-.08a.23.23 0 0 1 0-.1l.18-.27a1.35 1.35 0 0 1 .12-.2l.06-.06a1.49 1.49 0 0 0 .27-.39.77.77 0 0 1 .25-.31.12.12 0 0 0 .08-.08q.37-.39.78-.76a9.26 9.26 0 0 1 1.86-1.16 8 8 0 0 0 1.72-1.37A8.6 8.6 0 0 0 28 39.78a7.92 7.92 0 0 0-.86.2 8 8 0 0 0-2.62.84l.25-.25 1.1-.41a6.57 6.57 0 0 0 1.35-.49 5.54 5.54 0 0 0 2.84-3.58 1.18 1.18 0 0 1-.45.1 4.89 4.89 0 0 0-2.9.9h-.01l.12-.2.1-.12q.59-.31 1.23-.57a4.94 4.94 0 0 0 3.46-4.42.52.52 0 0 0 .06-.12q.06-.1 0-.12a.19.19 0 0 0-.1.12l-2 1 .88-.74a4.32 4.32 0 0 0 1.17-1.43 4.16 4.16 0 0 0 .22-.37 1.06 1.06 0 0 0 .12-.33 1.05 1.05 0 0 0 .08-.2v-.06a3.07 3.07 0 0 1 .08-.49 1.45 1.45 0 0 1 .06-.18 3.62 3.62 0 0 0 .08-.57.08.08 0 0 0 0-.08v-2.32a.56.56 0 0 1-.16.14.2.2 0 0 1-.06.14.13.13 0 0 1-.06.06 2.92 2.92 0 0 1-.43.49l-.65.65.65-1.49a5.77 5.77 0 0 0 .06-2.21 3.75 3.75 0 0 0-1.23-2.31l-.31-.51a.13.13 0 0 0-.08-.06l-.18-.12-.65-.14a7.19 7.19 0 0 1 .35.74.5.5 0 0 1 0 .18.16.16 0 0 1 0 .06l.12.55a.07.07 0 0 1 0 .06V25a7.13 7.13 0 0 0 .12 1A25.65 25.65 0 0 0 28 23.64l-.08-.1M48.75 44h-.47a8.84 8.84 0 0 1 .18 5.66l-.18.43-.06.14v.14a2.17 2.17 0 0 1-.16.37.12.12 0 0 1 0 .08l-.22.47-.2.47a.08.08 0 0 1 0 .06.41.41 0 0 0 0 .18 3 3 0 0 0-.16.45.87.87 0 0 1-.08.25v.06a.46.46 0 0 1 0 .2 1.76 1.76 0 0 0 0 .29.08.08 0 0 1 0 .08v.39a1.11 1.11 0 0 1 0 .31.39.39 0 0 1 0 .12 4 4 0 0 1-.16.53.08.08 0 0 1 0 .06v.06a1.33 1.33 0 0 1-.16.31.72.72 0 0 0-.1.2l-.18.25a.63.63 0 0 1-.22.18.4.4 0 0 1-.18.18.26.26 0 0 0-.12.12l-.1.06a1 1 0 0 1-.18.14.22.22 0 0 1 0 .08h-.06l-.1.06a1.39 1.39 0 0 1-.41.18h-.18v.1A8.42 8.42 0 0 1 40.88 60a16.07 16.07 0 0 1-2.52 5.79q.84-.47 1.62-.86 1.39-.72 2.68-1.29.78-.37 1.57-.7h.08a35.76 35.76 0 0 1 3.56-1.33q2.47-6.59 4.64-13.4A11.86 11.86 0 0 0 53 44a.77.77 0 0 1-.51-.08 1.79 1.79 0 0 1-.2-.35.77.77 0 0 0 0 .25v.1A.24.24 0 0 1 52 44l-.45.22h-.18a2.86 2.86 0 0 1-.47 0h-.16a2.62 2.62 0 0 1-.57 0 .37.37 0 0 1-.2-.12.07.07 0 0 1-.08-.08 1.35 1.35 0 0 0-.06-.39.08.08 0 0 0 0 .06.56.56 0 0 1-.35.16h-.67M53 20a1.27 1.27 0 0 0-1.23-.06 1.59 1.59 0 0 0-.71 2.13l.08.14a2 2 0 0 0 1.08.92 1.77 1.77 0 0 0 1.1.08 1.12 1.12 0 0 0 .67-.57.86.86 0 0 0 .08-.27 1.68 1.68 0 0 0 0-1.12.8.8 0 0 1-.06-.16V21A1.92 1.92 0 0 0 53 20z" fill="#fbc219"/><path d="M40.18 100.44a3.64 3.64 0 0 0-.29 1.08 1.61 1.61 0 0 0-.06.25 3 3 0 0 1-.06.59.77.77 0 0 0 0 .25 3.83 3.83 0 0 1-.27 1.08q-.18.45-.31.84a.63.63 0 0 1-.1.25.13.13 0 0 0-.06.08q-.51.74-1 1.51a19 19 0 0 0-1 1.8l-.16.45a37.62 37.62 0 0 0-1.25 3.74 1.79 1.79 0 0 0-.08.37 7.19 7.19 0 0 1-.39 1.35.72.72 0 0 0-.1.2 5.54 5.54 0 0 0-.35 1.7 2.62 2.62 0 0 1-.06.55 3.13 3.13 0 0 0 1.55-.84v-.14a19.49 19.49 0 0 1 3.54-7.79 11.82 11.82 0 0 0 2.37-4.4 13.15 13.15 0 0 0 .49-3.78 8.23 8.23 0 0 0-1.17.08l-.8.2a.76.76 0 0 1-.41.53.2.2 0 0 0-.1.08M55 99.6a4.31 4.31 0 0 0-1 .39 33.49 33.49 0 0 1 .2 3.7v.47q0 1.08-.08 2.17a1.54 1.54 0 0 1-.08.49q-.45 1.27-.86 2.54a.52.52 0 0 1-.06.12 14.89 14.89 0 0 1-1 1.31 1.74 1.74 0 0 1-.63.55.33.33 0 0 1-.2.06 1.4 1.4 0 0 1-.7-.27 7.25 7.25 0 0 0-1.33-.88l-.27-.2q.08.47.2 1l.18 5.17.31.59a8.14 8.14 0 0 0 2.76.49 2.7 2.7 0 0 0 1.51-.49l-.06-1.23a20.49 20.49 0 0 1 1.6-7.08 19 19 0 0 0 1.35-7.28 11.4 11.4 0 0 0-.36-2.22 1.53 1.53 0 0 1-.61.25 8.53 8.53 0 0 0-.9.39M65.4 68.53a4.75 4.75 0 0 0-.29-1.66l-.41-.31a1.41 1.41 0 0 0-1 .76h-.51a1.53 1.53 0 0 1 0 .33 4.07 4.07 0 0 1-.37 1.35 11.66 11.66 0 0 0-.65 2 4.27 4.27 0 0 1 .83 0 6.13 6.13 0 0 1 1.9.59 16.55 16.55 0 0 0 .49-3.09m-35.48-8.64a.79.79 0 0 0 .71.86h.13a8.46 8.46 0 0 1 3.6.9q.22-.45.41-.9a9.24 9.24 0 0 0 .53-2.45l-5 .51q-.12.51-.29 1.08m26.28-16.77a.45.45 0 0 0-.18.08 1.23 1.23 0 0 1-.63.12.22.22 0 0 1-.12 0 .64.64 0 0 1-.45-.29l-.1-.1v.1a.16.16 0 0 1 0 .06.37.37 0 0 1-.06.22l-.14.12h-.06l-.22.12-.1.06a.12.12 0 0 1-.1.06h-.06l-.31.1h-.08A1.86 1.86 0 0 1 53 44a11.86 11.86 0 0 1-.53 4.25Q50.35 55 47.87 61.6l1.21-.39a17.49 17.49 0 0 1 3.07-.55l1.55.1h1.06l1.74.1.06-1.39a9.67 9.67 0 0 1 1.45-5v-.06l.1-.18q.92-1.86 1.62-3.64a24.16 24.16 0 0 0 1.78-10.21l-.27-.2a.86.86 0 0 1 0 .2.33.33 0 0 1 0 .27.07.07 0 0 1 0 .06l-.16.18H61a.33.33 0 0 1-.18.14l-.51.29a.86.86 0 0 1-.53.12h-.06a.17.17 0 0 0-.12 0l-.2-.29v.43a.18.18 0 0 1-.06.12h-.04v.06a.83.83 0 0 1-.2.18L59 42h-.08l-.31.12a1.58 1.58 0 0 1-.57.06h-.2l-.48-.18a.63.63 0 0 1-.12.45 1.63 1.63 0 0 1-.25.2l-.12.08a.6.6 0 0 1-.2.16 1.45 1.45 0 0 1-.39.2z" fill="#d09b07"/><path d="M44.31 93.69a2.71 2.71 0 0 0-.82.37 1.26 1.26 0 0 0-.22.14h-1.64a3.26 3.26 0 0 1-.88-.12h-.08a9.88 9.88 0 0 1 .88 2.54 1.59 1.59 0 0 0 .06.39.86.86 0 0 1 0 .2 1.63 1.63 0 0 1-.25 1.1l-.12.25h.18l.74-.22A7.4 7.4 0 0 0 43 98a7.4 7.4 0 0 1-.84.27l-.74.22h-.18v.1l-.47 1a.51.51 0 0 0-.06.22l.8-.2a8.23 8.23 0 0 1 1.17-.08.08.08 0 0 1 .08 0h.12l.39-.1a1.46 1.46 0 0 0 .84-.72 1.86 1.86 0 0 0 .29-.57 1.92 1.92 0 0 0 0-1 5.14 5.14 0 0 0-.14-.51 2 2 0 0 0 .7-.84 1.64 1.64 0 0 0 .14-1 1.41 1.41 0 0 0-.45-.82 3.26 3.26 0 0 1-.31-.31m12.55-1.44l-.65-.14a4.12 4.12 0 0 1-1.74 1q0 1.06-.06 2.15v.12a1.33 1.33 0 0 1-.16.63 7 7 0 0 1-.51.92l-.12.12a.72.72 0 0 0-.14.27 1.23 1.23 0 0 0 0 .43l.1.06h.12a2.33 2.33 0 0 0 .61 0q.33-.06.41.08a.47.47 0 0 0 .18.1.25.25 0 0 1 .18.12l.12.16a1 1 0 0 1 0 .67 2 2 0 0 1-.22.41l-.1.16a8.53 8.53 0 0 1 .9-.39 1.53 1.53 0 0 0 .61-.25 1.37 1.37 0 0 0 .39-.45 3.41 3.41 0 0 0 .51-1.39 4.75 4.75 0 0 0-.06-1 1.89 1.89 0 0 0-.06-.22 1.14 1.14 0 0 0-.2-.43q.14-.45.31-.88a2.37 2.37 0 0 0-.47-2.37M48 50.7a2.17 2.17 0 0 0 .16-.37q-3.29 3.31-7.3.67a5.87 5.87 0 0 1-1.1-1.06q-2.36-2.94-.25-6.56a9.83 9.83 0 0 0-2.35 9.1 7.82 7.82 0 0 1 5.83 1q.31.25.57.49a3.58 3.58 0 0 1 1.19 2.7h.18a1.39 1.39 0 0 0 .41-.18l.1-.06h.06a.22.22 0 0 0 0-.08 1 1 0 0 0 .18-.14l.1-.06a.26.26 0 0 1 .12-.15.4.4 0 0 0 .18-.18.63.63 0 0 0 .22-.18l.18-.25a.72.72 0 0 1 .1-.2 1.33 1.33 0 0 0 .16-.31v-.06a.08.08 0 0 0 0-.06 4 4 0 0 0 .16-.53.39.39 0 0 0 0-.12 1.11 1.11 0 0 0 0-.31v-.39a.08.08 0 0 0 0-.08 1.76 1.76 0 0 1 0-.29.46.46 0 0 0 0-.2v-.06a.87.87 0 0 0 .08-.25 3 3 0 0 1 .16-.45.41.41 0 0 1 0-.18.08.08 0 0 0 0-.06l.2-.47.22-.47a.12.12 0 0 0 0-.08M26.83 20.11a7.13 7.13 0 0 0-.9.25q.72.74 1.41 1.51a.77.77 0 0 1 .18.31 8.88 8.88 0 0 1 .48 1.46q1 1.23 1.88 2.45a7.13 7.13 0 0 1-.13-1.09v-2.85a.07.07 0 0 0 0-.06l-.12-.55a.16.16 0 0 0 0-.06.5.5 0 0 0 0-.18 7.19 7.19 0 0 0-.35-.74l.65.14a5.86 5.86 0 0 0-3-.61M66 51.58l.16-.22q1.47-3.78-1.19-8.24a8.8 8.8 0 0 0-1 3.07 4.7 4.7 0 0 1-4.25 4.46q-.7 1.78-1.62 3.64l-.06.25.57 1 .2-.29.12-.12a9.63 9.63 0 0 1 3.64-2.82 8.13 8.13 0 0 1 3-.72z" fill="#0d3a12"/><path d="M47.81 84.06v2.88a5 5 0 0 0 .19 1.21 1.69 1.69 0 0 1 0 .37 6.32 6.32 0 0 0 .22 1.48 4.76 4.76 0 0 1 .1.47q.08.51.18 1 .25 1.45.57 2.92a7.79 7.79 0 0 0 .78-.18l2.09-.53h.14a2.63 2.63 0 0 1 0-.65.33.33 0 0 0-.06-.2.66.66 0 0 1-.12-.41 9.22 9.22 0 0 0-.18-2.42 1.79 1.79 0 0 1-.08-.37 3.53 3.53 0 0 0-.1-.84 11.34 11.34 0 0 1-.06-1.21v-1.21a.77.77 0 0 0 0-.25 1.78 1.78 0 0 0-.06-.47q-.14-1.82-.12-3.62v-1.1a5.79 5.79 0 0 1 .06-.84q.25-2 .57-3.95l-1 1.17q-1.29 3.25-3 6.61c-1.71 3.36 0 .09 0 .14m7-23.27h-1.06m-4.36 5.11v-1.08a34.82 34.82 0 0 0-.27-3.58l-1.24.39A35.76 35.76 0 0 0 44.47 63h-.08q-.8.33-1.57.7-1.29.57-2.68 1.29A80.68 80.68 0 0 0 35 82.5a20.32 20.32 0 0 0-1 11 3.19 3.19 0 0 0 1.15.55.37.37 0 0 1 .27 0h.06l.86.1 1 .06a4.15 4.15 0 0 0 .74-.18l.18-.1a4.45 4.45 0 0 1 1-.12 7.09 7.09 0 0 1 1.33.16h.08q.43.08.88.12a3.33 3.33 0 0 1-.06-.84q0-1.21.1-2.41c.1-1.2 0 0 0-.06a8.41 8.41 0 0 1 .08-1.15 18.16 18.16 0 0 0 .14-2.88 10.82 10.82 0 0 1 .19-2.41 3.7 3.7 0 0 1 .33-1.08q.84-2 1.74-4l.12-.18q.37-.78.82-1.6.53-1 1.15-2a7.74 7.74 0 0 0 .86-1.88 29.72 29.72 0 0 1 1.7-4.09.87.87 0 0 0 .08-.25 1.56 1.56 0 0 1 .06-.45 3.9 3.9 0 0 1 .16-.63 2.77 2.77 0 0 0 .12-.84l.08-1.57m-25.56-5.31l.22-1.15-1.06-.63-.18 3.93v.14a.76.76 0 0 0 0 .18.2.2 0 0 1 0 .1 2.71 2.71 0 0 0 .06.57.12.12 0 0 0 0 .08v.14a.23.23 0 0 0 0 .1q.14.33.33.7a.83.83 0 0 0 .18.2 1.57 1.57 0 0 0 1.15.29 3.82 3.82 0 0 1-.59-1.27 8.62 8.62 0 0 1-.29-3.44m1.12-19.88l-.25.25a8 8 0 0 1 2.8-.77l.08-.31a6.57 6.57 0 0 1-1.35.49l-1.1.41m-2.47 5a.12.12 0 0 1-.08.08.77.77 0 0 0-.25.31 1.49 1.49 0 0 1-.27.39l-.06.06a1.35 1.35 0 0 0-.12.2l-.18.27a.23.23 0 0 0 0 .1l-.06.08a.12.12 0 0 0 0 .08q.35 1.84.84 3.93l.18.84.12.59 2 1.19.65-2.9.25-.2a1.36 1.36 0 0 1 0-.47 54.67 54.67 0 0 1 1.23-7.87 8 8 0 0 1-1.76 1.33 9.26 9.26 0 0 0-1.72 1.17q-.41.37-.78.76m44-19.37l.25-.27a1.48 1.48 0 0 0-.55-1.35 2 2 0 0 1-.25-.2.6.6 0 0 0-.14-.16 1.33 1.33 0 0 1-.16-.29.33.33 0 0 1 0-.14.46.46 0 0 1-.08-.2 1 1 0 0 0-.1-.27 2.84 2.84 0 0 0-.18-.41 2.17 2.17 0 0 0-.65-.8l-.49-.31a1.86 1.86 0 0 1-.45-.27 3.61 3.61 0 0 1-.55-.45q-.41-.41-.8-.76a2.06 2.06 0 0 0-.82-.47 2.66 2.66 0 0 0-1.06-.27l-1.17.1a8.8 8.8 0 0 0-1.1-.51 2.7 2.7 0 0 0-.8-.13 3.43 3.43 0 0 0-1.23.22l-.18.12-.06.06-.37.41a1.45 1.45 0 0 1-.65.06.72.72 0 0 1-.2.2.26.26 0 0 0-.06.1.73.73 0 0 1-.06.18q-.06.22-.16.74a.8.8 0 0 0 .06.16 1.68 1.68 0 0 1 0 1.12.86.86 0 0 1-.08.27 5.23 5.23 0 0 1 .79 1.3 4 4 0 0 0 .33.74 1.38 1.38 0 0 0 1 .51l.1.08c.38.41.63.24 1 .1a1 1 0 0 0 .08.2 1.34 1.34 0 0 0 .18.27.85.85 0 0 0 1 .39l.14.06a1 1 0 0 0 .74.1l.29 1.35.51.18a.2.2 0 0 1 .08-.1l.25-.06a2.16 2.16 0 0 0 .72 1H62l.06.06a.83.83 0 0 1 .14.63.39.39 0 0 1 0 .12.52.52 0 0 0 .14.47q.25.22.45.12a1.72 1.72 0 0 0-.31.82 1.24 1.24 0 0 0 .94 1l.45-.08.33-.63a3.3 3.3 0 0 0 .61-.27.76.76 0 0 0 .47-.78v-.41a1.2 1.2 0 0 0 .49-.41 2.3 2.3 0 0 0 .27-.9A3.91 3.91 0 0 0 66 28a3 3 0 0 0 .45-1.08 1.1 1.1 0 0 0-.15-.76z" fill="red"/><path d="M34.72 60.72a13.08 13.08 0 0 0 6.16-.72 8.42 8.42 0 0 0 3.87-3.19v-.1A3.58 3.58 0 0 0 43.56 54a14.33 14.33 0 0 1-7.3 4 6.45 6.45 0 0 1-1 .29 9.24 9.24 0 0 1-.53 2.45m31.83-6.54a25.87 25.87 0 0 0-.56-2.62h-.47a8.13 8.13 0 0 0-3 .72 2.69 2.69 0 0 0 .1.7q.08.53.2 1.08a12.19 12.19 0 0 1 .2 1.33 1 1 0 0 0 .06.35 12.69 12.69 0 0 1 .18 2.17q0 1.08.08 2.17a4.18 4.18 0 0 1-.08 1.33 9.71 9.71 0 0 0-.2 1.21.77.77 0 0 1 0 .25 1.49 1.49 0 0 0 0 .25L62.41 67a1.93 1.93 0 0 1 .59.39h.73a1.41 1.41 0 0 1 1-.76l.18-1.7v-.14q.2-1.33.47-2.6a.14.14 0 0 0 0-.1q.27-1.31.61-2.58a15.73 15.73 0 0 0 .57-2.78 7.92 7.92 0 0 0 0-2.53z" fill="#003aa0"/><path class="cls-9" d="M43.75 54q-.27-.25-.57-.49a7.82 7.82 0 0 0-5.83-1 9.61 9.61 0 0 0-2.9 1.17 8.41 8.41 0 0 1 1 4.62 6.45 6.45 0 0 0 1-.29 14.33 14.33 0 0 0 7.3-4m15.36 1.1a.39.39 0 0 0 0 .12 5.38 5.38 0 0 0 0 2.86l.76 2.86a8.28 8.28 0 0 1 .13 2.76 3.05 3.05 0 0 1-.1.76 1.43 1.43 0 0 1-.06.39l-.33 2.54.55-.45.2.08a1 1 0 0 0 .7.29A1.64 1.64 0 0 1 62.6 67l.59-3.89a1.49 1.49 0 0 1 0-.25.77.77 0 0 0 0-.25 9.71 9.71 0 0 1 .2-1.21 4.18 4.18 0 0 0 .08-1.33q-.06-1.08-.08-2.17a12.69 12.69 0 0 0-.18-2.17 1.17 1.17 0 0 0-.06-.35q-.08-.7-.2-1.33a4.62 4.62 0 0 1-.1-1.05l-.1-.7a9.63 9.63 0 0 0-3.65 2.82z"/><path d="M53.7 60.76l-1.55-.1a17.49 17.49 0 0 0-3.07.55 34.82 34.82 0 0 1 .27 3.58v1.08l-.08 1.57a2.77 2.77 0 0 1-.12.84 3.9 3.9 0 0 0-.16.63 2 2 0 0 1-.06.45.87.87 0 0 1-.08.25 29.72 29.72 0 0 0-1.7 4.09 7.74 7.74 0 0 1-.86 1.88 22.1 22.1 0 0 0-1.15 2q-.45.82-.82 1.6l-.12.18q-.9 2-1.74 4a3.7 3.7 0 0 0-.33 1.08 10.82 10.82 0 0 0-.22 2.41 18.16 18.16 0 0 1-.14 2.88q-.06.57-.08 1.15v.06l-.1 2.41a3.33 3.33 0 0 0 .06.84h1.64a1.26 1.26 0 0 1 .22-.14 2.71 2.71 0 0 1 .82-.37v-.14a9.8 9.8 0 0 1 .41-4.15l.22-.61a4.06 4.06 0 0 1 .33-.51l.92 3q.29 1.35.51 2.7a1.27 1.27 0 0 0 .16.43H48a8.31 8.31 0 0 0 1-.08q-.33-1.47-.57-2.92l-.18-1a4.76 4.76 0 0 0-.1-.47 6.32 6.32 0 0 1-.15-1.45 1.69 1.69 0 0 0 0-.37 5 5 0 0 1-.14-1.21v-3a72.51 72.51 0 0 0 3-6.61l1-1.17q-.33 2-.57 3.95a6.08 6.08 0 0 1-.06.84V82q0 1.8.12 3.62a2 2 0 0 0 .06.47.77.77 0 0 1 0 .25v1.21a11.34 11.34 0 0 0 .06 1.21q.06.41.1.84a1.79 1.79 0 0 0 .08.37 9.22 9.22 0 0 1 .18 2.39.66.66 0 0 0 .12.41.33.33 0 0 1 .05.23 2.63 2.63 0 0 0 0 .65 21.19 21.19 0 0 1 2.13-.45l.29-.06a4.12 4.12 0 0 0 1.74-1l-.2-.79a10 10 0 0 1-.18-3.23 63.53 63.53 0 0 0 1.1-11.37v-.63l.7-1.1.1-.16a10.32 10.32 0 0 0 1.08-2.29v-.06a10.26 10.26 0 0 0 .51-3.93V68L59 66.14q-.16-.57-.37-1.15a14.3 14.3 0 0 0-.63-1.36l-1.5-2.74m0 0l-1.74-.1m-30.88-1.48l-.22 1.15A8.62 8.62 0 0 0 24 63.9a3.82 3.82 0 0 0 .59 1.27h.25a2 2 0 0 0 .86-1.29 7.07 7.07 0 0 0 .18-1.7l.1-2.39h-.45l-1.6-.43M30.1 20.9l.31.51a3.75 3.75 0 0 1 1.23 2.31 5.77 5.77 0 0 1-.06 2.21l-.65 1.49.65-.65a2.92 2.92 0 0 0 .43-.49.13.13 0 0 0 .06-.06.2.2 0 0 0 .06-.14.56.56 0 0 0 .16-.14v2.35a.08.08 0 0 1 0 .08 3.62 3.62 0 0 1-.08.57 1.45 1.45 0 0 0-.06.18 3.07 3.07 0 0 0-.08.49v.06a1.05 1.05 0 0 1-.08.2l-.12.33a1.82 1.82 0 0 1-.22.37A4.32 4.32 0 0 1 30.41 32l-.88.74 2-1a.19.19 0 0 1 .1-.12v.12a.52.52 0 0 1-.06.12 4.94 4.94 0 0 1-3.46 4.42q-.63.27-1.23.57l-.1.12-.06.18a4.89 4.89 0 0 1 2.9-.9 1.18 1.18 0 0 0 .45-.1 5.54 5.54 0 0 1-2.84 3.58l-.08.31a7.92 7.92 0 0 1 .86-.2 8.6 8.6 0 0 1-1.53 2.45 34.77 34.77 0 0 0-1.09 6.26A13.13 13.13 0 0 0 25.2 50l-.16.82-.65 2.9 1.08.08a1.71 1.71 0 0 0 1.08-1.1l.14-.49 1-3.46a134.22 134.22 0 0 0 5-17.89q.8-5-.84-8a4.94 4.94 0 0 0-1.75-1.96z" fill="#980805"/><path d="M28.44 53.65a5.79 5.79 0 0 1-.47-.57l-.18-.22a.69.69 0 0 0-.18-.16h-.06a.08.08 0 0 0 0-.06 7.6 7.6 0 0 0-.82-.43l-.14.49a1.71 1.71 0 0 1-1.08 1.1l-1.08-.08-2-1.19-.12-.59-.49.33-.18 1.47-.51.57a2 2 0 0 0 0 .8 1.93 1.93 0 0 0 .72 1.17 2.82 2.82 0 0 0 .06.59 1.33 1.33 0 0 0 .53.86l.43 1 1.06.63 1.6.43H26a4.75 4.75 0 0 1 .59.08H30l.29-1.08a6.44 6.44 0 0 0-.12-3.44 1.45 1.45 0 0 1-.06-.18A.72.72 0 0 0 30 55a.26.26 0 0 0-.1-.16l-.1-.06a.8.8 0 0 1-.18-.1l-.14-.06-.18-.12h-.06l-.16-.18a.74.74 0 0 1-.16-.18l-.1-.12-.18-.25m17.88-28.59V26a.39.39 0 0 0 0 .12 3 3 0 0 1-.74 1.35 7.61 7.61 0 0 0-.9 1.15.52.52 0 0 1-.06.12.39.39 0 0 0 0 .12.46.46 0 0 0 .2.41 1.27 1.27 0 0 0 .43.16l.35.25c0 .14-.22 1-.22 1a.16.16 0 0 0 .14.06 4.86 4.86 0 0 1 .59.35 3.91 3.91 0 0 0-1 .39.52.52 0 0 0 .06.12.77.77 0 0 1 0 .7.85.85 0 0 0 0 .61l.39.53 1.46.32c.3.07.63.11.79.14a5.22 5.22 0 0 1 .82-.12c.15 0 .1.47.23.42a6 6 0 0 1 .88-.14 5.45 5.45 0 0 0 .57-.12L50 37a8 8 0 0 0 3.72 0q-.41-1.37-.74-2.74a15.08 15.08 0 0 1-.35-1.74 1.47 1.47 0 0 1-.39-.86 1.37 1.37 0 0 1-.76-.61 2.11 2.11 0 0 1-.31-.84 2.6 2.6 0 0 1 0-.72 3.82 3.82 0 0 1-.61-.78 3.7 3.7 0 0 1-.27-.86 3.16 3.16 0 0 1 0-.35 6.47 6.47 0 0 1-.8-.82 1.09 1.09 0 0 1-.19-.68 21 21 0 0 1-2.07-1.64 1.31 1.31 0 0 0-.65.61.73.73 0 0 0-.06.18m2.13 3.27v.06M66 74.63a8.87 8.87 0 0 0-.1-1.08 3.66 3.66 0 0 0-.18-.72 2.28 2.28 0 0 0-.16-.31l-.47-.65-.18-.25A6.13 6.13 0 0 0 63 71a4.27 4.27 0 0 0-.84 0 5.44 5.44 0 0 0-3.39 1.51l.23 2.16a.34.34 0 0 0 0 .1 10.62 10.62 0 0 0 .9 2.43.92.92 0 0 0 .37.39.57.57 0 0 0 .37.14l.22.47.88.08.63-.51.39.53h.76l.45-.51a1.23 1.23 0 0 0 .65.37l.51-.47.49.29a1.5 1.5 0 0 0 .51-.45 2.9 2.9 0 0 0 .31-.74 5.28 5.28 0 0 0 .14-1 1.22 1.22 0 0 0-.43-1 .85.85 0 0 0-.15-.16z" fill="#f3bc84"/><path d="M53.35 33.15l-.67-.63a15.08 15.08 0 0 0 .32 1.74q.33 1.37.74 2.74a6.37 6.37 0 0 0 2-1l.82-.65-.72-.67a2.72 2.72 0 0 1-.55-.84 6.77 6.77 0 0 0-1-.27 2.19 2.19 0 0 1-1-.45m-4.13 2.56a.17.17 0 0 0 0 .12v.06a.46.46 0 0 1 0 .2v.68L50 37l.58-3.88c-.2 0-.87-.26-1.1.34-.34 0-.29.17-.53.22s.12.47 0 .5l.09.6s.26.33.07.26c.08.18 0 .32 0 .49l.06.16z" fill="#dba875"/><path d="M58.85 29.64l-.41-.74a5.86 5.86 0 0 1-3.35 0 9.33 9.33 0 0 1-2.09-.8l-.57-.29-.55-.31a5.65 5.65 0 0 1-.57-.31l-1-.59-1-.63a1.09 1.09 0 0 0 .18.63 6.47 6.47 0 0 0 .8.82 3.16 3.16 0 0 0 0 .35 3.7 3.7 0 0 0 .27.86 3.82 3.82 0 0 0 .61.78 2.6 2.6 0 0 0 0 .72 2.11 2.11 0 0 0 .31.84 1.37 1.37 0 0 0 .76.61 1.47 1.47 0 0 0 .39.86l.67.63a2.19 2.19 0 0 0 1 .45 6.77 6.77 0 0 1 1 .27 2.72 2.72 0 0 0 .55.84q.31.31.72.67l.16.12.2.2.33.27a2.36 2.36 0 0 0 1.08.39l.57-.08a1.16 1.16 0 0 1 .18.18.78.78 0 0 1 .14.2 3.59 3.59 0 0 1 .82.25 1.6 1.6 0 0 0 .43.25 1.75 1.75 0 0 0 .45.08 2.21 2.21 0 0 0-.22-1.16 3.23 3.23 0 0 0-.45-.72 5.6 5.6 0 0 1-.55-1.06 3.43 3.43 0 0 0-.18-.45l-.14-.51a6.34 6.34 0 0 1-.06-1.17 3.59 3.59 0 0 0 0-1.1.45.45 0 0 0-.06-.14q-.08-.33-.18-.63a2.35 2.35 0 0 0-.24-.58z" fill="#a67c52"/><path class="cls-1" d="M46 38h-.25l-1 .45a.33.33 0 0 1-.12.1 1.42 1.42 0 0 1-.25.18A2.31 2.31 0 0 0 44 39l-.06.06a.71.71 0 0 0-.22.14.77.77 0 0 1-.25.16.13.13 0 0 0-.06.06.77.77 0 0 0-.25.14l-.08.08a.18.18 0 0 0-.12.06.07.07 0 0 1 0 .06l-.14.12a.08.08 0 0 1 0 .06.24.24 0 0 0-.12.14 1.07 1.07 0 0 0 0 .43q.22.18.43.39h.06l.39.29a1.41 1.41 0 0 0 .47.25 1.64 1.64 0 0 0 .57.06h.12l.14-.1a.86.86 0 0 0-.08.51v.16a1.64 1.64 0 0 1 .27.25h.06a.86.86 0 0 1 .22.16h.06l.9.63a.12.12 0 0 1 .08.08h.06l.18.06h.06a.47.47 0 0 0 .43-.12 1.34 1.34 0 0 0 .16-.2v.43l.12.2h.06a.37.37 0 0 0 .27.08h.18a.67.67 0 0 1 .2 0h1.28a.56.56 0 0 0 .35-.16.08.08 0 0 1 0-.06 1.35 1.35 0 0 1 .06.39.08.08 0 0 0 .08.08.37.37 0 0 0 .2.12 2.62 2.62 0 0 0 .57 0h.16a2.86 2.86 0 0 0 .47 0H52a.24.24 0 0 0 .14-.14v-.1a.77.77 0 0 1 0-.25 1.79 1.79 0 0 0 .2.35.77.77 0 0 0 .66.13 1.86 1.86 0 0 0 .51-.12h.08l.31-.1h.1a.12.12 0 0 0 .1-.06l.1-.06.22-.12h.06l.14-.12a.37.37 0 0 0 .06-.22.16.16 0 0 0 0-.06V43l.1.1a.64.64 0 0 0 .45.29.22.22 0 0 0 .12 0 1.23 1.23 0 0 0 .63-.12.45.45 0 0 1 .18-.08 1.45 1.45 0 0 0 .39-.18.6.6 0 0 0 .2-.16l.12-.08a1.63 1.63 0 0 0 .25-.2.63.63 0 0 0 .12-.45l.22.25h.2a1.58 1.58 0 0 0 .57-.06l.31-.12h.08l.1-.06a.83.83 0 0 0 .2-.18v-.06H59a.18.18 0 0 0 .06-.12v-.43l.2.29a.17.17 0 0 1 .12 0h.06a.86.86 0 0 0 .53-.12l.51-.29a.33.33 0 0 0 .18-.14h.06l.16-.18a.07.07 0 0 0 0-.06.33.33 0 0 0 0-.27.86.86 0 0 0 0-.2l.27.2h.06a.22.22 0 0 0 .12 0 .32.32 0 0 0 .27-.1 1 1 0 0 0 .18-.14l.27-.22.18-.16h.06l.06-.12a.29.29 0 0 0 0-.22 1.79 1.79 0 0 0-.27-.43 1.07 1.07 0 0 1-.16-.2.55.55 0 0 0-.1-.14v-.06a1.08 1.08 0 0 0-.16-.2.31.31 0 0 1-.08-.16.77.77 0 0 0-.16-.25.55.55 0 0 0-.1-.14l-.3-.77a1.75 1.75 0 0 1-.45-.08 1.6 1.6 0 0 1-.43-.25 3.59 3.59 0 0 0-.82-.25.78.78 0 0 0-.14-.2 1.16 1.16 0 0 0-.18-.18l-.57.08a2.36 2.36 0 0 1-1.11-.38l-.32-.29-.2-.2-.16-.12-.82.65a6.37 6.37 0 0 1-2 1A8 8 0 0 1 50 37l-.67-.18a1.68 1.68 0 0 0-1.72.76q-1-.12-1.35.39a.17.17 0 0 0-.18 0A.07.07 0 0 1 46 38"/><path class="cls-3" d="M34 93.57a1.11 1.11 0 0 0-.63 1 3.85 3.85 0 0 0 0 .88q.1.47.25 1a1.7 1.7 0 0 1 .06.45v1.72a1.2 1.2 0 0 0 .67.86 2.61 2.61 0 0 0 .76.37 10.91 10.91 0 0 0 2.82.65 6.3 6.3 0 0 0 2.74-.63.51.51 0 0 1 .06-.22l.47-1v-.1l-.55.31a5.52 5.52 0 0 1-1.06.27 5.38 5.38 0 0 1-2.56.12 5.38 5.38 0 0 0 2.56-.12 5.52 5.52 0 0 0 1.06-.27l.55-.31a2.63 2.63 0 0 1-.55.06q-1.39-.12-2.8-.31l-1.27-.3a4.06 4.06 0 0 1-.82-.25 4.06 4.06 0 0 0 .82.25l1.29.33q1.41.18 2.8.31a2.63 2.63 0 0 0 .55-.06l.12-.25a1.63 1.63 0 0 0 .25-1.1.86.86 0 0 0 0-.2 1.17 1.17 0 0 0-.06-.39 9.88 9.88 0 0 0-.88-2.54 7.09 7.09 0 0 0-1.33-.16 4.45 4.45 0 0 0-1 .12l-.18.1a4.15 4.15 0 0 1-.74.18l-1-.06a3.46 3.46 0 0 1-.86-.1h-.14a.37.37 0 0 0-.27 0 3.19 3.19 0 0 1-1.13-.61"/><path class="cls-14" d="M40.77 98.6q-1.39-.12-2.8-.31L36.68 98a4.06 4.06 0 0 1-.82-.25m1.29 1.48a5.38 5.38 0 0 0 2.56-.12 5.52 5.52 0 0 0 1.06-.27l.55-.31m.97-.24l-.74.22h-.22"/><path class="cls-9" d="M48 37.67a10.42 10.42 0 0 0 3.82 1.27 10.28 10.28 0 0 0 4.78-1 13.3 13.3 0 0 0 1.72-1.37l.62-.25.33.39a11.33 11.33 0 0 1-2.36 2.06c-.93.45-4.23 1.58-6.7.83a16.72 16.72 0 0 1-3.65-1.6v-.48l.76-.14z"/><path class="cls-1" d="M55.07 39.6l.33.77-.33-.77"/><path class="cls-14" d="M59.73 27.88l-1.19 1 .41.74a2.35 2.35 0 0 1 .2.59q.1.31.18.63a.45.45 0 0 1 .06.14 3.59 3.59 0 0 1 .12 1.19 6.34 6.34 0 0 0 .06 1.17l.14.51a3.43 3.43 0 0 1 .18.45 5.6 5.6 0 0 0 .55 1.06 3.23 3.23 0 0 1 .45.72 2.21 2.21 0 0 1 .18 1.15l.63.57a.55.55 0 0 1 .1.14.77.77 0 0 1 .16.25.31.31 0 0 0 .08.16 1.08 1.08 0 0 1 .16.2v.06a.55.55 0 0 1 .1.14 1.08 1.08 0 0 0 .16.2 1.79 1.79 0 0 1 .27.43.29.29 0 0 1 0 .22l-.06.12h-.06q5.62 6.38 3.62 11.51l-.16.22a25.87 25.87 0 0 1 .55 2.62 7.92 7.92 0 0 1 0 2.47 15.73 15.73 0 0 1-.57 2.78q-.35 1.27-.61 2.58T65 64.73v.14l-.18 1.7.41.31a4.75 4.75 0 0 1 .29 1.66 16.55 16.55 0 0 1-.52 3.08l.18.25.47.65a2.28 2.28 0 0 1 .16.31 3.66 3.66 0 0 1 .18.72 8.87 8.87 0 0 1 .1 1.08.85.85 0 0 1 .12.16 1.22 1.22 0 0 1 .43 1 5.28 5.28 0 0 1-.14 1 2.9 2.9 0 0 1-.31.74 1.5 1.5 0 0 1-.51.45l-.49-.29-.51.47a1.23 1.23 0 0 1-.65-.37l-.45.51h-.76l-.39-.53-.63.51-.88-.08-.22-.47a.57.57 0 0 1-.37-.14.92.92 0 0 1-.33-.39 9.22 9.22 0 0 1-1-2.54l-.18-2.15a10.32 10.32 0 0 1-1.08 2.29l-.1.16-.7 1.1a62.85 62.85 0 0 1-1.1 12 10 10 0 0 0 .18 3.23l.27.76.65.14a2.37 2.37 0 0 1 .47 2.37l-.31.88a1.14 1.14 0 0 1 .2.43 3.24 3.24 0 0 1-.3 2.65 1.37 1.37 0 0 1-.39.45q1 3.89-1 9.51a20.49 20.49 0 0 0-1.6 7.08l.06 1.23a.67.67 0 0 1 .27.25 2.34 2.34 0 0 1 .33.84h16.7V125H15v-7.14h14.42l.18-.2a10.09 10.09 0 0 1 2.23-1.84l.59-5.62a30.32 30.32 0 0 1 2-10.76 1.2 1.2 0 0 1-.67-.86v-1.72a1.7 1.7 0 0 0-.06-.45q-.14-.49-.25-1a3.85 3.85 0 0 1 0-.88 1.11 1.11 0 0 1 .63-1v-.06a20.32 20.32 0 0 1 1-11 80.68 80.68 0 0 1 5-17.57q-.78.39-1.62.86A16.07 16.07 0 0 0 41 60a13.08 13.08 0 0 1-6.16.72q-.18.45-.41.9a8.46 8.46 0 0 0-3.6-.9.79.79 0 0 1-.84-.86h-3.37a4.75 4.75 0 0 0-.59-.08q0 1.17-.1 2.39a7.07 7.07 0 0 1-.18 1.7 2 2 0 0 1-.86 1.29q-1.06.12-1.39-.25a.83.83 0 0 1-.18-.2L23 64a.23.23 0 0 1 0-.1v-.14a.12.12 0 0 1 0-.08 2.71 2.71 0 0 0-.06-.57.2.2 0 0 0 0-.1.76.76 0 0 1 0-.18v-.13l.18-3.93-.39-.92-.12-.1a2.86 2.86 0 0 1-.27-.31 1.26 1.26 0 0 1-.25-1.1 2.21 2.21 0 0 1-.78-1.15 1.05 1.05 0 0 1 .06-.88l.45-.39.18-1.57.49-.33-.18-.84q-.49-2.09-.84-3.93a2.43 2.43 0 0 1-.07-.25q-.7-3.33-1.06-5.93A50.47 50.47 0 0 1 19.83 30v-.12q1.17-8.49 7.44-9.63a5 5 0 0 1 4.73 2.6q1.64 3 .84 8a134.22 134.22 0 0 1-5 17.89l-1 3.46a7.6 7.6 0 0 1 .82.43.08.08 0 0 1 0 .06h.06a.69.69 0 0 1 .18.16l.18.22a5.79 5.79 0 0 0 .47.57l.18.25.1.12a.74.74 0 0 0 .16.18l.16.18h.06l.18.12.14.06a.8.8 0 0 0 .18.1l.1.06q1.19-1.41 4.36-1.29l.08.14a9.61 9.61 0 0 1 2.9-1.17q-1.47-6.24 4.4-11.11l1-.86a1.07 1.07 0 0 1 0-.43.24.24 0 0 1 .12-.14.08.08 0 0 0 0-.06H43a.07.07 0 0 0 0-.06.18.18 0 0 1 .12-.06l.08-.08a.77.77 0 0 1 .25-.14.13.13 0 0 1 .06-.06.77.77 0 0 0 .25-.16.71.71 0 0 1 .24-.13V39a2.31 2.31 0 0 1 .45-.27 1.42 1.42 0 0 0 .25-.18.33.33 0 0 0 .12-.1l1-.45h.31a.17.17 0 0 1 .18 0q.33-.51 1.35-.39a1.68 1.68 0 0 1 1.72-.76v-.7a14 14 0 0 0-.51-2.45 10.66 10.66 0 0 1-1.62 0c-.62-.13-1.7-.18-1.94-.57a.88.88 0 0 1 0-.9.46.46 0 0 0 0-.53v-.22a.2.2 0 0 1 .1-.19c.1-.06.08-.09.07-.08l.15-.06a4.76 4.76 0 0 1 .69-.13 4.86 4.86 0 0 0-.59-.35.16.16 0 0 1-.14-.06l.16-.51a1.56 1.56 0 0 1 .06-.45l-.35-.25a1.27 1.27 0 0 1-.43-.16.46.46 0 0 1-.2-.41.39.39 0 0 1 0-.12.52.52 0 0 0 .06-.12 6.19 6.19 0 0 1 .79-1 3 3 0 0 0 .79-1.2l.07-.45v-.74a.73.73 0 0 1 .06-.18 1.31 1.31 0 0 1 .65-.61 9.58 9.58 0 0 1-3.15-5.11q-.31-3.33 3.39-3.7a11.23 11.23 0 0 1 8.16 3.8l.06-.06v-.06a.2.2 0 0 1 .14-.06h.06a2.19 2.19 0 0 1 .53-.12h.92a.59.59 0 0 1 .27.06h.1l.22.1a2.29 2.29 0 0 0 .51.18.26.26 0 0 1 .1.06l.22.12a.26.26 0 0 1 .14.1 3.72 3.72 0 0 1 1.17-.1h.57a1.64 1.64 0 0 1 .45.18l.27.12.16.12h.1a1.23 1.23 0 0 1 .55.37l.06.12a.41.41 0 0 1 .18.16l.1.06a4.15 4.15 0 0 0 .72.63 1.86 1.86 0 0 0 .45.27l.49.31a2.17 2.17 0 0 1 .65.8 2.84 2.84 0 0 1 .18.41 1 1 0 0 1 .1.27.46.46 0 0 0 .08.2.33.33 0 0 0 0 .14 1.33 1.33 0 0 0 .16.29.6.6 0 0 1 .14.16 2 2 0 0 0 .25.2 1.48 1.48 0 0 1 .55 1.35l-.25.27a1.1 1.1 0 0 1 .06.63 3 3 0 0 1-.11 1.2 3.91 3.91 0 0 1 0 .55 2.3 2.3 0 0 1-.27.9 1.2 1.2 0 0 1-.49.41v.41a.76.76 0 0 1-.47.78 3.3 3.3 0 0 1-.61.27l-.33.63-.45.08a1.24 1.24 0 0 1-.94-1 1.72 1.72 0 0 1 .31-.82q-.2.1-.45-.12a.52.52 0 0 1-.14-.47.39.39 0 0 0 0-.12.83.83 0 0 0-.14-.63l-.02-.06h-.55a2.16 2.16 0 0 1-.72-1l-.25.06a.2.2 0 0 0-.08.1l-.55-.18-.27-1.21a1.88 1.88 0 0 1-.39.72 1.17 1.17 0 0 1-.18.18 1.48 1.48 0 0 1-1.23.57 7.24 7.24 0 0 1-3.07-.57l-.18-.06-.65-.3-.59-.27-.63-.35q-.45-.29-.9-.53l-.63-.41-.63-.44-.82-.63-.84-.72L48 23l-.65-.74q-.27-.33-.49-.65l-.41-.7a10.51 10.51 0 0 1-.43-1 4.55 4.55 0 0 1-.18-.67q.12-2.5 3.23-2A8.29 8.29 0 0 1 54.48 20h.06a.16.16 0 0 0 0-.06l.1-.06h.62l.16-.18.06-.1a.32.32 0 0 1 .12-.08"/><path class="cls-14" d="M61.94 28.7a2.55 2.55 0 0 1-.57-.84 8.15 8.15 0 0 1-.37-1.13 1.49 1.49 0 0 0-.06-.41m-.86-.32q.06.37.16.76a4.69 4.69 0 0 0 .43 1m-1.14-1.23v-.14a1 1 0 0 1-.74-.1l-.14-.06a.85.85 0 0 1-1-.39 1.34 1.34 0 0 1-.18-.27 1 1 0 0 1-.08-.2l-1-.1-.1-.08a1.38 1.38 0 0 1-1-.51 4 4 0 0 1-.33-.74 5.23 5.23 0 0 0-.78-1.29 1.12 1.12 0 0 1-.67.57 1.77 1.77 0 0 1-1.1-.08 2 2 0 0 1-1.08-.92 1.59 1.59 0 0 1 .49-2.22H52a1.27 1.27 0 0 1 1.23.06 1.92 1.92 0 0 1 1 1v.06q.1-.51.16-.74a.73.73 0 0 0 .06-.18.26.26 0 0 1 .06-.1"/><path class="cls-14" d="M59.51 26.38a6.86 6.86 0 0 1-.43-.74 5 5 0 0 1-.37-1m4.27 5.28l-.26.19M66 27.88a1.63 1.63 0 0 0-.35-1 2.28 2.28 0 0 1-.29-.47m1.04-.25l-.7-.72m-.49 4.3a6.06 6.06 0 0 1-.08-.67 1.87 1.87 0 0 1 0-.55M63.92 25a6.56 6.56 0 0 0-2.74-2.23 10.94 10.94 0 0 0-3.21-.9l-.47-.1m-11 7.7l-.16.16a.25.25 0 0 1-.2.1.11.11 0 0 1-.14 0 .31.31 0 0 0-.16-.08m5.77-1.26a6.69 6.69 0 0 1-.63-.45l-.59-.47a3.16 3.16 0 0 0 0 .35 3.7 3.7 0 0 0 .27.86 3.82 3.82 0 0 0 .61.78 5.84 5.84 0 0 0 .78.76 2.76 2.76 0 0 0 .84.39m5.66-1.71a5.86 5.86 0 0 1-3.35 0 9.33 9.33 0 0 1-2.13-.8l-.57-.29-.5-.31a5.65 5.65 0 0 1-.57-.31l-1-.59-1-.63a1.09 1.09 0 0 0 .18.63 6.47 6.47 0 0 0 .8.82M49.4 26a21 21 0 0 1-2.07-1.64m8.29-.43l.14.41a3.77 3.77 0 0 0 .45.84m1.4-1.84q.06.57.18 1.17a5.65 5.65 0 0 0 .27 1 1.23 1.23 0 0 0 .57.7m-1.72-1.97l.43 1.12m-3.19-2.72a.86.86 0 0 0 .08-.27 1.68 1.68 0 0 0 0-1.12.8.8 0 0 1-.06-.16"/><path class="cls-14" d="M51.29 29.45a2.6 2.6 0 0 0 0 .72 2.11 2.11 0 0 0 .31.84 1.37 1.37 0 0 0 .76.61 3.56 3.56 0 0 1 .45.27 6.46 6.46 0 0 0 1 .43"/><path class="cls-14" d="M52.37 31.62a1.47 1.47 0 0 0 .39.86 6.48 6.48 0 0 0 .7.67 2.19 2.19 0 0 0 1 .45 6.77 6.77 0 0 1 1 .27 2.63 2.63 0 0 0-.06-.35q-.06-.31-.14-.61"/><path class="cls-14" d="M55.41 33.83a2.72 2.72 0 0 0 .55.84q.31.31.72.67l.16.12.2.2.33.27a2.36 2.36 0 0 0 1.08.39l.57-.08a1.16 1.16 0 0 1 .18.18.78.78 0 0 1 .14.2 3.59 3.59 0 0 1 .82.25 1.6 1.6 0 0 0 .43.25 1.75 1.75 0 0 0 .45.08"/><path class="cls-14" d="M46.38 37.94h.06a.2.2 0 0 1 .18 0 5.55 5.55 0 0 0 .65.45 8.35 8.35 0 0 0 1.88.82 12.17 12.17 0 0 0 2 .39 15.31 15.31 0 0 0 1.78 0h.39a7.43 7.43 0 0 0 3.27-.7 8.6 8.6 0 0 0 1.7-1.1l1.1-1.12m-3.13 2.4l.48 1.16"/><path class="cls-14" d="M58.51 36.36l-.94 1A8 8 0 0 1 53 38.9a9 9 0 0 1-5.15-1.35h-.14"/><path class="cls-14" d="M56.73 35.38l-.82.65a7.27 7.27 0 0 1-6.44.76m.53 2.69l-.1 1.31m-2.6-2.4l-.86 1m3.46 2.46a6 6 0 0 0 .1 1.21 3.12 3.12 0 0 1-.06.61 1.35 1.35 0 0 1 .06.39.08.08 0 0 0 .08.08.37.37 0 0 0 .2.12 2.62 2.62 0 0 0 .57 0H51a2.86 2.86 0 0 0 .47 0h.18l.45-.22a.24.24 0 0 0 .14-.14v-.1a.77.77 0 0 1 0-.25v-.25a4.3 4.3 0 0 0 0-.94m-6.48-1.84a3.83 3.83 0 0 1-.59.82l-.25.12a.86.86 0 0 0-.08.51v.16a1.64 1.64 0 0 1 .27.25h.06a.86.86 0 0 1 .22.16h.06l.9.63a.12.12 0 0 1 .08.08h.06l.18.06h.06a.47.47 0 0 0 .43-.12 1.34 1.34 0 0 0 .16-.2 1.23 1.23 0 0 0 .16-.33 5.54 5.54 0 0 0 .12-.94M37.26 52.48a7.82 7.82 0 0 1 5.83 1 3.84 3.84 0 0 1 1.76 3.19H45a1.39 1.39 0 0 0 .41-.18l.1-.06h.06a.22.22 0 0 0 0-.08 1 1 0 0 0 .18-.14l.1-.06A.26.26 0 0 1 46 56a.4.4 0 0 0 .18-.18.63.63 0 0 0 .22-.18l.18-.25a.72.72 0 0 1 .1-.2 1.33 1.33 0 0 0 .16-.31v-.06a.08.08 0 0 0 0-.06 4 4 0 0 0 .16-.53.39.39 0 0 0 0-.12 1.11 1.11 0 0 0 0-.31v-.39a.08.08 0 0 0 0-.08 1.76 1.76 0 0 1 0-.29.46.46 0 0 0 0-.2v-.06a.87.87 0 0 0 .08-.25 3 3 0 0 1 .16-.45.41.41 0 0 1 0-.18.08.08 0 0 0 0-.06l.2-.47.22-.47a.12.12 0 0 0 0-.08 5 5 0 0 0 .2-.51l.06-.14.18-.43a8.84 8.84 0 0 0 .28-5.74h-.14a.67.67 0 0 0-.2 0h-.18a.37.37 0 0 1-.27-.08h-.06l-.12-.2v-.43m2.49.38a.08.08 0 0 0 0 .06.56.56 0 0 1-.35.16h-1.17"/><path class="cls-14" d="M44.93 41.46l-.14.1h-.12a1.64 1.64 0 0 1-.57-.06 1.41 1.41 0 0 1-.47-.25l-.44-.25h-.06q-.2-.2-.43-.39m12.08 1.54l.1.72.1.1a.64.64 0 0 0 .45.29.22.22 0 0 0 .12 0 1.23 1.23 0 0 0 .63-.12.45.45 0 0 1 .18-.08 1.45 1.45 0 0 0 .39-.18.6.6 0 0 0 .2-.16l.12-.08a1.63 1.63 0 0 0 .25-.2.63.63 0 0 0 .12-.45 1.16 1.16 0 0 0-.06-.37 5.34 5.34 0 0 0-.45-.8m.53 1.18l.22.25h.2a1.58 1.58 0 0 0 .57-.06l.31-.12h.08L59 42a.83.83 0 0 0 .2-.18v-.06h.06a.18.18 0 0 0 .06-.12v-.45a.2.2 0 0 0 0-.1l-.53-1m-6.42 3.39a1.79 1.79 0 0 0 .2.35.77.77 0 0 0 .51.08 1.88 1.88 0 0 0 .53-.12h.08l.31-.1h.06a.12.12 0 0 0 .1-.06l.1-.06.22-.12h.06l.14-.12a.37.37 0 0 0 .06-.22.16.16 0 0 0 0-.06v-.16m-.07-1.34l-.34-1.92m-1.86 2.06l-.13-1.93m11.79-8.57a4.92 4.92 0 0 1 .22-.59 2.63 2.63 0 0 0 .08-1.15"/><path class="cls-14" d="M59.32 41.21l.2.29a.17.17 0 0 1 .12 0h.06a.86.86 0 0 0 .53-.12l.51-.29A.33.33 0 0 0 61 41h.06l.16-.18a.07.07 0 0 0 0-.06.33.33 0 0 0 0-.27.86.86 0 0 0 0-.2.22.22 0 0 0 0-.12.8.8 0 0 0-.1-.18 5.56 5.56 0 0 1-.55-.94m.74 1.18l.27.2h.06a.22.22 0 0 0 .12 0 .32.32 0 0 0 .27-.1 1 1 0 0 0 .18-.14l.27-.22.18-.16m-3.77 2.28a10 10 0 0 1-.26 4.91A26.53 26.53 0 0 1 56 53a17.84 17.84 0 0 0-2.33 6.52M21.24 46.88a1.77 1.77 0 0 0 0-.25v-1.51l-.08-.78v-.78l.51-2.5q.12.22.29.47a3.62 3.62 0 0 1 .8 1.47 9.67 9.67 0 0 0-.29-1 7.94 7.94 0 0 1 .53-6.54.83.83 0 0 0 .14.37 7.41 7.41 0 0 1 1.12 5.56l.35-.53a4.58 4.58 0 0 0 .15-3.86 7 7 0 0 1 0-5.3 1.73 1.73 0 0 0 .25.37q.88 1 1.76 1.9a7.64 7.64 0 0 1-.06-6.3v.82a1.86 1.86 0 0 0 .29.41q.7.61 1.45 1.19a9.12 9.12 0 0 1-.68-7.09 2 2 0 0 0 .25.51l2 2.56a7.13 7.13 0 0 1-.17-1.07v-2.85a.07.07 0 0 0 0-.06l-.12-.55a.16.16 0 0 0 0-.06.5.5 0 0 0 0-.18 4.78 4.78 0 0 0-.27-.57l.43.12.08.06a.42.42 0 0 0 .25.12 1.61 1.61 0 0 1 .29.22.06.06 0 0 1 .06.06 2.87 2.87 0 0 1 .37.35L31 22l.31.45a.39.39 0 0 1 0 .12.07.07 0 0 1 0 .06l.29.59v.06a2 2 0 0 1 .12.57 1.19 1.19 0 0 1 0 .33 2.33 2.33 0 0 0 0 .33v.63a.07.07 0 0 1 0 .06 1.94 1.94 0 0 1-.08.57.29.29 0 0 1 0 .16l-.64 1.5.65-.65a2.92 2.92 0 0 0 .43-.49.13.13 0 0 0 .06-.06.2.2 0 0 0 .06-.14.56.56 0 0 0 .16-.14v2.35a.08.08 0 0 1 0 .08 3.62 3.62 0 0 1-.08.57 1.45 1.45 0 0 0-.06.18 3.07 3.07 0 0 0-.08.49v.06a1 1 0 0 1-.08.2l-.12.33a1.82 1.82 0 0 1-.22.37A4.32 4.32 0 0 1 30.51 32l-.88.74 2-1a.19.19 0 0 1 .1-.12v.12a.52.52 0 0 1-.06.12 4.94 4.94 0 0 1-3.46 4.42q-.63.27-1.23.57l-.1.12-.06.18a4.89 4.89 0 0 1 2.9-.9 1.18 1.18 0 0 0 .45-.1 5.54 5.54 0 0 1-4.17 4l-1.1.41-.25.25A8.27 8.27 0 0 1 27.3 40a7.92 7.92 0 0 1 .86-.2 7.75 7.75 0 0 1-3.26 3.8 9.26 9.26 0 0 0-1.72 1.17q-.41.37-.78.76a.12.12 0 0 1-.08.08.77.77 0 0 0-.25.31 1.49 1.49 0 0 1-.27.39l-.06.06a1.35 1.35 0 0 0-.12.2l-.18.27a.23.23 0 0 0 0 .1l-.06.08a.12.12 0 0 0 0 .08"/><path class="cls-14" d="M30.57 22.25a1 1 0 0 1 .08.2l.35.8a.6.6 0 0 1 0 .14v.18a.07.07 0 0 1 0 .06v.51a.08.08 0 0 1 0 .06v.57a.67.67 0 0 0 0 .16 2.17 2.17 0 0 1 0 .31 3.45 3.45 0 0 0-.06.37 1.27 1.27 0 0 1 0 .31q-.33 1.12-.7 2.27l.76-.78"/><path class="cls-14" d="M28.32 25.87a22.23 22.23 0 0 1 1.23 3.7 5.28 5.28 0 0 1 .14 1 6.78 6.78 0 0 0 .31-.76q.14-.55.25-1.08v-.49a5.4 5.4 0 0 0-.1-1A11 11 0 0 1 30 26.1M28.83 33a2.27 2.27 0 0 0 .06-.51v-.09a15 15 0 0 0-.16-1.6l-.31-.7"/><path class="cls-14" d="M30.24 28.31l.02-.11-.02.07m-.55 2.33l-.53 1.62a5.39 5.39 0 0 0 2.13-2.64 13.78 13.78 0 0 0 .49-1.78M22.76 43v.22a2.81 2.81 0 0 1 0 .35l-.08.51.72-1.31a9 9 0 0 0 .09-3.77q-.12-.59-.27-1.15m3.61-.75h-.06q-.33.39-.65.82a5.6 5.6 0 0 0-.33.53l-.45 1.06a4.88 4.88 0 0 0 1.84-1.35 6.92 6.92 0 0 1 .72-.7m-3.3 3.4l.04-.04M22 43.09v2.55a2.06 2.06 0 0 1-.1.65m.82-2.17l-.54 1.45A9.91 9.91 0 0 1 26.36 41m-2.11.4l-.82 1.41m1.45-2.23l.45-1.05m3.83-7.32l-.12.1-.14.2"/><path class="cls-14" d="M27.07 30.31a5.19 5.19 0 0 1 .84 3.25v1.19l.25-.33a4 4 0 0 1 .25-.51 2.26 2.26 0 0 1 1.25-1.21l-1.49 1.72m2.15-1.08l-2.8 2.45-.53 1m-.23.33l.12-.2.12-.55a3.8 3.8 0 0 0-.28-2.37m1.17.75l-.37 1.04M25.27 34a4.9 4.9 0 0 1 .65 3.91q-.06.29-.14.57m9.04 22.24a8.53 8.53 0 0 0-.47-7.08M30 59.86a7.41 7.41 0 0 0 .16-4.52 1.45 1.45 0 0 1-.06-.18.72.72 0 0 0-.1-.16.26.26 0 0 0-.1-.16m-3.09-2.67l-.14.49a1.71 1.71 0 0 1-1.08 1.1l-.61.06a5.43 5.43 0 0 1-2.52-1.33l-.12-.59m2.79 3.85a4.12 4.12 0 0 1-2.29-.75 5.5 5.5 0 0 1-.63-.45 1.75 1.75 0 0 1-.39-.39 1 1 0 0 1-.18-.31m3.88 4.89a8 8 0 0 1-2.86-1h-.12v-.06h-.08m-.56-1.44l.12.12a13.24 13.24 0 0 0 3.19 1m.79 2.38h-.45a3.57 3.57 0 0 1-1.64-.45l-.47-.22a4.69 4.69 0 0 1-.55-.39m38.68-18.25q.39 6.32-3.39 13.85l-.06.25.57 1 .2-.29.12-.12a9.09 9.09 0 0 1 6.63-3.54h.47"/><path class="cls-14" d="M58.12 54.53a9.67 9.67 0 0 0-1.45 5l-.06 1.39 1.47 2.7a18.44 18.44 0 0 1 .92 2.5l.34 1.88.06-.55.33-2.54q.1-.59.16-1.15a8.28 8.28 0 0 0-.18-2.76l-.76-2.86a5.38 5.38 0 0 1 0-2.86.39.39 0 0 1 0-.12m5.85 11.41a1.41 1.41 0 0 0-1 .76h-.74a1.57 1.57 0 0 0-2.22 0 1 1 0 0 1-.7-.29L60 67l-.55.45m-.11.55v.57a10.26 10.26 0 0 1-.51 3.93 5.09 5.09 0 0 1 6.17-.88m-6.82-17.34l-.1.18v.06M41 60a8.42 8.42 0 0 0 3.87-3.19v-.1m-8.45 37.53q0-15 7.91-31.29c-.53.22-2.89 1.39-3.41 1.63A88.82 88.82 0 0 0 35 93.94s0 .07-.34-.07c.26 0 1.44.35 1.75.37l1 .06a5.53 5.53 0 0 0 .92-.29 5 5 0 0 1 1.08-.12 7.85 7.85 0 0 1 1.41.16 10 10 0 0 0 1.64.14h.88a1.26 1.26 0 0 1 .22-.14 2.71 2.71 0 0 1 .82-.37v-.14a9.8 9.8 0 0 1 .41-4.15l.22-.61a4.06 4.06 0 0 1 .33-.51.52.52 0 0 1 .06-.12 70.68 70.68 0 0 0 5.44-10.84l2.47-2.88a.12.12 0 0 1 .08-.08q3.35-4.19 2.62-7.87l-1-2.39m1.59-3.2l-4.36-.22a24.87 24.87 0 0 0-7.83 2.27h-.08m14.54 9.56v.02M64 77.86a3.62 3.62 0 0 0 .25-.57 4 4 0 0 0 .2-1.12v-.33l-.25-1.53-.41-.7a.52.52 0 0 0-.12-.12 1.18 1.18 0 0 0-.8.25l-.1.31.2.94a8.35 8.35 0 0 1 .08.86 1.38 1.38 0 0 1 0 .22 7.54 7.54 0 0 1-.31 1 1.74 1.74 0 0 1-.31.55.45.45 0 0 0 0 .14m2.78 0a.94.94 0 0 0 .22-.33 4.85 4.85 0 0 0 .12-.53 5.36 5.36 0 0 1 .08-.94.39.39 0 0 1 0-.12 1.49 1.49 0 0 0-.06-.41 3.62 3.62 0 0 1-.1-.57 1.83 1.83 0 0 0-.29-.61 2.24 2.24 0 0 0-.39-.41.89.89 0 0 0-.57.47m1.89.32a.83.83 0 0 0-.41.1.24.24 0 0 0-.2.12m-4.4-.36l.16.27a7.45 7.45 0 0 0 .41-.72l.12-.31.08-.9a1.68 1.68 0 0 0-.18-.59m-.42 2.51l.12 1.08a2.86 2.86 0 0 1-.14.76 2.26 2.26 0 0 0-.14.65l-.39.51"/><path class="cls-14" d="M62.82 74.04l-.49-.39-.53.08M42.76 63.65q-1.29.57-2.68 1.29m16.26 27.13a3.9 3.9 0 0 1-2 1.1 21.51 21.51 0 0 0-2.19.45L50 94.2a7.81 7.81 0 0 1-1.86.27h-1.08a3.64 3.64 0 0 0 .22 2.76 1.69 1.69 0 0 0 .29.43 4.19 4.19 0 0 0 2.31 1.15l5.79.25m.91-.06a1.53 1.53 0 0 1-.61.25 8.54 8.54 0 0 0-.9.39 7.69 7.69 0 0 0-1.33.51 10.08 10.08 0 0 1-1.62.51 5.54 5.54 0 0 1-2.66.12l-.46-.18a22.56 22.56 0 0 0 .31 10.4l.18 5.17.31.59a8.14 8.14 0 0 0 2.76.49 2.7 2.7 0 0 0 1.51-.49"/><path class="cls-14" d="M48.57 97.39q1.92.06 3.56.06A10.9 10.9 0 0 0 55 97a4.15 4.15 0 0 0 2.11-1.57M47 94.45a1.27 1.27 0 0 1-.16-.43q-.22-1.35-.51-2.7l-.92-3m-7.11 9.07l6-.78a2 2 0 0 0 .7-.84 1.64 1.64 0 0 0 .14-1 1.41 1.41 0 0 0-.45-.82 3.26 3.26 0 0 1-.31-.31m-9.93 5.8a2.61 2.61 0 0 0 .76.37 10.91 10.91 0 0 0 2.82.65 6.3 6.3 0 0 0 2.74-.63l.82-.2a8.23 8.23 0 0 1 1.17-.08.08.08 0 0 1 .08 0H43l.39-.1a1.46 1.46 0 0 0 .84-.72 1.86 1.86 0 0 0 .29-.57 1.92 1.92 0 0 0 0-1 5.14 5.14 0 0 0-.14-.51m3.14.99a2.34 2.34 0 0 0 .86 2.54l.57.39m.5 15.62a4.19 4.19 0 0 0-2.6 1 3.23 3.23 0 0 1-1.49.59l-.45.12a13.3 13.3 0 0 1-2.11.33q-.74.1-1.51.25a.63.63 0 0 0-.27.74 1.77 1.77 0 0 0 1.27 1.31 8.91 8.91 0 0 0 2 .35 8.91 8.91 0 0 0 3.07 0 10.35 10.35 0 0 0 2.19-.37v.78a23.74 23.74 0 0 1 2.62.1 1.73 1.73 0 0 0 2-.94 2.52 2.52 0 0 0 .27-.84 10.58 10.58 0 0 0 .1-1.41 1.2 1.2 0 0 1 0-.29M35.5 94.14a.37.37 0 0 0-.27 0 3.19 3.19 0 0 1-1.15-.55m.01-.02h-.02"/><path class="cls-14" d="M31.84 115.82a4.21 4.21 0 0 0 1.9.76 3 3 0 0 0 2.58-.88v-.14a19.49 19.49 0 0 1 3.54-7.79 12 12 0 0 0 2.86-8.18"/><path class="cls-14" d="M29.42 117.86q-.33.31-.65.57a18 18 0 0 1-1.47 1.15 9.3 9.3 0 0 1-2.6 1.42q-.78.25-1.51.53a1.34 1.34 0 0 0-.47.37 2.17 2.17 0 0 0 2.52 1.29 13.93 13.93 0 0 0 2.8-.53 23.8 23.8 0 0 0 2.68-1.06 26.79 26.79 0 0 1 2.62-1.1l.22.7q1.17-.25 2.43-.57a.61.61 0 0 0 .59-.43 8 8 0 0 0 .31-2.29v-1.1a1.29 1.29 0 0 0-.57-1.06m8.59 2.11h-8.02m11.92-84.22a4.42 4.42 0 0 0 2.74-1.37"/><path class="cls-15" d="M46.6 26a2.17 2.17 0 0 1 2.46 1.36m-1.81-.52s.64-.07 1.17.81"/><path d="M47.28 26.87s-.19.53 0 .76c.39.39.58-.14.7-.29s-.7-.47-.7-.47z" stroke-width=".4" stroke="#000" stroke-linecap="round" stroke-linejoin="round"/><path class="cls-15" d="M47 27.75s.28.32 1.07.21"/><path class="cls-14" d="M48.42 39.14L47.87 41m10.04-2.69l.55 1.11m.69-2.28l1.09 1.32"/><circle class="cls-1" cx="47.34" cy="27.16" r=".16"/></g></g></g></g></svg>