<svg xmlns="http://www.w3.org/2000/svg" viewBox="0 0 87 140">
  <rect width="87" height="140" rx="6" ry="6" fill="#fff"/>
  <path d="M51.5 24.2s2.2 2.5 2.8 11.1-.7 14.5 4.1 21.4 10 1.7 10.4.7 2.8-4.5-.6-13.4-7.4-13-8.4-16.8-1.6-6.5-.6-9.8c.6-1.6.2-.9.3-1.2s-3-.3-6.1 3.1-1.9 4.9-1.9 4.9z" fill="#325723"/>
  <path d="M58.4 56.7c4.8 6.9 10 1.7 10.4.7s2.8-4.5-.6-13.4-7.4-13-8.4-16.8c1.6 17.1-6.2 22.6-1.4 29.5z" fill="red"/>
  <path d="M59.4 16.1a6 6 0 0 0-3.9 1.3 11.2 11.2 0 0 0-3.9 4.4c-.7 1.4-.3 2.4.4 2.9a2.7 2.7 0 0 0 2.7-.5 8.9 8.9 0 0 0 2.4-2.9c.4-1 1.5-3.3 1.5-3.3l.8-1.7.2-.4z" fill="#0d3a12"/>
  <path d="M54.7 24.3s1.3 7.4-.2 13.8c0 0-.3-5.5-.7-7.3a28.4 28.4 0 0 0-1.5-5.4l-.5-.7z" fill="#0d3a12"/>
  <path d="M61.9 31.7s4.6 7 5.7 10.6 3.2 7.4 2.2 12.3a7.3 7.3 0 0 1-3.5 4.9s.9-9-2-16.8-3.8-9.4-3.8-9.4z" fill="#980805"/>
  <path d="M51.5 24.2s2.2 2.5 2.8 11.1-.7 14.5 4.1 21.4 9.6 1.8 10.4.7 2.8-4.5-.6-13.4-7.4-13-8.4-16.8-1.6-6.5-.6-9.8l.3-1.2c-.1-.3-3-.3-6.1 3.1s-1.9 4.9-1.9 4.9z" fill="none" stroke="#000" stroke-linecap="round" stroke-linejoin="round" stroke-width=".4"/>
  <path d="M51.5 24.2s.9 1.6 3.2 0 4-7.4 4.7-7.9" fill="none" stroke="#000" stroke-linecap="round" stroke-linejoin="round" stroke-width=".4"/>
  <path d="M62.7 34.1a19.8 19.8 0 0 0-2.1-4.6 23 23 0 0 1-2-7.9s-1.2 8.6-2.4 11-.4 2-.1 2l1.3-.3a8.3 8.3 0 0 0-1.4 2.6c-.2.9-.4 1.8.6 1.3l1-.6a12.3 12.3 0 0 1-1.3 4.4 11.2 11.2 0 0 0-1.5 5.1 16.8 16.8 0 0 0 3.1 8.8c.1 0 .2.1.2-.8s.8-2.1.9-3.8a11.4 11.4 0 0 0 0-1.9s.6 1.1 1 .8.6-2.1-.6-5.6c0 .3 1.2 1.2 1.7.9s1.2-2.3.4-5.8l-.4-1s.7.9 1 .8.7-1.9-.3-5.1c0-.1 1.1.9.9-.3z" fill="#fbc219"/>
  <path d="M58.7 25.5a50.1 50.1 0 0 1-.7 6c-.5 1.3-.8 1.6-.5 1.5l.8-.2a18.2 18.2 0 0 0-.9 2.8c-.2 1.1.2 1 .3.8s1-1.2 1-1.2a18.5 18.5 0 0 1-1.2 5A18.6 18.6 0 0 0 56 48a29.7 29.7 0 0 0 1.2 5.6s.5-4.7.7-5.8.1-1.4.1-1.4.3 1.6.6 1.5.1-2.7 0-4a3.3 3.3 0 0 1 0-1c0-.3.8.7 1.2.7s1 .9.3-5.2c-.1-1.9-.2-2.9-.2-2.9s.5 1.6.9 1.7.4-1.7.1-4.1-1.6-6.9-1.6-7l-.4-2.1-.3-1z" fill="#d09b07"/>
  <path d="M58.6 21.5s-1.2 8.6-2.4 11-.4 2-.1 2l1.3-.4a9.1 9.1 0 0 0-1.4 2.7c-.2.9-.4 1.8.6 1.3l1-.6a12.3 12.3 0 0 1-1.3 4.4 11.2 11.2 0 0 0-1.5 5.1 17 17 0 0 0 3.1 8.8c.1 0 .2.1.2-.8s.8-2.1.9-3.8a11.4 11.4 0 0 0 0-1.9s.6 1 1 .8.6-2.1-.6-5.6c0 .3 1.2 1.2 1.7.9s1.2-2.3.4-5.8l-.4-1s.7.9 1 .8.7-1.9-.3-5.1c.1.1 1.2 1.1 1-.2a25.3 25.3 0 0 0-2-4.6c-1.2-1.8-2.1-6.3-2.2-8z" fill="none" stroke="#000" stroke-linecap="round" stroke-linejoin="round" stroke-width=".4"/>
  <path d="M58.6 21.9s.6 8.2.8 10.1-.7 7.6-1.8 11.2-.8 10.2.1 12.4" fill="none" stroke="#000" stroke-linecap="round" stroke-linejoin="round" stroke-width=".4"/>
  <path d="M35.5 24.2s-2.2 2.5-2.8 11.1.7 14.5-4.1 21.4-10 1.7-10.4.7-2.8-4.5.6-13.4 7.4-13 8.4-16.8 1.6-6.5.6-9.8c-.6-1.6-.2-.9-.3-1.2s3-.3 6.1 3.1 1.9 4.9 1.9 4.9z" fill="#325723"/>
  <path d="M28.6 56.7c-4.8 6.9-10 1.7-10.4.7s-2.8-4.5.6-13.4 7.4-13 8.4-16.8c-1.6 17.1 6.2 22.6 1.4 29.5z" fill="red"/>
  <path d="M27.7 16.1a6 6 0 0 1 3.9 1.3 11.2 11.2 0 0 1 3.9 4.4c.7 1.4.3 2.4-.4 2.9a2.7 2.7 0 0 1-2.7-.5 8.9 8.9 0 0 1-2.4-2.9c-.4-1-1.5-3.3-1.5-3.3l-.8-1.7-.2-.4z" fill="#0d3a12"/>
  <path d="M32.4 24.3a43 43 0 0 0 .2 13.8s.3-5.5.7-7.3a28.4 28.4 0 0 1 1.5-5.4l.5-.7z" fill="#0d3a12"/>
  <path d="M25.1 31.7s-4.6 7-5.7 10.6-3.2 7.4-2.2 12.3a7.3 7.3 0 0 0 3.5 4.9s-.9-9 2-16.8 3.8-9.4 3.8-9.4z" fill="#980805"/>
  <path d="M35.5 24.2s-2.2 2.5-2.8 11.1.7 14.5-4.1 21.4-9.6 1.8-10.4.7-2.8-4.5.6-13.4 7.4-13 8.4-16.8 1.6-6.5.6-9.8l-.3-1.2c.1-.3 3-.3 6.1 3.1s1.9 4.9 1.9 4.9z" fill="none" stroke="#000" stroke-linecap="round" stroke-linejoin="round" stroke-width=".4"/>
  <path d="M35.5 24.2s-.9 1.6-3.2 0-4-7.4-4.7-7.9" fill="none" stroke="#000" stroke-linecap="round" stroke-linejoin="round" stroke-width=".4"/>
  <path d="M24.3 34.1a19.8 19.8 0 0 1 2.1-4.6 23 23 0 0 0 2-7.9s1.2 8.6 2.4 11 .4 2 .1 2l-1.3-.5a9.1 9.1 0 0 1 1.4 2.7c.2.9.4 1.8-.6 1.3l-1-.6a12.3 12.3 0 0 0 1.3 4.4 11.2 11.2 0 0 1 1.5 5.1 17 17 0 0 1-3.1 8.8c-.1 0-.2.1-.2-.8s-.8-2.1-.9-3.8a11.4 11.4 0 0 1 0-1.9s-.6 1-1 .8-.6-2.1.6-5.6c0 .3-1.2 1.2-1.7.9s-1.2-2.3-.4-5.8l.4-1s-.7.9-1 .8-.7-1.9.3-5.1c.2 0-1.1 1-.9-.2z" fill="#fbc219"/>
  <path d="M28.3 25.5a50.1 50.1 0 0 0 .7 6c.5 1.3.8 1.6.5 1.5l-.8-.2s.7 1.8 1 2.9-.2 1-.3.8-1-1.2-1-1.2a18.5 18.5 0 0 0 1.2 5 20.5 20.5 0 0 1 1.6 7.8 36.5 36.5 0 0 1-1.3 5.6s-.5-4.7-.6-5.8a10.2 10.2 0 0 1-.2-1.4s-.3 1.6-.6 1.5-.1-2.7 0-4a3.3 3.3 0 0 0 0-1c0-.3-.8.8-1.1.8s-1 .8-.4-5.3c.1-1.9.2-2.9.2-2.9s-.5 1.6-.8 1.7-.5-1.7-.2-4 1.6-7 1.6-7.1l.5-2.1.2-1z" fill="#d09b07"/>
  <path d="M28.4 21.5s1.2 8.6 2.4 11 .4 2 .1 2l-1.3-.4a9.1 9.1 0 0 1 1.4 2.7c.2.9.4 1.8-.6 1.3l-1-.6a12.3 12.3 0 0 0 1.3 4.4 11.2 11.2 0 0 1 1.5 5.1 17 17 0 0 1-3.1 8.8c-.1 0-.2.1-.2-.8s-.8-2.1-.9-3.8a11.4 11.4 0 0 1 0-1.9s-.6 1-1 .8-.6-2.1.6-5.6c0 .3-1.2 1.2-1.7.9s-1.2-2.3-.4-5.8l.4-1s-.7.9-1 .8-.7-1.9.3-5.1c-.1.1-1.2 1.1-1-.2a25.3 25.3 0 0 1 2-4.6c1.2-1.8 2.2-6.3 2.2-8z" fill="none" stroke="#000" stroke-linecap="round" stroke-linejoin="round" stroke-width=".4"/>
  <path d="M28.4 21.9s-.6 8.2-.8 10.1.7 7.6 1.8 11.2.8 10.2-.1 12.4" fill="none" stroke="#000" stroke-linecap="round" stroke-linejoin="round" stroke-width=".4"/>
  <path d="M51.5 115.8s2.2-2.5 2.8-11.1-.7-14.5 4.1-21.4 10-1.7 10.4-.7 2.8 4.5-.6 13.4-7.4 13-8.4 16.8-1.6 6.5-.6 9.8c.6 1.6.2.9.3 1.2s-3 .3-6.1-3.1-1.9-4.9-1.9-4.9z" fill="#325723"/>
  <path d="M58.4 83.3c4.8-6.9 10-1.7 10.4-.7s2.8 4.5-.6 13.4-7.4 13-8.4 16.8c1.6-17.1-6.2-22.5-1.4-29.5z" fill="red"/>
  <path d="M59.4 123.9a6 6 0 0 1-3.9-1.3 11.2 11.2 0 0 1-3.9-4.4c-.7-1.4-.3-2.4.4-2.9a2.7 2.7 0 0 1 2.7.5 10.1 10.1 0 0 1 2.4 2.9c.4 1 1.5 3.3 1.5 3.3l.8 1.7.2.4z" fill="#0d3a12"/>
  <path d="M54.7 115.8s1.3-7.4-.2-13.7c0 0-.3 5.4-.7 7.2a28.4 28.4 0 0 1-1.5 5.4l-.5.8z" fill="#0d3a12"/>
  <path d="M61.9 108.3s4.6-7 5.7-10.6 3.2-7.4 2.2-12.3a7.3 7.3 0 0 0-3.5-4.9s.9 9-2 16.8-3.8 9.4-3.8 9.4z" fill="#980805"/>
  <path d="M51.5 115.8s2.2-2.5 2.8-11.1-.7-14.5 4.1-21.4 9.6-1.8 10.4-.7 2.8 4.5-.6 13.4-7.4 13-8.4 16.8-1.6 6.5-.6 9.8l.3 1.2c-.1.3-3 .3-6.1-3.1s-1.9-4.9-1.9-4.9z" fill="none" stroke="#000" stroke-linecap="round" stroke-linejoin="round" stroke-width=".4"/>
  <path d="M51.5 115.8s.9-1.6 3.2 0 4 7.4 4.7 7.9" fill="none" stroke="#000" stroke-linecap="round" stroke-linejoin="round" stroke-width=".4"/>
  <path d="M62.7 106a22.9 22.9 0 0 1-2.1 4.7 21.9 21.9 0 0 0-2 7.8s-1.2-8.6-2.4-11-.4-2-.1-2l1.3.4a9.1 9.1 0 0 1-1.4-2.7c-.2-.9-.4-1.8.6-1.3l1 .6a12.3 12.3 0 0 0-1.3-4.4 11.2 11.2 0 0 1-1.5-5.1 17 17 0 0 1 3.1-8.8c.1 0 .2-.1.2.8s.8 2.1.9 3.8a11.4 11.4 0 0 1 0 1.9s.6-1 1-.8.6 2.1-.6 5.6c0-.3 1.2-1.2 1.7-.9s1.2 2.3.4 5.8l-.5 1.1s.6-.9 1-.8.7 1.9-.4 5.2c.2-.2 1.3-1.2 1.1.1z" fill="#fbc219"/>
  <path d="M58.7 114.5a50.1 50.1 0 0 0-.7-6c-.5-1.3-.8-1.6-.5-1.5l.8.2s-.7-1.8-1-2.9.2-1 .3-.8 1 1.2 1 1.2a18.5 18.5 0 0 0-1.2-5 20.5 20.5 0 0 1-1.6-7.8 36.5 36.5 0 0 1 1.3-5.6s.5 4.7.6 5.8a10.2 10.2 0 0 1 .2 1.4s.3-1.6.6-1.5.1 2.7 0 4a3.3 3.3 0 0 0 0 1c0 .3.8-.8 1.1-.8s1-.8.4 5.3c-.1 1.9-.2 2.9-.2 2.9s.5-1.6.8-1.7.5 1.7.2 4-1.6 7-1.6 7.1l-.5 2.1-.2 1z" fill="#d09b07"/>
  <path d="M58.6 118.5s-1.2-8.6-2.4-11-.4-2-.1-2l1.3.4a9.1 9.1 0 0 1-1.4-2.7c-.2-.9-.4-1.8.6-1.3l1 .6a12.3 12.3 0 0 0-1.3-4.4 11.2 11.2 0 0 1-1.5-5.1 17 17 0 0 1 3.1-8.8c.1 0 .2-.1.2.8s.8 2.1.9 3.8a11.4 11.4 0 0 1 0 1.9s.6-1 1-.8.6 2.1-.6 5.6c0-.3 1.2-1.2 1.7-.9s1.2 2.3.4 5.8l-.5 1.1s.6-.9 1-.8.7 1.9-.4 5.2c.2-.2 1.3-1.2 1.1.1a22.9 22.9 0 0 1-2.1 4.7c-1 1.6-1.9 6.1-2 7.8z" fill="none" stroke="#000" stroke-linecap="round" stroke-linejoin="round" stroke-width=".4"/>
  <path d="M58.6 118.1s.6-8.2.8-10.1-.7-7.6-1.8-11.2-.8-10.2.1-12.4" fill="none" stroke="#000" stroke-linecap="round" stroke-linejoin="round" stroke-width=".4"/>
  <path d="M35.5 115.8s-2.2-2.5-2.8-11.1.7-14.5-4.1-21.4-10-1.7-10.4-.7-2.8 4.5.6 13.4 7.4 13 8.4 16.8 1.6 6.5.6 9.8c-.6 1.6-.2.9-.3 1.2s3 .3 6.1-3.1 1.9-4.9 1.9-4.9z" fill="#325723"/>
  <path d="M28.6 83.3c-4.8-6.9-10-1.7-10.4-.7s-2.8 4.5.6 13.4 7.4 13 8.4 16.8c-1.6-17.1 6.2-22.5 1.4-29.5z" fill="red"/>
  <path d="M27.7 123.9a6 6 0 0 0 3.9-1.3 11.2 11.2 0 0 0 3.9-4.4c.7-1.4.3-2.4-.4-2.9a2.7 2.7 0 0 0-2.7.5 10.1 10.1 0 0 0-2.4 2.9c-.4 1-1.5 3.3-1.5 3.3l-.8 1.7-.2.4z" fill="#0d3a12"/>
  <path d="M32.4 115.8s-1.2-7.4.2-13.7c0 0 .3 5.4.7 7.2a28.4 28.4 0 0 0 1.5 5.4l.5.8z" fill="#0d3a12"/>
  <path d="M25.1 108.3s-4.6-7-5.7-10.6-3.2-7.4-2.2-12.3a7.3 7.3 0 0 1 3.5-4.9s-.9 9 2 16.8 3.8 9.4 3.8 9.4z" fill="#980805"/>
  <path d="M35.5 115.8s-2.2-2.5-2.8-11.1.7-14.5-4.1-21.4-9.6-1.8-10.4-.7-2.8 4.5.6 13.4 7.4 13 8.4 16.8 1.6 6.5.6 9.8l-.3 1.2c.1.3 3 .3 6.1-3.1s1.9-4.9 1.9-4.9z" fill="none" stroke="#000" stroke-linecap="round" stroke-linejoin="round" stroke-width=".4"/>
  <path d="M35.5 115.8s-.9-1.6-3.2 0-4 7.4-4.7 7.9" fill="none" stroke="#000" stroke-linecap="round" stroke-linejoin="round" stroke-width=".4"/>
  <path d="M24.3 106a22.9 22.9 0 0 0 2.1 4.7 21.9 21.9 0 0 1 2 7.8s1.2-8.6 2.4-11 .4-2 .1-2l-1.3.5a9.1 9.1 0 0 0 1.4-2.7c.2-.9.4-1.8-.6-1.2l-.9.5a11.5 11.5 0 0 1 1.3-4.3 10.6 10.6 0 0 0 1.5-5.2 17.6 17.6 0 0 0-3-8.8c-.2 0-.3-.1-.3.8s-.7 2.1-.9 3.8a11.4 11.4 0 0 0 0 1.9s-.6-1-1-.8-.6 2.1.6 5.6c0-.2-1.2-1.1-1.7-.9s-1.2 2.3-.4 5.8l.4 1s-.6-.9-1-.8-.7 1.9.4 5.2c0-.2-1.3-1.2-1.1.1z" fill="#fbc219"/>
  <path d="M28.3 114.5a50.1 50.1 0 0 1 .7-6c.5-1.3.8-1.6.5-1.5l-.8.2s.7-1.8 1-2.9-.2-1-.3-.8a9.5 9.5 0 0 0-1.1 1.3 18.5 18.5 0 0 1 1.2-5A18.6 18.6 0 0 0 31 92a29.7 29.7 0 0 0-1.2-5.6s-.5 4.7-.7 5.8-.1 1.4-.1 1.4-.3-1.6-.6-1.5-.1 2.7 0 4a3.3 3.3 0 0 1 0 1c0 .3-.8-.7-1.2-.7s-1-.9-.3 5.2c.1 1.9.2 2.9.2 2.9s-.5-1.6-.9-1.7-.4 1.7-.1 4.1 1.6 6.9 1.6 7l.4 2.1.3 1z" fill="#d09b07"/>
  <path d="M28.4 118.5s1.2-8.6 2.4-11 .4-2 .1-2l-1.3.5a9.1 9.1 0 0 0 1.4-2.7c.2-.9.4-1.8-.6-1.2l-.9.5a11.5 11.5 0 0 1 1.3-4.3 10.6 10.6 0 0 0 1.5-5.2 17.6 17.6 0 0 0-3-8.8c-.2 0-.3-.1-.3.8s-.7 2.1-.9 3.8a11.4 11.4 0 0 0 0 1.9s-.6-1-1-.8-.6 2.1.6 5.6c0-.2-1.2-1.1-1.7-.9s-1.2 2.3-.4 5.8l.4 1s-.6-.9-1-.8-.7 1.9.4 5.2c-.2-.2-1.3-1.2-1.1.1a22.9 22.9 0 0 0 2.1 4.7 21.9 21.9 0 0 1 2 7.8z" fill="none" stroke="#000" stroke-linecap="round" stroke-linejoin="round" stroke-width=".4"/>
  <path d="M28.4 118.1s-.6-8.2-.8-10.1.7-7.6 1.8-11.2.8-10.2-.1-12.4" fill="none" stroke="#000" stroke-linecap="round" stroke-linejoin="round" stroke-width=".4"/>
  <path d="M58.5 74.1s-3-1.5-11.4.1-13.8 4.5-21.7 1.6-4.3-9.2-3.4-9.9S25.6 62 35.1 63s14.4 3.9 18.4 3.9 6.6-.1 9.6-2l1-.7c.3-.1 1 2.9-1.4 6.7s-4.2 3.2-4.2 3.2z" fill="red"/>
  <path d="M25.4 75.8c-8-2.9-4.3-9.2-3.4-9.9S25.6 62 35.1 63s14.4 3.9 18.4 3.9c-17 2.8-20.2 11.8-28.1 8.9z" fill="#325723"/>
  <path d="M64.3 64.5a6.2 6.2 0 0 1-.3 4 11.7 11.7 0 0 1-3.2 5c-1.3 1-2.4.9-2.9.3a3.2 3.2 0 0 1-.4-2.7 11 11 0 0 1 2.1-3l2.8-2.3 1.4-1.3.2-.3z" fill="#980805"/>
  <path d="M57.6 71.1s-7.5.8-13.2 3.7c0 0 5.4-1.1 7.3-1.2a32.7 32.7 0 0 1 5.6.1l.9.2z" fill="#980805"/>
  <path d="M48.6 66.1s-8.1-2.7-11.7-2.8-8-1.2-12.6.9a7.2 7.2 0 0 0-3.9 4.7s8.5-3.1 16.7-2.4a92.2 92.2 0 0 1 10.1 1.3z" fill="#0d3a12"/>
  <path d="M58.5 74.1s-3-1.5-11.4.1-13.8 4.5-21.7 1.6-4.3-8.8-3.4-9.9S25.6 62 35.1 63s14.4 3.9 18.4 3.9 6.6-.1 9.6-2l1.1-.7c.2.1.9 2.9-1.4 6.8s-4.3 3.1-4.3 3.1z" fill="none" stroke="#000" stroke-linecap="round" stroke-linejoin="round" stroke-width=".4"/>
  <path d="M58.5 74.1s-1.7-.4-.8-3.1 6.1-5.7 6.5-6.6" fill="none" stroke="#000" stroke-linecap="round" stroke-linejoin="round" stroke-width=".4"/>
  <path d="M46 65.9a19.8 19.8 0 0 1 5.2.7c1.9.6 5.9.4 7.6.1 0 0-7.4 3.3-9.4 5.2s-1.8.8-1.9.5a5.6 5.6 0 0 1 0-1.3 13.5 13.5 0 0 1-2.1 2.1c-.8.4-1.7.8-1.4-.3l.4-1.1a11 11 0 0 0-3.8 2.4 9.9 9.9 0 0 1-4.6 2.7 16 16 0 0 1-9.4-.7c0-.1-.2-.2.7-.4s1.8-1.3 3.4-1.8l1.8-.4s-1.1-.5-1-.8 1.8-1.1 5.5-.9c-.2 0-1.3-.9-1.3-1.4s2-1.7 5.5-1.9l1 .2s-1-.5-1-.8 1.7-1.3 5.2-1c-.2-.1-1.6-1-.4-1.1z" fill="#fbc219"/>
  <path d="M55.4 67.5a36.8 36.8 0 0 0-5.5 2.3c-1.1.8-1.3 1.2-1.3.8v-.8L46 71.5c-1 .5-1 .1-.9-.2l1-1.3a19.6 19.6 0 0 0-4.6 2.5 22.3 22.3 0 0 1-7.1 3.5 25.8 25.8 0 0 1-5.7.3l5.5-2.2 1.2-.4s-1.6 0-1.6-.3 2.6-.8 3.9-1.1l1.1-.2c.2-.1-.9-.5-1.2-.9s-1.1-.8 5.1-1.6a16.1 16.1 0 0 1 2.9-.6s-1.7-.2-1.9-.5 1.4-.7 3.9-1.1 7-.2 7.2-.3H58z" fill="#d09b07"/>
  <path d="M59.2 66.5s-7.8 3.5-9.8 5.4-1.8.8-1.9.6a6.4 6.4 0 0 1 0-1.4 11.3 11.3 0 0 1-2.2 2.1c-.7.4-1.6.8-1.3-.3l.3-1.1a13.2 13.2 0 0 0-3.8 2.4c-2 1.8-3.4 2.5-4.5 2.7a15.8 15.8 0 0 1-9.4-.6c0-.2-.2-.3.6-.5s1.8-1.3 3.5-1.8l1.8-.4s-1.1-.5-1-.8 1.8-1.1 5.5-.9c-.3 0-1.4-.9-1.4-1.3s2-1.8 5.6-1.9h1s-1-.5-1-.8 1.7-1.2 5.1-1c-.1 0-1.4-.9-.2-1a19.6 19.6 0 0 1 5.2.8c1.7.5 6.2.1 7.9-.2z" fill="none" stroke="#000" stroke-linecap="round" stroke-linejoin="round" stroke-width=".4"/>
  <path d="M58.4 66.7l-9.5 2c-2 .2-7.1 2.5-10.4 4.5s-9.6 3.3-12 3" fill="none" stroke="#000" stroke-linecap="round" stroke-linejoin="round" stroke-width=".4"/>
</svg>
