<svg xmlns="http://www.w3.org/2000/svg" viewBox="0 0 87 140">
  <rect width="87" height="140" rx="6" ry="6" fill="#fff"/>
  <path fill="#a30e03" d="M27.6 46.4L23 50h13.3l-4.2-4.7-4.5 1.1z"/>
  <path d="M21.2 22.2s-4-1.6-5.4 1.5 2.5 7.7 2.9 8.5a1.7 1.7 0 0 1-.4 2.2c-2.4 1.6 1.1 3.9 2.2 1s-1.4-6.1-2.3-8.2-1.7-4.6 3.2-3.3m17.4-1.7s4-1.6 5.4 1.5-2.5 7.7-2.9 8.5a1.7 1.7 0 0 0 .4 2.2c2.4 1.6-1.1 3.9-2.2 1s1.4-6.1 2.3-8.2 1.5-4.5-3.4-3.1" fill="none" stroke="#000" stroke-linecap="round" stroke-linejoin="round" stroke-width=".4"/>
  <path d="M27.4 43.3s1.1 3.9-4.5 5.8c0 .1 6.6 1 8-5.2 0 .1-3.5-.6-3.5-.6z" fill="red"/>
  <path d="M32.7 43.3s-1 3.9 4.5 5.8c.1.1-6.5.8-7.9-5.4.1.1 3.4-.4 3.4-.4z" fill="red"/>
  <path d="M27.4 43.3s1.1 3.9-4.5 5.8c0 .1 6.5 1 8-5.2-.1.1-3.5-.6-3.5-.6z" fill="none" stroke="#000" stroke-linecap="round" stroke-linejoin="round" stroke-width=".4"/>
  <path d="M32.7 43.3s-1 3.9 4.5 5.8c.1.1-6.6.8-8-5.4a20.9 20.9 0 0 0 3.5-.4z" fill="none" stroke="#000" stroke-linecap="round" stroke-linejoin="round" stroke-width=".4"/>
  <path d="M27.6 42.6a15 15 0 0 0 2.4 6.6c0-.1 2-1.6 2.4-6.6.6-.1-4.8 0-4.8 0z" fill="red"/>
  <path d="M27.3 38.8S26.7 45 30 49.1c0-.1 3.3-2.7 2.9-10.4 0-.1-5.6.1-5.6.1z" fill="none" stroke="#000" stroke-linecap="round" stroke-linejoin="round" stroke-width=".4"/>
  <path d="M27.2 42.6s-1.7.4-1.7 3c0 0 2.4.6 3.5-2.4m4.2-.6s1.6.4 1.6 3c0 0-2.4.6-3.5-2.4" fill="red"/>
  <path d="M27.2 42.6s-1.7.4-1.7 3c0 0 2.4.6 3.5-2.4m4.2-.6s1.6.4 1.6 3c0 0-2.4.6-3.5-2.4" fill="none" stroke="#000" stroke-linecap="round" stroke-linejoin="round" stroke-width=".4"/>
  <path d="M31.5 43s.5 1.5-1.5 3.4a3.5 3.5 0 0 1-1.5-3.3z" fill="red"/>
  <path d="M31.5 43s.5 1.5-1.5 3.4a3.6 3.6 0 0 1-1.5-3.3z" fill="none" stroke="#000" stroke-linecap="round" stroke-linejoin="round" stroke-width=".4"/>
  <path d="M22.7 21.8a7.7 7.7 0 0 1-2-.9c.1.3.3.7.4 1.1s.3 1 .5 1.5.2 1.6.3 2.6v2.3l-.3 2.5a4 4 0 0 0-.3 1.5 9.3 9.3 0 0 0-.2 2.3c1.1-1.3 2.3-1 3.3.9.5-.9 1-1.3 1.6-1.4s.1-.7.2-1a11.3 11.3 0 0 0 .2-4.1v-2.5c0-.4-.1-.9-.1-1.3l-.3-2.7-3.2-.8m12 .7l-.2 3.9.3 7.6c.6.1 1.1.6 1.7 1.6.9-2.2 1.7-2.4 2.5-.6a19.4 19.4 0 0 0-.2-2.4l-.3-1.7a13.9 13.9 0 0 1-.3-2.7 10.4 10.4 0 0 1 0-2.5 11.5 11.5 0 0 1 .1-1.9c.2-.5.3-1 .5-1.5a8.8 8.8 0 0 1 .5-1.5 6.5 6.5 0 0 1-2.2 1l-2.4.7" fill="#d79f09"/>
  <path d="M40.3 19.4c0-.9-1.1-1.7-3.1-2.4a21.7 21.7 0 0 0-6.7-.9c-2.7 1-4.1 2.9-3.9 5.6v.9a18.8 18.8 0 0 0 3.4.2 34.3 34.3 0 0 0 4.8-.3l2.4-.7a6.5 6.5 0 0 0 2.2-1 1.7 1.7 0 0 0 .9-1.4" fill="red"/>
  <path d="M36.7 35.6c-.6-1-1.2-1.5-1.8-1.6s-1.6.4-2.4 1.9c-1.4-2.3-2.7-2.3-4 0-.9-1.2-1.7-1.8-2.5-1.7a2.2 2.2 0 0 0-1.5 1.4c-1.1-1.9-2.3-2.2-3.4-.9a.6.6 0 0 0-.1.4c0 3.8 1 5.9 4.2 7.9l.6.2s2.9 1.7 8 .2l.8-.4a8.2 8.2 0 0 0 4.5-7.6 4.3 4.3 0 0 0-.1-.5c-1-1.8-1.4-1.5-2.3.7z" fill="#325723"/>
  <path d="M34.6 26.4l.2-3.9a34.3 34.3 0 0 1-4.8.3 18.8 18.8 0 0 1-3.4-.2h-.7l.3 2.7c0 .4.1.9.1 1.3v2.5a11.3 11.3 0 0 1-.2 4.1c-.1.3-.1.7-.2 1s1.6.5 2.5 1.7c1.3-2.3 2.6-2.3 4 0 .8-1.5 1.6-2.1 2.4-1.9l-.3-7.6" fill="#fbc219"/>
  <path d="M30.5 16.1H30a25.5 25.5 0 0 0-7.3.9q-3 1-3 2.4a1.6 1.6 0 0 0 .9 1.4h.1a7.7 7.7 0 0 0 2 .9l3.2.8h.7v-.9c-.2-2.7 1.2-4.6 3.9-5.6" fill="#a30e03"/>
  <path d="M34.5 26.5l3.7-.7a11.1 11.1 0 0 1 .2-1.9 8.3 8.3 0 0 1 .4-1.5 5.8 5.8 0 0 1 .5-1.4l-2.1.9-2.4.7a36.8 36.8 0 0 1-4.9.3h-4l-3.3-.8-2-.9a11.7 11.7 0 0 1 .5 1.1c.1.5.3 1 .4 1.5a20.2 20.2 0 0 1 .4 2.6l4.3.5a46.1 46.1 0 0 0 8.3-.4zM20.6 21h-.1c-.6-.5-.9-.9-.9-1.4s1-1.8 3-2.4a22.6 22.6 0 0 1 7.3-1h.6a22 22 0 0 1 6.7 1q3 .9 3 2.4a2.1 2.1 0 0 1-.9 1.4m-12.9 8.2a34 34 0 0 1-4.6-.7l-.3 2.5-.3 1.5a19.5 19.5 0 0 0-.2 2.3c1.2-1.3 2.3-1 3.4.9.5-.9 1-1.3 1.5-1.4s1.6.5 2.5 1.7c1.3-2.3 2.6-2.3 4 0 .8-1.5 1.6-2.1 2.4-1.9a2.9 2.9 0 0 1 1.7 1.6c.9-2.2 1.8-2.4 2.5-.6a20.9 20.9 0 0 0-.1-2.4 8.5 8.5 0 0 1-.4-1.7 13.9 13.9 0 0 1-.3-2.7l-3.7.7a36.6 36.6 0 0 1-8.1.2z" fill="none" stroke="#000" stroke-linecap="round" stroke-linejoin="round" stroke-width=".4"/>
  <path d="M39 35.6a8.3 8.3 0 0 1-4.5 7.5 11.8 11.8 0 0 1-8.6.2 8.8 8.8 0 0 1-4.9-8.4m18 .2v.5m-17.1-9.4c0 .7-.1 1.5-.1 2.3m16.4-.2a10.4 10.4 0 0 1 0-2.5m-13.8 9.9a29.3 29.3 0 0 0 .6 5.2m3.4-4.9l.4 5.4m7.7-5.7a29.3 29.3 0 0 1-.6 5.2M32.5 36l-.4 5.4" fill="none" stroke="#000" stroke-linecap="round" stroke-linejoin="round" stroke-width=".4"/>
  <path fill="red" d="M37.4 49.2h1.5v3.7H21.1v-3.7h16.3z"/>
  <path fill="none" stroke="#000" stroke-linecap="round" stroke-linejoin="round" stroke-width=".4" d="M37.4 49.2h1.5v3.7H21.1v-3.7h16.3z"/>
  <path fill="#a30e03" d="M27.6 117.4L23 121h13.3l-4.2-4.7-4.5 1.1z"/>
  <path d="M21.2 93.2s-4-1.6-5.4 1.5 2.5 7.7 2.9 8.5a1.7 1.7 0 0 1-.4 2.2c-2.4 1.6 1.1 3.9 2.2 1s-1.4-6.1-2.3-8.2-1.7-4.6 3.2-3.3m17.4-1.7s4-1.6 5.4 1.5-2.5 7.7-2.9 8.5a1.7 1.7 0 0 0 .4 2.2c2.4 1.6-1.1 3.9-2.2 1s1.4-6.1 2.3-8.2 1.5-4.5-3.4-3.1" fill="none" stroke="#000" stroke-linecap="round" stroke-linejoin="round" stroke-width=".4"/>
  <path d="M27.4 114.3s1.1 3.9-4.5 5.8c0 .1 6.6 1 8-5.2z" fill="red"/>
  <path d="M32.7 114.3s-1 3.9 4.5 5.8c.1.1-6.5.8-7.9-5.4.1.1 3.4-.4 3.4-.4z" fill="red"/>
  <path d="M27.4 114.3s1.1 3.9-4.5 5.8c0 .1 6.5 1 8-5.2-.1.1-3.5-.6-3.5-.6z" fill="none" stroke="#000" stroke-linecap="round" stroke-linejoin="round" stroke-width=".4"/>
  <path d="M32.7 114.3s-1 3.9 4.5 5.8c.1.1-6.6.8-8-5.4a20.9 20.9 0 0 0 3.5-.4z" fill="none" stroke="#000" stroke-linecap="round" stroke-linejoin="round" stroke-width=".4"/>
  <path d="M27.6 113.6a15 15 0 0 0 2.4 6.6c0-.1 2-1.6 2.4-6.6z" fill="red"/>
  <path d="M27.3 109.8s-.6 6.2 2.7 10.3c0-.1 3.3-2.7 2.9-10.4 0-.1-5.6.1-5.6.1z" fill="none" stroke="#000" stroke-linecap="round" stroke-linejoin="round" stroke-width=".4"/>
  <path d="M27.2 113.6s-1.7.4-1.7 3c0 0 2.4.6 3.5-2.4m4.2-.6s1.6.4 1.6 3c0 0-2.4.6-3.5-2.4" fill="red"/>
  <path d="M27.2 113.6s-1.7.4-1.7 3c0 0 2.4.6 3.5-2.4m4.2-.6s1.6.4 1.6 3c0 0-2.4.6-3.5-2.4" fill="none" stroke="#000" stroke-linecap="round" stroke-linejoin="round" stroke-width=".4"/>
  <path d="M31.5 114s.5 1.5-1.5 3.4a3.5 3.5 0 0 1-1.5-3.3z" fill="red"/>
  <path d="M31.5 114s.5 1.5-1.5 3.4a3.6 3.6 0 0 1-1.5-3.3z" fill="none" stroke="#000" stroke-linecap="round" stroke-linejoin="round" stroke-width=".4"/>
  <path d="M22.7 92.8a7.7 7.7 0 0 1-2-.9c.1.3.3.7.4 1.1s.3 1 .5 1.5.2 1.6.3 2.6v2.3l-.3 2.5a4 4 0 0 0-.3 1.5 9.3 9.3 0 0 0-.2 2.3c1.1-1.3 2.3-1 3.3.9.5-.9 1-1.3 1.6-1.4s.1-.7.2-1a11.3 11.3 0 0 0 .2-4.1v-2.5c0-.4-.1-.9-.1-1.3l-.3-2.7a24.9 24.9 0 0 1-3.2-.8m12 .7l-.2 3.9.3 7.6c.6.1 1.1.6 1.7 1.6.9-2.2 1.7-2.4 2.5-.6a19.4 19.4 0 0 0-.2-2.4l-.3-1.7a13.9 13.9 0 0 1-.3-2.7 10.4 10.4 0 0 1 0-2.5 11.5 11.5 0 0 1 .1-1.9c.2-.5.3-1 .5-1.5a8.8 8.8 0 0 1 .5-1.5 6.5 6.5 0 0 1-2.2 1l-2.4.7" fill="#d79f09"/>
  <path d="M40.3 90.4c0-.9-1.1-1.7-3.1-2.4a21.7 21.7 0 0 0-6.7-.9c-2.7 1-4.1 2.9-3.9 5.6v.9a18.8 18.8 0 0 0 3.4.2 34.3 34.3 0 0 0 4.8-.3l2.4-.7a6.5 6.5 0 0 0 2.2-1 1.7 1.7 0 0 0 .9-1.4" fill="red"/>
  <path d="M36.7 106.6c-.6-1-1.2-1.5-1.8-1.6s-1.6.4-2.4 1.9c-1.4-2.3-2.7-2.3-4 0-.9-1.2-1.7-1.8-2.5-1.7a2.2 2.2 0 0 0-1.5 1.4c-1.1-1.9-2.3-2.2-3.4-.9a.6.6 0 0 0-.1.4c0 3.8 1.6 6.3 4.9 8.3l1.2.4s1.7 1.1 6.8-.4l.7-.4a8.2 8.2 0 0 0 4.5-7.6 4.3 4.3 0 0 0-.1-.5c-1-1.8-1.4-1.5-2.3.7z" fill="#325723"/>
  <path d="M34.6 97.4l.2-3.9a34.3 34.3 0 0 1-4.8.3 18.8 18.8 0 0 1-3.4-.2h-.7l.3 2.7c0 .4.1.9.1 1.3v2.5a11.3 11.3 0 0 1-.2 4.1c-.1.3-.1.7-.2 1s1.6.5 2.5 1.7c1.3-2.3 2.6-2.3 4 0 .8-1.5 1.6-2.1 2.4-1.9l-.3-7.6" fill="#fbc219"/>
  <path d="M30.5 87.1H30a25.5 25.5 0 0 0-7.3.9q-3 1.1-3 2.4a1.6 1.6 0 0 0 .9 1.4h.1a7.7 7.7 0 0 0 2 .9 24.9 24.9 0 0 0 3.2.8h.7v-.9c-.2-2.7 1.2-4.6 3.9-5.6" fill="#a30e03"/>
  <path d="M34.5 97.5l3.7-.7a11.1 11.1 0 0 1 .2-1.9 8.3 8.3 0 0 1 .4-1.5 5.8 5.8 0 0 1 .5-1.4l-2.1.9-2.4.7a36.8 36.8 0 0 1-4.9.3h-4l-3.3-.8-2-.9a11.7 11.7 0 0 1 .5 1.1c.1.5.3 1 .4 1.5a20.2 20.2 0 0 1 .4 2.6l4.3.5a46.1 46.1 0 0 0 8.3-.4z" fill="none" stroke="#000" stroke-linecap="round" stroke-linejoin="round" stroke-width=".4"/>
  <path d="M20.6 92h-.1c-.6-.5-.9-.9-.9-1.4s1-1.8 3-2.4a22.6 22.6 0 0 1 7.3-1h.6a22 22 0 0 1 6.7 1q3 .9 3 2.4a2.1 2.1 0 0 1-.9 1.4m-12.9 8.2a34 34 0 0 1-4.6-.7l-.3 2.5-.3 1.5a19.5 19.5 0 0 0-.2 2.3c1.2-1.3 2.3-1 3.4.9.5-.9 1-1.3 1.5-1.4s1.6.5 2.5 1.7c1.3-2.3 2.6-2.3 4 0 .8-1.5 1.6-2.1 2.4-1.9a2.9 2.9 0 0 1 1.7 1.6c.9-2.2 1.8-2.4 2.5-.6a20.9 20.9 0 0 0-.1-2.4 8.5 8.5 0 0 1-.4-1.7 13.9 13.9 0 0 1-.3-2.7l-3.7.7a36.6 36.6 0 0 1-8.1.2z" fill="none" stroke="#000" stroke-linecap="round" stroke-linejoin="round" stroke-width=".4"/>
  <path d="M39 106.6a8.3 8.3 0 0 1-4.5 7.5 11.8 11.8 0 0 1-8.6.2 8.8 8.8 0 0 1-4.9-8.4m18 .2v.5m-17.1-9.4c0 .7-.1 1.5-.1 2.3m16.4-.2a10.4 10.4 0 0 1 0-2.5m-13.8 9.9a29.3 29.3 0 0 0 .6 5.2m3.4-4.9l.4 5.4m7.7-5.7a29.3 29.3 0 0 1-.6 5.2m-3.4-4.9l-.4 5.4" fill="none" stroke="#000" stroke-linecap="round" stroke-linejoin="round" stroke-width=".4"/>
  <path fill="red" d="M37.4 120.2h1.5v3.7H21.1v-3.7h16.3z"/>
  <path fill="none" stroke="#000" stroke-linecap="round" stroke-linejoin="round" stroke-width=".4" d="M37.4 120.2h1.5v3.7H21.1v-3.7h16.3z"/>
  <path fill="#a30e03" d="M54.6 81.4L50 85h13.3l-4.2-4.7-4.5 1.1z"/>
  <path d="M48.2 57.2s-4-1.6-5.4 1.5 2.5 7.7 2.9 8.5a1.7 1.7 0 0 1-.4 2.2c-2.4 1.6 1.1 3.9 2.2 1s-1.4-6.1-2.3-8.2-1.7-4.6 3.2-3.3m17.4-1.7s4-1.6 5.4 1.5-2.5 7.7-2.9 8.5a1.7 1.7 0 0 0 .4 2.2c2.4 1.6-1.1 3.9-2.2 1s1.4-6.1 2.3-8.2 1.5-4.5-3.4-3.1" fill="none" stroke="#000" stroke-linecap="round" stroke-linejoin="round" stroke-width=".4"/>
  <path d="M54.4 78.3s1.1 3.9-4.5 5.8c0 .1 6.6 1 8-5.2z" fill="red"/>
  <path d="M59.7 78.3s-1 3.9 4.5 5.8c.1.1-6.5.8-7.9-5.4.1.1 3.4-.4 3.4-.4z" fill="red"/>
  <path d="M54.4 78.3s1.1 3.9-4.5 5.8c0 .1 6.5 1 8-5.2-.1.1-3.5-.6-3.5-.6z" fill="none" stroke="#000" stroke-linecap="round" stroke-linejoin="round" stroke-width=".4"/>
  <path d="M59.7 78.3s-1 3.9 4.5 5.8c.1.1-6.6.8-8-5.4a20.9 20.9 0 0 0 3.5-.4z" fill="none" stroke="#000" stroke-linecap="round" stroke-linejoin="round" stroke-width=".4"/>
  <path d="M54.6 77.6a15 15 0 0 0 2.4 6.6c0-.1 2-1.6 2.4-6.6z" fill="red"/>
  <path d="M54.3 73.8S53.7 80 57 84.1c0-.1 3.3-2.7 2.9-10.4 0-.1-5.6.1-5.6.1z" fill="none" stroke="#000" stroke-linecap="round" stroke-linejoin="round" stroke-width=".4"/>
  <path d="M54.2 77.6s-1.7.4-1.7 3c0 0 2.4.6 3.5-2.4m4.2-.6s1.6.4 1.6 3c0 0-2.4.6-3.5-2.4" fill="red"/>
  <path d="M54.2 77.6s-1.7.4-1.7 3c0 0 2.4.6 3.5-2.4m4.2-.6s1.6.4 1.6 3c0 0-2.4.6-3.5-2.4" fill="none" stroke="#000" stroke-linecap="round" stroke-linejoin="round" stroke-width=".4"/>
  <path d="M58.5 78s.5 1.5-1.5 3.4a3.5 3.5 0 0 1-1.5-3.3z" fill="red"/>
  <path d="M58.5 78s.5 1.5-1.5 3.4a3.6 3.6 0 0 1-1.5-3.3z" fill="none" stroke="#000" stroke-linecap="round" stroke-linejoin="round" stroke-width=".4"/>
  <path d="M49.7 56.8a7.7 7.7 0 0 1-2-.9c.1.3.3.7.4 1.1s.3 1 .5 1.5.2 1.6.3 2.6v2.3l-.3 2.5a4 4 0 0 0-.3 1.5 9.3 9.3 0 0 0-.2 2.3c1.1-1.3 2.3-1 3.3.9.5-.9 1-1.3 1.6-1.4s.1-.7.2-1a11.3 11.3 0 0 0 .2-4.1v-2.5c0-.4-.1-.9-.1-1.3l-.3-2.7a24.9 24.9 0 0 1-3.2-.8m12 .7l-.2 3.9.3 7.6c.6.1 1.1.6 1.7 1.6.9-2.2 1.7-2.4 2.5-.6a19.4 19.4 0 0 0-.2-2.4l-.3-1.7a13.9 13.9 0 0 1-.3-2.7 10.4 10.4 0 0 1 0-2.5 11.5 11.5 0 0 1 .1-1.9c.2-.5.3-1 .5-1.5a8.8 8.8 0 0 1 .5-1.5 6.5 6.5 0 0 1-2.2 1l-2.4.7" fill="#d79f09"/>
  <path d="M67.3 54.4c0-.9-1.1-1.7-3.1-2.4a21.7 21.7 0 0 0-6.7-.9c-2.7 1-4.1 2.9-3.9 5.6v.9a18.8 18.8 0 0 0 3.4.2 34.3 34.3 0 0 0 4.8-.3l2.4-.7a6.5 6.5 0 0 0 2.2-1 1.7 1.7 0 0 0 .9-1.4" fill="red"/>
  <path d="M63.5 70.8a2.9 2.9 0 0 0-1.7-1.6c-.8-.2-1.6.4-2.4 1.9-1.4-2.3-2.8-2.3-4.1 0-.8-1.2-1.7-1.8-2.4-1.6s-1.1.4-1.6 1.3c-1.1-1.9-2.2-2.2-3.4-.9s-.1.1 0 .2c0 3.9 1.6 6.1 4.9 8.1l.7.2s2.5 1.5 7.6-.1h.3a8.3 8.3 0 0 0 4.5-7.8V70c-1-1.7-1.4-1.4-2.4.8z" fill="#325723"/>
  <path d="M61.6 61.4l.2-3.9a34.3 34.3 0 0 1-4.8.3 18.8 18.8 0 0 1-3.4-.2h-.7l.3 2.7c0 .4.1.9.1 1.3v2.5a11.3 11.3 0 0 1-.2 4.1c-.1.3-.1.7-.2 1s1.6.5 2.5 1.7c1.3-2.3 2.6-2.3 4 0 .8-1.5 1.6-2.1 2.4-1.9l-.3-7.6" fill="#fbc219"/>
  <path d="M57.5 51.1H57a25.5 25.5 0 0 0-7.3.9q-3 1.1-3 2.4a1.6 1.6 0 0 0 .9 1.4h.1a7.7 7.7 0 0 0 2 .9 24.9 24.9 0 0 0 3.2.8h.7v-.9c-.2-2.7 1.2-4.6 3.9-5.6" fill="#a30e03"/>
  <path d="M61.5 61.5l3.7-.7a11.1 11.1 0 0 1 .2-1.9 8.3 8.3 0 0 1 .4-1.5 5.8 5.8 0 0 1 .5-1.4l-2.1.9-2.4.7a36.8 36.8 0 0 1-4.9.3h-4l-3.3-.8-2-.9a11.7 11.7 0 0 1 .5 1.1c.1.5.3 1 .4 1.5a20.2 20.2 0 0 1 .4 2.6l4.3.5a46.1 46.1 0 0 0 8.3-.4zM47.6 56h-.1c-.6-.5-.9-.9-.9-1.4s1-1.8 3-2.4a22.6 22.6 0 0 1 7.3-1h.6a22 22 0 0 1 6.7 1q3 .9 3 2.4a2.1 2.1 0 0 1-.9 1.4m-12.9 8.2a34 34 0 0 1-4.6-.7l-.3 2.5-.3 1.5a19.5 19.5 0 0 0-.2 2.3c1.2-1.3 2.3-1 3.4.9.5-.9 1-1.3 1.5-1.4s1.6.5 2.5 1.7c1.3-2.3 2.6-2.3 4 0 .8-1.5 1.6-2.1 2.4-1.9a2.9 2.9 0 0 1 1.7 1.6c.9-2.2 1.8-2.4 2.5-.6a20.9 20.9 0 0 0-.1-2.4 8.5 8.5 0 0 1-.4-1.7 13.9 13.9 0 0 1-.3-2.7l-3.7.7a36.6 36.6 0 0 1-8.1.2z" fill="none" stroke="#000" stroke-linecap="round" stroke-linejoin="round" stroke-width=".4"/>
  <path d="M66 70.6a8.3 8.3 0 0 1-4.5 7.5 11.8 11.8 0 0 1-8.6.2 8.8 8.8 0 0 1-4.9-8.4m18 .2v.5m-17.1-9.4c0 .7-.1 1.5-.1 2.3m16.4-.2a10.4 10.4 0 0 1 0-2.5m-13.8 9.9a29.3 29.3 0 0 0 .6 5.2m3.4-4.9l.4 5.4m7.7-5.7a29.3 29.3 0 0 1-.6 5.2M59.5 71l-.4 5.4" fill="none" stroke="#000" stroke-linecap="round" stroke-linejoin="round" stroke-width=".4"/>
  <path fill="red" d="M64.4 84.2h1.5v3.7H48.1v-3.7h16.3z"/>
  <path fill="none" stroke="#000" stroke-linecap="round" stroke-linejoin="round" stroke-width=".4" d="M64.4 84.2h1.5v3.7H48.1v-3.7h16.3z"/>
</svg>
