<svg xmlns="http://www.w3.org/2000/svg" viewBox="0 0 87 140">
  <rect width="87" height="140" rx="6" ry="6" fill="#fff"/>
  <path fill="#a30e03" d="M24.2 119.3l-3.4 2.7h9.8l-3.1-3.5-3.3.8z"/>
  <path d="M19.4 101.4s-2.9-1.2-4 1.1 1.9 5.7 2.2 6.3.3 1.2-.3 1.6.8 2.9 1.6.8-1-4.6-1.7-6.1-1.3-3.4 2.4-2.4m12.9-1.3s3-1.2 4 1.1-1.8 5.7-2.1 6.3a1.1 1.1 0 0 0 .3 1.6c1.7 1.3-.8 2.9-1.7.8s1-4.6 1.8-6.1 1-3.3-2.6-2.3" fill="none" stroke="#000" stroke-linecap="round" stroke-linejoin="round" stroke-width=".4"/>
  <path d="M24.1 117.1s.7 2.8-3.4 4.3c0 0 4.9.7 6-3.9a20.2 20.2 0 0 1-2.6-.4z" fill="red"/>
  <path d="M28 117.1s-.8 2.8 3.3 4.3c.1 0-4.8.5-5.9-4.1a21.1 21.1 0 0 0 2.6-.2z" fill="red"/>
  <path d="M24.1 117.1s.7 2.8-3.4 4.3c0 0 4.8.7 5.9-3.9z" fill="none" stroke="#000" stroke-linecap="round" stroke-linejoin="round" stroke-width=".4"/>
  <path d="M28 117.1s-.8 2.8 3.3 4.3c.1 0-4.9.6-5.9-4z" fill="none" stroke="#000" stroke-linecap="round" stroke-linejoin="round" stroke-width=".4"/>
  <path d="M24.2 116.5a10.9 10.9 0 0 0 1.8 4.9s1.5-1.1 1.8-4.9z" fill="red"/>
  <path d="M24 113.7s-.4 4.6 2 7.6c0 0 2.4-1.9 2.2-7.7z" fill="none" stroke="#000" stroke-linecap="round" stroke-linejoin="round" stroke-width=".4"/>
  <path d="M23.9 116.5s-1.2.3-1.3 2.3a2.3 2.3 0 0 0 2.6-1.8m3.1-.5s1.2.3 1.3 2.3A2.3 2.3 0 0 1 27 117" fill="red"/>
  <path d="M23.9 116.5s-1.2.3-1.3 2.3a2.3 2.3 0 0 0 2.6-1.8m3.1-.5s1.2.3 1.3 2.3A2.3 2.3 0 0 1 27 117" fill="none" stroke="#000" stroke-linecap="round" stroke-linejoin="round" stroke-width=".4"/>
  <path d="M27.1 116.8s.3 1.1-1.1 2.5a2.6 2.6 0 0 1-1.2-2.4z" fill="red"/>
  <path d="M27.1 116.8s.3 1.1-1.1 2.5a2.8 2.8 0 0 1-1.2-2.4z" fill="none" stroke="#000" stroke-linecap="round" stroke-linejoin="round" stroke-width=".4"/>
  <path d="M20.6 101.1a4.8 4.8 0 0 1-1.6-.7 3 3 0 0 1 .4.8l.3 1.1.3 2a10.3 10.3 0 0 1-.1 1.7 11 11 0 0 1-.2 1.8c-.1.4-.1.8-.2 1.2a9.7 9.7 0 0 0-.1 1.7c.8-1 1.7-.8 2.5.6a1.7 1.7 0 0 1 1.1-1c0-.2.1-.5.1-.7a8.1 8.1 0 0 0 .2-3.1v-1.8a3.1 3.1 0 0 0-.1-1v-2l-2.4-.6m8.8.5l-.2 2.9.2 5.6c.4.1.8.5 1.3 1.2.6-1.6 1.3-1.7 1.8-.4a10.9 10.9 0 0 0-.1-1.8l-.3-1.3a15 15 0 0 1-.2-2V104c0-.5.1-1 .1-1.4a3.6 3.6 0 0 1 .4-1.1 2.1 2.1 0 0 1 .4-1.1l-1.6.7-1.8.5" fill="#d79f09"/>
  <path d="M33.6 99.4c0-.7-.8-1.3-2.2-1.8a15.1 15.1 0 0 0-5-.7 3.9 3.9 0 0 0-3 4.1 1.7 1.7 0 0 0 .1.7l2.5.2a20.2 20.2 0 0 0 3.6-.3l1.8-.5 1.6-.7a1.4 1.4 0 0 0 .6-1" fill="red"/>
  <path d="M30.9 111.3c-.4-.7-.8-1.1-1.3-1.2s-1.2.4-1.8 1.4c-1-1.6-2-1.6-2.9 0-.7-.9-1.3-1.3-1.9-1.2a1.7 1.7 0 0 0-1.1 1c-.8-1.4-1.7-1.6-2.5-.6a.4.4 0 0 0-.1.3c0 2.8.7 4.3 3.2 5.8l.3.2s2.2 1.2 6 .2l.6-.3a6.3 6.3 0 0 0 3.3-5.7v-.4c-.8-1.3-1.1-1.1-1.8.5z" fill="#325723"/>
  <path d="M29.4 104.5l.2-2.9a20.2 20.2 0 0 1-3.6.3l-2.5-.2H23v2a3.1 3.1 0 0 1 .1 1v1.8a8.1 8.1 0 0 1-.2 3.1c0 .2-.1.5-.1.7s1.2.3 1.8 1.2q1.5-2.4 3 0c.6-1 1.2-1.5 1.8-1.4l-.2-5.6" fill="#fbc219"/>
  <path d="M26.4 96.9H26a16.5 16.5 0 0 0-5.4.7c-1.5.5-2.3 1.1-2.3 1.8a1.5 1.5 0 0 0 .7 1 4.8 4.8 0 0 0 1.6.7l2.4.6h.5a1.7 1.7 0 0 1-.1-.7 3.9 3.9 0 0 1 3-4.1" fill="#a30e03"/>
  <path d="M29.3 104.6l2.8-.5a6.1 6.1 0 0 1 .1-1.4l.3-1.2a4.2 4.2 0 0 1 .4-1 8.4 8.4 0 0 1-1.6.7l-1.8.5a19.4 19.4 0 0 1-3.6.2h-3l-2.4-.6a5.2 5.2 0 0 1-1.5-.7l.4.8.3 1.1a12.3 12.3 0 0 1 .2 1.9l3.2.5a42.4 42.4 0 0 0 6.2-.3z" fill="none" stroke="#000" stroke-linecap="round" stroke-linejoin="round" stroke-width=".4"/>
  <path d="M19 100.5a1.3 1.3 0 0 1-.7-1.1c0-.6.7-1.2 2.2-1.7a17.1 17.1 0 0 1 5.4-.8h.4a18 18 0 0 1 5 .8c1.5.5 2.2 1.1 2.2 1.7a1.5 1.5 0 0 1-.6 1.1m-9.6 6.1l-3.4-.5c-.1.6-.1 1.2-.2 1.8l-.3 1.2c0 .6-.1 1.1-.1 1.7.9-1 1.7-.8 2.5.6.4-.6.8-1 1.2-1s1.1.3 1.8 1.2c1-1.6 1.9-1.6 3 0 .6-1.1 1.2-1.5 1.8-1.4s.8.5 1.2 1.2c.7-1.6 1.3-1.7 1.9-.4 0-.6-.1-1.2-.1-1.8l-.3-1.3a15 15 0 0 1-.2-2l-2.8.5a24.1 24.1 0 0 1-6 .2z" fill="none" stroke="#000" stroke-linecap="round" stroke-linejoin="round" stroke-width=".4"/>
  <path d="M32.7 111.3a6.1 6.1 0 0 1-3.4 5.6 8.7 8.7 0 0 1-6.4.1 6.5 6.5 0 0 1-3.6-6.2m13.4.2v.3m-12.8-7v1.8m12.2-.2a5.4 5.4 0 0 1 0-1.8m-10.3 7.3a29 29 0 0 0 .4 3.9m2.6-3.7l.3 4m5.7-4.2a29 29 0 0 1-.4 3.9m-2.6-3.7l-.3 4" fill="none" stroke="#000" stroke-linecap="round" stroke-linejoin="round" stroke-width=".4"/>
  <path fill="red" d="M31.4 121.4h1.2v2.8H19.4v-2.8h12z"/>
  <path fill="none" stroke="#000" stroke-linecap="round" stroke-linejoin="round" stroke-width=".4" d="M31.4 121.4h1.2v2.8H19.4v-2.8h12z"/>
  <path fill="#a30e03" d="M59.2 119.3l-3.4 2.7h9.9l-3.1-3.5-3.4.8z"/>
  <path d="M54.5 101.4s-3-1.2-4 1.1 1.8 5.7 2.1 6.3a1.1 1.1 0 0 1-.3 1.6c-1.7 1.3.8 2.9 1.7.8s-1-4.6-1.8-6.1-1.2-3.4 2.4-2.4m13-1.3s2.9-1.2 4 1.1-1.9 5.7-2.2 6.3-.3 1.2.3 1.6-.8 2.9-1.6.8 1-4.6 1.7-6.1 1.1-3.3-2.5-2.3" fill="none" stroke="#000" stroke-linecap="round" stroke-linejoin="round" stroke-width=".4"/>
  <path d="M59.1 117.1s.8 2.8-3.3 4.3c-.1 0 4.8.7 5.9-3.9z" fill="red"/>
  <path d="M63 117.1s-.7 2.8 3.4 4.3c0 0-4.8.5-5.9-4.1a21.1 21.1 0 0 0 2.5-.2z" fill="red"/>
  <path d="M59.1 117.1s.8 2.8-3.3 4.3c-.1 0 4.8.7 5.9-3.9a20.2 20.2 0 0 1-2.6-.4z" fill="none" stroke="#000" stroke-linecap="round" stroke-linejoin="round" stroke-width=".4"/>
  <path d="M63 117.1s-.7 2.8 3.4 4.3c0 0-4.9.6-6-4z" fill="none" stroke="#000" stroke-linecap="round" stroke-linejoin="round" stroke-width=".4"/>
  <path d="M59.3 116.5a9.7 9.7 0 0 0 1.8 4.9s1.4-1.1 1.7-4.9z" fill="red"/>
  <path d="M59 113.7s-.4 4.6 2 7.6c0 0 2.5-1.9 2.2-7.7z" fill="none" stroke="#000" stroke-linecap="round" stroke-linejoin="round" stroke-width=".4"/>
  <path d="M58.9 116.5s-1.2.3-1.2 2.3a2.3 2.3 0 0 0 2.6-1.8m3.1-.5s1.2.3 1.2 2.3A2.3 2.3 0 0 1 62 117" fill="red"/>
  <path d="M58.9 116.5s-1.2.3-1.2 2.3a2.3 2.3 0 0 0 2.6-1.8m3.1-.5s1.2.3 1.2 2.3A2.3 2.3 0 0 1 62 117" fill="none" stroke="#000" stroke-linecap="round" stroke-linejoin="round" stroke-width=".4"/>
  <path d="M62.1 116.8s.4 1.1-1 2.5a2.2 2.2 0 0 1-1.2-2.4z" fill="red"/>
  <path d="M62.1 116.8s.4 1.1-1 2.5a2.4 2.4 0 0 1-1.2-2.4z" fill="none" stroke="#000" stroke-linecap="round" stroke-linejoin="round" stroke-width=".4"/>
  <path d="M55.6 101.1a5.2 5.2 0 0 1-1.5-.7 3 3 0 0 0 .4.8l.3 1.1a12.3 12.3 0 0 1 .2 2v1.7c-.1.6-.1 1.2-.2 1.8l-.3 1.2c0 .6-.1 1.1-.1 1.7.9-1 1.7-.8 2.5.6.4-.6.7-.9 1.2-1a1.7 1.7 0 0 1 .1-.7 10.8 10.8 0 0 0 .2-3.1l-.2-1.8v-1l-.2-2-2.4-.6m9 .5l-.2 2.9.3 5.6q.6.2 1.2 1.2c.7-1.6 1.3-1.7 1.9-.4a11 11 0 0 0-.2-1.8 6.9 6.9 0 0 0-.2-1.3 15 15 0 0 1-.2-2 5.4 5.4 0 0 1 0-1.8 6.1 6.1 0 0 1 .1-1.4l.3-1.1a3.6 3.6 0 0 1 .4-1.1 8.4 8.4 0 0 1-1.6.7l-1.8.5" fill="#d79f09"/>
  <path d="M68.6 99.4c0-.7-.7-1.3-2.2-1.8a15.1 15.1 0 0 0-5-.7 3.9 3.9 0 0 0-2.9 4.1v.7l2.5.2a20.2 20.2 0 0 0 3.6-.3l1.8-.5a8.4 8.4 0 0 0 1.6-.7 1.4 1.4 0 0 0 .6-1" fill="red"/>
  <path d="M66 111.3a2.4 2.4 0 0 0-1.3-1.2c-.6-.1-1.2.4-1.8 1.4q-1.5-2.4-3 0-1-1.4-1.8-1.2a2.1 2.1 0 0 0-1.2 1c-.8-1.4-1.6-1.6-2.5-.6v.3a5.9 5.9 0 0 0 3.2 5.8l.4.2s2.2 1.2 6 .2c0-.1.5-.3.5-.3a6.2 6.2 0 0 0 3.4-5.7c0-.1-.1-.3-.1-.4s-1.1-1.1-1.8.5z" fill="#325723"/>
  <path d="M64.4 104.5l.2-2.9a20.2 20.2 0 0 1-3.6.3l-2.5-.2H58l.2 2v1l.2 1.8a10.8 10.8 0 0 1-.2 3.1 1.7 1.7 0 0 0-.1.7q.8-.1 1.8 1.2 1.4-2.4 3 0c.6-1 1.2-1.5 1.8-1.4l-.3-5.6" fill="#fbc219"/>
  <path d="M61.4 96.9H61a17.3 17.3 0 0 0-5.4.7c-1.5.5-2.2 1.1-2.2 1.8a1.4 1.4 0 0 0 .6 1h.1a5.2 5.2 0 0 0 1.5.7l2.4.6h.5v-.7a3.9 3.9 0 0 1 2.9-4.1" fill="#a30e03"/>
  <path d="M64.4 104.6l2.7-.5c0-.5.1-1 .1-1.4a5.6 5.6 0 0 1 .4-1.2 2.1 2.1 0 0 1 .4-1l-1.6.7-1.8.5a20.6 20.6 0 0 1-3.6.2h-3l-2.4-.6a4.8 4.8 0 0 1-1.6-.7 3 3 0 0 1 .4.8l.3 1.1.3 1.9 3.2.5a43.3 43.3 0 0 0 6.2-.3z" fill="none" stroke="#000" stroke-linecap="round" stroke-linejoin="round" stroke-width=".4"/>
  <path d="M54 100.5a1.5 1.5 0 0 1-.7-1.1c0-.6.8-1.2 2.3-1.7a16.6 16.6 0 0 1 5.4-.8h.4a18 18 0 0 1 5 .8c1.4.5 2.2 1.1 2.2 1.7a1.5 1.5 0 0 1-.6 1.1m-9.7 6.1l-3.4-.5a11 11 0 0 1-.2 1.8c-.1.4-.1.8-.2 1.2a9.7 9.7 0 0 0-.1 1.7c.8-1 1.7-.8 2.5.6.3-.6.7-1 1.1-1s1.2.3 1.8 1.2q1.5-2.4 3 0c.6-1.1 1.2-1.5 1.8-1.4s.8.5 1.3 1.2c.6-1.6 1.3-1.7 1.8-.4a10.9 10.9 0 0 0-.1-1.8l-.3-1.3a15 15 0 0 1-.2-2l-2.7.5a24.8 24.8 0 0 1-6.1.2z" fill="none" stroke="#000" stroke-linecap="round" stroke-linejoin="round" stroke-width=".4"/>
  <path d="M67.7 111.3a6.1 6.1 0 0 1-3.4 5.6 8.5 8.5 0 0 1-6.3.1 6.6 6.6 0 0 1-3.7-6.2m13.4.2v.3m-12.7-7a10.9 10.9 0 0 1-.1 1.8m12.2-.2v-1.8m-10.2 7.3a18.1 18.1 0 0 0 .4 3.9m2.5-3.7l.3 4m5.7-4.2a18.1 18.1 0 0 1-.4 3.9m-2.5-3.7l-.3 4" fill="none" stroke="#000" stroke-linecap="round" stroke-linejoin="round" stroke-width=".4"/>
  <path fill="red" d="M66.5 121.4h1.1v2.8H54.5v-2.8h12z"/>
  <path fill="none" stroke="#000" stroke-linecap="round" stroke-linejoin="round" stroke-width=".4" d="M66.5 121.4h1.1v2.8H54.5v-2.8h12z"/>
  <path fill="#a30e03" d="M41.4 79.1L38 82h9.9l-3.1-3.6-3.4.7z"/>
  <path d="M36.6 60.9s-2.9-1.2-3.9 1.1 1.8 5.7 2.1 6.3a1.1 1.1 0 0 1-.3 1.6c-1.7 1.2.8 2.9 1.7.8s-1.1-4.6-1.8-6.1-1.2-3.4 2.4-2.4m13-1.3s2.9-1.2 4 1.1-1.9 5.7-2.2 6.3a1.1 1.1 0 0 0 .3 1.6c1.8 1.2-.8 2.9-1.6.8s1-4.6 1.7-6.1 1.1-3.3-2.6-2.4" fill="none" stroke="#000" stroke-linecap="round" stroke-linejoin="round" stroke-width=".4"/>
  <path d="M41.3 76.5s.8 2.9-3.4 4.3c0 .1 4.9.7 6-3.8z" fill="red"/>
  <path d="M45.2 76.5s-.8 2.9 3.4 4.3c0 .1-4.9.6-5.9-4a21.3 21.3 0 0 0 2.5-.3z" fill="red"/>
  <path d="M41.3 76.5s.8 2.9-3.4 4.3c0 .1 4.9.7 5.9-3.8z" fill="none" stroke="#000" stroke-linecap="round" stroke-linejoin="round" stroke-width=".4"/>
  <path d="M45.2 76.5s-.8 2.9 3.4 4.3c0 .1-4.9.7-6-3.9z" fill="none" stroke="#000" stroke-linecap="round" stroke-linejoin="round" stroke-width=".4"/>
  <path d="M41.4 76a11.3 11.3 0 0 0 1.8 4.9c0-.1 1.5-1.2 1.8-4.9z" fill="red"/>
  <path d="M41.2 73.2s-.4 4.6 2 7.6c0-.1 2.5-2 2.2-7.7z" fill="none" stroke="#000" stroke-linecap="round" stroke-linejoin="round" stroke-width=".4"/>
  <path d="M41.1 76s-1.2.3-1.3 2.3a2.3 2.3 0 0 0 2.6-1.8m3.1-.5s1.3.3 1.3 2.3a2.3 2.3 0 0 1-2.6-1.8" fill="red"/>
  <path d="M41.1 76s-1.2.3-1.3 2.3a2.3 2.3 0 0 0 2.6-1.8m3.1-.5s1.3.3 1.3 2.3a2.3 2.3 0 0 1-2.6-1.8" fill="none" stroke="#000" stroke-linecap="round" stroke-linejoin="round" stroke-width=".4"/>
  <path d="M44.3 76.3s.4 1.1-1.1 2.5a2.4 2.4 0 0 1-1.1-2.4 15.5 15.5 0 0 1 2.2-.1z" fill="red"/>
  <path d="M44.3 76.3s.4 1.1-1.1 2.5a2.6 2.6 0 0 1-1.1-2.4 15.5 15.5 0 0 1 2.2-.1z" fill="none" stroke="#000" stroke-linecap="round" stroke-linejoin="round" stroke-width=".4"/>
  <path d="M37.8 60.6a5.3 5.3 0 0 1-1.5-.7l.3.8a2.3 2.3 0 0 1 .3 1.1 6.3 6.3 0 0 1 .3 1.9v1.8q-.2.8-.3 1.8a5 5 0 0 1-.2 1.2 9.7 9.7 0 0 0-.1 1.7c.9-1 1.7-.8 2.5.6.3-.6.7-1 1.1-1s.1-.5.2-.8a15.1 15.1 0 0 0 .2-3l-.2-1.9v-.9l-.2-2.1-2.4-.5m9 .5l-.2 2.9.2 5.6c.5.1.9.5 1.3 1.2.7-1.6 1.3-1.8 1.9-.4a11 11 0 0 0-.2-1.8c-.1-.4-.1-.9-.2-1.3a16.2 16.2 0 0 1-.3-2v-1.8a7.7 7.7 0 0 1 .2-1.5l.3-1.1a3 3 0 0 1 .4-1 8.4 8.4 0 0 1-1.6.7l-1.8.5" fill="#d79f09"/>
  <path d="M50.8 58.8c0-.7-.7-1.2-2.2-1.8a23.2 23.2 0 0 0-5-.7 4.1 4.1 0 0 0-3 4.2c0 .2.1.5.1.7h2.5l3.6-.2 1.8-.5a8.4 8.4 0 0 0 1.6-.7 1.5 1.5 0 0 0 .6-1.1" fill="red"/>
  <path d="M48.2 70.8c-.5-.7-.9-1.1-1.3-1.2s-1.2.3-1.8 1.4q-1.6-2.6-3 0c-.7-.9-1.3-1.3-1.9-1.2s-.8.4-1.1 1c-.8-1.4-1.6-1.6-2.5-.6v.3a5.9 5.9 0 0 0 3.2 5.8l.4.2s2.2 1.2 5.9.1l.6-.3a5.9 5.9 0 0 0 3.3-5.6v-.4c-.8-1.3-1.2-1.1-1.8.5z" fill="#325723"/>
  <path d="M46.6 64l.2-2.9-3.6.2h-3l.2 2.1v.9l.2 1.9a15.1 15.1 0 0 1-.2 3c-.1.3-.1.5-.2.8s1.2.3 1.9 1.2q1.4-2.6 3 0c.6-1.1 1.2-1.5 1.7-1.4l-.2-5.8" fill="#fbc219"/>
  <path d="M43.6 56.3h-.4a20.8 20.8 0 0 0-5.4.7c-1.5.6-2.2 1.1-2.2 1.8a1.4 1.4 0 0 0 .6 1.1h.1a5.3 5.3 0 0 0 1.5.7l2.4.5h.5c0-.2-.1-.5-.1-.7a4.1 4.1 0 0 1 3-4.2" fill="#a30e03"/>
  <path d="M46.6 64l2.7-.4a7.6 7.6 0 0 1 .1-1.5l.3-1.1c.1-.4.3-.7.4-1.1a5.9 5.9 0 0 1-1.6.8l-1.7.4a20.5 20.5 0 0 1-3.7.3h-2.9l-2.5-.5-1.5-.9a2 2 0 0 1 .4.8l.3 1.1.3 1.9 3.2.4a25.9 25.9 0 0 0 6.2-.2z" fill="none" stroke="#000" stroke-linecap="round" stroke-linejoin="round" stroke-width=".4"/>
  <path d="M36.2 60c-.5-.3-.7-.6-.7-1s.8-1.3 2.2-1.8a20.8 20.8 0 0 1 5.4-.7h.4a22.3 22.3 0 0 1 5 .7c1.5.5 2.3 1.1 2.3 1.8s-.2.7-.7 1m-9.6 6.1l-3.4-.5a14.1 14.1 0 0 1-.2 1.8 5 5 0 0 0-.2 1.2 8.8 8.8 0 0 0-.2 1.6c.9-.9 1.7-.7 2.5.7.4-.7.8-1 1.2-1s1.2.3 1.8 1.2q1.5-2.5 3 0c.6-1.1 1.2-1.5 1.8-1.4s.8.5 1.2 1.2c.7-1.6 1.4-1.8 1.9-.4a10.9 10.9 0 0 0-.1-1.8l-.3-1.3a15 15 0 0 1-.2-2l-2.7.5a31.1 31.1 0 0 1-6.1.2z" fill="none" stroke="#000" stroke-linecap="round" stroke-linejoin="round" stroke-width=".4"/>
  <path d="M49.9 70.8a6.1 6.1 0 0 1-3.4 5.6 8.8 8.8 0 0 1-6.4.1 6.5 6.5 0 0 1-3.6-6.2m13.4.2v.3m-12.7-7a10.9 10.9 0 0 1-.1 1.8m12.2-.2a5.4 5.4 0 0 1 0-1.8M39 70.9a20.1 20.1 0 0 0 .5 3.8m2.5-3.6l.3 4m5.7-4.2a17.4 17.4 0 0 1-.4 3.8M45 71.1l-.2 4" fill="none" stroke="#000" stroke-linecap="round" stroke-linejoin="round" stroke-width=".4"/>
  <path fill="red" d="M48.7 80.9h1.1v2.8H36.6v-2.8h12.1z"/>
  <path fill="none" stroke="#000" stroke-linecap="round" stroke-linejoin="round" stroke-width=".4" d="M48.7 80.9h1.1v2.8H36.6v-2.8h12.1z"/>
  <path fill="#a30e03" d="M24.2 37.8L20.8 40h9.8l-3.1-3.3-3.3 1.1z"/>
  <path d="M19.4 20.4s-2.9-1.3-4 1 1.9 5.7 2.2 6.4.3 1.2-.3 1.6.8 2.9 1.6.7-1-4.5-1.7-6.1-1.3-3.3 2.4-2.4m12.9-1.2s3-1.3 4 1-1.8 5.7-2.1 6.4a1.1 1.1 0 0 0 .3 1.6c1.7 1.2-.8 2.9-1.7.7s1-4.5 1.8-6.1 1-3.3-2.6-2.3" fill="none" stroke="#000" stroke-linecap="round" stroke-linejoin="round" stroke-width=".4"/>
  <path d="M24.1 36s.7 2.9-3.4 4.3c0 .1 4.9.7 6-3.9a20.2 20.2 0 0 1-2.6-.4z" fill="red"/>
  <path d="M28 36s-.8 2.9 3.3 4.3a5.3 5.3 0 0 1-5.9-4A20.6 20.6 0 0 0 28 36z" fill="red"/>
  <path d="M24.1 36s.7 2.9-3.4 4.3a5.1 5.1 0 0 0 5.9-3.9 21.7 21.7 0 0 1-2.5-.4z" fill="none" stroke="#000" stroke-linecap="round" stroke-linejoin="round" stroke-width=".4"/>
  <path d="M28 36s-.8 2.9 3.3 4.3c.1.1-4.9.6-5.9-4A23 23 0 0 0 28 36z" fill="none" stroke="#000" stroke-linecap="round" stroke-linejoin="round" stroke-width=".4"/>
  <path d="M24.2 35.5a11.3 11.3 0 0 0 1.8 4.9c0-.1 1.5-1.2 1.8-4.9.4-.1-3.6 0-3.6 0z" fill="red"/>
  <path d="M24 32.6s-.4 4.6 2 7.7c0-.1 2.4-2 2.2-7.7 0-.1-4.2 0-4.2 0z" fill="none" stroke="#000" stroke-linecap="round" stroke-linejoin="round" stroke-width=".4"/>
  <path d="M23.9 35.5s-1.2.3-1.3 2.2a2.3 2.3 0 0 0 2.6-1.7m3.1-.5s1.2.3 1.3 2.2A2.3 2.3 0 0 1 27 36" fill="red"/>
  <path d="M23.9 35.5s-1.2.3-1.3 2.2a2.3 2.3 0 0 0 2.6-1.7m3.1-.5s1.2.3 1.3 2.2A2.3 2.3 0 0 1 27 36" fill="none" stroke="#000" stroke-linecap="round" stroke-linejoin="round" stroke-width=".4"/>
  <path d="M27.1 35.8s.3 1.1-1.1 2.5a2.7 2.7 0 0 1-1.2-2.4 17.7 17.7 0 0 1 2.3-.1z" fill="red"/>
  <path d="M27.1 35.8s.3 1.1-1.1 2.5a2.8 2.8 0 0 1-1.2-2.4 17.7 17.7 0 0 1 2.3-.1z" fill="none" stroke="#000" stroke-linecap="round" stroke-linejoin="round" stroke-width=".4"/>
  <path d="M20.6 20l-1.6-.6a2 2 0 0 1 .4.8l.3 1.1.3 1.9a9.1 9.1 0 0 1-.1 1.7 13.7 13.7 0 0 1-.2 1.9c-.1.4-.1.7-.2 1.1a10.3 10.3 0 0 0-.1 1.7c.8-1 1.7-.7 2.5.7.3-.7.7-1 1.1-1s.1-.5.1-.8a8 8 0 0 0 .2-3.1v-1.8a2.8 2.8 0 0 0-.1-.9v-2.1a8.4 8.4 0 0 1-2.4-.6m8.8.5l-.2 2.9.2 5.7c.4.1.8.5 1.3 1.2.6-1.7 1.3-1.8 1.8-.4a10.9 10.9 0 0 0-.1-1.8l-.3-1.3a15 15 0 0 1-.2-2v-1.9c0-.5.1-.9.1-1.4a4.9 4.9 0 0 1 .4-1.1 2.5 2.5 0 0 1 .4-1.1 5.9 5.9 0 0 1-1.6.7l-1.8.5" fill="#d79f09"/>
  <path d="M33.6 18.3c0-.7-.8-1.3-2.2-1.8a18.3 18.3 0 0 0-5-.7q-3.1 1.2-3 4.2a2 2 0 0 0 .1.7H26a20.2 20.2 0 0 0 3.6-.3l1.8-.5a5.9 5.9 0 0 0 1.6-.7 1.2 1.2 0 0 0 .6-1" fill="red"/>
  <path d="M30.9 30.3c-.4-.7-.8-1.1-1.3-1.2s-1.2.3-1.8 1.4c-1-1.7-2-1.7-2.9 0-.7-.9-1.3-1.3-1.9-1.2s-.8.3-1.1 1c-.8-1.4-1.7-1.7-2.5-.7a.4.4 0 0 0-.1.3c0 2.9.7 4.4 3.2 5.9l.3.2s2.2 1.2 6 .1l.6-.3a6.2 6.2 0 0 0 3.3-5.7v-.3c-.8-1.3-1.1-1.2-1.8.5z" fill="#325723"/>
  <path d="M29.4 23.4l.2-2.9a20.2 20.2 0 0 1-3.6.3h-3v2.1a2.8 2.8 0 0 1 .1.9v1.8a8 8 0 0 1-.2 3.1c0 .3-.1.5-.1.8s1.2.3 1.8 1.2q1.5-2.5 3 0c.6-1.1 1.2-1.6 1.8-1.4l-.2-5.7" fill="#fbc219"/>
  <path d="M26.4 15.8H26a16.5 16.5 0 0 0-5.4.7c-1.5.5-2.3 1.1-2.3 1.8s.3.7.7 1l1.6.6a8.4 8.4 0 0 0 2.4.6h.5a2 2 0 0 1-.1-.7q-.1-3 3-4.2" fill="#a30e03"/>
  <path d="M29.3 23.5l2.8-.5a6.6 6.6 0 0 1 .1-1.4l.3-1.1a3.6 3.6 0 0 1 .4-1.1 4.8 4.8 0 0 1-1.6.7l-1.8.5a18.6 18.6 0 0 1-3.6.3h-3a8.4 8.4 0 0 1-2.4-.6l-1.5-.8a5.9 5.9 0 0 0 .4.8l.3 1.1a11.1 11.1 0 0 1 .2 1.9l3.2.4a31.9 31.9 0 0 0 6.2-.2z" fill="none" stroke="#000" stroke-linecap="round" stroke-linejoin="round" stroke-width=".4"/>
  <path d="M19 19.5c-.5-.3-.7-.6-.7-1s.7-1.3 2.2-1.8a17.3 17.3 0 0 1 5.4-.7h.4a18.3 18.3 0 0 1 5 .7c1.5.5 2.2 1.1 2.2 1.8a1.2 1.2 0 0 1-.6 1m-9.6 6a19.9 19.9 0 0 1-3.4-.5c-.1.6-.1 1.2-.2 1.9l-.3 1.1c0 .6-.1 1.2-.1 1.7s1.7-.8 2.5.6q.6-.9 1.2-.9t1.8 1.2c1-1.7 1.9-1.7 3 0 .6-1.1 1.2-1.6 1.8-1.4a2.4 2.4 0 0 1 1.2 1.1c.7-1.6 1.3-1.7 1.9-.4 0-.5-.1-1.1-.1-1.7l-.3-1.3a15 15 0 0 1-.2-2l-2.8.5a24.1 24.1 0 0 1-6 .1z" fill="none" stroke="#000" stroke-linecap="round" stroke-linejoin="round" stroke-width=".4"/>
  <path d="M32.7 30.3a6.3 6.3 0 0 1-3.4 5.6 8.7 8.7 0 0 1-6.4.1 6.6 6.6 0 0 1-3.6-6.2m13.4.1v.4m-12.8-7V25m12.2-.1a6 6 0 0 1 0-1.9m-10.3 7.3a29 29 0 0 0 .4 3.9m2.6-3.6l.3 4m5.7-4.3a29 29 0 0 1-.4 3.9m-2.6-3.6l-.3 4" fill="none" stroke="#000" stroke-linecap="round" stroke-linejoin="round" stroke-width=".4"/>
  <path fill="red" d="M31.4 40.4h1.2v2.7H19.4v-2.7h12z"/>
  <path fill="none" stroke="#000" stroke-linecap="round" stroke-linejoin="round" stroke-width=".4" d="M31.4 40.4h1.2v2.7H19.4v-2.7h12z"/>
  <path fill="#a30e03" d="M59.2 37.8L55.8 40h9.9l-3.1-3.3-3.4 1.1z"/>
  <path d="M54.5 20.4s-3-1.3-4 1 1.8 5.7 2.1 6.4a1.1 1.1 0 0 1-.3 1.6c-1.7 1.2.8 2.9 1.7.7s-1-4.5-1.8-6.1-1.2-3.3 2.4-2.4m13-1.2s2.9-1.3 4 1-1.9 5.7-2.2 6.4-.3 1.2.3 1.6-.8 2.9-1.6.7 1-4.5 1.7-6.1 1.1-3.3-2.5-2.3" fill="none" stroke="#000" stroke-linecap="round" stroke-linejoin="round" stroke-width=".4"/>
  <path d="M59.1 36s.8 2.9-3.3 4.3c-.1.1 4.8.7 5.9-3.9a23.4 23.4 0 0 1-2.6-.4z" fill="red"/>
  <path d="M63 36s-.7 2.9 3.4 4.3a5.2 5.2 0 0 1-5.9-4A21.3 21.3 0 0 0 63 36z" fill="red"/>
  <path d="M59.1 36s.8 2.9-3.3 4.3c-.1.1 4.8.7 5.9-3.9a20.2 20.2 0 0 1-2.6-.4z" fill="none" stroke="#000" stroke-linecap="round" stroke-linejoin="round" stroke-width=".4"/>
  <path d="M63 36s-.7 2.9 3.4 4.3c0 .1-4.9.6-6-4A23 23 0 0 0 63 36z" fill="none" stroke="#000" stroke-linecap="round" stroke-linejoin="round" stroke-width=".4"/>
  <path d="M59.3 35.5a10 10 0 0 0 1.8 4.9c0-.1 1.4-1.2 1.7-4.9.4-.1-3.5 0-3.5 0z" fill="red"/>
  <path d="M59 32.6s-.4 4.6 2 7.7c0-.1 2.5-2 2.2-7.7 0-.1-4.2 0-4.2 0z" fill="none" stroke="#000" stroke-linecap="round" stroke-linejoin="round" stroke-width=".4"/>
  <path d="M58.9 35.5s-1.2.3-1.2 2.2a2.3 2.3 0 0 0 2.6-1.7m3.1-.5s1.2.3 1.2 2.2A2.3 2.3 0 0 1 62 36" fill="red"/>
  <path d="M58.9 35.5s-1.2.3-1.2 2.2a2.3 2.3 0 0 0 2.6-1.7m3.1-.5s1.2.3 1.2 2.2A2.3 2.3 0 0 1 62 36" fill="none" stroke="#000" stroke-linecap="round" stroke-linejoin="round" stroke-width=".4"/>
  <path d="M62.1 35.8s.4 1.1-1 2.5a2.4 2.4 0 0 1-1.2-2.4 15.5 15.5 0 0 1 2.2-.1z" fill="red"/>
  <path d="M62.1 35.8s.4 1.1-1 2.5a2.4 2.4 0 0 1-1.2-2.4 15.5 15.5 0 0 1 2.2-.1z" fill="none" stroke="#000" stroke-linecap="round" stroke-linejoin="round" stroke-width=".4"/>
  <path d="M55.6 20l-1.5-.6a5.9 5.9 0 0 0 .4.8l.3 1.1a11.1 11.1 0 0 1 .2 1.9v1.7c-.1.6-.1 1.2-.2 1.9l-.3 1.1c0 .6-.1 1.2-.1 1.7s1.7-.7 2.5.7c.4-.7.7-1 1.2-1a2.2 2.2 0 0 1 .1-.8 10.6 10.6 0 0 0 .2-3.1l-.2-1.8v-.9l-.2-2.1a8.4 8.4 0 0 1-2.4-.6m9 .5l-.2 2.9.3 5.7q.6.1 1.2 1.2c.7-1.7 1.3-1.8 1.9-.4a11 11 0 0 0-.2-1.8 5.9 5.9 0 0 0-.2-1.3 15 15 0 0 1-.2-2 6 6 0 0 1 0-1.9 6.6 6.6 0 0 1 .1-1.4l.3-1.1a4.9 4.9 0 0 1 .4-1.1 4.8 4.8 0 0 1-1.6.7l-1.8.5" fill="#d79f09"/>
  <path d="M68.6 18.3c0-.7-.7-1.3-2.2-1.8a18.3 18.3 0 0 0-5-.7 4.1 4.1 0 0 0-2.9 4.2v.7H61a20.2 20.2 0 0 0 3.6-.3l1.8-.5a4.8 4.8 0 0 0 1.6-.7 1.2 1.2 0 0 0 .6-1" fill="red"/>
  <path d="M66 30.3a2.4 2.4 0 0 0-1.3-1.2c-.6-.2-1.2.3-1.8 1.4q-1.5-2.5-3 0-1-1.3-1.8-1.2c-.4 0-.8.3-1.2 1-.8-1.4-1.6-1.7-2.5-.7v.3c0 2.9.8 4.4 3.2 5.9l.4.2s2.2 1.2 6 .1l.5-.3a6.1 6.1 0 0 0 3.4-5.7c0-.1-.1-.2-.1-.3s-1.1-1.2-1.8.5z" fill="#325723"/>
  <path d="M64.4 23.4l.2-2.9a20.2 20.2 0 0 1-3.6.3h-3l.2 2.1v.9l.2 1.8a10.6 10.6 0 0 1-.2 3.1 2.2 2.2 0 0 0-.1.8q.8-.2 1.8 1.2 1.4-2.5 3 0c.6-1.1 1.2-1.6 1.8-1.4l-.3-5.7" fill="#fbc219"/>
  <path d="M61.4 15.8H61a17.3 17.3 0 0 0-5.4.7c-1.5.5-2.2 1.1-2.2 1.8a1.2 1.2 0 0 0 .6 1h.1l1.5.6a8.4 8.4 0 0 0 2.4.6h.5V20a4.1 4.1 0 0 1 2.9-4.2" fill="#a30e03"/>
  <path d="M64.4 23.5l2.7-.5c0-.5.1-.9.1-1.4a3.6 3.6 0 0 1 .4-1.1 2.1 2.1 0 0 1 .4-1.1 5.9 5.9 0 0 1-1.6.7l-1.8.5a20.2 20.2 0 0 1-3.6.3h-3a8.4 8.4 0 0 1-2.4-.6l-1.6-.8a2 2 0 0 1 .4.8l.3 1.1.3 1.9 3.2.4a32.4 32.4 0 0 0 6.2-.2z" fill="none" stroke="#000" stroke-linecap="round" stroke-linejoin="round" stroke-width=".4"/>
  <path d="M54 19.5c-.4-.3-.7-.6-.7-1s.8-1.3 2.3-1.8A16.9 16.9 0 0 1 61 16h.4a18.3 18.3 0 0 1 5 .7c1.4.5 2.2 1.1 2.2 1.8a1.2 1.2 0 0 1-.6 1m-9.7 6a21.5 21.5 0 0 1-3.4-.5 13.7 13.7 0 0 1-.2 1.9c-.1.4-.1.7-.2 1.1a10.3 10.3 0 0 0-.1 1.7c.8-1 1.7-.8 2.5.6.3-.6.7-.9 1.1-.9s1.2.3 1.8 1.2q1.5-2.6 3 0c.6-1.1 1.2-1.6 1.8-1.4a3 3 0 0 1 1.3 1.1c.6-1.6 1.3-1.7 1.8-.4a10.3 10.3 0 0 0-.1-1.7l-.3-1.3a15 15 0 0 1-.2-2l-2.7.5a24.8 24.8 0 0 1-6.1.1z" fill="none" stroke="#000" stroke-linecap="round" stroke-linejoin="round" stroke-width=".4"/>
  <path d="M67.7 30.3a6.3 6.3 0 0 1-3.4 5.6 8.5 8.5 0 0 1-6.3.1 6.7 6.7 0 0 1-3.7-6.2m13.4.1v.4m-12.7-7a9.7 9.7 0 0 1-.1 1.7m12.2-.1V23m-10.2 7.3a18.1 18.1 0 0 0 .4 3.9m2.5-3.6l.3 4m5.7-4.3a18.1 18.1 0 0 1-.4 3.9m-2.5-3.6l-.3 4" fill="none" stroke="#000" stroke-linecap="round" stroke-linejoin="round" stroke-width=".4"/>
  <path fill="red" d="M66.5 40.4h1.1v2.7H54.5v-2.7h12z"/>
  <path fill="none" stroke="#000" stroke-linecap="round" stroke-linejoin="round" stroke-width=".4" d="M66.5 40.4h1.1v2.7H54.5v-2.7h12z"/>
</svg>
