<svg xmlns="http://www.w3.org/2000/svg" viewBox="0 0 87 140">
  <rect width="87" height="140" rx="6" ry="6" fill="#fff"/>
  <path d="M30.3 64.6v.2a14.4 14.4 0 0 1 6.4 6.5 9.1 9.1 0 0 0 .7 1.4l.5.3v1h.1a9.8 9.8 0 0 0-.1 3.8 2.8 2.8 0 0 0 .1.9v.4c.2.7.3 1.3.5 2l.4 1.2c0 .1.1.1.1.2a6.1 6.1 0 0 0 2.4.4h1.5a5.4 5.4 0 0 0-.5-1.1 10.6 10.6 0 0 1-1.3-6.3 7.4 7.4 0 0 0 2.5-.3v-.3l-.9-8.1" fill="red"/>
  <path d="M67.5 104.7a6.9 6.9 0 0 0-.5 1.7 4.1 4.1 0 0 0 .4 2.2 3.5 3.5 0 0 0 1.6 1.6l1.1-1.4.3-.4.7-1.2-.5.2a1.6 1.6 0 0 1-.9-.3h-.1l-1-1c-.1-.1-.2-.2-.2-.3-.1 0-.1-.1-.1-.2h-.1a.4.4 0 0 1 .1-.3l.3-.6h-.8l-.3.4m4.7-9.5a.4.4 0 0 0-.1.3 6.6 6.6 0 0 0 1.1 5.3l.7-7.2-1.7 1.6m-48.5 20.3h.2c0-.1-.1-.1-.2-.1m0 0c0 .2-.1.3-.1.5a3 3 0 0 0-.2 1 10.6 10.6 0 0 0 2.1 1.6 4.7 4.7 0 0 0 3.8.5h.1a3.9 3.9 0 0 0-.3-2.1c-.1-.4-.3-.7-.4-1.1l-.4.3c-.3.2-1 .2-2.3 0h-.4a4.9 4.9 0 0 1-1.7-.6h-.2m-5.5-9.9a3.8 3.8 0 0 1 .1-1 10.7 10.7 0 0 0-1.8-1.9l-.5-.5c0 .4.1.8.1 1.2a14.2 14.2 0 0 1-.1 2.3 8.6 8.6 0 0 1-.1 1.6 16.2 16.2 0 0 1-.2 1.8c-.2.8-.3 1.4-.4 1.9a1.2 1.2 0 0 0 .4 1.1h.5l.3.5-.9.6a2.8 2.8 0 0 0 .3 2.2l.5.4a6.6 6.6 0 0 0 2.2 1.5 5.2 5.2 0 0 0 2.5.1 6.5 6.5 0 0 0-.2-2l-.5-1.2-1-1.1a2.4 2.4 0 0 0 0-2.2 16.2 16.2 0 0 1-.6-1.7 10.3 10.3 0 0 1-.5-2.4c0-.4-.1-.8-.1-1.2m37.6 13.5l-.2 1a3.2 3.2 0 0 0 1.9 1.7 7.2 7.2 0 0 0 2.5.2 2.8 2.8 0 0 0 2-.8 3.3 3.3 0 0 0-.9-1.7l-1.1-1.4a3.7 3.7 0 0 1-2.2 1h-2M53.3 106l-.3.6v.3a4.9 4.9 0 0 0 .1 1.2c0 .1 0 .2.1.2a1.4 1.4 0 0 0 1.2-.5l.2-.2a18.1 18.1 0 0 1-.5-3.1 4.3 4.3 0 0 0-.1-.5 14.2 14.2 0 0 1-.7 2.2m-5.6-29.8h-2a11.5 11.5 0 0 1-.1 1.9c0 .2.2.3.5.3l1 .2.4.2a2.1 2.1 0 0 1 1 .4 6.7 6.7 0 0 1 1.4 1.5l1.2 1.3.7.9a3.3 3.3 0 0 1 .6 1v.2a2.2 2.2 0 0 1 .5 1.2 2 2 0 0 1-.2 1.4l-.2-.2-.8-1.4c-.7-1.1-2.1-2.9-4-5.4a9.7 9.7 0 0 0-.8 4.1 13 13 0 0 0 1.4 5.7l1.6.5a1.7 1.7 0 0 1-.4 1.2 1.7 1.7 0 0 1-1.1.4h-1.6a5.5 5.5 0 0 1-2.2-.6l-.9-.4h-.2l-.6.5h-.1a2 2 0 0 0 .3 1.1h.1a37.8 37.8 0 0 0 1.7 3.5c1.2 2.2 2.4 4.3 3.7 6.4l.4-.2a1.6 1.6 0 0 0 .9-.7l.3-.6-.2-.5.6.8 1.9-1a28.3 28.3 0 0 1-.4-8.7c.1-.5.1-1 .2-1.5l1-.3c0-.1.1-.2.1-.3a22.4 22.4 0 0 0 1.1-5c.1-.6.1-1.2.2-1.8a19.3 19.3 0 0 0-.1-2.4 18.2 18.2 0 0 0-1-4.5l-1 .3a16 16 0 0 1-4.9.5m3.8-11c-.7-.1-1.1.2-1 .8q.3 3.3.9 6.6l1-.2v-1c0-.5.1-1 .1-1.5a22.6 22.6 0 0 0-.1-3.7c-.1-.3-.2-.6-.4-.7h-.5m3.4-3.7a3 3 0 0 0-.2 1c.1 2.1.2 4.2.4 6.3a5.3 5.3 0 0 0 .1 1.3h.2l.5.8.6-.5a24.4 24.4 0 0 0 3.6-3 3.3 3.3 0 0 0 .6-1.3h-.1l-.4-1a3.1 3.1 0 0 1-.3-2.3l-.7-.2-3.1-1-1.1-.6a.9.9 0 0 1-.1.5m-5.5-3.7l-.4-.4-1.2 3.4c-.5 1.2-1.1 2.4-1.7 3.6l-.4.4-.2.3a2.8 2.8 0 0 0-.4 1.2 2.4 2.4 0 0 0 1.6-.9l.3-.3 2-1.6a1.3 1.3 0 0 0 .7-.6l.5-.6a2.6 2.6 0 0 0 .3-1.4c-.1-.8-.1-1.7-.2-2.5l-.5-.3-.3-.3h-.1M30.5 83.4l.7-1.6-5.8-.4a19.1 19.1 0 0 1-.5 4.8 8.3 8.3 0 0 1-.6 2.1l-.6 2a1.9 1.9 0 0 1-.3.9l-.3.7c-.4.8-.7 1.7-1.1 2.5a9.9 9.9 0 0 1-1.1 1.7 3.5 3.5 0 0 0-.6 1.4v.2c-.1.5-.1.9-.2 1.3v.8h.1c-.9 1.4-.5 3.2 1.2 5.3a14.3 14.3 0 0 1 2.9 5 6.3 6.3 0 0 0 .7 2.4h2l-.3-.4a13 13 0 0 1-1.5-2l-.8-1a30.5 30.5 0 0 1-1.8-3.2 30.2 30.2 0 0 1-1.3-2.9 10.6 10.6 0 0 1-.9-2.5 2 2 0 0 1-.1-.7h-.1a.7.7 0 0 1 .1-.5 4 4 0 0 1 1.7-2.7 11.8 11.8 0 0 0 2.3-2.7l.9-1.4 1.3-.2a7.5 7.5 0 0 0 3.4-2.1A20.6 20.6 0 0 1 34 87l.9-.4-.9-.7a22.2 22.2 0 0 0-3.5-2.5M11.8 74a12.8 12.8 0 0 0-1.3 5 7.4 7.4 0 0 0 0 2.1c.1.5.1 1.1.2 1.6v.6a2.2 2.2 0 0 1 .1.8.6.6 0 0 1 .1.4c.1.2.1.4.2.5a.4.4 0 0 0 .1.3c-.1.3-.2.2-.4-.2a5.4 5.4 0 0 0-.7-1.3 4.2 4.2 0 0 1-1-1.7 3.7 3.7 0 0 1-.5-1.6c-.1-.1-.1-.3-.2-.4s-.3.5-.3 1 .1.9.2 1.4v.4a15.5 15.5 0 0 1 .4 1.5.4.4 0 0 1 .1.3l1 1.7.2.3a7.3 7.3 0 0 1 .4 2.3 6.9 6.9 0 0 0 .2 1.3 10 10 0 0 0 .2 1.6 5 5 0 0 1-.1 2.7 22.1 22.1 0 0 0-.5 2.5 2.8 2.8 0 0 0 .1 1.3h.1a.8.8 0 0 0 .1.4c0 .1.1.2.1.3v.6a4.1 4.1 0 0 0 .3 1.6 2.7 2.7 0 0 0 .9 1.2l.6.2-.5-.7v-.4c0-.1 0-.1.1-.2l.6-.9.2-.3A3.4 3.4 0 0 0 13 98l.5.2.5 1a1.9 1.9 0 0 0 .5-1 .9.9 0 0 0 0-.7 18.3 18.3 0 0 0-.6-2.5 1.7 1.7 0 0 1 .3-1c.3-.4.5-.9.8-1.4a5.7 5.7 0 0 0 .3-2.6l.5-1.1-1.2-2.4a.8.8 0 0 1-.2-.5l-.5-1c-.2-.5-.3-.9-.5-1.3l-.4-1.3-.4-1.6-.3-.9c-.1-.2-.1-.5-.2-.7a10 10 0 0 0-.2-1.6c-.1-.6-.1-1.2-.2-1.8s.1-1.2.1-1.8m4.9-2.4a1.4 1.4 0 0 1-.2.6 2.1 2.1 0 0 0-.4 1.4v1c-.2 1-.4 2-.5 3s-.2 2.5-.2 3.8-.1 1.2-.2 1.8h1.1l.9.2h.2a1.3 1.3 0 0 0 .6-.7.8.8 0 0 0 .2-.5.6.6 0 0 0 .1-.4 44.1 44.1 0 0 0 .3-5.2c0-.5-.1-1.1-.1-1.6a10.3 10.3 0 0 0-.5-2.4 3.1 3.1 0 0 0-.7-1.4.9.9 0 0 0-.6.4m5.9-8.5h-.3a2.8 2.8 0 0 0-1.6.5h-.2l-.6.2a12.6 12.6 0 0 0-2 2l-.5.6.3-.2.7-.3.3-.2.5-.2h.3a11.5 11.5 0 0 1 2.8-.9l.3-1.7m39.2-15.6l-.8.3a8.3 8.3 0 0 0-1.4 1.3l-.3.5a.2.2 0 0 1-.2.2 8.9 8.9 0 0 0-.8 1.7.4.4 0 0 1-.1.3l-.7.9-1.3 2.1a4.1 4.1 0 0 0-.5 1.9 10.6 10.6 0 0 1-.4 1.9l-.3 1.8 2 .8a13.7 13.7 0 0 0 2.9.7 3.7 3.7 0 0 1 .1-1.1v-.4a11.8 11.8 0 0 1 .7-2 10.8 10.8 0 0 1 .8-1.9 15.5 15.5 0 0 1-.1-2.1.3.3 0 0 1 .1-.2l.4-1.5a6.4 6.4 0 0 1 1.3-1.9 1.3 1.3 0 0 1 .1-.6 3.8 3.8 0 0 0-.3-1.6 1.8 1.8 0 0 0-.6-.9h-.6M67.5 87l.7.4.5.5a4.6 4.6 0 0 0 1.8 1.3 9.3 9.3 0 0 0 3.4.5l-3.7-2.8-.3-.2-.6-.7a12.6 12.6 0 0 0-2-2 5.7 5.7 0 0 0-1.8-1.2 7 7 0 0 1-1.8-2v-.3a13.6 13.6 0 0 0 .3-2.9 14.1 14.1 0 0 0-.3-2.8 11.1 11.1 0 0 0-.7-2.6L62 70l-1.5 1.7V74a9.9 9.9 0 0 1-.3 2.4.6.6 0 0 1-.1.4c0 .4-.1.7-.1 1s-.1.4-.1.6a13.1 13.1 0 0 1-1.5 3.7 30.5 30.5 0 0 1-1.1 6.5 4.5 4.5 0 0 0 1.8-.7 4.9 4.9 0 0 1 2.6 1l.9.6a12.3 12.3 0 0 0 2.6 1.2l2.3.8 1.2.5-1.2-2.5a7.9 7.9 0 0 0-1.7-1.4l-1.6-.7h-.3l-2.5-1.7a9.9 9.9 0 0 0 1.1-1.7l2.6 1.6.4.3 2 1.2m-1.8-23.9a1.1 1.1 0 0 1-.7-.3l-.6.2c0 .4-.1.9-.1 1.3v.3l-.3.7a1.1 1.1 0 0 0 .1 1.2 13.1 13.1 0 0 0 2.8 2.4c.2.1.4.2.5.1h.2l1-.6a4.1 4.1 0 0 1-2.5-4.5 2.5 2.5 0 0 0 .1-.8h-.5m7-9.6a.4.4 0 0 1-.1.3c0 .4-.1.8-.1 1.2v.3c-.1.4-.1.5-.1.3a1.3 1.3 0 0 1-.7-.6l-.3 1.4-.6 1.6v.3a11.6 11.6 0 0 0-.6 1.5l.8.2 1.8.7v-.2a.1.1 0 0 1 .1-.1.4.4 0 0 1 .1-.3v-.3l.3-1.4a6.4 6.4 0 0 1 .2-.7 10.1 10.1 0 0 1 .7-1.5 2.1 2.1 0 0 0 .4-.6l.6-.8.2-.2v-.2a.4.4 0 0 0 .1-.3 4.5 4.5 0 0 0-.1-1.1.8.8 0 0 1 .2-.5h.2l-.5-.3a8 8 0 0 0-1.6-.8 3.2 3.2 0 0 0-.3.9 6.9 6.9 0 0 1-.7 1.5m4.2-12.1l-.6.2a5.9 5.9 0 0 0-3 2.6l2.4 1.1a2.7 2.7 0 0 1 1 .6 2 2 0 0 0 .1-.7 9.8 9.8 0 0 0 .1-3.8m-11.4 1.9H61c.1-.1.1-.3.2-.4s.1-.2.3-.3l.9-.9c-.1-.2-.4-.3-.8-.2l-1.3.3-.8.5a2.7 2.7 0 0 0-1.1 1h-.2l-.2.2a2.4 2.4 0 0 1-1.8 1.1 5.4 5.4 0 0 1-1.8 0 4.8 4.8 0 0 0-1.8.3l-.8.5h-.1l-.3.2c0 .2-.1.2-.3.3a2.9 2.9 0 0 0-.9 2.1 6.4 6.4 0 0 1-.3 2l-.3.8a24.8 24.8 0 0 1-2 4.4l.6.4c.1.2.3.3.4.4l.4-.7a13.2 13.2 0 0 1 3.1-3.6l.2-.3v1.6a34.4 34.4 0 0 1 2.8-3.6 1.6 1.6 0 0 0 .5-.9l.2 1.3 1.9-3.7a1.7 1.7 0 0 1 .2-.5l-.2.7.7-.5a1.8 1.8 0 0 0 .7-.5l1.4-1.1-.9 1.4.4-.2h.1l3-.5H63l-.7.9h-.2l.5-.2h.5l2.2-.6a2 2 0 0 0 .8-.4c-.1.2-.3.3-.5.5a.2.2 0 0 1-.2.2l-1.4.9h1.1l.7-.2a7.1 7.1 0 0 1 .8-1.8.3.3 0 0 0 .1-.2l-.9-.6-.3-.2m4.1.6c0-.2-.1-.3-.1-.4a12.3 12.3 0 0 1-2.8 2.3l.2 2.1.6.2h2.4c0-.8-.1-1.6-.1-2.4a12.3 12.3 0 0 1-.2-1.9m1.3 1.6a2 2 0 0 1 .3-1.1 7.5 7.5 0 0 0 .7-1.2v-1.6a5.5 5.5 0 0 0-1.7 3.2c0 .3-.1.5-.1.7l.7.5a.4.4 0 0 1 .1-.3z" fill="#856353"/>
  <path d="M55.6 120.5l.2-1a.8.8 0 0 0 .2-.5.9.9 0 0 0-.2-1H55l-.4.2a.5.5 0 0 1-.6-.1 2.5 2.5 0 0 1-.2-.7 23.3 23.3 0 0 1-.5-2.8H28.2a12.1 12.1 0 0 0 .5 1.4c.1.4.3.7.4 1.1a3.9 3.9 0 0 1 .3 2.1h-.1a4.7 4.7 0 0 1-3.8-.5 10.6 10.6 0 0 1-2.1-1.6 3 3 0 0 1 .2-1 8.6 8.6 0 0 1 .3-1.7h-3.4a16.5 16.5 0 0 1 .6 3.2 5.2 5.2 0 0 1-2.5-.1 6.6 6.6 0 0 1-2.2-1.5 9.5 9.5 0 0 1-1-1.7h-5l5 10h65.3l-5.6-10H58a21.3 21.3 0 0 1 .8 2.7l.2.7 1 .4 1.1 1.4a3.3 3.3 0 0 1 .9 1.7 2.8 2.8 0 0 1-2 .8 7.2 7.2 0 0 1-2.5-.2 3.2 3.2 0 0 1-1.9-1.7m-12-45.4a7.4 7.4 0 0 1-2.5.3 10.6 10.6 0 0 0 1.3 6.3 5.4 5.4 0 0 1 .5 1.1h.7a14.8 14.8 0 0 1 .1-2.1 23.4 23.4 0 0 0 .1-4.6 2.9 2.9 0 0 1-.2-.9m-4-10.4h-1.4a14.7 14.7 0 0 1 1.6 5.6c0 .6.1 1.3.1 1.9l-.2.2-.8 1.2a6.3 6.3 0 0 0 4.5-.4v-.2l-.4-1.8a21.1 21.1 0 0 1-.2-6.2h-3.2m-9.3.1l1.1 2.2a14.3 14.3 0 0 0 1.4 2 12.9 12.9 0 0 0 1.6 1.7h.1l.7.7.4.2 1.8 1.1a9.1 9.1 0 0 1-.7-1.4 14.4 14.4 0 0 0-6.4-6.5z" fill="#980805"/>
  <path d="M50.2 100.8l-.3.6a1.6 1.6 0 0 1-.9.7l-.4.2.4 1.3v.4a4.1 4.1 0 0 0 1 2.2 15.1 15.1 0 0 1 2.6 4.6 21.9 21.9 0 0 1 .9 5v.3a5.8 5.8 0 0 0 .3 1.4 2.5 2.5 0 0 0 .2.7.5.5 0 0 0 .6.1l.4-.2h.8a.9.9 0 0 1 .2 1 .8.8 0 0 1-.2.5h2a3.7 3.7 0 0 0 2.2-1l-1-.4-.2-.7a2.8 2.8 0 0 0-.3-1.3l-.5-1a4.1 4.1 0 0 1-.7-1.1l-.9-1.5c-.5-1.2-1-2.3-1.4-3.5s-.3-1-.4-1.5l-.2.2a1.4 1.4 0 0 1-1.2.5c-.1 0-.1-.1-.1-.2a4.9 4.9 0 0 1-.1-1.2v-.3l.3-.6a14.2 14.2 0 0 0 .7-2.2v-.2a1.9 1.9 0 0 0-.2-.8 5.7 5.7 0 0 0-1.3-2.7l-1.9 1-.6-.8.2.5m2.2-29.2v1h.3l-.3-.9m5.5 2.1l-.8.3a18.5 18.5 0 0 1 1.3 6.1v2a13.1 13.1 0 0 0 1.5-3.7c0-.2.1-.4.1-.6s.1-.6.1-1a.6.6 0 0 0 .1-.4 9.9 9.9 0 0 0 .3-2.4v-2.4a16.4 16.4 0 0 1-2.6 2m-12.2 2.6l-1.9-.3a23.4 23.4 0 0 1-.1 4.6 14.8 14.8 0 0 0-.1 2.1c.2-.1.3-.1.3.1s.1 1 .4 2.8l.2 1 1.5 1.6a6.4 6.4 0 0 0 2.2 1.4h.1a13 13 0 0 1-1.4-5.7 9.7 9.7 0 0 1 .8-4.1c1.9 2.5 3.3 4.3 4 5.4l.8 1.4.2.2a2 2 0 0 0 .2-1.4 2.2 2.2 0 0 0-.5-1.2V84a3.3 3.3 0 0 0-.6-1l-.7-.9-1.2-1.3a6.7 6.7 0 0 0-1.4-1.5 2.1 2.1 0 0 0-1-.4l-.4-.2-1-.2c-.3 0-.5-.1-.5-.3a11.5 11.5 0 0 0 .1-1.9M55 61.5l-2.1-1.1-2.6-1.5c.1.8.1 1.7.2 2.5a2.6 2.6 0 0 1-.3 1.4l-.5.6a1.3 1.3 0 0 1-.7.6l-2 1.6-.3.3a2.4 2.4 0 0 1-1.6.9 2.8 2.8 0 0 1 .4-1.2l.2-.3.4-.4c.6-1.2 1.2-2.4 1.7-3.6l1.2-3.4-3.5-2.7a41.3 41.3 0 0 0-1.7 4.5c-.2.7-.3 1.3-.5 2a3.6 3.6 0 0 0-.2 1.1 5.2 5.2 0 0 0-.2 1.1 2.2 2.2 0 0 0-.1.8 21.1 21.1 0 0 0 .2 6.2l.4 1.8a22 22 0 0 0 4.4.5 14.7 14.7 0 0 0 3.6-.4q-.6-3.3-.9-6.6c-.1-.6.3-.9 1-.8h.5c.2.1.3.4.4.7a22.6 22.6 0 0 1 .1 3.7c0 .5-.1 1-.1 1.5l2.8-.9a5.3 5.3 0 0 1-.1-1.3c-.2-2.1-.3-4.2-.4-6.3a3 3 0 0 1 .2-1 .9.9 0 0 0 .1-.5M31.2 81.8l-.7 1.6a22.2 22.2 0 0 1 3.5 2.5l.9.7a10.3 10.3 0 0 0 4.1 1.6h1.3a.4.4 0 0 1 .1-.3 6.6 6.6 0 0 0-.3-2.4 9.5 9.5 0 0 0-1.3-3.3l-7.6-.5m-8.9-18.5h.3c.1-.4.3-.7.4-1.1h-.1l-1 .2-.2.2-.6.2-1.5.7a3.8 3.8 0 0 0-2.9-.6 7.1 7.1 0 0 0-5 1.9l-.4.4a34.4 34.4 0 0 0-2.8 3.6l-.5.7-.3.5a4.5 4.5 0 0 0-.7 1.6 12.9 12.9 0 0 0-.4 1.9 7.7 7.7 0 0 0-.2 1.5 14.1 14.1 0 0 0-.1 2 16.2 16.2 0 0 0-.1 2.2 9.1 9.1 0 0 0 .1 1.7 11.6 11.6 0 0 0 .4 1.8 5.6 5.6 0 0 0 .4 1.2l.6 1.3 1.1 1.8.2.2.3.4a4.6 4.6 0 0 1 .7 2.6c0 .9.1 1.8.1 2.7l-.5 1a7.1 7.1 0 0 0-.6 2.4 1.4 1.4 0 0 0 .1.9 5.3 5.3 0 0 0 1.6 2.3v-.2c0-.1-.1-.2-.1-.3a.8.8 0 0 1-.1-.4h-.1a2.8 2.8 0 0 1-.1-1.3 22.1 22.1 0 0 1 .5-2.5 5 5 0 0 0 .1-2.7 10 10 0 0 1-.2-1.6 6.9 6.9 0 0 1-.2-1.3 7.3 7.3 0 0 0-.4-2.3l-.2-.3-1-1.7a.4.4 0 0 0-.1-.3 15.5 15.5 0 0 0-.4-1.5v-.4c-.1-.5-.1-.9-.2-1.4s0-.8.3-1 .1.3.2.4a3.7 3.7 0 0 0 .4 1.4 4.2 4.2 0 0 0 1 1.7 5.4 5.4 0 0 1 .7 1.3c.2.4.3.5.4.2a.4.4 0 0 1-.1-.3c-.1-.1-.1-.3-.2-.5a.6.6 0 0 0-.1-.4 2.2 2.2 0 0 0-.1-.8v-.6c-.1-.5-.1-1.1-.2-1.6a7.4 7.4 0 0 1 0-2.1 12.8 12.8 0 0 1 1.3-5c0 .6-.1 1.2-.1 1.8s.1 1.2.2 1.8a10 10 0 0 1 .2 1.6c.1.2.1.5.2.7l.3.9.4 1.6.4 1.3c.2.4.3.8.5 1.3l.6 1.1a.8.8 0 0 0 .2.5l1.2 2.5a4.8 4.8 0 0 1 .3 2.9 16.4 16.4 0 0 1-.7 2.8.6.6 0 0 1-.1.4c-.1.9-.1 1.8-.2 2.7a15.5 15.5 0 0 1-.4 2.1v1l.2.4v.2l.2.2.7.8.5.5a10.7 10.7 0 0 1 1.8 1.9c.6.7 1.1 1.5 1.6 2.2a15.9 15.9 0 0 1 1.3 2.2 10.1 10.1 0 0 1 .7 1.5l.9 2.4a2.1 2.1 0 0 0 .3.7l.3.2h.3a.3.3 0 0 1 .1-.2l.2.2-.3 1.6c.1 0 .2 0 .2.1a4.9 4.9 0 0 0 1.7.6h.5c1.3.2 2 .2 2.3 0l.4-.3h-.1v-.2a12.3 12.3 0 0 0-1.2-2.6l-.3-.5H25a6.3 6.3 0 0 1-.7-2.4 14.3 14.3 0 0 0-2.9-5c-1.7-2.1-2.1-3.9-1.2-5.3h-.1V99c.1-.4.1-.8.2-1.3v-.2a3.5 3.5 0 0 1 .6-1.4 9.9 9.9 0 0 0 1.1-1.7c.4-.8.7-1.7 1.1-2.5l.3-.7a1.9 1.9 0 0 0 .3-.9l.6-2a8.3 8.3 0 0 0 .6-2.1 19.1 19.1 0 0 0 .5-4.8l-3-.2a34.1 34.1 0 0 1-.1-16.5 11.5 11.5 0 0 0-2.8.9h-.3l-.5.2-.3.2-.7.3-.3.2.5-.6a12.6 12.6 0 0 1 2-2l.6-.2h.2a2.8 2.8 0 0 1 1.6-.5m-5.8 9a1.4 1.4 0 0 0 .2-.6.9.9 0 0 1 .6-.4 3.1 3.1 0 0 1 .7 1.4 10.3 10.3 0 0 1 .5 2.4c0 .5.1 1.1.1 1.6a44.1 44.1 0 0 1-.3 5.2.6.6 0 0 1-.1.4.8.8 0 0 1-.2.5 1.3 1.3 0 0 1-.6.7h-.2l-.9-.2h-1.1c.1-.6.1-1.2.2-1.8s.1-2.5.2-3.8.3-2 .5-3v-1a2.1 2.1 0 0 1 .4-1.4m51.7 15.2l-.7-.4-2-1.2-.4-.3-2.6-1.6a9.9 9.9 0 0 1-1.1 1.7l2.5 1.7h.3l1.6.7a7.9 7.9 0 0 1 1.7 1.4l1.2 2.6 2 1.7a26.4 26.4 0 0 1 .2 2.8 10.3 10.3 0 0 1-1.7 5.7 1.9 1.9 0 0 0-.3 1.4l.4.4-.3.2h-.4l-.3.6a.4.4 0 0 0-.1.3h.1c0 .1 0 .2.1.2 0 .1.1.2.2.3l1 1h.1a1.6 1.6 0 0 0 .9.3l.5-.2-.2-.3.6-.3h.2l.3-.3.3-1.3a7.8 7.8 0 0 0 .7-2.5 8.8 8.8 0 0 0 .2-1.6 6.6 6.6 0 0 1-1.1-5.3.4.4 0 0 1 .1-.3l1.7-1.6a4.4 4.4 0 0 0 .2-3.4l-.2-.5a9.3 9.3 0 0 1-3.4-.5 4.6 4.6 0 0 1-1.8-1.3l-.5-.5m-1.4-25.1a1.2 1.2 0 0 1-.3.9l-.3.3a2.5 2.5 0 0 1-.1.8 4.1 4.1 0 0 0 2.5 4.5l1.5.2a5.3 5.3 0 0 0 1.7-1.2c.7-.6 1.1-2.2 1-4.6v-.2l-.8-.5a4.9 4.9 0 0 0-5.2-.3m2.5 3h.2c0 .1.1.1.1.2l-.3-.3m-3.6-14c0-.1-.1-.2-.2-.3l-.5.2a5.2 5.2 0 0 0-1.8 1 1.7 1.7 0 0 0-.6.6l-1.1 1.5a.3.3 0 0 0-.1.2 15.5 15.5 0 0 0 .1 2.1 5.8 5.8 0 0 0 .6 1.7 6.7 6.7 0 0 1 .9 2.1 5.4 5.4 0 0 0 .7 1.3l.3.4h.7a1.4 1.4 0 0 1 .2-.7l.3-.2a.1.1 0 0 1 .1-.1 28.4 28.4 0 0 1-.1-5 18.7 18.7 0 0 1 .7-4.9h-.2m8 .3l-.9-.3-2.2-.4-2.6.1a2.1 2.1 0 0 1-.4.6 1.5 1.5 0 0 1-.6.5 40.2 40.2 0 0 0-.6 5c-.1 1.5-.1 3-.1 4.5a4.3 4.3 0 0 1 3.9-1 11.6 11.6 0 0 1 .6-1.5v-.3l.6-1.6.3-1.4a1.3 1.3 0 0 0 .7.6c0 .2 0 .1.1-.3v-.3c0-.4.1-.8.1-1.2a.4.4 0 0 0 .1-.3 6.9 6.9 0 0 0 .7-1.5 3.2 3.2 0 0 1 .3-.9m-8.3-5.4a.2.2 0 0 0 .2-.2c.2-.2.4-.3.5-.5a2 2 0 0 1-.8.4l-2.2.6h-.5l-.5.2h.2l.7-.9h.1l-3 .5H60l-.4.2.9-1.3-1.4 1.1a1.8 1.8 0 0 1-.7.5l-.7.5.2-.7a1.7 1.7 0 0 0-.2.5l-1.9 3.7-.2-1.4a1.6 1.6 0 0 1-.5.9 34.4 34.4 0 0 0-2.8 3.6v-1.6l-.2.3a13.2 13.2 0 0 0-3.1 3.6l-.4.7c.8.5 1.5 1.1 2.4 1.6a21.1 21.1 0 0 0 3 1.6l1 .5.3-1.8a10.6 10.6 0 0 0 .4-1.9 4.1 4.1 0 0 1 .5-1.9l1.3-2.1.7-.9a.4.4 0 0 0 .1-.3 8.9 8.9 0 0 1 .8-1.7.2.2 0 0 0 .2-.2l.3-.5a8.3 8.3 0 0 1 1.4-1.3l.8-.3h.6a1.8 1.8 0 0 1 .6.9 3.8 3.8 0 0 1 .3 1.6 1.3 1.3 0 0 0-.1.6l1.4-1.1.9-.4h.1l-.5-1.6v-.6H64l1.4-.9m5.8-4l-.7-.3a20.3 20.3 0 0 0-4.3-.7 8.4 8.4 0 0 0-5.4-.3 1.3 1.3 0 0 1-1.2.2 3.5 3.5 0 0 0-2.8.3l1.1.6h-.7a8.5 8.5 0 0 0-3.7 1.5l-2.1 1.4-.9.5a7.5 7.5 0 0 0-1.1 1.3h1.1L49 48.7l-.3.7a9 9 0 0 1-1.5 1.9c-.1.2-.4.5-.6.9l-.2.3v.5a2.1 2.1 0 0 1-.6 1 14.9 14.9 0 0 0 1.8 1.7 24.8 24.8 0 0 0 2-4.4l.3-.8a6.4 6.4 0 0 0 .3-2 2.9 2.9 0 0 1 .9-2.1c.2-.1.3-.1.3-.3l.3-.2h.1l.8-.5a4.8 4.8 0 0 1 1.8-.3 5.4 5.4 0 0 0 1.8 0 2.4 2.4 0 0 0 1.8-1.3l.2-.2h.2a2.7 2.7 0 0 1 1.1-1l.8-.5 1.3-.3c.4-.1.7 0 .8.2l-.9.9c-.2.1-.2.2-.3.3s-.1.3-.2.4h4.5l.3.2.9.6a.3.3 0 0 1-.1.2 7.1 7.1 0 0 0-.8 1.8h.3l.6-.3a12.3 12.3 0 0 0 2.8-2.3c0 .1.1.2.1.4a12.3 12.3 0 0 0 .2 1.9c0 .8.1 1.6.1 2.4l.9.2h.5l2.3.7 1.1.4h.1l.9.4.7.3V50a4.5 4.5 0 0 0 3.4.3 3.6 3.6 0 0 1-1.9-1.3v-.7a3.5 3.5 0 0 0-1.2-2.3 2.7 2.7 0 0 0-1-.6l-2.4-1.1-.7-.4v-3l-1.5.8m0 3a2 2 0 0 0-.3 1.1.4.4 0 0 0-.1.3l-.7-.5c0-.2.1-.4.1-.7a5.5 5.5 0 0 1 1.9-3.1v1.8a7.5 7.5 0 0 1-.7 1.2M47.7 54v.3a.9.9 0 0 1 .1.5c0-.1-.1-.2-.1-.3V54z" fill="#a77e6a"/>
  <path d="M55 75.9h-.1a16.1 16.1 0 0 1 .9 6.2 26.2 26.2 0 0 1-1.2 6.8 1.4 1.4 0 0 1-.2.6l1.8-.5a12.7 12.7 0 0 1 .6-2.8 20.1 20.1 0 0 0 .5-5.1 26.8 26.8 0 0 0-1-6.1c-.1.1-.1.2-.2.2a1.2 1.2 0 0 1-1.1.7m-11.4-1.1v.3a27.3 27.3 0 0 0 4.1.3 20.2 20.2 0 0 0 5.5-.7h.5a1.3 1.3 0 0 1-.1-.6v-.8l-1.3.4-.7.2a18.4 18.4 0 0 1-3.3.3 14.5 14.5 0 0 1-4.8-.5v1.2m18.1-6.4l-.5-1-.4.6a9.3 9.3 0 0 1-2.4 2.5l-1.4 1-1.2.5q.2 0 .3.3a2.5 2.5 0 0 1 .5 1.3l.8-.4a10.9 10.9 0 0 0 3-2.3 6.4 6.4 0 0 0 1-1.3l.5-.7c0-.3 0-.5-.1-.6z" fill="red"/>
  <path d="M56.3 75a1.9 1.9 0 0 0 .2-.7 1.3 1.3 0 0 0 .1-.6 2.5 2.5 0 0 0-.5-1.3q-.1-.3-.3-.3h-.1l-.3-.2h-.6a.9.9 0 0 0-.6.3l-.2.3a2.5 2.5 0 0 0-.4.9v.6a1.3 1.3 0 0 0 .1.6l.3.6.2.3.7.4h.1a1.2 1.2 0 0 0 1.1-.7c.1 0 .1-.1.2-.2" fill="#febf10"/>
  <path d="M55 73c-.1-.2-.2-.3-.2-.4h.5a1.4 1.4 0 0 1 .6 1.5 1.1 1.1 0 0 1-.7 1.1h-.3l.4-.5h-.5a1.3 1.3 0 0 1-.1-.6v-.4h.5a.8.8 0 0 0-.2-.7" fill="#febf10"/>
  <path d="M26.3 65.5a10.4 10.4 0 0 0 3.8 4.3 11.1 11.1 0 0 0 5.1 1.8h.4l-.4-.2-.7-.7h-.7a9.2 9.2 0 0 1-2.3-.9 6.3 6.3 0 0 1-2.6-1.9 12 12 0 0 1-1.6-2.7 15 15 0 0 1-.8-3.2" fill="#fbc219"/>
  <path d="M26.5 61.9c.1-.3.1-.6.2-.9l-1.2.2a7.1 7.1 0 0 0 .2 2.5v.4a41.1 41.1 0 0 0-.6 13.6 102.9 102.9 0 0 0 10.7.9h2a2.8 2.8 0 0 1-.1-.9l-2.4-.2c0-.2-.1-.3-.2-.3a32.2 32.2 0 0 1-9.3-9.1 19.3 19.3 0 0 1 .4-2.7" fill="#fbc219"/>
  <path d="M29.3 60.1l-.5.9-.4.7a39 39 0 0 0 9.7 2.1 5.9 5.9 0 0 1 .2-1.4 49.8 49.8 0 0 1-6.7-1.3 9.9 9.9 0 0 1-2.3-1" fill="#febf10"/>
  <path d="M29.7 63.1h-.1a10.5 10.5 0 0 1-2.1-1.2v1.6l.3 1.1a13.9 13.9 0 0 0 2.1 2.7 5.9 5.9 0 0 0 2.9 1.7 14.3 14.3 0 0 1-1.4-2l-1.1-2.2v-.2a9.4 9.4 0 0 1-.6-1.5" fill="#325723"/>
  <path d="M23.8 61.7l-.8.2c-.1.4-.3.7-.4 1.1l-.3 1.7a34.1 34.1 0 0 0 .1 16.5l3 .2 5.8.4 7.6.5h.1l-.4-1.2a79.6 79.6 0 0 1-15.6-1.2 39.9 39.9 0 0 1 .2-15.4 10.5 10.5 0 0 1 .4-1.7l.3-1.1M22.8 22.2l1.2 2.4a10.2 10.2 0 0 0-1.4 1.9l-.3 1a.4.4 0 0 1 .6 0l.3.2.2.6v-.7a1.1 1.1 0 0 1 1-.1l.6.2.2.8a1.9 1.9 0 0 1 .5-.9l.5-.3a1.1 1.1 0 0 1 1.1.3l.4.4v.5a1.9 1.9 0 0 1 .5-.9h.8a.5.5 0 0 1 .4.2c0 .1.1.3.1.4v.2l.4-.4c.1-.3.3-.5.5-.4s.3.4.2.8.2-.6 0-1.1a4.8 4.8 0 0 0-1.2-2.5l1.7-2.6" fill="#fbc219"/>
  <path d="M23.5 22.4l-1-.3h.3M43.5 38.3l.4-.3a8.4 8.4 0 0 0 1.8-2.3l-.8-.3a4.9 4.9 0 0 1-1.8 2l-.5.3v13l.5-.3a2.1 2.1 0 0 1 1.3-.3 1.1 1.1 0 0 1 0-1.1 2.1 2.1 0 0 0 .4-.6l.2-.2-1.5-9.9" fill="#febf10"/>
  <path d="M43.5 52.9h-3.4l.8 1-1.7 1.6-.2-.3h-.2l-1-1.2 1.7-1.7.6.7.2-14.6 1.5-.4-.9-2.3h-.1l-1.7.6a2.9 2.9 0 0 1-1.7-.3h-.1l-1.2 1.8a5.7 5.7 0 0 1-2.1-1.2h-.1a.2.2 0 0 1-.2-.2l-.2-.2a.3.3 0 0 1-.1-.2h-.2l-.2-.3-.7.2h-.9v.1a.4.4 0 0 0 .1.3.1.1 0 0 1 .1.1.1.1 0 0 0 .1.1 7.7 7.7 0 0 1 1 2.5 4.8 4.8 0 0 1-.4 2.6 3.9 3.9 0 0 1-.8 1 27 27 0 0 1 1.9 8.5 4.5 4.5 0 0 0 .3 1.1l-1-.4a3.5 3.5 0 0 0-.5.8 14 14 0 0 0 3.5 1h.8l-.3.6-4.2-.6v.5h.5a10.4 10.4 0 0 0 2.9.5 1.3 1.3 0 0 1-.1.6A15.8 15.8 0 0 1 32 60a22.5 22.5 0 0 0 3.6.6l.4-6 2.2.2-.2 6.1 1.4.2h.4l.3-6.2h5.3" fill="#fbc219"/>
  <path d="M36.8 38.2l2.1.3-.6 14.6h-.2l-2.2-.2a93.2 93.2 0 0 0 .7-13.7 3.8 3.8 0 0 1-.1-1h.3M42 53.7c0-.2.1-.3.4-.3l.8.4h.8l.6.7a.1.1 0 0 0 .1.1 2.5 2.5 0 0 1-1.9-.1h-.1a1.3 1.3 0 0 1-.7-.6" fill="#febf10"/>
  <path d="M71 60.1l-.8-.2a4.3 4.3 0 0 0-3.9 1l.2.2a1.5 1.5 0 0 1 .3.7 4.9 4.9 0 0 1 5.2.3l.8.5h.1l.3-.2v-1a1 1 0 0 0-.4-.5l-1.8-.8M65.5 50.6a3.3 3.3 0 0 1 0-1.6l-.9.4-1.4 1.1a6.4 6.4 0 0 0-1.3 1.9l-.4 1.5 1.1-1.5a1.7 1.7 0 0 1 .6-.6 5.2 5.2 0 0 1 1.8-1l.5-.2" fill="#b3b3b3"/>
  <path d="M67 51.4h-.3a.9.9 0 0 1-.8-.4 18.7 18.7 0 0 0-.7 4.9 28.4 28.4 0 0 0 .1 5h.4l.5.2h.1c0-1.5 0-3 .1-4.5a40.2 40.2 0 0 1 .6-5M67.5 48.5c.1 0 .1.1.1.2a1.5 1.5 0 0 1 .4 1.1v.5l2.6.2a11.1 11.1 0 0 0 .2-1.7l-.9-.2h-2.4M66.7 46.2l-.6.3h-.3l-.7.2v.6l.5 1.6a.3.3 0 0 1 .1-.2 1.4 1.4 0 0 1 1-.5h.2z" fill="#b3b3b3"/>
  <path d="M61.4 69.6a6.4 6.4 0 0 1-1 1.3 10.9 10.9 0 0 1-3 2.3l-.8.4a1.3 1.3 0 0 1-.1.6 1.9 1.9 0 0 1-.2.7 26.8 26.8 0 0 1 1 6.1 20.1 20.1 0 0 1-.5 5.1 12.7 12.7 0 0 0-.6 2.8l1.1-.4a30.5 30.5 0 0 0 1.1-6.5v-2a18.5 18.5 0 0 0-1.3-6l.8-.3a16.4 16.4 0 0 0 2.6-2L62 70v-1.1l-.5.7M43.6 75.1a2.9 2.9 0 0 0 .2.9l1.9.3h2a16 16 0 0 0 4.9-.5l1-.3a18.2 18.2 0 0 1 1 4.5 19.3 19.3 0 0 1 .1 2.4c-.1.6-.1 1.2-.2 1.8a22.4 22.4 0 0 1-1.1 5c0 .1-.1.2-.1.3s.5.1 1.1-.1a1.4 1.4 0 0 0 .2-.6 26.2 26.2 0 0 0 1.2-6.8 16.1 16.1 0 0 0-.9-6.2l-.7-.4-.2-.3-.3-.6h-.5a20.2 20.2 0 0 1-5.5.7 27.3 27.3 0 0 1-4.1-.3M40.1 53l-.6-.7-1.7 1.7 1 1.2.2.1.2.3 1.7-1.6-.8-1" fill="#0065b7"/>
  <path d="M43.4 72.7v.2a6.3 6.3 0 0 1-4.5.4l.8-1.2.2-.2c0-.6-.1-1.3-.1-1.9a14.7 14.7 0 0 0-1.6-5.4h-.3l-1.7-.2-3.7-.6-2.8-.7a9.4 9.4 0 0 0 .6 1.5" fill="red"/>
  <path d="M43.5 73.6h.1l-.2-1a22 22 0 0 0 4.4.5 14.7 14.7 0 0 0 3.6-.4l1-.2h.3l-.3-.9 2.8-.9h.2l.5.8.6-.5a24.4 24.4 0 0 0 3.6-3 3.3 3.3 0 0 0 .6-1.3.3.3 0 0 1 .1.2l.4.4-.4.6a9.3 9.3 0 0 1-2.4 2.5l-1.4 1-1.2.5h-.1l-.3-.2h-.6a.9.9 0 0 0-.6.3l-.2.3a2.5 2.5 0 0 0-.4.9l-1.3.4-.7.2a18.4 18.4 0 0 1-3.3.3 16.8 16.8 0 0 1-4.7-.4" fill="#0065b7"/>
  <path d="M26.5 32.4c0 .2 0 .3-.2.4a.1.1 0 0 1-.1.1v.5l-.3.3h.1a.5.5 0 0 1-.1.6.1.1 0 0 1-.1.1h-.1v.2c0 .1 0 .1-.1.2s-.1.1-.3.2h-1l-.6-.2-1.2.6c-.4.3-.6.5-.6.8a.9.9 0 0 0 .3.9 4.3 4.3 0 0 0 2.1.5h.2a8.9 8.9 0 0 0 2.8.1 7 7 0 0 0 2.1-.4h.2l.7-.4a1.4 1.4 0 0 0-.9-1.6h-.8c0-.1-.1-.1-.2-.1l-.6-.6v-.8a1.1 1.1 0 0 0 0-.8c0-.1-.2-.2-.3-.3l-.4-.3h-.7M30.1 20.4a10.6 10.6 0 0 0-3.3-.4 10.6 10.6 0 0 0-3.3.4c-.9.3-1.3.7-1.3 1.1a.9.9 0 0 0 .6.8h.1l.6.2a11.4 11.4 0 0 0 3.3.5 11.6 11.6 0 0 0 3.4-.5l.9-.3a1 1 0 0 0 .4-.8c0-.4-.5-.8-1.4-1.1M33.8 25.9l.3-.2a9.8 9.8 0 0 1 4.1-.9 12.1 12.1 0 0 1 4.9.7h.2v-2a6.9 6.9 0 0 0-1-2.1l-1.1-.9c-4.4-1.3-6.8.3-7.3 4.7v.8" fill="red"/>
  <path d="M66.5 61.2l-.2-.2h-.1l-.5-.2h-.4a.1.1 0 0 0-.1.1l-.3.2a1.4 1.4 0 0 0-.2.7c0 .4 0 .7.2.9h.1a1.1 1.1 0 0 0 .7.3h.5l.3-.3a1.2 1.2 0 0 0 .3-.9 1.5 1.5 0 0 0-.3-.7" fill="#fbc219"/>
  <path d="M65.7 61.6h.3a.4.4 0 0 1 .1.3c0 .2 0 .2-.1.3l-.3.2a.2.2 0 0 1-.2-.2.5.5 0 0 1 0-.6h.2" fill="#d41111"/>
  <path d="M65.7 48.7a.3.3 0 0 0-.1.2h-.1a3.3 3.3 0 0 0 0 1.6c.1.1.2.2.2.3h.2a.9.9 0 0 0 .8.4h.3a1.5 1.5 0 0 0 .6-.5 2.1 2.1 0 0 0 .4-.6v-.5a1.5 1.5 0 0 0-.4-1.1c0-.1 0-.2-.1-.2l-.6-.2h-.2a1.4 1.4 0 0 0-1 .5" fill="#fbc219"/>
  <path d="M66.2 49.2l.5-.2.3.2c.2.1.2.3.2.5s0 .4-.2.5-.2.2-.3.2a.6.6 0 0 1-.5-.2 1.3 1.3 0 0 1 0-1z" fill="#d41111"/>
  <path d="M42.6 82.8h-1.2l.9 6.5 4.5 2.4h1.6a1.7 1.7 0 0 0 1.1-.4 1.7 1.7 0 0 0 .4-1.2 5 5 0 0 1-4.9-.2 1 1 0 0 1-.6-.5 12.9 12.9 0 0 1-1.8-6.6" fill="#fff"/>
  <path d="M43.9 82.8c0-.2-.1-.2-.3-.1h-1a12.9 12.9 0 0 0 1.8 6.6 1 1 0 0 0 .6.5 5 5 0 0 0 4.9.2l-1.6-.5h-.1a6.4 6.4 0 0 1-2.2-1.3l-1.5-1.6-.2-1c-.3-1.8-.4-2.7-.4-2.8" fill="#fff"/>
  <path d="M38.9 82.3h-.1a9.5 9.5 0 0 1 1.3 3.3 6.6 6.6 0 0 1 .3 2.4.4.4 0 0 0-.1.3 4.1 4.1 0 0 0 .1 1.1.6.6 0 0 0 .1.4h.2l2.1.3.5.4h.4l.9.4a5.5 5.5 0 0 0 2.2.6l-4.5-2.4-.9-6.5a6.1 6.1 0 0 1-2.4-.4c0 .2-.1.2-.1.1z" fill="#ccc"/>
  <path d="M38.3 62.4a5.9 5.9 0 0 0-.2 1.4 25.7 25.7 0 0 0 4.8.1 5.2 5.2 0 0 1 .2-1.1l-4.8-.4M43.5 55.3h-1l-.4 6.4h1.2c.2-.7.3-1.3.5-2a41.3 41.3 0 0 1 1.7-4.5h-2M26.3 65.5a19.3 19.3 0 0 0-.4 2.7 32.2 32.2 0 0 0 9.3 9.1c.1 0 .2.1.2.3l2.4.2a9.8 9.8 0 0 1 .1-3.8h-.1v-1l-.5-.3-1.8-1.1h-.4a11.1 11.1 0 0 1-5.1-1.8 10.4 10.4 0 0 1-3.8-4.3M32.3 52.7a1.4 1.4 0 0 0-.2 1.1l4.2.6.3-.6h-.8a14 14 0 0 1-3.5-1M32.4 54.5h-.3A20.3 20.3 0 0 0 31 57l-.9 1.9a5 5 0 0 0-.5.7l.7.2 1.8.6a15.8 15.8 0 0 0 3.3-4.8 1.3 1.3 0 0 0 .1-.6 10.4 10.4 0 0 1-2.9-.5h-.2M31.6 42.7a5.7 5.7 0 0 1-1.3.8l-1.4.3-.7-.2c.8.9 1.4 1.8 2.1 2.7a8.5 8.5 0 0 1 1.2 2.6c.3.7.6 1.6 1.2 2.8v.2l1 .4a4.5 4.5 0 0 1-.3-1.1 27 27 0 0 0-1.9-8.5M33.3 35.9h.1a1.5 1.5 0 0 0 .5.6 13.8 13.8 0 0 0 2.2 1.3l1.2-1.8-.8-.6a1.8 1.8 0 0 1-.8-1.4 8.7 8.7 0 0 1-2.7 1.5l.3.3M43.9 38l-.4.3 1.5 9.9a2.1 2.1 0 0 0 .4-.6 2.1 2.1 0 0 0 .4-.6l.5-.4.6-.9c.1-.1.2-.3.4-.4l.8-.8v-1.4a30.3 30.3 0 0 0-1.1-6.6.1.1 0 0 1-.1-.1l-1.2-.7a8.4 8.4 0 0 1-1.8 2.3M40.9 35.7l.9 2.3.8-.3.5-.3a4.9 4.9 0 0 0 1.8-2h-.5l-3-.4a.8.8 0 0 1-.5.7" fill="#d09b07"/>
  <path d="M71.3 48.8h-.5a11.1 11.1 0 0 1-.2 1.7l2.2.4.9.3a8 8 0 0 1 1.6.8l.5.3.6-.5v-1.2l-.7-.3-.9-.4h-.1l-1.1-.4z" fill="gray"/>
  <path d="M44.4 51.5h.2a.3.3 0 0 0 .1.2V53l.9.7c.1 0 .1.1.2.2a2.1 2.1 0 0 0 .6-1v-.5a1.7 1.7 0 0 0-.1-.7.5.5 0 0 1-.2-.4H46c0-.1 0-.2-.1-.2a1.5 1.5 0 0 0-1-.7l-.5-.3a2.1 2.1 0 0 0-1.3.3l-.5.3h-.1c-.3.2-.5.4-.5.6a.4.4 0 0 0 0 .5l.3.2h.3a1.5 1.5 0 0 1 .6-.4l.7-.3h.5M26.5 32.2h-.1l-.2-.2-.5-.4-1.3-.7h-.9l-.2.2v.5l-.3.4a.8.8 0 0 0 .1.4c0 .1.1.2.2.3l-.3.4v.3l.3.5v.5c0 .2.1.3.1.5h.3l.6.2h1c.2-.1.3-.1.3-.2s.1-.1.1-.2v-.2h.1a.1.1 0 0 0 .1-.1.5.5 0 0 0 .1-.6l.3-.3V33a.1.1 0 0 0 .1-.1c.2-.1.2-.2.2-.4v-.2M29.6 33a1.6 1.6 0 0 0-.3-.9c-.3-.2-.5-.5-.8-.6a.1.1 0 0 0-.1-.1H27l-.3.4v.2l.3.4a.1.1 0 0 0 .1.1h.1l.4.3c.1.1.3.2.3.3a1.1 1.1 0 0 1 0 .8v.8l.6.6c.1 0 .2 0 .2.1h.4l.5-.7v-.2a2.4 2.4 0 0 0 0-1.2M38.2 24.8h-.6a4 4 0 0 0-.7 2.4 2.8 2.8 0 0 1-.8 2.1h-.7L35 29v.8a.9.9 0 0 0 .6.6h.4l.2 1.1a3.4 3.4 0 0 1-.2 1.4.8.8 0 0 1-.2.4 1.8 1.8 0 0 0 .8 1.4l.8.6h.1a2.9 2.9 0 0 0 1.7.3l1.7-.6h.1a.8.8 0 0 0 .5-.7c-.1-.3-.1-.6-.2-.9l.5-.4.4-.4a1.8 1.8 0 0 0 .5-.8c.1-.2.1-.4.2-.4l.4-.2c.2-.3.4-.3.4-.5s-.3.2-.2 0-.3.1-.5.1l.5-1a4.4 4.4 0 0 0-.2-2v-.6c.1-.1 0-.3 0-.6s-.1-.3-.1-.5v-.5a2.8 2.8 0 0 1-.1-.6 12.1 12.1 0 0 0-4.9-.7M42.4 28.6h-.2M42 53.6a1.3 1.3 0 0 0 .7.6h.1a2.5 2.5 0 0 0 1.9.1.1.1 0 0 1-.1-.1l-.6-.7h-.8l-.8-.4c-.3 0-.4.1-.4.3z" fill="#f3bc84"/>
  <path d="M32.1 60.4l-1.8-.6-.7-.2-.3.5a9.9 9.9 0 0 0 2.3 1 49.8 49.8 0 0 0 6.7 1.3l4.8.4a3.6 3.6 0 0 1 .2-1.1h-1.2l.4-6.4h-2.3l-.3 6.2h-.4l-1.4-.2.2-6.1-2.2-.2-.4 6a22.5 22.5 0 0 1-3.6-.6m-2.5 2.7h.1l2.8.7 3.7.6 1.7.2h4.9a2.2 2.2 0 0 1 .1-.8 25.7 25.7 0 0 1-4.8-.1 39 39 0 0 1-9.7-2.1l.4-.7h-2.1c-.1.3-.1.6-.2.9a15 15 0 0 0 .8 3.2 12 12 0 0 0 1.6 2.7 6.3 6.3 0 0 0 2.6 1.9 9.2 9.2 0 0 0 2.3.9h.6a12.9 12.9 0 0 1-1.6-1.5 6.1 6.1 0 0 1-2.6-1.9 17.5 17.5 0 0 1-1.8-2.9c-.1-.3-.3-.5-.4-.8v-.5l.2-.5a5.2 5.2 0 0 0 1.5.7m-5.8-1.4l-.3 1.1a10.5 10.5 0 0 0-.4 1.7 39.9 39.9 0 0 0-.2 15.4 79.6 79.6 0 0 0 15.6 1.2c-.2-.7-.3-1.3-.5-2v-.4h-2a102.9 102.9 0 0 1-10.7-.9 41.1 41.1 0 0 1 .6-13.6v-.4a7.1 7.1 0 0 1-.2-2.5h-.7l-1 .4m6.1-27.3c0-.1-.1-.1-.2-.1h-.1v.2l-.5.7h.4a1.4 1.4 0 0 1 .9 1.6l-.7.4h-.2a7 7 0 0 1-2.1.4 8.9 8.9 0 0 1-2.8-.1h-.2l.2.5.4.7a1.7 1.7 0 0 0 .5 1.8l.4.4a3.4 3.4 0 0 0 1 1.9l.9.5h.4l.7.2 1.4-.3a5.7 5.7 0 0 0 1.3-.8 3.9 3.9 0 0 0 .8-1 4.8 4.8 0 0 0 .4-2.6 7.7 7.7 0 0 0-1-2.5.1.1 0 0 1-.1-.1.1.1 0 0 0-.1-.1.4.4 0 0 1-.1-.3v-.2h-.3c0-.1-.1-.2-.1-.3a2 2 0 0 0-1.1-1.1m-5.5-6.9a1.1 1.1 0 0 0-1 .1v.7l-.2-.6-.3-.2a.4.4 0 0 0-.6 0 3.3 3.3 0 0 0 0 1.4l.3.7a4.7 4.7 0 0 0 .9 1.2h.9l1.3.7.5.4.2.2h.1c0 .1.1.2 0 .2h.6a.1.1 0 0 1-.1-.1l-.3-.4v-.2l.3-.4h1.4a5.2 5.2 0 0 0 2.2-3.1c.1-.4 0-.7-.2-.8s-.4.1-.5.4l-.4.4v-.2c0-.1-.1-.3-.1-.4a.5.5 0 0 0-.4-.2h-.7a1.9 1.9 0 0 0-.5.9l-.4-.4a1.1 1.1 0 0 0-1.1-.3l-.5.3a1.9 1.9 0 0 0-.5.9l-.2-.8-.6-.2m22.6 9a30.3 30.3 0 0 1 1.1 6.6v1.4l-.8.8c-.2.1-.3.3-.4.4l-.6.9-.5.4a2.1 2.1 0 0 1-.4.6 2.1 2.1 0 0 1-.4.6l-.2.2a2.1 2.1 0 0 1-.4.6 1.1 1.1 0 0 0 0 1.1l.5.3a1.5 1.5 0 0 1 1 .7c.1 0 .1.1.1.2h.1a.5.5 0 0 0 .2.4 1.7 1.7 0 0 1 .1.7l.2-.3c.2-.4.5-.7.6-.9a9 9 0 0 0 1.5-1.9l.3-.7 1.5-2.3h-1.6a7.5 7.5 0 0 1 1.1-1.3l.9-.5a5.8 5.8 0 0 0-.9-3c-.6-1.1-1-2-1.4-2.6l-.3-.6a7.9 7.9 0 0 0-1.8-1.8m-4.4 1.2l-.8.3-1.5.4-.2 14.6h3.4l.9-1.4h-.5l-.7.3a1.5 1.5 0 0 0-.6.4h-.3l-.3-.2a.4.4 0 0 1 0-.5c0-.2.2-.4.5-.6h.1V38m5.8-10.1a.1.1 0 0 1 .1-.1 3.9 3.9 0 0 0 .8-1 6 6 0 0 0 .1-2v-.4c0-.1-.1-.2-.1-.3a2.1 2.1 0 0 0-.5-1.3l-1-.9-.8-.4-.3-.3-1-.3a6.5 6.5 0 0 0-2.4.2h-.4l-.6.4a6.9 6.9 0 0 1 1 2.1v1.2l.4.2.2.4.5.2h.4l.2-.2c0 .1-.1.2-.1.3v.9l.2.4c.2.1.3.3.6.4l.5.2.3.2h.2c0 .1.2.2.3.3l1.3-.6m-9.4 11l-2.1-.3h-.3a3.8 3.8 0 0 0 .1 1 93.2 93.2 0 0 1-.7 13.7l2.2.2h.2z" fill="#325723"/>
  <path d="M38.5 25l.2-.2a11.8 11.8 0 0 0-4.6.9l-.3.2c-.2.9-.3 1.7-.5 2.6s-.1.8-.1 1.2a2.7 2.7 0 0 0 1 1.9h.1l.4.3h1.4l-.2-1.1h-.4a.9.9 0 0 1-.6-.6l.3-.3.2-.2h.7a2.8 2.8 0 0 0 .8-2.1 2.3 2.3 0 0 1 .5-1.8v-.2h.8s.3-.5.3-.6z" fill="#a67c52"/>
  <path d="M66.7 49l.3.2c.2.1.2.3.2.5s0 .4-.2.5-.2.2-.3.2a.6.6 0 0 1-.5-.2 1.3 1.3 0 0 1 0-1zM65.7 61.6h.3a.5.5 0 0 1 0 .6l-.3.2-.3-.2c0-.1-.1-.2-.1-.3s.1-.2.1-.3z" fill="none" stroke="#000" stroke-linecap="round" stroke-linejoin="round" stroke-width=".4"/>
  <path d="M64.7 62h-1.6l-3.1-.3h-.1A13.7 13.7 0 0 1 57 61l-2-.8-1-.5a21.1 21.1 0 0 1-3-1.6c-.9-.5-1.6-1.1-2.4-1.6s-.3-.2-.4-.4l-.6-.4a14.9 14.9 0 0 1-1.8-1.7c-.1-.1-.1-.2-.2-.2l-.9-.7v-1a.3.3 0 0 1-.1-.2h-.2l-.9 1.4 2 2.3 3.5 2.3.4.4h.1l.3.3.5.3 2.6 1.5 2.1 1.1 1.1.5 3.1 1 .7.2H62l2.4-.2.6-.2h-.1c-.2-.2-.2-.5-.2-.9" fill="#b3b3b3"/>
  <path d="M38.7 20.1s2.1.3 2.4 4.9l2.2.5a4.3 4.3 0 0 0-1-4.2c-1.8-2-3.6-1.2-3.6-1.2z" fill="#980805"/>
  <path d="M31.3 21.9c0 .1-1.8 2.8-1.8 2.8a6.7 6.7 0 0 1 1.3 2.5 2.4 2.4 0 0 1 0 1.2 5.7 5.7 0 0 1-2.3 3h.2a4.6 4.6 0 0 1 .7.7 1.2 1.2 0 0 1 .3.9 2.1 2.1 0 0 1 0 1.1h.1c.1 0 .2 0 .2.1a2.3 2.3 0 0 1 1.1 1.1.4.4 0 0 1 .1.3h1.2l.8-.2a7.3 7.3 0 0 0 2.6-1.4.5.5 0 0 0 .2-.4 2.1 2.1 0 0 0 .2-1.3h-1.1a.1.1 0 0 1-.1-.1h-.2l-.4-.3a3 3 0 0 1-1-2.1 3.7 3.7 0 0 1 .1-1.1c.1-.9.3-1.8.4-2.7v-.7c.5-4.5 3-6.1 7.3-4.7l1.1.8.7-.4h.3a10.1 10.1 0 0 1 2.4-.2l1 .4.3.3.8.3 1 .9a2.1 2.1 0 0 1 .5 1.3.4.4 0 0 1 .1.3v.4a4.2 4.2 0 0 1-.1 2 2 2 0 0 1-.8 1 .1.1 0 0 0-.1.1l-1.3.6-.3-.3h-.1l-.4-.2-.5-.2-.6-.4a.5.5 0 0 1-.2-.4v-1.4h-.6c-.2 0-.3-.1-.5-.3l-.2-.4-.4-.2v.7H43" fill="none" stroke="#000" stroke-linecap="round" stroke-linejoin="round" stroke-width=".4"/>
  <path d="M41.5 34.9l3 .4h.5l.8.3 1.2.7a.1.1 0 0 0 .1.1 10.2 10.2 0 0 1 1.8 1.9l.4.6 1.4 2.6a6.7 6.7 0 0 1 .8 3l2.2-1.4a8.2 8.2 0 0 1 3.6-1.5h.8l-1.2-.6a3.9 3.9 0 0 1 2.8-.3 1.5 1.5 0 0 0 1.3-.2 8.2 8.2 0 0 1 5.3.3 20.3 20.3 0 0 1 4.3.7l.7.3h.1l1.4-.9V44l.7.3a5.9 5.9 0 0 1 3-2.6l.6-.2a12.1 12.1 0 0 1 0 3.8c-.1.2-.1.5-.2.7a3.5 3.5 0 0 1 1.1 2.3v.7a3.4 3.4 0 0 0 1.9 1.3 4.3 4.3 0 0 1-3.5-.3v1.9l-.6.4v.2h-.1a.7.7 0 0 0-.1.5v1.1c0 .2 0 .3-.1.4 0 .1-.1.1-.1.2l-.7.8-.3.6a5.5 5.5 0 0 0-.8 1.5c-.1.2-.1.5-.2.7a6.8 6.8 0 0 0-.2 1.4c0 .1-.1.2-.1.3-.1 0-.1.1-.1.2a.1.1 0 0 1-.1.1v.2a1 1 0 0 1 .4.5v1.2l-.3.2h-.1c.1 2.4-.2 4-1 4.6a9.5 9.5 0 0 1-1.7 1.3l-1.4-.3-1.1.6h-.2l-.5.4a7.8 7.8 0 0 1-2.7-2.4.9.9 0 0 1-.2-1.2l.3-.7v-.3c0-.4.1-.8.1-1.3l-2.4.2H60a3.1 3.1 0 0 0 .3 2.3l.4 1h.1c.1.1.1.1.1.2l.4.5a1.9 1.9 0 0 1 .5.9c.1.2.2.3.2.5v1.2l1 2.1a11.9 11.9 0 0 1 .7 2.7 12.4 12.4 0 0 1 .3 2.7 15.3 15.3 0 0 1-.3 3v.2a6.1 6.1 0 0 0 1.9 2 6.6 6.6 0 0 1 1.8 1.4 12.6 12.6 0 0 1 2 2l.6.7.3.2 3.7 2.8a1.4 1.4 0 0 1 .2.6 4.2 4.2 0 0 1-.2 3.3l-.7 7.2c0 .5-.1 1.1-.1 1.6a7.3 7.3 0 0 1-.8 2.5l-.3 1.3-.3.4h-.2l-.5.3v.3l-.7 1.2c-.1.1-.1.3-.2.4a10.1 10.1 0 0 1-1.2 1.4 3.1 3.1 0 0 1-1.6-1.6 5.4 5.4 0 0 1-.4-2.2 8.4 8.4 0 0 1 .5-1.7l.3-.4h1.3l.3-.3-.5-.4a1.7 1.7 0 0 1 .3-1.3 10.9 10.9 0 0 0 1.8-5.8 11.8 11.8 0 0 0-.2-2.7l-2-1.8-1.2-.4-2.3-.9a9.6 9.6 0 0 1-2.5-1.2l-1-.6a5.9 5.9 0 0 0-2.6-1 3.1 3.1 0 0 1-1.8.7l-1.1.4-1.8.5c-.6.3-1 .3-1.1.1l-1 .3c-.1.5-.1 1-.2 1.5a28.3 28.3 0 0 0 .4 8.7 7 7 0 0 1 1.4 2.7c0 .2.1.5.1.8v.2c0 .2.1.3.1.5a18.1 18.1 0 0 0 .5 3.1c.2.5.3 1 .5 1.5a36.2 36.2 0 0 0 1.3 3.5l.9 1.5c.2.4.4.3.5.7h17.2l5.7 10H15.5l-5.2-10h5.2c-.1-.5 0-.2.2-1l.9-.5-.2-.5h-.6a1.9 1.9 0 0 1-.4-1.2c.1-.4.2-1.1.4-1.8a17.6 17.6 0 0 0 .2-1.9c.1-.5.1-1 .2-1.5v-2.4a4.9 4.9 0 0 0-.1-1.2l-.7-.8-.2-.2h-.1c0-.2-.1-.3-.2-.5v-.6a.8.8 0 0 1 .1-.4 11.8 11.8 0 0 0 .3-2.1 24.5 24.5 0 0 0 .2-2.7.6.6 0 0 0 .1-.4 14.3 14.3 0 0 0 .7-2.8A4.8 4.8 0 0 0 16 89l-.5 1.1a4.6 4.6 0 0 1-.3 2.6l-.8 1.5a1.6 1.6 0 0 0-.3.9 11.4 11.4 0 0 1 .6 2.5 1.1 1.1 0 0 1 0 .8 1.4 1.4 0 0 1-.5.9l-.5-1-.4-.2a4.7 4.7 0 0 1-.3 2.3l-.2.2-.6.9c0 .1-.1.1-.1.2v.4l.5.7H12a4.2 4.2 0 0 1-.8-1.2 3.2 3.2 0 0 1-.4-1.6v-.4a7.8 7.8 0 0 1-1.6-2.4 2.8 2.8 0 0 1-.1-.9 10.5 10.5 0 0 1 .6-2.4l.5-1c0-.9-.1-1.8-.1-2.7a4.8 4.8 0 0 0-.7-2.6.5.5 0 0 1-.2-.4l-.2-.3a7.8 7.8 0 0 1-1.1-1.8 8.3 8.3 0 0 0-.7-1.3 5.6 5.6 0 0 1-.4-1.2 11.6 11.6 0 0 1-.4-1.8c0-.5-.1-1.1-.1-1.7a17 17 0 0 1 .1-2.2c0-.6.1-1.3.1-1.9a7.8 7.8 0 0 1 .2-1.6 16.2 16.2 0 0 1 .4-1.9 6.7 6.7 0 0 1 .7-1.8l.3-.5.5-.7 2.8-3.6.4-.4a7.1 7.1 0 0 1 5-1.9 4.9 4.9 0 0 1 2.9.6l1.5-.7.6-.2h.2l1-.3h.1l.8-.2 1.1-.3.6-.2 1.2-.2h2.1l.5-.9.3-.5a5 5 0 0 1 .5-.7 6.7 6.7 0 0 0 .9-1.9c.4-.9.7-1.8 1.1-2.6V54a2.2 2.2 0 0 1 .2-1.1 3.5 3.5 0 0 1 .5-.8v-.2a15.6 15.6 0 0 1-1.1-2.8 12.6 12.6 0 0 0-1.3-2.6 24.7 24.7 0 0 0-2.1-2.7H28l-1-.8a3.6 3.6 0 0 1-1-1.9l-.4-.4a1.5 1.5 0 0 1-.4-1.8l-.5-.6-.2-.6a4.3 4.3 0 0 1-2.1-.5c-.3-.3-.4-.6-.3-.8a1.2 1.2 0 0 1 .6-.9l1.2-.5c0-.1-.1-.1-.2-.1s-.2-.3-.2-.5v-.5l-.3-.5V33l.3-.4-.2-.3a.8.8 0 0 1-.1-.4l.3-.3v-.5l.2-.3a4.7 4.7 0 0 1-.9-1.2l-.3-.7a3.3 3.3 0 0 1 0-1.4l.4-1a6.4 6.4 0 0 1 1.3-1.9L22.5 22" fill="none" stroke="#000" stroke-linecap="round" stroke-linejoin="round" stroke-width=".4"/>
  <path d="M76.8 46l-1-.6-2.4-1.1M71.3 41.8l-.7.9-1 1.3a12.7 12.7 0 0 1-2.8 2.3l.2 2 .6.2 2.4.2h1.4l2.4.7 1 .3a.1.1 0 0 1 .1.1l.9.3.7.3" fill="none" stroke="#000" stroke-linecap="round" stroke-linejoin="round" stroke-width=".4"/>
  <path d="M72.7 44l-.3 1.7c1.1 1.1 2.2 2.4 3.3 3.6a.3.3 0 0 0 .1.2l.6.5M75.9 52.3l-.5-.3a8 8 0 0 0-1.6-.8l-.9-.3-2.2-.4-2.6-.2a3.3 3.3 0 0 1-.3.6 1.8 1.8 0 0 1-.7.5 40.2 40.2 0 0 0-.6 5c-.1 1.5-.1 3-.1 4.5a4.4 4.4 0 0 1 3.9-1l.8.2 1.8.7" fill="none" stroke="#000" stroke-linecap="round" stroke-linejoin="round" stroke-width=".4"/>
  <path d="M73.4 58.5a25 25 0 0 1 .7-2.6c.2-.4.3-.8.5-1.3a7.7 7.7 0 0 0 .2-1.5M48.4 23.5l1 .6h.1M43.5 24.8v-1.3a5.9 5.9 0 0 0-1-2.1M45.5 20.7a2 2 0 0 1 .6.7 5.4 5.4 0 0 1 0 1.8c0 .1-.1.1-.1.2l-.6.8M47.3 25.6c.1-.3 0-.3.1-.7a1.9 1.9 0 0 0 .1-.8.4.4 0 0 1 .1-.3l-.3-2.1c-.1-.1-.1-.3-.2-.4M48.6 27.5l.3-1c0-.1.1-.1.1-.2s-.1-.4-.1-.7a.7.7 0 0 0-.1-.5M45.3 27a.5.5 0 0 0 .7-.3c.2-.3.3-.4.3-.5a.8.8 0 0 1 .2-.4v-.2M47.4 26.5a.6.6 0 0 1-.1.4 4.1 4.1 0 0 0-.5.9M46.5 24.3a2.2 2.2 0 0 1-1.3 1.2M40.4 38.4l1.5-.4.8-.3.5-.3a4.9 4.9 0 0 0 1.8-2" fill="none" stroke="#000" stroke-linecap="round" stroke-linejoin="round" stroke-width=".4"/>
  <path d="M42.7 37.7v1l.9-.4.4-.3a5.8 5.8 0 0 0 1.8-2.3M47.1 36.5a30.3 30.3 0 0 1 1.1 6.6v1.4c.1-.2.3-.3.4-.4a1 1 0 0 1 1-.3 1.9 1.9 0 0 1 1 .3M48.2 44.5l-.8.8c-.2.1-.3.3-.4.4l-.6.9a3.8 3.8 0 0 1 2.2.1M46.4 46.6l-.5.4-.3.6a2.1 2.1 0 0 0-.4.6c-.1.1-.2.1-.2.2l-.5.6a1.3 1.3 0 0 0 0 1.2l.6.2a2.2 2.2 0 0 1 .9.7h.1c0 .1 0 .1.1.2l.2.5h.1v.7c.1-.1.1-.2.2-.2l.6-1a1.8 1.8 0 0 0-1-1.5l-.5-.2M40.2 53h3.4l.9-1.5c-.2 0-.3-.1-.5 0a1.2 1.2 0 0 0-.7.2 1.5 1.5 0 0 0-.6.4h-.2l-.4-.2v-.4c0-.3.2-.5.5-.7h.1v-12" fill="none" stroke="#000" stroke-linecap="round" stroke-linejoin="round" stroke-width=".4"/>
  <path d="M44.5 50.2a2.1 2.1 0 0 0-1.3.2l-.5.3M40.2 53l.8.9-1.3 1.2h5.9l-.2-.2c-.1 0-.1 0-.1-.1l-.3-.3-.2-.2a2.5 2.5 0 0 1-1.9-.1 1.6 1.6 0 0 1-.8-.6c0-.2.1-.2.4-.3l.8.4h.8l-.3-.6h-.2M64.5 63.1h.6a1.2 1.2 0 0 1-.3-.9h-1.6l-3-.2H60a8.2 8.2 0 0 1-2.8-.7l-2-.8-1.1-.4-3-1.7-2.4-1.6-.4-.3-.6-.5a9.8 9.8 0 0 1-1.8-2 .2.2 0 0 0-.2-.2c-.3-.1-.5-.4-.8-.7v-.5c-.1 0-.1-.1-.1-.2v-.3a.4.4 0 0 0-.1-.3h-.2" fill="none" stroke="#000" stroke-linecap="round" stroke-linejoin="round" stroke-width=".4"/>
  <path d="M49 50.8a3.9 3.9 0 0 1-1 2.7.8.8 0 0 0-.2.5v.2a.9.9 0 0 1 .1.5.4.4 0 0 0-.1-.3V54a4.7 4.7 0 0 1 .6-3.3c.1-.4.3-.8.4-1.2a8.4 8.4 0 0 1-1.5 1.8M46.5 52.5v.6a2.6 2.6 0 0 0 .2 1.1M51.8 45.9a2.1 2.1 0 0 1-1.2.5l-1.5 2.3-.3.8" fill="none" stroke="#000" stroke-linecap="round" stroke-linejoin="round" stroke-width=".4"/>
  <path d="M51.5 44.6l-.8.5a7.7 7.7 0 0 0-1.2 1.3h1.1M48.7 56.5l.4-.6a12.3 12.3 0 0 1 3.1-3.7c.1-.1.2-.2.2-.3l.6-2.1" fill="none" stroke="#000" stroke-linecap="round" stroke-linejoin="round" stroke-width=".4"/>
  <path d="M52.4 51.9v1.6c.9-1.3 1.9-2.4 2.8-3.6a2 2 0 0 0 .6-.9l.4-2.2M55.8 49v1.3l1.9-3.6c.1-.2.1-.4.2-.5l-.2.6.7-.4.7-.6 1.4-1.1-.8 1.3.4-.2h.1l3-.5a.1.1 0 0 1-.1.1l-.7.9c-.1 0-.1.1-.1.2l.4-.3h.5l2.2-.6.9-.4-.5.5-.3.2-1.4.9h2.1l.6-.2M72 42a5.5 5.5 0 0 0-1.8 3.2c0 .2-.1.4-.1.6l.7.6a.4.4 0 0 1 .1-.3 2 2 0 0 1 .3-1.1l.7-1.3zM64.8 61.9a.9.9 0 0 1 .3-.7.2.2 0 0 1 .2-.2h.1a28 28 0 0 1-.1-5 24.1 24.1 0 0 1 .7-4.8c-.1-.1-.1-.1-.1-.2l-.3-.3-.5.2a4.2 4.2 0 0 0-1.8 1.1 1.7 1.7 0 0 0-.6.6L61.6 54h-.1a14.8 14.8 0 0 0 .1 2.1 4.9 4.9 0 0 0 .6 1.7 20 20 0 0 1 1 2.1 3.1 3.1 0 0 0 .6 1.3l.3.5" fill="none" stroke="#000" stroke-linecap="round" stroke-linejoin="round" stroke-width=".4"/>
  <path d="M65.6 50.6a1.9 1.9 0 0 1-.1-.8 1.1 1.1 0 0 1 .2-.8l-1 .5a4.5 4.5 0 0 0-1.3 1 4.8 4.8 0 0 0-1.4 2l-.4 1.5M71.6 46.9c.1-.1.2-.2.2-.3l.6-.9M65.3 46.7v.6l.5 1.6.2-.2a1.1 1.1 0 0 1 .9-.5h.1M68.1 50.3v-.5a2 2 0 0 0-.3-1.1l-.2-.2M67.1 51.4h-.3a1.1 1.1 0 0 1-.8-.3M38.2 24.9h.1a9.9 9.9 0 0 0-4.1 1h-.3M24.1 24.6a13.9 13.9 0 0 0 5.4.2M23.6 30.8h.8l1.1.6a4.2 4.2 0 0 1 1.2 1.1l-.2.4h-.2v.4a1.2 1.2 0 0 0 1.3-.1v-.7l-.4-.3a.7.7 0 0 1-.3-1.2c.6-.8 2.2.9 2.4 1.1" fill="none" stroke="#000" stroke-linecap="round" stroke-linejoin="round" stroke-width=".4"/>
  <path d="M26.3 33h-1.1l-.7-.3-.6-.5-.4-.4M23.5 32.6l1 .8.4.2h1.2l.3-.3M23.5 33.8l.2.2a2.8 2.8 0 0 0 1.8.6h.5c.1 0 .1 0 .1-.1a.5.5 0 0 0 .1-.6h-.1" fill="none" stroke="#000" stroke-linecap="round" stroke-linejoin="round" stroke-width=".4"/>
  <path d="M28.2 35.6a3.3 3.3 0 0 1-1.7.2c-.5 0-.8 0-.9-.2a.4.4 0 0 1-.1-.3h-1l-.6.2c-.1.4.1.7.7.9a9 9 0 0 0 2.5.2c1.1-.1 1.8-.3 2-.7v-.3H29a.2.2 0 0 0-.2-.2h-.2a1.3 1.3 0 0 1-.7-.6v-.3a.7.7 0 0 1 .1-.5v-1a.8.8 0 0 0-.4-.4" fill="none" stroke="#000" stroke-linecap="round" stroke-linejoin="round" stroke-width=".4"/>
  <path d="M29.7 34.2v.2l-.5.7h-.1l.5.2a1.3 1.3 0 0 1 .9 1.5l-.7.4c0 .1-.1.1-.2.1a4.6 4.6 0 0 1-2 .4 14.1 14.1 0 0 1-2.9 0h-.2M24.5 35.2a1.1 1.1 0 0 0-.6-.2M38.8 53.1l.8-.8.6.7M35.8 34.1a1.7 1.7 0 0 0 .9 1.4l.7.6h.1a2.9 2.9 0 0 0 1.7.3l1.7-.6h.1a.8.8 0 0 0 .5-.7M32.4 35.7l.6 1 1 1 1.7 1.1h.2l.7.2v-1h-.4a7.6 7.6 0 0 1-2.2-1.4h-.1a7.6 7.6 0 0 0-.8-1.1" fill="none" stroke="#000" stroke-linecap="round" stroke-linejoin="round" stroke-width=".4"/>
  <path d="M39 38.5l-2.1-.3h-.3M28.3 43.6l.7.2 1.5-.3a4.7 4.7 0 0 0 1.2-.7l.9-1.1a4.6 4.6 0 0 0 .3-2.6 6.4 6.4 0 0 0-1-2.4.3.3 0 0 0-.1-.2v.2a4.5 4.5 0 0 1 .4 2.8 4 4 0 0 1-.8 2.3.1.1 0 0 1-.1.1l-.7.9M31.8 36.5h-.1a.4.4 0 0 1-.1-.3V36h.1a.1.1 0 0 1 .1-.1" fill="none" stroke="#000" stroke-linecap="round" stroke-linejoin="round" stroke-width=".4"/>
  <path d="M31.2 35.8v.9l.2.6a4.3 4.3 0 0 0 .1.5 1.6 1.6 0 0 1-.2 1.5 4.1 4.1 0 0 1-1.9 2l-1 .2a2.7 2.7 0 0 1-2.3-.4 2.9 2.9 0 0 0 2.5 1.3 4.9 4.9 0 0 0 2.5-1l.5-.4" fill="none" stroke="#000" stroke-linecap="round" stroke-linejoin="round" stroke-width=".4"/>
  <path d="M31.2 36.7l-.3.6a3.1 3.1 0 0 1-.5 1 4.7 4.7 0 0 1-1.3 1.1 3.7 3.7 0 0 1-3.1.2 2.7 2.7 0 0 1-.8-.7M29.1 35.2h-.3M25.6 35.2a.2.2 0 0 0 .2-.2c.1 0 .1-.1.1-.2v-.2M26.1 41.1H26M38.5 53.1h-.3l-2.2-.3a5.8 5.8 0 0 1-1.9-.3l-1.2-.6M36 52.8a92.6 92.6 0 0 0 .6-13.7M39.7 55.2l-.4.4-.2-.3h-.7v6.1l1.3.2h.3l.3-6.2M38.8 53.1l-.9.9 1.1 1.2M29.7 59.6l.7.2 1.8.6a22.5 22.5 0 0 0 3.6.6l.4-6h-.5a15.4 15.4 0 0 1-3-.4h-.5M35.8 61l2.5.3" fill="none" stroke="#000" stroke-linecap="round" stroke-linejoin="round" stroke-width=".4"/>
  <path d="M25.5 61.2s.3 4.8 3.1 7.5a13.6 13.6 0 0 0 6.7 2.9l-.9-.9s-5-1.7-6.2-3.9a20.5 20.5 0 0 1-1.5-5.8z" fill="#325723"/>
  <path d="M38.4 55.2l-2.2-.2M32.3 54.4l-.1-.1M25.6 61.2a6.9 6.9 0 0 0 .2 2.5c0 .2.1.3.1.4a3.6 3.6 0 0 0 .4 1.1v.2a9.9 9.9 0 0 0 3.8 4.3 11.6 11.6 0 0 0 5.1 1.8h.4l-.4-.2-.8-.6h-.6a10.9 10.9 0 0 1-2.3-.9 6.1 6.1 0 0 1-2.5-2 11.7 11.7 0 0 1-1.5-2.7 8.4 8.4 0 0 1-.8-3.1 3.1 3.1 0 0 1 .1-1" fill="none" stroke="#000" stroke-linecap="round" stroke-linejoin="round" stroke-width=".4"/>
  <path d="M30.4 64.6l-.6-1.5h-.1l-1.1-.4a14.5 14.5 0 0 0 1.5 3.6 9 9 0 0 0 2.8 2.7 14.3 14.3 0 0 1-1.4-2l-1.1-2.2M28.9 61l-.4.7a39 39 0 0 0 9.7 2.1 38.5 38.5 0 0 0 4.8.2 5 5 0 0 1 .2-1.2l-4.7-.4a51.8 51.8 0 0 1-6.8-1.3 9.9 9.9 0 0 1-2.3-1" fill="none" stroke="#000" stroke-linecap="round" stroke-linejoin="round" stroke-width=".4"/>
  <path d="M28.5 61.7l-.4.7.6.4M32.9 69a12.9 12.9 0 0 0 1.6 1.7M26.4 65.5a19.3 19.3 0 0 0-.4 2.7 52.8 52.8 0 0 0 .3 8.6l11.6 1A9.8 9.8 0 0 1 38 74h-.1v-1l-2.3-1.4M29.8 63.1l2.9.7 3.7.7h6.5c0-.2.1-.5.1-.7" fill="none" stroke="#000" stroke-linecap="round" stroke-linejoin="round" stroke-width=".4"/>
  <path d="M23.1 61.9l-.3 1.2a7.5 7.5 0 0 0-.4 1.6 35.4 35.4 0 0 0 .1 16.5l8.8.7 7.6.4h.1l-.3-1.2A80 80 0 0 1 23 79.9a42 42 0 0 1 .2-15.4c.1-.5.3-1.1.4-1.7l.3-1.1M16 89l-1.2-2.3c-.1-.2-.1-.4-.2-.6L14 85a6.5 6.5 0 0 1-.4-1.3c-.2-.4-.3-.9-.5-1.3s-.3-1-.4-1.6l-.3-.9c0-.2-.1-.4-.1-.7l-.3-1.5a12.1 12.1 0 0 1-.1-1.9V74h.1a8.1 8.1 0 0 1 .1-1.6l.6-1.6a4.7 4.7 0 0 1 .6-1.5 5.5 5.5 0 0 1 .9-1.4l1-1.3 1.3-1.2.9-.8 2.3-1.3M10.6 88.9c.1.4.1.9.2 1.3a10 10 0 0 0 .2 1.6 5 5 0 0 1-.1 2.7c-.2.9-.4 1.7-.5 2.5a6.6 6.6 0 0 0 .1 1.4h.1c0 .1.1.3.1.4s.1.2.1.3v-1M15.5 90.1l-.2-1.1M38 74a5.8 5.8 0 0 0 3.2 1.4 11 11 0 0 0 2.5-.2v-2.3a6.3 6.3 0 0 1-4.5.4L38 73" fill="none" stroke="#000" stroke-linecap="round" stroke-linejoin="round" stroke-width=".4"/>
  <path d="M39 82.3v.2a6.1 6.1 0 0 0 2.4.4h2.2a14.8 14.8 0 0 1 .1-2.1 23.4 23.4 0 0 0 .1-4.6c-.1-.3-.1-.6-.2-.9M37.9 77.8a2.8 2.8 0 0 0 .1.9 4.3 4.3 0 0 1 .1.5 13.9 13.9 0 0 0 .6 1.9" fill="none" stroke="#000" stroke-linecap="round" stroke-linejoin="round" stroke-width=".4"/>
  <path d="M38 78.7h-2c-3.4-.2-7-.5-10.7-1a44 44 0 0 1 .6-13.6M30.6 83.4l-1.8 3.7a21.1 21.1 0 0 1-2.8 4.5l-.4.6-.3.3 1.3-.2a8.4 8.4 0 0 0 3.5-2.1 24.4 24.4 0 0 1 4-3.2l.9-.4-.9-.6a15.2 15.2 0 0 0-3.5-2.6l.7-1.5M35 86.6a11 11 0 0 0 4.1 1.6l1.3.2c0-.2.1-.3.1-.4a5.8 5.8 0 0 0-.2-2.3 12.8 12.8 0 0 0-1.4-3.4" fill="none" stroke="#000" stroke-linecap="round" stroke-linejoin="round" stroke-width=".4"/>
  <path d="M25.3 92.5l-.9 1.4a10 10 0 0 1-2.3 2.7 4 4 0 0 0-1.7 2.8c0 .2-.1.3-.1.5h.1a2 2 0 0 0 .1.7 10.6 10.6 0 0 0 .9 2.5c.3.8.8 1.8 1.3 3a24.6 24.6 0 0 0 1.9 3.2l.7.9a13 13 0 0 0 1.5 2l.3.4.4.6a20.3 20.3 0 0 1 1.1 2.6c.1.1-.1-.4-.4-1.2h25.3a8.6 8.6 0 0 0 .1 1.6 24.4 24.4 0 0 0-.9-5.4 13.7 13.7 0 0 0-2.6-4.7 4.1 4.1 0 0 1-1-2.2v-.4l-.3-1.3c-1.4-2.1-2.6-4.2-3.8-6.3s-1.2-2.4-1.7-3.6h-.1a8.1 8.1 0 0 1-.3-1.1l-2-.2v-.2c0-.3-.1-.6-.1-.9h-.1v-.4a3.8 3.8 0 0 1-.1-1" fill="none" stroke="#000" stroke-linecap="round" stroke-linejoin="round" stroke-width=".4"/>
  <path fill="none" stroke="#000" stroke-linecap="round" stroke-linejoin="round" stroke-width=".4" d="M40.6 89.9h.2l-.2-.1M66.4 60.9l.2.2a.9.9 0 0 1 .3.7 5.1 5.1 0 0 1 5.2.3 2.4 2.4 0 0 1 .8.6h.1M66.9 61.9a1.2 1.2 0 0 1-.3.9l-.3.3v.9a3.9 3.9 0 0 0 2.5 4.5M66.4 60.9"/>
  <path d="M66.3 63.2h-.4a1.1 1.1 0 0 1-.8-.3M65.4 60.9h.5l.5.2M60 63.2l-.7-.2a15 15 0 0 1-3-1l-1.2-.5-2.1-1-2.6-1.6-.5-.3-.3-.2-2-1.5a35.8 35.8 0 0 1-2.6 2.8l-.8.8-.3-.9c-.2.7-.3 1.4-.5 2s-.1.7-.2 1.1M61.6 56.3a10.8 10.8 0 0 0-.8 1.9 7.6 7.6 0 0 0-.6 2c-.1.1-.1.2-.1.4s-.1.7-.1 1.1M60.8 66.6a2.8 2.8 0 0 1-.6 1.3 19.2 19.2 0 0 1-3.6 3.1l-.6.4-.4.3.2.2h.1l1.2-.5 1.4-1a8 8 0 0 0 2.4-2.4l.4-.5" fill="none" stroke="#000" stroke-linecap="round" stroke-linejoin="round" stroke-width=".4"/>
  <path d="M55.9 72l.3.3a2.2 2.2 0 0 1 .5 1.4l.8-.4a10 10 0 0 0 3-2.3 11.3 11.3 0 0 0 1-1.3l.5-.8M62.1 70.1l-1.5 1.6a12.1 12.1 0 0 1-2.6 2l-.8.4a17.4 17.4 0 0 1 1.3 6 7.4 7.4 0 0 1 0 2.1 30.7 30.7 0 0 1-1.1 6.4M69.7 65.2v1H69l.3.6.2.2h.2a1.6 1.6 0 0 0 .7-1.9 1.4 1.4 0 0 0-.2-.6h-.3l-.4.2v.3h.2a.1.1 0 0 1 .1.1l-.3-.2" fill="none" stroke="#000" stroke-linecap="round" stroke-linejoin="round" stroke-width=".4"/>
  <path d="M71 65.2a2.3 2.3 0 0 1-1 2.1l-.2.2H69a.5.5 0 0 1-.3-.4M65.4 63.8a5.4 5.4 0 0 0 .7 3.3 2.7 2.7 0 0 0 .7.8M47.6 56.8l-2-1.6M44.1 53.6l.6.7h.1M42.6 55.3l-.3 6.4h1.1M43.9 59.7a41.3 41.3 0 0 1 1.7-4.5M43.6 73.7a23.1 23.1 0 0 0 4.9.5l3.2-.4.7-.2 1.3-.4a3.6 3.6 0 0 1 .4-.9l.2-.3-1.5.5h-.3l-1 .3-3.6.3a22 22 0 0 1-4.4-.5v.2M42.9 64.7a20.8 20.8 0 0 0 .3 6.2l.3 1.8" fill="none" stroke="#000" stroke-linecap="round" stroke-linejoin="round" stroke-width=".4"/>
  <path fill="none" stroke="#000" stroke-linecap="round" stroke-linejoin="round" stroke-width=".4" d="M56 71.4l-.4-.8-3.1 1 .3.9"/>
  <path d="M55.6 71.7H55a.9.9 0 0 0-.7.3M56.3 89a12.7 12.7 0 0 1 .6-2.8 15.7 15.7 0 0 0 .5-5.1 20.9 20.9 0 0 0-1-6c-.1 0-.1.1-.2.2a1.2 1.2 0 0 1-1 .6H55a18.7 18.7 0 0 1 1 6.2 27.8 27.8 0 0 1-1.2 6.9l-.3.5M57.2 74.1l-.5.2-.3.8M56.7 74.3v-.5M43.7 75a28.3 28.3 0 0 0 4.1.3 25.1 25.1 0 0 0 5.5-.6l.5-.2c0-.2-.1-.4-.1-.6v-.8" fill="none" stroke="#000" stroke-linecap="round" stroke-linejoin="round" stroke-width=".4"/>
  <path d="M43.9 76a5.8 5.8 0 0 0 1.9.3h2a16 16 0 0 0 4.9-.5 3.8 3.8 0 0 0 1-.3h.6c-.1-.1-.1-.2-.2-.2l-.3-.7M55 75.9l-.7-.4M49.8 80a2.1 2.1 0 0 0 .4.6l1 1.5c.3.8.7 1.5 1 2.3a8.5 8.5 0 0 1 .4 2.2l-.2 3.3" fill="none" stroke="#000" stroke-linecap="round" stroke-linejoin="round" stroke-width=".4"/>
  <path d="M53.4 89.6a.4.4 0 0 0 .1-.3 22.7 22.7 0 0 0 1.2-5c0-.6.1-1.2.1-1.8a19.3 19.3 0 0 0-.1-2.4 14.6 14.6 0 0 0-1-4.5M43.7 82.7c.2-.1.3 0 .3.1s.1 1 .4 2.9l.2.9 1.5 1.6a5.9 5.9 0 0 0 2.2 1.4h.2l1.5.6a1.4 1.4 0 0 1-1.5 1.5h-1.6a5.5 5.5 0 0 1-2.2-.6l-.9-.4h-.2l-.6.5h-.1" fill="none" stroke="#000" stroke-linecap="round" stroke-linejoin="round" stroke-width=".4"/>
  <path d="M43.6 90.7h-.2l-.5-.3v.9M59.2 87.9a1 1 0 0 0 .5-.4l1.7-1.8a.1.1 0 0 0 .1-.1l1.1-1.6.3-.7.3-.5a7.6 7.6 0 0 0 .6-2M42.9 90.3l-2.1-.4M42.3 61.7l-2.3-.2M46.5 53.1a2.4 2.4 0 0 1-.6.9M38.3 24.8a12.1 12.1 0 0 1 4.9.7M69.9 102.8l-.4 1.2M71.2 107.2l-.5.2a1.9 1.9 0 0 1-.9-.3h-.1a4.1 4.1 0 0 1-.9-1h-.1c-.1-.1-.2-.2-.2-.3h-.1s-.1-.1 0-.1v-.3l.4-.6M60.1 118.5a3.7 3.7 0 0 1-2.2 1H56l-.3 1a3.2 3.2 0 0 0 1.9 1.7l2.5.3a3.4 3.4 0 0 0 2-.9c.1-.2-.2-.8-.9-1.6l-1.1-1.5-1-.4-.2-.7a2.1 2.1 0 0 0-.3-1.2l-.7-1.5M56 119.5c0-.1.1-.3.1-.4a1.1 1.1 0 0 0-.2-1.1h-.8l-.4.2a.5.5 0 0 1-.6-.1 1.9 1.9 0 0 1-.2-.7 5.9 5.9 0 0 1-.2-1.4M13.3 98.1l-.5-.4M10.8 99.2v.3M16.2 101.1l.4.9.6.3M15.7 113.7l.6.7a8.5 8.5 0 0 0 3.1.6l1.1-.3-1-1.1a2.2 2.2 0 0 0 0-2.2l-.6-1.6a12.3 12.3 0 0 1-.5-2.5v-1.1a1.7 1.7 0 0 1 0-1 11.2 11.2 0 0 0-1.8-2l-.5-.5M23.8 115.9c0 .2-.1.3-.1.5a3 3 0 0 0-.2 1 15.7 15.7 0 0 0 2.1 1.7 5.1 5.1 0 0 0 3.8.4h.1a3.9 3.9 0 0 0-.3-2.1 7.6 7.6 0 0 0-.4-1.1c0 .1-.1.2-.4.4a7.4 7.4 0 0 1-2.2 0h-.5a3.8 3.8 0 0 1-1.6-.6h-.2" fill="none" stroke="#000" stroke-linecap="round" stroke-linejoin="round" stroke-width=".4"/>
  <path d="M15.5 114.7a2.6 2.6 0 0 0 .5 1.2l.5.5a6.4 6.4 0 0 0 2.2 1.4 5.3 5.3 0 0 0 2.5.1 4.6 4.6 0 0 0-.2-2l-.5-1.2c0-.1 3.4 0 3.4 0v1.2h.1a8.8 8.8 0 0 1 .2-1.6l-.2-.2a.3.3 0 0 0-.1.2h-.3a.1.1 0 0 0-.2 0c-.2-.4-.3-.4-.4-.8l-1-2.5a10.1 10.1 0 0 0-.7-1.5 25.3 25.3 0 0 0-1.3-2.2 23.9 23.9 0 0 0-1.6-2.2M28.7 116h.1M10.5 91.8l-.3 1M40.2 53l.2-14.6H39L38.5 53h.3" fill="none" stroke="#000" stroke-linecap="round" stroke-linejoin="round" stroke-width=".4"/>
  <path d="M68.3 55.2c-.1-.3 0-.5.3-.8h.4l.4.7a.5.5 0 0 1-.2.4c0 .1 0 .1-.1.2a.7.7 0 0 1-.8-.4"/>
  <path d="M69.5 53.2a2.8 2.8 0 0 1 1.1.8 1.7 1.7 0 0 1 .4 1.2c0 .6-.4 1.4-.3 1.5M68.2 53.4l.4.3.3.4.2.3h-.7a.8.8 0 0 0-.2.8.6.6 0 0 0 .8.3h.1c.1-.2.3-.4.3-.6s.2.3.3.5l.2.5c0 .1.1.3.1.4a1.1 1.1 0 0 1-1.1 0l-.7-.5a2 2 0 0 1-.3-1.1 1.9 1.9 0 0 1-.1-.8c0-.3.1-.6-.1-.8s.2 0 .2.1l.3.3M69 54.2l.5.8M43 28.6a1.5 1.5 0 0 1-1.4-.2M37.9 27.9s1.5-1.4 2.4-.2a1.9 1.9 0 0 1 .1 1" fill="none" stroke="#000" stroke-linecap="round" stroke-linejoin="round" stroke-width=".3"/>
  <path d="M43.3 27.6a2.9 2.9 0 0 0-1.8.1s.4 2.3.1 2.7-.9 0-.9 0-.4.3-.6 0a.7.7 0 0 1-.1-.6" fill="none" stroke="#000" stroke-linecap="round" stroke-linejoin="round" stroke-width=".3"/>
  <path d="M38.8 27.4s-.2.8.2 1 .8 0 .8-.2a.6.6 0 0 0 .2-.5c0-.2 0-.2-.3-.4h-.2zM42.2 27.6s-.3.4-.1.7a.7.7 0 0 0 .8.2c.1-.1.3-.6.2-.7a.4.4 0 0 0-.1-.3z"/>
  <circle cx="39.5" cy="27.6" r=".2" fill="#fff"/>
  <circle cx="42.6" cy="27.8" r=".2" fill="#fff"/>
  <path d="M37.8 26.6s2.1-.4 2.5.4" fill="none" stroke="#000" stroke-linecap="round" stroke-linejoin="round" stroke-width=".4"/>
  <path d="M40.4 32.8s.7-.4 1.1-.2" fill="none" stroke="#000" stroke-linecap="round" stroke-linejoin="round" stroke-width=".3"/>
  <path d="M43.2 25.5s.3.3.1 1.3a1.7 1.7 0 0 0-1.7.3" fill="none" stroke="#000" stroke-linecap="round" stroke-linejoin="round" stroke-width=".4"/>
  <path d="M43.3 26.8a4.2 4.2 0 0 1 .1 1.7 5.4 5.4 0 0 1-1.1 4.4c-1.9 2.3-3.5.8-3.9.6l-.9-.6M38.9 24.8a3 3 0 0 0-1.9 2.5c-.2 2.1-.7 3.3-1.5 2.7s-.6.1-.4.8 1.2.6 1.4-.3M36 31.2a4 4 0 0 1 .1 2.1c-.3 1-.4.9-.4.9M41.3 33.9a8.9 8.9 0 0 0 .2 1.1" fill="none" stroke="#000" stroke-linecap="round" stroke-linejoin="round" stroke-width=".4"/>
  <path d="M40.3 30.6a2.2 2.2 0 0 0-1.3.5.8.8 0 0 1-1.1 0 2.1 2.1 0 0 0 2.6.7c.1 0 .5-.3.7-.1s1.8.9 2.4-.5a1 1 0 0 1-1 .2c-.6-.2-.6-.8-1.2-.9a2.3 2.3 0 0 0-1.1.1z" fill="#a67c52"/>
  <path d="M40.3 30.6a2.2 2.2 0 0 0-1.3.5.8.8 0 0 1-1.1 0 2.1 2.1 0 0 0 2.6.7c.1 0 .5-.3.7-.1s1.8.9 2.4-.5a1 1 0 0 1-1 .2c-.6-.2-.6-.8-1.2-.9a2.3 2.3 0 0 0-1.1.1z" fill="none" stroke="#000" stroke-linecap="round" stroke-linejoin="round" stroke-width=".3"/>
  <ellipse cx="26.9" cy="21.5" rx="4.6" ry="1.5" fill="none" stroke="#000" stroke-linecap="round" stroke-linejoin="round" stroke-width=".4"/>
  <path d="M22.4 27.5s.6-.5 1 .8-.1-1 .9-.9a1 1 0 0 1 .9 1.1s.2-1.4 1.5-1.2a1.1 1.1 0 0 1 1.1 1.2s.3-1.1 1.1-1 .6.8.6.8.3-.8.8-.8.6.4.5.8M23.4 28.3a5.5 5.5 0 0 0 .4 2.3M25.2 28.5a8.7 8.7 0 0 0 .5 2.9M27.8 28.5a17 17 0 0 1-.4 2.3M29.5 28.4a6.7 6.7 0 0 1-1.2 2.7M27.1 32.2l-.4.2M26.3 34.2a1.9 1.9 0 0 0 1.6-.2M26 34.9a1.8 1.8 0 0 0 2-.1M21 118.1l-.6-1.1" fill="none" stroke="#000" stroke-linecap="round" stroke-linejoin="round" stroke-width=".4"/>
</svg>
