<svg xmlns="http://www.w3.org/2000/svg" viewBox="0 0 87 140"><defs><style>.cls-1{fill:#fff}.cls-18,.cls-2{fill:none;stroke:#000;stroke-linecap:round;stroke-linejoin:round}.cls-2{stroke-width:.4px}.cls-3{fill:red}.cls-5{fill:#325723}.cls-6{fill:#fbc219}.cls-12{fill:#ffbf0c}.cls-13{fill:#b3b3b3}.cls-18{stroke-width:.3px}</style></defs><g id="Livello_2" data-name="Livello 2"><g id="Livello_1-2" data-name="Livello 1"><rect class="cls-1" width="87" height="140" rx="6" ry="6"/><path class="cls-2" d="M17.15 21.89s-2-.89-2.75.76 1.28 4 1.47 4.47a.86.86 0 0 1-.19 1.15c-1.22.87.54 2.05 1.14.54.89-2.27-.7-3.22-1.2-4.32-.24-.52-.86-2.4 1.63-1.71m10.9-.89s2.09-.89 2.85.76-1.33 4-1.53 4.47a.85.85 0 0 0 .2 1.15c1.26.87-.56 2.05-1.18.54-.92-2.27.73-3.22 1.24-4.32.24-.52.77-2.33-1.82-1.64"/><path class="cls-3" d="M21.07 33.14s.29 1.8-2.61 2.86 9.14.58 9.14.58a12.74 12.74 0 0 1-2.6-1.81 4.71 4.71 0 0 1-.67-1.65z"/><path class="cls-2" d="M23.19 33.26c0 .07-2.15-.3-2.15-.3s.55 2.12-2.93 3.14"/><path class="cls-2" d="M22.13 33.2c0 .07 2.23-.23 2.23-.23s-.52 2.06 3 3.08"/><path d="M18.09 21.66a5.73 5.73 0 0 1-1.28-.47q.15.25.3.57a7.59 7.59 0 0 1 .26.79 10.56 10.56 0 0 1 .23 1.36v1.23q0 .63-.19 1.3-.11.41-.19.82a6.83 6.83 0 0 0-.11 1.2q1.09-1 2.11.44a1.34 1.34 0 0 1 1-.7 3.48 3.48 0 0 1 .11-.54 6.37 6.37 0 0 0 .15-2.18l-.11-1.3a5.61 5.61 0 0 0 0-.66l-.15-1.45a15.59 15.59 0 0 1-2-.41m7.47.34l-.15 2.05.19 4a1.82 1.82 0 0 1 1.05.82q.87-1.71 1.58-.28a7.54 7.54 0 0 0-.11-1.26l-.23-.92a10.33 10.33 0 0 1-.18-1.41 5.58 5.58 0 0 1 0-1.3 4.35 4.35 0 0 1 .11-1 7.59 7.59 0 0 1 .26-.79 2.69 2.69 0 0 1 .34-.76 5.43 5.43 0 0 1-1.35.51q-.71.19-1.51.35" fill="#d79f09"/><path class="cls-3" d="M29.08 20.42q0-.73-1.88-1.26a17.3 17.3 0 0 0-4.2-.5q-2.6.82-2.48 2.94a3.43 3.43 0 0 0 0 .51q1 .09 2.11.09a22.14 22.14 0 0 0 3-.19q.79-.16 1.51-.35a5.43 5.43 0 0 0 1.35-.51q.53-.35.53-.73"/><path class="cls-5" d="M26.84 28.89a1.86 1.86 0 0 0-1.08-.82c-.5-.11-1 .22-1.52 1-.88-1.18-1.73-1.18-2.53 0-.55-.63-1.07-.92-1.55-.85a1.34 1.34 0 0 0-1 .7q-1-1.48-2.11-.44c0 .06-.07.15 0 .22 0 2 .63 3.09 2.66 4.14l.31.13a8.22 8.22 0 0 0 5 .1l.48-.21a4.29 4.29 0 0 0 2.82-4v-.25c-.63-.99-.9-.86-1.48.28z"/><path class="cls-6" d="M25.54 24.06l.15-2.06a22.14 22.14 0 0 1-3 .19q-1.13 0-2.11-.09h-.41l.15 1.45a5.61 5.61 0 0 1 0 .66l.11 1.3a6.37 6.37 0 0 1-.15 2.18 3.48 3.48 0 0 0-.11.54q.71-.09 1.54.85 1.2-1.77 2.52 0 .75-1.14 1.51-1l-.19-4"/><path d="M23 18.66h-.34a17.76 17.76 0 0 0-4.55.51q-1.88.54-1.88 1.26 0 .41.56.73a5.73 5.73 0 0 0 1.28.47 15.59 15.59 0 0 0 2 .41h.41a3.43 3.43 0 0 1 0-.51q-.11-2.12 2.48-2.94" fill="#a30e03"/><path class="cls-2" d="M25.5 24.12q1.13-.13 2.3-.35a4.35 4.35 0 0 1 .11-1 7.59 7.59 0 0 1 .26-.79 2.69 2.69 0 0 1 .34-.76 5.43 5.43 0 0 1-1.35.51q-.71.19-1.51.35a22.14 22.14 0 0 1-3 .19q-1.13 0-2.11-.09h-.41a15.59 15.59 0 0 1-2-.41 5.73 5.73 0 0 1-1.28-.47q.15.25.3.57a7.59 7.59 0 0 1 .26.79 10.56 10.56 0 0 1 .15 1.34q1.35.19 2.71.28a31.07 31.07 0 0 0 5.23-.16zm-8.73-2.87q-.56-.32-.56-.73 0-.73 1.88-1.26a17.76 17.76 0 0 1 4.55-.51h.34a17.3 17.3 0 0 1 4.21.51q1.81.5 1.81 1.23 0 .38-.53.73m-8.08 4.32a26.48 26.48 0 0 1-2.86-.35l-.19 1.3q-.11.41-.19.82a6.83 6.83 0 0 0-.11 1.2q1.09-1 2.11.44a1.34 1.34 0 0 1 1-.7q.71-.09 1.54.85 1.2-1.77 2.52 0 .75-1.14 1.51-1a1.82 1.82 0 0 1 1.05.82q.87-1.71 1.58-.28a7.54 7.54 0 0 0-.11-1.26q-.14-.38-.24-.89a10.33 10.33 0 0 1-.19-1.42q-1.17.22-2.3.38a27.71 27.71 0 0 1-5.12.09z"/><path class="cls-2" d="M28.33 28.89a4.44 4.44 0 0 1-2.88 4 8.52 8.52 0 0 1-5.38.09 4.58 4.58 0 0 1-3-4.41m11.26.1v.22M17.56 24v1.23m10.24-.16a5.58 5.58 0 0 1 0-1.3M19.14 29a12.64 12.64 0 0 0 .37 2.73m2.16-2.62l.23 2.84M26.72 29a12.64 12.64 0 0 1-.37 2.73m-2.15-2.62l-.23 2.84"/><path id="mazzo_asset_m_OttoCoppe_line_0_Layer0_0_1_STROKES" data-name="mazzo asset m OttoCoppe line 0 Layer0 0 1 STROKES" class="cls-3" d="M16.15 37.13a16.39 16.39 0 0 0 2.22.5 17.36 17.36 0 0 0 2.93.18q2.88-.06 5.77-.32a5.84 5.84 0 0 0 1.59-.32l.12-1.85-.4.12-.18.06a19.64 19.64 0 0 1-11.2-.06l-.38-.12-.3-.12zm.44-1.81"/><path d="M37.08 117.26a6.67 6.67 0 0 1-.2.74 1.71 1.71 0 0 1-.24.44 12.36 12.36 0 0 1-2.25 1.63l-.34-.3q-.24.24-.48.52a11.64 11.64 0 0 1-2 1.77 9.4 9.4 0 0 1-2.57 1.36l-.12.06a.88.88 0 0 1-.28.12l-.32.12-.12.06a.7.7 0 0 1-.4.12h-.12a3.89 3.89 0 0 1-.84.22 3.83 3.83 0 0 1-.87 0h-.5a.06.06 0 0 1-.06 0 .77.77 0 0 1-.48-.18l-.24-.12a.55.55 0 0 1-.14-.16 4.28 4.28 0 0 1 1.31-1.73q.62-.48 1.15-1 1-.89 1.83-1.73t1.69-1.95H14.4v7.46h58.37v-7.46H49.41a.68.68 0 0 0 .18.08l.16.12.18.1q1.39.62 2.72 1.33a23 23 0 0 1 2.92 1.79l.14.5a.71.71 0 0 1-.2.2 2.55 2.55 0 0 1-.84.48l-1.41.12h-.5a23.29 23.29 0 0 0-2.54 0 23.45 23.45 0 0 1-2.78-.48 8.51 8.51 0 0 1-2.7-1.33l-.2.54-.52-.06a15.18 15.18 0 0 1-2.45-1l-.14-.16a3.49 3.49 0 0 0-.08-.54 3.29 3.29 0 0 1 .06-1.65h-4.33m18.61-62.78a7.67 7.67 0 0 1 .3-1 20.49 20.49 0 0 0-3 5.29l-.3.72-.42.93a2.76 2.76 0 0 1 .54.06l1.29.36.26-1a4.84 4.84 0 0 0 .12-.82 3 3 0 0 0 .06-.3 4.21 4.21 0 0 1 .46-1.04l.12-.24a1.43 1.43 0 0 1 .08-.3 3.41 3.41 0 0 0 .16-.56q.08-.46.14-1a4 4 0 0 0 .06-.42l.12-.72m-28.9-11.89a3 3 0 0 1-2 2.6h-.06a16.42 16.42 0 0 0 1.55 1.13.9.9 0 0 0 .8.12h.14a3.66 3.66 0 0 0 .5-.28 6.44 6.44 0 0 1-.77-2.15q-.1-.7-.16-1.37m30.22-2l-1.39 1a22.83 22.83 0 0 1 4.69 10.32 1.6 1.6 0 0 1-.66 1.71q-2.19 1.45-1.71 4.77a2.06 2.06 0 0 1-.34 1.45 22.38 22.38 0 0 0-1.19 2.23l1.17 1a50 50 0 0 0 4-6.66q1.79-3.56.84-6.3T57 40.59M36.25 46a4.63 4.63 0 0 0-.16.85q-.06.7-.08 1.39l-1.95-.6a2.56 2.56 0 0 1-.08.42l-.85 2.09a1.6 1.6 0 0 1-.14.26 6.69 6.69 0 0 1-.66.91 4.85 4.85 0 0 0-.52.14h-.26a7.77 7.77 0 0 1-1.77 1.31l-1.35.7-.56.42-.18.72-.58.46-.41-.07-.1-.18a35.34 35.34 0 0 0-6.28-8.27 1.05 1.05 0 0 1 .06.22l.52 1.43a1.84 1.84 0 0 1 .06.22A20.25 20.25 0 0 0 22.19 51q.66 1.09 1.37 2.21a7.09 7.09 0 0 0 1 1.43 4.27 4.27 0 0 0 1.91 1.29 4.17 4.17 0 0 0 2.84-.24 5.63 5.63 0 0 0 .78-.52 17.26 17.26 0 0 1 3-1.83 11 11 0 0 0 2.72-2l.58-.66a13 13 0 0 0 .44-1.93A7.19 7.19 0 0 0 36.7 46l-.18-.8q-.16.42-.28.84m23.47-25.81a2.75 2.75 0 0 0 0 .74 7.32 7.32 0 0 1 .06 1.95 1.36 1.36 0 0 1-.38 1l-.12.18a.45.45 0 0 1-.1.18 5.73 5.73 0 0 1-1.07.85 5.61 5.61 0 0 0 .34-1.27 4.35 4.35 0 0 0 0-1.09 3.25 3.25 0 0 0-.26.34l-.12.22a1.43 1.43 0 0 1-.24.32l-.74.64A8.52 8.52 0 0 0 55.51 26a.67.67 0 0 0 .16.18 3.15 3.15 0 0 0 .48.46l1.09-.3a1.18 1.18 0 0 0 .54.12 1.14 1.14 0 0 0 .76 0 1.67 1.67 0 0 0 .7-.2 2.54 2.54 0 0 0 1.25-1.21 4.44 4.44 0 0 0 .51-2.77 2.85 2.85 0 0 0-1.29-2.05z" fill="#980805"/><path d="M36.9 114.42a25.33 25.33 0 0 1-2.32 1.58 1.73 1.73 0 0 0-.54.7 3 3 0 0 1 .08.5q0 .28.06.58a16.15 16.15 0 0 1-2.25 2.66 26.62 26.62 0 0 0-2.27 2.31l-.66.72a9.4 9.4 0 0 0 2.58-1.47 11.64 11.64 0 0 0 2-1.77q.24-.28.48-.52l.34.3a12.36 12.36 0 0 0 2.25-1.63 1.71 1.71 0 0 0 .24-.44 6.67 6.67 0 0 0 .2-.74q0-.28.06-.54a6.12 6.12 0 0 0-.24-2.31m7 .08a4.67 4.67 0 0 1-1.21-.66l-.52.36-.78 3.06a3.29 3.29 0 0 0-.06 1.65 3.49 3.49 0 0 1 .08.54l.14.16a15.18 15.18 0 0 0 2.45 1l.52.06.2-.54a8.51 8.51 0 0 0 2.7 1.33 23.45 23.45 0 0 0 2.78.48 23.29 23.29 0 0 1 2.54 0h.5l-2.56-1a11.72 11.72 0 0 0-2.76-.52 10.61 10.61 0 0 1-2.54-.84 2.49 2.49 0 0 1-1.51-2.27q.02-1.29.02-2.75z" fill="#ccc"/><path class="cls-1" d="M36.76 114.14l-1 .36a4.76 4.76 0 0 1-3.6 0l-1.69 2.78q-.8 1-1.69 1.95T27 120.94l-1.15 1a4.28 4.28 0 0 0-1.31 1.73.55.55 0 0 0 .14.16l.24.12a.77.77 0 0 0 .48.18.06.06 0 0 0 .06 0h.5a3.83 3.83 0 0 0 .87 0 3.89 3.89 0 0 0 .84-.22h.12a.7.7 0 0 0 .4-.12l.12-.06.32-.12a.88.88 0 0 0 .28-.12l.12-.06.66-.72a26.62 26.62 0 0 1 2.27-2.31 16.15 16.15 0 0 0 2.25-2.66q0-.3-.06-.58a3 3 0 0 0-.08-.5 1.73 1.73 0 0 1 .54-.7 25.33 25.33 0 0 0 2.33-1.55 1.36 1.36 0 0 0-.14-.28m8.55.6a4.84 4.84 0 0 1-1.41-.24v2.94a2.49 2.49 0 0 0 1.51 2.27 10.61 10.61 0 0 0 2.54.84 11.72 11.72 0 0 1 2.76.52q1.35.48 2.56 1l1.41-.12a2.55 2.55 0 0 0 .84-.48.71.71 0 0 0 .2-.2l-.14-.5a23 23 0 0 0-2.92-1.79q-1.33-.72-2.72-1.33l-.18-.1-.16-.12a.68.68 0 0 1-.18-.08 4.43 4.43 0 0 1-1.47-.82 3.41 3.41 0 0 1-.87-1.11 5.42 5.42 0 0 0-.3-.46.06.06 0 0 1 0-.06l-.06-.06h-1.45m3.26-69.9l-.12.06.08 1.85a42.54 42.54 0 0 1-.66 8.85l-.66 3.12.78-.1.76-3a35.93 35.93 0 0 0 .64-9l-.18-2a2.77 2.77 0 0 1-.64.18m-3.2.26l.12 2.09a42.51 42.51 0 0 1-.49 8.34l-.56 3 .91.1.65-3.1a41.41 41.41 0 0 0 .54-8.53l-.14-2z"/><path d="M43.17 108l1.33.68a5.83 5.83 0 0 0-1.51-6l.14 4.53a7.4 7.4 0 0 1 0 .78M32.51 99.7q2 1.07 1.31 3.56a2.38 2.38 0 0 0-.06.54h.58l.66-.8q.22-3.06.66-6.08a5.68 5.68 0 0 1-2.68-2.21 24 24 0 0 1-.42 5M50 105.13a20.45 20.45 0 0 0 .78-5.63v-1l-1.13.26a34.9 34.9 0 0 1-2.15 10.7q-1 2.74-2.25 5.31h1.37l2.31-6 .89-2.8a3.48 3.48 0 0 1 .16-.76m-14.33-40.5a6.33 6.33 0 0 0-.46 1.15 14.74 14.74 0 0 0-.5 1.79 15.93 15.93 0 0 0-.34 2.09l.12.06q.87.06 1.73.16t1.71.06h.89v-.26q0-.78.1-1.57t.26-1.63a20 20 0 0 1 1.63-4.73.7.7 0 0 0-.22 0q-.5-.08-1-.2l-.57-.24h-.12l-.5-.24-.82-.4.12.36-.14.28-.84 1.41-.5.84q-.26.42-.56 1.09m15.11-2.33l.6-.64-2.31.16h-.14a10.77 10.77 0 0 0 1.21 3.38 1.82 1.82 0 0 1 .1.24q.3.89.54 1.67t.38 1.37a1 1 0 0 0 .16.4l4 .06.18.89a.49.49 0 0 0 .56-.56l.06-1.11-.9-1.26-.85-.06-.34-.42h-1.07l-.24-.2-.14-.74a.42.42 0 0 1-.22-.06 3.4 3.4 0 0 1-.76-.26.06.06 0 0 0-.06 0 2.17 2.17 0 0 1-.14-.62 2 2 0 0 1 0-.64l-.37-.42-.28-.6.06-.58M53.66 43v3.3q0 .68-.06 1.41a7.6 7.6 0 0 1-.24 1.37 3.19 3.19 0 0 1-.18.54q-.24.68-.44 1.43-.36 1.23-.72 2.64-.52 2.11-1.05 4.39a.08.08 0 0 1 .08 0l.58-.26a5.22 5.22 0 0 0 .76-.42l.12-.12.72-1.45q.54-1.07 1-2.21a12.18 12.18 0 0 0 .96-2.62l.24-1.09a15.44 15.44 0 0 0 .42-2.56 21.28 21.28 0 0 0 0-2.9q-.08-1-.32-2.39l-.06-.3-.52.3a3.64 3.64 0 0 1-.48.2.13.13 0 0 0-.1 0 2 2 0 0 1-.44.6l-.24.2m-18.08-1.41a2.11 2.11 0 0 0 .16.36l.3 1a3.61 3.61 0 0 1 .18.68l.12.68q.06.38.16.8l.18.8a7.19 7.19 0 0 1 .08 2.72 13 13 0 0 1-.44 1.93l-.58.66a20.13 20.13 0 0 0 .78 2.51 13.83 13.83 0 0 0 1.11 2.27 6.88 6.88 0 0 0 .48.74l.32.36s.06.11.3.3l.64.38a3.76 3.76 0 0 0 .72.3 2.14 2.14 0 0 1-.08-.38 15.47 15.47 0 0 1-.24-1.57 22.76 22.76 0 0 1-.18-2.9q0-2.92.08-6v-.78q.06-.6.14-1.15l.12-.58a5 5 0 0 1 .16-.6 1.86 1.86 0 0 1-.8-.6.87.87 0 0 1-.08-.16l-.06-.38-1.18.1a.94.94 0 0 1-.6-.26 2.42 2.42 0 0 0-.36-.28 5.31 5.31 0 0 1-.87-.62 1.73 1.73 0 0 0-.58-.34M48 21l-.36.89a2.88 2.88 0 0 1-2.78-.62.91.91 0 0 0-.84-.16 2.75 2.75 0 0 1-.34.48 8.35 8.35 0 0 1-5.09 3.12l.24.14h.06a.25.25 0 0 1 .1.06l.08.06h.7l.87-.1a14 14 0 0 1 1.43-.54 8.11 8.11 0 0 1 1.12-.33 4 4 0 0 1 1.11-.28 9.84 9.84 0 0 1 2.84-.3 10.85 10.85 0 0 1 2.39.6 11.39 11.39 0 0 0 2.72.52l1-.18a.06.06 0 0 0 .06 0 .13.13 0 0 0 .06-.06l.3-.14.66-.72.3-.58-2.8-.16-.18.91a2.27 2.27 0 0 1-1.87-.42A7.62 7.62 0 0 1 48 21z" fill="#0d3a12"/><path class="cls-5" d="M37.74 97.24a6.81 6.81 0 0 1-2.13-.36q-.44 3-.66 6.08l-.62.8h-.58a2.38 2.38 0 0 1 .06-.54q.7-2.49-1.31-3.56a.49.49 0 0 1 0 .18 23.12 23.12 0 0 0-.44 5.89 51.52 51.52 0 0 0 .56 5.65 5 5 0 0 1-.42 3.06 4.76 4.76 0 0 0 3.6 0l1-.36a16.18 16.18 0 0 1 1.2-4.4 27.65 27.65 0 0 0 1.73-4.68l.14-1.21a29.92 29.92 0 0 0 0-5.45l-.34-1.43a2 2 0 0 1-1.77.38m12 1.49l-.42.1a4.55 4.55 0 0 1-4.81-2.6 10 10 0 0 0-1.53 5.69 7 7 0 0 0 0 .74 5.83 5.83 0 0 1 1.51 6l-1.34-.71a35.92 35.92 0 0 1-.28 4.79q-.08.56-.2 1.09a4.67 4.67 0 0 0 1.21.66 4.84 4.84 0 0 0 1.41.24q1.23-2.56 2.25-5.31a34.9 34.9 0 0 0 2.15-10.7m-3.94-36.62a21.4 21.4 0 0 1-3.08-.06q-.93-.12-1.89-.3a20 20 0 0 0-1.63 4.73q-.14.8-.26 1.63t-.1 1.57V70l5.57-.62 1.87-6.62-.48-.6m3.14-.24l-1.69.08-.72.93.5 1.72q.48 1.77 1.13 3.5.12.36.28.72h.36l2.53.13a1 1 0 0 1-.16-.4l-.38-1.37q-.2-.69-.54-1.67a1.82 1.82 0 0 0-.1-.24 10.77 10.77 0 0 1-1.21-3.38m.84-17.64l-.54.38.18 2a35.93 35.93 0 0 1-.64 9l-.76 3a7.42 7.42 0 0 0 3-.5l1.05-4.39q.36-1.41.72-2.64.2-.76.44-1.43a3.19 3.19 0 0 0 .18-.54 7.6 7.6 0 0 0 .24-1.37q.06-.74.06-1.41v-3.38a5.67 5.67 0 0 1-.93.48q-.24-.14-.36-.06a.66.66 0 0 1-.32.12.13.13 0 0 0-.1 0 2.49 2.49 0 0 1-.64.48.58.58 0 0 1-.38.18 2.15 2.15 0 0 1-1.19 0m-9.48 0l-.18-.06a5 5 0 0 0-.16.6l-.12.58q-.08.56-.14 1.15v.78q-.06 3.06-.08 6a22.76 22.76 0 0 0 .18 2.9 15.47 15.47 0 0 0 .22 1.58 2.14 2.14 0 0 0 .08.38 16.85 16.85 0 0 0 1.91.34q1 .08 2.41.14l.56-3a42.51 42.51 0 0 0 .52-8.41l-.12-2.09a.86.86 0 0 1-.72-.3.13.13 0 0 1-.06-.06 2.27 2.27 0 0 1-.93.06 5.05 5.05 0 0 1-1.37-.3l-.34-.3a1.36 1.36 0 0 1-.6.16 2.82 2.82 0 0 1-1.09-.1M53 19l-1.25-.68a7.18 7.18 0 0 0-1.71.56l-1.17.46L44.9 19h-.82l-.08-.22h-.22a.49.49 0 0 1-.18 0h-.08a4.18 4.18 0 0 0-3 .91l-1.13-.06a13.48 13.48 0 0 0-1.59 1 4.85 4.85 0 0 0-.22.46 2.55 2.55 0 0 0 .18 2.49q.4.62.78 1.13l.06.06a8.35 8.35 0 0 0 5.09-3.12 2.75 2.75 0 0 0 .34-.48.91.91 0 0 1 .84.16 2.88 2.88 0 0 0 2.78.62L48 21a7.62 7.62 0 0 0 1.85 2.17 2.27 2.27 0 0 0 1.87.42l.18-.91 2.8.16a7.89 7.89 0 0 0 .3-.94 2.19 2.19 0 0 0-.8-2.41l-.44-.18-.28-.08a.13.13 0 0 0-.08-.06h-.16a.11.11 0 0 0-.12-.08H53a.13.13 0 0 0 0-.09z"/><path class="cls-3" d="M40.1 93.74a5.59 5.59 0 0 1-1.77.52 4.69 4.69 0 0 1-5.07-2.31 2.1 2.1 0 0 0-.5 2.31 3.32 3.32 0 0 0 .16.42 5.68 5.68 0 0 0 2.68 2.21 6.81 6.81 0 0 0 2.13.36 2 2 0 0 0 1.77-.38l.34 1.43a29.92 29.92 0 0 1 0 5.45l-.14 1.21a4.1 4.1 0 0 0 .44.52 4.48 4.48 0 0 0 .42.48h.18q.46-1.39 1-2.72a2.23 2.23 0 0 0 .16-1.53 17.4 17.4 0 0 0-2.09-5 7.6 7.6 0 0 0 .68.62 11.8 11.8 0 0 1 1 .89h1.05l.42-.32a1.7 1.7 0 0 0 .28-1.23 1.28 1.28 0 0 0-.78-.7l.54-.24q.06-.44.08-.85a2.74 2.74 0 0 0-.2-1.31l-.52-.16-.24.06a5.5 5.5 0 0 0-2 1.91 1.79 1.79 0 0 0 .06-.72q0-.2-.06-1m16.24 2.51a1.61 1.61 0 0 0-.44-1.75 2.28 2.28 0 0 0-3.38.06l-.3-.54a2.8 2.8 0 0 1-2.31 1.49 9.21 9.21 0 0 1-5.21-.43 4.94 4.94 0 0 0-.24.84 1.11 1.11 0 0 0 0 .42 4.55 4.55 0 0 0 4.81 2.6l.42-.1 1.13-.26v1a6.77 6.77 0 0 1-.34 5.49 4.38 4.38 0 0 1-.6.89l-.89 2.8a7.29 7.29 0 0 0 2.21-1.49 6.2 6.2 0 0 0 1.45-2.19 6.45 6.45 0 0 0 .22-4.43 1.85 1.85 0 0 0 2.25-.24 1.7 1.7 0 0 0 .12-2.6 2.46 2.46 0 0 0 1.09-1.47m-.74-54.68l-.18.12.06.3q.24 1.43.32 2.39a21.28 21.28 0 0 1 0 2.9 15.44 15.44 0 0 1-.42 2.56l-.24 1.09.4.6.46.78a1.78 1.78 0 0 0 .16.26 3.89 3.89 0 0 0 .24.4 6.53 6.53 0 0 0-.52.44 7.67 7.67 0 0 0-.3 1l-.12.72a4 4 0 0 1-.06.42q-.06.52-.14 1a3.41 3.41 0 0 1-.16.56 1.43 1.43 0 0 0-.08.3l-.12.24a4.21 4.21 0 0 0-.44 1.11 3 3 0 0 1-.06.3 4.84 4.84 0 0 1-.12.82l-.26 1a5.23 5.23 0 0 1 1.53.66l.74.5a22.38 22.38 0 0 1 1.19-2.23 2.06 2.06 0 0 0 .34-1.45q-.48-3.32 1.71-4.77a1.6 1.6 0 0 0 .66-1.71 22.83 22.83 0 0 0-4.69-10.38m-21.09-1.29l-.2-.7a5 5 0 0 1-.16-.48l-.36.58a12 12 0 0 0-1.37 2.84 5.19 5.19 0 0 0-.52.38 3.64 3.64 0 0 0-1.25 2.11l-.93.62a9.45 9.45 0 0 0-1.15 1.29l-.1.08h-.2a5.63 5.63 0 0 1-.52-.78 3.66 3.66 0 0 1-.5.28h-.14a.9.9 0 0 1-.8-.12 16.42 16.42 0 0 1-1.55-1.13h.06a3 3 0 0 0 2-2.6l.46-.7a1.59 1.59 0 0 0-.06-1 2.41 2.41 0 0 0-.24-.58.57.57 0 0 0-.18-.18l-.36-.3a7.68 7.68 0 0 1-2.58 1.75 3.08 3.08 0 0 1-3.26-.4 3.75 3.75 0 0 1-.74.4 1.81 1.81 0 0 0-.76.6q-.38.48 0 1.39l.32.42a17.73 17.73 0 0 1 .82 2.11l.14.44a35.34 35.34 0 0 1 6.28 8.27l.1.18.42.12.58-.46.18-.72.56-.42 1.35-.7a7.77 7.77 0 0 0 1.77-1.31h.26a4.85 4.85 0 0 1 .52-.14 6.69 6.69 0 0 0 .66-.91 1.6 1.6 0 0 0 .14-.26q.46-1.05.85-2.09a2.56 2.56 0 0 0 .08-.42l1.95.6q0-.7.08-1.39a4.63 4.63 0 0 1 .16-.85q.12-.42.28-.84-.1-.42-.16-.8l-.12-.68a3.61 3.61 0 0 0-.18-.68l-.3-1a2.11 2.11 0 0 1-.16-.36 1.81 1.81 0 0 1-.69-.68 5.25 5.25 0 0 1-.48-.8M59.73 21a2.75 2.75 0 0 1 0-.74l-.38-.26a4.38 4.38 0 0 0-2.6-.36l-.36-.36a2.56 2.56 0 0 0-.54-.06 4.18 4.18 0 0 0-1.69.26A2.19 2.19 0 0 1 55 21.9a7.89 7.89 0 0 1-.28.89l-.3.58a1.41 1.41 0 0 0 1 1H56a6.9 6.9 0 0 0-.48.93 1 1 0 0 0-.12.38l.14.28a8.52 8.52 0 0 1 1.61-1.73l.74-.64a1.43 1.43 0 0 0 .24-.32l.12-.22a3.25 3.25 0 0 1 .26-.34 4.35 4.35 0 0 1 0 1.09 5.61 5.61 0 0 1-.34 1.27 5.73 5.73 0 0 0 1.07-.85.45.45 0 0 0 .1-.18l.12-.18a1.36 1.36 0 0 0 .38-1 7.32 7.32 0 0 0-.11-1.86z"/><path d="M45.89 77a33.69 33.69 0 0 1-.44 5.39 35.54 35.54 0 0 1-1.69 6.76q-.24.62-.52 1.25v.54q0 .3.06.64a3.31 3.31 0 0 0 1 2.15q.12.34.22.72a4 4 0 0 1 .12.58 9.21 9.21 0 0 0 5.21.54A2.8 2.8 0 0 0 52.23 94l.08-.58.16-.48.2-.3L54 89.13v-.06a37.2 37.2 0 0 0 1.71-17.73l-.24-1.41-.16-.93-4-.06-2.54-.06.52 1.77a14.49 14.49 0 0 1 4.71-.51 43.56 43.56 0 0 1-.66 11.39A29 29 0 0 1 49 92.09a1.35 1.35 0 0 1-1.09.58 2.56 2.56 0 0 1-.89.12l-.2-.28-.52-.14a8.31 8.31 0 0 1 0-4.69 33.64 33.64 0 0 1 2-5 4.44 4.44 0 0 0 .5-1.81V79.3q-.24.24-.46.5l-.3.36a2.53 2.53 0 0 1-.32.34l-.42.14-.46.22-1-3.86m-9.68-7q-.85-.1-1.73-.16l-.32 1.53a100.62 100.62 0 0 0-2.35 17.26v.16a6.93 6.93 0 0 0 .6 2.15l.85 1.05a4.69 4.69 0 0 0 5.07 2.31 5.59 5.59 0 0 0 1.77-.52 4.76 4.76 0 0 0 1.53-1.35 5.17 5.17 0 0 1-1 .34 19.23 19.23 0 0 1-2 .42 7.05 7.05 0 0 1-4.58-.76 9.45 9.45 0 0 1-.06-5.59q.82-2.7 1.47-5.35 1.37-5.71 2.51-11.49-.85 0-1.71-.06m7.69-10.12a8.82 8.82 0 0 1-1.43-1q-.24-.18-.46-.38a16.85 16.85 0 0 1-1.91-.34 3.76 3.76 0 0 1-.72-.3l-.64-.38a1.91 1.91 0 0 0-.2.56 1.84 1.84 0 0 0-.06.22 2.15 2.15 0 0 0-.22 1 13.33 13.33 0 0 0 .1 1.93l.5.24h.12l.62.16q.48.12 1 .2l1.05-.3h.12a2.2 2.2 0 0 0 .6-.16 7.51 7.51 0 0 1 1.05-.27.21.21 0 0 0 .12 0 1 1 0 0 0 .4-.24l.18-.18a.34.34 0 0 0 0-.54 1.23 1.23 0 0 0-.22-.14m2.6 3.1l-.26-.18-1.87 6.62-5.56.56-.08.54a5.93 5.93 0 0 0 4.55.64l1.39-.3.58-.78A28.07 28.07 0 0 1 47 64.65l-.48-1.73m6.2-3.36q.46-2.21-.32-2.17a5.22 5.22 0 0 1-.76.42l-.58.26a12.31 12.31 0 0 1-1.55 1.35l-.24.14-.36.28a2.11 2.11 0 0 0-.54.6.42.42 0 0 0-.06.22 1.44 1.44 0 0 0 .46 1 1.14 1.14 0 0 0 .18.18l.08.1 2.31-.16.06-.06-.58-.89-.18-.4a3 3 0 0 1 .36-.53.55.55 0 0 1 .6-.24l.74.84.42-.93m-1.5-18.8a4.82 4.82 0 0 0 0 .64 5.29 5.29 0 0 1 0 .66v.66a1.57 1.57 0 0 0-.06.24l-.24.22a1.51 1.51 0 0 0-.36.18 1.59 1.59 0 0 0-.42-.06L49.65 42l.1.72a4.12 4.12 0 0 1-.06.68 3.69 3.69 0 0 1-.18.66l-.3.62.54-.38a2.15 2.15 0 0 0 1.19 0 .58.58 0 0 0 .38-.18 2.49 2.49 0 0 0 .68-.52.13.13 0 0 1 .1 0 .66.66 0 0 0 .32-.12q.12-.08.36.06a5.67 5.67 0 0 0 .93-.48l.24-.2a2 2 0 0 0 .44-.6.13.13 0 0 1 .1 0 3.64 3.64 0 0 0 .48-.2l.52-.3.18-.12 1.39-1 .24-.36-.5-.3h-.06a.12.12 0 0 0-.1-.06l-.1-.06-.12-.06-.06-.06-.14-.08a.06.06 0 0 1-.06 0v-.06h-.18a.16.16 0 0 0-.12-.08h-.08a1.6 1.6 0 0 1-.26-.14.19.19 0 0 1-.1 0 .15.15 0 0 0 0-.06l-.34-.24a.81.81 0 0 0 .06.72l.24.46a1.92 1.92 0 0 1 .16.54 1.56 1.56 0 0 1-.54.83 1 1 0 0 1-.22.2.47.47 0 0 1-.16.1.7.7 0 0 1-.2-.1 1.81 1.81 0 0 1-.72-.87 2.15 2.15 0 0 1-.24-.54.28.28 0 0 0 0 .16 3.88 3.88 0 0 1 .06.44l.06.82-1.19.64-1.05-1.69m.44-3.38l-.56.28.64 1a.3.3 0 0 1-.08.16q-.46.54-1 1l-1.43-1.55a8.68 8.68 0 0 0 .16 1.23 2.14 2.14 0 0 1 0 .66l-1 .6a1.73 1.73 0 0 0 1.81-.36l.2-.46.64.16 1-.48.3-.72a.53.53 0 0 0 .24-.06 3.78 3.78 0 0 0 1.15-.7l-2.11-.76m-6.8 7.2a12.52 12.52 0 0 0-.16-1.33l-.12-.91a4.47 4.47 0 0 1-.48 1.25l-.3.66a1.58 1.58 0 0 1-.66.1 2.93 2.93 0 0 1-.89.14 5.05 5.05 0 0 0 1.37.3 2.27 2.27 0 0 0 .93-.06.13.13 0 0 0 .06.06.86.86 0 0 0 .72.3h1l.68-.26-.38-2.37-.46 2.27-.54.24H45a1 1 0 0 1-.08-.38m-4.81-.4l.18.06a2.82 2.82 0 0 0 1.09.1 1.36 1.36 0 0 0 .6-.16l.61-2.22q-.66.91-1.31 1.87H41a2.45 2.45 0 0 1-.82-.14 6 6 0 0 1-1-.28.87.87 0 0 0 .08.16 1.86 1.86 0 0 0 .8.6M34.9 41a1.81 1.81 0 0 0 .72.64 1.73 1.73 0 0 1 .58.34 5.31 5.31 0 0 0 .87.62 2.42 2.42 0 0 1 .36.28.94.94 0 0 0 .6.26l1.13-.08.58-1.79-.5.24a9 9 0 0 1-1 .42 8.51 8.51 0 0 1-.87.32 2.14 2.14 0 0 0-.38-.08l-.46-.3-.48-.36 1.25-1.69-1.59.7-1.31-.3a5.25 5.25 0 0 0 .48.8m12.92-2v.08l-.36 1.43a2.22 2.22 0 0 1-.3.18 1.06 1.06 0 0 1-.91.24 2 2 0 0 0 1.87-.44 1.23 1.23 0 0 0 .22.14 2.6 2.6 0 0 0-.5-1.65M43 40.36l.42-1.49a1.88 1.88 0 0 1-1.91.72l-.3.18-.52-.06-.3-.26a.58.58 0 0 0 .22.44 1.69 1.69 0 0 0 .62.54l.72.12a3.45 3.45 0 0 0 1.05-.19m2.82-.78a2 2 0 0 0-.38.36 4 4 0 0 0-.26.48l-2.13.12v.18a1.92 1.92 0 0 0 .32.22 1.18 1.18 0 0 0 .54.12 1.36 1.36 0 0 0 .52.14 2.49 2.49 0 0 0 1.31-.44l.16.08-.12-1.25m-7.56-2.49h-.12a5.47 5.47 0 0 0 .3.72 2.17 2.17 0 0 0 1.83 1.23l.18-.12a3.53 3.53 0 0 1 1.47-1.29l.12-.1a15.28 15.28 0 0 1-2.94.64z" fill="#c8a30d"/><path class="cls-12" d="M38.73 70.52l.08-.54h-.89q-1.13 5.77-2.51 11.43-.66 2.64-1.47 5.35a9.45 9.45 0 0 0 .06 5.63 7.05 7.05 0 0 0 4.63.72 19.23 19.23 0 0 0 2-.42 5.17 5.17 0 0 0 1-.34l.6-.6q.4-.44.78-.89l.24-.54q.28-.64.52-1.25a35.54 35.54 0 0 0 1.69-6.76 33.69 33.69 0 0 0 .43-5.31l1 3.86.46-.22.42-.14a2.53 2.53 0 0 0 .32-.34l.3-.36q.22-.26.46-.5v1.57a4.44 4.44 0 0 1-.5 1.81 33.64 33.64 0 0 0-2 5 8.31 8.31 0 0 0 0 4.69l.52.14.2.28a2.56 2.56 0 0 0 .89-.12 1.35 1.35 0 0 0 1.04-.58 29 29 0 0 0 4.27-10.56A43.56 43.56 0 0 0 54 70.14a14.49 14.49 0 0 0-4.69.54l-.52-1.77h-.36q-.16-.36-.28-.72-.66-1.73-1.13-3.5a28.07 28.07 0 0 0-1.73 5.43l-.58.78-1.39.3a5.93 5.93 0 0 1-4.55-.64m-.32-13.4l-.32-.36-.18.14a7.64 7.64 0 0 0-.48 3q0 .38.08.8l.82.4a13.33 13.33 0 0 1-.1-1.93 2.15 2.15 0 0 1 .22-1 1.84 1.84 0 0 1 .06-.22 1.91 1.91 0 0 1 .2-.56q-.36-.28-.3-.3m12.63.94a.08.08 0 0 0-.08 0 7.42 7.42 0 0 1-3 .5l-.78.1h-.38l-.57-.67-.54.68h-.4l-.91-.1Q43 58.55 42 58.47q.22.2.46.38a8.82 8.82 0 0 0 1.43 1 1.23 1.23 0 0 1 .22.14.34.34 0 0 1 0 .54l-.18.18a1 1 0 0 1-.4.24.21.21 0 0 1-.12 0 7.51 7.51 0 0 0-1.07.32 2.2 2.2 0 0 1-.6.16h-.12l-1.05.3a.7.7 0 0 1 .22 0q1 .18 1.89.3a21.4 21.4 0 0 0 3.08.06l.48.6.26.18.72-.93 1.69-.08h.14l-.08-.1a1.14 1.14 0 0 1-.18-.18 1.44 1.44 0 0 1-.46-1 .42.42 0 0 1 .06-.22 2.11 2.11 0 0 1 .54-.6l.36-.28.24-.14a12.31 12.31 0 0 0 1.55-1.35"/><path class="cls-12" d="M47.14 60.59l-.83.9-.76-.82.76-.97.83.89"/><path class="cls-13" d="M51.56 59.66a.55.55 0 0 0-.6.24 3 3 0 0 0-.32.48l.18.4.58.89-.06.06h.08l.62.76.12-.06L53 62l.16-.34-.87-1.07-.74-.84"/><path class="cls-12" d="M38.37 37.07h-.1l.84 1.11a15.28 15.28 0 0 0 2.94-.64l-.12.1A3.53 3.53 0 0 0 40.46 39l-.18.12a2.17 2.17 0 0 1-1.83-1.23 5.47 5.47 0 0 1-.3-.72l-1.39.62h-.16l-.14.06a.05.05 0 0 1-.06.06.15.15 0 0 0-.14.06s-.06.06-.14.06a.19.19 0 0 0-.1 0l-.3.12a.21.21 0 0 0-.12 0l-.14.06h-.06a.19.19 0 0 0-.12.1h-.1l-.2.06a.13.13 0 0 1-.1 0l-.08.06a.68.68 0 0 1-.18.08.06.06 0 0 0-.06 0l-.1.06a.53.53 0 0 0-.3.08.19.19 0 0 0-.12.18 5 5 0 0 0 .16.48l.2.7 1.31.3 1.59-.7-1.25 1.69.48.36.46.3a2.14 2.14 0 0 1 .38.08 8.51 8.51 0 0 0 .87-.32 9 9 0 0 0 1-.42l.5-.24-.58 1.79.06.38a6 6 0 0 0 1 .28 2.45 2.45 0 0 0 .82.14h.24q.66-1 1.31-1.87L42 44.19l.34.3a2.93 2.93 0 0 0 .89-.14 1.58 1.58 0 0 0 .66-.1l.3-.66a4.47 4.47 0 0 0 .48-1.25l.12.91a12.52 12.52 0 0 1 .16 1.33A1 1 0 0 0 45 45h.7l.54-.24.46-2.27.3 2.34 1.41.06.12-.06a2.77 2.77 0 0 0 .64-.18l.3-.62a3.69 3.69 0 0 0 .18-.66 4.12 4.12 0 0 0 .06-.68q0-.36-.1-.72l.52 1.31a1.59 1.59 0 0 1 .42.06 1.51 1.51 0 0 1 .36-.18l.24-.22a1.57 1.57 0 0 1 .06-.24v-.66a5.29 5.29 0 0 0 0-.66 4.82 4.82 0 0 1 0-.64l1.05 1.69 1.19-.64V41a3.88 3.88 0 0 0-.06-.44.28.28 0 0 1 0-.16 2.15 2.15 0 0 0 .24.54 1.81 1.81 0 0 0 .72.87.7.7 0 0 0 .2.1.47.47 0 0 0 .16-.1 1 1 0 0 0 .22-.2 1.56 1.56 0 0 0 .42-1.11 1.92 1.92 0 0 0-.16-.54l-.19-.44a.81.81 0 0 1-.06-.72l-.58-.38a4.12 4.12 0 0 0-.54-.28 3.78 3.78 0 0 1-1.15.7.53.53 0 0 1-.24.06l-.3.72-1 .48-.64-.16-.2.46a1.73 1.73 0 0 1-1.81.36l1-.6a2.14 2.14 0 0 0 0-.66 8.68 8.68 0 0 1-.16-1.23l1.43 1.55q.52-.5 1-1a.3.3 0 0 0 .08-.16l-.64-1 .56-.28-1-.36h-.06a.23.23 0 0 1-.22-.1.19.19 0 0 1-.1 0h-.18l-1-.4a.38.38 0 0 1-.12.28.58.58 0 0 1-.36.12.24.24 0 0 0-.16.12h-.15l-.06.06a.13.13 0 0 1-.1 0l-.08.06-.22.12a4.14 4.14 0 0 1-3.2.14 2.26 2.26 0 0 1-.62-.26.06.06 0 0 0 0-.06L44 37a.21.21 0 0 0-.12 0l-.06-.06-.06-.06h-.08l-.6-.54V36l-.89.58h-.82a.65.65 0 0 0-.2 0H41a.7.7 0 0 1-.22 0h-.2a.19.19 0 0 0-.1 0h-.08l-.36.06h-.28a.75.75 0 0 1-.3.06h-.08a.25.25 0 0 1-.1.06h-.06a.44.44 0 0 1-.16.06H39a.46.46 0 0 1-.26.08.13.13 0 0 1-.1 0h-.12l-.14.06"/><path class="cls-12" d="M45.45 39.94a2 2 0 0 1 .38-.36l.12 1.25-.16-.08a2.49 2.49 0 0 1-1.31.44 1.36 1.36 0 0 1-.52-.14 1.18 1.18 0 0 1-.54-.12 1.92 1.92 0 0 1-.32-.22v-.18l2.13-.12a4 4 0 0 1 .26-.48m-2.07-1.07l-.42 1.5a3.45 3.45 0 0 1-1.05.18l-.72-.12a1.69 1.69 0 0 1-.62-.54.58.58 0 0 1-.22-.44l.3.26.52.06.3-.18a1.88 1.88 0 0 0 1.91-.72m4.4.24v-.08a2.6 2.6 0 0 1 .52 1.63 1.23 1.23 0 0 1-.22-.14 2 2 0 0 1-1.87.44 1.06 1.06 0 0 0 .91-.24 2.22 2.22 0 0 0 .3-.18l.36-1.43"/><path class="cls-13" d="M63.47 78.13q1.29 1.07.8-.87l-7.52-11.2a.06.06 0 0 0-.06 0h-.06a1.88 1.88 0 0 1-1.35.84.08.08 0 0 0-.08 0l.91 1.25z"/><path d="M51.36 61.75l-.6.64-.06.61.28.6.38.36a2 2 0 0 0 0 .64 2.17 2.17 0 0 0 .14.62.06.06 0 0 1 .06 0 3.4 3.4 0 0 0 .76.26.42.42 0 0 0 .22.06l.14.74.24.2h1.07l.36.42.85.06a.08.08 0 0 1 .08 0 1.88 1.88 0 0 0 1.35-.84h.06a.06.06 0 0 1 .06 0 2.78 2.78 0 0 0 .2-.4 4 4 0 0 0 .18-.42 11.25 11.25 0 0 0 .26-1.37l.16-.78-1.17-1-.74-.5a5.23 5.23 0 0 0-1.5-.65l-1.29-.36a2.76 2.76 0 0 0-.54-.06l.87 1.07L53 62l-.85.48-.12.06-.62-.76h-.08m-28.85-24h-.32a3.79 3.79 0 0 1-.78 0h-.7l-.66-.06H20a4.51 4.51 0 0 0-.6 0l-.48-.06h-.24a.62.62 0 0 1-.32 0 4 4 0 0 0-.58-.08l-.34-.06-.12-.06h-.12a.21.21 0 0 1-.12 0 4.12 4.12 0 0 0 1 1.53q1.21 1.25 2.41 2.37a3.08 3.08 0 0 0 3.26.4 7.68 7.68 0 0 0 2.58-1.75l1.29-2.37a.19.19 0 0 0-.1 0h-.08a3.56 3.56 0 0 1-.85.06h-.36l-.2.12a1.83 1.83 0 0 0-1 1 .52.52 0 0 1-.24.14.75.75 0 0 0-.24 0q-.36-.48-.85-1.09a.82.82 0 0 1-.36 0h-.84m24.88-10.94a.06.06 0 0 1-.06 0h-.06a.25.25 0 0 0-.1-.06h-.06a.13.13 0 0 1-.08-.06l-.38-.36a1.77 1.77 0 0 1-.64-1.17l-.64-.06-.6 1.29-3.45 1.92a17.23 17.23 0 0 0 .15 2.34c-.05.91 0 1.42 0 2.36s1 1.09 1.7 1.69l-.06.06-.1 1v.34l.6.54h.08l.06.06s0 .06.06.06a.21.21 0 0 1 .2.12s0 .06.06.06a.06.06 0 0 1 0 .06 2.26 2.26 0 0 0 .62.26 4.14 4.14 0 0 0 3.2-.14q-.14-.72-.26-1.47a11.29 11.29 0 0 0 1.53-1.55c.24-.3.9-.47 1-.87a7.55 7.55 0 0 0 .32-2c0-1 .33-2-.12-2.79s-2.13-1.33-3-1.57" fill="#f3bc84"/><path class="cls-3" d="M47 44.83l-.68.26.14 2a41.41 41.41 0 0 1-.46 8.49l-.64 3.12h.4l.54-.68.58.68h.38l.66-3.12a42.54 42.54 0 0 0 .66-8.85l-.08-1.85-1.5-.05"/><path class="cls-6" d="M49.53 24a10.85 10.85 0 0 0-2.39-.6 9.84 9.84 0 0 0-2.84.3 4 4 0 0 0-1.11.28 8.11 8.11 0 0 0-1.13.38 14 14 0 0 0-1.43.54l.37 1.16a1.48 1.48 0 0 1 1.11-.6 14.86 14.86 0 0 1 2.66-.24h.62l.64.06 2.78.26q.84.12 1.73.3l1.17-.06.34-.72a3.44 3.44 0 0 0 .2-.56 11.39 11.39 0 0 1-2.72-.5z"/><path d="M47.68 35.72q.12.76.26 1.47l.22-.12.08-.06a.13.13 0 0 0 .1 0l.06-.06h.12a.24.24 0 0 1 .16-.12.58.58 0 0 0 .36-.12.38.38 0 0 0 .12-.28l.08-.24v-2a11.29 11.29 0 0 1-1.56 1.53z" fill="#e2b49c"/><path d="M40.88 26.72l-.12.24a10.47 10.47 0 0 1-.91 1.23 12.72 12.72 0 0 0-1.09 1.41 3.9 3.9 0 0 0-.76 2.66c0 .56 0 1.4.41 1.8a7 7 0 0 0 1.24 1.17l1.67.1.89.24.66-.45.31-.3c-.85-.33-1.78-.66-1.78-1.57s0-1.56.07-2.48a16.73 16.73 0 0 1-.1-2.31l3.39-2 .6-1.29h-.62a14.86 14.86 0 0 0-2.66.24 1.48 1.48 0 0 0-1.11.6l-.12.66m13 4.8l-.05-.4-1.28-2.75-.14-.18a.2.2 0 0 0 0-.08.08.08 0 0 0 0-.06.33.33 0 0 0 0-.08l-.22-.5q-.08-.3-.14-.64l-.22-.93-1.17.06q-.89-.18-1.73-.3l-2.9-.33a5.23 5.23 0 0 0 .28 1.07c1.21 1.7 4.25 2.23 4.25 2.23a13.81 13.81 0 0 1 0 3.16 5.38 5.38 0 0 1-.43 1.64c-.12.4-.66.48-.9.78v2l.66-.24c.52-.12.77.06 1.16-.14a6.68 6.68 0 0 1 1-.3l.87-.68a3.19 3.19 0 0 0 .36-.38 3.5 3.5 0 0 0 .75-1.93v-.84c0-.07-.13-.48-.1-.54s.22.23.35.35" fill="#a67c52"/><path d="M46.12 58.13l-1.68 2.29 1.9 2.53 1.92-2.49-2.14-2.33zm-3.4-22s2 1.83 3.39 1.56a13.74 13.74 0 0 0 3.08-1.16l1.07.09s-.89 1.83-3.93 1.74-4.28-1-4.48-1.59a8.72 8.72 0 0 0 .87-.64z" fill="#0065b7"/><path class="cls-12" d="M46.07 59.64l-.4 1.21.62.58.83-.9-1.05-.89z"/><path id="mazzo_asset_m_OttoCoppe_line_0_Layer1_0_1_STROKES" data-name="mazzo asset m OttoCoppe line 0 Layer1 0 1 STROKES" class="cls-2" d="M56 20.12a2.38 2.38 0 0 1 1.81 1.09 3.79 3.79 0 0 1 .58 1.59 3.68 3.68 0 0 1 0 1.07 5 5 0 0 1-.32 1.29 4.33 4.33 0 0 1-.87 1.19 1.18 1.18 0 0 0 .54.12 1.13 1.13 0 0 0 .76 0 1.67 1.67 0 0 0 .7-.2 2.55 2.55 0 0 0 1.25-1.19 4.66 4.66 0 0 0 .48-2.78 2.92 2.92 0 0 0-1.25-2.07 2.41 2.41 0 0 0-.36-.2 4.38 4.38 0 0 0-2.6-.36l.61.82m-5.62 5.3q.18-.36.32-.72t.22-.58a10.55 10.55 0 0 1-2.72-.5 9.54 9.54 0 0 0-2.39-.6 9.84 9.84 0 0 0-2.84.3 4.53 4.53 0 0 0-1.09.26 9.9 9.9 0 0 0-1.15.4q-.74.24-1.43.54a1.57 1.57 0 0 1-2.3-.56q-.28-.39-.57-.85a2.55 2.55 0 0 1-.2-2.48 3.36 3.36 0 0 1 .22-.44 14.37 14.37 0 0 1 1.57-1l1.13.06a4.21 4.21 0 0 1 3-.91h.1a.39.39 0 0 0 .18 0h.2l.1.06h.08a.19.19 0 0 0 .1 0h.14a.19.19 0 0 0 .1 0h.36l3.92.34q.56-.24 1.15-.46a7.59 7.59 0 0 1 1.71-.56l1.25.68.06.06h.06a.13.13 0 0 1 .12.08.06.06 0 0 0 .06 0h.08a.25.25 0 0 1 .1.06 1.14 1.14 0 0 0 .26.08l.46.18a4.06 4.06 0 0 1 1.67-.26 2.56 2.56 0 0 1 .54.06l.36.36m-29.17 18l-1.17 2.15.36.3a1.13 1.13 0 0 1 .18.18 2.41 2.41 0 0 1 .24.58 1.58 1.58 0 0 1 .06 1l-.44.68q.06.7.14 1.37a6.44 6.44 0 0 0 .72 2.21 6.75 6.75 0 0 0 .52.8h.2l.1-.1a9.45 9.45 0 0 1 1.15-1.29l.93-.62a3.56 3.56 0 0 1 1.25-2.09 4.67 4.67 0 0 1 .5-.4 13.24 13.24 0 0 1 1.37-2.82l.36-.58a.19.19 0 0 1 .12-.18.53.53 0 0 1 .3-.08l.1-.06h.06a.44.44 0 0 0 .18-.08l.1-.06a.08.08 0 0 0 .08 0l.22-.06h.08a.3.3 0 0 1 .12-.1h.06l.16-.06h.12l.3-.12h.08a.18.18 0 0 0 .16-.06s.05-.06.12-.06a.05.05 0 0 0 .06-.06l.14-.06h.16l1.39-.62.22-.06.14-.06h.12a.13.13 0 0 0 .1 0 .46.46 0 0 0 .37-.08h.06a.44.44 0 0 0 .16-.06h.06a.13.13 0 0 0 .08-.06h.1a.85.85 0 0 0 .3-.06h.26l.36-.06h.4a.65.65 0 0 0 .2 0h.18a.7.7 0 0 1 .22 0h.8l.91-.58.08-.87m11-15.49a2.16 2.16 0 0 1 .78 2.39 7.47 7.47 0 0 1-.28.91 5.5 5.5 0 0 1-.3.56 1.5 1.5 0 0 0 1 1.05h.58a1.24 1.24 0 0 0 .24-.16.84.84 0 0 0 .24-.08m.8 2.15l-1.09.3a3.15 3.15 0 0 1-.48-.46.67.67 0 0 1-.16-.18l-.14-.26a1 1 0 0 1 .12-.4 6 6 0 0 1 .48-.91m-7.14-5.11l1.69.6h.08l1.89.36m1.81 3l-.66.72-.3.16a.13.13 0 0 0-.06.06h-.06l-1 .18m-3 11.61l-.1.24 1 .4h.06a.06.06 0 0 0 .06 0h.14a.21.21 0 0 0 .2.1h.06l3.12 1.11.54.28.56.38.34.24a.15.15 0 0 1 0 .06.19.19 0 0 0 .1 0 1.6 1.6 0 0 0 .26.14h.08a.16.16 0 0 1 .12.08h.18v.06a.06.06 0 0 0 .06 0l.14.08.06.06.12.06.1.06a.12.12 0 0 1 .1.06h.06l.5.3-.24.36L57.86 42q2.78 4.35 3.9 6.58a7.7 7.7 0 0 1 .8 5A18.55 18.55 0 0 1 60 59.52l-1.6 2.63-.24.46q-.26.58-.62.42l-.16.78a11.25 11.25 0 0 1-.26 1.37l-.18.42a3.51 3.51 0 0 1-.2.38l7.5 11.17q.5 1.95-.78.85l-7.36-9.84-.1 1.12a.66.66 0 0 1-.14.42.61.61 0 0 1-.42.16l.24 1.41A37 37 0 0 1 54 89l-1.31 3.52-.36.74-.1.58.3.54a2.28 2.28 0 0 1 3.38-.06 1.64 1.64 0 0 1 .44 1.77 2.46 2.46 0 0 1-1.09 1.45 1.7 1.7 0 0 1-.12 2.6 1.89 1.89 0 0 1-2.25.24 6.32 6.32 0 0 1-.2 4.41 6.2 6.2 0 0 1-1.47 2.21 7.63 7.63 0 0 1-2.22 1.55l-2.31 6v.06l.06.06a3.61 3.61 0 0 1 .3.44 3.41 3.41 0 0 0 .87 1.11 4.43 4.43 0 0 0 1.47.82h23.32v7.44H14.46v-7.38h16l1.71-2.78a5.16 5.16 0 0 0 .42-3 48.53 48.53 0 0 1-.58-5.65 23.75 23.75 0 0 1 .46-5.89.74.74 0 0 0 0-.18 23.69 23.69 0 0 0 .42-5l-.14-.42a2.07 2.07 0 0 1 .48-2.31l-.84-1a6.93 6.93 0 0 1-.6-2.15v-.16a98.83 98.83 0 0 1 2.33-17.22l.32-1.53q-.12 0-.12-.06a15.93 15.93 0 0 1 .34-2.09 17.62 17.62 0 0 1 .52-1.79 7.72 7.72 0 0 1 .44-1.13q.28-.58.58-1.11l.48-.84.84-1.41.14-.26-.12-.36q-.06-.42-.08-.82a7.58 7.58 0 0 1 .48-3l.18-.14a5.6 5.6 0 0 1-.48-.72 13.52 13.52 0 0 1-1.11-2.29 20.13 20.13 0 0 1-.78-2.51A10.34 10.34 0 0 1 33 53.32a16 16 0 0 0-3 1.83 4.5 4.5 0 0 1-.78.5 4 4 0 0 1-2.82.24 4.06 4.06 0 0 1-1.93-1.29 8.41 8.41 0 0 1-1-1.43q-.72-1.09-1.37-2.21a17.61 17.61 0 0 1-1.1-2.59 1.05 1.05 0 0 1-.06-.22l-.52-1.43a.71.71 0 0 0-.06-.2l-.14-.46a16.61 16.61 0 0 0-.81-2.06l-.32-.42q-.42-.93 0-1.41a1.81 1.81 0 0 1 .76-.6 4.33 4.33 0 0 0 .74-.38q-1.19-1.11-2.43-2.37a4.3 4.3 0 0 1-.89-1.24m35.69-2.75l1.25-3 .1-.28-.12-1.13m-1.94-2.54l-.36-1.17m-8.82 9.19v.34l.6.54h.1a.13.13 0 0 0 .06.06s0 .06.06.06a.21.21 0 0 1 .11.1s0 .06.06.06a.08.08 0 0 1 0 .06 2.22 2.22 0 0 0 .64.26 4.09 4.09 0 0 0 3.18-.14l.22-.12.08-.06a.13.13 0 0 0 .1 0l.06-.06h.12a.24.24 0 0 1 .14-.12.53.53 0 0 0 .36-.12.38.38 0 0 0 .12-.28m1.11.46h-.06A.42.42 0 0 0 50 37a4 4 0 0 1-3 1.25 7.33 7.33 0 0 1-3.16-.18A3.63 3.63 0 0 1 42.15 37h-.06a.13.13 0 0 0-.09 0l-.16-.18-.14-.34m7.5-.3l-.11-1.71m4.68 3.72a4 4 0 0 1-1.17.7.53.53 0 0 1-.24.06l-.3.72-1 .48-.64-.16-.22.46a1.69 1.69 0 0 1-1.79.36l-.14-.1a1.23 1.23 0 0 1-.22-.14 2 2 0 0 1-1.87.44m9.23 1l-.06-.3-.52.3-.48.22h-.08a2.13 2.13 0 0 1-.6.6 2.39 2.39 0 0 1-1.49.76h-.3a2.74 2.74 0 0 1-.84.54 2.31 2.31 0 0 1-1.39.16l-.54.36.18 2a36.66 36.66 0 0 1-.62 9l-.76 3a7.49 7.49 0 0 0 3-.5.08.08 0 0 1 .08 0l.58-.26a5.81 5.81 0 0 0 .74-.42l.12-.12.72-1.43q.54-1.07 1.05-2.23a12.43 12.43 0 0 0 .89-2.64l.24-1.07a15.44 15.44 0 0 0 .42-2.56 21.28 21.28 0 0 0 0-2.9q-.06-1.12-.3-2.52zm-15-2.68a1.45 1.45 0 0 1 .18-.44l-.32.24a2.17 2.17 0 0 1-1.83-1.23 5.47 5.47 0 0 1-.3-.72m2.25 2.31a.61.61 0 0 0 .2.44 1.86 1.86 0 0 0 .64.54l.72.12a3.58 3.58 0 0 0 1.05-.23l.06.36a3 3 0 0 0 .34.22 1.18 1.18 0 0 0 .54.12 1.33 1.33 0 0 0 .5.14 2.42 2.42 0 0 0 1.31-.44l.16.08m-7.77 15.92l.32.36s.06.11.3.3l.64.38a3.14 3.14 0 0 0 .72.3 15.8 15.8 0 0 0 1.91.34q1 .08 2.39.14l.58-3a43.51 43.51 0 0 0 .5-8.39l-.12-2.11a.86.86 0 0 1-.72-.3l-.06-.06a2.19 2.19 0 0 1-.91.06 3.27 3.27 0 0 1-1.23-.26 3.4 3.4 0 0 1-.58-.3m4.63 2.84a41.27 41.27 0 0 1-.54 8.51l-.62 3.1h.38l.54-.68.18.2.55-2.63a37.84 37.84 0 0 0 .54-8.67v-1a5.8 5.8 0 0 0-.18-1.13 2.8 2.8 0 0 0-.89.28h-.06zm-.14-2h-1m-3.64-.78a2.7 2.7 0 0 1-1.17 0 1.55 1.55 0 0 1-1-.46l-.24-.24-.1-.5a1.57 1.57 0 0 0-.66 0 1.1 1.1 0 0 1-1.09-.24q-.4-.26-.78-.56a2.22 2.22 0 0 1-.42-.4 1.1 1.1 0 0 0-.4-.18l-.2-.08.24.68.24.66q.08.34.14.7l.22 1.07q0 .18.06.38l.18.8a7.19 7.19 0 0 1 .08 2.72 12.38 12.38 0 0 1-.44 1.91l-.58.66m13.4-6.62a2.42 2.42 0 0 1-.62.18l-.12.06.08 1.85a44.43 44.43 0 0 1-.66 8.85l-.66 3.1.78-.1m7.18-7.63l.4.6.46.78a1.11 1.11 0 0 0 .16.28l.24.38.24-.42 1.15-.48m-9.42-7.28l-1.13-.1M57 40.59a3.82 3.82 0 0 1-.44.34q-.6.42-1.13.74m-28.57.89a3 3 0 0 1-2 2.6h-.06a7.86 7.86 0 0 1-3.08.58h-.48m.08-1.74l-1.67.08-.24-.08m16.22-2.33a.62.62 0 0 1-.34-.16q-.38-.5-.68-1a2.8 2.8 0 0 1-.4-1 5 5 0 0 1-.16-.48m-10.17-1.1l.69.9a.75.75 0 0 1 .24 0 .52.52 0 0 0 .24-.14 2.23 2.23 0 0 1 .86-1.06M22.75 40a13.29 13.29 0 0 0 1.31-1l.12-.06a1.25 1.25 0 0 1 .4-.06m1.79 1a7.49 7.49 0 0 1-2.56 1.73 3 3 0 0 1-3.26-.38m4.71 2.39l1.53-1m4.77 2.33h-1m3.9 24.81l1.75.14q.84.06 1.69.06h.89l5.57-.64 1.85-6.6-.48-.6a18.22 18.22 0 0 1-3.06-.12q-.93-.12-1.89-.3h-.2l-1-.22-.6-.14a.21.21 0 0 0-.12 0l-1.31-.62m20 2.33l-1.17-1q-.12-.1-.74-.52a5.23 5.23 0 0 0-1.53-.66l-1.27-.36a2.76 2.76 0 0 0-.54-.06l.85 1.07-.14.32-.87.48-.12.06-.6-.74h-.08l-.62.62-.06.58.28.6.38.36h.06a1.83 1.83 0 0 0 1.62-.06M56.47 53a4.93 4.93 0 0 0-.52.46A20.64 20.64 0 0 0 53 58.81a7.69 7.69 0 0 1 1-.06 4.51 4.51 0 0 1 .6 0 4.37 4.37 0 0 1 2.7 1.37l.12.14M56.71 66a.06.06 0 0 0-.06 0h-.06a1.88 1.88 0 0 1-1.35.84.08.08 0 0 0-.08 0l.91 1.25m-3.78-7.71l-.72-.84a.55.55 0 0 0-.6.24 2.75 2.75 0 0 0-.34.48l.18.38.58.89v.06m0-.06l-.06.06-4.14.24-.72.93.53 1.85q.48 1.75 1.13 3.48.12.36.28.72l6.9.16h.06a.79.79 0 0 1 .68.32m-3.76-8.83l.42-.93q.44-2.21-.34-2.17m.63 1.45q-.16.34-.3.72m-5.5 2.42l1.05-1.49-1.43-1.83-.4-.48m.78.52h-.38m-1.49 0l-.93-.1m1.89 2.86l-.76-.8.76-1 .84.89zm-.58-2.8l-1.27 1.79 1.31 1.67m.48.6l.26.2m7.73 1.87a5.65 5.65 0 0 1-1.49.66.37.37 0 0 1-.24.1l.16.72.24.2h1.07l.3-.12a4.79 4.79 0 0 0 1.33-.89m-4.23-1.53a1.91 1.91 0 0 0 0 .62 2.4 2.4 0 0 0 .14.64h.06a3.68 3.68 0 0 0 .76.28.32.32 0 0 0 .2.06m2.66 1.43l-.84-.06-.34-.41m1.49 3.4l-.22-.86m-12 21.83v-.54l-.27.51-.8.89-.6.6a4.94 4.94 0 0 1-1.51 1.33q.06.76.06 1a2.45 2.45 0 0 1-.06.72 5.57 5.57 0 0 1 2-1.91l.24-.06.52.16a2.89 2.89 0 0 1 .22 1.31q0 .42-.1.87l-.54.24a1.29 1.29 0 0 1 .78.68 1.61 1.61 0 0 1-.26 1.23l-.44.32h-1a11.8 11.8 0 0 0-1-.89 6.83 6.83 0 0 1-.7-.62 17.44 17.44 0 0 1 2.09 5 2.13 2.13 0 0 1-.14 1.53q-.58 1.35-1 2.72h-.12a.06.06 0 0 1-.06 0 4.48 4.48 0 0 1-.42-.48q-.24-.24-.46-.5a26.66 26.66 0 0 1-1.7 4.6 15.92 15.92 0 0 0-1.24 4.46 1.6 1.6 0 0 1 .14.26 6.12 6.12 0 0 1 .24 2.31q0 .26-.06.54h4.29l.78-3 .52-.36q.12-.54.22-1.11a33.66 33.66 0 0 0 .26-4.77v-.78q-.1-2.27-.16-4.51v-.76a9.83 9.83 0 0 1 1.51-5.67 2.2 2.2 0 0 1 0-.42q.1-.42.24-.84a2.13 2.13 0 0 0-.12-.58 5.64 5.64 0 0 0-.2-.72 3.21 3.21 0 0 1-1.05-2.15l-.1-.64zM45.83 76a1.16 1.16 0 0 0 0 .32m0 .58a34.87 34.87 0 0 1-.42 5.37A36.63 36.63 0 0 1 43.74 89l-.5 1.25m9.4 2.33l-.22.26-.14.48m-7.91.24a6.22 6.22 0 0 0 5.27.48 23.13 23.13 0 0 0 2.78-1.19l.22-.3m-4 4.51l.54.24a3.46 3.46 0 0 0 3.18-1l.08-.38.12-.36a1.35 1.35 0 0 0-.06-1.17m2.56 1.31a.87.87 0 0 1-.2.18 2.28 2.28 0 0 1-2.43 0m1.89 3.34a2 2 0 0 1-.48-.16A3.37 3.37 0 0 1 52 97.42a4.37 4.37 0 0 1-.44.42l-.6.46a4.31 4.31 0 0 0 1.27 1.7l.62.4M49 108.55l.89-2.8A2.78 2.78 0 0 1 50 105a20.45 20.45 0 0 0 .78-5.63v-1l-1.13.26-.42.1a4.55 4.55 0 0 1-4.81-2.6m6.46 2.19h-.06m4.39-.76a3.17 3.17 0 0 1-1.79 0l-.66-.24-.48-.72-.34.74m.34-.74l.06-.34m-.16-2.45a2.76 2.76 0 0 1-2.31 1.49 8.94 8.94 0 0 1-5.19-.54m-2.27 1.05l-.89-.1-.84-.26h-.7a1.29 1.29 0 0 1-.24.38v.18a9.67 9.67 0 0 1 1.07.34 3.79 3.79 0 0 1 .56.26m-8.45-2.21a5.52 5.52 0 0 0 2.7 2.21 6.62 6.62 0 0 0 2.11.36 2 2 0 0 0 1.77-.38l.08-.22.16-.36m.26-.6a2.33 2.33 0 0 0 .1-.28m2.45-.6a1.91 1.91 0 0 0-.58.22 8.14 8.14 0 0 0-1.27.64m.91-3.26a6.43 6.43 0 0 1-1 .32 15 15 0 0 1-2 .42 7.08 7.08 0 0 1-4.61-.56 5 5 0 0 1-.74-.48 4.7 4.7 0 0 0 5.07 2.31 5.59 5.59 0 0 0 1.77-.52m-.6 3.12l.32 1.43a8.28 8.28 0 0 1 .72 5.09m-.72-6.64l-.24-.1m.24 1.65a28.55 28.55 0 0 1 0 5.43q-.06.6-.16 1.23m11.07-5.45a6.77 6.77 0 0 1-.32 5.47 4.38 4.38 0 0 1-.6.89m2.12-1.74l.12-1a23.87 23.87 0 0 0 .18-3m-10.85 17.1a3.22 3.22 0 0 0-.06 1.63l.1.54.16.14a14.89 14.89 0 0 0 2.47 1l.5.06.22-.54a8 8 0 0 0 2.68 1.31 18.5 18.5 0 0 0 2.76.48 20.31 20.31 0 0 1 2.54 0h.52l1.39-.12a2.55 2.55 0 0 0 .84-.48 1 1 0 0 0 .2-.22l-.14-.48a20.2 20.2 0 0 0-2.92-1.81q-1.31-.72-2.72-1.31a.78.78 0 0 0-.18-.1l-.14-.12a.44.44 0 0 1-.18-.08m-2.66-2.39v-.06l-.06-.06h-1.41a5.88 5.88 0 0 1-1.39-.24 5 5 0 0 1-1.23-.66m4 .89h-.06M34.4 94.73a6 6 0 0 0 1.55.93l1 .48a2.6 2.6 0 0 0 2.8-.16m-3 18l-1 .36a4.77 4.77 0 0 1-3.58 0m-1.71 2.78q-.78 1-1.67 1.93T27 120.78q-.54.48-1.17 1a4.28 4.28 0 0 0-1.31 1.73.69.69 0 0 0 .14.14l.24.12a1 1 0 0 0 .48.18h.06a3 3 0 0 0 .5 0 4.61 4.61 0 0 0 1.71-.24.21.21 0 0 0 .12 0 .7.7 0 0 0 .4-.12l.12-.06.32-.12a.53.53 0 0 0 .28-.12l.12-.06a9.4 9.4 0 0 0 2.56-1.37 12.53 12.53 0 0 0 2-1.75q.24-.28.48-.52l.34.3a11.84 11.84 0 0 0 2.25-1.65 1.81 1.81 0 0 0 .24-.42 6.67 6.67 0 0 0 .2-.74"/><path id="mazzo_asset_m_OttoCoppe_line_0_Layer0_0_1_STROKES-2" data-name="mazzo asset m OttoCoppe line 0 Layer0 0 1 STROKES" class="cls-2" d="M16.15 37.13a16.39 16.39 0 0 0 2.22.5 17.36 17.36 0 0 0 2.93.18q2.88-.06 5.77-.32a5.84 5.84 0 0 0 1.59-.32l.12-1.85-.4.12-.18.06a19.64 19.64 0 0 1-11.2-.06l-.38-.12-.3-.12zm3.14 1.47l-.92-1m-1.78-2.31"/><path class="cls-2" d="M45.19 25.39s-.64 1.91-3.85 3.08m.24-.03s-.1 4.35 0 4.92A2.72 2.72 0 0 0 43.25 35c.9.4 1.94 1.41 2.34 1.47a3.11 3.11 0 0 0 2.54-1.07c.94-1 1.74-1.67 2.07-2.21a10.18 10.18 0 0 0 .2-4.52m-4.47-3.34s-.2 1 1.37 2 3.21.9 4.15 1.61"/><path class="cls-18" d="M42.7 29.58a1.46 1.46 0 0 1 2.19-.07 9.21 9.21 0 0 1 .11 1.16"/><path class="cls-2" d="M42.64 28.84s1.32-1 2.23.09"/><path d="M43.28 29.29a1.65 1.65 0 0 0 .17.91.76.76 0 0 0 1.05-.07c.17-.3-.07-.89-.07-.89s-.91-.33-1.15.05z"/><circle class="cls-1" cx="44.15" cy="29.43" r=".2"/><path class="cls-2" d="M46.78 29a1.82 1.82 0 0 1 2.22-.39"/><path class="cls-18" d="M49 29.46s-1.36-1-2.09.17"/><path d="M47.38 29.44s-.08.65.2.89 1 .08 1-.3a2.78 2.78 0 0 0-.22-.84s-.83-.19-.98.25z"/><circle class="cls-1" cx="48.12" cy="29.49" r=".18"/><path class="cls-18" d="M44.8 31.77a2.54 2.54 0 0 0 .57.84.83.83 0 0 0 .94 0c.13-.17.57-.08.65-.79m-2.34 1.5v.25a1.52 1.52 0 0 1 0 .28m.1-.26a7.16 7.16 0 0 0 1.07.12 3.18 3.18 0 0 0 1.25 0m-.04-.32a3.33 3.33 0 0 0 .1.57m-1.68.62a.69.69 0 0 1 .72-.1"/><path class="cls-2" d="M43 35c-1.47.9-4.85.54-5-2.61s1.77-4 2.48-5S41 26 41 26l-.37-1m11.05.86a8.78 8.78 0 0 0 1.51 3.88 4 4 0 0 1-.3 5.12 4.87 4.87 0 0 1-3.58.94M41 26s2.93-1.64 10.57-.05"/></g></g></svg>