<svg xmlns="http://www.w3.org/2000/svg" viewBox="0 0 87 140"><defs><style>.cls-1{fill:#fff}.cls-2{fill:#f3bc84}.cls-6{fill:red}.cls-7{fill:#0065b7}.cls-9{fill:#325723}.cls-13{fill:#a67c52}.cls-14,.cls-18{fill:none;stroke:#000;stroke-linecap:round;stroke-linejoin:round}.cls-14{stroke-width:.4px}.cls-18{stroke-width:.3px}</style></defs><g id="Livello_2" data-name="Livello 2"><g id="Livello_1-2" data-name="Livello 1"><path class="cls-1" d="M6 0h75a6.02 6.02 0 0 1 6 6v128a6.02 6.02 0 0 1-6 6H6a6.02 6.02 0 0 1-6-6V6a6.02 6.02 0 0 1 6-6z"/><path class="cls-2" d="M38.83 32.23l-.43 1.08.07 1.14-.11 1.65 2.17.64 1.36-.62 2.46-1.16 1.55-1.13.8-1.55.16-.55c.1-.06 0-.3.1-.35l.06-.2.02-.07q.04-.55.04-1.1l.02-2.48a8.55 8.55 0 0 0-.34-1.15.43.43 0 0 1-.06-.14.03.03 0 0 1-.04-.03q-.33-.46-.7-.9a.67.67 0 0 0-.14-.14 2.52 2.52 0 0 0-.39-.23.68.68 0 0 1-.17-.06l-1.13-.46a1.87 1.87 0 0 1-.84-.65l-.33-.73h-.38a3.1 3.1 0 0 1-.96 1.11 4.61 4.61 0 0 1-2.32.83v.29l-.25 1.78.1 1.2-.2.74.03 1.64-.74.68.68.07.07.4-.16.45"/><path d="M35.76 115.87a.31.31 0 0 0-.06.2c0 .1 0-.02-.02.08v.06a.43.43 0 0 1-.06.13.5.5 0 0 1-.02.16q-.04.29-.06.6v.07l-.06.15a.27.27 0 0 1-.03.16.48.48 0 0 1-.06.11.98.98 0 0 1-.38.44.2.2 0 0 1-.16.06.61.61 0 0 0-.23.08.24.24 0 0 1-.06.1.11.11 0 0 1-.07.01 1.25 1.25 0 0 0-.14.08.38.38 0 0 1-.23.05.56.56 0 0 0-.13.02l-.6.18a.44.44 0 0 0-.15.03.7.7 0 0 0-.29.08.06.06 0 0 0-.05.04.2.2 0 0 1-.16.06.43.43 0 0 1-.13.05.89.89 0 0 1-.38.04q-.14-.04-.1-.2.04-.35-.33-.28h-.07a.43.43 0 0 1-.14.06.65.65 0 0 1-.23.1.15.15 0 0 0-.05.02 1.32 1.32 0 0 1-.23.25.18.18 0 0 0-.1.07.28.28 0 0 1-.2.17.3.3 0 0 0-.18.16.05.05 0 0 1-.06.06.48.48 0 0 1-.12.05q-.23.16-.44.33a.18.18 0 0 1-.13.06.92.92 0 0 0-.25.1q-.02.05-.06.05a.48.48 0 0 0-.11.06 1.95 1.95 0 0 1-.46.2.21.21 0 0 1-.1.03l-.21.1-.35.13a.11.11 0 0 1-.1.05 1.68 1.68 0 0 0-.28.12q-.04.04-.06.04a.43.43 0 0 1-.15.06 3.16 3.16 0 0 1-.52.1.36.36 0 0 0-.11.01.13.13 0 0 1-.1.04.5.5 0 0 1-.15.02 1.19 1.19 0 0 0-.29.04l-.15.05a.08.08 0 0 1-.06.02.43.43 0 0 1-.13.06 1.99 1.99 0 0 1-.25.08.42.42 0 0 1-.14.02 3.28 3.28 0 0 0-.55.11.27.27 0 0 1-.16.04 2.56 2.56 0 0 0-.6.12.42.42 0 0 1-.12.01 4.8 4.8 0 0 1-.6.04.44.44 0 0 1-.15-.04.15.15 0 0 1-.06-.01 1.9 1.9 0 0 0-.29-.06h-.1a.43.43 0 0 0-.13-.06q-.04 0-.06-.06a3.39 3.39 0 0 0-.3-.3.35.35 0 0 1-.12-.2v-.05a1.23 1.23 0 0 1 0-.31v-.08a.43.43 0 0 0 .06-.15.54.54 0 0 1 .21-.21.12.12 0 0 0 .06-.08.8.8 0 0 1 .44-.3.24.24 0 0 0 .1-.06l.34-.23a.94.94 0 0 1 .1-.06.94.94 0 0 1 .05-.1.08.08 0 0 1 .06-.01.96.96 0 0 0 .23-.1 2.48 2.48 0 0 0 .39-.27l.11-.11a4.49 4.49 0 0 0 .73-.5.18.18 0 0 0 .1-.08.13.13 0 0 1 .05-.06 1 1 0 0 0 .35-.25l.11-.11a1.25 1.25 0 0 0 .14-.12 3.2 3.2 0 0 1 .3-.23.26.26 0 0 0 .1-.11.76.76 0 0 0 .11-.1.24.24 0 0 0 .1-.05.8.8 0 0 0 .17-.21.24.24 0 0 0 .1-.06 4.59 4.59 0 0 0 .5-.4 4.28 4.28 0 0 0 .57-.68l-14 .32v8.65h58.02v-8.65l-4.31-.04c.03.13.05 0 .09.17a5.3 5.3 0 0 1 1.72.9 1.15 1.15 0 0 1 .48 1.36 2.33 2.33 0 0 1-1.82 1.57 8.31 8.31 0 0 1-5.27-.23 16.12 16.12 0 0 0-5.21-.83 15.13 15.13 0 0 1-5.47-.34 11.42 11.42 0 0 1-4.7-2.43l-.55-.45h-.42l.06.5a9.47 9.47 0 0 1-.35 4.72v.04a.9.9 0 0 1-.29.32.18.18 0 0 1-.1.08q-.15.21-.28.36a.57.57 0 0 1-.06.08.24.24 0 0 1-.1.06.32.32 0 0 0-.01.1q-.04.07-.08.07a2.43 2.43 0 0 0-.4.48.17.17 0 0 1-.1.1.3.3 0 0 0-.11.07.53.53 0 0 1-.52.1.06.06 0 0 1-.06-.04c-.18-.08-.14-.25-.26-.33a1.89 1.89 0 0 1-.47-.31c-.08-.14-.17-.13-.25-.24a.08.08 0 0 1-.02-.06 2.37 2.37 0 0 0-.24-.57.94.94 0 0 0-.06-.1l-.06-.15a3.16 3.16 0 0 0-.17-.4l-.06-.16a.4.4 0 0 0-.1-.29.94.94 0 0 0-.05-.1 2.86 2.86 0 0 0-.06-.28v-.06l-.06-.15a.31.31 0 0 0-.02-.08 2.82 2.82 0 0 0-.1-.3.36.36 0 0 0-.01-.12.2.2 0 0 0-.04-.08.27.27 0 0 1-.04-.15l-.02-.6v-.13c-.02-.8-.04-1.35-.01-2.1v-.06l-6.43-.02m-6.63-52.32a9.75 9.75 0 0 0-3.22-.92l-2.5 4.68-.47 3.2a31.15 31.15 0 0 0 .1 3.87q.28 3.1.32 5.9.02 1.04 0 2a18.82 18.82 0 0 0 2.1 8.24q.95 2.02 1.85 4.03.97 1.92 2.37 4.5Q28 92.36 27.45 89a35.35 35.35 0 0 1-.52-6.2 3.57 3.57 0 0 1 1.04-2.58 6.34 6.34 0 0 1 2.01-1.54l.92-.34 1.29-.5a3.8 3.8 0 0 0 2.09-3.76 12.78 12.78 0 0 1 .28-3.18q.6-2.51 1.17-5.04a8.32 8.32 0 0 1 .75-2 2.81 2.81 0 0 1 .12-.26 11.44 11.44 0 0 0-1.3-1.42 4.98 4.98 0 0 0-1.18-.67 4.97 4.97 0 0 0-4.16 2.2 2.32 2.32 0 0 1-.8-.17M59.58 43.5a5.65 5.65 0 0 0-.7-1.06l-.45-.5a12.35 12.35 0 0 1-1.23.5l.94 2.11a6.86 6.86 0 0 0 1.77 3.13q.34.28.73.55v-.04l-.4-2.37a13.8 13.8 0 0 0-.39-1.52 7.43 7.43 0 0 0-.27-.8m-8.34 0l-1.1.32 1.98 1.65 1.48.65a1.04 1.04 0 0 0-.11-.2l-.33-.6a10.14 10.14 0 0 0-1.44-1.96q-.25.06-.48.14m4.24-.64a6.24 6.24 0 0 0-.98 0l.86 2.11L58 47.14a10.97 10.97 0 0 0-1.07-2.4 9.89 9.89 0 0 0-1.44-1.88m-17.6 2.23a21.57 21.57 0 0 1-3.03-.35h-.08q-1.22-.13-2.43-.32l-.8 4.02a16.4 16.4 0 0 0 3.14 7.58 1.79 1.79 0 0 1 .36.69q.2.32.39.7a12.99 12.99 0 0 1 1.1 3.2q.18.89.4 1.77v-.77q-.07-.57-.1-1.17-.06-.76-.08-1.53l-.04-.17q-.06-1.46-.04-2.94.04-1.49.2-2.93l.11-1a1.3 1.3 0 0 0 .02-.2q.06-.54.15-1.04.1-.56.17-1.07.3-2.25.56-4.47m11.9-25.13a1.5 1.5 0 0 0-.36.2 6.09 6.09 0 0 0-2.22 1.81q-.5-.2-.98-.35a9.43 9.43 0 0 0-1.78-.28q-.39-.04-.77-.04l-.4-.02a2.98 2.98 0 0 0-.3-1.7q-.28-.62-.58-1.23-.16-.27-.27-.5a8.89 8.89 0 0 0-.48.8 1.26 1.26 0 0 1-.14-.46 15.07 15.07 0 0 1-.26-1.6 5.75 5.75 0 0 0-1.06 1.6 4.44 4.44 0 0 0-3.8-.61l2.92 4.9q.27.41.56.81h.01l2.7-.25h.4a12.95 12.95 0 0 1 2.7.52q.82.3 1.49.6a10.68 10.68 0 0 1 2.15 1.43.03.03 0 0 1 .03-.04q.56-.69 1.14-1.28a16.97 16.97 0 0 1 4.46-3.41 5.64 5.64 0 0 0-3.31 0l-.66-2.02-.94 1.4v-.05z" fill="#980805"/><path d="M35.54 112.84l-.3-.04-.2.94a3.03 3.03 0 0 1-2.41.38q-.56-.29-1.1-.61l-.38-.31.04-.25a2.33 2.33 0 0 0-.34.2 3.86 3.86 0 0 0-1.5 1.14l-.1.1a.18.18 0 0 1-.1.08.76.76 0 0 0-.1.1.48.48 0 0 1-.06.1.21.21 0 0 1-.02.1.94.94 0 0 0-.1.06 3.49 3.49 0 0 1-.27.38 2.2 2.2 0 0 1-.38.35.24.24 0 0 1-.06.1 4.28 4.28 0 0 1-.57.67 4.59 4.59 0 0 1-.5.4.24.24 0 0 1-.1.06.8.8 0 0 1-.17.2.24.24 0 0 1-.1.06.76.76 0 0 1-.11.1.26.26 0 0 1-.1.11 3.2 3.2 0 0 0-.3.23 1.25 1.25 0 0 1-.14.12l-.11.11a1 1 0 0 1-.35.25.13.13 0 0 0-.06.06.18.18 0 0 1-.1.08 4.49 4.49 0 0 1-.72.5l-.12.11a2.48 2.48 0 0 1-.38.27.96.96 0 0 1-.23.1.08.08 0 0 0-.06.01.94.94 0 0 0-.05.1.94.94 0 0 0-.1.06l-.34.23a.24.24 0 0 1-.1.06.8.8 0 0 0-.44.3.12.12 0 0 1-.06.08.54.54 0 0 0-.21.21.43.43 0 0 1-.06.15v.08a1.23 1.23 0 0 0 0 .3v.06a.35.35 0 0 0 .12.2 3.39 3.39 0 0 1 .3.3q.02.06.06.06a.43.43 0 0 1 .14.06h.1a1.9 1.9 0 0 1 .28.05.15.15 0 0 0 .06.02.44.44 0 0 0 .15.04 4.8 4.8 0 0 0 .6-.04.42.42 0 0 0 .13-.02 2.56 2.56 0 0 1 .6-.11.27.27 0 0 0 .15-.04 3.28 3.28 0 0 1 .55-.11.42.42 0 0 0 .14-.02 1.99 1.99 0 0 0 .25-.08.43.43 0 0 0 .13-.06.08.08 0 0 0 .06-.02l.15-.05a1.19 1.19 0 0 1 .29-.04.5.5 0 0 0 .15-.02.13.13 0 0 0 .1-.04.36.36 0 0 1 .11-.02 3.16 3.16 0 0 0 .52-.1.43.43 0 0 0 .15-.05q.02 0 .06-.04a1.68 1.68 0 0 1 .29-.12.11.11 0 0 0 .1-.05l.34-.14.21-.1a.21.21 0 0 0 .1-.01 1.95 1.95 0 0 0 .46-.21.48.48 0 0 1 .11-.06q.04 0 .06-.06a.92.92 0 0 1 .25-.1.18.18 0 0 0 .13-.05q.21-.17.44-.33a.48.48 0 0 0 .12-.05.05.05 0 0 0 .06-.06.3.3 0 0 1 .19-.16.28.28 0 0 0 .19-.17.18.18 0 0 1 .1-.07 1.32 1.32 0 0 0 .23-.25.15.15 0 0 1 .05-.02.65.65 0 0 0 .23-.1.43.43 0 0 0 .14-.06h.07q.37-.07.33.27-.04.17.1.21a.89.89 0 0 0 .38-.04.43.43 0 0 0 .13-.05.2.2 0 0 0 .16-.06.06.06 0 0 1 .05-.04.7.7 0 0 1 .3-.08.44.44 0 0 1 .14-.03l.6-.18a.56.56 0 0 1 .13-.02.38.38 0 0 0 .23-.05 1.25 1.25 0 0 1 .14-.08.11.11 0 0 0 .07-.02.24.24 0 0 0 .06-.1.61.61 0 0 1 .23-.07.2.2 0 0 0 .15-.06.98.98 0 0 0 .39-.44.48.48 0 0 0 .06-.11.27.27 0 0 0 .03-.16l.06-.15v-.08l.06-.6a.5.5 0 0 0 .02-.15.43.43 0 0 0 .06-.13v-.06a1.26 1.26 0 0 0 .03-.3.31.31 0 0 1 .06-.2v-.03a.44.44 0 0 0 .06-.12v-.1a1.9 1.9 0 0 0 .06-.28.27.27 0 0 0 .04-.16l.05-.19a2.8 2.8 0 0 0-.44-1.93m7.84.96l-.42-.18-.06-1.11-.44.58a.83.83 0 0 0-.07.26 2.71 2.71 0 0 0-.14.56 2.99 2.99 0 0 0 0 .48l-.02 1.26v.06q-.04 1.13 0 2.32v.14l.02.59a.27.27 0 0 0 .04.15.2.2 0 0 1 .04.08.36.36 0 0 1 .02.11 2.82 2.82 0 0 1 .1.31.31.31 0 0 1 .01.08l.06.15v.06a2.86 2.86 0 0 1 .06.29.94.94 0 0 1 .05.1.4.4 0 0 1 .1.28l.06.15a3.16 3.16 0 0 1 .17.4l.06.16a.94.94 0 0 1 .06.1 2.37 2.37 0 0 1 .24.57.08.08 0 0 0 .02.06c.08.11.21.1.29.24.09.11.27.2.25.4a2.78 2.78 0 0 0 .44.24.06.06 0 0 0 .06.04.53.53 0 0 0 .52-.1.3.3 0 0 1 .11-.07.17.17 0 0 0 .1-.1 2.43 2.43 0 0 1 .4-.48q.04 0 .08-.08a.32.32 0 0 1 .02-.1.24.24 0 0 0 .1-.05.57.57 0 0 0 .05-.08l.29-.36a.18.18 0 0 0 .1-.08.9.9 0 0 0 .28-.32v-.04a9.47 9.47 0 0 0 .35-4.72l-.06-.5-.02-.32-.56-2.26-.94.78-.74.12a1.64 1.64 0 0 1-1.08-.18" fill="#f2f2f2"/><path d="M42.23 91.77a24.95 24.95 0 0 1-.15-5.16v-.11a.42.42 0 0 0-.02.13 2.43 2.43 0 0 0-.06.36 16.7 16.7 0 0 1-1.24 3.55 21.67 21.67 0 0 1-3.17 4.68 2.8 2.8 0 0 0-.32 1.51q0 1.15.1 2.32.05 1.04.07 2.19.04 1.13 0 2.32a7.26 7.26 0 0 1-.35 2.05 8.04 8.04 0 0 1-.44 1.11 10.4 10.4 0 0 0-.78 1.94l-.16.48a10.91 10.91 0 0 0-.26 1.28 2.5 2.5 0 0 0 .65.23 1.68 1.68 0 0 1 .29.12l.15.05a.86.86 0 0 0 .2.14.43.43 0 0 1 .14.05l.6.14a1.05 1.05 0 0 0 .13.06.44.44 0 0 0 .16.03 1.9 1.9 0 0 1 .28.06.49.49 0 0 1 .25.1.17.17 0 0 0 .12.06.61.61 0 0 1 .23.07 11814.3 11814.3 0 0 0 .23.12 21.4 21.4 0 0 1 2.5 1.13 9.97 9.97 0 0 1 1 .57.83.83 0 0 1 .08-.26q.21-.3.44-.58l.04-1.44a4.3 4.3 0 0 1 .06-.7 5.14 5.14 0 0 0-.33-2.6 8.25 8.25 0 0 1-.27-5.54 12.84 12.84 0 0 0 .45-4.77q-.27-2.82-.62-5.7m17.22-15.54a58.62 58.62 0 0 0 .34-6.67l-6.23-.54q.33 1.5.62 3.01.59 3.05.93 6.2a22.56 22.56 0 0 1 .2 2.28l-.2 2.26-.13 2.2a2.35 2.35 0 0 1-1.44.79 4.94 4.94 0 0 0-.5.1l-.1.55a15.81 15.81 0 0 1-1.77 4.85 11.38 11.38 0 0 0-1.37 3.64 26.87 26.87 0 0 0-.46 5.37q0 .71-.05 1.42-.08.46-.14.94-.13.9-.36 1.82-.25 1.07-.54 2.13a.44.44 0 0 0-.04.15 10.56 10.56 0 0 0-.28 1.1 21.23 21.23 0 0 1-.94 3.25l-.62 1.46 1.04-1.46a26.29 26.29 0 0 1 3.66-3.74q3.09-2.6 3.55-5.25a26.35 26.35 0 0 0 .36-5.7 19.99 19.99 0 0 1 .94-6.55q1.02-3.45 2.07-6.8a39.14 39.14 0 0 0 1.46-6.8M55.1 55.56q-.38-1.18-.74-2.56a13.74 13.74 0 0 1-1.21 5.27 11.27 11.27 0 0 1-1.27 2.16 4.97 4.97 0 0 1 .27.6.56.56 0 0 1 .02.13l-.02 1.25a.24.24 0 0 1-.04.13.43.43 0 0 1-.05.16.15.15 0 0 1-.02.05.45.45 0 0 0-.16.1l.12.3.34 1.25q.16.46.27.94.37 1.27.65 2.53l6.48.5a31.54 31.54 0 0 0-.44-4.24q-.44-.78-.82-1.59-.61-1.28-1.17-2.37l-.96-1.84q-.11-.22-.25-.43a13.11 13.11 0 0 1-1-2.34m-24.36 26.2q0-1.3.11-2.62.04-.42.04-.82l-.92.34a6.34 6.34 0 0 0-2.01 1.54 3.57 3.57 0 0 0-1.04 2.59 35.35 35.35 0 0 0 .52 6.19q.54 3.37 2.26 10.04l.1.18q.21.4.48.84a18.56 18.56 0 0 1 .75-6.42 17.15 17.15 0 0 0 .69-6.39q-.04-.36-.06-.74v-.1l.11-2.38-1-.38v-.23q-.03-.5-.03-1a5.54 5.54 0 0 1 0-.65z" fill="#0d3a12"/><path class="cls-6" d="M60.5 79.77q0-1.23.06-2.44-.3 2.32-.77 4.49a47.32 47.32 0 0 1-1.72 5.94 26.39 26.39 0 0 0-1.46 6.44q-.35 3.51-.46 6.77-.04.34-.06.7-.15.7-.34 1.45a5.85 5.85 0 0 1-.92 1.88 6.56 6.56 0 0 1-.98 1q-.42.38-.84.72l-.77.65a20.88 20.88 0 0 0-2.55 2.44 12.82 12.82 0 0 0-1 1.2 5.73 5.73 0 0 0-.7 1.2 2.8 2.8 0 0 1-.16.42 5.7 5.7 0 0 0-.35 1.76 5.42 5.42 0 0 0 .12 1.26l.1.44a11.42 11.42 0 0 0 4.7 2.44 15.13 15.13 0 0 0 5.46.34 16.12 16.12 0 0 1 5.21.83 8.31 8.31 0 0 0 5.27.23 2.33 2.33 0 0 0 1.82-1.57 1.15 1.15 0 0 0-.48-1.36 5.3 5.3 0 0 0-1.72-.9l-.12-.45a3.56 3.56 0 0 0-3.18-2.58q-.57-.04-1.15-.04a9.06 9.06 0 0 0-2.17-1.5.36.36 0 0 0-.11-.02 4.41 4.41 0 0 0-4.75-1.88q-1.54.25-2.92.58a28.7 28.7 0 0 0 3.8-4.72 12.12 12.12 0 0 0 1.7-6.23q.06-3.7.14-6.94a46.15 46.15 0 0 1 .7-6.57 35.13 35.13 0 0 0 .6-5.98"/><path class="cls-7" d="M50.72 63.74q.46-.25.94-.48a.83.83 0 0 0 .08-.27.2.2 0 0 0-.08.04h-.05l-.39.02q-1.91.25-3.75.33a4.8 4.8 0 0 1-.6.04l.5.51a6 6 0 0 0 3.35-.19m-19.93 19.9l1 .38.01-1.1.39-.12a10.78 10.78 0 0 1 2.2-.31 12.38 12.38 0 0 1 2.26.1q.18.01.39.05h.02a15.92 15.92 0 0 0 3.31.12l13.12 1.1-.45 1.98a4.94 4.94 0 0 1 .5-.1 2.35 2.35 0 0 0 1.44-.78l.13-2.2a.17.17 0 0 0-.05-.12.3.3 0 0 1-.08-.11 1.73 1.73 0 0 0-.25-.17.75.75 0 0 0-.17-.1 1.31 1.31 0 0 0-.27-.1h-.06a1.05 1.05 0 0 1-.13-.05 1.08 1.08 0 0 1-.21-.02 2.8 2.8 0 0 0-.39-.1.31.31 0 0 1-.07-.02.48.48 0 0 1-.21-.04l-.04-.02q-1.2-.17-2.59-.44l-.46-.05-.23-5.89-.1-.82a6.84 6.84 0 0 0-3.2-5.16l-.78-.92-.87-.25a6.18 6.18 0 0 1-2.5-2.01 12.63 12.63 0 0 1-1.54-2.55l-.04-.02-.23-.42h-.27a4.54 4.54 0 0 0 .2.82 15.96 15.96 0 0 1-.77 10.83l-1.21 1a13.94 13.94 0 0 0-3.6 4.89h-1.3a6.33 6.33 0 0 0-2.94.84 5.54 5.54 0 0 0 0 .65q0 .5.04 1v.23m7.32-38.55h-.23l-.56 4.47q-.07.51-.17 1.07-.1.5-.15 1.03a1.3 1.3 0 0 1-.02.21l-.12 1q-.15 1.44-.19 2.93-.02 1.48.04 2.94l.04.17q.02.77.08 1.53a39.77 39.77 0 0 0 7.99.83q1.46-.04 2.93-.12a2.25 2.25 0 0 1 .4-.04 27.24 27.24 0 0 0 2.54-7.41q.15-.77.26-1.5l-.05-5.06q-1.11-.56-2.26-1.1l-.48-.22q-.5-.29-.96-.58-.3-.25-.56-.44-1.86.4-3.5.61 0-.42.03-.82l-.92-.1a8.7 8.7 0 0 1-2.18-.28l-.27-.1-.33.98h-1.36"/><path class="cls-7" d="M43.78 50.57l-2.83 2.74-2.57-3.18 3.03-2.51 2.37 2.95z"/><path d="M46.87 84.56l-2.74.86-2.05 1.2a24.95 24.95 0 0 0 .15 5.15q.35 2.87.62 5.7a12.84 12.84 0 0 1-.45 4.76 8.25 8.25 0 0 0 .27 5.55 5.14 5.14 0 0 1 .33 2.58 4.3 4.3 0 0 0-.06.71l-.04 1.44.06 1.11q.21.1.42.17a1.64 1.64 0 0 0 1.08.18l.3-2.5.02-.4q.37-3.74.56-7.28.27-4.97.75-9.93l.78-9.3m-10.12.4l-.27.21-1.55.08-3.26 1.25q.02.38.06.74a17.15 17.15 0 0 1-.7 6.39 18.56 18.56 0 0 0-.74 6.42q.23 3.2.67 6.38a34.21 34.21 0 0 1 .29 5.7l-.06.82-.04.25.39.3q.53.33 1.09.62l.23-2a52.61 52.61 0 0 0 .19-8.5 24.09 24.09 0 0 1 1.34-9.72 56.83 56.83 0 0 0 2.36-8.94m15.14-22.1a.45.45 0 0 1 .16-.1.15.15 0 0 0 .02-.05.43.43 0 0 0 .05-.16.24.24 0 0 0 .04-.13l.02-1.25a.56.56 0 0 0-.02-.13 4.97 4.97 0 0 0-.27-.6h-.05a.03.03 0 0 1-.04.04q0 .08-.06.08a.13.13 0 0 1-.06.06q-1.76.32-3.52.5a2.25 2.25 0 0 0-.4.03q-1.48.08-2.94.12a39.77 39.77 0 0 1-8-.83q.04.6.1 1.17.02.39 0 .77a4.36 4.36 0 0 1-.11.61q.88.12 1.74.21a2.34 2.34 0 0 0 .2.18.92.92 0 0 0 .9-.06l.72.06h.27l.23.42.04.02a12.63 12.63 0 0 0 1.53 2.55 6.18 6.18 0 0 0 2.51 2.01l.87.25q.44.1.88.15a4.75 4.75 0 0 0 1.28-.05 4.62 4.62 0 0 0 2.55-1.33 7.77 7.77 0 0 0 1.82-2.99l-.34-1.24-.12-.31m-.67.2q.2 0 .39-.03h.05a.2.2 0 0 1 .08-.04.83.83 0 0 1-.08.27 7.63 7.63 0 0 1-1.03 2.03 5.6 5.6 0 0 1-2.76 2 3.97 3.97 0 0 1-1 .2 3.31 3.31 0 0 1-2.16-.62l-.04-.02a4.74 4.74 0 0 1-.89-.71 8.04 8.04 0 0 1-1.93-2.7q2.47.09 5.02-.02a4.8 4.8 0 0 0 .6-.04q1.84-.08 3.75-.33m-10.27-9.74l2.83-2.74-2.37-2.95-3.03 2.51 2.57 3.18m1.4-2.85l-1.33 1.26-1.05-1.34 1.34-1.19 1.04 1.27M40.4 37.08a1.73 1.73 0 0 1-.15-.23 6.47 6.47 0 0 0-.63-.16q-.66-.23-1.33-.53a3.88 3.88 0 0 1 .08-.56q-7.96 1.05-10.45 7.4l-.29.82.64.1q1.53.11 3.12.29l.94.2q1.2.2 2.43.33h.08a21.57 21.57 0 0 0 3.03.35h1.6l.32-.98 2.2-6.46a21 21 0 0 1 1.17 6.94q-.04.4-.04.82 1.65-.2 3.51-.6l1.29-.33a1.51 1.51 0 0 1 .23-.06l1.99-.6 1.1-.32q.22-.08.47-.14a4.59 4.59 0 0 1 .63-.2 9.15 9.15 0 0 1 2.15-.3 6.24 6.24 0 0 1 .98 0h.11a11.47 11.47 0 0 0 1.61-.42 12.35 12.35 0 0 0 1.23-.5l.7-.23-.66-.65a28.32 28.32 0 0 0-11.43-6.57 1.58 1.58 0 0 1-.5 1.15 6.42 6.42 0 0 1-2.87 1.6 9.5 9.5 0 0 1-1.65.33q-1.15.08-1.34-.23l-.04-.03-.23-.23M66.27 68.5l.04-.87-1.15.71-.58.67a.26.26 0 0 0-.1.12A3.85 3.85 0 0 0 64 70a2.34 2.34 0 0 0-.17.6q-.27 1.41-.42 2.77a13.07 13.07 0 0 1-.5 2.65l-.12.38a12.87 12.87 0 0 1-1.38 1.82l-.4.44a2.81 2.81 0 0 0 .52.27.92.92 0 0 0 .27.16.81.81 0 0 1 .23.07q.44.21.3.98a3.4 3.4 0 0 0-.04.73q.18.42.56-.06a10.45 10.45 0 0 0 .73-1.15l1.07.33.23-.17a9.95 9.95 0 0 1 .23-3.38 4.14 4.14 0 0 1 .73-1.44 5.48 5.48 0 0 0 .92-1.99l.06-.42-.5-.08a1.68 1.68 0 0 1-.33-.19l-.02-.02a.53.53 0 0 1-.13-.15l-.06-.56a1.18 1.18 0 0 1-.11-.21.65.65 0 0 1-.02-.56q.08-.23.13-.46-.05-.26-.13-.53l-.15-.65.38-.62.4-.07m-2.57-4.24a1.98 1.98 0 0 1 .46-.27l-1.15-1.5a13.47 13.47 0 0 0-.23-1.43 31.06 31.06 0 0 0-2.47-7.04l-2.51-4.2q-.75-.25-1.48-.44a14.22 14.22 0 0 1-2.82-1.07 2.7 2.7 0 0 1-.44-.2q.27 1.52.62 3a2.43 2.43 0 0 1 .1.32 7.33 7.33 0 0 0 .5 1.4l.05.16.04.02q.36 1.38.74 2.56a13.11 13.11 0 0 0 1 2.34q.14.21.25.43l.77 1.05a5.13 5.13 0 0 0 1.01 1.15.72.72 0 0 1 .18.29 2.82 2.82 0 0 0 .11.27 10.87 10.87 0 0 0 1.98 2.45 10.84 10.84 0 0 1 .76.77 1.08 1.08 0 0 1 .27.36l.35.63.59.89q.34-.62.73-1.23.27-.35.6-.71M72.78 53l-.4-.18a1.84 1.84 0 0 0-1.15-.02l-.14-1.74a2.7 2.7 0 0 0-.57.5l-.56.7a2.86 2.86 0 0 1-.29-.05 2.4 2.4 0 0 0-1.34-.17 2.18 2.18 0 0 1 .44 1.5 19.24 19.24 0 0 1-.48 2.66 13.24 13.24 0 0 1-.94 2.41 10.83 10.83 0 0 0-.9 2.44 8.83 8.83 0 0 0-.2 2.64 3.96 3.96 0 0 1 1.4.48 1.05 1.05 0 0 1 .13.06l.4.29.02.02.76-.79a3.4 3.4 0 0 0 .33-.46 6.15 6.15 0 0 0 1-2.7q.15-1.25.3-2.7a12.36 12.36 0 0 1 .58-2.8 3.8 3.8 0 0 1 1.6-2.1z" fill="#febf10"/><path class="cls-9" d="M61.17 66.8l-.7-.9a.94.94 0 0 0-.06-.09 7.71 7.71 0 0 1-.6-.84l-.5-.83a31.54 31.54 0 0 1 .44 4.24l-6.48-.5q.16.56.3 1.13l6.22.54a58.62 58.62 0 0 1-.34 6.67 39.14 39.14 0 0 1-1.46 6.8q-1.05 3.36-2.07 6.81a19.99 19.99 0 0 0-.94 6.56 26.35 26.35 0 0 1-.36 5.7q-.46 2.64-3.55 5.24a26.29 26.29 0 0 0-3.66 3.74l-1.04 1.46-.23.54.56 2.26.44.32.56.44-.1-.44a5.42 5.42 0 0 1-.12-1.26 5.7 5.7 0 0 1 .35-1.76 2.8 2.8 0 0 0 .15-.43 5.73 5.73 0 0 1 .71-1.19 12.82 12.82 0 0 1 1-1.2 20.88 20.88 0 0 1 2.55-2.44l.77-.65q.42-.34.84-.73a6.56 6.56 0 0 0 .98-1 5.85 5.85 0 0 0 .92-1.87q.19-.75.34-1.44.02-.37.06-.71.11-3.26.46-6.77a26.39 26.39 0 0 1 1.46-6.44 47.32 47.32 0 0 0 1.72-5.94q.46-2.17.77-4.49.27-1.93.46-3.85a38.85 38.85 0 0 0 .15-6.67z"/><path d="M57.32 60.18q.56 1.09 1.17 2.37.38.8.82 1.6l.5.82a7.71 7.71 0 0 0 .6.84.94.94 0 0 1 .05.1l.71.9.62.82a.76.76 0 0 0 .1.12h.28l.21-1.55-.6-.89-.34-.63a1.08 1.08 0 0 0-.27-.36 10.84 10.84 0 0 0-.76-.77 10.87 10.87 0 0 1-1.98-2.45 2.82 2.82 0 0 1-.11-.27.72.72 0 0 0-.18-.29 5.13 5.13 0 0 1-1.01-1.15l-.77-1.05q.5.93.96 1.84M31.67 86.4v.1l3.26-1.25 1.55-.08.27-.2a56.83 56.83 0 0 1-2.36 8.93 24.09 24.09 0 0 0-1.34 9.72 52.61 52.61 0 0 1-.2 8.5l-.22 2a3.03 3.03 0 0 0 2.41-.38l.2-.94.05-.67q0-.39.04-.77.04-.48.12-.94a10.91 10.91 0 0 1 .26-1.28l.16-.48a10.4 10.4 0 0 1 .78-1.94 8.04 8.04 0 0 0 .44-1.11 7.26 7.26 0 0 0 .35-2.05q.04-1.2 0-2.32-.02-1.15-.08-2.19-.1-1.17-.1-2.32a2.8 2.8 0 0 1 .33-1.51 21.67 21.67 0 0 0 3.17-4.68A16.7 16.7 0 0 0 42 87a2.43 2.43 0 0 1 .06-.36.42.42 0 0 1 .02-.13v.11l2.05-1.19 2.74-.86-.78 9.3q-.48 4.96-.75 9.93-.2 3.54-.56 7.28l-.02.4-.3 2.5.74-.12.94-.78.23-.54.62-1.46a21.23 21.23 0 0 0 .94-3.26 10.56 10.56 0 0 1 .28-1.09.44.44 0 0 1 .04-.15q.29-1.06.54-2.13.23-.92.36-1.82.06-.48.14-.94.05-.71.05-1.42a26.87 26.87 0 0 1 .46-5.37 11.38 11.38 0 0 1 1.37-3.64 15.81 15.81 0 0 0 1.78-4.85l.1-.56.43-1.99-13.1-1.1a15.92 15.92 0 0 1-3.32-.1h-.02q-.21-.05-.39-.06a12.38 12.38 0 0 0-2.26-.1 10.78 10.78 0 0 0-2.2.3l-.39.12-.02 1.11-.11 2.38m33.6-24.84l-1.13-2.44a9.42 9.42 0 0 1-.53-1.5l-.77-2.6a3.68 3.68 0 0 0-.21-.63 7.99 7.99 0 0 0-.94-1.75l-.02-.04a.18.18 0 0 1-.1-.11 2.33 2.33 0 0 1-.01-.29l-.1-.1a.85.85 0 0 0-.21-.26 5.14 5.14 0 0 0-2.45-1.71q-.5-.17-1-.3l2.51 4.2a31.06 31.06 0 0 1 2.47 7.03 13.47 13.47 0 0 1 .23 1.44L64.16 64a2.45 2.45 0 0 1 1.11-.25 2.35 2.35 0 0 1 .43-.04 4.32 4.32 0 0 0-.43-2.14z" fill="#d09b07"/><path d="M52.62 65.35q-.11-.48-.27-.94a7.77 7.77 0 0 1-1.82 3 4.62 4.62 0 0 1-2.55 1.32 4.75 4.75 0 0 1-1.28.05q-.44-.05-.88-.15l.78.92a6.84 6.84 0 0 1 3.2 5.16l.1.82.23 5.89.46.05q1.38.27 2.59.44l.04.02a.48.48 0 0 0 .2.04.31.31 0 0 0 .08.02 2.8 2.8 0 0 1 .39.1 1.08 1.08 0 0 0 .2.02 1.05 1.05 0 0 0 .14.05h.06a1.31 1.31 0 0 1 .27.1.75.75 0 0 1 .17.1 1.73 1.73 0 0 1 .25.17.3.3 0 0 0 .08.11.17.17 0 0 1 .05.12l.2-2.26a22.56 22.56 0 0 0-.2-2.29q-.34-3.14-.93-6.19-.3-1.51-.62-3-.13-.58-.29-1.14-.28-1.26-.65-2.53m-.96-2.09q-.48.23-.94.48a6 6 0 0 1-3.35.2l-.5-.52q-2.55.11-5.02.01a8.04 8.04 0 0 0 1.93 2.7 4.74 4.74 0 0 0 .89.72l.04.02a3.31 3.31 0 0 0 2.16.63 3.97 3.97 0 0 0 1-.21 5.6 5.6 0 0 0 2.76-2 7.63 7.63 0 0 0 1.03-2.03M32.2 77.83l-1.29.5q0 .4-.04.82-.11 1.33-.11 2.61a6.33 6.33 0 0 1 2.93-.84h1.3a13.94 13.94 0 0 1 3.61-4.9l1.2-.99a15.96 15.96 0 0 0 .77-10.83 4.54 4.54 0 0 1-.19-.82l-.73-.06a.92.92 0 0 1-.9.06 2.34 2.34 0 0 1-.19-.18l-1.74-.2-.21.59a2.81 2.81 0 0 0-.12.27 8.32 8.32 0 0 0-.75 1.99q-.57 2.53-1.17 5.04a12.78 12.78 0 0 0-.28 3.18 3.8 3.8 0 0 1-2.1 3.76M51.23 47.3a1.52 1.52 0 0 0-.32-.15l.05 5.06q-.11.73-.26 1.5a27.24 27.24 0 0 1-2.53 7.41q1.76-.17 3.52-.5a.13.13 0 0 0 .06-.05q.06 0 .06-.08a.03.03 0 0 0 .04-.04h.05a11.27 11.27 0 0 0 1.27-2.16 13.74 13.74 0 0 0 1.2-5.27l-.03-.02-.06-.16a7.33 7.33 0 0 1-.5-1.4 2.43 2.43 0 0 0-.1-.32q-.34-1.48-.6-3-.95-.41-1.85-.82M39.8 44.11l.27.1a8.7 8.7 0 0 0 2.18.28l.92.1A21 21 0 0 0 42 37.65z" fill="#004da1"/><path class="cls-6" d="M31.54 48.44l.8-4.02q-.48-.12-.94-.21-1.59-.18-3.12-.3l-.02.12a15.29 15.29 0 0 1-.94 3.15q-.67 1.6-1.21 3.14a12.06 12.06 0 0 0-.67 3.05 26.16 26.16 0 0 1-.5 3.1l-.36 1.65-.35 1.48a14.04 14.04 0 0 0-.27 1.5q-.13.82-.23 1.66-.17 1.61-.2 3.3a9.58 9.58 0 0 1-.08 1.23l2.49-4.68a9.75 9.75 0 0 1 3.22.92 2.32 2.32 0 0 0 .8.17 4.97 4.97 0 0 1 4.16-2.2 4.98 4.98 0 0 1 1.17.67 11.44 11.44 0 0 1 1.3 1.42q.12-.29.22-.6a4.36 4.36 0 0 0 .11-.61l-.38-1.76a12.99 12.99 0 0 0-1.11-3.2q-.2-.39-.39-.71a1.79 1.79 0 0 0-.36-.7 16.4 16.4 0 0 1-3.14-7.57"/><path d="M29.16 59.73l1.24-1.43q1-1.27 3.05-.23a15.58 15.58 0 0 1 1.15 1.28l.14.21q.94 1.27 1.86 2.6-.92-1.33-1.86-2.6l-.14-.2a15.58 15.58 0 0 0-1.15-1.3q-2.05-1.03-3.05.24l-1.24 1.43" fill="#d41111"/><path class="cls-6" d="M47.93 44.48l-1.29.32.56.44q.46.29.96.58l.48.23q1.15.53 2.26 1.09a1.52 1.52 0 0 1 .32.15l1.84.83a2.7 2.7 0 0 0 .44.19 14.22 14.22 0 0 0 2.82 1.07q.73.2 1.48.44.5.14 1 .31a5.14 5.14 0 0 1 2.45 1.7.85.85 0 0 1 .21.28l.1.1a.15.15 0 0 0 .01.05l.12-.25a.24.24 0 0 1 .04-.14v-.23q0-.53-.04-1.03a2.64 2.64 0 0 0-.75-1.11 12.94 12.94 0 0 1-.3-1.27q-.39-.27-.73-.55a6.86 6.86 0 0 1-1.77-3.13l-.94-2.1a11.47 11.47 0 0 1-1.6.42h-.12a9.89 9.89 0 0 1 1.44 1.87 10.97 10.97 0 0 1 1.07 2.4l-2.63-2.17-.86-2.1a9.15 9.15 0 0 0-2.15.28 4.59 4.59 0 0 0-.63.21 10.14 10.14 0 0 1 1.44 1.96l.33.6a1.04 1.04 0 0 1 .11.2l-1.48-.65-1.97-1.65-2 .6a1.51 1.51 0 0 0-.22.06"/><path class="cls-9" d="M41.02 51.72l1.33-1.26-1.04-1.27-1.34 1.19 1.05 1.34"/><path class="cls-6" d="M49.42 20.17a1.5 1.5 0 0 1 .37-.21l.24.23v.05l.94-1.4-.34-1.07-2.82 1.57a6.72 6.72 0 0 0-1.53-3.24 10.57 10.57 0 0 0-2.34 2 10.29 10.29 0 0 0-1.86-2.38 5.99 5.99 0 0 0-.84.86 15.07 15.07 0 0 0 .26 1.61 1.26 1.26 0 0 0 .14.46 8.89 8.89 0 0 1 .48-.8q.11.23.27.5.3.61.57 1.22a2.98 2.98 0 0 1 .3 1.7l.41.03q.38 0 .77.04a9.43 9.43 0 0 1 1.78.28q.48.16.98.35a6.09 6.09 0 0 1 2.22-1.8z"/><path class="cls-2" d="M46.97 32.63l-.08-.4-.79 1.22a1.72 1.72 0 0 1-1.16.92l-.43.46a3.13 3.13 0 0 1-1.55.98h-.02l-.69.23a3.1 3.1 0 0 0-1.13.67l-.86.14a1.73 1.73 0 0 0 .15.23l.23.23.04.03q.2.31 1.34.23a9.5 9.5 0 0 0 1.65-.32 6.42 6.42 0 0 0 2.88-1.61 1.58 1.58 0 0 0 .5-1.15 2.86 2.86 0 0 0-.12-.62v-.03a2.8 2.8 0 0 1-.04-.46v-.31a.2.2 0 0 1 .04-.08v-.04a1.7 1.7 0 0 1 .04-.32m17.19 31.36a1.98 1.98 0 0 0-.46.27l-.6.7-.72 1.24-.21 1.55a2.58 2.58 0 0 0 .44 1.7 6.95 6.95 0 0 0 .7.75 2.76 2.76 0 0 0 .5.4 2.34 2.34 0 0 1 .18-.59 3.85 3.85 0 0 1 .5-.88.26.26 0 0 1 .1-.12l.57-.67 1.15-.7-.04.86-.4.07-.38.62.15.65q.08.27.13.53-.05.23-.13.46a.65.65 0 0 0 .02.56 1.18 1.18 0 0 0 .11.21l.06.56a.53.53 0 0 0 .13.15l.02.02a1.68 1.68 0 0 0 .33.2l.5.07a.28.28 0 0 0 .17-.06 3.16 3.16 0 0 0 .86-.56 3.62 3.62 0 0 0 .37-.47 1.43 1.43 0 0 0 .25-.4 1.2 1.2 0 0 0 .73-.72 1.76 1.76 0 0 0 .1-.23 1.38 1.38 0 0 0 .07-.28l.04-.04a1.52 1.52 0 0 0 .5-.96 4.64 4.64 0 0 0 .01-.94 3.98 3.98 0 0 0-.61-1.88 2.4 2.4 0 0 0-.23-.33l-.86-1.18-.02-.02-.4-.29a1.05 1.05 0 0 0-.14-.06 3.96 3.96 0 0 0-1.4-.48h-.55a2.35 2.35 0 0 0-.43.04 2.45 2.45 0 0 0-1.1.25z"/><path class="cls-13" d="M39.87 23.3a2.5 2.5 0 0 0-.51 1.26q-.04.2-.06.42a4.61 4.61 0 0 0 2.32-.83 3.1 3.1 0 0 0 .96-1.1l-2.7.24m7.02 8.94l.07.4a1.7 1.7 0 0 0-.04.32V33a.2.2 0 0 0-.04.08v.3l.21.4a2.41 2.41 0 0 0 2.82-.26 4.42 4.42 0 0 0 1.19-1.73 4.83 4.83 0 0 0 .02-1.55q-.02-.27-.06-.5l-.38-1.32a.25.25 0 0 0-.1-.15q-.61-1.17-1.11-2.32a2.68 2.68 0 0 1-.14-.39.03.03 0 0 0-.03.04 10.68 10.68 0 0 0-2.15-1.44q-.67-.28-1.5-.59a12.95 12.95 0 0 0-2.7-.52l.33.73a1.87 1.87 0 0 0 .84.65l1.13.46a.68.68 0 0 0 .17.06 2.52 2.52 0 0 1 .39.23.67.67 0 0 1 .13.14q.38.44.71.9a.03.03 0 0 0 .04.03.43.43 0 0 0 .06.14 8.55 8.55 0 0 1 .34 1.15L47.08 30q0 .56-.04 1.11l-.02.06-.36.15"/><path id="mazzo_asset_m_DieciCoppe_0_Layer2_0_1_STROKES" data-name="mazzo asset m DieciCoppe 0 Layer2 0 1 STROKES" class="cls-14" d="M29.16 59.73l1.24-1.43q1-1.27 3.05-.23a15.58 15.58 0 0 1 1.15 1.28l.14.21q.94 1.27 1.86 2.6"/><path id="mazzo_asset_m_DieciCoppe_line_0_Layer1_0_1_STROKES" data-name="mazzo asset m DieciCoppe line 0 Layer1 0 1 STROKES" class="cls-14" d="M72.85 52.95a3.8 3.8 0 0 0-1.61 2.09 12.36 12.36 0 0 0-.58 2.8q-.15 1.45-.3 2.7a6.15 6.15 0 0 1-1 2.7 3.39 3.39 0 0 1-.33.46l-.76.79L69.36 66a.22.22 0 0 1 .04.06 4.09 4.09 0 0 1 .57 1.82 4.64 4.64 0 0 1-.02.94 1.52 1.52 0 0 1-.5.96l-.03.04a1.38 1.38 0 0 1-.08.29 1.76 1.76 0 0 1-.1.23 1.2 1.2 0 0 1-.73.7 1.43 1.43 0 0 1-.24.4 3.62 3.62 0 0 1-.37.49 3.16 3.16 0 0 1-.86.55.28.28 0 0 1-.17.06l-.06.42a5.48 5.48 0 0 1-.92 2 4.14 4.14 0 0 0-.73 1.43 9.95 9.95 0 0 0-.23 3.38l-.23.17-1.07-.33a10.45 10.45 0 0 1-.73 1.15q-.39.48-.56.06a3.4 3.4 0 0 1 .04-.73q.13-.76-.3-.97a.81.81 0 0 0-.24-.08.92.92 0 0 1-.26-.15 2.81 2.81 0 0 1-.52-.27q.19-.23.4-.44a12.87 12.87 0 0 0 1.38-1.82l.12-.39a13.07 13.07 0 0 0 .5-2.64q.15-1.36.42-2.78a2.76 2.76 0 0 1-.5-.4 6.95 6.95 0 0 1-.71-.75 2.58 2.58 0 0 1-.44-1.71h-.3a.76.76 0 0 1-.09-.11l-.61-.83a38.85 38.85 0 0 1-.15 6.67q-.2 1.92-.46 3.86-.06 1.2-.06 2.43a35.13 35.13 0 0 1-.6 5.98 46.15 46.15 0 0 0-.7 6.58q-.08 3.24-.14 6.94a12.12 12.12 0 0 1-1.7 6.23 28.7 28.7 0 0 1-3.8 4.71q1.38-.32 2.91-.57a4.41 4.41 0 0 1 4.76 1.88.36.36 0 0 1 .11.01 9.06 9.06 0 0 1 2.17 1.5q.57 0 1.15.04a4 4 0 0 1 3.18 3h4.33v8.57H14.21v-8.73h14a9.87 9.87 0 0 0 1.16-1.4 5.38 5.38 0 0 1 1.88-1.56l.06-.82a34.21 34.21 0 0 0-.3-5.7q-.43-3.18-.66-6.38-.27-.44-.48-.84l-.1-.17q-1.4-2.6-2.38-4.5-.9-2.02-1.84-4.03a18.82 18.82 0 0 1-2.1-8.25v-2q-.04-2.79-.33-5.9a31.15 31.15 0 0 1-.1-3.87l.48-3.2a9.58 9.58 0 0 0 .08-1.23q.04-1.68.21-3.3.1-.84.23-1.66a14.04 14.04 0 0 1 .27-1.5l.34-1.47.37-1.65a26.16 26.16 0 0 0 .5-3.1 12.06 12.06 0 0 1 .67-3.06q.53-1.53 1.2-3.14a15.29 15.29 0 0 0 .94-3.14l.02-.12-.63-.1.29-.82q2.5-6.34 10.45-7.4a4.99 4.99 0 0 0 .03-.57 10.21 10.21 0 0 0-.03-1.13 2.27 2.27 0 0 1 .3-1.27l.31-.84.08-.35-.83-.06.73-.7a5.79 5.79 0 0 1-.17-.68 3.15 3.15 0 0 1-.04-.47 2.72 2.72 0 0 1 .38-1.06.82.82 0 0 1-.02-.15A7.9 7.9 0 0 1 39.2 26l.16-.8v-.28l.05-.42a2.5 2.5 0 0 1 .52-1.27h-.02l-.55-.8-.48-.77-1.34-2.3-1.1-1.84a4.44 4.44 0 0 1 3.8.62 5.75 5.75 0 0 1 1.05-1.61 5.99 5.99 0 0 1 .85-.87A10.29 10.29 0 0 1 44 18.04a10.57 10.57 0 0 1 2.33-2 6.72 6.72 0 0 1 1.54 3.25l2.82-1.58 1 3.09a5.64 5.64 0 0 1 3.31 0 16.97 16.97 0 0 0-4.47 3.41q-.57.6-1.13 1.29a2.68 2.68 0 0 0 .14.38q.5 1.15 1.1 2.32a.25.25 0 0 1 .1.15l.39 1.33q.04.23.05.5a4.83 4.83 0 0 1-.01 1.55 4.42 4.42 0 0 1-1.2 1.72 2.41 2.41 0 0 1-2.81.27l-.21-.4a2.8 2.8 0 0 0 .04.46v.04a2.86 2.86 0 0 1 .11.61 28.32 28.32 0 0 1 11.43 6.58l.65.65-.7.23.45.5a5.65 5.65 0 0 1 .7 1.05 7.43 7.43 0 0 1 .28.8 13.8 13.8 0 0 1 .38 1.52l.4 2.38v.03a12.94 12.94 0 0 0 .31 1.27 2.64 2.64 0 0 1 .75 1.11q.04.5.04 1.04v.23a.24.24 0 0 0-.04.13l-.12.25a.15.15 0 0 1-.02-.06 2.33 2.33 0 0 0 .02.3.18.18 0 0 0 .1.1l.02.04a7.99 7.99 0 0 1 .94 1.75 3.67 3.67 0 0 1 .2.63q.4 1.29.77 2.6a9.42 9.42 0 0 0 .54 1.5l1.13 2.44a4.32 4.32 0 0 1 .42 2.15h.56a8.83 8.83 0 0 1 .21-2.65 10.83 10.83 0 0 1 .9-2.43 13.24 13.24 0 0 0 .94-2.42 19.24 19.24 0 0 0 .48-2.66 2.18 2.18 0 0 0-.44-1.5 2.4 2.4 0 0 1 1.34.17 2.86 2.86 0 0 0 .29.06l.55-.7a2.7 2.7 0 0 1 .58-.5l.13 1.74a1.84 1.84 0 0 1 1.15.02l.4.17zM43.82 21.07l.2-.67a4.83 4.83 0 0 1 1.87-2.32l.2.52a7.9 7.9 0 0 1 .19 2.97q.48.15.97.34a6.09 6.09 0 0 1 2.23-1.8 1.5 1.5 0 0 1 .36-.21l.25.23v.06a5.28 5.28 0 0 1-.61 3.04 1.9 1.9 0 0 0 .15.14 10.06 10.06 0 0 1 1.88-1.27q1.05-.55.82.12v.02l-.2.48m-1.6 1.5a10.74 10.74 0 0 0-.9-.85M41.7 18.6a6.18 6.18 0 0 0-.64 2.07q-.04.28-.05.6a10.28 10.28 0 0 1 1.13-.05 1.89 1.89 0 0 1 .53 0h.65a2.98 2.98 0 0 0-.3-1.7q-.27-.62-.58-1.23l-.27-.5a8.89 8.89 0 0 0-.47.8zm4.58 2.97a9.43 9.43 0 0 0-1.79-.3q-.38-.03-.76-.03l-.4-.02m-3.97 3.7a4.61 4.61 0 0 0 2.32-.82 3.1 3.1 0 0 0 .95-1.11l-2.7.24m2.7-.24h.39a12.95 12.95 0 0 1 2.7.51q.83.31 1.5.6a10.68 10.68 0 0 1 2.14 1.44.03.03 0 0 1 .04-.04M38.44 35.54a3.88 3.88 0 0 0-.08.56q.67.3 1.32.53a6.47 6.47 0 0 1 .64.16l.86-.14a3.1 3.1 0 0 1 1.13-.67l.69-.23h.02a3.13 3.13 0 0 0 1.55-.97l.42-.46a1.72 1.72 0 0 0 1.17-.93l.79-1.22v-.02a.03.03 0 0 0 .04-.04.13.13 0 0 0 .03-.1.71.71 0 0 0 .02-.17l.04-.73m-.13 1.06l.07.4m2.46-9.34a9.05 9.05 0 0 0-2.23-1.32m-.15 12.52a1.58 1.58 0 0 1-.5 1.15 6.42 6.42 0 0 1-2.87 1.61 9.5 9.5 0 0 1-1.65.33l-.02.07a21 21 0 0 1 1.17 6.94q-.04.4-.04.83 1.65-.21 3.5-.62l1.3-.32a1.51 1.51 0 0 1 .22-.06l3.09-.92q.23-.08.48-.13a4.59 4.59 0 0 1 .63-.21 9.15 9.15 0 0 1 2.15-.3 6.24 6.24 0 0 1 .98 0h.11a11.47 11.47 0 0 0 1.61-.41 12.35 12.35 0 0 0 1.23-.5M61 49.44l-1.04-.54a11.54 11.54 0 0 0-1.59-.65q-.5-.13-1-.23l-1.64-.38q-.8-.23-1.61-.44-.56-.18-1.11-.33a13.75 13.75 0 0 1-2.06-.63l-.44-.21a3.2 3.2 0 0 1-.55-.27 11.62 11.62 0 0 1-1.75-1.07l-.23-.27m-4.75.11l-.92-.1a8.7 8.7 0 0 1-2.19-.28l-.26-.1-.33.98h-1.6q-.26 2.22-.55 4.47-.07.52-.17 1.07-.1.5-.15 1.04a1.3 1.3 0 0 1-.02.2l-.12 1q-.15 1.44-.19 2.94-.02 1.47.04 2.93l.04.17q.02.77.07 1.54a39.77 39.77 0 0 0 8 .82q1.45-.04 2.93-.11a2.25 2.25 0 0 1 .4-.04q1.77-.18 3.53-.5a.13.13 0 0 0 .06-.06q.06 0 .06-.08a.03.03 0 0 0 .03-.03h.06a11.27 11.27 0 0 0 1.27-2.17 13.74 13.74 0 0 0 1.2-5.27l-.03-.02-.06-.15a7.33 7.33 0 0 1-.5-1.4 2.43 2.43 0 0 0-.1-.33q-.34-1.48-.6-2.99l-1.85-.82a1.52 1.52 0 0 0-.33-.16q-1.1-.55-2.26-1.09l-.48-.23q-.5-.29-.96-.58l-.55-.44m-5.33 4.4l-1.34 1.18 1.05 1.34 1.32-1.26zm.1-1.58l-3.03 2.51L41 53.26l2.83-2.75zm12.65-.36l-.46-1.13a1.04 1.04 0 0 0-.12-.21l-.32-.6a10.14 10.14 0 0 0-1.44-1.95m9.83 8.83l-.1-.1a.85.85 0 0 0-.2-.26 5.14 5.14 0 0 0-2.46-1.7q-.5-.18-1-.31-.74-.25-1.47-.44a14.22 14.22 0 0 1-2.82-1.08 2.7 2.7 0 0 1-.44-.19m5.25.2a10.4 10.4 0 0 0-.32-1.18 10.97 10.97 0 0 0-1.08-2.4 9.89 9.89 0 0 0-1.43-1.87M38.88 21.66a9.27 9.27 0 0 1 1.5-.32l-.31-.98-.04-.02-.71-.86-.02-.02a4.4 4.4 0 0 0-1.15-.73 2.65 2.65 0 0 0-.56-.3l-.05.93M41 21.28q-.33.02-.64.06m1.7 16.18q-1.14.07-1.33-.23l-.04-.04-.23-.23a1.73 1.73 0 0 1-.15-.23m-2.38 8.24a21.57 21.57 0 0 1-3.03-.34h-.08q-1.22-.14-2.43-.33l-.94-.21q-1.6-.17-3.13-.29m7.17 4.81a3.8 3.8 0 0 1 .56.56 4.48 4.48 0 0 1 .92 1.78 3.95 3.95 0 0 1 .08.6m-.3 7.07q-.09-.82-.22-1.61a12.7 12.7 0 0 0-.42-1.76 14.15 14.15 0 0 0-2.73-5.05m-2.3 2.29l1 .7a12.22 12.22 0 0 1 3.01 3.4q.2.32.38.7a12.99 12.99 0 0 1 1.12 3.2q.17.9.38 1.77.02-.38 0-.76-.06-.58-.1-1.17m.1 1.93v.04a.47.47 0 0 1-.04.17 2.04 2.04 0 0 1-.08.4l1.75.22-.02-.04a1.04 1.04 0 0 1 .02-1.34 1.59 1.59 0 0 1 1.7-.67l.04.01a2.06 2.06 0 0 1 1.1 1.2q.34.84.46 1.07 2.47.1 5.02-.02a4.8 4.8 0 0 0 .6-.04q1.83-.08 3.75-.33.2 0 .38-.02h.06a.2.2 0 0 1 .08-.03l.04-.02a.24.24 0 0 1 .11-.12.45.45 0 0 1 .15-.1.15.15 0 0 0 .02-.05.43.43 0 0 0 .06-.15.24.24 0 0 0 .04-.14l.02-1.25a.56.56 0 0 0-.02-.13 4.97 4.97 0 0 0-.27-.6m-21.99-5.8a6.92 6.92 0 0 0-1-.77 2.76 2.76 0 0 0-.7-.32 11.43 11.43 0 0 0-3.63 4.58m13.98 5.08a2.33 2.33 0 0 0 .2.17.92.92 0 0 0 .9-.06l.28-.29-.06-.55.77.9.23.42.04.02a12.63 12.63 0 0 0 1.53 2.55A6.18 6.18 0 0 0 45 68.32q.42.14.86.25.45.1.89.16a4.74 4.74 0 0 0 1.28-.06 4.62 4.62 0 0 0 2.55-1.32 7.77 7.77 0 0 0 1.82-3l-.34-1.24-.12-.3m-12.25.45l.73.06h.27m-3.84-.38l-.2.59a2.81 2.81 0 0 0-.12.27 8.32 8.32 0 0 0-.75 2q-.57 2.52-1.17 5.03a12.78 12.78 0 0 0-.29 3.19 3.8 3.8 0 0 1-2.09 3.75l-1.28.5q0 .4-.04.83-.11 1.32-.11 2.6a6.33 6.33 0 0 1 2.93-.84h1.3l15.15.5.46.06q1.38.26 2.59.44l.03.02a.48.48 0 0 0 .22.03.31.31 0 0 0 .07.02 2.8 2.8 0 0 1 .39.1 1.08 1.08 0 0 0 .2.02 1.05 1.05 0 0 0 .14.06h.06a1.31 1.31 0 0 1 .27.1.75.75 0 0 1 .17.09 1.73 1.73 0 0 1 .25.17.3.3 0 0 0 .07.12.17.17 0 0 1 .06.11l.2-2.26a22.56 22.56 0 0 0-.2-2.28q-.34-3.15-.94-6.2-.28-1.5-.61-3-.13-.58-.29-1.14-.29-1.26-.65-2.53-.12-.48-.27-.94m-18.9-6.88q-4.85-3.83-8.84 2.42-.34.55-.65 1.15m6.94 17.23l-.92.35a6.34 6.34 0 0 0-2.01 1.53 3.57 3.57 0 0 0-1.04 2.59 35.35 35.35 0 0 0 .52 6.2q.54 3.36 2.26 10.04M30.8 81.7a5.54 5.54 0 0 0 0 .66 22.13 22.13 0 0 1 2.97-.68 15.36 15.36 0 0 1 3.33-.13q1.77.1 3.42.15l3.47.21 3.14.02q.75.04 1.55.06a16.5 16.5 0 0 1 3.43.44l2.48.5h.02q.03.04.05.04a1.89 1.89 0 0 0 .27.29l.04.03a.48.48 0 0 1 .13.18l.06-.77m-24.36-.34q0 .5.04 1l.23-.22.78-.29.38-.11a10.78 10.78 0 0 1 2.2-.3 12.38 12.38 0 0 1 2.27.09l.38.06h.02a15.92 15.92 0 0 0 3.32.11l2.09.12 4.5.42 6.52.55a1.72 1.72 0 0 1 1.06.33.92.92 0 0 1 .44.79l.07-1.44m-24.26-.12v.23l1 .39.01-1.12m-.02 1.12l-.11 2.37v.1l.05.75a17.15 17.15 0 0 1-.69 6.38 18.56 18.56 0 0 0-.74 6.42m.9 12.9l-.04.25 1.48.92.23-2a52.61 52.61 0 0 0 .19-8.5 24.09 24.09 0 0 1 1.34-9.72 56.83 56.83 0 0 0 2.36-8.93l.05-.39q.18-.96.25-1.93M23.5 67.23l3.14-5.9m43.51-3.55l-.2 1.23a13.2 13.2 0 0 1-2.25 5.11 1.05 1.05 0 0 1 .13.06l.4.29.03.02m-.3-2.07L69 60.16m-15.68 7.66l6.48.5a31.54 31.54 0 0 0-.44-4.23q-.44-.79-.82-1.6-.62-1.28-1.17-2.37l-.96-1.84-.25-.42a13.12 13.12 0 0 1-1-2.34q-.38-1.2-.75-2.57m11.33 10.7a2.35 2.35 0 0 0-.42.03 2.45 2.45 0 0 0-1.11.25 1.98 1.98 0 0 0-.46.27q-.33.37-.6.71-.38.61-.72 1.23l-.21 1.55m-1-.94l-.7-.9a.94.94 0 0 0-.07-.1 7.71 7.71 0 0 1-.6-.84l-.49-.82m-5.75 4.87l6.23.53v-.06q0-.55-.04-1.1m4.07 2.22a2.34 2.34 0 0 1 .17-.6 3.85 3.85 0 0 1 .5-.88.26.26 0 0 1 .1-.11l.57-.68a2.93 2.93 0 0 1 .32-1.43 1.39 1.39 0 0 1 .3-.44m-.62 1.87l1.15-.7.06-.46.65-.06a1.38 1.38 0 0 1 .5 1.11 1.9 1.9 0 0 0 .05.46l1.65-.29-.44-.07-.57-.83a4.01 4.01 0 0 1-.3-.63 4.42 4.42 0 0 0-.28-.67l-1.6-.67m1.62-1.35a3.96 3.96 0 0 0-1.4-.47m3.1 6.17a1.75 1.75 0 0 1-.44.29 1.8 1.8 0 0 1-1.28.17l-.54-.17-.05-.04a.31.31 0 0 1-.08-.02.94.94 0 0 0-.1-.06l-.23-.21a.65.65 0 0 1-.15-.17 1.13 1.13 0 0 1-.21-1.17l-.4.07-.39.62.16.65.13.54.42.51.12.06 2.14.15m-2.14-3.46l-.04.86m-.5 1.88l-.13.46a.65.65 0 0 0 .02.55 1.18 1.18 0 0 0 .11.21l.06.06a2.33 2.33 0 0 0 .48.23l1.53.1m1.5-5.87a4.13 4.13 0 0 1-.04 2.01.83.83 0 0 1-.08.27m-17.48-5.4a.83.83 0 0 1-.08.26 7.63 7.63 0 0 1-1.03 2.04 5.6 5.6 0 0 1-2.76 1.99 3.97 3.97 0 0 1-1 .21 3.31 3.31 0 0 1-2.17-.63l-.04-.02a4.74 4.74 0 0 1-.88-.71 8.04 8.04 0 0 1-1.93-2.7m.61 19.44q-.13 1.18-.29 2.37-.06.56-.1 1.15v.21a24.95 24.95 0 0 0 .16 5.16q.34 2.88.61 5.7a12.84 12.84 0 0 1-.44 4.77 8.25 8.25 0 0 0 .27 5.54 5.14 5.14 0 0 1 .33 2.59 4.3 4.3 0 0 0-.06.7l-.04 1.44.06 1.11q.2.1.42.18a1.64 1.64 0 0 0 1.07.17l.31-2.5.02-.4q.36-3.73.56-7.28.26-4.97.74-9.93l.79-9.3q.02-.65.1-1.26m-14.34 30.82a3.62 3.62 0 0 0 2.41-.38l.2-.94.05-.67q0-.38.04-.77.04-.48.11-.94a10.91 10.91 0 0 1 .27-1.28l.16-.48a10.4 10.4 0 0 1 .78-1.94 8.04 8.04 0 0 0 .44-1.1 7.26 7.26 0 0 0 .35-2.06q.04-1.19 0-2.32-.02-1.15-.08-2.18-.1-1.17-.1-2.32a2.8 2.8 0 0 1 .33-1.52 21.67 21.67 0 0 0 3.16-4.68 16.7 16.7 0 0 0 1.25-3.54 2.43 2.43 0 0 1 .06-.37.42.42 0 0 1 .02-.13m12.9-1.53a2.35 2.35 0 0 1-1.44.78 4.94 4.94 0 0 0-.5.1l-.1.55a15.81 15.81 0 0 1-1.78 4.85 11.38 11.38 0 0 0-1.36 3.65 26.87 26.87 0 0 0-.46 5.36q0 .71-.06 1.42l-.13.94q-.13.9-.36 1.82-.25 1.08-.54 2.13a.44.44 0 0 0-.04.15 10.56 10.56 0 0 0-.29 1.1 21.23 21.23 0 0 1-.94 3.25l-.61 1.46 1.04-1.46a26.29 26.29 0 0 1 3.66-3.73q3.08-2.61 3.54-5.26a26.35 26.35 0 0 0 .37-5.69 19.99 19.99 0 0 1 .94-6.56q1.01-3.45 2.07-6.8a39.14 39.14 0 0 0 1.45-6.8 58.62 58.62 0 0 0 .35-6.68M53.1 85.8l.44-2m12.3-12.25l.05.56a.53.53 0 0 0 .13.15l.02.02a1.68 1.68 0 0 0 .33.2l.5.07m-3.42 5.44a11.01 11.01 0 0 1 1.44-3.02 6.85 6.85 0 0 0 1.13-2.7m-5.4 5.02q-.31 2.31-.77 4.48a47.32 47.32 0 0 1-1.73 5.94 26.39 26.39 0 0 0-1.45 6.45q-.35 3.5-.46 6.76-.04.35-.06.71-.15.7-.35 1.44a5.85 5.85 0 0 1-.92 1.88 6.56 6.56 0 0 1-.97 1q-.42.38-.85.72l-.76.66a20.88 20.88 0 0 0-2.55 2.43q.97 3.99 3.43 3.22 2.49-.82 4.25-1.34a7.91 7.91 0 0 1 3.86-.17m4.43-40.13a18.72 18.72 0 0 1-1.08 2.42l-.27.53M42.06 37.6l-2.2 6.46m4.2 52.3a5.36 5.36 0 0 0-.16 1.42.38.38 0 0 1 .04.17q.06.38.11.27m5.05 17.39a4.75 4.75 0 0 1-1.06-1.44l-.29-1.2-.2 1.37a5.42 5.42 0 0 0 .1 1.27l.1.44a11.42 11.42 0 0 0 4.7 2.43 15.13 15.13 0 0 0 5.46.35 16.12 16.12 0 0 1 5.22.82 8.31 8.31 0 0 0 5.27.23 2.33 2.33 0 0 0 1.82-1.57 1.15 1.15 0 0 0-.48-1.36 5.3 5.3 0 0 0-1.72-.9 15.8 15.8 0 0 0-5.45.69 4.38 4.38 0 0 1-3.33-.14 7.15 7.15 0 0 0-5.06-.2 12.46 12.46 0 0 1-1.67.34 3.5 3.5 0 0 1-2.6-.4 6.57 6.57 0 0 1-.81-.73zm.65-5.85a12.82 12.82 0 0 0-1 1.2 5.73 5.73 0 0 0-.7 1.2l-.3.8m-3.24.96l.75-.12.94-.78.23-.54m-3.47-.02l-.29.39-.23.46a2.71 2.71 0 0 0-.13.55 2.99 2.99 0 0 0 0 .48l-.02 1.27v1.88a10.34 10.34 0 0 0 .54 3 3 3 0 0 0 1.93 2.21q.08.06.5-.25a7.93 7.93 0 0 0 1.23-1.6v-.03a8.22 8.22 0 0 0 .44-2.1 10.62 10.62 0 0 0-.15-3.11l-.02-.33-.56-2.26m1.55 3.03l-.55-.44h-.42m.42 0l-.44-.33m15.3-.48a4.2 4.2 0 0 1-4.15-.52 6.24 6.24 0 0 0-4.4.5 4.07 4.07 0 0 1-4.55-.5m18.94 1.33l.12.44m-9.47-2.36l5.02-.71m-9.95-2.82l-1.96-.27m-20.45-12.2q.08.74.1 1.49M28.3 115.7c-.6.57-1.28 1.03-1.92 1.6a11.4 11.4 0 0 1-2.15 1.58 6.28 6.28 0 0 0-1.59 1.37l.06.57.42.42a4.8 4.8 0 0 0 2.93-.11q.85-.3 1.7-.54a13.1 13.1 0 0 0 2.73-1.26 1.7 1.7 0 0 0 .33-.3 1.69 1.69 0 0 1 1.32-.6l.1.38.28.07a11.55 11.55 0 0 0 2.34-.95.92.92 0 0 0 .44-.44 4.13 4.13 0 0 0 .54-1.88v-.04a.44.44 0 0 0 .06-.12v-.1a1.9 1.9 0 0 0 .05-.28.27.27 0 0 0 .04-.15l.06-.2a2.8 2.8 0 0 0-.44-1.93l-.3-.04m7.14.56a16.8 16.8 0 0 0-2.58-1.29l-.93-.32q-1.28-.45-2.6-.98l-.83-.35m6.79 5.5h-6.46"/><path class="cls-14" d="M17.75 19.68s-2.08-.92-2.84.78 1.32 4.18 1.52 4.62a.9.9 0 0 1-.2 1.19c-1.26.9.56 2.12 1.18.56.92-2.35-.73-3.33-1.25-4.47-.24-.54-.89-2.48 1.7-1.77m11.27-.91s2.16-.92 2.95.78-1.37 4.18-1.58 4.62a.87.87 0 0 0 .2 1.19c1.3.9-.58 2.12-1.21.56-.95-2.35.75-3.33 1.28-4.47.26-.54.8-2.41-1.87-1.7"/><path class="cls-6" d="M21.8 31.3s.3 1.86-2.69 2.96 9.45.6 9.45.6A13.17 13.17 0 0 1 25.9 33a4.86 4.86 0 0 1-.7-1.7z"/><path class="cls-14" d="M24 31.43c-.04.07-2.22-.3-2.22-.3s.56 2.19-3.04 3.24"/><path class="cls-14" d="M22.9 31.36c.05.07 2.31-.24 2.31-.24s-.53 2.13 3.07 3.18"/><path d="M18.73 19.43a5.93 5.93 0 0 1-1.32-.49q.15.26.3.59a7.85 7.85 0 0 1 .28.82 10.92 10.92 0 0 1 .23 1.4q0 .62-.04 1.27-.07.62-.19 1.34-.12.43-.2.85a7.06 7.06 0 0 0-.11 1.24q1.13-1.08 2.18.46a1.39 1.39 0 0 1 1-.72 3.6 3.6 0 0 1 .13-.55 6.58 6.58 0 0 0 .15-2.26l-.12-1.34a5.8 5.8 0 0 0-.03-.68l-.16-1.5a16.12 16.12 0 0 1-2.1-.43m7.86.37l-.16 2.11.2 4.15a1.88 1.88 0 0 1 1.08.85q.9-1.76 1.64-.3a7.8 7.8 0 0 0-.12-1.3l-.23-.95a10.68 10.68 0 0 1-.2-1.47 5.77 5.77 0 0 1 0-1.34 4.5 4.5 0 0 1 .12-1.04 7.84 7.84 0 0 1 .27-.82 2.78 2.78 0 0 1 .35-.78 5.62 5.62 0 0 1-1.4.52q-.74.2-1.55.36" fill="#d79f09"/><path class="cls-6" d="M30.09 18.16q0-.75-1.95-1.3a17.88 17.88 0 0 0-4.35-.53q-2.69.85-2.57 3.04a3.54 3.54 0 0 0 .04.52q1 .1 2.18.1a22.89 22.89 0 0 0 3.15-.2q.81-.16 1.55-.36a5.62 5.62 0 0 0 1.4-.52q.55-.36.55-.75"/><path class="cls-9" d="M27.77 26.9a1.92 1.92 0 0 0-1.12-.84c-.52-.1-1.05.23-1.57 1.01-.9-1.22-1.78-1.22-2.61 0-.57-.65-1.1-.94-1.6-.88a1.39 1.39 0 0 0-1.01.72q-1.05-1.54-2.18-.46c-.03.07-.08.16-.05.23 0 2.06.65 3.19 2.75 4.28l.32.13a8.5 8.5 0 0 0 5.22.1l.49-.2a4.44 4.44 0 0 0 2.92-4.16c0-.09-.03-.2-.03-.26-.65-.98-.93-.84-1.53.34z"/><path d="M26.43 21.91l.16-2.12a22.89 22.89 0 0 1-3.15.2q-1.17 0-2.18-.1a3.1 3.1 0 0 0-.43-.03l.16 1.5a5.8 5.8 0 0 1 .03.68l.12 1.34a6.58 6.58 0 0 1-.15 2.26 3.6 3.6 0 0 0-.12.55q.74-.1 1.6.88 1.24-1.83 2.6 0 .78-1.17 1.55-1.01l-.19-4.15" fill="#fbc219"/><path d="M23.79 16.33h-.35a18.35 18.35 0 0 0-4.71.52q-1.95.56-1.95 1.3 0 .43.59.76l.04.03a5.93 5.93 0 0 0 1.32.5 16.12 16.12 0 0 0 2.1.42 3.1 3.1 0 0 1 .43.03 3.54 3.54 0 0 1-.04-.52q-.12-2.2 2.57-3.04" fill="#a30e03"/><path class="cls-14" d="M26.4 21.98q1.16-.13 2.36-.36a4.5 4.5 0 0 1 .12-1.05 7.84 7.84 0 0 1 .27-.81 2.78 2.78 0 0 1 .35-.79 5.62 5.62 0 0 1-1.4.53q-.74.2-1.55.36a22.89 22.89 0 0 1-3.15.2q-1.17 0-2.18-.1a3.1 3.1 0 0 0-.43-.04 16.12 16.12 0 0 1-2.1-.42 5.93 5.93 0 0 1-1.32-.5q.15.27.3.6a7.84 7.84 0 0 1 .28.81 10.92 10.92 0 0 1 .23 1.4q1.4.2 2.8.3a32.11 32.11 0 0 0 5.41-.13zM17.37 19l-.04-.03q-.58-.32-.58-.75 0-.75 1.94-1.3a18.35 18.35 0 0 1 4.7-.52h.36a17.88 17.88 0 0 1 4.35.52q1.95.55 1.95 1.3 0 .4-.55.75m-8.4 4.48a27.37 27.37 0 0 1-2.95-.36q-.08.62-.2 1.34-.12.42-.2.85a7.06 7.06 0 0 0-.11 1.24q1.13-1.08 2.18.45a1.39 1.39 0 0 1 1-.71q.75-.1 1.6.88 1.25-1.83 2.61 0 .78-1.18 1.56-1.01a1.88 1.88 0 0 1 1.08.84q.9-1.76 1.64-.29a7.8 7.8 0 0 0-.12-1.3l-.23-.95a10.68 10.68 0 0 1-.2-1.47q-1.2.23-2.37.39a28.63 28.63 0 0 1-5.29.1z"/><path class="cls-14" d="M29.3 26.9a4.6 4.6 0 0 1-2.97 4.12 8.81 8.81 0 0 1-5.55.1 4.73 4.73 0 0 1-3.15-4.57m11.67.13v.23m-11.12-5.09q0 .62-.03 1.27m10.61-.13a5.77 5.77 0 0 1 0-1.34m-8.94 5.35a13.06 13.06 0 0 0 .38 2.83m2.22-2.66l.25 2.93m4.98-3.1a13.06 13.06 0 0 1-.38 2.83m-2.23-2.66l-.24 2.93"/><path id="mazzo_asset_m_OttoCoppe_line_0_Layer0_0_1_STROKES" data-name="mazzo asset m OttoCoppe line 0 Layer0 0 1 STROKES" class="cls-6" d="M16.72 35.43a16.94 16.94 0 0 0 2.3.51 17.95 17.95 0 0 0 3.02.19q2.98-.06 5.96-.33a6.04 6.04 0 0 0 1.65-.33l.12-1.91-.41.12a.73.73 0 0 0-.19.06 20.3 20.3 0 0 1-11.6-.06l-.4-.12-.3-.12zm.45-1.87"/><path id="mazzo_asset_m_OttoCoppe_line_0_Layer0_0_1_STROKES-2" data-name="mazzo asset m OttoCoppe line 0 Layer0 0 1 STROKES" class="cls-14" d="M16.72 35.43a16.94 16.94 0 0 0 2.3.51 23.32 23.32 0 0 0 3.45.3 27.83 27.83 0 0 0 7.18-.77l.12-1.91-.41.12a.73.73 0 0 0-.19.06 20.3 20.3 0 0 1-11.6-.06l-.4-.12-.3-.12zm.45-1.87"/><path class="cls-14" d="M46.07 26.37a3.2 3.2 0 0 0-3.72-.7"/><path class="cls-18" d="M39.6 27.37a1.51 1.51 0 0 0 1.46-.02m4.67-.15s-1.55-1.67-2.9-.71a1.58 1.58 0 0 0-.2 1m-1.4-.76a3.03 3.03 0 0 0-1.78-.39"/><path d="M44.48 26.48s.07.8-.36.9-.74-.09-.77-.24a1.27 1.27 0 0 1-.06-.53c.03-.23.04-.26.27-.33l.22-.08zm-3.91.09s.18.44-.1.69a.56.56 0 0 1-.73.02 1.04 1.04 0 0 1-.12-.73.39.39 0 0 1 .18-.21z"/><circle class="cls-1" cx="43.72" cy="26.6" r=".19" transform="rotate(-81.04 43.72 26.6)"/><circle class="cls-1" cx="40" cy="26.69" r=".18" transform="rotate(-81.04 40 26.69)"/><path class="cls-13" d="M47.02 31.01a8.47 8.47 0 0 1-3.56.78 5.71 5.71 0 0 1-2.58-1.23l-1.83.92a17.62 17.62 0 0 0-.58 1.92 15.06 15.06 0 0 0-.13 2.65 3.29 3.29 0 0 0 2.41.75c.75-.23 1.55-.84 2.33-1.1a3.95 3.95 0 0 0 1.89-1.37 1.97 1.97 0 0 0 1.31-.89 4.23 4.23 0 0 0 .74-2.43z"/><path class="cls-14" d="M47.02 31.01a8.47 8.47 0 0 1-3.56.78 5.71 5.71 0 0 1-2.58-1.23l-1.83.92a17.62 17.62 0 0 0-.58 1.92 15.06 15.06 0 0 0-.13 2.65 3.29 3.29 0 0 0 2.41.75c.75-.23 1.55-.84 2.33-1.1a3.95 3.95 0 0 0 1.89-1.37 1.97 1.97 0 0 0 1.31-.89 4.23 4.23 0 0 0 .74-2.43z"/><path class="cls-13" d="M40.84 29.7a2.28 2.28 0 0 0-1.92.62 11.7 11.7 0 0 1-1.14 1.01 2.91 2.91 0 0 0 3.1-.92 3.52 3.52 0 0 0 2.2 1.27c1.3.08 1.44.1 1.44.1a4.45 4.45 0 0 0-1.12-1.6 3.03 3.03 0 0 0-2.56-.48z"/><path class="cls-14" d="M40.84 29.7a2.28 2.28 0 0 0-1.92.62 11.7 11.7 0 0 1-1.14 1.01 2.91 2.91 0 0 0 3.1-.92 3.52 3.52 0 0 0 2.2 1.27c1.3.08 1.44.1 1.44.1a4.45 4.45 0 0 0-1.12-1.6 3.03 3.03 0 0 0-2.56-.48z"/><path class="cls-18" d="M41.48 25.6a21.99 21.99 0 0 1-.73 2.87c-.32.75-.3.84-.26 1.01a4.25 4.25 0 0 0 2.07.13c.54-.13-.04-.88-.04-.88"/><path class="cls-14" d="M39.44 25.46a2.87 2.87 0 0 1 2 .1"/><path class="cls-18" d="M37.56 36.38l-.39.08"/><path d="M36.46 36.65a11.76 11.76 0 0 0-6.56 5.22" stroke-dasharray=".74 .74" stroke-width=".3" fill="none" stroke="#000" stroke-linecap="round" stroke-linejoin="round"/><path class="cls-18" d="M29.71 42.2l-.19.35m8.66-5.52l-.35.19"/><path d="M37.2 37.58a15.5 15.5 0 0 0-5.12 4.7" stroke-dasharray=".74 .74" stroke-width=".3" fill="none" stroke="#000" stroke-linecap="round" stroke-linejoin="round"/><path class="cls-18" d="M31.9 42.61l-.18.36m7.39-5.39a3.75 3.75 0 0 0-.33.22"/><path d="M38.19 38.27a15.58 15.58 0 0 0-3.43 4.54" stroke-dasharray=".76 .76" stroke-width=".3" fill="none" stroke="#000" stroke-linecap="round" stroke-linejoin="round"/><path class="cls-18" d="M34.57 43.16l-.17.36m5.59-5.46l-.15.38"/><path stroke-dasharray=".81 .81" stroke-width=".3" fill="none" stroke="#000" stroke-linecap="round" stroke-linejoin="round" d="M39.55 39.19l-1.6 4.16"/><path class="cls-18" d="M37.8 43.73l-.14.37M43.8 38l.15.37"/><path stroke-dasharray=".81 .81" stroke-width=".3" fill="none" stroke="#000" stroke-linecap="round" stroke-linejoin="round" d="M44.25 39.12l1.67 4.14"/><path class="cls-18" d="M46.07 43.63l.15.38m-.74-6.63l.24.32"/><path d="M46.25 38.4c.86 1.1 2.22 2.87 2.98 3.8" stroke-dasharray=".88 .88" stroke-width=".3" fill="none" stroke="#000" stroke-linecap="round" stroke-linejoin="round"/><path class="cls-18" d="M49.5 42.55a3.02 3.02 0 0 0 .27.3m-2.61-6.27l.35.17"/><path d="M48.13 37.13a12.76 12.76 0 0 1 3.7 3.94" stroke-dasharray=".73 .73" stroke-width=".3" fill="none" stroke="#000" stroke-linecap="round" stroke-linejoin="round"/><path class="cls-18" d="M52.03 41.4l.2.34m-4.07-6.1l.37.12"/><path d="M49.23 36.03a13.27 13.27 0 0 1 5.63 4.22" stroke-dasharray=".75 .75" stroke-width=".3" fill="none" stroke="#000" stroke-linecap="round" stroke-linejoin="round"/><path class="cls-18" d="M55.08 40.57l.21.34"/><path d="M49.42 31.75a.2.2 0 0 1-.2-.17 4.98 4.98 0 0 0-.2-.94 3.1 3.1 0 0 0-1.59-1.84.2.2 0 0 1-.09-.1 4.28 4.28 0 0 1-.22-.62 4 4 0 0 1-.16-.57 8.4 8.4 0 0 0-.33-1.12.21.21 0 0 1-.04-.07.23.23 0 0 1-.06-.09c-.2-.29-.43-.57-.67-.85a.5.5 0 0 0-.1-.1 2.2 2.2 0 0 0-.34-.2.89.89 0 0 1-.19-.07l-1.12-.46a2.07 2.07 0 0 1-.93-.72l-.34-.76a.2.2 0 0 1 .36-.17l.33.73a1.7 1.7 0 0 0 .74.55l1.12.46a.54.54 0 0 0 .14.05.2.2 0 0 1 .05.01 2.64 2.64 0 0 1 .42.25.89.89 0 0 1 .17.18c.25.28.49.59.7.9a.2.2 0 0 1 .08.1.22.22 0 0 0 .03.08 8.42 8.42 0 0 1 .37 1.22 3.54 3.54 0 0 0 .15.53 4.02 4.02 0 0 0 .18.52 3.5 3.5 0 0 1 1.72 2.03 5.63 5.63 0 0 1 .15.59 4.74 4.74 0 0 0 .94-2.02 4.98 4.98 0 0 0 .05-.73.2.2 0 0 1 .4 0 5.5 5.5 0 0 1-.06.8 5.16 5.16 0 0 1-1.31 2.54.2.2 0 0 1-.15.06z"/><path d="M48.27 32.2a1.53 1.53 0 0 1-.41-.06h-.03c-.43-.08-.74-.43-.92-1.03a.2.2 0 0 1 .38-.11c.13.45.33.7.61.74a1.58 1.58 0 0 0 1.4-.35.2.2 0 0 1 .28.05.2.2 0 0 1-.04.28 2.2 2.2 0 0 1-1.27.47z"/><path d="M47.02 31.37a.2.2 0 0 1-.2-.21l.2-3.44a.2.2 0 0 1 .21-.2.2.2 0 0 1 .19.22l-.2 3.44a.2.2 0 0 1-.2.2zm-.07 2.15a.2.2 0 0 1-.2-.2v-.3a.28.28 0 0 1 .04-.14 1.95 1.95 0 0 1 .04-.35.2.2 0 0 1 .35-.08.74.74 0 0 0 .77.3 3.16 3.16 0 0 0 2.08-1.06 3.47 3.47 0 0 0 .9-2.03.2.2 0 0 1 .22-.18.2.2 0 0 1 .18.21 3.86 3.86 0 0 1-1 2.27 3.54 3.54 0 0 1-2.32 1.2 1.15 1.15 0 0 1-.84-.17.19.19 0 0 1-.02.06v.27a.2.2 0 0 1-.2.2z"/></g></g></svg>