<svg xmlns="http://www.w3.org/2000/svg" viewBox="0 0 87 140">
  <rect width="87" height="140" rx="6" ry="6" fill="#fff"/>
  <path d="M70.8 73.2s2.5-2.4 3.5 1.3-4.6 3.5-2.9 3.4 2.4-6-.6-4.7zm-55.6-2.8s-3.3-1.3-3.6 2.1 5.4 3.9 3.7 3.8-4.7-5.1-.1-5.9zm9.2-19.5s-2.8-2.4-6.3.7-.2 10.8-.2 10.8 3.1 5.3 2.8 8.3-.8 3.3-.8 3.3a8.8 8.8 0 0 0 2.7-7.5c-.2-2-2.6-4.5-3.2-9.8s4.2-5.9 6-3.1zm37.2 2.7s3.6-3 6-1.5a4.1 4.1 0 0 1 1.9 2.7s.4 5.5-1.7 9.3-3.8 6.9-3 9.2a7.7 7.7 0 0 1-1-5.2c.6-2.6 3.6-6.8 3.1-9.8s-.4-4.2-2.7-4.3a3 3 0 0 0-3 1.6z" fill="#ccc"/>
  <path d="M23.6 44.3a3.5 3.5 0 0 0-3 1.8 77.2 77.2 0 0 0 14.7 3.5c6.9.7 17.2 1.5 26.1-.5 5.9-1.1 6.5-1.4 6.5-1.4a2.2 2.2 0 0 0-.6-.7c-.5-.2-.3-.3-.8-.8a2.9 2.9 0 0 0-1.9-.6c-.6-.1-10.3 1.4-11.4 1.7s-12.2.9-19.4-.8z" fill="#004da1"/>
  <path d="M58.8 119.7H26v4.8h32.8v-4.8M48 107.2l-.3-.3h-6.4l-3.6-.3-.6 1.1.7 1.1a1.3 1.3 0 0 0 .2 2.2l.3.2H47l.3-.2c.9-.7.9-1.4.1-2.2a1.2 1.2 0 0 0 .6-1.7M35 64l2.8.4a57.9 57.9 0 0 0 9.3.4l2.3-12.9a22.3 22.3 0 0 0-7.1 2.1A13 13 0 0 0 35 64z" fill="red"/>
  <path d="M38.3 111.3a5.1 5.1 0 0 0-2.4 2.6 11.7 11.7 0 0 1-5.8 5.8h24.4a9.9 9.9 0 0 1-4.4-4.4 14.9 14.9 0 0 0-3.1-4h-8.7m6-21.9h-.1c0-.1.1-.1.1 0" fill="#febf10"/>
  <path d="M33.5 46.6a75 75 0 0 0 9.4 1 61.5 61.5 0 0 0 9.6-.1 5 5 0 0 0 .7-2.7v-1.1c-7.5-4.5-14-3.6-19.7 2.9" fill="#fbc219"/>
  <path d="M61.1 94.7h-.2a12.4 12.4 0 0 0-2.5 3.5 8.8 8.8 0 0 1-1.9 2.4 15.3 15.3 0 0 1-3 1.9 16.9 16.9 0 0 0 3.6-6.4l.3-1-4.6 1.2a3.3 3.3 0 0 0-1.9 1.8 13.7 13.7 0 0 1-4.8 5.6 19.3 19.3 0 0 0 1.6-4.6 10.6 10.6 0 0 0 .4-1.9 3.8 3.8 0 0 0-2.6 2.5l-.2.3v-3l-8 2.3h-2.7l-5.2-.6-3.7-1.1-3.9-2.6c.3.7.7 1.3 1 1.9a17.7 17.7 0 0 0 6.3 6.7 20.9 20.9 0 0 0 8.6 2.9l3.6.3h6.4l3.7-.7 1.4-.5a23.8 23.8 0 0 0 7.1-4.5 20.7 20.7 0 0 0 5.4-7.6 5.2 5.2 0 0 0-4.2 1.2z" fill="#0d3a12"/>
  <path d="M58.2 93.4l-.5.4a3 3 0 0 0-4 0l-.6.6a3.5 3.5 0 0 0-4.1.1 1.8 1.8 0 0 1-.7.5 3.3 3.3 0 0 0-2.8-1.1H45l-2.4 1.2a4.1 4.1 0 0 0-1.9-1.1h-.8a5.3 5.3 0 0 0-2.4.6l-.9.5a3.9 3.9 0 0 0-4.7-1.2l-.8.4a3.2 3.2 0 0 0-4-1.1l-.6.3a2.7 2.7 0 0 0-2.2-1.3 1.7 1.7 0 0 0-1 .7 1.8 1.8 0 0 0-2.4-1l-.4.2 1.3 3.1 3.9 2.6 3.7 1.1 5.2.6h2.7l8-2.3v3l.2-.3a3.8 3.8 0 0 1 2.6-2.5 10.6 10.6 0 0 1-.4 1.9 19.3 19.3 0 0 1-1.6 4.6 13.7 13.7 0 0 0 4.8-5.6 3.3 3.3 0 0 1 1.9-1.8l4.6-1.2-.3 1a16.9 16.9 0 0 1-3.6 6.4 15.3 15.3 0 0 0 3-1.9 8.8 8.8 0 0 0 1.9-2.4 12.4 12.4 0 0 1 2.5-3.5h.2a5.2 5.2 0 0 1 4.2-1.1l.3-.8a2.9 2.9 0 0 0-3.7.2l-.6.5a2 2 0 0 0-3.1-.1m-6.8-70.5a2.7 2.7 0 0 0-2-.2l-1.7 1.4v.2H47v-.9l-.4-.5-.3-.3-1.5-.8-.5-.3-.5.4a13.6 13.6 0 0 0-1.2 1.2 1 1 0 0 0-.4.7c-.1 1 0 .6-.5 1.4l-.4-.4-1.3-1.4-1.8-.6-1.5.3a6.8 6.8 0 0 1 2.5 4.5 1.4 1.4 0 0 0 .5 1.1 4.2 4.2 0 0 0 1.4.9c-1.7.4-2.1 1.2-1.6 2.5s.7.9 1.5.7l-1.4 1.5a6.2 6.2 0 0 1-1.9 1.2 15.5 15.5 0 0 0-3.6 1.3l-.3.7.5.5h1.4v.5l.2.3a1.2 1.2 0 0 0 1.8.2l.3.4a.1.1 0 0 0 .1.1 2.5 2.5 0 0 0 2.6-.3l.6.4a1.7 1.7 0 0 0 2.4-.3 1.8 1.8 0 0 0 2.5.3l.5-.4 1.6.5h.6l.5-.7a2.6 2.6 0 0 0 2.9.1h.1v-.9h1.9v-.5a2.4 2.4 0 0 0-2-1.7 6.9 6.9 0 0 1-4.9-3.2 2.2 2.2 0 0 0 1.8-.3 1.1 1.1 0 0 0 .5-.8 1.3 1.3 0 0 0-.8-1.6 8.8 8.8 0 0 0-1.7-.2 3.9 3.9 0 0 0 2.8-3.5 6.1 6.1 0 0 1 1.8-3.1c-.1-.2-.3-.3-.4-.4" fill="#325723"/>
  <path d="M66.5 83.7a35 35 0 0 0-1.5-6.2l-.7-1.7a67 67 0 0 1-7.7.8.9.9 0 0 1-.6.3h-.6c-1.6.2-3.2.2-4.8.3-.1.1-.2-.1-.4-.1H50c-.8 1-1.6.3-2.4.3l-9.7-.2c-2.7-.4-5.3-.7-7.8-1.2l-7.9-1.5-.5 1.2a31.7 31.7 0 0 0-2 8.6 23.6 23.6 0 0 0 .8 7.9l.4-.2a1.8 1.8 0 0 1 2.4 1 1.7 1.7 0 0 1 1-.7 2.7 2.7 0 0 1 2.2 1.3l.6-.3a3.2 3.2 0 0 1 4 1.1l.8-.4a3.9 3.9 0 0 1 4.7 1.2l.9-.5a5.3 5.3 0 0 1 2.4-.6h.8a4.1 4.1 0 0 1 1.9 1.1L45 94h.5a3.3 3.3 0 0 1 2.8 1 1.8 1.8 0 0 0 .7-.5 3.5 3.5 0 0 1 4.1-.1l.6-.6a3 3 0 0 1 4 0l.5-.4a2 2 0 0 1 3.1.1l.6-.5a2.9 2.9 0 0 1 3.7-.2 17.5 17.5 0 0 0 .9-9.1zm-13.3-40v1.1a5 5 0 0 1-.7 2.7l12-1.8a10 10 0 0 0-2.2-3.4c-2.3-2.3-4.6-4.5-7.8-4.9l-.4.8h-1.7c0 .1.1.8 0 .8a2.9 2.9 0 0 1-3.1.1l-.5.7h-.6l-1.6-.5-.5.4a1.8 1.8 0 0 1-2.5-.3 1.7 1.7 0 0 1-2.4.3l-.6-.4a2.5 2.5 0 0 1-2.6.3.1.1 0 0 1-.1-.1l-.3-.4a1.2 1.2 0 0 1-1.8-.2 3.6 3.6 0 0 1-.4-.9h-1.3l-.2-.9c-1.1.2-2.5.7-3.6 1a13.9 13.9 0 0 0-6.7 5.9l9.9 2.4c5.7-6.3 12.2-7.2 19.7-2.7z" fill="#d09b07"/>
  <path d="M46.9 50.5c-2.9 0-5.9-.2-8.9-.5a70.2 70.2 0 0 1-8-1.3 44.6 44.6 0 0 1-7.2-1.8l1.3 2.8.3.8 1.1 3.3.3 2.2a21.5 21.5 0 0 1 .3 6.2L35 64a13 13 0 0 1 7.3-10 22.3 22.3 0 0 1 7.1-2.1l-2.3 12.9c2.4-.1 4.7-.3 7.1-.6l7.1-.7a24.9 24.9 0 0 1 0-7.7c0-.1.1-.2.1-.3l.4-1.7.9-2.3 2.9-3.2a56.7 56.7 0 0 1-9 1.6 77.7 77.7 0 0 1-9.7.6" fill="#980805"/>
  <path d="M46.6 17l-1.4-1.1-.5-.4-.6-.4-1.3 1.2-1.5 2-1.2 2.8-.6 2.1.5.4 1.3 1.4.3.5c.5-.9.5-.5.6-1.5a1 1 0 0 1 .4-.7 13.6 13.6 0 0 1 1.2-1.2l.5-.4.5.3 1.2.8.3-.7v1l.4.5v.5l.2.5h.6v-.2l1.7-1.4-1.3-3.5z" fill="red"/>
  <path d="M64.3 75.8l-.5-1.6-2.5-10.7-7.1.7c-2.4.3-4.7.5-7.1.6a57.9 57.9 0 0 1-9.3-.4L35 64l-8.9-1.8c-.1.8-.3 1.6-.4 2.3a27.5 27.5 0 0 1-2.6 8.1l-.9 1.8 7.9 1.6 7.8 1.2 9.7.3H50s10.8-.9 14.3-1.6" fill="#004da1"/>
  <path fill="none" stroke="#000" stroke-linecap="round" stroke-linejoin="round" stroke-width=".4" d="M43.5 15.6l.8.7-.6.6.7.7.6-.9.8.8.7-.6-1-.9"/>
  <path fill="none" stroke="#000" stroke-linecap="round" stroke-linejoin="round" stroke-width=".4" d="M45 15.7l-.6.5.6.5.6-.6-.6-.4-.8-.6"/>
  <path fill="none" stroke="#000" stroke-linecap="round" stroke-linejoin="round" stroke-width=".4" d="M44.1 15.1l-1.4 1.1 1 .7-.8 1.1.7.9.8-1.3.8 1.2.6-1.3.8 1.4.7-.8-.8-1.2"/>
  <path fill="none" stroke="#000" stroke-linecap="round" stroke-linejoin="round" stroke-width=".4" d="M47.1 20.3l-.5-1.4-.8 1.2.4 1.9.9-1.7.9-1-.7-1.2"/>
  <path fill="none" stroke="#000" stroke-linecap="round" stroke-linejoin="round" stroke-width=".4" d="M47.1 20.3l.3 2.1 1.2-1.5-.6-1.6M42.9 18l-1-.8-.7 1.1 1.1.7.6-1zm6.4 4.8l-.7-1.9m-2 2.7l.8-1.2.2 1.8m-1.7-1.5l.3-.7v1M43 20.1l-.7-1.1-.7 1.1.8 1.3.6-1.3.6-1.2.7 1.6.9-1.7.6 1.3-.9 1.9"/>
  <path fill="none" stroke="#000" stroke-linecap="round" stroke-linejoin="round" stroke-width=".4" d="M43.7 22.1v-.2l-.7-1.8m-.8 4.1l-.4-1.4-.4 1.2-.2.7m2.5-2.8l.6-1.4.4 1.4.2.1m1.3 1l-.3-.3m-3.5-1.3l.4 1.5m-1.2-2.8l-.7 1.2.9 1.5.6-1.4m.3-5.2l-.8 1M46 33.1a11.1 11.1 0 0 0 3.2 5.9m-2.5-6.1c.1.2.1.4.2.6a6.7 6.7 0 0 0 5.3 4.7s2.4.5 2-.7-2.3-1.6-2.3-1.6a6.5 6.5 0 0 1-4.6-3.1m-4.4.3a14.9 14.9 0 0 1-2.1 5.9l-.3.3.5.4a1.8 1.8 0 0 0 2.5-.2l.6-6.3m-1.8-.2c0 .2-.1.3-.2.5a13.3 13.3 0 0 1-4.4 5.5c-.2.2-.2.5.3.7s1.7.2 2.5-.4"/>
  <path d="M45 33.1a15.3 15.3 0 0 0 1.3 5.6 1.4 1.4 0 0 0 .2.6l1.4.5a1.5 1.5 0 0 0 .9-.1 1.3 1.3 0 0 0 .4-.7 2.8 2.8 0 0 0 2.9.3c1.4-.8-1.1-1.5-1.1-1.5" fill="none" stroke="#000" stroke-linecap="round" stroke-linejoin="round" stroke-width=".4"/>
  <path d="M46.5 39.3l-.5.4a1.8 1.8 0 0 1-2.5-.2M51 49a69.1 69.1 0 0 1-9.1 0c-3.2-.2-6.3-.6-9.4-1.1a64.8 64.8 0 0 1-8.7-2.1l-2.4-.8-.8 1.1 2.1.7a58.6 58.6 0 0 0 7.2 1.9c2.6.5 5.3.9 8 1.2a67.3 67.3 0 0 0 8.9.5 77.7 77.7 0 0 0 9.7-.6 66.1 66.1 0 0 0 8.9-1.5l1-.3 1.2-.2c.2 0 .2-.1.2-.3s-.4-.5-1-.7a48.3 48.3 0 0 1-7.6 1.3 57.1 57.1 0 0 1-8.2.9z" fill="none" stroke="#000" stroke-linecap="round" stroke-linejoin="round" stroke-width=".4"/>
  <path d="M33.8 37.3c-4.4.5-8.7 4.1-10.3 6.8l9.9 2.4a58.8 58.8 0 0 0 9.4 1 51.3 51.3 0 0 0 9.6-.1l12-1.8a11.1 11.1 0 0 0-2.2-3.4c-2.3-2.3-4.7-4.4-7.9-4.8" fill="none" stroke="#000" stroke-linecap="round" stroke-linejoin="round" stroke-width=".4"/>
  <path d="M37.7 39a1.8 1.8 0 0 1-1.6.4 1.2 1.2 0 0 1-.6-.8.5.5 0 0 1 .1-.5m31.2 8.7c0-.4-.3-.6-.7-.9a4.3 4.3 0 0 0-1.7-.3M41.6 20.1l-1.1-.4L40 21l.9.3-.5 1.1 1 1.6" fill="none" stroke="#000" stroke-linecap="round" stroke-linejoin="round" stroke-width=".4"/>
  <path fill="none" stroke="#000" stroke-linecap="round" stroke-linejoin="round" stroke-width=".4" d="M40 21l-.3 1 .7.4-.5 1.1m1.3-5.2l-.7 1.4m-.8 2.3l-.3 1.1m-15.9 21l-.7.2a1.7 1.7 0 0 0-1.3.7m19.2-11.9l-1.2 1.3a6.2 6.2 0 0 1-1.9 1.2l-3 1.1c-.8.3-1.1.9-.4 1.4a2.7 2.7 0 0 0 1.4 0l.6-.2a12.1 12.1 0 0 0 5.5-5m-19 13.9l1.3 2.8.3.8 1.1 3.3.3 2.2a21.7 21.7 0 0 1 .3 6.2l8.9 1.8 2.8.4a72.5 72.5 0 0 0 9.3.5l7.1-.7c2.4-.1 4.7-.4 7.1-.7a24.9 24.9 0 0 1 0-7.7c0-.1.1-.2.1-.3l.4-1.7.9-2.3 2.8-3.1"/>
  <path d="M25.4 53.7a3.9 3.9 0 0 0-3.6-1.6 1.9 1.9 0 0 0-1.4 1.1 7.2 7.2 0 0 0-.5 5.9 63.7 63.7 0 0 0 2.3 6.1 12 12 0 0 1 .9 5.9v1.4M16.6 74c1.2-.5 1.5-1.5 1.5-2.8a3 3 0 0 0-2.6-3.1 3.8 3.8 0 0 0-4.4 1.6 2.6 2.6 0 0 0-.7 1.5 5.2 5.2 0 0 0 1.3 4.9 5.3 5.3 0 0 0 4 1.8 7.2 7.2 0 0 0 5.9-2.4l.5-1.2m-.5 1.2a32.6 32.6 0 0 0-2 8.6 23.4 23.4 0 0 0 .8 7.9l.4-.2a1.8 1.8 0 0 1 2.4 1 1.7 1.7 0 0 1 1-.7 2.8 2.8 0 0 1 2.2 1.4l.6-.4a3.2 3.2 0 0 1 4 1.1l.8-.4a3.9 3.9 0 0 1 4.7 1.2l.9-.5a5.3 5.3 0 0 1 2.4-.6m21.5-38.5A4 4 0 0 1 64 54a2.4 2.4 0 0 1 2.4 1.4 7.7 7.7 0 0 1 .1 5.6 63.2 63.2 0 0 1-2.2 6.1 11.8 11.8 0 0 0-.6 6.7M44.9 93.9h.5a3.7 3.7 0 0 1 2.9 1.1l.6-.4a3.3 3.3 0 0 1 4.1-.2l.6-.6a3 3 0 0 1 4 0l.5-.4a2.1 2.1 0 0 1 3.1.1l.6-.5a3 3 0 0 1 3.7-.2 17.5 17.5 0 0 0 .9-9.1 28.3 28.3 0 0 0-1.6-6.2l-.6-1.7m.9 2.2l1.4 1.1c2.8 1.7 7.5.5 8.8-1.6a5.6 5.6 0 0 0 .7-5.1 4.2 4.2 0 0 0-4.3-2.6 3.5 3.5 0 0 0-3.2 2.1 3 3 0 0 0 2.1 4.2" fill="none" stroke="#000" stroke-linecap="round" stroke-linejoin="round" stroke-width=".4"/>
  <path d="M61.2 93.4l-.4 1.3a16.7 16.7 0 0 1-2.3 5.1 21.9 21.9 0 0 1-7.2 6.3l1.4-.5a23.8 23.8 0 0 0 7.1-4.5 21.9 21.9 0 0 0 5.4-7.6l.3-.8M53 94.3l-.3 2a14.2 14.2 0 0 1-3.7 7.9 11.9 11.9 0 0 1-3.9 2.7h3.4a21.2 21.2 0 0 0 4.1-3.3l.8-.9a16.9 16.9 0 0 0 3.6-6.6l.3-1 .3-1.4m-12.7.2l-2.4 1.2-.2 11.8h1.2l2.5-3.2a19.3 19.3 0 0 0 1.6-4.6 11.6 11.6 0 0 0 .4-1.8l.3-2.4" fill="none" stroke="#000" stroke-linecap="round" stroke-linejoin="round" stroke-width=".4"/>
  <path d="M42.3 106.9h-3.5l-1.2-.2-.6 1.1.7 1.1h9.6a1.2 1.2 0 0 0 .6-1.7l-.3-.3m-4.1 0h1.6m-3 9.4v-1.8a4.1 4.1 0 0 0-.6-2.3c-.3-.7-.7-1-1.1-1h-2.2a5.5 5.5 0 0 0-2.4 2.6 11.7 11.7 0 0 1-5.8 5.8h2.3l.7-.2a4.2 4.2 0 0 0 2.4-2.1l.7 1.1 1-1a2.8 2.8 0 0 0 1.5-1.3 2.2 2.2 0 0 0 .3-1 3 3 0 0 1 1.3-2.3c.4.5.5 1 .1 1.4l-.6.7a2.8 2.8 0 0 0-.7 3.3l1.2-.4.2.4 1.4 1.4h.4l1.7-1.4.2-.9.6.6a1.3 1.3 0 0 0 .7-.9v-.7a5.6 5.6 0 0 1-.6-3.6 3.8 3.8 0 0 1 .9 1.3 3.1 3.1 0 0 1 .1 1 3.5 3.5 0 0 0 1.2 3.1l.7.6.2-.8 3.8 1.7h2.7a9.9 9.9 0 0 1-4.4-4.4 14.9 14.9 0 0 0-3.1-4h-2.7a4.8 4.8 0 0 0-1.8 2.6 1.4 1.4 0 0 0-.2.7" fill="none" stroke="#000" stroke-linecap="round" stroke-linejoin="round" stroke-width=".4"/>
  <path d="M46.9 111.2h.3a1.4 1.4 0 0 0 .1-2.3m1.2-2.2l2.8-.6M30 119.6h-4.1v4.8h32.8v-4.8h-4.3m-12.2 0h4.2m5.3 0h-5.1m-4.1-24.5a5.2 5.2 0 0 0-1.9-1.1h-.8m-3.3 1l.7 4.4a18.8 18.8 0 0 0 3.2 6.5l.8 1m-18-14.1l2.4 4.9a18.9 18.9 0 0 0 5.7 5.9 20.8 20.8 0 0 0 7.5 3.2M31 94.2l2 5a20.5 20.5 0 0 0 5.8 6.6l1.3 1.1m-2.4 1.9a1.4 1.4 0 0 0 .2 2.3h.3" fill="none" stroke="#000" stroke-linecap="round" stroke-linejoin="round" stroke-width=".4"/>
  <path d="M26.4 93.5l2.9 5.4a22.7 22.7 0 0 0 6.8 6.3l3.1 1.6" fill="none" stroke="#000" stroke-linecap="round" stroke-linejoin="round" stroke-width=".4"/>
  <path d="M20.4 92l1.3 3.1c.3.7.7 1.3 1 2a18.2 18.2 0 0 0 6.3 6.6 20.4 20.4 0 0 0 8.6 2.9m4.2 13h-9.5m8.2-8.4h3.7m-7.5-87.9a8.1 8.1 0 0 1 2.4 3.7c.4 2 .7 2.5 1.9 2.7a3.5 3.5 0 0 0 3.6-1.3c.1 0 1.7 1.9 2.8 1.4a3.9 3.9 0 0 0 2.7-3.6c.3-2.3 1.7-2.8 1.7-2.8s-2.3-1.9-4.2 1.1a.5.5 0 0 1-.8-.2 4.4 4.4 0 0 0-2.5-2.5 3.5 3.5 0 0 0-1.9 2.1c-.4 1.4-.7 1.8-1 1.2s-2.1-2.9-4.7-1.8z" fill="none" stroke="#000" stroke-linecap="round" stroke-linejoin="round" stroke-width=".4"/>
  <path d="M41.1 29.7a1.8 1.8 0 0 0-1.8 2.1 1.4 1.4 0 0 0 1.6 1.1s.9.2 1.1-.9-1-1.2-1.2-.9m7.3.3c0-.6-1.4-.8-1.6.1a1.2 1.2 0 0 0 .8 1.3 2 2 0 0 0 1.7-.3 1 1 0 0 0 .6-.8c.1-.7-.1-1.5-.7-1.7a4 4 0 0 0-1.9-.1m-5.3 2.8a9.4 9.4 0 0 0 5.3 0m-22.7 18s-4.3-2.6-6.8 2 1.1 10.9 1.7 12.6a13.7 13.7 0 0 1 1.4 6.3c-.2 3.2-4.5 6.5-7.7 3.6s.6-6.7 2.4-4.5c0 0-1.9-.2-2 1.2s2 2.7 3.5 2 3.8-2.4.9-8.5-3.1-10.6-2.4-12.9 5.1-6.4 8.6-3m37.8 4.2s3.8-3.4 6.6-1 .4 8.6-.5 11-4.6 7.1-2 12 7.5 2.1 8.1.2-.1-3-.9-3.4a1.8 1.8 0 0 0-2.2.8s1.7-1 1.9.9-2.1 2.4-3.9 1.4-2.5-3.7-.7-7.4a36 36 0 0 0 3.5-10.7c.8-5-2.9-10.3-8.6-6.6" fill="none" stroke="#000" stroke-linecap="round" stroke-linejoin="round" stroke-width=".4"/>
  <ellipse cx="43.5" cy="71.1" rx="3.3" ry="5.4" fill="#0065b7"/>
  <ellipse cx="55.6" cy="70.5" rx="2.3" ry="5.3" transform="rotate(-3.2 55.33 71.41)" fill="#0065b7"/>
  <ellipse cx="60.4" cy="70.1" rx="2.2" ry="5.3" transform="rotate(-9.7 60.5 70.42)" fill="#0065b7"/>
  <ellipse cx="50.2" cy="70.9" rx="3.1" ry="5.3" fill="#0065b7"/>
  <ellipse cx="37.2" cy="70.6" rx="5.4" ry="2.9" transform="rotate(-86.9 37.14 70.63)" fill="#0065b7"/>
  <ellipse cx="31.5" cy="69.8" rx="5.5" ry="2.6" transform="rotate(-82.9 31.57 69.8)" fill="#0065b7"/>
  <ellipse cx="26.9" cy="68.8" rx="5.5" ry="2" transform="rotate(-78.9 26.99 68.88)" fill="#0065b7"/>
  <path d="M37.4 88.8c.2 1 3.5 4.1 4.1 4.2s3.4-.5 4.7-2.9a12.8 12.8 0 0 0 .9-3.5h1.8a13.5 13.5 0 0 1-.5-1.8 4 4 0 0 0 0-3.3c-.1-.2-.2-.6-.4-.6h.2c1-1 .7-1.5.6-1.8h.3c-.4-2.4-4.5-1.6-4.7-1.6s-1.8 1.1-4.8.1-4.4 1.4-4.4 1.4c-.8 1 .3 2 .3 2h-.1c-1.2 1.6.9 4.9.9 4.9-.6-2.7.2-.1 0 .3a12.2 12.2 0 0 1 1.1 2.6z" fill="#fbc219"/>
  <path d="M34.3 87.8c1 .2 1.7-.7 2-1.5h-2c.4-.1.8-1-.3-1.4s-2.3 2.5.3 2.9zm17.4-1.4c-.2-1.9-1.8-1-2-.5a.5.5 0 0 0 .3.8h-1.1a3.3 3.3 0 0 0 .3.6c.7 1 2.7.4 2.5-.9z" fill="#fbc219"/>
  <path d="M33.8 85.6a17.4 17.4 0 0 1 2.2 4.9s9.8-.5 9.5-.1L34.7 79.7s-2.8 1.3-1.8 5.5zm10.2-.7l7 2.6c.1-.4-1-1.6-1-2l1.2-.3c1.1-3.6-2.1-5.9-2.1-5.9l-3.6-.7c-.4-.6-1.5 6.3-1.5 6.3z" fill="#fbc219"/>
  <path d="M37.9 90.3h.1l.2-.2-.7-.5a3.9 3.9 0 0 0-.2-1.3c-.2-.3-.4.2-.4.4a1.1 1.1 0 0 1-.1.5l-1.7-2.3a8.8 8.8 0 0 0-.2 2c-.6-.2 1.1-.5.6-.5l-.8-.2c-4.4-.7-6-5.2-6-5.2s1 1.2 1.8.5a.8.8 0 0 0 .1-1.3s1.3-.6.8-1.6a.9.9 0 0 0-1.4-.4s0-1.5-1.3-1.5-1 1.3-1 1.3a2 2 0 0 0-2.3.3 1.9 1.9 0 0 0 .2 2.7s-1 1-.5 1.9a1.2 1.2 0 0 0 1.4.7s-.5 1.9.8 2.3 1.5.1 1.5.1a1.8 1.8 0 0 0 .1.5h-.1s-3.7-1.8-5.2.8c0-.1.5 1.5 3.5.7a2.4 2.4 0 0 0-1.2 2.1c0-.1 2 .5 2.9-.7a3.8 3.8 0 0 0 .9-2.2 2.8 2.8 0 0 0 1.9.1c-1.8 1.9-.2 3.6 1.2 3.6a1.4 1.4 0 0 0 1.5-1.3h.1c3.4-1.1 8.1 3.5 8.1 3.5a20 20 0 0 0-4.6-4.8zm-1.2-1.1l.7.6v.2l-.9-.6z" fill="#fbc219"/>
  <path d="M25.5 88.8a12 12 0 0 0-.9 2.3 6.5 6.5 0 0 0 3.8-.5zm30.8-.4l-.3.2a.8.8 0 0 0 .2-.7s.1.3 1.5-.1.8-2.3.8-2.3a1.2 1.2 0 0 0 1.4-.7c.5-.9-.5-1.9-.5-1.9a1.9 1.9 0 0 0 .2-2.7 1.9 1.9 0 0 0-2.2-.3 1.1 1.1 0 0 0-1.1-1.3c-1.3 0-1.3 1.5-1.3 1.5a.9.9 0 0 0-1.4.4c-.5 1 .8 1.6.8 1.6a.8.8 0 0 0 .1 1.3c.8.7 1.8-.5 1.8-.5s-1.6 4.5-6 5.2l-.8 1c-.6 0 .9-.5.1-.3s.4-3.6.4-3.6l-7.5 1.2a55.1 55.1 0 0 0 6.5 2.7c-.6.3 1.4 2 2.5 1.2s-6.9-5.1-6.9-5.3l1.9 4.5c0 .4-7.5.3-7.3.4-1.7 1.1 2.1 3.5 3.4 5.1 0 0 4.7-4.6 8.1-3.5h.1a1.5 1.5 0 0 0 1.5 1.3c1.4 0 3-1.7 1.2-3.5h.1a3.7 3.7 0 0 0 2-.2l-.2.2a2.9 2.9 0 0 0 .8 2c.9 1.2 2.9.6 2.9.7a2 2 0 0 0-.2-.9 2.7 2.7 0 0 0 1.5.1c-.1-.7-.7-3.3-.7-3.3l-3 2c.7.9 1.3 0 1.2 0 3 .8 3.5-.8 3.5-.7-1.5-2.7-5.1-.8-5.1-.8z" fill="#fbc219"/>
  <path d="M47.5 87.9c-.2 0-.4.6-.4 1.3l.9-.4c-.3-.3-.4-.8-.5-.9z" fill="#fbc219"/>
  <path d="M26 62.1a24.5 24.5 0 0 1-2 8.2 29.1 29.1 0 0 1-2.1 4.2S36 77.3 43 77.4a146.6 146.6 0 0 0 19.9-1.3 7 7 0 0 0 1.4-.3 56.1 56.1 0 0 1-2-7.3 46.2 46.2 0 0 0-1-5M34.1 86.2c.3.3 1.2-1-.1-1.4s-2.3 2.6.3 3 2.1-1.9 2.3-2.3a5.9 5.9 0 0 1 3.2-3.6c2.5-1.3 3-2.5 3-2.5a6.9 6.9 0 0 0 3.5 3.5c2.5.9 2.1 3.4 2.9 4.4s2.7.4 2.5-.9-1.8-1-2-.5a.5.5 0 0 0 .3.8" fill="none" stroke="#000" stroke-linecap="round" stroke-linejoin="round" stroke-width=".4"/>
  <path d="M35.5 80.8a1.5 1.5 0 0 1 0-2.4c1-.8 2.3-.4 3.3 0s3.7 1.5 6.1.2 3.8.3 3.9.5a1.3 1.3 0 0 1-.6 1.7m-13.5-1.1s-2.8 1.3-1.8 5.5m2-5.1a4.9 4.9 0 0 0-1.5 4.8m15.7-5.6s3.2 2.3 2.1 5.9m-2.3-5.1s2.1 1.4 1.9 5" fill="none" stroke="#000" stroke-linecap="round" stroke-linejoin="round" stroke-width=".4"/>
  <path d="M40.9 79.1a15.5 15.5 0 0 0-3.8 2c-.8.8-1.6 1.7-.8 4.8 0 0-2.1-3.3-.9-4.8s3.9-2.5 3.9-2.5m4.5.6s3 .8 3.7 2.7a11.3 11.3 0 0 1 .9 3 4.2 4.2 0 0 0 0-3.4c-.8-1.8-3.3-2.8-3.3-2.8m-10.2 9.2s-.4 1.3.7 1.7a1 1 0 0 0 1.3-1c0-.2.2-.7.4-.4s.5 2.8-.7 2.3.6.8 1.4-.3" fill="none" stroke="#000" stroke-linecap="round" stroke-linejoin="round" stroke-width=".4"/>
  <path d="M32.3 90.7s.5-1.3 1.5-.6a1.3 1.3 0 0 1 .5 1.1 1.5 1.5 0 0 1-1.5 1.5c-1.4 0-3-1.7-1.2-3.6s7.2.6 10.9 5.8c0 0-4.7-4.6-8.1-3.5m18.4-.7a1 1 0 0 0-1.5-.6 1.2 1.2 0 0 0-.5 1.1 1.5 1.5 0 0 0 1.5 1.5c1.4 0 3-1.7 1.2-3.6s-8.4.5-10.9 5.8c0 0 4.7-4.6 8.1-3.5m-19.1-2.3c-2.9.4-2.8-1.2-2.8-1.2s-.1.3-1.5-.1-.8-2.3-.8-2.3a1.2 1.2 0 0 1-1.4-.7c-.5-.9.5-1.9.5-1.9a1.9 1.9 0 0 1-.2-2.7 2 2 0 0 1 2.3-.3s-.2-1.3 1-1.3 1.3 1.5 1.3 1.5a.9.9 0 0 1 1.4.4c.5 1-.8 1.6-.8 1.6a.8.8 0 0 1-.1 1.3c-.8.7-1.8-.5-1.8-.5s1.6 4.5 6 5.2" fill="none" stroke="#000" stroke-linecap="round" stroke-linejoin="round" stroke-width=".4"/>
  <path d="M28.8 88.3s-3.7-1.8-5.2.8c0-.1.5 1.5 3.5.7a2.4 2.4 0 0 0-1.2 2.1c0-.1 2 .5 2.9-.7a3.8 3.8 0 0 0 .9-2.2" fill="none" stroke="#000" stroke-linecap="round" stroke-linejoin="round" stroke-width=".4"/>
  <path d="M24.9 90.1a2.6 2.6 0 0 0-.3 1A2.4 2.4 0 0 0 26 91m27.6-1.8c2.9.4 2.6-1.3 2.6-1.3s.1.3 1.5-.1.8-2.3.8-2.3a1.2 1.2 0 0 0 1.4-.7c.5-.9-.5-1.9-.5-1.9a1.9 1.9 0 0 0 .2-2.7 1.9 1.9 0 0 0-2.2-.3 1.1 1.1 0 0 0-1.1-1.3c-1.3 0-1.3 1.5-1.3 1.5a.9.9 0 0 0-1.4.4c-.5 1 .8 1.6.8 1.6a.8.8 0 0 0 .1 1.3c.8.7 1.8-.5 1.8-.5s-1.6 4.5-6 5.2" fill="none" stroke="#000" stroke-linecap="round" stroke-linejoin="round" stroke-width=".4"/>
  <path d="M56.3 88.4s3.6-1.9 5.1.7c0-.1-.5 1.5-3.5.7a2.4 2.4 0 0 1 1.2 2.1c0-.1-2 .5-2.9-.7a2.9 2.9 0 0 1-.8-2" fill="none" stroke="#000" stroke-linecap="round" stroke-linejoin="round" stroke-width=".4"/>
  <path d="M60.2 90.1a6.5 6.5 0 0 1 .2 1 2.7 2.7 0 0 1-1.5-.1" fill="none" stroke="#000" stroke-linecap="round" stroke-linejoin="round" stroke-width=".4"/>
  <path d="M38.5 85.5s.8 1 2.8.1a1.7 1.7 0 0 0-2.8-.1z" fill="none" stroke="#000" stroke-linecap="round" stroke-linejoin="round" stroke-width=".3"/>
  <ellipse cx="39.9" cy="85.4" rx=".6" ry=".6"/>
  <circle cx="39.8" cy="85.1" r=".2" fill="#fff"/>
  <path d="M38.3 84.7a2.3 2.3 0 0 1 2.7.5m5.4.3s-.8 1.1-2.8.2a1.7 1.7 0 0 1 2.8-.2z" fill="none" stroke="#000" stroke-linecap="round" stroke-linejoin="round" stroke-width=".3"/>
  <ellipse cx="45" cy="85.5" rx=".6" ry=".6"/>
  <circle cx="45.1" cy="85.1" r=".2" fill="#fff"/>
  <path d="M46.6 84.8a2.1 2.1 0 0 0-2.7.5m-5.6-1.8h3.1a1.2 1.2 0 0 1 .7 1.1c0 .4-.1 1.4-.1 1.4" fill="none" stroke="#000" stroke-linecap="round" stroke-linejoin="round" stroke-width=".3"/>
  <path d="M46.2 83.6a8.2 8.2 0 0 0-2.6-.1c-.5.2-.4.4-.5.7a9.6 9.6 0 0 0 0 2.4m-1.8.8a3.2 3.2 0 0 1 .7.6c.1.2.6.2.8.1a1.6 1.6 0 0 1 .8-.5c.3 0 .1-.5.1-.5m-1.8 2l.4.2.4-.2.7.2.8.2a6.2 6.2 0 0 1-3.5 0l.7-.3c.2-.1.4-.2.5-.1z" fill="none" stroke="#000" stroke-linecap="round" stroke-linejoin="round" stroke-width=".3"/>
  <path d="M41 89.6s.5 1 1.3 1.1a1.5 1.5 0 0 0 1.1-.6l.5-.6" fill="none" stroke="#000" stroke-linecap="round" stroke-linejoin="round" stroke-width=".3"/>
  <path d="M34.9 87.9s-.4 1.3.7 1.7a1 1 0 0 0 1.3-1c0-.2.2-.7.4-.4s.5 2.8-.7 2.3.4.9 1.6-.5" fill="#fbc219"/>
  <path d="M43.5 65.6a1.7 1.7 0 0 0-1 .3c1.3.7 2.3 2.7 2.3 5.2s-1 4.5-2.3 5.2l1 .2c1.8 0 3.3-2.4 3.3-5.4s-1.5-5.5-3.3-5.5zm14.4 4.8c-.2-2.9-1.3-5.2-2.6-5.1a1.4 1.4 0 0 0-.9.5 7.3 7.3 0 0 1 1.5 4.6c.1 2.1-.3 4-1.1 4.9a1.8 1.8 0 0 0 1.1.5c1.3-.1 2.2-2.5 2-5.4zm4.6-.7c-.5-2.9-1.8-5-3-4.8a1 1 0 0 0-.8.5 8.2 8.2 0 0 1 1.8 4.3c.4 2.2.2 4.1-.5 5s.9.7 1.2.6 1.8-2.7 1.3-5.6zm-12.3-4.1a1.7 1.7 0 0 0-1 .3c1.2.7 2.1 2.7 2.1 5s-.9 4.3-2.1 5a1.7 1.7 0 0 0 1 .3c1.7 0 3.1-2.4 3.1-5.3s-1.4-5.3-3.1-5.3zm-12.8-.4a1.9 1.9 0 0 0-1 .3c1.1.8 1.8 2.9 1.7 5.3s-1 4.2-2.1 4.9a1.2 1.2 0 0 0 .9.3c1.6.1 3-2.2 3.2-5.2s-1-5.5-2.7-5.6zm-5.2-.8a1.5 1.5 0 0 0-1.2.4c.9.9 1.4 3 1.1 5.3s-1.1 4-2 4.7a.9.9 0 0 0 .8.4c1.4.2 2.8-2.1 3.2-5.1s-.5-5.5-1.9-5.7zm-4.2-1a1.7 1.7 0 0 0-1.3.7 8.3 8.3 0 0 1 .2 5.1 9 9 0 0 1-1.8 4.4c.2.3.5.6.8.6s2.4-2 3-5 .2-5.5-.9-5.8z" fill="#004da1"/>
  <path d="M34.9 87.9s-.4 1.3.7 1.7a1 1 0 0 0 1.3-1c0-.2.2-.7.4-.4s.5 2.8-.7 2.3.7.8 1.5-.3" fill="none" stroke="#000" stroke-linecap="round" stroke-linejoin="round" stroke-width=".4"/>
  <path d="M50.1 87.9a1.1 1.1 0 0 1-1.1 1.2c-1.3.1-1.3-1.1-1.5-1.2a2 2 0 0 0 .1 2.6 1.2 1.2 0 0 1-1.1-1.1" fill="#fbc219"/>
  <path d="M50.1 87.9a1.1 1.1 0 0 1-1.1 1.2c-1.3.1-1.3-1.1-1.5-1.2a2 2 0 0 0 .1 2.6 1.2 1.2 0 0 1-1.1-1.1m-9.1-5.5s-.1 3.9 0 4.9 3.5 4.1 4.1 4.2 3.4-.5 4.7-2.9.9-6.7.9-6.7m-11.9-4.7s.2-2.6 4.4-1.2 3.4.6 4.8.1 4.3-.9 4.7 1.6" fill="none" stroke="#000" stroke-linecap="round" stroke-linejoin="round" stroke-width=".4"/>
  <ellipse cx="43.5" cy="71.1" rx="3.3" ry="5.4" fill="none" stroke="#000" stroke-linecap="round" stroke-linejoin="round" stroke-width=".4"/>
  <ellipse cx="55.6" cy="70.5" rx="2.3" ry="5.3" transform="rotate(-3.2 55.33 71.41)" fill="none" stroke="#000" stroke-linecap="round" stroke-linejoin="round" stroke-width=".4"/>
  <ellipse cx="60.4" cy="70.1" rx="2.2" ry="5.3" transform="rotate(-9.7 60.5 70.42)" fill="none" stroke="#000" stroke-linecap="round" stroke-linejoin="round" stroke-width=".4"/>
  <ellipse cx="50.2" cy="70.9" rx="3.1" ry="5.3" fill="none" stroke="#000" stroke-linecap="round" stroke-linejoin="round" stroke-width=".4"/>
  <ellipse cx="37.2" cy="70.6" rx="5.4" ry="2.9" transform="rotate(-86.9 37.14 70.63)" fill="none" stroke="#000" stroke-linecap="round" stroke-linejoin="round" stroke-width=".4"/>
  <ellipse cx="31.5" cy="69.8" rx="5.5" ry="2.6" transform="rotate(-82.9 31.57 69.8)" fill="none" stroke="#000" stroke-linecap="round" stroke-linejoin="round" stroke-width=".4"/>
  <ellipse cx="26.9" cy="68.8" rx="5.5" ry="2" transform="rotate(-78.9 26.99 68.88)" fill="none" stroke="#000" stroke-linecap="round" stroke-linejoin="round" stroke-width=".4"/>
</svg>
