<svg xmlns="http://www.w3.org/2000/svg" viewBox="0 0 87 140">
  <rect width="87" height="140" rx="6" ry="6" fill="#fff"/>
  <path fill="#a30e03" d="M22.2 119.9l-2.8 2.1h8.2l-2.6-2.8-2.8.7z"/>
  <path d="M18.3 105.3s-2.4-1-3.3.9 1.5 4.7 1.8 5.2a1 1 0 0 1-.3 1.3c-1.4 1.1.7 2.4 1.4.7s-.9-3.8-1.5-5.1-1-2.7 2-1.9m10.7-1.1s2.4-1 3.3.9-1.5 4.7-1.8 5.2a1 1 0 0 0 .3 1.3c1.4 1.1-.7 2.4-1.4.7s.9-3.8 1.4-5.1.9-2.7-2-1.9" fill="none" stroke="#000" stroke-linecap="round" stroke-linejoin="round" stroke-width=".4"/>
  <path d="M22.1 118.2s.7 2.4-2.7 3.6c-.1 0 4 .6 4.9-3.2z" fill="red"/>
  <path d="M25.4 118.2s-.7 2.4 2.7 3.6c.1 0-4 .4-4.8-3.3z" fill="red"/>
  <path d="M22.1 118.2s.7 2.4-2.7 3.6c-.1 0 3.9.6 4.8-3.2z" fill="none" stroke="#000" stroke-linecap="round" stroke-linejoin="round" stroke-width=".4"/>
  <path d="M25.4 118.2s-.7 2.4 2.7 3.6c.1 0-4 .5-4.9-3.3z" fill="none" stroke="#000" stroke-linecap="round" stroke-linejoin="round" stroke-width=".4"/>
  <path d="M22.2 117.8a9.7 9.7 0 0 0 1.5 4s1.2-.9 1.5-4z" fill="red"/>
  <path d="M22.1 115.4s-.4 3.8 1.6 6.4c0-.1 2-1.7 1.8-6.4 0-.1-3.4 0-3.4 0z" fill="none" stroke="#000" stroke-linecap="round" stroke-linejoin="round" stroke-width=".4"/>
  <path d="M22 117.8s-1 .2-1.1 1.8a1.9 1.9 0 0 0 2.2-1.4m2.5-.4s1 .2 1.1 1.8a1.9 1.9 0 0 1-2.2-1.4" fill="red"/>
  <path d="M22 117.8s-1 .2-1.1 1.8a1.9 1.9 0 0 0 2.2-1.4m2.5-.4s1 .2 1.1 1.8a1.9 1.9 0 0 1-2.2-1.4" fill="none" stroke="#000" stroke-linecap="round" stroke-linejoin="round" stroke-width=".4"/>
  <path d="M24.6 118s.3.9-.9 2.1a2 2 0 0 1-.9-2z" fill="red"/>
  <path d="M24.6 118s.3.9-.9 2.1a2.2 2.2 0 0 1-.9-2z" fill="none" stroke="#000" stroke-linecap="round" stroke-linejoin="round" stroke-width=".4"/>
  <path d="M19.2 105a3.3 3.3 0 0 1-1.2-.5l.3.7a2.9 2.9 0 0 1 .2.9l.3 1.6c0 .4-.1.9-.1 1.4a7.7 7.7 0 0 1-.2 1.5 4.4 4.4 0 0 1-.2 1c0 .5-.1.9-.1 1.4s1.4-.7 2.1.5c.3-.5.6-.8 1-.8a1.5 1.5 0 0 1 .1-.7 10.3 10.3 0 0 0 .1-2.5v-2.3l-.2-1.7-2-.5m7.4.5l-.2 2.3.2 4.7a1.9 1.9 0 0 1 1 1c.6-1.4 1.1-1.5 1.6-.4s-.1-.9-.1-1.4l-.3-1.1a9.7 9.7 0 0 1-.1-1.7 3.8 3.8 0 0 1 0-1.5 3.7 3.7 0 0 1 .1-1.1 3 3 0 0 1 .2-1 2 2 0 0 1 .4-.8 4.6 4.6 0 0 1-1.4.5l-1.4.5" fill="#d79f09"/>
  <path d="M30 103.6c0-.6-.6-1-1.9-1.5a15.8 15.8 0 0 0-4.1-.5 3.1 3.1 0 0 0-2.4 3.4v.6h2.1l3-.2 1.4-.5a4.6 4.6 0 0 0 1.4-.5 1.4 1.4 0 0 0 .5-.9" fill="red"/>
  <path d="M27.8 113.5c-.4-.6-.7-.9-1.1-1s-1 .3-1.5 1.2q-1.2-2.1-2.4 0c-.6-.8-1.1-1.1-1.5-1s-.7.3-1 .8c-.7-1.2-1.3-1.4-2.1-.5v.2c0 2.3.6 3.6 2.6 4.8l.3.2a6.7 6.7 0 0 0 4.9.1l.5-.2a5.1 5.1 0 0 0 2.8-4.7c0-.1-.1-.2-.1-.3s-.8-1-1.4.4z" fill="#325723"/>
  <path d="M26.5 107.8l.2-2.3-3 .2h-2.5l.2 1.7v2.3a10.3 10.3 0 0 1-.1 2.5 1.5 1.5 0 0 0-.1.7c.4-.1.9.2 1.5 1 .7-1.4 1.6-1.4 2.4 0q.8-1.4 1.5-1.2l-.2-4.7" fill="#fbc219"/>
  <path d="M24 101.6h-.3a15.1 15.1 0 0 0-4.5.5c-1.2.5-1.8.9-1.8 1.5a1.4 1.4 0 0 0 .5.9h.1a3.3 3.3 0 0 0 1.2.5l2 .5h.4v-.5a3.1 3.1 0 0 1 2.4-3.4" fill="#a30e03"/>
  <path d="M26.5 107.9l2.2-.4c0-.4.1-.8.1-1.2l.3-.9.3-.9a3.2 3.2 0 0 1-1.3.6l-1.5.4a13.7 13.7 0 0 1-3 .2h-2.4a9.7 9.7 0 0 1-2-.5l-1.3-.5.3.6.3 1a6.8 6.8 0 0 1 .2 1.5l2.7.4a29 29 0 0 0 5.1-.3z" fill="none" stroke="#000" stroke-linecap="round" stroke-linejoin="round" stroke-width=".4"/>
  <path d="M17.9 104.6a.8.8 0 0 1-.5-.8q0-.9 1.8-1.5a14.2 14.2 0 0 1 4.4-.6h.4a12.7 12.7 0 0 1 4.1.6q1.8.6 1.8 1.5a.8.8 0 0 1-.5.8m-7.9 5l-2.8-.4c-.1.4-.1.9-.2 1.5s-.1.6-.2.9a7.1 7.1 0 0 0-.1 1.4c.7-.8 1.4-.6 2.1.5a1.6 1.6 0 0 1 .9-.8 1.9 1.9 0 0 1 1.5 1c.8-1.3 1.6-1.3 2.5 0 .5-.9 1-1.2 1.5-1.1a2 2 0 0 1 1 .9q.9-1.9 1.5-.3a8.1 8.1 0 0 0-.1-1.5 3.6 3.6 0 0 0-.2-1c-.1-.6-.1-1.2-.2-1.7l-2.2.5a28 28 0 0 1-5 .1z" fill="none" stroke="#000" stroke-linecap="round" stroke-linejoin="round" stroke-width=".4"/>
  <path d="M29.2 113.5a5.2 5.2 0 0 1-2.8 4.6 6.8 6.8 0 0 1-5.2.1 5.3 5.3 0 0 1-3-5.1m11 .1v.3m-10.5-5.8v1.5m10-.2v-1.5m-8.4 6a15.9 15.9 0 0 0 .3 3.2m2.1-3l.3 3.3m4.7-3.5a18.9 18.9 0 0 1-.4 3.2m-2.1-3L25 117" fill="none" stroke="#000" stroke-linecap="round" stroke-linejoin="round" stroke-width=".4"/>
  <path fill="red" d="M28.2 121.8h.9v2.3H18.3v-2.3h9.9z"/>
  <path fill="none" stroke="#000" stroke-linecap="round" stroke-linejoin="round" stroke-width=".4" d="M28.2 121.8h.9v2.3H18.3v-2.3h9.9z"/>
  <path fill="#a30e03" d="M61.8 119.9L59 122h8.2l-2.6-2.8-2.8.7z"/>
  <path d="M57.9 105.3s-2.4-1-3.3.9 1.5 4.7 1.8 5.2a1 1 0 0 1-.3 1.3c-1.4 1.1.7 2.4 1.4.7s-.9-3.8-1.4-5.1-1.1-2.7 1.9-1.9m10.7-1.1s2.4-1 3.3.9-1.5 4.7-1.8 5.2a1 1 0 0 0 .3 1.3c1.4 1.1-.7 2.4-1.4.7s.9-3.8 1.5-5.1.8-2.7-2.1-1.9" fill="none" stroke="#000" stroke-linecap="round" stroke-linejoin="round" stroke-width=".4"/>
  <path d="M61.7 118.2s.7 2.4-2.7 3.6c-.1 0 4 .6 4.9-3.2z" fill="red"/>
  <path d="M65 118.2s-.7 2.4 2.7 3.6c.1 0-4 .4-4.8-3.3z" fill="red"/>
  <path d="M61.7 118.2s.7 2.4-2.7 3.6c-.1 0 3.9.6 4.8-3.2z" fill="none" stroke="#000" stroke-linecap="round" stroke-linejoin="round" stroke-width=".4"/>
  <path d="M65 118.2s-.7 2.4 2.7 3.6c.1 0-4 .5-4.9-3.3z" fill="none" stroke="#000" stroke-linecap="round" stroke-linejoin="round" stroke-width=".4"/>
  <path d="M61.8 117.8a9.7 9.7 0 0 0 1.5 4s1.2-.9 1.5-4z" fill="red"/>
  <path d="M61.7 115.4s-.4 3.8 1.6 6.4c0-.1 2-1.7 1.8-6.4 0-.1-3.4 0-3.4 0z" fill="none" stroke="#000" stroke-linecap="round" stroke-linejoin="round" stroke-width=".4"/>
  <path d="M61.6 117.8s-1 .2-1.1 1.8a1.9 1.9 0 0 0 2.2-1.4m2.5-.4s1 .2 1.1 1.8a1.9 1.9 0 0 1-2.2-1.4" fill="red"/>
  <path d="M61.6 117.8s-1 .2-1.1 1.8a1.9 1.9 0 0 0 2.2-1.4m2.5-.4s1 .2 1.1 1.8a1.9 1.9 0 0 1-2.2-1.4" fill="none" stroke="#000" stroke-linecap="round" stroke-linejoin="round" stroke-width=".4"/>
  <path d="M64.2 118s.3.9-.9 2.1a2 2 0 0 1-.9-2z" fill="red"/>
  <path d="M64.2 118s.3.9-.9 2.1a2.2 2.2 0 0 1-.9-2z" fill="none" stroke="#000" stroke-linecap="round" stroke-linejoin="round" stroke-width=".4"/>
  <path d="M58.8 105a3.3 3.3 0 0 1-1.2-.5l.3.7a2.9 2.9 0 0 1 .2.9l.3 1.6c0 .4-.1.9-.1 1.4a7.7 7.7 0 0 1-.2 1.5c0 .3-.1.6-.1 1a6.8 6.8 0 0 0-.2 1.4c.8-.9 1.4-.7 2.1.5.3-.5.6-.8 1-.8a1.5 1.5 0 0 1 .1-.7 10.3 10.3 0 0 0 .1-2.5v-2.3l-.2-1.7-2-.5m7.4.5l-.2 2.3.2 4.7a1.9 1.9 0 0 1 1 1c.6-1.4 1.1-1.5 1.6-.4s-.1-.9-.1-1.4l-.3-1.1c0-.6-.1-1.1-.1-1.7a3.8 3.8 0 0 1 0-1.5 3.7 3.7 0 0 1 .1-1.1 3 3 0 0 1 .2-1 2 2 0 0 1 .4-.8 4.6 4.6 0 0 1-1.4.5l-1.4.5" fill="#d79f09"/>
  <path d="M69.6 103.6c0-.6-.6-1-1.9-1.5a15.8 15.8 0 0 0-4.1-.5 3.1 3.1 0 0 0-2.4 3.4v.6h2.1l3-.2 1.4-.5a4.6 4.6 0 0 0 1.4-.5 1.4 1.4 0 0 0 .5-.9" fill="red"/>
  <path d="M67.4 113.5c-.4-.6-.7-.9-1.1-1s-1 .3-1.5 1.2q-1.2-2.1-2.4 0c-.6-.8-1.1-1.1-1.5-1s-.7.3-1 .8c-.7-1.2-1.3-1.4-2.1-.5v.2c0 2.3.6 3.6 2.6 4.8l.3.2a6.7 6.7 0 0 0 4.9.1l.5-.2a5.1 5.1 0 0 0 2.8-4.7c0-.1-.1-.2-.1-.3s-.8-1-1.4.4z" fill="#325723"/>
  <path d="M66.1 107.8l.2-2.3-3 .2h-2.5l.2 1.7v2.3a10.3 10.3 0 0 1 0 2.3 1.5 1.5 0 0 0-.1.7c.4-.1.9.2 1.5 1q1.2-2.1 2.4 0 .8-1.4 1.5-1.2l-.2-4.7" fill="#fbc219"/>
  <path d="M63.6 101.6h-.3a15.1 15.1 0 0 0-4.5.5c-1.2.5-1.8.9-1.8 1.5a1.4 1.4 0 0 0 .5.9h.1a3.3 3.3 0 0 0 1.2.5l2 .5h.4v-.5a3.1 3.1 0 0 1 2.4-3.4" fill="#a30e03"/>
  <path d="M66.1 107.9l2.2-.4c0-.4.1-.8.1-1.2l.3-.9.3-.9a3.2 3.2 0 0 1-1.3.6l-1.5.4a13.7 13.7 0 0 1-3 .2h-2.4a9.7 9.7 0 0 1-2-.5l-1.3-.5.3.6.3 1a6.8 6.8 0 0 1 .2 1.5l2.7.4a29 29 0 0 0 5.1-.3z" fill="none" stroke="#000" stroke-linecap="round" stroke-linejoin="round" stroke-width=".4"/>
  <path d="M57.5 104.6a.8.8 0 0 1-.5-.8q0-.9 1.8-1.5a14.2 14.2 0 0 1 4.4-.6h.4a12.7 12.7 0 0 1 4.1.6q1.8.6 1.8 1.5a.8.8 0 0 1-.5.8m-7.9 5l-2.8-.4c-.1.4-.1.9-.2 1.5s-.1.6-.2.9a7.1 7.1 0 0 0-.1 1.4c.7-.8 1.4-.6 2.1.5a1.6 1.6 0 0 1 .9-.8 1.9 1.9 0 0 1 1.5 1c.8-1.3 1.6-1.3 2.5 0 .5-.9 1-1.2 1.5-1.1a2 2 0 0 1 1 .9q.9-1.9 1.5-.3a8.1 8.1 0 0 0-.1-1.5 3.6 3.6 0 0 0-.2-1c-.1-.6-.1-1.2-.2-1.7l-2.2.5a28 28 0 0 1-5 .1z" fill="none" stroke="#000" stroke-linecap="round" stroke-linejoin="round" stroke-width=".4"/>
  <path d="M68.8 113.5a5.2 5.2 0 0 1-2.8 4.6 6.8 6.8 0 0 1-5.2.1 5.3 5.3 0 0 1-3-5.1m11 .1v.3m-10.5-5.8v1.5m10-.2v-1.5m-8.4 6a15.9 15.9 0 0 0 .3 3.2m2.1-3l.3 3.3m4.7-3.5a18.9 18.9 0 0 1-.4 3.2m-2.1-3l-.2 3.3" fill="none" stroke="#000" stroke-linecap="round" stroke-linejoin="round" stroke-width=".4"/>
  <path fill="red" d="M67.8 121.8h.9v2.3H57.9v-2.3h9.9z"/>
  <path fill="none" stroke="#000" stroke-linecap="round" stroke-linejoin="round" stroke-width=".4" d="M67.8 121.8h.9v2.3H57.9v-2.3h9.9z"/>
  <path fill="#a30e03" d="M22.2 34.6L19.4 37h8.2L25 34l-2.8.6z"/>
  <path d="M18.3 19.7s-2.4-1.1-3.3.8 1.5 4.8 1.8 5.2a1.1 1.1 0 0 1-.3 1.4c-1.4 1 .7 2.4 1.4.6s-.9-3.7-1.5-5-1-2.8 2-2m10.7-1s2.4-1.1 3.3.8-1.5 4.8-1.8 5.2a1.1 1.1 0 0 0 .3 1.4c1.4 1-.7 2.4-1.4.6s.9-3.7 1.4-5 .9-2.7-2-1.9" fill="none" stroke="#000" stroke-linecap="round" stroke-linejoin="round" stroke-width=".4"/>
  <path d="M22.1 32.6s.7 2.3-2.7 3.5a4.2 4.2 0 0 0 4.9-3.2 14.6 14.6 0 0 1-2.2-.3z" fill="red"/>
  <path d="M25.4 32.6s-.7 2.3 2.7 3.5a4.2 4.2 0 0 1-4.8-3.3 14.9 14.9 0 0 0 2.1-.2z" fill="red"/>
  <path d="M22.1 32.6s.7 2.3-2.7 3.5a4.2 4.2 0 0 0 4.8-3.2 15.2 15.2 0 0 1-2.1-.3z" fill="none" stroke="#000" stroke-linecap="round" stroke-linejoin="round" stroke-width=".4"/>
  <path d="M25.4 32.6s-.7 2.3 2.7 3.5a4.4 4.4 0 0 1-4.9-3.3 16.4 16.4 0 0 0 2.2-.2z" fill="none" stroke="#000" stroke-linecap="round" stroke-linejoin="round" stroke-width=".4"/>
  <path d="M22.2 32.1a9.9 9.9 0 0 0 1.5 4.1 6.6 6.6 0 0 0 1.5-4.1z" fill="red"/>
  <path d="M22.1 29.8s-.4 3.8 1.6 6.3c0-.1 2-1.6 1.8-6.4z" fill="none" stroke="#000" stroke-linecap="round" stroke-linejoin="round" stroke-width=".4"/>
  <path d="M22 32.1s-1 .3-1.1 1.9a2 2 0 0 0 2.2-1.5m2.5-.4s1 .3 1.1 1.9a2 2 0 0 1-2.2-1.5" fill="red"/>
  <path d="M22 32.1s-1 .3-1.1 1.9a2 2 0 0 0 2.2-1.5m2.5-.4s1 .3 1.1 1.9a2 2 0 0 1-2.2-1.5" fill="none" stroke="#000" stroke-linecap="round" stroke-linejoin="round" stroke-width=".4"/>
  <path d="M24.6 32.4s.3.9-.9 2a2 2 0 0 1-.9-2z" fill="red"/>
  <path d="M24.6 32.4s.3.9-.9 2a2.2 2.2 0 0 1-.9-2z" fill="none" stroke="#000" stroke-linecap="round" stroke-linejoin="round" stroke-width=".4"/>
  <path d="M19.2 19.4l-1.2-.6.3.7a2.9 2.9 0 0 1 .2.9l.3 1.6c0 .5-.1.9-.1 1.4a7.7 7.7 0 0 1-.2 1.5 3 3 0 0 1-.2 1c0 .5-.1 1-.1 1.4s1.4-.6 2.1.5c.3-.5.6-.8 1-.8a1.3 1.3 0 0 1 .1-.6 11.3 11.3 0 0 0 .1-2.6v-2.2l-.2-1.7-2-.5m7.4.4l-.2 2.4.2 4.7c.3 0 .7.4 1 .9.6-1.3 1.1-1.4 1.6-.3 0-.5-.1-1-.1-1.5l-.3-1.1a8.6 8.6 0 0 1-.1-1.6 3.8 3.8 0 0 1 0-1.5 4.9 4.9 0 0 1 .1-1.2 2.9 2.9 0 0 1 .2-.9 3.6 3.6 0 0 1 .4-.9l-1.4.6-1.4.4" fill="#d79f09"/>
  <path d="M30 18c0-.6-.6-1.1-1.9-1.5a12.2 12.2 0 0 0-4.1-.6 3.2 3.2 0 0 0-2.4 3.4v.6h2.1l3-.2 1.4-.4 1.4-.6a1.5 1.5 0 0 0 .5-.7" fill="red"/>
  <path d="M27.8 27.8c-.4-.5-.7-.9-1.1-.9s-1 .2-1.5 1.1q-1.2-2.1-2.4 0c-.6-.7-1.1-1.1-1.5-1s-.7.3-1 .8c-.7-1.1-1.3-1.3-2.1-.5v.3c0 2.3.6 3.6 2.6 4.8h.3a6.7 6.7 0 0 0 4.9.1l.5-.2a5 5 0 0 0 2.8-4.7c0-.1-.1-.2-.1-.3s-.8-.8-1.4.5z" fill="#325723"/>
  <path d="M26.5 22.2l.2-2.4-3 .2h-2.5l.2 1.7v2.2a11.3 11.3 0 0 1-.1 2.6 1.3 1.3 0 0 0-.1.6c.4-.1.9.3 1.5 1 .7-1.4 1.6-1.4 2.4 0 .5-.9 1-1.3 1.5-1.1l-.2-4.7" fill="#fbc219"/>
  <path d="M24 15.9h-.3a14.9 14.9 0 0 0-4.5.6q-1.8.6-1.8 1.5a1 1 0 0 0 .5.8h.1l1.2.6 2 .5h.4v-.6a3.2 3.2 0 0 1 2.4-3.4" fill="#a30e03"/>
  <path d="M26.5 22.3l2.2-.4c0-.5.1-.9.1-1.2a9.4 9.4 0 0 1 .3-.9 4.6 4.6 0 0 1 .3-.9l-1.3.6-1.5.4-3 .2h-2.4l-2-.4-1.3-.6.3.7.3.9a7.8 7.8 0 0 1 .2 1.6l2.7.3a29 29 0 0 0 5.1-.3zm-8.6-3.4a1.1 1.1 0 0 1-.5-.9c0-.5.6-1 1.8-1.4a14.2 14.2 0 0 1 4.4-.6h.4a12.7 12.7 0 0 1 4.1.6c1.2.4 1.8.9 1.8 1.4a1.1 1.1 0 0 1-.5.9m-7.9 5l-2.8-.4c-.1.5-.1 1-.2 1.5s-.1.7-.2 1a6.6 6.6 0 0 0-.1 1.4c.7-.8 1.4-.7 2.1.5.3-.5.6-.8.9-.8s1 .2 1.5 1c.8-1.4 1.6-1.4 2.5 0q.8-1.4 1.5-1.2a1.9 1.9 0 0 1 1 1q.9-1.9 1.5-.3a7.6 7.6 0 0 0-.1-1.5 4.3 4.3 0 0 0-.2-1.1c-.1-.6-.1-1.1-.2-1.6l-2.2.4a21 21 0 0 1-5 .1z" fill="none" stroke="#000" stroke-linecap="round" stroke-linejoin="round" stroke-width=".4"/>
  <path d="M29.2 27.8a5.2 5.2 0 0 1-2.8 4.6 6.8 6.8 0 0 1-5.2.1 5.3 5.3 0 0 1-3-5.1m11 .2v.2m-10.5-5.7v1.4m10-.1v-1.5m-8.4 6a16.4 16.4 0 0 0 .3 3.2m2.1-3l.3 3.3m4.7-3.5a20.1 20.1 0 0 1-.4 3.2m-2.1-3l-.2 3.3" fill="none" stroke="#000" stroke-linecap="round" stroke-linejoin="round" stroke-width=".4"/>
  <path fill="red" d="M28.2 36.2h.9v2.3H18.3v-2.3h9.9z"/>
  <path fill="none" stroke="#000" stroke-linecap="round" stroke-linejoin="round" stroke-width=".4" d="M28.2 36.2h.9v2.3H18.3v-2.3h9.9z"/>
  <path fill="#a30e03" d="M61.8 34.6L59 37h8.2l-2.6-3-2.8.6z"/>
  <path d="M57.9 19.7s-2.4-1.1-3.3.8 1.5 4.8 1.8 5.2a1.1 1.1 0 0 1-.3 1.4c-1.4 1 .7 2.4 1.4.6s-.9-3.7-1.4-5-1.1-2.8 1.9-2m10.7-1s2.4-1.1 3.3.8-1.5 4.8-1.8 5.2a1.1 1.1 0 0 0 .3 1.4c1.4 1-.7 2.4-1.4.6s.9-3.7 1.5-5 .8-2.7-2.1-1.9" fill="none" stroke="#000" stroke-linecap="round" stroke-linejoin="round" stroke-width=".4"/>
  <path d="M61.7 32.6s.7 2.3-2.7 3.5a4.2 4.2 0 0 0 4.9-3.2 14.6 14.6 0 0 1-2.2-.3z" fill="red"/>
  <path d="M65 32.6s-.7 2.3 2.7 3.5a4.2 4.2 0 0 1-4.8-3.3 14.9 14.9 0 0 0 2.1-.2z" fill="red"/>
  <path d="M61.7 32.6s.7 2.3-2.7 3.5a4.2 4.2 0 0 0 4.8-3.2 15.2 15.2 0 0 1-2.1-.3z" fill="none" stroke="#000" stroke-linecap="round" stroke-linejoin="round" stroke-width=".4"/>
  <path d="M65 32.6s-.7 2.3 2.7 3.5a4.4 4.4 0 0 1-4.9-3.3 16.4 16.4 0 0 0 2.2-.2z" fill="none" stroke="#000" stroke-linecap="round" stroke-linejoin="round" stroke-width=".4"/>
  <path d="M61.8 32.1a9.9 9.9 0 0 0 1.5 4.1 6.6 6.6 0 0 0 1.5-4.1z" fill="red"/>
  <path d="M61.7 29.8s-.4 3.8 1.6 6.3c0-.1 2-1.6 1.8-6.4z" fill="none" stroke="#000" stroke-linecap="round" stroke-linejoin="round" stroke-width=".4"/>
  <path d="M61.6 32.1s-1 .3-1.1 1.9a2 2 0 0 0 2.2-1.5m2.5-.4s1 .3 1.1 1.9a2 2 0 0 1-2.2-1.5" fill="red"/>
  <path d="M61.6 32.1s-1 .3-1.1 1.9a2 2 0 0 0 2.2-1.5m2.5-.4s1 .3 1.1 1.9a2 2 0 0 1-2.2-1.5" fill="none" stroke="#000" stroke-linecap="round" stroke-linejoin="round" stroke-width=".4"/>
  <path d="M64.2 32.4s.3.9-.9 2a2 2 0 0 1-.9-2z" fill="red"/>
  <path d="M64.2 32.4s.3.9-.9 2a2.2 2.2 0 0 1-.9-2z" fill="none" stroke="#000" stroke-linecap="round" stroke-linejoin="round" stroke-width=".4"/>
  <path d="M58.8 19.4l-1.2-.6.3.7a2.9 2.9 0 0 1 .2.9l.3 1.6c0 .5-.1.9-.1 1.4a7.7 7.7 0 0 1-.2 1.5c0 .4-.1.7-.1 1a7.8 7.8 0 0 0-.2 1.4c.8-.8 1.4-.6 2.1.5.3-.5.6-.8 1-.8a1.3 1.3 0 0 1 .1-.6 11.3 11.3 0 0 0 .1-2.6v-2.2l-.2-1.7-2-.5m7.4.4l-.2 2.4.2 4.7c.3 0 .7.4 1 .9.6-1.3 1.1-1.4 1.6-.3 0-.5-.1-1-.1-1.5l-.3-1.1c0-.5-.1-1.1-.1-1.6a3.8 3.8 0 0 1 0-1.5 4.9 4.9 0 0 1 .1-1.2 2.9 2.9 0 0 1 .2-.9 3.6 3.6 0 0 1 .4-.9l-1.4.6-1.4.4" fill="#d79f09"/>
  <path d="M69.6 18c0-.6-.6-1.1-1.9-1.5a12.2 12.2 0 0 0-4.1-.6 3.2 3.2 0 0 0-2.4 3.4v.6h2.1l3-.2 1.4-.4 1.4-.6a1.5 1.5 0 0 0 .5-.8" fill="red"/>
  <path d="M67.4 27.8c-.4-.5-.7-.9-1.1-.9s-1 .2-1.5 1.1q-1.2-2.1-2.4 0c-.6-.7-1.1-1.1-1.5-1s-.7.3-1 .8c-.7-1.1-1.3-1.3-2.1-.5v.3c0 2.3.6 3.6 2.6 4.8h.3a6.7 6.7 0 0 0 4.9.1l.5-.2a5 5 0 0 0 2.8-4.7c0-.1-.1-.2-.1-.3s-.8-.8-1.4.5z" fill="#325723"/>
  <path d="M66.1 22.2l.2-2.4-3 .2h-2.5l.2 1.7v2.2a11.3 11.3 0 0 1-.1 2.6 1.3 1.3 0 0 0-.1.6c.4-.1.9.3 1.5 1q1.2-2.1 2.4 0c.5-.9 1-1.3 1.5-1.1l-.2-4.7" fill="#fbc219"/>
  <path d="M63.6 15.9h-.3a14.9 14.9 0 0 0-4.5.6Q57 17.1 57 18a1 1 0 0 0 .5.8h.1l1.2.6 2 .5h.4v-.6a3.2 3.2 0 0 1 2.4-3.4" fill="#a30e03"/>
  <path d="M66.1 22.3l2.2-.4c0-.5.1-.9.1-1.2a9.4 9.4 0 0 1 .3-.9 4.6 4.6 0 0 1 .3-.9l-1.3.6-1.5.4-3 .2h-2.4l-2-.4-1.3-.6.3.7.3.9a7.8 7.8 0 0 1 .2 1.6l2.7.3a29 29 0 0 0 5.1-.3zm-8.6-3.4a1.1 1.1 0 0 1-.5-.9c0-.5.6-1 1.8-1.4a14.2 14.2 0 0 1 4.4-.6h.4a12.7 12.7 0 0 1 4.1.6c1.2.4 1.8.9 1.8 1.4a1.1 1.1 0 0 1-.5.9m-7.9 5l-2.8-.4c-.1.5-.1 1-.2 1.5s-.1.7-.2 1a6.6 6.6 0 0 0-.1 1.4c.7-.8 1.4-.7 2.1.5.3-.5.6-.8.9-.8s1 .2 1.5 1c.8-1.4 1.6-1.4 2.5 0q.8-1.4 1.5-1.2a1.9 1.9 0 0 1 1 1q.9-1.9 1.5-.3a7.6 7.6 0 0 0-.1-1.5 4.3 4.3 0 0 0-.2-1.1c-.1-.6-.1-1.1-.2-1.6l-2.2.4a21 21 0 0 1-5 .1z" fill="none" stroke="#000" stroke-linecap="round" stroke-linejoin="round" stroke-width=".4"/>
  <path d="M68.8 27.8a5.2 5.2 0 0 1-2.8 4.6 6.8 6.8 0 0 1-5.2.1 5.3 5.3 0 0 1-3-5.1m11 .2v.2m-10.5-5.7v1.4m10-.1v-1.5m-8.4 6a16.4 16.4 0 0 0 .3 3.2m2.1-3l.3 3.3m4.7-3.5a20.1 20.1 0 0 1-.4 3.2m-2.1-3l-.2 3.3" fill="none" stroke="#000" stroke-linecap="round" stroke-linejoin="round" stroke-width=".4"/>
  <path fill="red" d="M67.8 36.2h.9v2.3H57.9v-2.3h9.9z"/>
  <path fill="none" stroke="#000" stroke-linecap="round" stroke-linejoin="round" stroke-width=".4" d="M67.8 36.2h.9v2.3H57.9v-2.3h9.9z"/>
  <path fill="#a30e03" d="M22.2 77l-2.8 2h8.2L25 76.2l-2.8.8z"/>
  <path d="M18.3 62.5s-2.4-1-3.3.9 1.5 4.7 1.8 5.2a1 1 0 0 1-.3 1.3c-1.4 1 .7 2.4 1.4.7s-.9-3.8-1.5-5.1-1-2.8 2-2m10.7-1s2.4-1 3.3.9-1.5 4.7-1.8 5.2a1 1 0 0 0 .3 1.3c1.4 1-.7 2.4-1.4.7s.9-3.8 1.4-5.1.9-2.7-2-1.9" fill="none" stroke="#000" stroke-linecap="round" stroke-linejoin="round" stroke-width=".4"/>
  <path d="M22.1 75.4s.7 2.4-2.7 3.6c-.1 0 4 .5 4.9-3.3a14.6 14.6 0 0 1-2.2-.3z" fill="red"/>
  <path d="M25.4 75.4s-.7 2.4 2.7 3.6c.1 0-4 .4-4.8-3.4a14.9 14.9 0 0 0 2.1-.2z" fill="red"/>
  <path d="M22.1 75.4s.7 2.4-2.7 3.6c-.1 0 3.9.5 4.8-3.3z" fill="none" stroke="#000" stroke-linecap="round" stroke-linejoin="round" stroke-width=".4"/>
  <path d="M25.4 75.4s-.7 2.4 2.7 3.6c.1 0-4 .4-4.9-3.3z" fill="none" stroke="#000" stroke-linecap="round" stroke-linejoin="round" stroke-width=".4"/>
  <path d="M22.2 74.9a9.9 9.9 0 0 0 1.5 4.1s1.2-1 1.5-4a27.2 27.2 0 0 0-3-.1z" fill="red"/>
  <path d="M22.1 72.6s-.4 3.8 1.6 6.3c0 0 2-1.6 1.8-6.3z" fill="none" stroke="#000" stroke-linecap="round" stroke-linejoin="round" stroke-width=".4"/>
  <path d="M22 74.9s-1 .3-1.1 1.9a1.9 1.9 0 0 0 2.2-1.4m2.5-.5s1 .3 1.1 1.9a1.9 1.9 0 0 1-2.2-1.4" fill="red"/>
  <path d="M22 74.9s-1 .3-1.1 1.9a1.9 1.9 0 0 0 2.2-1.4m2.5-.5s1 .3 1.1 1.9a1.9 1.9 0 0 1-2.2-1.4" fill="none" stroke="#000" stroke-linecap="round" stroke-linejoin="round" stroke-width=".4"/>
  <path d="M24.6 75.2s.3.9-.9 2.1a2.1 2.1 0 0 1-.9-2 10.3 10.3 0 0 1 1.8-.1z" fill="red"/>
  <path d="M24.6 75.2s.3.9-.9 2.1a2.2 2.2 0 0 1-.9-2 10.3 10.3 0 0 1 1.8-.1z" fill="none" stroke="#000" stroke-linecap="round" stroke-linejoin="round" stroke-width=".4"/>
  <path d="M19.2 62.2l-1.2-.5.3.6a2.9 2.9 0 0 1 .2.9l.3 1.6c0 .5-.1 1-.1 1.5a10.4 10.4 0 0 1-.2 1.5 2.9 2.9 0 0 1-.2.9c0 .5-.1 1-.1 1.4s1.4-.6 2.1.5a1.5 1.5 0 0 1 1-.8 1.3 1.3 0 0 1 .1-.6 10.5 10.5 0 0 0 .1-2.5v-2.3l-.2-1.7-2-.5m7.4.4l-.2 2.4.2 4.7a2 2 0 0 1 1 .9c.6-1.3 1.1-1.4 1.6-.3 0-.5-.1-.9-.1-1.5l-.3-1a10.3 10.3 0 0 1-.1-1.7 3.8 3.8 0 0 1 0-1.5 4.9 4.9 0 0 1 .1-1.2 2.9 2.9 0 0 1 .2-.9 3.6 3.6 0 0 1 .4-.9l-1.4.6-1.4.4" fill="#d79f09"/>
  <path d="M30 60.8c0-.6-.6-1.1-1.9-1.5a12.2 12.2 0 0 0-4.1-.6c-1.7.7-2.5 1.8-2.4 3.4v.6h2.1a14.2 14.2 0 0 0 3-.2l1.4-.4 1.4-.6a1 1 0 0 0 .5-.8" fill="red"/>
  <path d="M27.8 70.6a2.2 2.2 0 0 0-1.1-.9c-.5-.1-1 .2-1.5 1.1q-1.2-2-2.4 0c-.6-.7-1.1-1-1.5-1a1.5 1.5 0 0 0-1 .8c-.7-1.1-1.3-1.3-2.1-.5v.3c0 2.3.6 3.6 2.6 4.8l.3.2a6.7 6.7 0 0 0 4.9.1l.5-.3a5 5 0 0 0 2.8-4.6v-.3c-.7-1.1-.9-1-1.5.3z" fill="#325723"/>
  <path d="M26.5 65l.2-2.4a14.2 14.2 0 0 1-3 .2h-2.5l.2 1.7v2.3a10.5 10.5 0 0 1-.1 2.5 1.3 1.3 0 0 0-.1.6c.4 0 .9.3 1.5 1 .7-1.3 1.6-1.3 2.4 0 .5-.9 1-1.2 1.5-1.1l-.1-4.8" fill="#fbc219"/>
  <path d="M24 58.7h-.3a14.9 14.9 0 0 0-4.5.6q-1.8.6-1.8 1.5a1 1 0 0 0 .5.8h.1l1.2.5 2 .5h.4V62c-.1-1.6.7-2.7 2.4-3.4" fill="#a30e03"/>
  <path d="M26.5 65.1l2.2-.4c0-.4.1-.8.1-1.2l.3-.9.3-.9-1.3.6-1.5.4-3 .2h-2.4l-2-.5-1.3-.6.3.7.3.9a7.8 7.8 0 0 1 .2 1.6l2.7.3a21.8 21.8 0 0 0 5.1-.2z" fill="none" stroke="#000" stroke-linecap="round" stroke-linejoin="round" stroke-width=".4"/>
  <path d="M17.9 61.7a.8.8 0 0 1-.5-.8q0-.9 1.8-1.5a14.2 14.2 0 0 1 4.4-.6h.4a12.7 12.7 0 0 1 4.1.6q1.8.6 1.8 1.5a1 1 0 0 1-.5.8m-7.9 5a12.6 12.6 0 0 1-2.8-.4c-.1.5-.1 1-.2 1.5s-.1.7-.2 1a7.1 7.1 0 0 0-.1 1.4c.7-.8 1.4-.6 2.1.5.3-.5.6-.8.9-.8s1 .3 1.5 1c.8-1.4 1.6-1.4 2.5 0 .5-.9 1-1.3 1.5-1.1s.7.4 1 .9q.9-2 1.5-.3a7.6 7.6 0 0 0-.1-1.5 5.2 5.2 0 0 0-.2-1.1c-.1-.5-.1-1.1-.2-1.6l-2.2.4a16.8 16.8 0 0 1-5 .1z" fill="none" stroke="#000" stroke-linecap="round" stroke-linejoin="round" stroke-width=".4"/>
  <path d="M29.2 70.6a5.2 5.2 0 0 1-2.8 4.7 6.8 6.8 0 0 1-5.2.1 5.5 5.5 0 0 1-3-5.2m11 .2v.2m-10.5-5.7v1.4m10-.1v-1.5m-8.4 6a16.4 16.4 0 0 0 .3 3.2m2.1-3l.3 3.3m4.7-3.5a20.1 20.1 0 0 1-.4 3.2m-2.1-3l-.2 3.3" fill="none" stroke="#000" stroke-linecap="round" stroke-linejoin="round" stroke-width=".4"/>
  <path fill="red" d="M28.2 79h.9v2.3H18.3V79h9.9z"/>
  <path fill="none" stroke="#000" stroke-linecap="round" stroke-linejoin="round" stroke-width=".4" d="M28.2 79h.9v2.3H18.3V79h9.9z"/>
  <path fill="#a30e03" d="M61.8 77L59 79h8.2l-2.6-2.8-2.8.8z"/>
  <path d="M57.9 62.5s-2.4-1-3.3.9 1.5 4.7 1.8 5.2a1 1 0 0 1-.3 1.3c-1.4 1 .7 2.4 1.4.7s-.9-3.8-1.4-5.1-1.1-2.8 1.9-2m10.7-1s2.4-1 3.3.9-1.5 4.7-1.8 5.2a1 1 0 0 0 .3 1.3c1.4 1-.7 2.4-1.4.7s.9-3.8 1.5-5.1.8-2.7-2.1-1.9" fill="none" stroke="#000" stroke-linecap="round" stroke-linejoin="round" stroke-width=".4"/>
  <path d="M61.7 75.4s.7 2.4-2.7 3.6c-.1 0 4 .5 4.9-3.3a14.6 14.6 0 0 1-2.2-.3z" fill="red"/>
  <path d="M65 75.4s-.7 2.4 2.7 3.6c.1 0-4 .4-4.8-3.4a14.9 14.9 0 0 0 2.1-.2z" fill="red"/>
  <path d="M61.7 75.4s.7 2.4-2.7 3.6c-.1 0 3.9.5 4.8-3.3z" fill="none" stroke="#000" stroke-linecap="round" stroke-linejoin="round" stroke-width=".4"/>
  <path d="M65 75.4s-.7 2.4 2.7 3.6c.1 0-4 .4-4.9-3.3z" fill="none" stroke="#000" stroke-linecap="round" stroke-linejoin="round" stroke-width=".4"/>
  <path d="M61.8 74.9a9.9 9.9 0 0 0 1.5 4.1s1.2-1 1.5-4a27.2 27.2 0 0 0-3-.1z" fill="red"/>
  <path d="M61.7 72.6s-.4 3.8 1.6 6.3c0 0 2-1.6 1.8-6.3z" fill="none" stroke="#000" stroke-linecap="round" stroke-linejoin="round" stroke-width=".4"/>
  <path d="M61.6 74.9s-1 .3-1.1 1.9a1.9 1.9 0 0 0 2.2-1.4m2.5-.5s1 .3 1.1 1.9a1.9 1.9 0 0 1-2.2-1.4" fill="red"/>
  <path d="M61.6 74.9s-1 .3-1.1 1.9a1.9 1.9 0 0 0 2.2-1.4m2.5-.5s1 .3 1.1 1.9a1.9 1.9 0 0 1-2.2-1.4" fill="none" stroke="#000" stroke-linecap="round" stroke-linejoin="round" stroke-width=".4"/>
  <path d="M64.2 75.2s.3.9-.9 2.1a2.1 2.1 0 0 1-.9-2 10.3 10.3 0 0 1 1.8-.1z" fill="red"/>
  <path d="M64.2 75.2s.3.9-.9 2.1a2.2 2.2 0 0 1-.9-2 10.3 10.3 0 0 1 1.8-.1z" fill="none" stroke="#000" stroke-linecap="round" stroke-linejoin="round" stroke-width=".4"/>
  <path d="M58.8 62.2l-1.2-.5.3.6a2.9 2.9 0 0 1 .2.9l.3 1.6c0 .5-.1 1-.1 1.5a10.4 10.4 0 0 1-.2 1.5c0 .3-.1.6-.1.9a7.8 7.8 0 0 0-.2 1.4c.8-.8 1.4-.6 2.1.5a1.5 1.5 0 0 1 1-.8 1.3 1.3 0 0 1 .1-.6 10.5 10.5 0 0 0 .1-2.5v-2.3l-.2-1.7-2-.5m7.4.4l-.2 2.4.2 4.7a2 2 0 0 1 1 .9c.6-1.3 1.1-1.4 1.6-.3 0-.5-.1-.9-.1-1.5l-.3-1c0-.6-.1-1.2-.1-1.7a3.8 3.8 0 0 1 0-1.5 4.9 4.9 0 0 1 .1-1.2 2.9 2.9 0 0 1 .2-.9 3.6 3.6 0 0 1 .4-.9l-1.4.6-1.4.4" fill="#d79f09"/>
  <path d="M69.6 60.8c0-.6-.6-1.1-1.9-1.5a12.2 12.2 0 0 0-4.1-.6c-1.7.7-2.5 1.8-2.4 3.4v.6h2.1a14.2 14.2 0 0 0 3-.2l1.4-.4 1.4-.6a1 1 0 0 0 .5-.8" fill="red"/>
  <path d="M67.4 70.6a2.2 2.2 0 0 0-1.1-.9c-.5-.1-1 .2-1.5 1.1q-1.2-2-2.4 0c-.6-.7-1.1-1-1.5-1a1.5 1.5 0 0 0-1 .8c-.7-1.1-1.3-1.3-2.1-.5v.3c0 2.3.6 3.6 2.6 4.8l.3.2a6.7 6.7 0 0 0 4.9.1l.5-.3a5 5 0 0 0 2.8-4.6v-.3c-.7-1.1-.9-1-1.5.3z" fill="#325723"/>
  <path d="M66.1 65l.2-2.4a14.2 14.2 0 0 1-3 .2h-2.5l.2 1.7v2.3a10.5 10.5 0 0 1-.1 2.5 1.3 1.3 0 0 0-.1.6c.4 0 .9.3 1.5 1q1.2-2 2.4 0c.5-.9 1-1.2 1.5-1.1l-.1-4.8" fill="#fbc219"/>
  <path d="M63.6 58.7h-.3a14.9 14.9 0 0 0-4.5.6q-1.8.6-1.8 1.5a1 1 0 0 0 .5.8h.1l1.2.5 2 .5h.4V62c-.1-1.6.7-2.7 2.4-3.4" fill="#a30e03"/>
  <path d="M66.1 65.1l2.2-.4c0-.4.1-.8.1-1.2l.3-.9.3-.9-1.3.6-1.5.4-3 .2h-2.4l-2-.5-1.3-.6.3.7.3.9a7.8 7.8 0 0 1 .2 1.6l2.7.3a21.8 21.8 0 0 0 5.1-.2z" fill="none" stroke="#000" stroke-linecap="round" stroke-linejoin="round" stroke-width=".4"/>
  <path d="M57.5 61.7a.8.8 0 0 1-.5-.8q0-.9 1.8-1.5a14.2 14.2 0 0 1 4.4-.6h.4a12.7 12.7 0 0 1 4.1.6q1.8.6 1.8 1.5a1 1 0 0 1-.5.8m-7.9 5a12.6 12.6 0 0 1-2.8-.4c-.1.5-.1 1-.2 1.5s-.1.7-.2 1a7.1 7.1 0 0 0-.1 1.4c.7-.8 1.4-.6 2.1.5.3-.5.6-.8.9-.8s1 .3 1.5 1c.8-1.4 1.6-1.4 2.5 0 .5-.9 1-1.3 1.5-1.1s.7.4 1 .9q.9-2 1.5-.3a7.6 7.6 0 0 0-.1-1.5 5.2 5.2 0 0 0-.2-1.1c-.1-.5-.1-1.1-.2-1.6l-2.2.4a16.8 16.8 0 0 1-5 .1z" fill="none" stroke="#000" stroke-linecap="round" stroke-linejoin="round" stroke-width=".4"/>
  <path d="M68.8 70.6a5.2 5.2 0 0 1-2.8 4.7 6.8 6.8 0 0 1-5.2.1 5.5 5.5 0 0 1-3-5.2m11 .2v.2m-10.5-5.7v1.4m10-.1v-1.5m-8.4 6a16.4 16.4 0 0 0 .3 3.2m2.1-3l.3 3.3m4.7-3.5a20.1 20.1 0 0 1-.4 3.2m-2.1-3l-.2 3.3" fill="none" stroke="#000" stroke-linecap="round" stroke-linejoin="round" stroke-width=".4"/>
  <path fill="red" d="M67.8 79h.9v2.3H57.9V79h9.9z"/>
  <path fill="none" stroke="#000" stroke-linecap="round" stroke-linejoin="round" stroke-width=".4" d="M67.8 79h.9v2.3H57.9V79h9.9z"/>
  <path fill="#a30e03" d="M42 56l-2.8 1.7h8.2l-2.6-2.6-2.8.9z"/>
  <path d="M38.1 41.1s-2.4-1.1-3.3.9 1.5 4.7 1.8 5.2a1 1 0 0 1-.3 1.3c-1.4 1 .7 2.4 1.4.6s-.9-3.7-1.4-5-1.1-2.8 1.9-2m10.7-1s2.4-1.1 3.3.9-1.5 4.7-1.8 5.2a1 1 0 0 0 .3 1.3c1.4 1-.7 2.4-1.4.6s.9-3.7 1.4-5 .9-2.7-2-1.9" fill="none" stroke="#000" stroke-linecap="round" stroke-linejoin="round" stroke-width=".4"/>
  <path d="M41.9 54s.7 2.4-2.7 3.5a4.2 4.2 0 0 0 4.9-3.2 14.6 14.6 0 0 1-2.2-.3z" fill="red"/>
  <path d="M45.2 54s-.7 2.4 2.7 3.5a4.2 4.2 0 0 1-4.8-3.3z" fill="red"/>
  <path d="M41.9 54s.7 2.4-2.7 3.5a4.2 4.2 0 0 0 4.8-3.2 15.2 15.2 0 0 1-2.1-.3z" fill="none" stroke="#000" stroke-linecap="round" stroke-linejoin="round" stroke-width=".4"/>
  <path d="M45.2 54s-.7 2.4 2.7 3.5a4.4 4.4 0 0 1-4.9-3.3z" fill="none" stroke="#000" stroke-linecap="round" stroke-linejoin="round" stroke-width=".4"/>
  <path d="M42 53.5a9.9 9.9 0 0 0 1.5 4.1 6.5 6.5 0 0 0 1.5-4 27.2 27.2 0 0 0-3-.1z" fill="red"/>
  <path d="M41.9 51.2s-.4 3.8 1.6 6.3c0 0 2-1.6 1.8-6.4z" fill="none" stroke="#000" stroke-linecap="round" stroke-linejoin="round" stroke-width=".4"/>
  <path d="M41.8 53.5s-1 .3-1.1 1.9a2 2 0 0 0 2.2-1.5m2.5-.4s1 .3 1.1 1.9a2 2 0 0 1-2.2-1.5" fill="red"/>
  <path d="M41.8 53.5s-1 .3-1.1 1.9a2 2 0 0 0 2.2-1.5m2.5-.4s1 .3 1.1 1.9a2 2 0 0 1-2.2-1.5" fill="none" stroke="#000" stroke-linecap="round" stroke-linejoin="round" stroke-width=".4"/>
  <path d="M44.4 53.8s.3.9-.9 2.1a2.1 2.1 0 0 1-.9-2 10.3 10.3 0 0 1 1.8-.1z" fill="red"/>
  <path d="M44.4 53.8s.3.9-.9 2.1a2.2 2.2 0 0 1-.9-2 10.3 10.3 0 0 1 1.8-.1z" fill="none" stroke="#000" stroke-linecap="round" stroke-linejoin="round" stroke-width=".4"/>
  <path d="M39 40.8l-1.2-.6.3.7a2.9 2.9 0 0 1 .2.9l.3 1.6c0 .5-.1 1-.1 1.4a10 10 0 0 1-.2 1.6 2.9 2.9 0 0 1-.2.9c0 .5-.1 1-.1 1.4s1.4-.6 2.1.5c.3-.5.6-.8 1-.8a1.3 1.3 0 0 1 .1-.6 10.5 10.5 0 0 0 .1-2.5V43l-.3-1.7-2-.5m7.5.4l-.2 2.4.2 4.7c.3 0 .7.4 1 .9.6-1.3 1.1-1.4 1.6-.3 0-.5-.1-1-.1-1.5l-.3-1a10.3 10.3 0 0 1-.1-1.7 3.8 3.8 0 0 1 0-1.5 4.9 4.9 0 0 1 .1-1.2 2.9 2.9 0 0 1 .2-.9 3.6 3.6 0 0 1 .4-.9l-1.4.6-1.4.4" fill="#d79f09"/>
  <path d="M49.8 39.4c0-.6-.6-1.1-1.9-1.5a12.2 12.2 0 0 0-4.1-.6 3.2 3.2 0 0 0-2.4 3.4v.6h2.1a14.2 14.2 0 0 0 3-.2l1.4-.4 1.4-.6c.3-.3.5-.5.5-.8" fill="red"/>
  <path d="M47.6 49.2c-.4-.5-.7-.9-1.1-.9s-1 .2-1.5 1.1q-1.2-2.1-2.4 0c-.6-.7-1.1-1.1-1.5-1s-.7.3-1 .8c-.7-1.1-1.3-1.3-2.1-.5v.3c0 2.3.6 3.6 2.6 4.8h.3a6.4 6.4 0 0 0 4.9.2l.5-.3a5 5 0 0 0 2.8-4.7c0-.1-.1-.2-.1-.3s-.8-.8-1.4.5z" fill="#325723"/>
  <path d="M46.3 43.6l.2-2.4a14.2 14.2 0 0 1-3 .2H41l.2 1.7v2.3a10.5 10.5 0 0 1-.1 2.5 1.3 1.3 0 0 0-.1.6c.4-.1.9.3 1.5 1q1.2-2.1 2.4 0c.5-.9 1-1.3 1.5-1.1l-.2-4.7" fill="#fbc219"/>
  <path d="M43.8 37.3h-.3a14.9 14.9 0 0 0-4.5.6q-1.8.6-1.8 1.5a1 1 0 0 0 .5.8h.1l1.2.6 2 .5h.4v-.6a3.2 3.2 0 0 1 2.4-3.4" fill="#a30e03"/>
  <path d="M46.3 43.7l2.2-.4c0-.4.1-.8.1-1.2l.3-.9.3-.9-1.3.6-1.5.4-3 .2H41l-2-.5-1.3-.6.3.7.3.9a7.8 7.8 0 0 1 .2 1.6l2.7.3a29 29 0 0 0 5.1-.2zm-8.6-3.4a1 1 0 0 1-.5-.9c0-.5.6-1 1.8-1.4a14.2 14.2 0 0 1 4.4-.6h.4a12.7 12.7 0 0 1 4.1.6c1.2.4 1.8.9 1.8 1.4a1.1 1.1 0 0 1-.5.9m-7.9 5a12.6 12.6 0 0 1-2.8-.4c-.1.5-.1 1-.2 1.5s-.1.7-.2 1a6.6 6.6 0 0 0-.1 1.4c.7-.8 1.4-.7 2.1.5.3-.5.6-.8.9-.8s1 .3 1.5 1c.8-1.4 1.6-1.4 2.5 0q.8-1.3 1.5-1.2a1.9 1.9 0 0 1 1 1q.9-1.9 1.5-.3a7.6 7.6 0 0 0-.1-1.5 5.2 5.2 0 0 0-.2-1.1c-.1-.6-.1-1.1-.2-1.6l-2.2.4a21 21 0 0 1-5 .1z" fill="none" stroke="#000" stroke-linecap="round" stroke-linejoin="round" stroke-width=".4"/>
  <path d="M49 49.2a5.2 5.2 0 0 1-2.8 4.7 7.4 7.4 0 0 1-5.2.1 5.5 5.5 0 0 1-3-5.2m11 .2v.2m-10.5-5.7v1.4m10-.1v-1.5m-8.4 6a16.4 16.4 0 0 0 .3 3.2m2.1-3l.3 3.3m4.7-3.5a20.1 20.1 0 0 1-.4 3.2m-2.1-3l-.2 3.3" fill="none" stroke="#000" stroke-linecap="round" stroke-linejoin="round" stroke-width=".4"/>
  <path fill="red" d="M48 57.6h.9v2.3H38.1v-2.3H48z"/>
  <path fill="none" stroke="#000" stroke-linecap="round" stroke-linejoin="round" stroke-width=".4" d="M48 57.6h.9v2.3H38.1v-2.3H48z"/>
</svg>
