<svg xmlns="http://www.w3.org/2000/svg" viewBox="0 0 87 140">
  <rect width="87" height="140" rx="6" ry="6" fill="#fff"/>
  <path fill="#a30e03" d="M23.6 119.4l-3.3 2.6h9.6l-3-3.4-3.3.8z"/>
  <path d="M18.9 101.8s-2.8-1.2-3.9 1 1.8 5.6 2.1 6.2a1.1 1.1 0 0 1-.3 1.6c-1.7 1.2.8 2.9 1.7.8s-1-4.5-1.7-6-1.3-3.3 2.3-2.4m12.7-1.2s2.9-1.2 3.9 1-1.8 5.6-2.1 6.2a1.1 1.1 0 0 0 .3 1.6c1.7 1.2-.8 2.9-1.6.8s1-4.5 1.7-6 1-3.2-2.5-2.3" fill="none" stroke="#000" stroke-linecap="round" stroke-linejoin="round" stroke-width=".4"/>
  <path d="M23.5 117.1s.8 2.8-3.3 4.2c0 .1 4.8.7 5.8-3.8z" fill="red"/>
  <path d="M27.3 117.1s-.7 2.8 3.3 4.2a5.2 5.2 0 0 1-5.8-3.9 19 19 0 0 0 2.5-.3z" fill="red"/>
  <path d="M23.5 117.1s.8 2.8-3.3 4.2a5 5 0 0 0 5.8-3.8 18.7 18.7 0 0 1-2.5-.4z" fill="none" stroke="#000" stroke-linecap="round" stroke-linejoin="round" stroke-width=".4"/>
  <path d="M27.3 117.1s-.7 2.8 3.3 4.2c.1.1-4.8.6-5.8-3.9z" fill="none" stroke="#000" stroke-linecap="round" stroke-linejoin="round" stroke-width=".4"/>
  <path d="M23.6 116.6a10.7 10.7 0 0 0 1.8 4.8c0-.1 1.4-1.1 1.7-4.8z" fill="red"/>
  <path d="M23.4 113.8s-.4 4.5 2 7.5c0-.1 2.4-1.9 2.1-7.6z" fill="none" stroke="#000" stroke-linecap="round" stroke-linejoin="round" stroke-width=".4"/>
  <path d="M23.3 116.6s-1.2.3-1.2 2.2a2.2 2.2 0 0 0 2.5-1.7m3.1-.5s1.1.3 1.2 2.2a2.3 2.3 0 0 1-2.6-1.7" fill="red"/>
  <path d="M23.3 116.6s-1.2.3-1.2 2.2a2.2 2.2 0 0 0 2.5-1.7m3.1-.5s1.1.3 1.2 2.2a2.3 2.3 0 0 1-2.6-1.7" fill="none" stroke="#000" stroke-linecap="round" stroke-linejoin="round" stroke-width=".4"/>
  <path d="M26.4 116.9s.4 1.1-1 2.4a2.2 2.2 0 0 1-1.1-2.3 14.1 14.1 0 0 1 2.1-.1z" fill="red"/>
  <path d="M26.4 116.9s.4 1.1-1 2.4a2.2 2.2 0 0 1-1.1-2.3 14.1 14.1 0 0 1 2.1-.1z" fill="none" stroke="#000" stroke-linecap="round" stroke-linejoin="round" stroke-width=".4"/>
  <path d="M20.1 101.5a5.3 5.3 0 0 1-1.5-.7l.3.8.3 1.1.3 1.9a10.3 10.3 0 0 1-.1 1.7 14.1 14.1 0 0 1-.2 1.8c-.1.3-.1.7-.2 1.1a9.7 9.7 0 0 0-.1 1.7q1.2-1.5 2.4.6c.4-.6.8-1 1.2-1a1.7 1.7 0 0 1 .1-.7 10.1 10.1 0 0 0 .2-3l-.2-1.8v-.9l-.2-2.1-2.3-.5m8.8.5l-.2 2.8.2 5.5c.4.1.8.5 1.3 1.2.6-1.6 1.2-1.7 1.8-.4 0-.6-.1-1.2-.1-1.8l-.3-1.2a15 15 0 0 1-.2-2 5.4 5.4 0 0 1 0-1.8 6.6 6.6 0 0 1 .1-1.4l.3-1.1a3 3 0 0 1 .4-1 8.4 8.4 0 0 1-1.6.7l-1.7.5" fill="#d79f09"/>
  <path d="M32.8 99.8c0-.7-.7-1.3-2.2-1.8a17 17 0 0 0-4.9-.7 3.9 3.9 0 0 0-2.8 4.1v.7h2.4l3.6-.2 1.7-.5a8.4 8.4 0 0 0 1.6-.7 1.4 1.4 0 0 0 .6-1" fill="red"/>
  <path d="M30.2 111.5q-.6-1.1-1.2-1.2c-.6-.1-1.2.3-1.8 1.4-1-1.6-2-1.6-2.9 0q-1.1-1.4-1.8-1.2c-.4 0-.8.4-1.2 1q-1.2-2.1-2.4-.6c0 .1-.1.2-.1.3a5.9 5.9 0 0 0 3.1 5.7l.4.2s2.1 1.2 5.8.1l.6-.3a6 6 0 0 0 3.3-5.5c0-.1-.1-.3-.1-.4s-1-1.1-1.7.5z" fill="#325723"/>
  <path d="M28.7 104.8l.2-2.8-3.6.2h-2.9l.2 2.1v.9l.2 1.8a10.1 10.1 0 0 1-.2 3 1.7 1.7 0 0 0-.1.7q.8-.1 1.8 1.2c.9-1.6 1.9-1.6 2.9 0 .6-1.1 1.2-1.5 1.7-1.4l-.2-5.5" fill="#fbc219"/>
  <path d="M25.7 97.3h-.4a19.2 19.2 0 0 0-5.2.7c-1.5.5-2.2 1.1-2.2 1.8a1.4 1.4 0 0 0 .6 1h.1a5.3 5.3 0 0 0 1.5.7l2.3.5h.5v-.7a3.9 3.9 0 0 1 2.8-4.1" fill="#a30e03"/>
  <path d="M28.7 104.9l2.6-.5a5.9 5.9 0 0 1 .2-1.4l.3-1.1a3 3 0 0 1 .4-1 8.4 8.4 0 0 1-1.6.7l-1.8.4a18.3 18.3 0 0 1-3.5.3h-2.9l-2.4-.5-1.5-.7.4.8.3 1.1a11.1 11.1 0 0 1 .2 1.9l3.2.4a41.9 41.9 0 0 0 6.1-.4zm-10.2-4a1.5 1.5 0 0 1-.7-1c0-.7.8-1.3 2.2-1.8a16.6 16.6 0 0 1 5.3-.7h.4a17.5 17.5 0 0 1 4.9.7c1.5.5 2.2 1.1 2.2 1.8s-.2.6-.6 1m-9.5 5.9a18.6 18.6 0 0 1-3.3-.4c-.1.5-.1 1.1-.2 1.8a3.6 3.6 0 0 0-.2 1.1 9.9 9.9 0 0 0-.2 1.7c.9-1 1.7-.8 2.5.6.3-.6.7-1 1.1-1s1.2.3 1.8 1.2c.9-1.6 1.9-1.6 2.9 0 .6-1.1 1.2-1.5 1.8-1.4s.8.5 1.2 1.2c.7-1.6 1.3-1.7 1.8-.4a10.9 10.9 0 0 0-.1-1.8 5 5 0 0 1-.2-1.2 16.2 16.2 0 0 1-.3-2l-2.6.5a24.1 24.1 0 0 1-6 .1z" fill="none" stroke="#000" stroke-linecap="round" stroke-linejoin="round" stroke-width=".4"/>
  <path d="M31.9 111.5a6.2 6.2 0 0 1-3.3 5.5 8.2 8.2 0 0 1-6.2.1 6.3 6.3 0 0 1-3.6-6.1m13.1.2v.3m-12.5-6.8v1.7m11.9-.2v-1.8m-10 7.2a16.2 16.2 0 0 0 .4 3.7m2.5-3.5l.3 3.9m5.6-4.1a25.6 25.6 0 0 1-.4 3.7m-2.5-3.5l-.3 3.9" fill="none" stroke="#000" stroke-linecap="round" stroke-linejoin="round" stroke-width=".4"/>
  <path fill="red" d="M30.7 121.4h1.1v2.7H18.9v-2.7h11.8z"/>
  <path fill="none" stroke="#000" stroke-linecap="round" stroke-linejoin="round" stroke-width=".4" d="M30.7 121.4h1.1v2.7H18.9v-2.7h11.8z"/>
  <path fill="#a30e03" d="M59.9 119.4l-3.4 2.6h9.7l-3-3.4-3.3.8z"/>
  <path d="M55.2 101.8s-2.9-1.2-3.9 1 1.8 5.6 2.1 6.2a1.1 1.1 0 0 1-.3 1.6c-1.7 1.2.8 2.9 1.6.8s-1-4.5-1.7-6-1.2-3.3 2.3-2.4m12.8-1.2s2.8-1.2 3.9 1-1.8 5.6-2.1 6.2a1.1 1.1 0 0 0 .3 1.6c1.7 1.2-.8 2.9-1.7.8s1-4.5 1.7-6 1.1-3.2-2.4-2.3" fill="none" stroke="#000" stroke-linecap="round" stroke-linejoin="round" stroke-width=".4"/>
  <path d="M59.8 117.1s.7 2.8-3.3 4.2c-.1.1 4.8.7 5.8-3.8z" fill="red"/>
  <path d="M63.6 117.1s-.8 2.8 3.3 4.2a5.1 5.1 0 0 1-5.8-3.9 19 19 0 0 0 2.5-.3z" fill="red"/>
  <path d="M59.8 117.1s.7 2.8-3.3 4.2a5.1 5.1 0 0 0 5.8-3.8 18.7 18.7 0 0 1-2.5-.4z" fill="none" stroke="#000" stroke-linecap="round" stroke-linejoin="round" stroke-width=".4"/>
  <path d="M63.6 117.1s-.8 2.8 3.3 4.2c0 .1-4.8.6-5.9-3.9a20.6 20.6 0 0 0 2.6-.3z" fill="none" stroke="#000" stroke-linecap="round" stroke-linejoin="round" stroke-width=".4"/>
  <path d="M59.9 116.6a10.7 10.7 0 0 0 1.8 4.8c0-.1 1.4-1.1 1.7-4.8z" fill="red"/>
  <path d="M59.7 113.8s-.4 4.5 1.9 7.5c0-.1 2.5-1.9 2.2-7.6z" fill="none" stroke="#000" stroke-linecap="round" stroke-linejoin="round" stroke-width=".4"/>
  <path d="M59.6 116.6s-1.2.3-1.3 2.2a2.3 2.3 0 0 0 2.6-1.7m3-.5s1.2.3 1.3 2.2a2.3 2.3 0 0 1-2.6-1.7" fill="red"/>
  <path d="M59.6 116.6s-1.2.3-1.3 2.2a2.3 2.3 0 0 0 2.6-1.7m3-.5s1.2.3 1.3 2.2a2.3 2.3 0 0 1-2.6-1.7" fill="none" stroke="#000" stroke-linecap="round" stroke-linejoin="round" stroke-width=".4"/>
  <path d="M62.7 116.9s.4 1.1-1 2.4-1.2-.5-1.2-2.3z" fill="red"/>
  <path d="M62.7 116.9s.4 1.1-1 2.4a2.4 2.4 0 0 1-1.2-2.3z" fill="none" stroke="#000" stroke-linecap="round" stroke-linejoin="round" stroke-width=".4"/>
  <path d="M56.3 101.5l-1.5-.7a2 2 0 0 1 .4.8l.3 1.1.3 1.9c0 .5-.1 1.1-.1 1.7a14.1 14.1 0 0 1-.2 1.8 3.6 3.6 0 0 0-.2 1.1 9.9 9.9 0 0 0-.2 1.7c.9-1 1.7-.8 2.5.6.3-.6.7-1 1.1-1s.1-.5.2-.7a10.1 10.1 0 0 0 .1-3v-2.7l-.2-2.1-2.4-.5m8.8.5l-.2 2.8.2 5.5q.6.2 1.2 1.2c.7-1.6 1.3-1.7 1.9-.4a11 11 0 0 0-.2-1.8c-.1-.4-.1-.8-.2-1.2a16.2 16.2 0 0 1-.3-2v-1.8a6.8 6.8 0 0 1 .2-1.4l.3-1.1a3 3 0 0 1 .4-1 8.4 8.4 0 0 1-1.6.7l-1.7.5" fill="#d79f09"/>
  <path d="M69.1 99.8c0-.7-.7-1.3-2.2-1.8a17.5 17.5 0 0 0-4.9-.7c-2 .8-3 2.1-2.9 4.1a1.7 1.7 0 0 0 .1.7h2.4l3.6-.2 1.7-.5a8.4 8.4 0 0 0 1.6-.7 1.4 1.4 0 0 0 .6-1" fill="red"/>
  <path d="M66.5 111.5a2.4 2.4 0 0 0-1.3-1.2c-.6-.1-1.2.3-1.7 1.4-1.1-1.6-2-1.6-3 0q-.9-1.4-1.8-1.2c-.4 0-.8.4-1.1 1-.8-1.4-1.6-1.6-2.5-.6v.3c0 2.7.7 4.2 3.1 5.7l.3.2s2.2 1.2 5.9.1l.6-.3a5.9 5.9 0 0 0 3.2-5.5v-.4c-.7-1.3-1-1.1-1.7.5z" fill="#325723"/>
  <path d="M65 104.8l.2-2.8-3.6.2h-2.9l.2 2.1v2.7a10.1 10.1 0 0 1-.1 3c-.1.2-.1.5-.2.7s1.2.3 1.8 1.2c1-1.6 1.9-1.6 3 0 .5-1.1 1.1-1.5 1.7-1.4l-.2-5.5" fill="#fbc219"/>
  <path d="M62 97.3h-.4a20 20 0 0 0-5.3.7c-1.4.5-2.2 1.1-2.2 1.8a1.5 1.5 0 0 0 .7 1l1.5.7 2.4.5h.5a1.7 1.7 0 0 1-.1-.7c-.1-2 .9-3.3 2.9-4.1" fill="#a30e03"/>
  <path d="M64.9 104.9l2.7-.5a6.1 6.1 0 0 1 .1-1.4l.3-1.1a10.4 10.4 0 0 1 .4-1l-1.5.7-1.8.4a18.3 18.3 0 0 1-3.5.3h-3l-2.3-.5a5.3 5.3 0 0 1-1.5-.7l.3.8a3.6 3.6 0 0 1 .4 1.1 11.1 11.1 0 0 1 .2 1.9l3.2.4a40.1 40.1 0 0 0 6-.4zm-10.1-4a1.3 1.3 0 0 1-.7-1c0-.7.7-1.3 2.2-1.8a16.2 16.2 0 0 1 5.3-.7h.4a17.5 17.5 0 0 1 4.9.7q2.1.8 2.1 1.8c0 .3-.2.6-.6 1m-9.4 5.9a18.6 18.6 0 0 1-3.3-.4 9 9 0 0 0-.2 1.8l-.3 1.1a9.7 9.7 0 0 0-.1 1.7c.8-1 1.7-.8 2.5.6.3-.6.7-1 1.1-1s1.1.3 1.8 1.2c.9-1.6 1.9-1.6 2.9 0 .6-1.1 1.2-1.5 1.8-1.4s.8.5 1.2 1.2c.6-1.6 1.3-1.7 1.8-.4a10.9 10.9 0 0 0-.1-1.8l-.3-1.2a15 15 0 0 1-.2-2l-2.7.5a23.2 23.2 0 0 1-5.9.1z" fill="none" stroke="#000" stroke-linecap="round" stroke-linejoin="round" stroke-width=".4"/>
  <path d="M68.2 111.5a6.2 6.2 0 0 1-3.3 5.5 8.5 8.5 0 0 1-6.3.1 6.4 6.4 0 0 1-3.5-6.1m13.1.2v.3m-12.5-6.8v1.7m11.9-.2a5.4 5.4 0 0 1 0-1.8m-10 7.2a16.2 16.2 0 0 0 .4 3.7m2.5-3.5l.3 3.9m5.6-4.1a18.5 18.5 0 0 1-.5 3.7m-2.5-3.5l-.2 3.9" fill="none" stroke="#000" stroke-linecap="round" stroke-linejoin="round" stroke-width=".4"/>
  <path fill="red" d="M67 121.4h1.1v2.7H55.2v-2.7H67z"/>
  <path fill="none" stroke="#000" stroke-linecap="round" stroke-linejoin="round" stroke-width=".4" d="M67 121.4h1.1v2.7H55.2v-2.7H67z"/>
  <path fill="#a30e03" d="M23.6 38.6L20.3 41h9.6l-3-3.3-3.3.9z"/>
  <path d="M18.9 20.4s-2.8-1.3-3.9 1 1.8 5.6 2.1 6.2a1.1 1.1 0 0 1-.3 1.6c-1.7 1.2.8 2.8 1.7.7s-1-4.4-1.7-5.9-1.3-3.4 2.3-2.4m12.7-1.2s2.9-1.3 3.9 1-1.8 5.6-2.1 6.2a1.1 1.1 0 0 0 .3 1.6c1.7 1.2-.8 2.8-1.6.7s1-4.4 1.7-5.9 1-3.3-2.5-2.3" fill="none" stroke="#000" stroke-linecap="round" stroke-linejoin="round" stroke-width=".4"/>
  <path d="M23.5 35.7s.8 2.8-3.3 4.2c0 .1 4.8.7 5.8-3.8a21.7 21.7 0 0 1-2.5-.4z" fill="red"/>
  <path d="M27.3 35.7s-.7 2.8 3.3 4.2a5.2 5.2 0 0 1-5.8-3.9 19 19 0 0 0 2.5-.3z" fill="red"/>
  <path d="M23.5 35.7s.8 2.8-3.3 4.2a5 5 0 0 0 5.8-3.8 18.7 18.7 0 0 1-2.5-.4z" fill="none" stroke="#000" stroke-linecap="round" stroke-linejoin="round" stroke-width=".4"/>
  <path d="M27.3 35.7s-.7 2.8 3.3 4.2c.1.1-4.8.6-5.8-3.9a21.3 21.3 0 0 0 2.5-.3z" fill="none" stroke="#000" stroke-linecap="round" stroke-linejoin="round" stroke-width=".4"/>
  <path d="M23.6 35.2a10.7 10.7 0 0 0 1.8 4.8c0-.1 1.4-1.2 1.7-4.8.4-.1-3.5 0-3.5 0z" fill="red"/>
  <path d="M23.4 32.4s-.4 4.5 2 7.5c0-.1 2.4-1.9 2.1-7.6z" fill="none" stroke="#000" stroke-linecap="round" stroke-linejoin="round" stroke-width=".4"/>
  <path d="M23.3 35.1s-1.2.4-1.2 2.3c0 0 1.7.4 2.5-1.8m3.1-.5s1.1.4 1.2 2.3a2.3 2.3 0 0 1-2.6-1.8" fill="red"/>
  <path d="M23.3 35.1s-1.2.4-1.2 2.3c0 0 1.7.4 2.5-1.8m3.1-.5s1.1.4 1.2 2.3a2.3 2.3 0 0 1-2.6-1.8" fill="none" stroke="#000" stroke-linecap="round" stroke-linejoin="round" stroke-width=".4"/>
  <path d="M26.4 35.5s.4 1.1-1 2.4a2.3 2.3 0 0 1-1.1-2.3 14.1 14.1 0 0 1 2.1-.1z" fill="red"/>
  <path d="M26.4 35.5s.4 1.1-1 2.4a2.3 2.3 0 0 1-1.1-2.3 14.1 14.1 0 0 1 2.1-.1z" fill="none" stroke="#000" stroke-linecap="round" stroke-linejoin="round" stroke-width=".4"/>
  <path d="M20.1 20l-1.5-.6.3.8.3 1.1c.1.5.2 1.2.3 1.8a9.1 9.1 0 0 1-.1 1.7 11 11 0 0 1-.2 1.8c-.1.4-.1.8-.2 1.2a9.2 9.2 0 0 0-.1 1.6c.8-.9 1.6-.7 2.4.7.4-.7.8-1 1.2-1a2.2 2.2 0 0 1 .1-.8 9.7 9.7 0 0 0 .2-3l-.2-1.8v-.9l-.2-2a7.7 7.7 0 0 1-2.3-.6m8.8.5l-.2 2.9.2 5.5c.4.1.8.5 1.3 1.2.6-1.6 1.2-1.8 1.8-.4 0-.6-.1-1.2-.1-1.8l-.3-1.3a13.7 13.7 0 0 1-.2-1.9 5.4 5.4 0 0 1 0-1.8 6.1 6.1 0 0 1 .1-1.4l.3-1.1a4.9 4.9 0 0 1 .4-1.1 4.8 4.8 0 0 1-1.6.7l-1.7.5" fill="#d79f09"/>
  <path d="M32.8 18.3c0-.6-.7-1.2-2.2-1.7a17 17 0 0 0-4.9-.7 3.8 3.8 0 0 0-2.8 4.1v.7h2.4a19.4 19.4 0 0 0 3.6-.3l1.7-.5a4.8 4.8 0 0 0 1.6-.7 1.2 1.2 0 0 0 .6-1" fill="red"/>
  <path d="M30.2 30.1q-.6-1.1-1.2-1.2c-.6-.1-1.2.3-1.8 1.4-1-1.7-2-1.7-2.9 0q-1.1-1.4-1.8-1.2c-.4 0-.8.3-1.2 1-.8-1.4-1.6-1.6-2.4-.7s-.1.2-.1.3a6 6 0 0 0 3.1 5.8h.4s2.1 1.2 5.8.2l.6-.3a6.1 6.1 0 0 0 3.3-5.5v-.3c-.8-1.3-1.1-1.1-1.8.5z" fill="#325723"/>
  <path d="M28.7 23.4l.2-2.9a19.4 19.4 0 0 1-3.6.3h-2.9l.2 2v.9l.2 1.8a9.7 9.7 0 0 1-.2 3 2.2 2.2 0 0 0-.1.8q.8-.2 1.8 1.2c.9-1.7 1.9-1.7 2.9 0 .6-1.1 1.2-1.5 1.7-1.4l-.2-5.5" fill="#fbc219"/>
  <path d="M25.7 15.9h-.4a16 16 0 0 0-5.2.7c-1.5.5-2.2 1.1-2.2 1.7a1.1 1.1 0 0 0 .6 1h.1l1.5.6a7.7 7.7 0 0 0 2.3.6h.5V20a3.8 3.8 0 0 1 2.8-4.1" fill="#a30e03"/>
  <path d="M28.7 23.5l2.6-.5a5.9 5.9 0 0 1 .2-1.4l.3-1.1a4.9 4.9 0 0 1 .4-1.1 4.8 4.8 0 0 1-1.6.7l-1.8.5a18.3 18.3 0 0 1-3.5.3l-2.4-.2h-.5a8.4 8.4 0 0 1-2.4-.6l-1.5-.6a5.9 5.9 0 0 1 .4.8l.3 1.1a9.9 9.9 0 0 1 .2 1.8l3.2.4a31.2 31.2 0 0 0 6.1-.1z" fill="none" stroke="#000" stroke-linecap="round" stroke-linejoin="round" stroke-width=".4"/>
  <path d="M18.5 19.5c-.4-.3-.7-.6-.7-1s.8-1.2 2.2-1.7a16.6 16.6 0 0 1 5.3-.7h.4a14.5 14.5 0 0 1 4.9.7c1.5.5 2.2 1.1 2.2 1.7a1.2 1.2 0 0 1-.6 1m-9.5 5.9a18.8 18.8 0 0 1-3.3-.5c-.1.6-.1 1.2-.2 1.8a5 5 0 0 0-.2 1.2 8.8 8.8 0 0 0-.2 1.6c.9-.9 1.7-.7 2.5.6.3-.6.7-.9 1.1-.9s1.2.3 1.8 1.2c.9-1.7 1.9-1.7 2.9 0 .6-1.1 1.2-1.5 1.8-1.4a2.4 2.4 0 0 1 1.2 1.1c.7-1.5 1.3-1.7 1.8-.4a10.3 10.3 0 0 0-.1-1.7 5.1 5.1 0 0 1-.2-1.3 14.8 14.8 0 0 1-.3-1.9l-2.6.5a30.1 30.1 0 0 1-6 .1z" fill="none" stroke="#000" stroke-linecap="round" stroke-linejoin="round" stroke-width=".4"/>
  <path d="M31.9 30.1a6.2 6.2 0 0 1-3.3 5.5 8.8 8.8 0 0 1-6.2.1 6.4 6.4 0 0 1-3.6-6.1m13.1.1v.4m-12.5-6.9v1.7m11.9-.1V23m-10 7.1a17.4 17.4 0 0 0 .4 3.8m2.5-3.5l.3 3.9m5.6-4.2a28 28 0 0 1-.4 3.8m-2.5-3.5l-.3 3.9" fill="none" stroke="#000" stroke-linecap="round" stroke-linejoin="round" stroke-width=".4"/>
  <path fill="red" d="M30.7 40h1.1v2.7H18.9V40h11.8z"/>
  <path fill="none" stroke="#000" stroke-linecap="round" stroke-linejoin="round" stroke-width=".4" d="M30.7 40h1.1v2.7H18.9V40h11.8z"/>
  <path fill="#a30e03" d="M59.9 38.6L56.5 41h9.7l-3-3.3-3.3.9z"/>
  <path d="M55.2 20.4s-2.9-1.3-3.9 1 1.8 5.6 2.1 6.2a1.1 1.1 0 0 1-.3 1.6c-1.7 1.2.8 2.8 1.6.7s-1-4.4-1.7-5.9-1.2-3.4 2.3-2.4m12.8-1.2s2.8-1.3 3.9 1-1.8 5.6-2.1 6.2a1.1 1.1 0 0 0 .3 1.6c1.7 1.2-.8 2.8-1.7.7s1-4.4 1.7-5.9 1.1-3.3-2.4-2.3" fill="none" stroke="#000" stroke-linecap="round" stroke-linejoin="round" stroke-width=".4"/>
  <path d="M59.8 35.7s.7 2.8-3.3 4.2c-.1.1 4.8.7 5.8-3.8a21.7 21.7 0 0 1-2.5-.4z" fill="red"/>
  <path d="M63.6 35.7s-.8 2.8 3.3 4.2a5.1 5.1 0 0 1-5.8-3.9 19 19 0 0 0 2.5-.3z" fill="red"/>
  <path d="M59.8 35.7s.7 2.8-3.3 4.2a5.1 5.1 0 0 0 5.8-3.8 18.7 18.7 0 0 1-2.5-.4z" fill="none" stroke="#000" stroke-linecap="round" stroke-linejoin="round" stroke-width=".4"/>
  <path d="M63.6 35.7s-.8 2.8 3.3 4.2c0 .1-4.8.6-5.9-3.9a20.6 20.6 0 0 0 2.6-.3z" fill="none" stroke="#000" stroke-linecap="round" stroke-linejoin="round" stroke-width=".4"/>
  <path d="M59.9 35.2a10.7 10.7 0 0 0 1.8 4.8c0-.1 1.4-1.2 1.7-4.8.4-.1-3.5 0-3.5 0z" fill="red"/>
  <path d="M59.7 32.4s-.4 4.5 1.9 7.5c0-.1 2.5-1.9 2.2-7.6z" fill="none" stroke="#000" stroke-linecap="round" stroke-linejoin="round" stroke-width=".4"/>
  <path d="M59.6 35.1s-1.2.4-1.3 2.3a2.3 2.3 0 0 0 2.6-1.8m3-.5s1.2.4 1.3 2.3a2.3 2.3 0 0 1-2.6-1.8" fill="red"/>
  <path d="M59.6 35.1s-1.2.4-1.3 2.3a2.3 2.3 0 0 0 2.6-1.8m3-.5s1.2.4 1.3 2.3a2.3 2.3 0 0 1-2.6-1.8" fill="none" stroke="#000" stroke-linecap="round" stroke-linejoin="round" stroke-width=".4"/>
  <path d="M62.7 35.5s.4 1.1-1 2.4a2.3 2.3 0 0 1-1.2-2.3 16.2 16.2 0 0 1 2.2-.1z" fill="red"/>
  <path d="M62.7 35.5s.4 1.1-1 2.4a2.5 2.5 0 0 1-1.2-2.3 16.2 16.2 0 0 1 2.2-.1z" fill="none" stroke="#000" stroke-linecap="round" stroke-linejoin="round" stroke-width=".4"/>
  <path d="M56.3 20l-1.5-.6a2 2 0 0 1 .4.8l.3 1.1c.1.5.2 1.2.3 1.8s-.1 1.2-.1 1.7a11 11 0 0 1-.2 1.8 5 5 0 0 0-.2 1.2 10 10 0 0 0-.2 1.6c.9-.9 1.7-.7 2.5.7.3-.7.7-1 1.1-1s.1-.5.2-.8a9.8 9.8 0 0 0 .1-3v-2.7l-.2-2a8.4 8.4 0 0 1-2.4-.6m8.8.5l-.2 2.9.2 5.5q.6.2 1.2 1.2c.7-1.6 1.3-1.8 1.9-.4a11 11 0 0 0-.2-1.8c-.1-.4-.1-.8-.2-1.3a14.8 14.8 0 0 1-.3-1.9v-1.8a5.9 5.9 0 0 1 .2-1.4l.3-1.1a4.9 4.9 0 0 1 .4-1.1 4.8 4.8 0 0 1-1.6.7l-1.7.5" fill="#d79f09"/>
  <path d="M69.1 18.3c0-.6-.7-1.2-2.2-1.7a17.5 17.5 0 0 0-4.9-.7 3.9 3.9 0 0 0-2.9 4.1 2 2 0 0 0 .1.7h2.4a20.2 20.2 0 0 0 3.6-.3l1.7-.5a4.8 4.8 0 0 0 1.6-.7 1.2 1.2 0 0 0 .6-1" fill="red"/>
  <path d="M66.5 30.1a2.4 2.4 0 0 0-1.3-1.2c-.6-.1-1.2.3-1.7 1.4-1.1-1.7-2-1.7-3 0q-.9-1.4-1.8-1.2c-.4 0-.8.3-1.1 1-.8-1.4-1.6-1.6-2.5-.7v.3c0 2.8.7 4.3 3.1 5.8h.3s2.2 1.2 5.9.2l.6-.3a6 6 0 0 0 3.2-5.6v-.3c-.7-1.2-1-1-1.7.6z" fill="#325723"/>
  <path d="M65 23.4l.2-2.9a20.2 20.2 0 0 1-3.6.3h-2.9l.2 2v2.7a9.8 9.8 0 0 1-.1 3c-.1.3-.1.5-.2.8s1.2.3 1.8 1.2c1-1.7 1.9-1.7 3 0 .5-1.1 1.1-1.5 1.7-1.4l-.1-5.7" fill="#fbc219"/>
  <path d="M62 15.9h-.4a16.6 16.6 0 0 0-5.3.7c-1.4.5-2.2 1.1-2.2 1.7a1.2 1.2 0 0 0 .7 1l1.5.6a8.4 8.4 0 0 0 2.4.6h.5a2 2 0 0 1-.1-.7 3.9 3.9 0 0 1 2.9-3.9" fill="#a30e03"/>
  <path d="M64.9 23.5l2.7-.5a6.1 6.1 0 0 1 .1-1.4l.3-1.1c.1-.4.3-.7.4-1.1a4.2 4.2 0 0 1-1.5.7l-1.8.5a18.3 18.3 0 0 1-3.5.3l-2.5-.2h-.5a8.6 8.6 0 0 1-2.3-.6l-1.5-.6.3.8a3.6 3.6 0 0 1 .4 1.1 9.9 9.9 0 0 1 .2 1.8l3.2.4a30.1 30.1 0 0 0 6-.1z" fill="none" stroke="#000" stroke-linecap="round" stroke-linejoin="round" stroke-width=".4"/>
  <path d="M54.8 19.5c-.5-.3-.7-.6-.7-1s.7-1.2 2.2-1.7a16.2 16.2 0 0 1 5.3-.7h.4a14.5 14.5 0 0 1 4.9.7c1.4.5 2.1 1.1 2.1 1.7a1.2 1.2 0 0 1-.6 1M59 25.4a18.8 18.8 0 0 1-3.3-.5 11 11 0 0 0-.2 1.8l-.3 1.2a8.6 8.6 0 0 0-.1 1.6c.8-.9 1.7-.7 2.5.6.3-.6.7-.9 1.1-.9s1.1.3 1.8 1.2c.9-1.7 1.9-1.7 2.9 0 .6-1.1 1.2-1.5 1.8-1.4a2.4 2.4 0 0 1 1.2 1.1c.6-1.5 1.3-1.7 1.8-.4a10.3 10.3 0 0 0-.1-1.7l-.3-1.3a13.7 13.7 0 0 1-.2-1.9l-2.7.5a29 29 0 0 1-5.9.1z" fill="none" stroke="#000" stroke-linecap="round" stroke-linejoin="round" stroke-width=".4"/>
  <path d="M68.2 30.1a6.2 6.2 0 0 1-3.3 5.5 9.1 9.1 0 0 1-6.3.1 6.5 6.5 0 0 1-3.5-6.1m13.1.1v.4m-12.5-6.9v1.7m11.9-.1a5.4 5.4 0 0 1 0-1.8m-10 7.1a17.4 17.4 0 0 0 .4 3.8m2.5-3.5l.3 3.9m5.6-4.2a20.1 20.1 0 0 1-.5 3.8m-2.5-3.5l-.2 3.9" fill="none" stroke="#000" stroke-linecap="round" stroke-linejoin="round" stroke-width=".4"/>
  <path fill="red" d="M67 40h1.1v2.7H55.2V40H67z"/>
  <path fill="none" stroke="#000" stroke-linecap="round" stroke-linejoin="round" stroke-width=".4" d="M67 40h1.1v2.7H55.2V40H67z"/>
  <path fill="#a30e03" d="M23.6 78.5L20.3 81h9.6l-3-3.4-3.3.9z"/>
  <path d="M18.9 61.1s-2.8-1.2-3.9 1 1.8 5.6 2.1 6.2a1.1 1.1 0 0 1-.3 1.6c-1.7 1.2.8 2.8 1.7.8s-1-4.5-1.7-6-1.3-3.3 2.3-2.4m12.7-1.2s2.9-1.2 3.9 1-1.8 5.6-2.1 6.2a1.1 1.1 0 0 0 .3 1.6c1.7 1.2-.8 2.8-1.6.8s1-4.5 1.7-6 1-3.3-2.5-2.3" fill="none" stroke="#000" stroke-linecap="round" stroke-linejoin="round" stroke-width=".4"/>
  <path d="M23.5 76.4s.8 2.8-3.3 4.2c0 .1 4.8.7 5.8-3.8a21.7 21.7 0 0 1-2.5-.4z" fill="red"/>
  <path d="M27.3 76.4s-.7 2.8 3.3 4.2a5.2 5.2 0 0 1-5.8-3.9 19 19 0 0 0 2.5-.3z" fill="red"/>
  <path d="M23.5 76.4s.8 2.8-3.3 4.2a5 5 0 0 0 5.8-3.8 18.7 18.7 0 0 1-2.5-.4z" fill="none" stroke="#000" stroke-linecap="round" stroke-linejoin="round" stroke-width=".4"/>
  <path d="M27.3 76.4s-.7 2.8 3.3 4.2c.1.1-4.8.6-5.8-3.9z" fill="none" stroke="#000" stroke-linecap="round" stroke-linejoin="round" stroke-width=".4"/>
  <path d="M23.6 75.9a10.7 10.7 0 0 0 1.8 4.8c0-.1 1.4-1.2 1.7-4.8.4-.1-3.5 0-3.5 0z" fill="red"/>
  <path d="M23.4 73.1s-.4 4.5 2 7.5c0-.1 2.4-1.9 2.1-7.6z" fill="none" stroke="#000" stroke-linecap="round" stroke-linejoin="round" stroke-width=".4"/>
  <path d="M23.3 75.9s-1.2.3-1.2 2.2a2.2 2.2 0 0 0 2.5-1.7m3.1-.5s1.1.3 1.2 2.2a2.3 2.3 0 0 1-2.6-1.7" fill="red"/>
  <path d="M23.3 75.9s-1.2.3-1.2 2.2a2.2 2.2 0 0 0 2.5-1.7m3.1-.5s1.1.3 1.2 2.2a2.3 2.3 0 0 1-2.6-1.7" fill="none" stroke="#000" stroke-linecap="round" stroke-linejoin="round" stroke-width=".4"/>
  <path d="M26.4 76.2s.4 1.1-1 2.4a2.3 2.3 0 0 1-1.1-2.3 14.1 14.1 0 0 1 2.1-.1z" fill="red"/>
  <path d="M26.4 76.2s.4 1.1-1 2.4a2.3 2.3 0 0 1-1.1-2.3 14.1 14.1 0 0 1 2.1-.1z" fill="none" stroke="#000" stroke-linecap="round" stroke-linejoin="round" stroke-width=".4"/>
  <path d="M20.1 60.8a5.3 5.3 0 0 1-1.5-.7l.3.8.3 1.1.3 1.9a10.3 10.3 0 0 1-.1 1.7 14.1 14.1 0 0 1-.2 1.8c-.1.3-.1.7-.2 1.1a9.7 9.7 0 0 0-.1 1.7q1.2-1.5 2.4.6c.4-.6.8-1 1.2-1a1.5 1.5 0 0 1 .1-.7 10.6 10.6 0 0 0 .2-3.1l-.2-1.7v-1l-.2-2-2.3-.5m8.8.4l-.2 2.9.2 5.5c.4.1.8.5 1.3 1.2.6-1.6 1.2-1.7 1.8-.4 0-.6-.1-1.2-.1-1.8l-.3-1.2a15 15 0 0 1-.2-2 5.4 5.4 0 0 1 0-1.8 6.1 6.1 0 0 1 .1-1.4l.3-1.1a3 3 0 0 1 .4-1 8.4 8.4 0 0 1-1.6.7l-1.7.4" fill="#d79f09"/>
  <path d="M32.8 59.1c0-.7-.7-1.3-2.2-1.8a17 17 0 0 0-4.9-.7 3.9 3.9 0 0 0-2.8 4.1v.7h2.4a19.4 19.4 0 0 0 3.6-.3l1.7-.4a8.4 8.4 0 0 0 1.6-.7c.4-.4.6-.7.6-1" fill="red"/>
  <path d="M30.2 70.8q-.6-1-1.2-1.2c-.6-.1-1.2.3-1.8 1.4-1-1.6-2-1.6-2.9 0q-1.1-1.4-1.8-1.2c-.4 0-.8.4-1.2 1q-1.2-2.1-2.4-.6v.3a5.9 5.9 0 0 0 3.1 5.7l.4.2s2.1 1.2 5.8.1l.6-.3a6 6 0 0 0 3.2-5.5c0-.2-.1-.3-.1-.4s-1-1.1-1.7.5z" fill="#325723"/>
  <path d="M28.7 64.1l.2-2.9a19.4 19.4 0 0 1-3.6.3h-2.9l.2 2v1l.2 1.7a10.6 10.6 0 0 1-.2 3.1 1.5 1.5 0 0 0-.1.7q.8-.1 1.8 1.2c.9-1.6 1.9-1.6 2.9 0 .6-1.1 1.2-1.5 1.7-1.4l-.2-5.5" fill="#fbc219"/>
  <path d="M25.7 56.6h-.4a16 16 0 0 0-5.2.7c-1.5.5-2.2 1.1-2.2 1.8a1.4 1.4 0 0 0 .6 1h.1a5.3 5.3 0 0 0 1.5.7l2.3.5h.5v-.7a3.9 3.9 0 0 1 2.8-4.1" fill="#a30e03"/>
  <path d="M28.7 64.2l2.6-.5a5.9 5.9 0 0 1 .2-1.4l.3-1.1a4.9 4.9 0 0 1 .4-1.1 4.8 4.8 0 0 1-1.6.7l-1.8.5a18.3 18.3 0 0 1-3.5.3h-2.9A8.4 8.4 0 0 1 20 61l-1.5-.6a5.9 5.9 0 0 1 .4.8l.3 1.1a11 11 0 0 1 .2 1.8 17.5 17.5 0 0 0 3.2.4 31.2 31.2 0 0 0 6.1-.3z" fill="none" stroke="#000" stroke-linecap="round" stroke-linejoin="round" stroke-width=".4"/>
  <path d="M18.5 60.2a1.2 1.2 0 0 1-.7-1c0-.6.8-1.2 2.2-1.7a16.6 16.6 0 0 1 5.3-.7h.4a17.5 17.5 0 0 1 4.9.7c1.5.5 2.2 1.1 2.2 1.7a1.2 1.2 0 0 1-.6 1m-9.5 5.9l-3.3-.4c-.1.5-.1 1.1-.2 1.7a5 5 0 0 0-.2 1.2 10 10 0 0 0-.2 1.6c.9-.9 1.7-.7 2.5.7.3-.7.7-1 1.1-1s1.2.3 1.8 1.2c.9-1.7 1.9-1.7 2.9 0 .6-1.1 1.2-1.5 1.8-1.4s.8.5 1.2 1.2c.7-1.6 1.3-1.8 1.8-.4a10.9 10.9 0 0 0-.1-1.8 5.1 5.1 0 0 1-.2-1.3 14.8 14.8 0 0 1-.3-1.9l-2.6.5a24.1 24.1 0 0 1-6 .1z" fill="none" stroke="#000" stroke-linecap="round" stroke-linejoin="round" stroke-width=".4"/>
  <path d="M31.9 70.8a6.2 6.2 0 0 1-3.3 5.5 8.2 8.2 0 0 1-6.2.1 6.3 6.3 0 0 1-3.6-6.1m13.1.2v.3m-12.5-6.9v1.8m11.9-.2v-1.8m-10 7.2a16.2 16.2 0 0 0 .4 3.7m2.5-3.5l.3 3.9m5.6-4.1a25.6 25.6 0 0 1-.4 3.7m-2.5-3.5l-.3 3.9" fill="none" stroke="#000" stroke-linecap="round" stroke-linejoin="round" stroke-width=".4"/>
  <path fill="red" d="M30.7 80.7h1.1v2.7H18.9v-2.7h11.8z"/>
  <path fill="none" stroke="#000" stroke-linecap="round" stroke-linejoin="round" stroke-width=".4" d="M30.7 80.7h1.1v2.7H18.9v-2.7h11.8z"/>
  <path fill="#a30e03" d="M59.9 78.5L56.5 81h9.7l-3-3.4-3.3.9z"/>
  <path d="M55.2 61.1s-2.9-1.2-3.9 1 1.8 5.6 2.1 6.2a1.1 1.1 0 0 1-.3 1.6c-1.7 1.2.8 2.8 1.6.8s-1-4.5-1.7-6-1.2-3.3 2.3-2.4m12.8-1.2s2.8-1.2 3.9 1-1.8 5.6-2.1 6.2a1.1 1.1 0 0 0 .3 1.6c1.7 1.2-.8 2.8-1.7.8s1-4.5 1.7-6 1.1-3.3-2.4-2.3" fill="none" stroke="#000" stroke-linecap="round" stroke-linejoin="round" stroke-width=".4"/>
  <path d="M59.8 76.4s.7 2.8-3.3 4.2c-.1.1 4.8.7 5.8-3.8a21.7 21.7 0 0 1-2.5-.4z" fill="red"/>
  <path d="M63.6 76.4s-.8 2.8 3.3 4.2a5.1 5.1 0 0 1-5.8-3.9 19 19 0 0 0 2.5-.3z" fill="red"/>
  <path d="M59.8 76.4s.7 2.8-3.3 4.2a5.1 5.1 0 0 0 5.8-3.8 18.7 18.7 0 0 1-2.5-.4z" fill="none" stroke="#000" stroke-linecap="round" stroke-linejoin="round" stroke-width=".4"/>
  <path d="M63.6 76.4s-.8 2.8 3.3 4.2c0 .1-4.8.6-5.9-3.9a20.6 20.6 0 0 0 2.6-.3z" fill="none" stroke="#000" stroke-linecap="round" stroke-linejoin="round" stroke-width=".4"/>
  <path d="M59.9 75.9a10.7 10.7 0 0 0 1.8 4.8c0-.1 1.4-1.2 1.7-4.8.4-.1-3.5 0-3.5 0z" fill="red"/>
  <path d="M59.7 73.1s-.4 4.5 1.9 7.5c0-.1 2.5-1.9 2.2-7.6z" fill="none" stroke="#000" stroke-linecap="round" stroke-linejoin="round" stroke-width=".4"/>
  <path d="M59.6 75.9s-1.2.3-1.3 2.2a2.3 2.3 0 0 0 2.6-1.7m3-.5s1.2.3 1.3 2.2a2.3 2.3 0 0 1-2.6-1.7" fill="red"/>
  <path d="M59.6 75.9s-1.2.3-1.3 2.2a2.3 2.3 0 0 0 2.6-1.7m3-.5s1.2.3 1.3 2.2a2.3 2.3 0 0 1-2.6-1.7" fill="none" stroke="#000" stroke-linecap="round" stroke-linejoin="round" stroke-width=".4"/>
  <path d="M62.7 76.2s.4 1.1-1 2.4a2.3 2.3 0 0 1-1.2-2.3z" fill="red"/>
  <path d="M62.7 76.2s.4 1.1-1 2.4a2.5 2.5 0 0 1-1.2-2.3z" fill="none" stroke="#000" stroke-linecap="round" stroke-linejoin="round" stroke-width=".4"/>
  <path d="M56.3 60.8l-1.5-.7a2 2 0 0 1 .4.8l.3 1.1.3 1.9c0 .5-.1 1.1-.1 1.7a14.1 14.1 0 0 1-.2 1.8 3.6 3.6 0 0 0-.2 1.1 9.9 9.9 0 0 0-.2 1.7c.9-1 1.7-.8 2.5.6.3-.6.7-1 1.1-1a6.4 6.4 0 0 1 .2-.7A10.6 10.6 0 0 0 59 66v-2.7l-.2-2-2.4-.5m8.8.4l-.2 2.9.2 5.5q.6.2 1.2 1.2c.7-1.6 1.3-1.7 1.9-.4a11 11 0 0 0-.2-1.8c-.1-.4-.1-.8-.2-1.2a16.2 16.2 0 0 1-.3-2v-1.8a5.9 5.9 0 0 1 .2-1.4l.3-1.1a3 3 0 0 1 .4-1 8.4 8.4 0 0 1-1.6.7l-1.7.4" fill="#d79f09"/>
  <path d="M69.1 59.1c0-.7-.7-1.3-2.2-1.8a17.5 17.5 0 0 0-4.9-.7c-2 .8-3 2.1-2.9 4.1a2 2 0 0 0 .1.7h2.4a20.2 20.2 0 0 0 3.6-.3l1.7-.4a8.4 8.4 0 0 0 1.6-.7c.4-.4.6-.7.6-1" fill="red"/>
  <path d="M66.5 70.8a2.4 2.4 0 0 0-1.3-1.2c-.6-.1-1.2.3-1.7 1.4-1.1-1.6-2-1.6-3 0q-.9-1.4-1.8-1.2c-.4 0-.8.4-1.1 1-.8-1.4-1.6-1.6-2.5-.6v.3c0 2.7.7 4.2 3.1 5.7l.3.2s2.2 1.2 5.9.1l.6-.3a5.9 5.9 0 0 0 3.2-5.5v-.4c-.7-1.3-1-1.1-1.7.5z" fill="#325723"/>
  <path d="M65 64.1l.2-2.9a20.2 20.2 0 0 1-3.6.3h-2.9l.2 2V66a10.6 10.6 0 0 1-.1 3.1 6.4 6.4 0 0 0-.2.7q.9-.1 1.8 1.2c1-1.6 1.9-1.6 3 0 .5-1.1 1.1-1.5 1.7-1.4l-.1-5.5" fill="#fbc219"/>
  <path d="M62 56.6h-.4a16.6 16.6 0 0 0-5.3.7c-1.4.5-2.2 1.1-2.2 1.8a1.5 1.5 0 0 0 .7 1l1.5.7 2.4.5h.5a2 2 0 0 1-.1-.7c-.1-2 .9-3.3 2.9-4.1" fill="#a30e03"/>
  <path d="M64.9 64.2l2.7-.5a6.1 6.1 0 0 1 .1-1.4l.3-1.1c.1-.4.3-.7.4-1.1a4.2 4.2 0 0 1-1.5.7l-1.8.5a18.3 18.3 0 0 1-3.5.3h-3a8.6 8.6 0 0 1-2.3-.6l-1.5-.6.3.8a3.6 3.6 0 0 1 .4 1.1 11 11 0 0 1 .2 1.8 17.5 17.5 0 0 0 3.2.4 30.1 30.1 0 0 0 6-.3z" fill="none" stroke="#000" stroke-linecap="round" stroke-linejoin="round" stroke-width=".4"/>
  <path d="M54.8 60.2a1 1 0 0 1-.7-1c0-.6.7-1.2 2.2-1.7a16.2 16.2 0 0 1 5.3-.7h.4a17.5 17.5 0 0 1 4.9.7c1.4.5 2.1 1.1 2.1 1.7a1.2 1.2 0 0 1-.6 1M59 66.1l-3.3-.4a8.8 8.8 0 0 0-.2 1.7l-.3 1.2a9.2 9.2 0 0 0-.1 1.6c.8-.9 1.7-.7 2.5.7.3-.7.7-1 1.1-1s1.1.3 1.8 1.2c.9-1.7 1.9-1.7 2.9 0 .6-1.1 1.2-1.5 1.8-1.4s.8.5 1.2 1.2c.6-1.6 1.3-1.8 1.8-.4a10.9 10.9 0 0 0-.1-1.8l-.3-1.3a13.7 13.7 0 0 1-.2-1.9l-2.7.5a23.2 23.2 0 0 1-5.9.1z" fill="none" stroke="#000" stroke-linecap="round" stroke-linejoin="round" stroke-width=".4"/>
  <path d="M68.2 70.8a6.2 6.2 0 0 1-3.3 5.5 8.5 8.5 0 0 1-6.3.1 6.4 6.4 0 0 1-3.5-6.1m13.1.2v.3m-12.5-6.9v1.8m11.9-.2a5.4 5.4 0 0 1 0-1.8m-10 7.2a16.2 16.2 0 0 0 .4 3.7m2.5-3.5l.3 3.9m5.6-4.1a18.5 18.5 0 0 1-.5 3.7m-2.5-3.5l-.2 3.9" fill="none" stroke="#000" stroke-linecap="round" stroke-linejoin="round" stroke-width=".4"/>
  <path fill="red" d="M67 80.7h1.1v2.7H55.2v-2.7H67z"/>
  <path fill="none" stroke="#000" stroke-linecap="round" stroke-linejoin="round" stroke-width=".4" d="M67 80.7h1.1v2.7H55.2v-2.7H67z"/>
</svg>
