<svg xmlns="http://www.w3.org/2000/svg" viewBox="0 0 87 140">
  <rect width="87" height="140" rx="6" ry="6" fill="#fff"/>
  <path d="M61.7 37s-.7 5.5 3.2 6.5c0 .1-2.5.8-3.8-2.2a10.4 10.4 0 0 1 0-3.7zm-1.3-11.8a4.2 4.2 0 0 1 4.1-.6c2.1 1 2 3.4.8 5.7a15.4 15.4 0 0 1-2.4 3.5l-.2-2s2.8-2.3 2.2-5.1-4.9 0-4.9 0zM25.1 36.8s1 5.7-2.9 6.7c0 .1 2.6.8 3.9-2.2a15.5 15.5 0 0 0 0-3.7zm1.7-11.6s-2.1-1.6-4.2-.6-2.4 3.5-1.2 5.9a14.4 14.4 0 0 0 2.6 3.6v-1.9s-2.3-2.7-1.7-5.5 4.9 0 4.9 0z" fill="#ccc"/>
  <path d="M41.3 50.8a11.9 11.9 0 0 1-4.6 1.5l-1.5.2h7.9zm2.2 1.7h4.9c-.2-.1 0-.2-.2-.3s-1.1-.4-1.5-.8-1-.6-1.4-1l-1.8 2.1" fill="#980805"/>
  <path fill="red" d="M32.7 52.4h21.5v4.38H32.7z"/>
  <path d="M27.9 20.7a5.5 5.5 0 0 1 .2 1.8c0 1.6-1.9 3-3.4 5.8s-3.5 8.9 4.6 12.3 22.4 1.5 22.9 1.4 9.6-1.7 10.5-7.6-1.6-7.8-2.8-10-1.4-2.5-.9-3.5" fill="#fbc219"/>
  <path d="M32.3 23.9s-3 13-2.4 17.1c.1.1-5.9-2.6-6.4-6.3a11 11 0 0 1 2-7.9c1.1-1.3 2.7-3.3 2.7-3.9v-1.5s2.4 2.1 4.1 2.5zm22.1 0s2.9 12.6 2.3 16.7c0 .1 5.1-2 5.9-6a11.9 11.9 0 0 0-1.2-7.8c-.8-1.6-2.2-3.3-2.2-3.9a3.7 3.7 0 0 0-.6-1.5 14.3 14.3 0 0 1-4.2 2.5z" fill="#d9af38"/>
  <ellipse cx="43.5" cy="20.3" rx="15.6" ry="5" fill="red"/>
  <path d="M28.1 19.4l-.2 1c.2 1.2 1.5 2.3 4.1 3.2h.5l3.9 1a11.1 11.1 0 0 1 4.4-8.5 9.4 9.4 0 0 0 1-1 31.2 31.2 0 0 0-9.3 1.5c-2.5.9-3.9 1.8-4.4 2.8z" fill="#a30e03"/>
  <ellipse cx="43.5" cy="20.3" rx="15.6" ry="5" fill="none" stroke="#000" stroke-miterlimit="10" stroke-width=".4"/>
  <path d="M60.6 31.1c-1.1.4-1.4 1.2-1.6 2.4a2.5 2.5 0 0 0-1.8-1.9 2.5 2.5 0 0 0-3 2.1 2.6 2.6 0 0 0-2.1-2c-2-.3-2.8.6-3.1 2.1-.3-1.2-.9-2.3-2.4-2.2s-2.4.3-3 1.6l-.2.5c-1-1.3-.9-2.2-2.8-2.1a3.1 3.1 0 0 0-2.9 2.1c-.2-1.2-.9-2.6-2.9-2.3s-1.6 1.4-1.6 3h-.1c0-1.7-.3-3.6-2.7-3.3s-1.6 1.3-1.8 2.6l.2.2h-.2c-.1-1.6-.5-3.1-2-3.3a2.5 2.5 0 0 0-3 2.3s-.7 5.5 6.3 8 17 1.7 17 1.7 8.6-.5 11.6-2.6 3.9-3.4 4.2-5.6.1-4.1-2.1-3.3z" fill="#325723"/>
  <path d="M27.9 20.7a5.5 5.5 0 0 1 .2 1.8c0 1.6-1.9 3-3.4 5.8s-3.5 8.9 4.6 12.3 22.4 1.5 22.9 1.4 9.6-1.7 10.5-7.6-1.6-7.8-2.8-10-1.4-2.5-.9-3.5" fill="none" stroke="#000" stroke-linecap="round" stroke-linejoin="round" stroke-width=".4"/>
  <path d="M62.6 34.8c.3-1 .5-4.7-2-3.7s-1.4 1.2-1.6 2.4a11.6 11.6 0 0 1 0 4m-4.8-3.8c.6-1.4 1.3-2.2 3-2.1a2.5 2.5 0 0 1 1.8 1.9m-4.8.3a2.5 2.5 0 0 0-2.1-2.1c-1.9-.4-2.8.7-3.1 2.2a21.2 21.2 0 0 1-.2 4.7m-5.5-4.5a2.7 2.7 0 0 1 3.1-2.6 2.5 2.5 0 0 1 2.6 2.2m-11.2.3a2.6 2.6 0 0 1 2.6-2.5c1.9-.2 2.6 1.3 2.9 2.6l.3 5.1" fill="none" stroke="#000" stroke-linecap="round" stroke-linejoin="round" stroke-width=".4"/>
  <path d="M33.2 34.3c0-1.6.2-2.7 1.6-3s2.8 1.4 3 2.6a36.1 36.1 0 0 0 .7 5.7m-9.9-6c.2-1.3.6-2.5 1.8-2.6s2.7 1.6 2.7 3.3a16.3 16.3 0 0 0 .6 4.9m-5.1-5.4c-.1-1.6-.5-3.1-2-3.3s-3.1 2.6-3.1 2.6m5.1.5a18.4 18.4 0 0 0 .3 4.8m25.3-4.7a14.4 14.4 0 0 1-.4 4.5" fill="none" stroke="#000" stroke-linecap="round" stroke-linejoin="round" stroke-width=".4"/>
  <path d="M27.3 24.5s-3.3-2.7-5.9-1.1-2.7 5-.7 8.1 4.9 8.8 1.9 9.2" fill="none" stroke="#000" stroke-linecap="round" stroke-linejoin="round" stroke-width=".4"/>
  <path d="M25.9 38.6s1.3 5.8-4.2 4.8c-3.2-.5-3.5-3.2-2.5-4.5s2.7-1.5 3.3.5-.4 2.4-1.5 1.9-.9-1-.6-1.4m5.5-13.8s-2.3-1.7-3.6.3 1.1 5.2 1.1 5.2m36.5-7.2s3.1-2.6 5.7-1 2.7 5 .7 8.1-4.9 8.8-1.9 9.2" fill="none" stroke="#000" stroke-linecap="round" stroke-linejoin="round" stroke-width=".4"/>
  <path d="M61 38s-1.2 6.4 4.3 5.4c3.2-.5 3.5-3.2 2.5-4.5s-2.7-1.5-3.3.5.4 2.4 1.5 1.9.9-1 .6-1.4m-5.5-13.8s2.3-1.7 3.6.3S63 32 63 32M32.7 52.4h21.5v4.38H32.7z" fill="none" stroke="#000" stroke-linecap="round" stroke-linejoin="round" stroke-width=".4"/>
  <path d="M43.5 38.9a3.4 3.4 0 0 0-2.3 3.2 3.9 3.9 0 0 0-4.5-.1s2.1.3 3.6 3.1 1.4 2.8 3.4 3 2.7-2 3.6-3.1a9 9 0 0 1 3.5-3.2c-.1 0-2.6-1.6-4.6.2a4.2 4.2 0 0 0-2.7-3.1z" fill="red"/>
  <path d="M41.5 47.5s-1.8 2.6 1.7 5c0 0 3.4-.6 2.5-5" fill="red"/>
  <path d="M41.3 47.1s-4.9 1.1-6.2 5.3a8.5 8.5 0 0 0 6.9-2.1m3.4-3.4s5.5 1.3 6.8 5.5a8.5 8.5 0 0 1-6.9-2.1" fill="red"/>
  <path d="M43.5 38.9a3.4 3.4 0 0 0-2.3 3.2 3.9 3.9 0 0 0-4.5-.1s2.1.3 3.6 3.1 1.4 2.8 3.4 3 2.7-2 3.6-3.1a9 9 0 0 1 3.5-3.2c-.1 0-2.6-1.6-4.6.2a4.2 4.2 0 0 0-2.7-3.1zm-2.2 8.2s-4.9 1.1-6.2 5.3a8.5 8.5 0 0 0 6.9-2.1m4-3.2s4.9 1.1 6.2 5.3a8.5 8.5 0 0 1-6.9-2.1" fill="none" stroke="#000" stroke-linecap="round" stroke-linejoin="round" stroke-width=".4"/>
  <path d="M41.5 48.5s-1.8 2.1 1.7 4a3 3 0 0 0 2.5-4" fill="red"/>
  <path d="M41.5 47.5s-1.8 2.6 1.7 5c0 0 3.4-.6 2.5-5" fill="none" stroke="#000" stroke-linecap="round" stroke-linejoin="round" stroke-width=".4"/>
  <path d="M61.7 105s-.7 5.5 3.2 6.5c0 .1-2.5.8-3.8-2.2a10.4 10.4 0 0 1 0-3.7zm-1.3-11.8a4.2 4.2 0 0 1 4.1-.6c2.1 1 2 3.4.8 5.7a15.4 15.4 0 0 1-2.4 3.5l-.2-2s2.8-2.3 2.2-5.1-4.9 0-4.9 0zm-35.3 11.6s1 5.7-2.9 6.7c0 .1 2.6.8 3.9-2.2a15.5 15.5 0 0 0 0-3.7zm1.7-11.6s-2.1-1.6-4.2-.6-2.4 3.5-1.2 5.9a14.4 14.4 0 0 0 2.6 3.6v-1.9s-2.3-2.7-1.7-5.5 4.9 0 4.9 0z" fill="#ccc"/>
  <path d="M41.3 118.8a11.9 11.9 0 0 1-4.6 1.5l-1.5.2h7.9zm2.2 1.7h4.9c-.2-.1 0-.2-.2-.3s-1.1-.4-1.5-.8-1-.6-1.4-1l-1.8 2.1" fill="#980805"/>
  <path fill="red" d="M32.7 120.4h21.5v4.38H32.7z"/>
  <path d="M27.9 88.7a5.5 5.5 0 0 1 .2 1.8c0 1.6-1.9 3-3.4 5.8s-3.5 8.9 4.6 12.3 22.4 1.5 22.9 1.4 9.6-1.7 10.5-7.6-1.6-7.8-2.8-10-1.4-2.5-.9-3.5" fill="#fbc219"/>
  <path d="M32.3 91.9s-3 13-2.4 17.1c.1.1-5.9-2.6-6.4-6.3a11 11 0 0 1 2-7.9c1.1-1.3 2.7-3.3 2.7-3.9v-1.5s2.4 2.1 4.1 2.5zm22.1 0s2.9 12.6 2.3 16.7c0 .1 5.1-2 5.9-6a11.9 11.9 0 0 0-1.2-7.8c-.8-1.6-2.2-3.3-2.2-3.9a3.7 3.7 0 0 0-.6-1.5 14.3 14.3 0 0 1-4.2 2.5z" fill="#d9af38"/>
  <ellipse cx="43.5" cy="88.3" rx="15.6" ry="5" fill="red"/>
  <path d="M28.1 87.4l-.2 1c.2 1.2 1.5 2.3 4.1 3.2h.5l3.9 1a11.1 11.1 0 0 1 4.4-8.5l1-1a31.2 31.2 0 0 0-9.3 1.5c-2.5.9-3.9 1.8-4.4 2.8z" fill="#a30e03"/>
  <ellipse cx="43.5" cy="88.3" rx="15.6" ry="5" fill="none" stroke="#000" stroke-miterlimit="10" stroke-width=".4"/>
  <path d="M60.6 99.1c-1.1.4-1.4 1.2-1.6 2.4a2.5 2.5 0 0 0-1.8-1.9 2.5 2.5 0 0 0-3 2.1 2.6 2.6 0 0 0-2.1-2c-2-.3-2.8.6-3.1 2.1-.3-1.2-.9-2.3-2.4-2.2s-2.4.3-3 1.6l-.2.5c-1-1.3-.9-2.2-2.8-2.1a3.1 3.1 0 0 0-2.9 2.1c-.2-1.2-.9-2.6-2.9-2.3s-1.6 1.4-1.6 3h-.1c0-1.7-.3-3.6-2.7-3.3s-1.6 1.3-1.8 2.6l.2.2h-.2c-.1-1.6-.5-3.1-2-3.3a2.5 2.5 0 0 0-3 2.3s-.7 5.5 6.3 8 17 1.7 17 1.7 8.6-.5 11.6-2.6 3.9-3.4 4.2-5.6.1-4.1-2.1-3.3z" fill="#325723"/>
  <path d="M27.9 88.7a5.5 5.5 0 0 1 .2 1.8c0 1.6-1.9 3-3.4 5.8s-3.5 8.9 4.6 12.3 22.4 1.5 22.9 1.4 9.6-1.7 10.5-7.6-1.6-7.8-2.8-10-1.4-2.5-.9-3.5" fill="none" stroke="#000" stroke-linecap="round" stroke-linejoin="round" stroke-width=".4"/>
  <path d="M62.6 102.8c.3-1 .5-4.7-2-3.7s-1.4 1.2-1.6 2.4a11.6 11.6 0 0 1 0 4m-4.8-3.8c.6-1.4 1.3-2.2 3-2.1a2.5 2.5 0 0 1 1.8 1.9m-4.8.3a2.5 2.5 0 0 0-2.1-2.1c-1.9-.4-2.8.7-3.1 2.2a21.2 21.2 0 0 1-.2 4.7m-5.5-4.5a2.7 2.7 0 0 1 3.1-2.6 2.5 2.5 0 0 1 2.6 2.2m-11.2.3a2.6 2.6 0 0 1 2.6-2.5c1.9-.2 2.6 1.3 2.9 2.6l.3 5.1" fill="none" stroke="#000" stroke-linecap="round" stroke-linejoin="round" stroke-width=".4"/>
  <path d="M33.2 102.3c0-1.6.2-2.7 1.6-3s2.8 1.4 3 2.6a36.1 36.1 0 0 0 .7 5.7m-9.9-6c.2-1.3.6-2.5 1.8-2.6s2.7 1.6 2.7 3.3a16.3 16.3 0 0 0 .6 4.9m-5.1-5.4c-.1-1.6-.5-3.1-2-3.3s-3.1 2.6-3.1 2.6m5.1.5a18.4 18.4 0 0 0 .3 4.8m25.3-4.7a14.4 14.4 0 0 1-.4 4.5" fill="none" stroke="#000" stroke-linecap="round" stroke-linejoin="round" stroke-width=".4"/>
  <path d="M27.3 92.5s-3.3-2.7-5.9-1.1-2.7 5-.7 8.1 4.9 8.8 1.9 9.2" fill="none" stroke="#000" stroke-linecap="round" stroke-linejoin="round" stroke-width=".4"/>
  <path d="M25.9 106.6s1.3 5.8-4.2 4.8c-3.2-.5-3.5-3.2-2.5-4.5s2.7-1.5 3.3.5-.4 2.4-1.5 1.9-.9-1-.6-1.4m5.5-13.8s-2.3-1.7-3.6.3 1.1 5.2 1.1 5.2m36.5-7.2s3.1-2.6 5.7-1 2.7 5 .7 8.1-4.9 8.8-1.9 9.2" fill="none" stroke="#000" stroke-linecap="round" stroke-linejoin="round" stroke-width=".4"/>
  <path d="M61 106s-1.2 6.4 4.3 5.4c3.2-.5 3.5-3.2 2.5-4.5s-2.7-1.5-3.3.5.4 2.4 1.5 1.9.9-1 .6-1.4m-5.5-13.8s2.3-1.7 3.6.3S63 100 63 100m-30.3 20.4h21.5v4.38H32.7z" fill="none" stroke="#000" stroke-linecap="round" stroke-linejoin="round" stroke-width=".4"/>
  <path d="M43.5 106.9a3.4 3.4 0 0 0-2.3 3.2 3.9 3.9 0 0 0-4.5-.1s2.1.3 3.6 3.1 1.4 2.8 3.4 3 2.7-2 3.6-3.1a9 9 0 0 1 3.5-3.2c-.1 0-2.6-1.6-4.6.2a4.2 4.2 0 0 0-2.7-3.1z" fill="red"/>
  <path d="M41.5 115.5s-1.8 2.6 1.7 5c0 0 3.4-.6 2.5-5" fill="red"/>
  <path d="M41.3 115.1s-4.9 1.1-6.2 5.3a8.5 8.5 0 0 0 6.9-2.1m3.4-3.4s5.5 1.3 6.8 5.5a8.5 8.5 0 0 1-6.9-2.1" fill="red"/>
  <path d="M43.5 106.9a3.4 3.4 0 0 0-2.3 3.2 3.9 3.9 0 0 0-4.5-.1s2.1.3 3.6 3.1 1.4 2.8 3.4 3 2.7-2 3.6-3.1a9 9 0 0 1 3.5-3.2c-.1 0-2.6-1.6-4.6.2a4.2 4.2 0 0 0-2.7-3.1zm-2.2 8.2s-4.9 1.1-6.2 5.3a8.5 8.5 0 0 0 6.9-2.1m4-3.2s4.9 1.1 6.2 5.3a8.5 8.5 0 0 1-6.9-2.1" fill="none" stroke="#000" stroke-linecap="round" stroke-linejoin="round" stroke-width=".4"/>
  <path d="M41.5 116.5s-1.8 2.1 1.7 4a3 3 0 0 0 2.5-4" fill="red"/>
  <path d="M41.5 115.5s-1.8 2.6 1.7 5c0 0 3.4-.6 2.5-5" fill="none" stroke="#000" stroke-linecap="round" stroke-linejoin="round" stroke-width=".4"/>
</svg>
