<svg xmlns="http://www.w3.org/2000/svg" viewBox="0 0 87 140">
  <rect width="87" height="140" rx="6" ry="6" fill="#fff"/>
  <path fill="#a30e03" d="M25 43.2L20.9 46h11.8L29 42l-4 1.2z"/>
  <path d="M19.2 21.3s-3.4-1.5-4.7 1.3 2.2 6.8 2.5 7.5a1.3 1.3 0 0 1-.3 1.9c-2.1 1.5.9 3.5 2 1s-1.3-5.5-2.1-7.3-1.5-4.1 2.8-2.9m15.5-1.5s3.5-1.5 4.8 1.3-2.2 6.8-2.5 7.5a1.3 1.3 0 0 0 .3 1.9c2.1 1.5-.9 3.5-2 1s1.2-5.5 2.1-7.3 1.3-4-3-2.8" fill="none" stroke="#000" stroke-linecap="round" stroke-linejoin="round" stroke-width=".4"/>
  <path d="M24.8 40s.9 3.4-4 5.1c-.1.1 5.8.9 7.1-4.6 0 .1-3.1-.5-3.1-.5z" fill="red"/>
  <path d="M29.5 40s-.9 3.4 4 5.1c.1.1-5.8.7-7-4.8 0 .1 3-.3 3-.3z" fill="red"/>
  <path d="M24.8 40s.9 3.4-4 5.1c-.1.1 5.8.9 7.1-4.6a28.7 28.7 0 0 1-3.1-.5z" fill="none" stroke="#000" stroke-linecap="round" stroke-linejoin="round" stroke-width=".4"/>
  <path d="M29.5 40s-.9 3.4 4 5.1c.1.1-5.9.8-7.1-4.7 0 .1 3.1-.4 3.1-.4z" fill="none" stroke="#000" stroke-linecap="round" stroke-linejoin="round" stroke-width=".4"/>
  <path d="M25 39.3a12.8 12.8 0 0 0 2.1 5.9c0-.1 1.8-1.4 2.1-5.8.6-.1-4.2-.1-4.2-.1z" fill="red"/>
  <path d="M24.7 36s-.5 5.4 2.4 9.1c0-.1 2.9-2.3 2.6-9.2 0-.1-5 .1-5 .1z" fill="none" stroke="#000" stroke-linecap="round" stroke-linejoin="round" stroke-width=".4"/>
  <path d="M24.6 39.3s-1.5.4-1.5 2.7c0 0 2.1.5 3.1-2.1m3.7-.6s1.4.4 1.5 2.7a2.7 2.7 0 0 1-3.1-2.1" fill="red"/>
  <path d="M24.6 39.3s-1.5.4-1.5 2.7c0 0 2.1.5 3.1-2.1m3.7-.6s1.4.4 1.5 2.7a2.7 2.7 0 0 1-3.1-2.1" fill="none" stroke="#000" stroke-linecap="round" stroke-linejoin="round" stroke-width=".4"/>
  <path d="M28.4 39.7s.5 1.3-1.3 3a3.2 3.2 0 0 1-1.4-2.9z" fill="red"/>
  <path d="M28.4 39.7s.5 1.3-1.3 3a3.4 3.4 0 0 1-1.4-2.9z" fill="none" stroke="#000" stroke-linecap="round" stroke-linejoin="round" stroke-width=".4"/>
  <path d="M20.6 20.9a7.8 7.8 0 0 1-1.8-.8l.4.9a7.4 7.4 0 0 1 .4 1.4 14.3 14.3 0 0 1 .3 2.3v2l-.3 2.2-.3 1.4a14.8 14.8 0 0 0-.1 2.1c1-1.2 2-1 3 .7a2.2 2.2 0 0 1 1.4-1.2 2.8 2.8 0 0 1 .1-.9 11.4 11.4 0 0 0 .2-3.7v-2.2c0-.3-.1-.7-.1-1.1l-.2-2.4-2.9-.7m10.7.6l-.2 3.4.3 6.8c.4.1.9.6 1.4 1.4.9-1.9 1.6-2.1 2.3-.5a14.9 14.9 0 0 0-.2-2.1l-.3-1.6-.3-2.4v-2.2a9.9 9.9 0 0 1 .2-1.7 6.5 6.5 0 0 1 .4-1.3 2.9 2.9 0 0 1 .5-1.3 9.6 9.6 0 0 1-2 .9l-2.1.6" fill="#d79f09"/>
  <path d="M36.2 18.8q0-1.2-2.7-2.1a17 17 0 0 0-5.9-.9c-2.5.9-3.7 2.6-3.6 5 0 .3.1.5.1.8l3 .2a28.1 28.1 0 0 0 4.3-.3l2.1-.6a9.6 9.6 0 0 0 2-.9 1.5 1.5 0 0 0 .7-1.2" fill="red"/>
  <path d="M33 33.1c-.5-.8-1-1.3-1.5-1.4s-1.5.4-2.2 1.7c-1.2-2-2.4-2-3.5 0-.8-1.1-1.6-1.6-2.2-1.5a2.2 2.2 0 0 0-1.4 1.2c-1-1.7-2-1.9-3-.7a.4.4 0 0 0-.1.3c0 3.4.9 5.2 3.8 7l.4.2s2.7 1.5 7.2.2l.7-.3a7.4 7.4 0 0 0 4-6.8 4.3 4.3 0 0 0-.1-.5c-.9-1.6-1.3-1.3-2.1.6z" fill="#325723"/>
  <path d="M31.2 24.9l.2-3.4a28.1 28.1 0 0 1-4.3.3l-3-.2h-.6l.2 2.4c0 .4.1.8.1 1.1v2.2a11.4 11.4 0 0 1-.2 3.7 2.8 2.8 0 0 0-.1.9c.6-.1 1.4.4 2.1 1.5q1.8-3 3.6 0c.7-1.3 1.4-1.9 2.2-1.7l-.3-6.8" fill="#fbc219"/>
  <path d="M27.6 15.8h-.5a20.4 20.4 0 0 0-6.5.9c-1.8.6-2.6 1.3-2.6 2.1a1.2 1.2 0 0 0 .8 1.2 7.8 7.8 0 0 0 1.8.8l2.9.7h.6c0-.3-.1-.5-.1-.8-.1-2.4 1.1-4.1 3.6-5" fill="#a30e03"/>
  <path d="M31.1 25l3.3-.5a10.3 10.3 0 0 1 .1-1.8 6.5 6.5 0 0 0 .4-1.3 5 5 0 0 1 .5-1.3l-1.9.9-2.2.6a27.2 27.2 0 0 1-4.3.3l-3-.2h-.6a19.1 19.1 0 0 1-2.8-.7 7.8 7.8 0 0 1-1.8-.8 3.6 3.6 0 0 0 .4.9 7.4 7.4 0 0 0 .4 1.4l.3 2.3 3.8.5a36.7 36.7 0 0 0 7.4-.3z" fill="none" stroke="#000" stroke-linecap="round" stroke-linejoin="round" stroke-width=".4"/>
  <path d="M18.8 20.2h-.1a1.4 1.4 0 0 1-.8-1.2q0-1.2 2.7-2.1A19.7 19.7 0 0 1 27 16h.5a18 18 0 0 1 6 .9c1.8.6 2.6 1.3 2.6 2.1a1.5 1.5 0 0 1-.7 1.2m-11.5 7.2l-4.1-.5c-.1.6-.1 1.4-.2 2.1a8.9 8.9 0 0 0-.3 1.4 14.9 14.9 0 0 0-.2 2.1c1.1-1.2 2.1-1 3 .7a2.2 2.2 0 0 1 1.4-1.2c.7-.1 1.4.4 2.2 1.5q1.7-3 3.6 0c.7-1.3 1.4-1.9 2.1-1.7s1 .6 1.5 1.4c.8-1.9 1.6-2.1 2.2-.5a14.8 14.8 0 0 0-.1-2.1l-.3-1.6a9.9 9.9 0 0 1-.3-2.4l-3.3.7a28.9 28.9 0 0 1-7.2.1z" fill="none" stroke="#000" stroke-linecap="round" stroke-linejoin="round" stroke-width=".4"/>
  <path d="M35.1 33.1a7.3 7.3 0 0 1-4 6.7 10.7 10.7 0 0 1-7.7.2 7.8 7.8 0 0 1-4.3-7.5m16 .2v.4m-15.2-8.3a16.2 16.2 0 0 1-.1 2.1m14.6-.3a7.4 7.4 0 0 1 0-2.1m-12.3 8.7a28.5 28.5 0 0 0 .5 4.6m3.1-4.3l.3 4.8m6.9-5.1a22.3 22.3 0 0 1-.6 4.6m-3-4.3l-.3 4.8" fill="none" stroke="#000" stroke-linecap="round" stroke-linejoin="round" stroke-width=".4"/>
  <path fill="red" d="M33.6 45.2H35v3.3H19.2v-3.3h14.4z"/>
  <path fill="none" stroke="#000" stroke-linecap="round" stroke-linejoin="round" stroke-width=".4" d="M33.6 45.2H35v3.3H19.2v-3.3h14.4z"/>
  <path fill="#a30e03" d="M57.8 43.2L53.7 46h11.8l-3.7-4-4 1.2z"/>
  <path d="M52.1 21.3s-3.5-1.5-4.8 1.3 2.2 6.8 2.5 7.5a1.3 1.3 0 0 1-.3 1.9c-2.1 1.5.9 3.5 2 1s-1.2-5.5-2.1-7.3-1.5-4.1 2.8-2.9m15.6-1.5s3.4-1.5 4.7 1.3-2.2 6.8-2.5 7.5a1.3 1.3 0 0 0 .3 1.9c2.1 1.5-.9 3.5-2 1s1.3-5.5 2.1-7.3 1.3-4-3-2.8" fill="none" stroke="#000" stroke-linecap="round" stroke-linejoin="round" stroke-width=".4"/>
  <path d="M57.6 40s.9 3.4-4 5.1c0 .1 5.8.9 7.1-4.6 0 .1-3.1-.5-3.1-.5z" fill="red"/>
  <path d="M62.3 40s-.9 3.4 4 5.1c.1.1-5.8.7-7-4.8 0 .1 3-.3 3-.3z" fill="red"/>
  <path d="M57.6 40s.9 3.4-4 5.1c0 .1 5.8.9 7.1-4.6a28.7 28.7 0 0 1-3.1-.5z" fill="none" stroke="#000" stroke-linecap="round" stroke-linejoin="round" stroke-width=".4"/>
  <path d="M62.3 40s-.9 3.4 4 5.1c.1.1-5.9.8-7.1-4.7 0 .1 3.1-.4 3.1-.4z" fill="none" stroke="#000" stroke-linecap="round" stroke-linejoin="round" stroke-width=".4"/>
  <path d="M57.8 39.3a12.8 12.8 0 0 0 2.1 5.9c0-.1 1.8-1.4 2.1-5.8.6-.1-4.2-.1-4.2-.1z" fill="red"/>
  <path d="M57.5 36s-.5 5.4 2.4 9.1c0-.1 3-2.3 2.6-9.2 0-.1-5 .1-5 .1z" fill="none" stroke="#000" stroke-linecap="round" stroke-linejoin="round" stroke-width=".4"/>
  <path d="M57.4 39.3s-1.5.4-1.5 2.7c0 0 2.1.5 3.1-2.1m3.7-.6s1.4.4 1.5 2.7a2.7 2.7 0 0 1-3.1-2.1" fill="red"/>
  <path d="M57.4 39.3s-1.5.4-1.5 2.7c0 0 2.1.5 3.1-2.1m3.7-.6s1.4.4 1.5 2.7a2.7 2.7 0 0 1-3.1-2.1" fill="none" stroke="#000" stroke-linecap="round" stroke-linejoin="round" stroke-width=".4"/>
  <path d="M61.2 39.7s.5 1.3-1.3 3a3.2 3.2 0 0 1-1.4-2.9z" fill="red"/>
  <path d="M61.2 39.7s.5 1.3-1.3 3a3.4 3.4 0 0 1-1.4-2.9z" fill="none" stroke="#000" stroke-linecap="round" stroke-linejoin="round" stroke-width=".4"/>
  <path d="M53.4 20.9a7.8 7.8 0 0 1-1.8-.8 3.6 3.6 0 0 1 .4.9 7.4 7.4 0 0 1 .4 1.4 8 8 0 0 1 .3 2.3v2l-.3 2.2-.3 1.4a14.8 14.8 0 0 0-.1 2.1c1-1.2 2-1 3 .7a2.2 2.2 0 0 1 1.4-1.2 2.8 2.8 0 0 1 .1-.9 11.4 11.4 0 0 0 .2-3.7v-2.2a4.5 4.5 0 0 0-.1-1.1l-.2-2.4-2.9-.7m10.7.6l-.2 3.4.3 6.8c.5.1 1 .6 1.5 1.4.8-1.9 1.5-2.1 2.2-.5a14.9 14.9 0 0 0-.2-2.1l-.3-1.6-.3-2.4v-2.2a9.9 9.9 0 0 1 .2-1.7 6.5 6.5 0 0 1 .4-1.3 2.9 2.9 0 0 1 .5-1.3 9.6 9.6 0 0 1-2 .9l-2.1.6" fill="#d79f09"/>
  <path d="M69 18.8q0-1.2-2.7-2.1a17 17 0 0 0-5.9-.9c-2.5.9-3.7 2.6-3.6 5 0 .3.1.5.1.8l3 .2a28.1 28.1 0 0 0 4.3-.3l2.1-.6a9.6 9.6 0 0 0 2-.9 1.5 1.5 0 0 0 .7-1.2" fill="red"/>
  <path d="M65.8 33.1c-.5-.8-1-1.3-1.5-1.4s-1.4.4-2.2 1.7c-1.2-2-2.4-2-3.5 0-.8-1.1-1.6-1.6-2.2-1.5a2.2 2.2 0 0 0-1.4 1.2c-1-1.7-2-1.9-3-.7a.4.4 0 0 0-.1.3c0 3.4.9 5.2 3.8 7l.4.2s2.7 1.5 7.2.2l.7-.3a7.4 7.4 0 0 0 4-6.8 4.3 4.3 0 0 0-.1-.5c-.9-1.6-1.3-1.3-2.1.6z" fill="#325723"/>
  <path d="M64 24.9l.2-3.4a28.1 28.1 0 0 1-4.3.3l-3-.2h-.6l.2 2.4a4.5 4.5 0 0 1 .1 1.1v2.2a11.4 11.4 0 0 1-.2 3.7 2.8 2.8 0 0 0-.1.9c.6-.1 1.4.4 2.1 1.5q1.8-3 3.6 0c.7-1.3 1.4-1.9 2.2-1.7l-.2-6.8" fill="#fbc219"/>
  <path d="M60.4 15.8h-.5a20.8 20.8 0 0 0-6.5.9c-1.8.6-2.6 1.3-2.6 2.1a1.2 1.2 0 0 0 .8 1.2 7.8 7.8 0 0 0 1.8.8l2.9.7h.6c0-.3-.1-.5-.1-.8-.1-2.4 1.1-4.1 3.6-5" fill="#a30e03"/>
  <path d="M63.9 25l3.3-.5a5.2 5.2 0 0 1 .2-1.8l.3-1.3a5 5 0 0 1 .5-1.3l-1.9.9-2.1.6a29.4 29.4 0 0 1-4.4.3l-3-.2h-.5a17.7 17.7 0 0 1-2.9-.7 7.8 7.8 0 0 1-1.8-.8 3.6 3.6 0 0 0 .4.9 7.4 7.4 0 0 0 .4 1.4l.3 2.3 3.8.5a36.7 36.7 0 0 0 7.4-.3z" fill="none" stroke="#000" stroke-linecap="round" stroke-linejoin="round" stroke-width=".4"/>
  <path d="M51.6 20.2h-.1a1.4 1.4 0 0 1-.8-1.2q0-1.2 2.7-2.1a19.7 19.7 0 0 1 6.4-.9h.5a18 18 0 0 1 6 .9q2.7.9 2.7 2.1a1.7 1.7 0 0 1-.8 1.2m-11.5 7.2l-4.1-.5a16.5 16.5 0 0 1-.2 2.1 8.9 8.9 0 0 0-.3 1.4 14.9 14.9 0 0 0-.2 2.1c1.1-1.2 2.1-1 3 .7a2.2 2.2 0 0 1 1.4-1.2c.7-.1 1.4.4 2.2 1.5q1.7-3 3.6 0c.7-1.3 1.4-1.9 2.1-1.7s1 .6 1.5 1.4c.8-1.9 1.6-2.1 2.2-.5a14.8 14.8 0 0 0-.1-2.1l-.3-1.6a9.9 9.9 0 0 1-.3-2.4l-3.3.7a28.9 28.9 0 0 1-7.2.1z" fill="none" stroke="#000" stroke-linecap="round" stroke-linejoin="round" stroke-width=".4"/>
  <path d="M67.9 33.1a7.3 7.3 0 0 1-4 6.7 10.7 10.7 0 0 1-7.7.2 8 8 0 0 1-4.3-7.5m16 .2v.4m-15.2-8.3a16.2 16.2 0 0 1-.1 2.1m14.6-.3a7.4 7.4 0 0 1 0-2.1m-12.3 8.7a28.5 28.5 0 0 0 .5 4.6m3.1-4.3l.3 4.8m6.9-5.1a22.3 22.3 0 0 1-.6 4.6m-3-4.3l-.3 4.8" fill="none" stroke="#000" stroke-linecap="round" stroke-linejoin="round" stroke-width=".4"/>
  <path fill="red" d="M66.4 45.2h1.4v3.3H52v-3.3h14.4z"/>
  <path fill="none" stroke="#000" stroke-linecap="round" stroke-linejoin="round" stroke-width=".4" d="M66.4 45.2h1.4v3.3H52v-3.3h14.4z"/>
  <path fill="#a30e03" d="M25 118.1l-4.1 2.9h11.8l-3.7-4-4 1.1z"/>
  <path d="M19.2 96.9s-3.4-1.4-4.7 1.3 2.2 6.9 2.5 7.6a1.3 1.3 0 0 1-.3 1.9c-2.1 1.5.9 3.5 2 .9s-1.3-5.4-2.1-7.3-1.5-4 2.8-2.9m15.5-1.5s3.5-1.4 4.8 1.3-2.2 6.9-2.5 7.6a1.3 1.3 0 0 0 .3 1.9c2.1 1.5-.9 3.5-2 .9s1.2-5.4 2.1-7.3 1.3-3.9-3-2.7" fill="none" stroke="#000" stroke-linecap="round" stroke-linejoin="round" stroke-width=".4"/>
  <path d="M24.8 115.7s.9 3.4-4 5.1c-.1.1 5.8.9 7.1-4.6z" fill="red"/>
  <path d="M29.5 115.7s-.9 3.4 4 5.1c.1.1-5.8.7-7-4.8z" fill="red"/>
  <path d="M24.8 115.7s.9 3.4-4 5.1c-.1.1 5.8.9 7.1-4.6a28.7 28.7 0 0 1-3.1-.5z" fill="none" stroke="#000" stroke-linecap="round" stroke-linejoin="round" stroke-width=".4"/>
  <path d="M29.5 115.7s-.9 3.4 4 5.1c.1.1-5.9.7-7.1-4.8a16.3 16.3 0 0 0 3.1-.3z" fill="none" stroke="#000" stroke-linecap="round" stroke-linejoin="round" stroke-width=".4"/>
  <path d="M25 115a13.2 13.2 0 0 0 2.1 5.9c0-.1 1.8-1.4 2.1-5.9z" fill="red"/>
  <path d="M24.7 111.6s-.5 5.5 2.4 9.2c0-.1 2.9-2.4 2.6-9.3z" fill="none" stroke="#000" stroke-linecap="round" stroke-linejoin="round" stroke-width=".4"/>
  <path d="M24.6 115s-1.5.4-1.5 2.7c0 0 2.1.5 3.1-2.1m3.7-.6s1.4.4 1.5 2.7a2.7 2.7 0 0 1-3.1-2.1" fill="red"/>
  <path d="M24.6 115s-1.5.4-1.5 2.7c0 0 2.1.5 3.1-2.1m3.7-.6s1.4.4 1.5 2.7a2.7 2.7 0 0 1-3.1-2.1" fill="none" stroke="#000" stroke-linecap="round" stroke-linejoin="round" stroke-width=".4"/>
  <path d="M28.4 115.4s.5 1.3-1.3 3a3.2 3.2 0 0 1-1.4-2.9z" fill="red"/>
  <path d="M28.4 115.4s.5 1.3-1.3 3a3.4 3.4 0 0 1-1.4-2.9z" fill="none" stroke="#000" stroke-linecap="round" stroke-linejoin="round" stroke-width=".4"/>
  <path d="M20.6 96.5a5.1 5.1 0 0 1-1.8-.8l.4 1a6.5 6.5 0 0 1 .4 1.3 18.1 18.1 0 0 1 .3 2.3v2.1l-.3 2.2-.3 1.4a14.1 14.1 0 0 0-.1 2c1-1.2 2-.9 3 .8.4-.8.9-1.2 1.4-1.2a2.8 2.8 0 0 1 .1-.9 11.4 11.4 0 0 0 .2-3.7v-2.2c0-.4-.1-.7-.1-1.1l-.2-2.5a12.3 12.3 0 0 1-2.9-.7m10.7.6l-.2 3.5.3 6.8c.4.1.9.6 1.4 1.4.9-2 1.6-2.1 2.3-.5a14.9 14.9 0 0 0-.2-2.1l-.3-1.6-.3-2.4V100a8.8 8.8 0 0 1 .2-1.7A5 5 0 0 1 35 97a2.9 2.9 0 0 1 .5-1.3 6.4 6.4 0 0 1-2 .8 7.3 7.3 0 0 1-2.1.6" fill="#d79f09"/>
  <path d="M36.2 94.5c0-.8-.9-1.6-2.7-2.2a20 20 0 0 0-5.9-.8c-2.5.9-3.7 2.6-3.6 4.9 0 .3.1.6.1.9l3 .2a19.1 19.1 0 0 0 4.3-.4 7.3 7.3 0 0 0 2.1-.6 6.4 6.4 0 0 0 2-.8 1.5 1.5 0 0 0 .7-1.2" fill="red"/>
  <path d="M33 108.8c-.5-.8-1-1.3-1.5-1.4s-1.5.4-2.2 1.6c-1.2-2-2.4-2-3.5 0-.8-1-1.6-1.5-2.2-1.4s-1 .4-1.4 1.2c-1-1.7-2-2-3-.8a.6.6 0 0 0-.1.4c0 3.4.9 5.2 3.8 7l.4.2s2.7 1.5 7.2.2l.7-.4a7.3 7.3 0 0 0 4-6.8v-.4c-1-1.6-1.4-1.4-2.2.6z" fill="#325723"/>
  <path d="M31.2 100.6l.2-3.5a19.1 19.1 0 0 1-4.3.4l-3-.2h-.6l.2 2.5c0 .4.1.7.1 1.1v2.1a11.4 11.4 0 0 1-.2 3.7 2.8 2.8 0 0 0-.1.9c.6-.1 1.4.4 2.1 1.4q1.8-3 3.6 0c.7-1.2 1.4-1.8 2.2-1.6l-.3-6.8" fill="#fbc219"/>
  <path d="M27.6 91.5h-.5a24 24 0 0 0-6.5.8c-1.8.6-2.6 1.4-2.6 2.2a1.4 1.4 0 0 0 .8 1.2 5.1 5.1 0 0 0 1.8.8 12.3 12.3 0 0 0 2.9.7h.6c0-.3-.1-.6-.1-.9-.1-2.3 1.1-4 3.6-4.9" fill="#a30e03"/>
  <path d="M31.1 100.7a19.1 19.1 0 0 0 3.3-.6 9.7 9.7 0 0 1 .1-1.7 6.5 6.5 0 0 0 .4-1.3 5 5 0 0 1 .5-1.3l-1.9.9-2.2.5a18.5 18.5 0 0 1-4.3.4l-3-.2h-.6l-2.8-.7-1.8-.8a6.3 6.3 0 0 0 .4.9 10.3 10.3 0 0 0 .4 1.4l.3 2.2a24.7 24.7 0 0 0 3.8.5 36.6 36.6 0 0 0 7.4-.2z" fill="none" stroke="#000" stroke-linecap="round" stroke-linejoin="round" stroke-width=".4"/>
  <path d="M18.8 95.9h-.1a1.7 1.7 0 0 1-.8-1.2c0-.8.9-1.6 2.7-2.2a23.2 23.2 0 0 1 6.4-.8h.5a21.3 21.3 0 0 1 6 .8c1.8.6 2.6 1.4 2.6 2.2a1.5 1.5 0 0 1-.7 1.2m-11.5 7.2a29 29 0 0 1-4.1-.6c-.1.7-.1 1.4-.2 2.2a7 7 0 0 0-.3 1.4 15 15 0 0 0-.2 2c1.1-1.1 2.1-.9 3 .8.4-.8.9-1.2 1.4-1.2s1.4.4 2.2 1.4q1.7-2.8 3.6 0c.7-1.2 1.4-1.8 2.1-1.6s1 .6 1.5 1.4c.8-1.9 1.6-2.1 2.2-.5a14.8 14.8 0 0 0-.1-2.1l-.3-1.6a9.9 9.9 0 0 1-.3-2.4l-3.3.7a34.7 34.7 0 0 1-7.2.1z" fill="none" stroke="#000" stroke-linecap="round" stroke-linejoin="round" stroke-width=".4"/>
  <path d="M35.1 108.8a7.4 7.4 0 0 1-4 6.7 10.3 10.3 0 0 1-7.7.1 7.7 7.7 0 0 1-4.3-7.4m16 .2v.4m-15.2-8.4a14.8 14.8 0 0 1-.1 2.1m14.6-.2a8.1 8.1 0 0 1 0-2.2m-12.3 8.8a29.6 29.6 0 0 0 .5 4.6m3.1-4.4l.3 4.8m6.9-5a23.1 23.1 0 0 1-.6 4.6m-3-4.4l-.3 4.8" fill="none" stroke="#000" stroke-linecap="round" stroke-linejoin="round" stroke-width=".4"/>
  <path fill="red" d="M33.6 120.9H35v3.3H19.2v-3.3h14.4z"/>
  <path fill="none" stroke="#000" stroke-linecap="round" stroke-linejoin="round" stroke-width=".4" d="M33.6 120.9H35v3.3H19.2v-3.3h14.4z"/>
  <path fill="#a30e03" d="M57.8 118.1l-4.1 2.9h11.8l-3.7-4-4 1.1z"/>
  <path d="M52.1 96.9s-3.5-1.4-4.8 1.3 2.2 6.9 2.5 7.6a1.3 1.3 0 0 1-.3 1.9c-2.1 1.5.9 3.5 2 .9s-1.2-5.4-2.1-7.3-1.5-4 2.8-2.9m15.6-1.5s3.4-1.4 4.7 1.3-2.2 6.9-2.5 7.6a1.3 1.3 0 0 0 .3 1.9c2.1 1.5-.9 3.5-2 .9s1.3-5.4 2.1-7.3 1.3-3.9-3-2.7" fill="none" stroke="#000" stroke-linecap="round" stroke-linejoin="round" stroke-width=".4"/>
  <path d="M57.6 115.7s.9 3.4-4 5.1c0 .1 5.8.9 7.1-4.6z" fill="red"/>
  <path d="M62.3 115.7s-.9 3.4 4 5.1c.1.1-5.8.7-7-4.8z" fill="red"/>
  <path d="M57.6 115.7s.9 3.4-4 5.1c0 .1 5.8.9 7.1-4.6a28.7 28.7 0 0 1-3.1-.5z" fill="none" stroke="#000" stroke-linecap="round" stroke-linejoin="round" stroke-width=".4"/>
  <path d="M62.3 115.7s-.9 3.4 4 5.1c.1.1-5.9.7-7.1-4.8a16.3 16.3 0 0 0 3.1-.3z" fill="none" stroke="#000" stroke-linecap="round" stroke-linejoin="round" stroke-width=".4"/>
  <path d="M57.8 115a13.2 13.2 0 0 0 2.1 5.9c0-.1 1.8-1.4 2.1-5.9z" fill="red"/>
  <path d="M57.5 111.6s-.5 5.5 2.4 9.2c0-.1 3-2.4 2.6-9.3z" fill="none" stroke="#000" stroke-linecap="round" stroke-linejoin="round" stroke-width=".4"/>
  <path d="M57.4 115s-1.5.4-1.5 2.7c0 0 2.1.5 3.1-2.1m3.7-.6s1.4.4 1.5 2.7a2.7 2.7 0 0 1-3.1-2.1" fill="red"/>
  <path d="M57.4 115s-1.5.4-1.5 2.7c0 0 2.1.5 3.1-2.1m3.7-.6s1.4.4 1.5 2.7a2.7 2.7 0 0 1-3.1-2.1" fill="none" stroke="#000" stroke-linecap="round" stroke-linejoin="round" stroke-width=".4"/>
  <path d="M61.2 115.4s.5 1.3-1.3 3a3.2 3.2 0 0 1-1.4-2.9z" fill="red"/>
  <path d="M61.2 115.4s.5 1.3-1.3 3a3.4 3.4 0 0 1-1.4-2.9z" fill="none" stroke="#000" stroke-linecap="round" stroke-linejoin="round" stroke-width=".4"/>
  <path d="M53.4 96.5a5.1 5.1 0 0 1-1.8-.8 4.2 4.2 0 0 1 .4 1 6.5 6.5 0 0 1 .4 1.3 9.1 9.1 0 0 1 .3 2.3v2.1l-.3 2.2-.3 1.4a14.1 14.1 0 0 0-.1 2c1-1.2 2-.9 3 .8.4-.8.9-1.2 1.4-1.2a2.8 2.8 0 0 1 .1-.9 11.4 11.4 0 0 0 .2-3.7v-2.2a4.1 4.1 0 0 0-.1-1.1l-.2-2.5a12.3 12.3 0 0 1-2.9-.7m10.7.6l-.2 3.5.3 6.8c.5.1 1 .6 1.5 1.4.8-2 1.5-2.1 2.2-.5a14.9 14.9 0 0 0-.2-2.1l-.3-1.6-.3-2.4V100a8.8 8.8 0 0 1 .2-1.7 5 5 0 0 1 .4-1.3 2.9 2.9 0 0 1 .5-1.3 6.4 6.4 0 0 1-2 .8 6.5 6.5 0 0 1-2.1.6" fill="#d79f09"/>
  <path d="M69 94.5c0-.8-.9-1.6-2.7-2.2a20 20 0 0 0-5.9-.8c-2.5.9-3.7 2.6-3.6 4.9 0 .3.1.6.1.9l3 .2a19.1 19.1 0 0 0 4.3-.4 6.5 6.5 0 0 0 2.1-.6 6.4 6.4 0 0 0 2-.8 1.5 1.5 0 0 0 .7-1.2" fill="red"/>
  <path d="M65.8 108.8c-.5-.8-1-1.3-1.5-1.4s-1.4.4-2.2 1.6c-1.2-2-2.4-2-3.5 0-.8-1-1.6-1.5-2.2-1.4s-1 .4-1.4 1.2c-1-1.7-2-2-3-.8a.6.6 0 0 0-.1.4c0 3.4.9 5.2 3.8 7l.4.2s2.7 1.5 7.2.2l.7-.4a7.3 7.3 0 0 0 4-6.8v-.4c-1-1.6-1.4-1.4-2.2.6z" fill="#325723"/>
  <path d="M64 100.6l.2-3.5a19.1 19.1 0 0 1-4.3.4l-3-.2h-.6l.2 2.5a4.1 4.1 0 0 1 .1 1.1v2.1a11.4 11.4 0 0 1-.2 3.7 2.8 2.8 0 0 0-.1.9c.6-.1 1.4.4 2.1 1.4q1.8-3 3.6 0c.7-1.2 1.4-1.8 2.2-1.6l-.3-6.8" fill="#fbc219"/>
  <path d="M60.4 91.5h-.5a24.6 24.6 0 0 0-6.5.8c-1.8.6-2.6 1.4-2.6 2.2a1.4 1.4 0 0 0 .8 1.2 5.1 5.1 0 0 0 1.8.8 12.3 12.3 0 0 0 2.9.7h.6c0-.3-.1-.6-.1-.9-.1-2.3 1.1-4 3.6-4.9" fill="#a30e03"/>
  <path d="M63.9 100.7a19.1 19.1 0 0 0 3.3-.6 5 5 0 0 1 .2-1.7l.3-1.3a5 5 0 0 1 .5-1.3l-1.9.9-2.1.5a20 20 0 0 1-4.4.4l-3-.2h-.5l-2.9-.7-1.8-.8a6.3 6.3 0 0 0 .4.9 10.3 10.3 0 0 0 .4 1.4l.3 2.2a24.7 24.7 0 0 0 3.8.5 36.6 36.6 0 0 0 7.4-.2z" fill="none" stroke="#000" stroke-linecap="round" stroke-linejoin="round" stroke-width=".4"/>
  <path d="M51.6 95.9h-.1a1.7 1.7 0 0 1-.8-1.2c0-.8.9-1.6 2.7-2.2a23.2 23.2 0 0 1 6.4-.8h.5a21.3 21.3 0 0 1 6 .8c1.8.6 2.7 1.4 2.7 2.2a1.7 1.7 0 0 1-.8 1.2m-11.5 7.2a29 29 0 0 1-4.1-.6 18 18 0 0 1-.2 2.2 7 7 0 0 0-.3 1.4 15 15 0 0 0-.2 2c1.1-1.1 2.1-.9 3 .8.4-.8.9-1.2 1.4-1.2s1.4.4 2.2 1.4q1.7-2.8 3.6 0c.7-1.2 1.4-1.8 2.1-1.6s1 .6 1.5 1.4c.8-1.9 1.6-2.1 2.2-.5a14.8 14.8 0 0 0-.1-2.1l-.3-1.6a9.9 9.9 0 0 1-.3-2.4l-3.3.7a34.7 34.7 0 0 1-7.2.1z" fill="none" stroke="#000" stroke-linecap="round" stroke-linejoin="round" stroke-width=".4"/>
  <path d="M67.9 108.8a7.4 7.4 0 0 1-4 6.7 10.3 10.3 0 0 1-7.7.1 7.9 7.9 0 0 1-4.3-7.4m16 .2v.4m-15.2-8.4a14.8 14.8 0 0 1-.1 2.1m14.6-.2a8.1 8.1 0 0 1 0-2.2m-12.3 8.8a29.6 29.6 0 0 0 .5 4.6m3.1-4.4l.3 4.8m6.9-5a23.1 23.1 0 0 1-.6 4.6m-3-4.4l-.3 4.8" fill="none" stroke="#000" stroke-linecap="round" stroke-linejoin="round" stroke-width=".4"/>
  <path fill="red" d="M66.4 120.9h1.4v3.3H52v-3.3h14.4z"/>
  <path fill="none" stroke="#000" stroke-linecap="round" stroke-linejoin="round" stroke-width=".4" d="M66.4 120.9h1.4v3.3H52v-3.3h14.4z"/>
  <path d="M36.6 73.9a1.6 1.6 0 0 1 .3.9.1.1 0 0 1-.1.1h-.1c-.1 0-.1 0-.1-.1a1.9 1.9 0 0 0-.2-.7 1.1 1.1 0 0 0-1.5 0 1.1 1.1 0 0 0-.1 1.4l.6.4.4-.4-.3-.3h.2l.4.4-.6.6h-.1a1.9 1.9 0 0 1-.8-.5 1.4 1.4 0 0 1 .1-1.8 1.4 1.4 0 0 1 1.9 0zm1.8 1.4a1.3 1.3 0 0 1 .5 1.8 1.3 1.3 0 0 1-1.7.5 1.2 1.2 0 0 1-.6-1.7 1.4 1.4 0 0 1 1.8-.6zm-1.1 2.1a1 1 0 0 0 1.4-.4 1.1 1.1 0 0 0-.4-1.5 1.1 1.1 0 0 0-1.4.5 1 1 0 0 0 .4 1.4zm2.6-1.3h.2l-.5 2.2 1 .2h-.1l-1.2-.3zm3.4.4a1.4 1.4 0 0 1 .9.3H44a1.5 1.5 0 0 0-.7-.3 1 1 0 0 0-1 1 1 1 0 0 0 .9 1.1l.7-.2h.1v.2a1.1 1.1 0 0 1-.9.4 1.3 1.3 0 0 1-1.1-1.3 1.2 1.2 0 0 1 1.3-1.2zm1.2 2.5l.8-2.6h.2l1.3 2.3c.1 0 0 .1 0 .1h-.2l-.3-.6-1.3.2-.2.6h-.3zm1.6-1l-.6-1.1-.4 1.2zm.7-1.7l.9-.3a.8.8 0 0 1 1 .5.8.8 0 0 1-.3.9l.8.7h-.3l-.7-.8-.7.2.3.9h-.3zm1.3.9a.5.5 0 0 0 .3-.7c0-.3-.3-.4-.6-.3l-.7.2.3 1zm.7-1.6h.1l.6-.4a1.3 1.3 0 0 1 1.8.3 1.2 1.2 0 0 1-.4 1.7l-.6.5h-.1zm2 1.4a1 1 0 0 0-1.2-1.7l-.4.3 1.1 1.7zm1.5-1.5a.7.7 0 0 0 .6-.3c.2-.2.2-.5 0-.6s-.4-.1-.8.1-.7.3-1 .1a.7.7 0 0 1 0-1 1.1 1.1 0 0 1 .5-.4h.1v.2l-.5.2a.6.6 0 0 0 0 .7.8.8 0 0 0 .8-.1c.4-.3.7-.4 1.1-.1s.3.6 0 1a1.3 1.3 0 0 1-.7.4z" stroke="#000" stroke-miterlimit="10" stroke-width=".1"/>
  <path fill="#fbc219" stroke="#000" stroke-linecap="round" stroke-linejoin="round" stroke-width=".4" d="M45.3 70.4l-1.8-.9-1.7.9.3-2-1.5-1.4 2-.3.9-1.7.9 1.7 2 .3-1.5 1.4.4 2z"/>
  <path fill="#fbc219" d="M38.7 61h9.6v1.5h-9.6z"/>
  <path d="M37.1 69.7h-1.7a.2.2 0 0 1-.2-.2l.6-1-.6-.9c0-.2.1-.3.2-.3h1.7c.1 0 .2.1.2.3v1.9a.2.2 0 0 1-.2.2z" fill="none" stroke="#000" stroke-miterlimit="10" stroke-width=".4"/>
  <path d="M38.7 68.8h-1.6a.2.2 0 0 1-.2-.2v-2l.2-.2h1.6" fill="#fff" stroke="#000" stroke-miterlimit="10" stroke-width=".4"/>
  <path d="M49.9 69.7h1.7a.2.2 0 0 0 .2-.2l-.6-1 .6-.9c0-.2-.1-.3-.2-.3h-1.7c-.1 0-.2.1-.2.3v1.9a.2.2 0 0 0 .2.2z" fill="none" stroke="#000" stroke-miterlimit="10" stroke-width=".4"/>
  <path d="M48.3 68.8h1.6a.2.2 0 0 0 .2-.2v-2l-.2-.2h-1.6" fill="#fff" stroke="#000" stroke-miterlimit="10" stroke-width=".4"/>
  <path d="M48.3 64.7v-3.3a.4.4 0 0 0-.4-.4h-8.8a.4.4 0 0 0-.4.4v8a4.7 4.7 0 0 0 4.8 4.8 4.8 4.8 0 0 0 4.9-4.8l-.1-4.7zm-9.5-2.2h9.5" fill="none" stroke="#000" stroke-miterlimit="10" stroke-width=".4"/>
</svg>
