<svg xmlns="http://www.w3.org/2000/svg" viewBox="0 0 87 140"><defs><style>.cls-1{fill:#fff}.cls-3{fill:#febf10}.cls-6{fill:#004da1}.cls-8{fill:#0065b7}.cls-9{fill:red}.cls-13{fill:#b3b3b3}.cls-19,.cls-20{fill:none;stroke:#000;stroke-linecap:round;stroke-linejoin:round}.cls-19{stroke-width:.4px}.cls-20{stroke-width:.3px}</style></defs><g id="Livello_2" data-name="Livello 2"><g id="Livello_1-2" data-name="Livello 1"><rect class="cls-1" width="87" height="140" rx="6" ry="6"/><path d="M38.3 35.35l1.34 14.48 6.01 1.67 4.53-2.67-4.2-15.08-7.68 1.6zM23.9 63.24A34.32 34.32 0 0 1 25.3 74c-.34 5.2-.47 9.87 3.86 9.74s15.42-.07 15.42-.07 4.13-.27 4.53-3.4.54-8.74-1.53-13.08-19.68-5.54-19.68-5.54a15.54 15.54 0 0 0-3.47.6c-.8.4-.94.13-.54 1z" fill="#325723"/><path class="cls-3" d="M38.02 82.6c-1.19 0-2.5-.02-3.97-.05l-1.68-.02h-.74c-1.55.03-3.02.05-3.98-.93a4.05 4.05 0 0 1-.89-3.1c.2-5.67-1.31-16.3-1.33-16.41l1.59-.23c.06.44 1.54 10.88 1.34 16.69a2.7 2.7 0 0 0 .43 1.93c.48.48 1.56.47 2.82.45h.76c.4 0 1 0 1.71.02 7.7.15 11.94-.13 12.58-.82.33-1.05-.54-9.13-1.27-14.51l1.58-.22c.3 2.23 1.8 13.43 1.17 15.31-.45 1.36-3.03 1.88-10.12 1.88z"/><path d="M22.44 114.7a1.65 1.65 0 0 1-.37.32 3.75 3.75 0 0 1-4.65-.06l-.23 1.33 2.58 1.65q2.9 1.01 3.48-.55a7.38 7.38 0 0 0-.8-2.68m32.13 4.16a5.78 5.78 0 0 1-1.36-.12 1.8 1.8 0 0 1-.75-.23l-.3.3q-.16.13-.33.31a1.42 1.42 0 0 0-.24.32 1.13 1.13 0 0 0 .73 1.24 10.48 10.48 0 0 0 1.8.8 5.5 5.5 0 0 0 2.76.15 1.92 1.92 0 0 0 .77-.34.58.58 0 0 0 .02-.14 4.39 4.39 0 0 0-.21-.77l-.32-.67A5.84 5.84 0 0 0 56 118.2a2.26 2.26 0 0 1-1.42.67m1.2-38.04l-.45.6v.32l-.4-.41a1.65 1.65 0 0 1-.37-.44 5.32 5.32 0 0 1-.3-.47l-.2-.61a1.39 1.39 0 0 1-.07-.32l-1.24 13.95-.9 6.62q.32.51.64 1.08a6.67 6.67 0 0 1 .89 3.32l-.73-.1-.36.2q.26.53.57 1.09a3.59 3.59 0 0 0 .42.5 4.66 4.66 0 0 0 .45.39 7.23 7.23 0 0 0-.3.94 11.4 11.4 0 0 0 1.88 9.07.61.61 0 0 1 .08-.22 1.6 1.6 0 0 0 .12-1.12 2.8 2.8 0 0 0-.37-.95.31.31 0 0 1-.08-.12 1 1 0 0 1-.18-.53 2.66 2.66 0 0 1-.04-.44q-.1-1.9-.16-3.77l-.2-4.98q0-.79.06-1.76a6.65 6.65 0 0 0-.21-1.97 3.5 3.5 0 0 1-.1-.63 4.43 4.43 0 0 1-.04-1.19l.08-.5a32.93 32.93 0 0 0 2.01-9.77 34.77 34.77 0 0 0-.5-7.78m-6.1-15.27a8.27 8.27 0 0 0-.06-1.9q-.4-2.6-.63-5.08l-2.21 4-.95 1.12-1.8 1.26a.95.95 0 0 0-.1.26.77.77 0 0 1 .06.16q.14.47.3.93a19.76 19.76 0 0 0 .9 2.29v-.24q.1-1.03.3-2.05.14-.81.34-1.58l-.02 1.12a4.8 4.8 0 0 0 .51 2.6l.46-1.8.37-1.49.04.63.22.48a.97.97 0 0 0 .06-.1q.32-.63.57-1.27a9.62 9.62 0 0 0 .52-2.25l1.12 2.9m3.64-9.26a27.15 27.15 0 0 1-2.77-1.68L49 58.56v.02l.06.34.51 1.52A15.1 15.1 0 0 1 50.5 66l.06.3.26-.2a5.11 5.11 0 0 0 .4-.63 7.08 7.08 0 0 0 .57-5.52 6.74 6.74 0 0 1 1.58 1.6q.14-.37.25-.75a4.26 4.26 0 0 0-.23-2.84l-.06-1.68m-24.8 27.46a3.76 3.76 0 0 1-1.08-.26 46.25 46.25 0 0 1-2.25 5 22.65 22.65 0 0 0-2.75 10.63 6.7 6.7 0 0 1 .87-1.72l.8-1.42q.35-.6.62-1.17l.36-.73a10.35 10.35 0 0 0 .77-2.75 1.22 1.22 0 0 1 .26-.2 3.55 3.55 0 0 0 .55 2.54q.22.4.47.79a2.47 2.47 0 0 0 .18.55.32.32 0 0 1 .02.08l.04.04a4.27 4.27 0 0 1 .2 2.43 10.2 10.2 0 0 1-.83 2.5 20.63 20.63 0 0 1-1.03 1.8 2.81 2.81 0 0 0-.57 1.25 2.14 2.14 0 0 0 .47 1.42 1.97 1.97 0 0 0 .5.53 3.91 3.91 0 0 1 .31.26q-.08-.35-.12-.67-.06-.89-.06-1.74a3.45 3.45 0 0 1 2.16-2.37.15.15 0 0 1 .06-.02q0-.02.04-.02a9.07 9.07 0 0 0 2.62-6.93v-.06l-.02-.26.06.18-.04.08q1.05.69.46 3.14-1.8 3.57 1.06 5.45a21.92 21.92 0 0 1 5.4 5.77 2.2 2.2 0 0 1 .31.7q.54 1.53 1 3.11l1.37-.25.1.45-.08.26a1.4 1.4 0 0 0-.17.47 1.63 1.63 0 0 0 .35 1.34 5.32 5.32 0 0 0 1 .32 7.02 7.02 0 0 0 .98.18 15.24 15.24 0 0 0 2.03.14 2.11 2.11 0 0 0 .83-.12l.06-.12a.08.08 0 0 1 .04-.08 2.23 2.23 0 0 0-.35-1.38q-.44-.77-.91-1.48-.18-.26-.38-.5l-.67-.5a6.3 6.3 0 0 0-.63-1.26 8.11 8.11 0 0 0-1.05-1.28.31.31 0 0 0-.12-.08 4.12 4.12 0 0 1-1.03-1.16q-.43-.72-.85-1.3-.73-1.13-1.56-2.22l-1.36-1.78a4.6 4.6 0 0 1-.06-5.06 14.96 14.96 0 0 0 2.47-5.23 10.97 10.97 0 0 0 .73-4.25q.52.12 1.09.22a5 5 0 0 0-.12-1.84l-.14-.69-.16-.89-12.24.16m-15.79-8.12a1.61 1.61 0 0 1-.26-.5 6.93 6.93 0 0 0 1.03 5.36 18.9 18.9 0 0 0 4.64 4.9q.44.87.93 1.72 2.65-2.93 0-9.92-2.66-7.03-2.7-8.04-1.84 4.1-.46 10.27a.13.13 0 0 0-.06-.06 2.52 2.52 0 0 1-.33-.31.19.19 0 0 0-.1-.08 1.08 1.08 0 0 0-.14-.06.13.13 0 0 0-.06-.06 1.82 1.82 0 0 1-.51-.38 3.55 3.55 0 0 0-.32-.31 1.02 1.02 0 0 0-.14-.24 1.66 1.66 0 0 1-.35-.41 1.89 1.89 0 0 0-.32-.38 1.54 1.54 0 0 1-.22-.37l-.06-.06a2.94 2.94 0 0 1-.25-.46l-.1-.23a1.54 1.54 0 0 0-.22-.38m56.34 8.53a6.17 6.17 0 0 0-.69-1.1q-.53-.67-1.09-1.29l.44-1.77a18.42 18.42 0 0 0-1.19-10.71 16.37 16.37 0 0 1-5.67 2.29 23.19 23.19 0 0 1-.21 16.28l.3-.14.25-.08.4-.18 2.76 1.96q.65.47 1.28.9l3.92 2.46a8.47 8.47 0 0 1 1 .73q.77.61 1.52 1.3a10.02 10.02 0 0 1 .02 1.38 3.68 3.68 0 0 1-.39 1.29 15.48 15.48 0 0 1-1.19 2.01 6.44 6.44 0 0 0-.53 1.01 12.74 12.74 0 0 1-2 3.08 2.53 2.53 0 0 1-.57.5 2.26 2.26 0 0 0-.7.87 2.3 2.3 0 0 0 .3.65.2.2 0 0 1-.07.31.32.32 0 0 1-.42-.11.81.81 0 0 0-.57-.32 3.28 3.28 0 0 0-1.48-.2 4.03 4.03 0 0 0-.83 2.65l.02 1.6a3.4 3.4 0 0 0 .43 1.56 8.37 8.37 0 0 0 2.1-1.1 4.18 4.18 0 0 1 1.44-.62 2.36 2.36 0 0 0 1.2-.43.67.67 0 0 0 .32-.62.9.9 0 0 1 .36-.75 1.4 1.4 0 0 0 1.56-.79 2.67 2.67 0 0 0 .33-.98q.1-.64.22-1.15a14.58 14.58 0 0 1 1.05-3.04l.41-.91 1.37-2.9a3.37 3.37 0 0 1 .69-.97 4.34 4.34 0 0 0 1.3-2.77.97.97 0 0 0-.35-.9 4.23 4.23 0 0 0-.52-.38 11.04 11.04 0 0 1-2.49-2.33l-1.26-1.56a11.31 11.31 0 0 1-1.38-2q-.72-1.38-1.39-2.73m-3.87-19.24a16.94 16.94 0 0 0-.45-7.52 14.95 14.95 0 0 1-2.22.43 23.1 23.1 0 0 1-2.78.18q-.02.89 0 1.78a54.18 54.18 0 0 0 .6 7.15 11.94 11.94 0 0 0 4.85-2.02m.32-12.8a4.88 4.88 0 0 1 2.78.97l.52.43.75-.53.06-.04.37-.28a1 1 0 0 1-.1-.41.8.8 0 0 1 .04-.26 9.15 9.15 0 0 1-.87-.47 15.62 15.62 0 0 1-1.38-.91 20.4 20.4 0 0 1-4.98-5.1q-.3-.43-.57-.87-.55-.85-1.05-1.8a.9.9 0 0 1-.57-.29l-.02-.02a1 1 0 0 1-.3-.73.87.87 0 0 1 .12-.45l-1.78 1.4a22.98 22.98 0 0 0-6.14 7.7q-.71 1.42-1.32 2.93l2.39 1.34.59-.9.3-.36a4.72 4.72 0 0 0 .75-1.94 4.18 4.18 0 0 1 .45-.7 5.9 5.9 0 0 0 1.52-3.3 5.8 5.8 0 0 0-.1-1.95.32.32 0 0 1 0-.16l.67-1.14a2.36 2.36 0 0 0 .02 1.38l.48 1.56a.12.12 0 0 1 .02.08 1.93 1.93 0 0 1 .06-.37 3 3 0 0 0 .08-.46 3.73 3.73 0 0 1 .57-1.58 3.78 3.78 0 0 1 .32-.41 8.43 8.43 0 0 0 2.84 5.82l-2.11 6.2a13.1 13.1 0 0 0 4.72-.76 5.87 5.87 0 0 1 .87-3.62m8.87 4.37A3.58 3.58 0 0 1 73 55.3a4.4 4.4 0 0 1-.31-.59 2.41 2.41 0 0 0-1.15-1.5.7.7 0 0 1-.27.06.96.96 0 0 1-.38.12l-.63.75a2.52 2.52 0 0 0-.32.33q-.06.04-.06.06l.7 2.65a.31.31 0 0 0 .07.12 1.66 1.66 0 0 0 1.35.33l.27.34.48.1a1.81 1.81 0 0 0 .45-.14 3.89 3.89 0 0 0 1.3-.93 4.15 4.15 0 0 1 .32-.4q-.24-.05-.43-.11M65.45 35.2a2.18 2.18 0 0 1-.2-.69 6.47 6.47 0 0 0-.93-2.11l-.06.69a12.7 12.7 0 0 1-.45 2.8 3.87 3.87 0 0 0 .08 2.45 1.55 1.55 0 0 0 .3.4l.68.08a3.4 3.4 0 0 0 .6-1.33 4.99 4.99 0 0 0-.02-2.29m7.88 1.96a2.97 2.97 0 0 0-.73-.63 1.84 1.84 0 0 0-.32-.08 2.89 2.89 0 0 1-2.43-.58 5.5 5.5 0 0 0-.53-.43l-1.72-.83a1.95 1.95 0 0 0-.5-.16l-1.18-.14a17.15 17.15 0 0 0 .73 2.1 2.26 2.26 0 0 1 .14.67q.02.22.02.47a3.41 3.41 0 0 1 1.05-.12 6.66 6.66 0 0 1 1.97.64 3.59 3.59 0 0 0 .44.3l1.22-.03a.45.45 0 0 1 .2.08.7.7 0 0 1 .18.24 1.87 1.87 0 0 0 1.2.9q.58-.11 1.5-.33a5.26 5.26 0 0 1-.83-1.26l-.41-.81z" fill="#856353"/><path d="M25.09 94.08l-.36.73q-.27.57-.63 1.17a3.1 3.1 0 0 1 .32 3.02.25.25 0 0 1-.06.04.16.16 0 0 1 .06-.02 1.96 1.96 0 0 1-.14.16.13.13 0 0 0-.06.06.2.2 0 0 0-.08.14 2.26 2.26 0 0 0-.24 2.66 4.64 4.64 0 0 0 .7 2.53 2.76 2.76 0 0 0 1.44 1.27 1.82 1.82 0 0 1 1.08 1.38 3.34 3.34 0 0 1-.06-.36 3.36 3.36 0 0 0-.63-1.54 3.91 3.91 0 0 0-.31-.26 1.97 1.97 0 0 1-.5-.53 2.14 2.14 0 0 1-.47-1.42 2.81 2.81 0 0 1 .57-1.25 20.63 20.63 0 0 0 1.03-1.8 10.2 10.2 0 0 0 .83-2.5 4.27 4.27 0 0 0-.2-2.43l-.04-.04a.32.32 0 0 0-.02-.08 2.47 2.47 0 0 1-.18-.55q-.25-.4-.47-.8a3.55 3.55 0 0 1-.55-2.52 1.22 1.22 0 0 0-.26.2 10.35 10.35 0 0 1-.77 2.74m20.05-9.6v1.22q0 .56.04 1.07a2.58 2.58 0 0 0 .85 1.34 5.92 5.92 0 0 1 .75.78q.83 1 1.66 1.9 1 1 1.93 1.99a6.45 6.45 0 0 0 .76.7 5.89 5.89 0 0 1 .59.56v.32l-.28.4-.28.07a1.1 1.1 0 0 1-.21.1.18.18 0 0 0-.08.02l-.24.08a1.77 1.77 0 0 1-.63.1 5.28 5.28 0 0 1-1.15-.12 2.43 2.43 0 0 1-.57-.18l-.57-.33.06.33a16.25 16.25 0 0 0 2 5.36 11.33 11.33 0 0 0 .92 5.5 13.89 13.89 0 0 1 1.03 3.72q.04.7.06 1.42a8.94 8.94 0 0 1-.18 2.43l-.16 1.01a7.61 7.61 0 0 0-.16.75 1.67 1.67 0 0 0-.02.57 3.54 3.54 0 0 0 .44 1.4 1.53 1.53 0 0 0 .2.09 1.12 1.12 0 0 1 .69.21l.14.71-.26.52a1.8 1.8 0 0 0 .75.23 5.78 5.78 0 0 0 1.36.12 2.26 2.26 0 0 0 1.42-.67l-.3-.2-.27-.3a1.37 1.37 0 0 1-.12-1.14 11.4 11.4 0 0 1-1.87-9.07 7.23 7.23 0 0 1 .3-.94 4.66 4.66 0 0 1-.46-.4 3.59 3.59 0 0 1-.42-.5q-.31-.55-.57-1.08l.36-.2.73.1a6.67 6.67 0 0 0-.9-3.32q-.3-.57-.62-1.08l.89-6.62 1.24-13.95a1.39 1.39 0 0 0 .08.32l.2.61a5.32 5.32 0 0 0 .3.47 1.65 1.65 0 0 0 .37.44q.18.2.4.41v-.31l.45-.61a34.77 34.77 0 0 1 .5 7.78l.43.02a26.65 26.65 0 0 0 1.22-12.29 25.38 25.38 0 0 0-.99-4.2 14.8 14.8 0 0 1-8.45-2.52 27.84 27.84 0 0 1 1 9.23q-.13 3.6-2.9 4.43l-1.46.27v.93m3.91-25.56l-.06-.34q.24 2.47.63 5.08a8.27 8.27 0 0 1 .06 1.9l-1.12-2.9a9.62 9.62 0 0 1-.52 2.24L50.5 66a15.1 15.1 0 0 0-.93-5.56l-.5-1.52m4.32-.95a4.26 4.26 0 0 1 .23 2.84q-.11.38-.25.75a6.74 6.74 0 0 0-1.58-1.6 7.08 7.08 0 0 1-.58 5.52 5.11 5.11 0 0 1-.4.63l1.27.27a17.2 17.2 0 0 0 4.1.74q.63.04 1.3.04l.37-.58.65.56 1.07-.12q.4-.02.8-.08a54.18 54.18 0 0 1-.6-7.15q-.02-.9 0-1.78a14.54 14.54 0 0 1-3.6-.5l-2.84-1.22.06 1.68m-2.83-3.36q-.69-.45-1.32-.95l-.87-.7a8.16 8.16 0 0 1-.6-.58q-.27 1.03-.55 2.01-.3.91-.55 1.98-.28 1.18-.65 2.33-1.03 3.1-1.98 6.26l1.8-1.26.95-1.13L49 58.58v-.02l1.56-3.95M19.48 63.7a6.06 6.06 0 0 0-2.79.31 7.42 7.42 0 0 0-4.38 4.5 8.67 8.67 0 0 0 .17 6.63 1.61 1.61 0 0 0 .26.49 1.54 1.54 0 0 1 .22.38l.1.23a2.94 2.94 0 0 0 .25.46l.06.06a1.54 1.54 0 0 0 .22.37 1.89 1.89 0 0 1 .32.38 1.66 1.66 0 0 0 .35.41 1.02 1.02 0 0 1 .14.24 3.55 3.55 0 0 1 .32.31 1.82 1.82 0 0 0 .51.38.13.13 0 0 1 .06.06 1.08 1.08 0 0 1 .14.06.19.19 0 0 1 .1.08 2.52 2.52 0 0 0 .33.31.13.13 0 0 1 .06.06q-1.38-6.16.46-10.27.04 1 2.7 8.04 2.65 7 0 9.92.28.47.6.95l.04.04.11.25q.95 2.04-1.32 5.79-1.76 1.62-.43 4.23.88 2.64-.58 9.64l-.77 2.45q-.55 2.6 1.23 1.48a1.98 1.98 0 0 1-.12 2.39 3.3 3.3 0 0 1-.42.5v.13a3.75 3.75 0 0 0 4.65.06 1.65 1.65 0 0 0 .37-.32l-.24-.41a6.08 6.08 0 0 0-1.26-1.4v-.65q1.64-1.3.47-2.51l-.69-1.23a38.88 38.88 0 0 1 1.72-9.38 22.65 22.65 0 0 1 2.75-10.63 46.25 46.25 0 0 0 2.25-5q-2.59-1.16-2.21-6.87.45-8.8-1.3-13.99-.17.14-.2.14a15.14 15.14 0 0 0-1.86.83l-2.4.1m39.74-19.22a3.78 3.78 0 0 0-.32.41 3.73 3.73 0 0 0-.57 1.58 3 3 0 0 1-.08.46 1.93 1.93 0 0 0-.06.37.12.12 0 0 0-.02-.08l-.48-1.56a2.36 2.36 0 0 1-.02-1.38L57 45.42a.32.32 0 0 0 0 .16 5.8 5.8 0 0 1 .1 1.96 5.9 5.9 0 0 1-1.52 3.3 4.18 4.18 0 0 0-.45.69 4.72 4.72 0 0 1-.75 1.94l-.3.35-.6.9-.03.07 1.7.75 1.02.37a13.49 13.49 0 0 0 3.78.6l2.11-6.2a8.43 8.43 0 0 1-2.84-5.83m17.64 5.8a1.28 1.28 0 0 1-.32-.2.82.82 0 0 0-.16-.11 2.53 2.53 0 0 1-.37-.38.12.12 0 0 0-.08-.08 1.15 1.15 0 0 1-.38-.8 6.11 6.11 0 0 0-3.63 2.98 1.19 1.19 0 0 1 .14.57 1.03 1.03 0 0 1-.24.7l-.26.25a2.41 2.41 0 0 1 1.15 1.5 4.4 4.4 0 0 0 .31.6 3.58 3.58 0 0 0 1.39 1.18l.43.12 1-.06a1.89 1.89 0 0 1 .54-.36 1.53 1.53 0 0 1 .44-.14 1.1 1.1 0 0 0 .7-.45 2.08 2.08 0 0 0 .19-1.15 3.12 3.12 0 0 1 .23-1.5.08.08 0 0 0 .02-.06l.1-.25q.02-.32.02-.66a1.06 1.06 0 0 0-.12-.51.15.15 0 0 1-.02-.06.95.95 0 0 0-.35-.61l-.73-.52m-3.78 3.7l.26-.46 1.52.12q.8.9.06 1.56a.46.46 0 0 1-.28-.41q-.1-.7-.67-.65l-.37.4a.31.31 0 0 1-.06.07h-.1l-.12-.08a1.3 1.3 0 0 1-.18-.25.74.74 0 0 1-.06-.3m-7.17-19.8a10.38 10.38 0 0 0-.43-1.32q-.32-.75-.58-1.58a2 2 0 0 0-1.26 1.13 6.96 6.96 0 0 0-.45 1.04l-.24.7q-4.53-.14-8.75 4.8a10.5 10.5 0 0 0-1.09 1.5 20.24 20.24 0 0 0-1.66 2.86q-.47.89-.89 1.9-.31.7-.61 1.48l-.24.55-.83 2.04-.53 1.5q-.04 0-.04.02a11.25 11.25 0 0 0 2.04 2.15l.75.44q.6-1.5 1.32-2.93a22.98 22.98 0 0 1 6.14-7.7l1.78-1.4a.15.15 0 0 1 .02-.06.58.58 0 0 1 .16-.2v-.02a.76.76 0 0 1 .4-.24.74.74 0 0 1 .29-.06h.06a.44.44 0 0 1 .14.02l.69-.45a4.85 4.85 0 0 0 1.16.5.24.24 0 0 1 .26.07l-1.46 1.42v.02q.51.77 1.07 1.5.23.34.49.66l.57.75q.2.25.44.51.67.83 1.36 1.58l.42.4a5.56 5.56 0 0 0 .47.49q.75.71 1.52 1.38l1.27.97.94.63a.22.22 0 0 1 .1-.02 4.47 4.47 0 0 1 3.3-3.57 2.2 2.2 0 0 1 .73-.16q-.27-.44-.57-.85l-.2-.28-1-1a5.77 5.77 0 0 1-.46-1.66v-.26l-.14-2.13-.2-.2a2.74 2.74 0 0 1-.25-.38 13.18 13.18 0 0 0-.75-1.08l-.7-.75-.2-.52a3.59 3.59 0 0 1-.43-.3 6.66 6.66 0 0 0-1.97-.63 3.41 3.41 0 0 0-1.05.12q0-.25-.02-.47a2.26 2.26 0 0 0-.14-.67 17.15 17.15 0 0 1-.73-2.1.58.58 0 0 1-.02-.14m-.65.34a2.18 2.18 0 0 0 .2.7 4.99 4.99 0 0 1 .02 2.28 3.4 3.4 0 0 1-.6 1.33l-.69-.08a1.55 1.55 0 0 1-.3-.4 3.87 3.87 0 0 1-.07-2.45 12.7 12.7 0 0 0 .45-2.8l.06-.7a6.47 6.47 0 0 1 .93 2.12m4.46-2.59v-.14a1.63 1.63 0 0 0-.47.18q-.61.44-1.18.9a.75.75 0 0 0-.2.13 2.45 2.45 0 0 0-.75 1.46 1.95 1.95 0 0 1 .5.16l1.7.83a5.5 5.5 0 0 1 .54.43 2.62 2.62 0 0 0 .1-2.11 3.68 3.68 0 0 1-.24-1.36z" fill="#a77e6a"/><path class="cls-6" d="M42.9 114.45a7.02 7.02 0 0 1-.96-.18l-19.74.02.24.41a7.38 7.38 0 0 1 .81 2.7q-.57 1.55-3.48.54l-2.58-1.65.23-1.33v-.14a3.3 3.3 0 0 0 .42-.49H9.03l5.83 9.89 62.2-.05-6.04-9.96-15.88.06a2.8 2.8 0 0 1 .37.95 1.6 1.6 0 0 1-.12 1.12.61.61 0 0 0-.08.22 1.37 1.37 0 0 0 .12 1.15l.28.3.3.2a5.84 5.84 0 0 1 1.14 1.51l.32.67a4.39 4.39 0 0 1 .21.77.58.58 0 0 1-.02.14 1.92 1.92 0 0 1-.77.34 5.5 5.5 0 0 1-2.76-.16 10.48 10.48 0 0 1-1.8-.79 1.13 1.13 0 0 1-.73-1.24 1.42 1.42 0 0 1 .24-.32q.17-.18.33-.32l.3-.3.26-.5-.14-.72a1.12 1.12 0 0 0-.7-.21 1.53 1.53 0 0 1-.2-.08 3.54 3.54 0 0 1-.43-1.4 1.67 1.67 0 0 1 .02-.58 7.61 7.61 0 0 1 .16-.75h-5.57a.08.08 0 0 0-.04.08l-.06.12a2.11 2.11 0 0 1-.83.12 15.24 15.24 0 0 1-2.03-.14"/><path d="M32 61.49a22.75 22.75 0 0 0-3.4.05.02.02 0 0 0-.01.02v.12a.15.15 0 0 0 .01.06q.64 4.21 6.2 5.34a8.63 8.63 0 0 0-.57-.95q-.31-.46-.59-.95a16.29 16.29 0 0 1-1.64-3.7z" fill="#999"/><path class="cls-1" d="M58.63 72.79l.1-.08 2.6-3.18-2.84-2.4-.65-.55-.37.58-2.2 3.25 3.36 2.38m.81-3.2l-.93 1.36-1.36-1.03.9-1.34z"/><path class="cls-8" d="M58.51 70.95l.93-1.37-1.38-1-.91 1.34 1.36 1.03"/><path class="cls-9" d="M39.37 66.36q-.4-.92-.77-1.9a8.6 8.6 0 0 0-2.59.13q-1.16.27-2.37.59.28.5.6.95a8.63 8.63 0 0 1 .57.95 17.12 17.12 0 0 0 2.84 3.61l.26.24a12.76 12.76 0 0 1 2.33 2.4 1.61 1.61 0 0 1 .22.46 3.53 3.53 0 0 1-.2 2.33 5.35 5.35 0 0 0-.28 3.22l.06.26a.44.44 0 0 0 .02.14l.12.37.14.54.99.53a6.56 6.56 0 0 0 1.54.46v-.42q0-1.2.08-2.45.06-.8.06-1.56a5.7 5.7 0 0 1 .37-1.84 5.09 5.09 0 0 0 .36-1.6 2.01 2.01 0 0 0-.75-1.68 10.45 10.45 0 0 1-1.45-1.4 7.07 7.07 0 0 1-1.28-2.23q-.4-1.07-.87-2.1m-7.62-32.31a28.21 28.21 0 0 0-4.92 8.51q-.91 2.27 1.4 4.66a19.09 19.09 0 0 0 6.46 5.04l.18.1v-.06a3.32 3.32 0 0 1 2.45-3.42 14.23 14.23 0 0 0-3.2-3.34 10.75 10.75 0 0 1-2.93-3.24q-1.34-2.15 2.16-5.65-.7-1.2-1.6-2.6"/><path class="cls-3" d="M62.17 41.81a1.08 1.08 0 0 0-.28-.73.98.98 0 0 0-.5-.28.44.44 0 0 0-.13-.02h-.06a.74.74 0 0 0-.3.06.76.76 0 0 0-.4.24v.02a.58.58 0 0 0-.15.2.15.15 0 0 0-.02.06.87.87 0 0 0-.12.45 1 1 0 0 0 .3.73l.02.02a.9.9 0 0 0 .57.3h.1a.92.92 0 0 0 .7-.32 2.15 2.15 0 0 1 .15-.18v-.02a1.18 1.18 0 0 0 .12-.53"/><path class="cls-9" d="M53.1 40.45a3.39 3.39 0 0 1-.5-.68 43.65 43.65 0 0 0-4.95-7.28 45.74 45.74 0 0 0 1.64 8.37q.77.87 1.42 1.56a1.13 1.13 0 0 1 .18.18l.24.34a1.35 1.35 0 0 0 .31.37 20.24 20.24 0 0 1 1.66-2.86"/><path class="cls-3" d="M70.7 51.21a.22.22 0 0 0-.1.02.9.9 0 0 0-.37.24 1 1 0 0 0-.28.53.8.8 0 0 0-.04.26 1 1 0 0 0 .1.41.5.5 0 0 0 .16.28 2.03 2.03 0 0 0 .41.32l.32.12a.96.96 0 0 0 .38-.12.7.7 0 0 0 .27-.06l.26-.26a1.03 1.03 0 0 0 .24-.69 1.19 1.19 0 0 0-.14-.57l-.18-.22a1.03 1.03 0 0 0-.75-.32.7.7 0 0 0-.28.06z"/><path d="M45.46 80.83h-.06l-.02.2a1.64 1.64 0 0 1-.75.4 3.32 3.32 0 0 1-1.09.23q-.02 1-.02 2.13 0 1.66-.1 3.38a2.38 2.38 0 0 0 1.27 2.35 3.16 3.16 0 0 1 1.7 2.47 2.4 2.4 0 0 0 .84 1.56 12.34 12.34 0 0 0 1.45 1.06l.69.02a5.06 5.06 0 0 0 2.35-.59 5.89 5.89 0 0 0-.6-.55 6.45 6.45 0 0 1-.75-.71q-.92-1-1.93-2-.83-.89-1.66-1.9a5.92 5.92 0 0 0-.75-.77 2.58 2.58 0 0 1-.85-1.34q-.04-.51-.04-1.07v-2.2l.37-.43a2.38 2.38 0 0 0 .14-.8v-1.2z" fill="#ccc"/><path d="M40.32 80.65l-.14-.54q-.26.12-.51.26l.02.57q.06.87.06 1.1a.66.66 0 0 0 .13.4q0 .03.06.08a6.57 6.57 0 0 0 .58.54l.17.16a6.26 6.26 0 0 0 .76.33l-.68.04.16.89.14.7a5 5 0 0 1 .12 1.83l-.26 1.54a8.97 8.97 0 0 0-.18 1.98A3.65 3.65 0 0 0 41 91.7a.5.5 0 0 0 .06.12.73.73 0 0 0 .32.31 3.3 3.3 0 0 0 1.6.54l.65-.06-.06-.97a3.83 3.83 0 0 1 .41.14l.34.3 3.4 2.4.57.34a2.43 2.43 0 0 0 .57.18 5.28 5.28 0 0 0 1.15.12 1.77 1.77 0 0 0 .63-.1l.24-.08a.18.18 0 0 1 .08-.02 1.1 1.1 0 0 0 .21-.1l.28-.08.28-.4v-.3a5.06 5.06 0 0 1-2.35.58l-.7-.02a12.34 12.34 0 0 1-1.44-1.06 2.4 2.4 0 0 1-.85-1.56 3.16 3.16 0 0 0-1.7-2.47 2.38 2.38 0 0 1-1.26-2.35q.1-1.72.1-3.38 0-1.13.02-2.13l-.7-.02a6.56 6.56 0 0 1-1.53-.46z" fill="#efeaf0"/><path d="M40.46 73.8a8.38 8.38 0 0 0-2.2 1.57 13.3 13.3 0 0 0-1.73 2.04q-.77 1.14-1.58 2.2h5.1l-.07-.27a5.35 5.35 0 0 1 .28-3.22 3.53 3.53 0 0 0 .2-2.33m6.2-17.42q.26-1.07.55-1.98l.56-2.01a7.15 7.15 0 0 1 .25-.81 8.17 8.17 0 0 1-2.98.79q-.73 2.69-1.3 5.47a28.6 28.6 0 0 0-.6 5.18q-.04 1.08-.05 2.17a5.61 5.61 0 0 0 .9.2.77.77 0 0 0-.06-.16.95.95 0 0 1 .1-.26q.95-3.16 1.98-6.26.37-1.15.65-2.33m-5.61-5.26a1.8 1.8 0 0 1 .1.58 9.31 9.31 0 0 0 1.5.45q.2-1.05.44-2.1a12.72 12.72 0 0 1-1.72-.3l.02.11.02.38a1.4 1.4 0 0 1-.36.88M28.6 61.74a1.56 1.56 0 0 0-.25.02 40.29 40.29 0 0 1 .95 8.3l.06.95a20.67 20.67 0 0 0 2.45.5 11.64 11.64 0 0 0 2.78.05 6.32 6.32 0 0 0 1.6-.45 6.57 6.57 0 0 1 1.46-.42 17.12 17.12 0 0 1-2.84-3.61q-5.57-1.13-6.2-5.34m0-.2a22.75 22.75 0 0 1 3.4-.05 20.77 20.77 0 0 1 2.94.31q1.38-2.5 2.58-5.08a8.5 8.5 0 0 1 .9-1.5 2.62 2.62 0 0 0 .3-.43 6.5 6.5 0 0 0 .38-.6 6.1 6.1 0 0 1-1.2 0h-.02a18.46 18.46 0 0 1-1.84-.92 4.96 4.96 0 0 1-1.18-.97v.06l-.18-.1a57.48 57.48 0 0 1-4.66 7.53q-.73.93-1.43 1.75z" fill="#d09b07"/><path class="cls-3" d="M41.37 49.73h-.04a.5.5 0 0 1 .06.12l-.02-.12M31.8 71.5a20.67 20.67 0 0 1-2.44-.5l.3 6.13a2.29 2.29 0 0 0 2.52 2.47h2.77q.8-1.05 1.58-2.2a13.3 13.3 0 0 1 1.73-2.03 8.38 8.38 0 0 1 2.2-1.58 1.61 1.61 0 0 0-.22-.45 12.76 12.76 0 0 0-2.33-2.41l-.26-.24a6.57 6.57 0 0 0-1.46.42 6.32 6.32 0 0 1-1.6.45 11.64 11.64 0 0 1-2.78-.06"/><path class="cls-13" d="M61.9 41.08a1.08 1.08 0 0 1 .27.73 1.18 1.18 0 0 1-.12.53l3.52-3.16c1.6-1.3 4.82-.6 4.72-.58-.42-.12-.22-1.11-3.47-1.3l-.22 1.34-2.18 1.2-.67-.7-.89.61.4 1.2-1.2-.57-.66.42a.98.98 0 0 1 .5.28"/><path class="cls-3" d="M43.09 38.2a.69.69 0 0 0-.48-.16.74.74 0 0 0-.47.15.68.68 0 0 0-.18.48.53.53 0 0 0 .18.41.65.65 0 0 0 .47.2.6.6 0 0 0 .48-.2.5.5 0 0 0 .2-.41.65.65 0 0 0-.2-.48"/><path class="cls-3" d="M45.93 30.96l-.04-.02-.12-.6-1.46-.52-.02-.02a1.44 1.44 0 0 1-.43-.24l-.04-.04a.69.69 0 0 1-.22-.16 3.02 3.02 0 0 1-.18-.31l.1.25.22.58a1.7 1.7 0 0 1 .06 1.16 4.56 4.56 0 0 1-.87 1.45 2.81 2.81 0 0 1-2.3.8 2.14 2.14 0 0 1-2.05-1.04 2.92 2.92 0 0 1-.5-1.29l-.03-.02v-.37a.43.43 0 0 0-.14-.12l-.38-.26-.02-.04h-.04q-.15.12-.31.22l-.22.1q-.24.16-.5.3-.33.2-.68.37a4.33 4.33 0 0 0 .11 1.17 6.53 6.53 0 0 0 1.47 2.76 5.22 5.22 0 0 0 .94.85l1.03.95q.85.8 1.62 1.64l1.27-1.74a.44.44 0 0 1 .2-.04l1.77 1.07a17.42 17.42 0 0 0 1-2.5 4.33 4.33 0 0 0 .23-1 .03.03 0 0 1 .04-.04 6.04 6.04 0 0 0 .49-3.3M65.5 64.73a2.89 2.89 0 0 1-.29.2 11.94 11.94 0 0 1-4.86 2q-.4.07-.79.09l-1.07.12 2.85 2.39-2.6 3.18-.1.08-3.37-2.38 2.2-3.25q-.67 0-1.3-.04a17.2 17.2 0 0 1-4.1-.74l-1.26-.27-.26.2-.06-.3-2.45-1.1q-.25.63-.57 1.26a.97.97 0 0 1-.06.1l1.03 3.16a.32.32 0 0 0 .06.2 14.8 14.8 0 0 0 8.45 2.5 25.38 25.38 0 0 1 1 4.21 26.65 26.65 0 0 1-1.23 12.29 7.17 7.17 0 0 0 .75.04 3.77 3.77 0 0 0 .53-.04 4.96 4.96 0 0 0 .93-.14l.53-.14a8.59 8.59 0 0 0 1.2-.5 23.19 23.19 0 0 0 .22-16.27 16.37 16.37 0 0 0 5.67-2.3.22.22 0 0 1 .1-.01.19.19 0 0 1 .08-.1q.52-3.06-1.22-4.44"/><path class="cls-13" d="M70.9 53.39l-.32-.12a2.03 2.03 0 0 1-.41-.32.5.5 0 0 1-.16-.28l-.37.28-.06.04-.75.53a18 18 0 0 1-4.17 2.22 13.1 13.1 0 0 1-4.72.77 13.49 13.49 0 0 1-3.78-.6q-.51-.2-1.02-.37l-1.7-.75.04-.06-2.4-1.34-.74-.44a10.56 10.56 0 0 1-2.13-1.92l-.19.54a7.15 7.15 0 0 0-.25.8 8.16 8.16 0 0 0 .59.58l.87.71q.63.5 1.32.95a27.15 27.15 0 0 0 2.77 1.68l2.84 1.22a14.54 14.54 0 0 0 3.6.5 23.1 23.1 0 0 0 2.78-.18 14.95 14.95 0 0 0 2.22-.43 11.82 11.82 0 0 0 4.82-2.57 2.27 2.27 0 0 1 .31-.3q0-.02.06-.06a2.52 2.52 0 0 1 .32-.33l.63-.75"/><path class="cls-3" d="M48.3 50.8q0-.02.04-.02l.53-1.5a5.77 5.77 0 0 1-1.16.45 11.04 11.04 0 0 1-4.62.32q-.24 1.04-.44 2.1a9.31 9.31 0 0 1-1.5-.46 1.2 1.2 0 0 1-.26.75 2.16 2.16 0 0 0-.16.18.68.68 0 0 1 0 .7 3.73 3.73 0 0 1-.8.64 2.18 2.18 0 0 1-.82.24 6.5 6.5 0 0 1-.37.59 2.62 2.62 0 0 1-.32.43 8.5 8.5 0 0 0-.89 1.5q-1.2 2.57-2.58 5.08A13.31 13.31 0 0 1 40 63.7a13.5 13.5 0 0 0 3.09 1.48q.01-1.09.05-2.17a28.6 28.6 0 0 1 .6-5.18q.57-2.78 1.3-5.47a9.1 9.1 0 0 0 3.07-1.03"/><path d="M30.16 59.2s6.1-.76 10.1 1.42a31.7 31.7 0 0 1 4.27 2.49l-.73 2.38s-4.56-2.47-5.5-2.78-4.49-1.56-7.07-1.38l-2.58.18z" fill="#e6e6e6"/><path class="cls-13" d="M70.6 51.23l-.94-.63-1.27-.97q-.77-.67-1.52-1.38a5.56 5.56 0 0 1-.47-.5l-.42-.39q-.69-.75-1.36-1.58-.24-.26-.44-.51l-.57-.75q-.26-.32-.5-.66-.55-.73-1.06-1.5a2.15 2.15 0 0 0-.16.18.92.92 0 0 1-.69.32h-.1q.5.94 1.05 1.8l.57.86a20.4 20.4 0 0 0 4.98 5.1 15.62 15.62 0 0 0 1.38.9 9.15 9.15 0 0 0 .87.48 1 1 0 0 1 .28-.53.9.9 0 0 1 .37-.24m4.13-3.75a2.2 2.2 0 0 0-.73.16 4.47 4.47 0 0 0-3.3 3.57.7.7 0 0 1 .28-.06 1.03 1.03 0 0 1 .75.32l.18.22a6.11 6.11 0 0 1 3.63-2.99v-.49a2.1 2.1 0 0 0-.08-.41l-.43-.26a.43.43 0 0 1-.3-.06z"/><path d="M40 63.7a13.31 13.31 0 0 0-5.05-1.9 20.77 20.77 0 0 0-2.95-.3 16.29 16.29 0 0 0 1.64 3.69q1.2-.32 2.37-.6a8.6 8.6 0 0 1 2.6-.11q.37.97.76 1.9.48 1.02.87 2.09a7.07 7.07 0 0 0 1.28 2.23 10.45 10.45 0 0 0 1.45 1.4 2.01 2.01 0 0 1 .75 1.68 5.09 5.09 0 0 1-.36 1.6 5.7 5.7 0 0 0-.37 1.84q0 .75-.06 1.56-.08 1.25-.08 2.45v.42l.69.02a3.32 3.32 0 0 0 1.09-.22 1.64 1.64 0 0 0 .75-.42l.02-.2v-.05l.06-.22q.06-.38.11-.93 0-.34.04-.75a9.25 9.25 0 0 1 .6-2.8 5.82 5.82 0 0 0 .2-.64 7.8 7.8 0 0 0 .23-1.9l-.26-1.9a20.28 20.28 0 0 0-1.18-3.03 19.76 19.76 0 0 1-.91-2.3q-.16-.45-.3-.92a5.61 5.61 0 0 1-.9-.2A13.5 13.5 0 0 1 40 63.7m11.44-20.4a1.35 1.35 0 0 1-.31-.37l-.24-.34a1.13 1.13 0 0 0-.18-.18q-.65-.69-1.42-1.56.53 2.02 1.26 4.35.42-1.01.9-1.9m-17.97-.55l1.76-2.12a23.8 23.8 0 0 0-1.9-3.99q-3.5 3.5-2.15 5.65a10.75 10.75 0 0 0 2.93 3.24 14.23 14.23 0 0 1 3.2 3.34.97.97 0 0 1 .1-.06.2.2 0 0 1 .1-.04 23.88 23.88 0 0 0-4.04-6.02m14.13-11.68a13.08 13.08 0 0 0 .04 1.4 43.65 43.65 0 0 1 4.96 7.3 3.39 3.39 0 0 0 .5.67 10.5 10.5 0 0 1 1.08-1.5q-.38-.81-.77-1.55-.77-1.38-1.66-2.7a9.5 9.5 0 0 0-2.12-2.3 12.51 12.51 0 0 0-2.03-1.32z" fill="#980805"/><path class="cls-8" d="M33.35 36.65a23.8 23.8 0 0 1 1.9 4A74.75 74.75 0 0 1 38 49.37h.89q.02 0 .02-.04h.14q.03 0 .03-.02a.77.77 0 0 1 .16-.06 47.97 47.97 0 0 0-4.72-17.66 28.9 28.9 0 0 0-9.56-12.17l-.99 4.94 2.06 2.03q3.45 4.29 5.7 7.65.91 1.4 1.6 2.6"/><path class="cls-6" d="M24.23 21.94a35.24 35.24 0 0 1 11.54 17.28c3.6 11.61 2.67 11.68 2.67 11.68l.6-2.14a43.87 43.87 0 0 0-5.6-19.48c-4.81-7.67-8.55-9.88-8.55-9.88z"/><path class="cls-8" d="M45.77 17.67a4.38 4.38 0 0 0-2.92-.63v-.02q-.08-.04-.08-.08a3.37 3.37 0 0 0-2.79-1.17 2.5 2.5 0 0 0-2.09 1.39 2.11 2.11 0 0 0-1.5.04 1.9 1.9 0 0 0-1.35 1.48q-.13.75-.23 1.58l-.2.14-.14.69a1.28 1.28 0 0 0-.35 1.83.51.51 0 0 0 .21.18 1.75 1.75 0 0 0 .16 1.78 2.07 2.07 0 0 0 .99.65l.26.06.15-1.4.24-.52a1.3 1.3 0 0 0 .08-.13 1.12 1.12 0 0 1 .18-.18l.12-.12a4.75 4.75 0 0 1 .89-.6 1.89 1.89 0 0 1 .49-.23 4.77 4.77 0 0 1 .7-.2 1.05 1.05 0 0 1 .2-.06 2.26 2.26 0 0 1 .32-.02.94.94 0 0 1 .26-.04q.26-.02.55-.02a.32.32 0 0 0 .08.02 1.15 1.15 0 0 1 .32.04.83.83 0 0 1 .26.08q.47.2.94.44l.18.1h.06l.02.04a3.55 3.55 0 0 1 .32.31l.31.44.16.2.22.45q.1.24.18.5v.07a.15.15 0 0 1 .02.06.32.32 0 0 1 .06.2v.06l.04.04v.02l1.16.12.36.75.02.02a4.35 4.35 0 0 0 1.62 1.71q.67.3.88.04.32.44 1.15-.31.8-.75.2-2.27l-.04-.02-.2-.3a4.16 4.16 0 0 0 .26-2.43 2.83 2.83 0 0 0-1.29-2.02l-.13-.05a2.67 2.67 0 0 0-1.3-2.71z"/><path d="M35.87 32.3a4.33 4.33 0 0 1-.11-1.16 12.32 12.32 0 0 1-1.23.46 47.97 47.97 0 0 1 4.72 17.66l.85-.8.42.07.25.23v.56l.42.13a2.7 2.7 0 0 1 .14.28h.04a28.38 28.38 0 0 1-2.14-11.42q.02-.7.08-1.44l-1.03-.95a5.22 5.22 0 0 1-.94-.85 6.53 6.53 0 0 1-1.47-2.76m10.02-1.37l.04.02a6.04 6.04 0 0 1-.5 3.3.03.03 0 0 0-.03.04 4.33 4.33 0 0 1-.22 1 9.7 9.7 0 0 0 .02 1.37 61.54 61.54 0 0 0 2.5 13.06 5.77 5.77 0 0 0 1.17-.45l.83-2.04.24-.55q.3-.77.61-1.48-.73-2.33-1.26-4.35a45.74 45.74 0 0 1-1.64-8.37 13.08 13.08 0 0 1-.04-1.4.2.2 0 0 0-.08-.05l-.51-.25-.04-.02-1.2-.44z" fill="#0d3a12"/><path d="M42.4 36.73a.44.44 0 0 0-.2.04l-1.27 1.74q.9.99 1.72 2.04.89-1.53 1.52-2.75l-1.78-1.07"/><path d="M42.61 38.04a.69.69 0 0 1 .48.15.65.65 0 0 1 .2.48.5.5 0 0 1-.2.41.6.6 0 0 1-.48.2.65.65 0 0 1-.47-.2.53.53 0 0 1-.18-.41.68.68 0 0 1 .18-.48.74.74 0 0 1 .47-.15m30.72 15.48l-.26.46a.74.74 0 0 0 .06.3 1.3 1.3 0 0 0 .18.25l.12.08h.1a.31.31 0 0 0 .06-.08l.37-.4q.57-.03.67.66a.46.46 0 0 0 .28.41q.73-.67-.06-1.56z"/><path d="M44.25 25.26l-1.16-.12a7.8 7.8 0 0 1 .31 2.58v.32l-.06.26.38.37a3.18 3.18 0 0 0 2.25 1.09q1.3-.02 1.18-1.28l-.02-.04v-.66q-.21.26-.88-.04a4.35 4.35 0 0 1-1.62-1.71L44.6 26l-.36-.75" fill="#a67c52"/><path d="M40.77 48.76l-.25-.23-.42-.06-.85.79a.77.77 0 0 0-.16.06q0 .02-.03.02h-.14q0 .04-.02.04H38a.4.4 0 0 1-.17-.04.12.12 0 0 1-.1-.06.59.59 0 0 0-.08-.06.5.5 0 0 1-.23-.4.97.97 0 0 0-.1.06 3.32 3.32 0 0 0-2.45 3.42 4.96 4.96 0 0 0 1.18.97 18.46 18.46 0 0 0 1.84.93h.02a6.1 6.1 0 0 0 1.2 0 2.18 2.18 0 0 0 .81-.24 3.73 3.73 0 0 0 .81-.63.68.68 0 0 0 0-.71 2.16 2.16 0 0 1 .16-.18 1.2 1.2 0 0 0 .26-.75 1.8 1.8 0 0 0-.1-.58 1.4 1.4 0 0 0 .36-.88l-.02-.38a.5.5 0 0 0-.06-.12 2.7 2.7 0 0 0-.14-.28l-.42-.13v-.56m-2.19-26.55a4.77 4.77 0 0 0-.69.2 1.89 1.89 0 0 0-.5.24 4.75 4.75 0 0 0-.88.59l-.12.12a1.12 1.12 0 0 0-.18.18 1.3 1.3 0 0 1-.08.13l-.24.52-.15 1.4a.71.71 0 0 0 .06.5.5.5 0 0 0 .05.11l.1.2a.13.13 0 0 1 .06.08.78.78 0 0 0 .1.12v.37a1.68 1.68 0 0 0 0 .52l.02.04v.14l.04.01a.2.2 0 0 0 .02.12.92.92 0 0 1 .02.18l.04.02v.12l.02.04v.1a1 1 0 0 0 .12.23v.06a1.65 1.65 0 0 1 .14.24l.35.71.28.44a.31.31 0 0 0 .12.08.92.92 0 0 1 .18.13h.05l.02.04.38.26a.43.43 0 0 1 .14.12v.37l.04.02a2.92 2.92 0 0 0 .5 1.29 2.14 2.14 0 0 0 2.05 1.05 2.81 2.81 0 0 0 2.29-.81 4.56 4.56 0 0 0 .87-1.45 1.7 1.7 0 0 0-.06-1.16l-.22-.58-.1-.25a.15.15 0 0 1-.02-.06 1.79 1.79 0 0 1-.06-.7l.06-.25v-.32a7.8 7.8 0 0 0-.31-2.58q-.1-.06-.04-.12a.32.32 0 0 0-.06-.2.15.15 0 0 0-.02-.06v-.08l-.18-.5-.22-.45-.16-.2q-.13-.2-.31-.43a3.55 3.55 0 0 0-.32-.31l-.02-.04h-.06l-.18-.1q-.47-.24-.94-.44a.83.83 0 0 0-.26-.08 1.15 1.15 0 0 0-.32-.04.32.32 0 0 1-.08-.02q-.3 0-.55.02a.94.94 0 0 0-.26.04 2.26 2.26 0 0 0-.31.02 1.05 1.05 0 0 0-.22.06" fill="#f3bc84"/><path class="cls-9" d="M39.06 36.6l1.87 1.91 1.27-1.74 1.97 1.03.99-2.8s-3.47 2.58-6.1 1.6z"/><path id="mazzo_asset_m_NoveSpade_line_0_Layer0_0_1_STROKES" data-name="mazzo asset m NoveSpade line 0 Layer0 0 1 STROKES" class="cls-19" d="M35.64 25.51l-.26-.06a2.07 2.07 0 0 1-.99-.65 1.75 1.75 0 0 1-.15-1.78.51.51 0 0 1-.22-.17 1.28 1.28 0 0 1 .35-1.84l.34-.83q.1-.83.24-1.58a1.9 1.9 0 0 1 1.34-1.48 2.11 2.11 0 0 1 1.5-.04 2.5 2.5 0 0 1 2.1-1.39 3.37 3.37 0 0 1 2.78 1.17q0 .04.08.08v.02a4.38 4.38 0 0 1 2.92.63 2.67 2.67 0 0 1 1.3 2.7l.15.07a2.83 2.83 0 0 1 1.28 2.01 4.16 4.16 0 0 1-.26 2.43l.2.3.04.02q.6 1.52-.2 2.27-.83.75-1.14.31v.66l.02.04v.25a.28.28 0 0 1-.02.12v.04a2.94 2.94 0 0 0-.06.3.84.84 0 0 1-.3.37.11.11 0 0 1-.08.02l-.06.06a.16.16 0 0 1-.12.04.08.08 0 0 1-.06.02.7.7 0 0 1-.17.06h-.28a1.54 1.54 0 0 1-.55-.02 1.06 1.06 0 0 0-.26-.06.5.5 0 0 0-.12-.06l-.27-.12q-.32-.17-.76-.45a9.58 9.58 0 0 1-.7-.75 1.79 1.79 0 0 0 .05.69.15.15 0 0 0 .02.06 3.02 3.02 0 0 0 .18.32.69.69 0 0 0 .22.15l.04.04a1.44 1.44 0 0 0 .43.24l.02.02.38.14.6.2.48.17 1.2.44.05.02.51.25a.2.2 0 0 1 .08.04 12.51 12.51 0 0 1 2.04 1.33 9.5 9.5 0 0 1 2.1 2.29q.9 1.32 1.67 2.7.4.74.77 1.55 4.23-4.94 8.75-4.8l.24-.7a6.96 6.96 0 0 1 .45-1.04 2 2 0 0 1 1.27-1.13q.25.83.57 1.58a10.38 10.38 0 0 1 .43 1.33.58.58 0 0 0 .02.13l1.19.14a2.46 2.46 0 0 1 .75-1.46.75.75 0 0 1 .2-.14q.57-.45 1.18-.89a1.63 1.63 0 0 1 .48-.18v.62a3.68 3.68 0 0 0 .23 1.36 2.62 2.62 0 0 1-.1 2.11 2.89 2.89 0 0 0 2.43.58 1.84 1.84 0 0 1 .32.08 2.97 2.97 0 0 1 .73.63l.42.8a5.26 5.26 0 0 0 .83 1.27l-1.5.34a1.87 1.87 0 0 1-1.21-.91.7.7 0 0 0-.18-.24.45.45 0 0 0-.2-.08l-1.22.02.2.52.69.75a13.18 13.18 0 0 1 .75 1.08 2.74 2.74 0 0 0 .26.38l.2.2.07 1.04.04.85.02.24v.26a5.77 5.77 0 0 0 .46 1.66l1 1 .2.28q.3.42.57.85h.04a.57.57 0 0 1 .26.06l.43.26a2.1 2.1 0 0 1 .08.41v.5a1.15 1.15 0 0 0 .38.8.12.12 0 0 1 .08.08 2.53 2.53 0 0 0 .37.38.82.82 0 0 1 .16.12 1.28 1.28 0 0 0 .32.2l.73.5a.95.95 0 0 1 .35.62.15.15 0 0 0 .02.06 1.06 1.06 0 0 1 .12.51q0 .34-.02.66l-.1.25a.08.08 0 0 1-.02.06 3.12 3.12 0 0 0-.23 1.5 2.08 2.08 0 0 1-.18 1.15 1.1 1.1 0 0 1-.71.45 1.53 1.53 0 0 0-.44.14 1.89 1.89 0 0 0-.53.36l-1 .06a4.15 4.15 0 0 0-.32.4 3.89 3.89 0 0 1-1.3.92 1.81 1.81 0 0 1-.46.14l-.48-.1-.27-.34a1.66 1.66 0 0 1-1.35-.33.31.31 0 0 1-.07-.12 23.42 23.42 0 0 1-.58-2.53M55.5 79.66a33.75 33.75 0 0 1-1.32 18.65l-.08.5a4.43 4.43 0 0 0 .04 1.18 3.5 3.5 0 0 0 .1.63 6.65 6.65 0 0 1 .21 1.98q-.06.96-.06 1.75l.2 4.98q.06 1.88.16 3.77a2.66 2.66 0 0 0 .04.44 1 1 0 0 0 .18.53.31.31 0 0 0 .08.12l15.88-.06 6.14 10.04-62.3-.03-5.83-9.89h8.81a1.98 1.98 0 0 0 .12-2.39q-1.78 1.13-1.23-1.48l.77-2.45q1.47-7 .58-9.64-1.33-2.6.43-4.23 2.27-3.75 1.32-5.79-.05-.14-.11-.25l-.04-.04a28.71 28.71 0 0 1-1.52-2.67 18.9 18.9 0 0 1-4.65-4.9 6.93 6.93 0 0 1-1.02-5.35 8.67 8.67 0 0 1-.18-6.62 7.42 7.42 0 0 1 4.38-4.5 6.06 6.06 0 0 1 2.79-.32q1.18-.06 2.39-.1a15.15 15.15 0 0 1 1.86-.83.08.08 0 0 0 .06-.02 10.26 10.26 0 0 1 4.56-.99 1.57 1.57 0 0 1 .26-.02.15.15 0 0 1-.02-.06v-.11a.02.02 0 0 1 .02-.02q.69-.83 1.42-1.76a57.48 57.48 0 0 0 4.66-7.53 19.09 19.09 0 0 1-6.46-5.04q-2.31-2.39-1.4-4.66a28.21 28.21 0 0 1 4.92-8.51q-2.25-3.36-5.71-7.65l-2.06-2.03.5-2.51.5-2.43a28.9 28.9 0 0 1 9.55 12.17 12.32 12.32 0 0 0 1.23-.46q.35-.17.69-.37.26-.14.5-.3l.21-.1.32-.21h-.02a.9.9 0 0 0-.09-.08 4.14 4.14 0 0 1-1.08-2.2 7.2 7.2 0 0 0-.18-1.32 3.47 3.47 0 0 1-.37-.97l.08-.9s.3-2.91 4.45-2.5c3.74.36 3.04 5.9 3.04 5.9m31.72 19.45a.43.43 0 0 1-.3-.06 2.2 2.2 0 0 0-.73.16 4.47 4.47 0 0 0-3.3 3.57.7.7 0 0 1 .28-.06 1.03 1.03 0 0 1 .75.32l.18.22a6.11 6.11 0 0 1 3.63-2.98m-1.14 4.16a2.33 2.33 0 0 1 1.6 1.8l.12.55-.52.5-.83.06-.23.27m-2.63-4.36a1.19 1.19 0 0 1 .14.57 1.03 1.03 0 0 1-.24.7l-.26.25a2.41 2.41 0 0 1 1.15 1.5 4.4 4.4 0 0 0 .31.6 3.58 3.58 0 0 0 1.39 1.18l.43.12m1.54-.42a2.08 2.08 0 0 0 .42-1.6 1.49 1.49 0 0 0-.1-.25m-33.84-37.3a3.77 3.77 0 0 0-.32.55 9.07 9.07 0 0 0-.75 2.1 5.09 5.09 0 0 1 1.58 1.18 3.15 3.15 0 0 0 .38.32l.04.02a1.18 1.18 0 0 0 .22.23l.5.58a5.5 5.5 0 0 1 .54-.44 4.78 4.78 0 0 1 1.84-1.14l.2-.06m1.16 4.5a1.29 1.29 0 0 1-.14-.12l-1.4-.33a8.3 8.3 0 0 1-1.34-.52 1.52 1.52 0 0 1-.32.95.97.97 0 0 1-.79.4l.36.75.02.02a4.35 4.35 0 0 0 1.62 1.72 1.33 1.33 0 0 0 .83.03m-1.72-3.87a1.44 1.44 0 0 0-.06-.41 6.41 6.41 0 0 0-.8-1.48m-.25 3.24l-.94-.1m-5.83 5h.04l.02.03.37.26a.43.43 0 0 1 .14.12l.12.12a.15.15 0 0 0 .06.02l.17.14a1.14 1.14 0 0 0 .18.17.06.06 0 0 0 .04.02.97.97 0 0 0 .1.06.88.88 0 0 0 .44.24.08.08 0 0 0 .05.02h.42q.04 0 .04-.02a1.02 1.02 0 0 0 .5-.18 2.76 2.76 0 0 0 .29-.25.08.08 0 0 0 .06-.02.82.82 0 0 0 .12-.16.08.08 0 0 0 .06-.02l.17-.2q.02 0 .06-.04a2.02 2.02 0 0 1 .34-.33.57.57 0 0 0 .18-.18.08.08 0 0 0 .02-.06.25.25 0 0 0 .1-.06l.31-.4a.08.08 0 0 0 .02-.06.13.13 0 0 0 .06-.07 1.02 1.02 0 0 0 .14-.24q.04 0 .04-.02a1.3 1.3 0 0 0 .2-.44.5.5 0 0 1 .05-.11.92.92 0 0 1 .02-.18m-4.36 2.25v.38l.04.02a2.92 2.92 0 0 0 .5 1.28 2.14 2.14 0 0 0 2.05 1.05 2.81 2.81 0 0 0 2.29-.81 4.56 4.56 0 0 0 .87-1.45 1.7 1.7 0 0 0-.06-1.16l-.22-.57-.1-.26m1.27.9a8.47 8.47 0 0 1-.38 2.04A4.42 4.42 0 0 1 43 33.7a3.1 3.1 0 0 1-2.2.87 3.5 3.5 0 0 1-2.49-.97l-.03-.04a5.97 5.97 0 0 1-.6-.83 3.9 3.9 0 0 1-.61-2.43m8.61-.04l.12.62.04.02a6.04 6.04 0 0 1-.5 3.3.03.03 0 0 0-.03.03 11.96 11.96 0 0 1-1.23 3.5q-.63 1.23-1.52 2.75-.83-1.05-1.72-2.04a28.87 28.87 0 0 0-2.64-2.59 5.22 5.22 0 0 1-.95-.85 6.53 6.53 0 0 1-1.46-2.76 4.33 4.33 0 0 1-.12-1.17m9.54-.98a7.03 7.03 0 0 1-.57 3.35 3.67 3.67 0 0 1-2.47 2.16 4.32 4.32 0 0 1-5.1-2.22 8.04 8.04 0 0 1-.67-2.05l-.04-.04v-.6m8.95 3.54a4.26 4.26 0 0 1-2.1 2.1 5.08 5.08 0 0 1-.9.33l1.77 1.07m-1.77-1.07a.44.44 0 0 0-.2.04l-1.27 1.74m1.68.77a.65.65 0 0 1-.47-.2.53.53 0 0 1-.18-.41.68.68 0 0 1 .18-.47.74.74 0 0 1 .47-.16.69.69 0 0 1 .48.16.65.65 0 0 1 .2.47.5.5 0 0 1-.2.41.6.6 0 0 1-.48.2zm6.26 10a11.11 11.11 0 0 1-7.54.45 1.35 1.35 0 0 1-.28 1.39 1.8 1.8 0 0 1 .1.57 8.53 8.53 0 0 0 6.88-.12l.27-.77q0-.02.04-.02l.53-1.5.83-2.04.24-.55q.3-.77.61-1.48Q47.35 35 47.51 31m11.66 13.56a8.1 8.1 0 0 0 3.4 6.1 9.77 9.77 0 0 0 2.86 1.38 4.88 4.88 0 0 1 2.78.97l.52.44.75-.54.06-.04q.17-.14.37-.27a1 1 0 0 1-.1-.42.8.8 0 0 1 .04-.26 9.15 9.15 0 0 1-.87-.47 15.61 15.61 0 0 1-1.38-.9 20.4 20.4 0 0 1-4.98-5.1l-.57-.87q-.55-.85-1.05-1.8a.9.9 0 0 1-.57-.3 2.54 2.54 0 0 1-.12.77.13.13 0 0 1-.06.06q-.35.32-.7.67a4.46 4.46 0 0 0-.76.83 3.73 3.73 0 0 0-.57 1.58 3 3 0 0 1-.08.46 1.93 1.93 0 0 0-.06.37.12.12 0 0 0-.02-.08l-.47-1.56a2.36 2.36 0 0 1-.02-1.38l-.68 1.15a.32.32 0 0 0 0 .15 5.8 5.8 0 0 1 .1 1.96 5.9 5.9 0 0 1-1.52 3.3 4.18 4.18 0 0 0-.45.69 4.72 4.72 0 0 1-.75 1.94l-.3.35-.59.83.4.3c.56.26.68.34 1.26.59l1.02.38a13.47 13.47 0 0 0 8.5-.18 5.87 5.87 0 0 1 .87-3.62m-10.41-.59q-.06-.53-.16-1.05a13.89 13.89 0 0 0-.65-2.47m-3.76-2.8a24.77 24.77 0 0 1 3.64-6.26m12.4-.5l.22-.89q0-.25-.02-.47a2.26 2.26 0 0 0-.14-.67 17.15 17.15 0 0 1-.73-2.1m1.19.14a1.95 1.95 0 0 1 .5.16l1.71.83a5.5 5.5 0 0 1 .53.43m.42 2.5a3.59 3.59 0 0 1-.44-.3 6.66 6.66 0 0 0-1.97-.64 3.41 3.41 0 0 0-1.05.12m-3.87-3.41a6.94 6.94 0 0 1-.38.85 4.7 4.7 0 0 0-.39 2.23 1.6 1.6 0 0 0 .2.7 2.92 2.92 0 0 0 1.2 1.13l.2.12a1.18 1.18 0 0 1 .75.85q.2-.16.43-.31a10.35 10.35 0 0 1 1.86-.97 4.16 4.16 0 0 1 1.76-.36l.45.06a4.16 4.16 0 0 1 1.45.44m-5.02-3.68a4.99 4.99 0 0 1 .02 2.3 3.4 3.4 0 0 1-.6 1.32l-.69-.08a1.55 1.55 0 0 1-.3-.4 3.87 3.87 0 0 1-.07-2.45 12.7 12.7 0 0 0 .45-2.8l.06-.7a6.47 6.47 0 0 1 .93 2.12 2.18 2.18 0 0 0 .2.7zm-4.92 7.35l-.02-.02a1.04 1.04 0 0 1-.16-1.24c.1-.32.56-.46.56-.46a.74.74 0 0 1 .3-.06.95.95 0 0 1 .68.3 1.08 1.08 0 0 1 .28.73 1.18 1.18 0 0 1-.12.53l1.46-1.42a.24.24 0 0 0-.25-.08 4.04 4.04 0 0 1-1.72-.89l-.58-.8a2.3 2.3 0 0 1-.17-1.17 2.3 2.3 0 0 0-.08-.85m-3.04 7.15a2.34 2.34 0 0 1 .5-.83 1.34 1.34 0 0 0 .3-.43 6.08 6.08 0 0 0 .26-1.47 18.15 18.15 0 0 1 .16-2m4.62 1.37l.06.1a6.2 6.2 0 0 1-.65-2.2m.57 2.08l1.03-.87M61 42.78h.1a.92.92 0 0 0 .7-.32 2.16 2.16 0 0 1 .15-.18v-.02m10.12-1.06c-1.92.37-.5 2.68-.5 2.68a5.14 5.14 0 0 0 1.29 1.39m-2.26 5.86a.22.22 0 0 0-.1.02.9.9 0 0 0-.37.24 1 1 0 0 0-.28.53m-35.61-28.9l.96.46a2.22 2.22 0 0 1-.25-1.48 2.4 2.4 0 0 1 .59-1.3 5.69 5.69 0 0 1 2.31-1.4 2.54 2.54 0 0 1 .45-.03 4.66 4.66 0 0 1-.5-2.2m3.88 2.54l-.79-.02a4.85 4.85 0 0 1-2.59-.32m-2.5 4.84l-.42-.4a.79.79 0 0 1-.1-.11.31.31 0 0 1-.08-.12m-.77 8.04a47.97 47.97 0 0 1 4.72 17.66l.85-.8.42.07.26.23v.56l.41.14a2.7 2.7 0 0 1 .14.27m.87-12.96a5.1 5.1 0 0 1-3.91-.85m-.38 13.28a66.22 66.22 0 0 0-2.67-8.55l-1.75 2.1a23.88 23.88 0 0 1 4.03 6.03.2.2 0 0 0-.1.04.5.5 0 0 0 .23.4.59.59 0 0 1 .08.06.12.12 0 0 0 .1.06 1 1 0 0 0 .28.04h.57a66 66 0 0 0-4.33-14.03l-.45-.89a34.64 34.64 0 0 0-9.42-12.6m14.77 27.4a.77.77 0 0 0-.15.06q0 .02-.04.02h-.14q0 .04-.02.04h-.22m2.1-.06a2.02 2.02 0 0 1-1.21 1.2 5.94 5.94 0 0 0-.57.2m2.05.4a4.75 4.75 0 0 1-1.68.6 2.48 2.48 0 0 1-.51.15m-3.62-11.22a31.55 31.55 0 0 0-3.5-6.6m9.41 17.64a1.2 1.2 0 0 1-.26.75 2.15 2.15 0 0 0-.15.18.68.68 0 0 1 0 .7 3.73 3.73 0 0 1-.81.64 3.92 3.92 0 0 1-2.02.24h-.02a18.46 18.46 0 0 1-1.84-.93 4.96 4.96 0 0 1-1.18-.97v.06l-.18-.1m6.05.36h-.04a7.46 7.46 0 0 1-1.35.51q-.3 0-.57.02m-10.43 8.61a40.29 40.29 0 0 1 .95 8.3l.35 7.07a2.29 2.29 0 0 0 2.53 2.47h7.86l-.06-.26a5.35 5.35 0 0 1 .28-3.22 2.96 2.96 0 0 0-.02-2.78 12.76 12.76 0 0 0-2.33-2.41 15.4 15.4 0 0 1-3.1-3.85q-5.57-1.13-6.2-5.34M34.7 67a8.63 8.63 0 0 0-.57-.95 17.36 17.36 0 0 1-2.24-4.64 22.75 22.75 0 0 0-3.4.06m15.14 3.93a12.06 12.06 0 0 1-3.74-1.78 15.72 15.72 0 0 0-8-2.21m-12.84 3.93l.18-.18a15.19 15.19 0 0 1 2.53-1.64m-2.7 1.82a5.3 5.3 0 0 0-.52.45q-4.74 4.6-2.73 13.55a2.76 2.76 0 0 1-.05-.37l.11.63.12.44a27.7 27.7 0 0 0 2.06 5.27m-2.3-6.03a2.52 2.52 0 0 1-.33-.31.19.19 0 0 0-.1-.08 1.08 1.08 0 0 0-.14-.06.13.13 0 0 0-.06-.06 1.82 1.82 0 0 1-.51-.37 3.55 3.55 0 0 0-.32-.32 1.02 1.02 0 0 0-.14-.24 1.65 1.65 0 0 1-.35-.41 1.89 1.89 0 0 0-.32-.38 1.54 1.54 0 0 1-.21-.37l-.06-.06a2.94 2.94 0 0 1-.26-.46l-.1-.23a1.54 1.54 0 0 0-.22-.38 1.61 1.61 0 0 1-.25-.5m27.83 5.52l-.14-.53q-.25.11-.51.25.08 1.38.08 1.66a.67.67 0 0 0 .2.5 6.57 6.57 0 0 0 .57.53l.18.16a4.32 4.32 0 0 0 2.29.59 8.1 8.1 0 0 0 2.15-.32l.38-.43a2.52 2.52 0 0 0 .13-1.03v-.97l-.25-.3-.02.26a1.64 1.64 0 0 1-.75.42 4.45 4.45 0 0 1-3.32-.26zm-.28-1.05a.44.44 0 0 0 .02.14l.12.38m-22.34 34.21a3.3 3.3 0 0 1-.42.5v.13a3.75 3.75 0 0 0 4.65.06 1.65 1.65 0 0 0 .37-.31l-.23-.42a6.08 6.08 0 0 0-1.27-1.4v-.65q1.64-1.3.48-2.51l-.7-1.23q.8-8.67 2.6-11.1.4-.75.78-1.42.36-.6.63-1.17L25 94a10.35 10.35 0 0 0 .77-2.74 1.22 1.22 0 0 1 .26-.2 21.33 21.33 0 0 0 1.6-1.7 16.4 16.4 0 0 0 1.5-2.21 10.76 10.76 0 0 0 1.22-3.48h-1.91q-3.74-.34-3.3-7.13.45-8.8-1.44-13.87m5.43 24.48l1.9 6.02.05.18-.04.08q1.05.69.46 3.14-1.8 3.58 1.07 5.45a21.92 21.92 0 0 1 5.39 5.77 2.2 2.2 0 0 1 .32.7q.53 1.53.98 3.11l1.39-.25.1.45-.08.26a7.38 7.38 0 0 1 1.6-.83 7.09 7.09 0 0 1 1.87-.4l-.67-.5a6.3 6.3 0 0 0-.63-1.26 8.11 8.11 0 0 0-1.05-1.28.31.31 0 0 0-.12-.08 4.12 4.12 0 0 1-1.02-1.16q-.44-.71-.85-1.3-.73-1.13-1.56-2.22l-1.37-1.78a4.6 4.6 0 0 1-.06-5.06 14.96 14.96 0 0 0 2.47-5.23 10.97 10.97 0 0 0 .73-4.25 18.84 18.84 0 0 1-7.33-3.06l-2.33.02m10.26-.53l.23 1.26.14.7a5 5 0 0 1 .12 1.83l-.26 1.54a8.97 8.97 0 0 0-.17 1.98 3.65 3.65 0 0 0 .23 1.18.8.8 0 0 0 .38.44 3.3 3.3 0 0 0 1.6.53l.65-.06-.06-.97a3.83 3.83 0 0 1 .42.14l.33.3 3.4 2.4.57.34a2.43 2.43 0 0 0 .57.18 5.28 5.28 0 0 0 1.15.12 1.77 1.77 0 0 0 .63-.1l.24-.08a.18.18 0 0 1 .08-.02 1.1 1.1 0 0 0 .22-.1l.27-.08.28-.4v-.3a5.9 5.9 0 0 0-.6-.56 6.45 6.45 0 0 1-.74-.71q-.93-.99-1.94-2-.83-.89-1.66-1.9a5.92 5.92 0 0 0-.75-.76 2.58 2.58 0 0 1-.85-1.35q-.04-.51-.04-1.06V83.4m-3.95 3.52q-.57-.1-1.09-.22m.34-3.14l-7.67.08M69.91 52.6a.5.5 0 0 0 .16.27 2.03 2.03 0 0 0 .42.32l.31.12a.96.96 0 0 0 .38-.12.7.7 0 0 0 .27-.06m-23.52-1.64a7.15 7.15 0 0 0-.26.81 8.16 8.16 0 0 0 .6.57l.86.71a23.7 23.7 0 0 0 4.09 2.63l2.84 1.23a16.74 16.74 0 0 0 6.38.31 14.95 14.95 0 0 0 2.22-.43 11.82 11.82 0 0 0 4.82-2.57q.33-.36.69-.7l.63-.74m3.62 3.61l-.9.08-.03-.02-.54-.12a.31.31 0 0 1-.2-.12l-.55-.47v-.06a.98.98 0 0 1-.13-.2v-.04a8.03 8.03 0 0 1-.32-1 2.97 2.97 0 0 1-.12-.66M58.41 70.87l-1.36-1.03.91-1.34 1.38 1zm-.01-3.81l2.84 2.39-1.88 2.25a2.55 2.55 0 0 1 .32-.02l1.1-.18a16.37 16.37 0 0 0 5.68-2.29.22.22 0 0 1 .1-.02.19.19 0 0 1 .07-.1q.52-3.06-1.22-4.44a2.89 2.89 0 0 1-.3.2 11.81 11.81 0 0 1-5.65 2.09l-1.06.12-.66-.56-.37.58-2.2 3.26 2.4 1.71.17.12.8.54.1-.08.57-.7.15-.23m5.75-6.86a16.93 16.93 0 0 0-.45-7.52m-.1-1.66a18 18 0 0 0 4.17-2.21m-15.35 1.2l-3.14-1.78a11.25 11.25 0 0 1-2.04-2.15m.67 7.7v.04l.01.07a1.63 1.63 0 0 0 .07.3q.26.8.52 1.53a15.1 15.1 0 0 1 .92 5.57l.32.1a5.11 5.11 0 0 0 .4-.63 7.08 7.08 0 0 0 .57-5.51 3.23 3.23 0 0 1-1.23-2.04l-.11-.63m2.94.67l-.06-1.68m.06 1.68a4.26 4.26 0 0 1 .24 2.84l-.26.76a6.74 6.74 0 0 0-1.58-1.6m-6.58 8.63c-.17-.26-1.3-3.03-1.3-3.03l.02-.21a.44.44 0 0 1 .02-.14q.67-2.41 1.46-4.8.79-2.33 1.38-4.68l.77-2.79.22-.57m-.61 12.78l.04 1.42a2.84 2.84 0 0 0 .27-.41 9.82 9.82 0 0 0 1.09-3.52m-2.73 2.08l-.02 1.12a4.8 4.8 0 0 0 .52 2.61l.83-3.3m1.82-6.55q.26 2.5.65 5.05a8.27 8.27 0 0 1 .05 1.9l-1.12-2.9m-2.73 2.07a21.43 21.43 0 0 0-.63 3.63v.24a13.94 13.94 0 0 1 1.4 4.29 7.34 7.34 0 0 1-.4 3.18 9.24 9.24 0 0 0-.58 2.8q-.06 1.07-.16 1.68l-.06.22m2.01-14.15l1.03 2.8a.32.32 0 0 0 .06.2 14.8 14.8 0 0 0 8.45 2.51h.72m-.2-4.97q-.67 0-1.3-.04a17.2 17.2 0 0 1-4.1-.73l-1.26-.28-.26.2-.06-.3-2.27-1.03m.28 4.65a27.84 27.84 0 0 1 1 9.22q-.13 3.6-2.9 4.43l-1.1.2m10.96 5.09a2.34 2.34 0 0 0 .26.06 25.68 25.68 0 0 0 .23-16.5m-.23 16.5a7.17 7.17 0 0 0 .75.04 23.87 23.87 0 0 0 1.72-8.3 24.94 24.94 0 0 0-1.35-8.12m1.94-.5a21.4 21.4 0 0 1 1.2 8.86 23.6 23.6 0 0 1-1.52 7.74 8.59 8.59 0 0 0 1.2-.5 23.19 23.19 0 0 0 .23-16.27m-3.42 17.1a3.77 3.77 0 0 0 .53-.04l.93-.14.53-.14m1.2-.5l.3-.13.26-.08.4-.18q.73-.41 1.38-.87a15.08 15.08 0 0 0 1.44-1.16 13.23 13.23 0 0 0 2.17-2.57q.36-.53.7-1.09l.43-1.77a18.42 18.42 0 0 0-1.18-10.71m-4.94 18.17l2.76 1.96q.65.47 1.29.9l3.9 2.46a8.47 8.47 0 0 1 1.02.73q.77.61 1.52 1.3a10.02 10.02 0 0 1 .02 1.39 3.68 3.68 0 0 1-.4 1.28 15.48 15.48 0 0 1-1.18 2.01 6.44 6.44 0 0 0-.54 1.01 12.74 12.74 0 0 1-2 3.08 2.53 2.53 0 0 1-.57.5 2.26 2.26 0 0 0-.7.87 2.3 2.3 0 0 0 .3.65.2.2 0 0 1-.07.32.32.32 0 0 1-.41-.12.81.81 0 0 0-.58-.32 3.28 3.28 0 0 0-1.48-.2 4.03 4.03 0 0 0-.83 2.65q0 .81.02 1.6a3.4 3.4 0 0 0 .44 1.56 8.37 8.37 0 0 0 2.09-1.1 4.18 4.18 0 0 1 1.44-.62 2.36 2.36 0 0 0 1.2-.43.67.67 0 0 0 .32-.61.9.9 0 0 1 .36-.76l-.54-.33m.54.33a1.4 1.4 0 0 0 1.56-.79 2.67 2.67 0 0 0 .33-.98q.1-.64.22-1.15a14.58 14.58 0 0 1 1.05-3.04l.41-.91 1.37-2.9a3.37 3.37 0 0 1 .69-.97 4.34 4.34 0 0 0 1.3-2.77.97.97 0 0 0-.35-.9 4.23 4.23 0 0 0-.52-.38 11.04 11.04 0 0 1-2.49-2.33l-1.26-1.56a11.31 11.31 0 0 1-1.38-2l-1.39-2.73a6.17 6.17 0 0 0-.69-1.1q-.53-.67-1.08-1.29M37.3 48.74a3.35 3.35 0 0 0-2.54 3.48m12.84 42.2l.06.33a16.25 16.25 0 0 0 2 5.36 11.33 11.33 0 0 0 .92 5.5 13.89 13.89 0 0 1 1.03 3.72q.04.7.06 1.42a8.94 8.94 0 0 1-.18 2.43l-.16 1.01a7.62 7.62 0 0 0-.16.75 1.67 1.67 0 0 0-.02.57 3.54 3.54 0 0 0 .44 1.4 1.53 1.53 0 0 0 .2.09 1.12 1.12 0 0 1 .69.21l.14.71-.26.52a1.8 1.8 0 0 0 .75.24 5.78 5.78 0 0 0 1.36.11 2.26 2.26 0 0 0 1.43-.67l-.3-.2-.28-.3a1.4 1.4 0 0 1-.04-1.35 1.6 1.6 0 0 0 .12-1.13 2.8 2.8 0 0 0-.37-.95M43.52 92.54l.7-.53m11.69 26.11a5.84 5.84 0 0 1 1.14 1.52q.22.44.32.68a4.39 4.39 0 0 1 .22.77.58.58 0 0 1-.02.13 1.92 1.92 0 0 1-.78.34 5.5 5.5 0 0 1-2.76-.16 10.48 10.48 0 0 1-1.8-.79 1.13 1.13 0 0 1-.73-1.24 1.42 1.42 0 0 1 .24-.32l.33-.32.3-.3m-11.71-6.37a1.4 1.4 0 0 0-.18.47 1.63 1.63 0 0 0 .35 1.35 5.32 5.32 0 0 0 1.01.31 7.03 7.03 0 0 0 .97.18 15.24 15.24 0 0 0 2.03.14 2.11 2.11 0 0 0 .83-.12l.06-.12a.08.08 0 0 1 .04-.08 2.23 2.23 0 0 0-.35-1.38q-.44-.77-.91-1.48-.18-.26-.38-.5m7.21 3.36h-5.57m-17.4-13.77v.02q0-.02.04-.02a9.07 9.07 0 0 0 2.62-6.93v-.06l-.02-.26m-5 11.82a3.9 3.9 0 0 1 .32.25q-.08-.35-.12-.67-.05-.89-.05-1.74a3.45 3.45 0 0 1 2.15-2.37v-.02a6.81 6.81 0 0 0 .26-1.08 10.66 10.66 0 0 0 .17-1.62 3.06 3.06 0 0 0-.95-2.41l-.01-.02-.74-.93a2.47 2.47 0 0 0 .18.55.32.32 0 0 1 .02.08l.04.04a4.27 4.27 0 0 1 .2 2.43 10.2 10.2 0 0 1-.83 2.5 20.63 20.63 0 0 1-1.03 1.8 2.81 2.81 0 0 0-.57 1.25 2.14 2.14 0 0 0 .47 1.42 1.97 1.97 0 0 0 .5.54zm1.03-10.61q-.25-.4-.47-.8a3.55 3.55 0 0 1-.55-2.52M24.99 94a3.09 3.09 0 0 1 .83 2.16 2.91 2.91 0 0 1-1 2.33q-.2.2-.4.37a.59.59 0 0 1-.06.08h-.04a1.96 1.96 0 0 1-.14.16.13.13 0 0 0-.06.06.2.2 0 0 0-.08.14 2.26 2.26 0 0 0-.24 2.66 4.64 4.64 0 0 0 .7 2.53 2.76 2.76 0 0 0 1.44 1.27 1.82 1.82 0 0 1 1.08 1.38 3.34 3.34 0 0 1-.05-.36 3.36 3.36 0 0 0-.64-1.54m-2.13-6.2l.06-.06h-.02q0 .02-.04.02v.04a.08.08 0 0 0-.02.06m-.29.27L24 95.9a3.48 3.48 0 0 1 .2 3.2m.08-.13v.01h-.02m-6.94 15.9l-.23 1.33 2.59 1.66q2.9 1 3.47-.56a7.38 7.38 0 0 0-.8-2.68m-.24-.42l19.73-.02"/><path class="cls-19" d="M62.05 42.34s4.2 6.58 8.2 8.71m-8.32-10.72l-.53.47"/><path class="cls-20" d="M36.28 26.38a1.36 1.36 0 0 0 1.25-.43m3.38-1s-1.57-1-2.26.18a1.68 1.68 0 0 0 .12.92"/><path class="cls-20" d="M35.83 25.55a3.04 3.04 0 0 1 1.73-.22 8.8 8.8 0 0 0 .28 2.41c.26.3.9-.16.9-.16s.38.18.55-.08a.47.47 0 0 0-.03-.52"/><path d="M40.03 24.63s.3.67-.05.88-.7.16-.77.04a1.1 1.1 0 0 1-.22-.43c-.04-.21-.04-.24.14-.37l.19-.13zm-3.12.77s.3.32.13.62a.56.56 0 0 1-.66.25.9.9 0 0 1-.33-.6.35.35 0 0 1 .1-.23z"/><ellipse class="cls-1" cx="39.38" cy="24.98" rx=".18" ry=".17" transform="rotate(-10.22 39.38 24.98)"/><ellipse class="cls-1" cx="36.53" cy="25.66" rx=".17" ry=".16" transform="rotate(-10.22 36.53 25.66)"/><path class="cls-19" d="M40.78 23.76s-1.98.03-2.25.76"/><path class="cls-20" d="M39.36 29.56s-.7-.19-1 .03"/><path class="cls-19" d="M35.74 24.88a1.6 1.6 0 0 1 1.6-.07"/><path d="M39.14 27.71a1.8 1.8 0 0 1 1.23.23.83.83 0 0 0 1.06-.2 2.15 2.15 0 0 1-2.34 1.1c-.07-.04-.48-.2-.63 0s-1.5 1.1-2.32-.02a1.24 1.24 0 0 0 .94-.02c.5-.27.42-.76.98-.95a2.77 2.77 0 0 1 1.08-.14z" stroke-width=".3" stroke="#000" stroke-linecap="round" stroke-linejoin="round" fill="#a67c52"/><path class="cls-19" d="M63.67 39.1l-.63.52"/><path class="cls-20" d="M68.29 44.83s-1.4 1.27-2.57.57a2.27 2.27 0 0 1-1.26-1.76 2.94 2.94 0 0 1 1.3.11 6.9 6.9 0 0 1 2.53 1.08zm-3.9-2.07s4.2-.78 3.85 2.18"/><path d="M67.11 45a.96.96 0 0 1-1.18.55.86.86 0 0 1-.59-1.06c.1-.78.53-.75 1.06-.6s1.04.31.71 1.1z"/><path class="cls-20" d="M72.38 42.34s-.6-.43-1.18.38"/><path d="M72.4 43a.72.72 0 0 1-.44.9c-.34.08-.6-.22-.7-.65s0-.83.34-.9a.74.74 0 0 1 .8.64z"/><path d="M44.9 45.84a.67.67 0 0 1 .5.2.79.79 0 0 1 .2.51.67.67 0 0 1-.2.5.62.62 0 0 1-.5.23.66.66 0 0 1-.5-.24.67.67 0 0 1-.19-.49.79.79 0 0 1 .2-.51.71.71 0 0 1 .5-.2z" stroke-width=".4" stroke="#000" stroke-linecap="round" stroke-linejoin="round" fill="#febf10"/><path class="cls-19" d="M30.39 59.24s5.42-.98 9.56 1.24 4.45 2.45 4.45 2.45m22.06 42.79a3 3 0 0 0 2.3 3.14"/></g></g></svg>