<svg xmlns="http://www.w3.org/2000/svg" viewBox="0 0 87 140"><defs><style>.cls-1{fill:#fff}.cls-5{fill:#d09b07}.cls-18,.cls-6{fill:#febf10}.cls-19{fill:#a67c52}.cls-14,.cls-15{fill:none}.cls-14,.cls-15,.cls-18,.cls-19{stroke:#000;stroke-linecap:round;stroke-linejoin:round}.cls-14,.cls-18,.cls-19{stroke-width:.4px}.cls-15{stroke-width:.3px}.cls-16{fill:#fbc219}</style></defs><g id="Livello_2" data-name="Livello 2"><g id="Livello_1-2" data-name="Livello 1"><rect class="cls-1" width="87" height="140" rx="6" ry="6"/><path d="M40.25 116.88a10.47 10.47 0 0 1-.77 1.28 9.7 9.7 0 0 1-3.26 2.8 2.83 2.83 0 0 0-.27.11h-.04l-1.93.74q-2.61.54-1.95-.85a24.78 24.78 0 0 0 4.15-5.04H14.52l-.02 8.19h60.34l.02-8.2h-18a17.91 17.91 0 0 1 2.05 2.03q.62 1.41-1.66 1.05a9.47 9.47 0 0 1-5.94-2.5l-1 .45-.37-.06-2.43-.56a1.54 1.54 0 0 1-.06-.4h-4.8l-.14.56-1.31.73-.95-.33m19.9-54.74a11.07 11.07 0 0 0-.23 3.67 15.21 15.21 0 0 1-.33 5.21 7.46 7.46 0 0 0-.21 1.41q-.1 1.72-.12 3.42l-.38 8.49 1.68 3.42a7.16 7.16 0 0 1 .54 3.97q1.62-1.14 1.5-4.73l-2.45-24.86m-36.06 20.3l-.1 1.01a82.01 82.01 0 0 0-.17 14.48 9.52 9.52 0 0 1 2.05-3.77q-.1-1.04-.25-2.04-.18-1.37-.31-2.8-.3-2.82-.44-5.77L24.6 72.3q0 3.41-.28 7.4l-.24 2.73v.02m11.2-33.63a4.04 4.04 0 0 1-.3.64l-.34.64a2.02 2.02 0 0 1-.25.3l-.46.66a.27.27 0 0 1 .04.16.81.81 0 0 1 .02.19l-.06.62-.45.44-.5-.08a5.32 5.32 0 0 1-.21.56l1.43 8.3a18.08 18.08 0 0 0 2 1.18l-.19-1.12q0-1.23.1-2.47a23.31 23.31 0 0 1 1-5.44 13.66 13.66 0 0 1 .85-2.18 6.19 6.19 0 0 1-.8-.72 5.02 5.02 0 0 1-1.2-1.83l-.26-1.26-.1.37-.32 1.04M21.26 21.1l-2.36-2.8.12 46.35c.77-.11 1.41-1.24 1.93-1.46l.3-42.11m22.98 22.25a4.97 4.97 0 0 1 1.46 3.6 4.87 4.87 0 0 1-1.06 3.12 10.4 10.4 0 0 1 2.05 2.68 4.8 4.8 0 0 1 .56 2.01 2.66 2.66 0 0 0 .05.56 13.73 13.73 0 0 1 .3 1.9q.23 2.13.67 4.31l.06 1.51a20.3 20.3 0 0 0 2.74-1.47l.71-9q-.34-.47-.67-.98a14.61 14.61 0 0 1-1.41-2.54q-.5-1.28-.87-2.51l-.29-1.45a.72.72 0 0 0-.02-.17 8.4 8.4 0 0 1-1.27-.33 3.73 3.73 0 0 1-.95-.45 8.38 8.38 0 0 0-2.45-1.15l.39.36z" fill="#004da1"/><path d="M42.7 113.56l-1.68.35a2.04 2.04 0 0 0-1.33 1.02v.49a2.58 2.58 0 0 1-.6 1.62l-1 1.58a5.14 5.14 0 0 1-.7.87 4.97 4.97 0 0 0-1.17 1.47 9.7 9.7 0 0 0 3.26-2.8 10.47 10.47 0 0 0 .77-1.28l.95.33 1.3-.73q.09-.3.14-.56a7.02 7.02 0 0 0 .06-2.36m7.18.02a2.58 2.58 0 0 0-.75-.85q-.75-.34-1.49-.65a8.63 8.63 0 0 0-.2 3.84 1.54 1.54 0 0 0 .07.4l2.43.56a4.48 4.48 0 0 1 0-1.75 5.07 5.07 0 0 0 .06-1.16.68.68 0 0 0-.12-.39z" fill="#ccc"/><path d="M38.4 112.68q-.31.27-.6.57a7.73 7.73 0 0 0-1.35 2.28 2.07 2.07 0 0 0-.27.39 24.78 24.78 0 0 1-4.15 5.04q-.66 1.39 1.95.85l1.93-.74h.04a2.83 2.83 0 0 1 .27-.11 4.97 4.97 0 0 1 1.17-1.47 5.14 5.14 0 0 0 .7-.87l1-1.58a2.58 2.58 0 0 0 .6-1.62v-.49a2.04 2.04 0 0 1 1.33-1.02l1.68-.35a2.39 2.39 0 0 0-.25-.8 1.76 1.76 0 0 0-.17-.32.58.58 0 0 1-.08.06.94.94 0 0 0-.1.06 3.84 3.84 0 0 1-3.68.12h-.02m9.78-1.22a2.83 2.83 0 0 1-.27-.12 6.17 6.17 0 0 0-.27.74q.74.3 1.49.65a2.58 2.58 0 0 1 .75.85.68.68 0 0 1 .12.39 5.07 5.07 0 0 1-.06 1.16 4.48 4.48 0 0 0 0 1.75l.37.06 1-.44a9.47 9.47 0 0 0 5.94 2.49q2.28.36 1.66-1.05a17.91 17.91 0 0 0-2.04-2.02 16.35 16.35 0 0 0-3.86-2.4 3.03 3.03 0 0 1-1.2-2.02.17.17 0 0 0-.08.02.24.24 0 0 0-.13.04.08.08 0 0 0-.06.02 6.33 6.33 0 0 1-1.23.17 5.35 5.35 0 0 1-2.13-.3m2.57-66.4h-.15a2.34 2.34 0 0 0-.3-.03 2.37 2.37 0 0 1-.42-.04h-.33q-.29-.02-.56-.06l-.48-.01a.72.72 0 0 1 .02.17l.29 1.45q.37 1.23.87 2.5a14.61 14.61 0 0 0 1.4 2.55l.68.99.8.9q.23.28.5.55l-.08.34v.02a.87.87 0 0 0 .13.95l.49.42.13.06.27-.06a2.73 2.73 0 0 0 .62-.79 2.65 2.65 0 0 0 .17-.33 4.54 4.54 0 0 1 .99-1.15l.29-.24a9.48 9.48 0 0 1 2.18-.94.36.36 0 0 1 .11-.02 1.52 1.52 0 0 1 .49 0 .91.91 0 0 0 0-1.22l-.04-.04-.72-.13-.11-.5a10.97 10.97 0 0 0-1.06-2.72 18.25 18.25 0 0 0-1.26-2.09l-1.66-.17-3.26-.37m-14.01-1.23a6.94 6.94 0 0 1-.91.27q-.43.1-.83.23a4.94 4.94 0 0 0-.62 0h-.62l-1.04-.14a1.41 1.41 0 0 0-.37-.1q-.98-.17-1.94-.38a5.91 5.91 0 0 0-2.42-.15l-.19.54q-.08.34-.14.71a9.68 9.68 0 0 0-.1 1.37 22.12 22.12 0 0 0 .12 2.28l-.34.27-.16.64.1.27q.08.38.62.44l.44.04a6.55 6.55 0 0 1 2.74.92q.5.31.97.66.42.33.8.68l.14.03.5.08.45-.44.06-.62a.81.81 0 0 0-.02-.2.27.27 0 0 0-.04-.15l.46-.65a2.02 2.02 0 0 0 .25-.31l.35-.64a4.04 4.04 0 0 0 .29-.64l.33-1.04.1-.37a3.17 3.17 0 0 1-.05-.48l.1-.89a8.21 8.21 0 0 1 .2-.84 6.4 6.4 0 0 1 .3-.68z" fill="#efeaf0"/><path class="cls-5" d="M47.26 104.12a13.3 13.3 0 0 0 .61-8.49 5.74 5.74 0 0 0-.36-1.06 59.24 59.24 0 0 0-.43 8.26 9.16 9.16 0 0 0 .18 1.3M54 55.74q.4.39.83.76 1.68 1.5 3.51 2.99l1.53 1.18a.3.3 0 0 1 .12.07 5.04 5.04 0 0 0 .5.37q1.77 1.31 3.68 2.57a2.6 2.6 0 0 1-.83-1.05 2.66 2.66 0 0 0-.73-.94q-.39-.35-.77-.64a7.51 7.51 0 0 0-.97-.75q-2.4-1.64-4.69-3.5a3.65 3.65 0 0 1-.67-.8l-.89-1.05a2.73 2.73 0 0 1-.62.8M34.67 79.4a.38.38 0 0 1-.23.06.72.72 0 0 0-.17.02h-.22a7.62 7.62 0 0 0 .06.94q.16 1.91.48 3.96.25 1.62.64 3.3l.27-3.24a15.3 15.3 0 0 1 1.12-2.9.98.98 0 0 1 .39-.44 1.3 1.3 0 0 1 1.23-.27 1.9 1.9 0 0 1 .3.42 9.76 9.76 0 0 1 1.15 3.53 17.16 17.16 0 0 1 .02 1.84q-.06 1.46-.17 2.97-.06.89-.06 1.8a25.25 25.25 0 0 0 .17 3.28 18.57 18.57 0 0 0 1.28 4.86 2.56 2.56 0 0 1 .17.85 21.06 21.06 0 0 1-.08 3.36 23.34 23.34 0 0 0 .12 5.52q.02.56.02 1.14a3.14 3.14 0 0 0 .94 2.16.94.94 0 0 1 .1-.06 30.04 30.04 0 0 1-.25-3.24 30.6 30.6 0 0 1 .38-5.02 13.43 13.43 0 0 0 .45-7.45 10.08 10.08 0 0 1-.5-4.61 44.18 44.18 0 0 0 1.54-7.05q.39-2.93.5-6.23.35 2.12.7 4.5.11.92.33 1.89l.32 1.4.35-1.35a8.2 8.2 0 0 1 1.24-3.07q.48-.67.92-1.35a.97.97 0 0 1 1.45-.4 4.39 4.39 0 0 0 .25.64 5.66 5.66 0 0 1 .56 1.48l.77 3.15a31.49 31.49 0 0 1 .04 4.92 1.51 1.51 0 0 1-.13.46 11.57 11.57 0 0 0-.68 2.82 4.92 4.92 0 0 0 .1 1.43l.15 1.06a30.06 30.06 0 0 1 .18 3.24q0 2.51-.12 4.87-.14 2.3-.37 4.61l-.07 2.55a6.33 6.33 0 0 0 1.23-.17.08.08 0 0 1 .06-.02.21.21 0 0 1 .02-.1q.2-1.14.37-2.3a115.97 115.97 0 0 0 1.13-13.35.63.63 0 0 1 .06-.27.45.45 0 0 1 .04-.08 6.04 6.04 0 0 0 .23-1.91q-.06-1.16 0-2.38.06-.9.1-1.85.06-1.08.2-2.08.09-.6.15-1.24l.1-.75q.05-.68.07-1.37.06-1.06.06-2.13v-1.44L54.1 79l-.45-.1h-.05a2.52 2.52 0 0 1-.49-.07.2.2 0 0 0-.11-.04.38.38 0 0 0-.18-.04 3.04 3.04 0 0 0-.6-.06l-.57-.02h-.06l-1.22-.05h-.05q-.8-.04-1.59-.04a1.87 1.87 0 0 0-.36.04 5.81 5.81 0 0 1-1.07.05 9.2 9.2 0 0 0-1.17.08 5.61 5.61 0 0 1-1.07.1l-.75-.02a2.37 2.37 0 0 0-.42-.04h-.06a3.84 3.84 0 0 0-.4-.06h-.12l-1.16-.06q-.52 0-1.06-.03a2.34 2.34 0 0 1-.3-.02 6.13 6.13 0 0 0-.7-.04 6.29 6.29 0 0 0-.7.04h-.2l-.69.05h-.29a2.03 2.03 0 0 0-.54.12l-.52.12h-.13a1.52 1.52 0 0 1-.24.05l-.57.12h-.12a2.6 2.6 0 0 1-.3.06.74.74 0 0 0-.24.06 1.37 1.37 0 0 1-.17.05 3.06 3.06 0 0 1-.6.1.2.2 0 0 0-.12.04m-4.42-24.77q-.7 1.12-1.45 2.18a9.94 9.94 0 0 1-1.64 2.13 2.59 2.59 0 0 0-.38.44l-.22.23a12.27 12.27 0 0 0-1.96 3.19l.83.7.01-.03.93-.9a40.86 40.86 0 0 0 3.88-4.87 25.07 25.07 0 0 0 2.53-4.75 5.32 5.32 0 0 0 .21-.56l-.13-.03q-.39-.35-.81-.68a14 14 0 0 1-.91 1.53z"/><path class="cls-6" d="M48.18 80.92q-.44.68-.92 1.35a8.2 8.2 0 0 0-1.24 3.07l-.35 1.35.45 1.63a47.62 47.62 0 0 1 1.25 5.23 9.7 9.7 0 0 1 .14 1.02 5.74 5.74 0 0 1 .36 1.06 13.3 13.3 0 0 1-.61 8.5 1.05 1.05 0 0 0 .03.28v.06a3.05 3.05 0 0 1 .18.66 2.56 2.56 0 0 0 .15.52l.23.83a3.03 3.03 0 0 1 .08.54l.08.58v.06a1.92 1.92 0 0 0 .06.29v.19a5.06 5.06 0 0 1 .07.62 2.7 2.7 0 0 1 .04.44v.14l.02 1.17-.02.78v.17a5.35 5.35 0 0 0 2.13.29l.07-2.55q.23-2.32.37-4.61.12-2.36.12-4.87a30.06 30.06 0 0 0-.18-3.24l-.15-1.06a4.92 4.92 0 0 1-.1-1.43 11.57 11.57 0 0 1 .68-2.82 1.51 1.51 0 0 0 .13-.46 31.49 31.49 0 0 0-.04-4.92l-.77-3.15a5.66 5.66 0 0 0-.56-1.48 4.39 4.39 0 0 1-.25-.64.97.97 0 0 0-1.45.4m-11.17.18a.98.98 0 0 0-.39.44 15.3 15.3 0 0 0-1.12 2.9l-.27 3.24q.5 2.24 1.22 4.55a104.86 104.86 0 0 0 1.4 17.03q.24 1.68.57 3.42a3.84 3.84 0 0 0 3.68-.12 3.14 3.14 0 0 1-.94-2.16q0-.58-.02-1.14a23.34 23.34 0 0 1-.12-5.52 21.06 21.06 0 0 0 .08-3.36 2.56 2.56 0 0 0-.17-.85 18.57 18.57 0 0 1-1.28-4.86 25.25 25.25 0 0 1-.17-3.28q0-.91.06-1.8.11-1.5.17-2.97a17.16 17.16 0 0 0-.02-1.84 9.76 9.76 0 0 0-1.16-3.53 1.9 1.9 0 0 0-.29-.42 1.3 1.3 0 0 0-1.23.27m-17.82-8.38l-.2.06a1.78 1.78 0 0 1-.38.04l-.6-.1-.19-.06a.08.08 0 0 1-.06-.02 1.1 1.1 0 0 1-.33-.11v1.56s1.6-.93 2.48.02l.05-1.56a1.52 1.52 0 0 1-.23.05 1.2 1.2 0 0 1-.54.12m3.57-12.1a1.27 1.27 0 0 0-.67-.16 1.86 1.86 0 0 1-1.14 2.74c-.52.22-1.07.96-1.84 1.07-.3.04-.86-.12-1.17-.08-.55-.05-.87-.48-1.3-.56q-3.12-.7-2.43-2.82a2.43 2.43 0 0 0-1.56 3.1 5.2 5.2 0 0 0 3.12 2.42l.54.16a7.47 7.47 0 0 0 2.6.23q.6-.1 1.27-.18a8.5 8.5 0 0 0 1.29-.44 6.83 6.83 0 0 0 1.5-1.04 4.08 4.08 0 0 0 .83-1.32l.53.56a3.26 3.26 0 0 1-.06.35q1.23.16 1.16-1.16l-.83-.7a12.27 12.27 0 0 1 1.96-3.18l.22-.23a2.59 2.59 0 0 1 .38-.44 9.94 9.94 0 0 0 1.64-2.13q.76-1.06 1.45-2.18l.89-1.42a14 14 0 0 0 .9-1.53q-.46-.35-.96-.66a6.55 6.55 0 0 0-2.74-.92m0 0l-.44-.04-.04.04a19.75 19.75 0 0 0-2.94 4.28 23.04 23.04 0 0 0-2.16 6.24m17.6-19.11a.72.72 0 0 0 .16.35 4.77 4.77 0 0 0-1.74.38 2.29 2.29 0 0 0-.5.25 4.3 4.3 0 0 0-1.12.85l-.42.47-.47.7a6.4 6.4 0 0 0-.3.69 8.21 8.21 0 0 0-.2.84l-.1.9a3.17 3.17 0 0 0 .04.47l.25 1.26a5.02 5.02 0 0 0 1.2 1.83 6.19 6.19 0 0 0 .81.72 4.97 4.97 0 0 0 6.26-.72q.2-.2.4-.44a4.87 4.87 0 0 0 1.06-3.13 4.97 4.97 0 0 0-1.46-3.59l-.39-.36a.08.08 0 0 0-.06-.02 4.51 4.51 0 0 0-1.74-.91.03.03 0 0 0 .04-.04.97.97 0 0 0 .31-.56v-.17a1.4 1.4 0 0 0-.02-.24 1.25 1.25 0 0 0-.15-.36l-.14-.18a.95.95 0 0 0-.63-.29l-.31.02a1.09 1.09 0 0 0-.39.2.3.3 0 0 0-.11.07 1.09 1.09 0 0 0-.31.78.73.73 0 0 0 .04.23M67.6 61.02a1.4 1.4 0 0 0-.02-.23.4.4 0 0 0-.48-.35l-.33.4-.56-.34a11.97 11.97 0 0 1-2.97-3.13 17.23 17.23 0 0 0-3.82-4.3 12.34 12.34 0 0 0-1.05-.8.36.36 0 0 0-.11.03 9.48 9.48 0 0 0-2.18.94l-.3.24a4.54 4.54 0 0 0-.98 1.15 2.65 2.65 0 0 1-.17.33l.89 1.04a3.65 3.65 0 0 0 .67.81q2.28 1.86 4.7 3.5a7.51 7.51 0 0 1 .96.75q.38.3.77.64a2.66 2.66 0 0 1 .73.94 2.6 2.6 0 0 0 .83 1.05l1.4.87v.5a1.08 1.08 0 0 0 .01.2l.04.05a.23.23 0 0 0 .2.08h.03a.11.11 0 0 0 .1-.06.53.53 0 0 0 .14-.16 2.03 2.03 0 0 0 .11-.17q.21-.52.37-.85a8.46 8.46 0 0 0 .38-.89l.4-1.12a3.63 3.63 0 0 0 .24-1.12z"/><path d="M45.35 85.29q-.22-.97-.33-1.9-.35-2.37-.7-4.5-.11 3.3-.5 6.24a44.18 44.18 0 0 1-1.54 7.05 10.08 10.08 0 0 0 .5 4.61 13.43 13.43 0 0 1-.45 7.45 30.6 30.6 0 0 0-.38 5.02 30.04 30.04 0 0 0 .25 3.24.58.58 0 0 0 .08-.06 1.76 1.76 0 0 1 .17.31 2.39 2.39 0 0 1 .25.81 7.02 7.02 0 0 1-.06 2.36h4.8a8.63 8.63 0 0 1 .2-3.84 6.17 6.17 0 0 1 .27-.74 2.83 2.83 0 0 0 .27.12v-.17l.02-.78-.02-1.17v-.14a2.7 2.7 0 0 0-.04-.44 5.06 5.06 0 0 0-.07-.62v-.2a1.92 1.92 0 0 1-.06-.28v-.06l-.08-.58a3.03 3.03 0 0 0-.08-.54l-.23-.83a2.56 2.56 0 0 1-.15-.52 3.05 3.05 0 0 0-.18-.66v-.06a1.05 1.05 0 0 1-.03-.29 9.16 9.16 0 0 1-.18-1.29 59.24 59.24 0 0 1 .43-8.26 9.7 9.7 0 0 0-.14-1.02 47.62 47.62 0 0 0-1.25-5.23l-.45-1.63-.32-1.4m7.64-30.9v-.03l.08-.34q-.27-.27-.5-.54l-.8-.91-.71 9a.24.24 0 0 1 .1-.06q.84-.08.61 1.23a1.76 1.76 0 0 1 .18.31 29.81 29.81 0 0 1 3.34 10.33 18.62 18.62 0 0 1 .13 2.8 21.1 21.1 0 0 1-.3 3.4.31.31 0 0 1-.07.19.24.24 0 0 1-.1.05.3.3 0 0 0-.05.08.83.83 0 0 1-.48.25q-.02 0-.06.04a.49.49 0 0 1-.23.12v1.44q0 1.06-.06 2.13-.02.7-.08 1.37-.04.38-.1.75-.05.64-.15 1.24-.13 1-.2 2.08-.03.95-.09 1.85-.06 1.22 0 2.38a6.04 6.04 0 0 1-.23 1.9.45.45 0 0 0-.04.09.63.63 0 0 0-.06.27A115.97 115.97 0 0 1 52 109.16l-.37 2.3a.21.21 0 0 0-.02.1.24.24 0 0 1 .13-.04q.99-1.12 1.9-2.36l.65-.94a44.66 44.66 0 0 0 5.93-13.77l.79-2.3.1-.42a7.16 7.16 0 0 0-.54-3.97l-1.68-3.42-1.63-3.32q-1.29-1.9.06-5.06l.23-1.17a56.89 56.89 0 0 0 .81-15.3q-1.83-1.48-3.5-2.98-.43-.37-.84-.76l-.27.06-.13-.06-.49-.42a.87.87 0 0 1-.13-.95M26.4 65.42v.18q.27 6.27.85 11.9.37 3.27.81 6.32.62 3.97 1.41 7.57a12.83 12.83 0 0 0-3.6 2.77 9.52 9.52 0 0 0-2.04 3.77 55.7 55.7 0 0 0 .99 6.75 8.52 8.52 0 0 1-2.38 7.88 3.77 3.77 0 0 0-1.87 3.36h15.62a2.07 2.07 0 0 1 .27-.39 7.73 7.73 0 0 1 1.35-2.28q.29-.3.6-.57h.02q-.33-1.74-.56-3.42a104.86 104.86 0 0 1-1.41-17.03q-.72-2.31-1.22-4.55-.39-1.68-.64-3.3-.32-2.05-.48-3.96h-.08a.45.45 0 0 1-.15-.04 1.2 1.2 0 0 0-.23-.02q-.06 0-.06-.03a.24.24 0 0 0-.17-.06.42.42 0 0 1-.25 0 3.74 3.74 0 0 0-.41-.14q-.29-.1-.54-.15a.12.12 0 0 1-.08-.06 1.7 1.7 0 0 1-.34-.33q0-.02-.04-.06h.04q-.04-1.44 0-2.8.01-1.44.13-2.8a35.48 35.48 0 0 1 2.36-10.78 1.53 1.53 0 0 1-.2-1.97.3.3 0 0 1 .12.07l-1.43-8.3a25.07 25.07 0 0 1-2.53 4.75 40.86 40.86 0 0 1-3.88 4.87z" fill="#0d3a12"/><path d="M46.68 52.74a10.4 10.4 0 0 0-2.05-2.68l-.4.44a4.97 4.97 0 0 1-6.26.72 13.66 13.66 0 0 0-.85 2.18 23.31 23.31 0 0 0-1 5.44q-.1 1.24-.1 2.47l.2 1.12a15.66 15.66 0 0 0 3.86 1.43 13.3 13.3 0 0 0 4.94.12 14.97 14.97 0 0 0 3.3-.95l-.06-1.5q-.44-2.19-.68-4.33a13.73 13.73 0 0 0-.29-1.9 2.66 2.66 0 0 1-.05-.55 4.8 4.8 0 0 0-.56-2m13.32 8a.3.3 0 0 0-.12-.07l-1.53-1.18a56.89 56.89 0 0 1-.8 15.29l-.24 1.17q-1.35 3.17-.06 5.06l1.63 3.32.38-8.5q.02-1.7.12-3.41a7.46 7.46 0 0 1 .21-1.4 15.21 15.21 0 0 0 .33-5.22 11.07 11.07 0 0 1 .23-3.67L60 60.75m-34.56 2.72l-.01.02q.07 1.32-1.16 1.16v.02a1.1 1.1 0 0 1-.06.2q.27 2.02.35 4.32v.21q.04.9.05 1.85v1.05l.26 11.25q.13 2.95.44 5.77.13 1.43.3 2.8.16 1 .26 2.04a12.83 12.83 0 0 1 3.59-2.77q-.8-3.6-1.4-7.57-.45-3.05-.82-6.31-.58-5.64-.85-11.91v-.18l-.02-2.85-.93.9M18.9 18.31l-.06-.06-2.2 3.07v42.3c.43.09.9 1.06 1.45 1.1.31-.03.63-.3.93-.34l-.12-46.07m30.4.29l-1.18-2.88-2.5 1.5-1.8-2.43-2.18 2.07-1.99-2.07-1.97 2.73-3.28-2.22 2.45 7.18h.06a2.3 2.3 0 0 1 .5-.1 16.95 16.95 0 0 1 2.72-.35h1.12l1.08.02 1.1.12q.5.06 1.03.15l1.04.27 1 .3q.5.17 1 .38a10.11 10.11 0 0 1 .93.44l.04.02 4.4-6.31z" fill="#0065b7"/><path d="M31.93 73.94q-.12 1.35-.13 2.8a9.54 9.54 0 0 1 3.24-3.83 5.71 5.71 0 0 1 .98-.56 4.66 4.66 0 0 1 3.38-.27 1.3 1.3 0 0 1 .75.62l1.45 2.47q.35.62.66 1.3a1.6 1.6 0 0 0 .85.92 1.04 1.04 0 0 0 .83-.5 22.83 22.83 0 0 0 1.68-3.01 15.26 15.26 0 0 1 1.9-3.09 1.45 1.45 0 0 1 1.07-.48 4.71 4.71 0 0 1 1 .23 1.23 1.23 0 0 1 .56.42 32.68 32.68 0 0 0 2.16 2.74 7.17 7.17 0 0 1 1.3 2.26 2.55 2.55 0 0 0 .29.56.93.93 0 0 1 .29.62 1.22 1.22 0 0 0 .05.39 1.31 1.31 0 0 0 .18.38l1-1.73a18.62 18.62 0 0 0-.13-2.8 29.81 29.81 0 0 0-3.34-10.33 1.76 1.76 0 0 0-.18-.3 15.95 15.95 0 0 1-8.84 2.8h-.11a17.77 17.77 0 0 1-8.53-2.4 35.48 35.48 0 0 0-2.36 10.79m5.7-41.37l-.06-.13a2.98 2.98 0 0 0-.91.5l-1.49 1.02a.84.84 0 0 1-.44.21 4.61 4.61 0 0 0-1.97 1.07.9.9 0 0 0-.17.13 4.7 4.7 0 0 0-.78.7 6.4 6.4 0 0 0-1.27 1.7.35.35 0 0 1-.2.2 2 2 0 0 0-.44.22 1.67 1.67 0 0 0-.56.48q-.29.43-.56.87l-.32.58a2.66 2.66 0 0 0-.45.98q-.11.56-.17 1a2.04 2.04 0 0 0 .1 1.13l.23-.37a6.97 6.97 0 0 1 .44-.7l.4-.65.47-.68.42-.65q.3-.47.62-.93l.58-.75.39-.45a4.6 4.6 0 0 1 .65-.67q.39-.33.74-.68.38-.38.79-.73.3-.21.62-.39a10.31 10.31 0 0 1 .98-.52 7.11 7.11 0 0 1 .62-.37l.58-.23a9.85 9.85 0 0 0 .92-.34q.4-.18.85-.33l-.62-1.22m9.08.06a2.54 2.54 0 0 0-.58-.2 3.61 3.61 0 0 1-.99-.42l.1 1.24.4.19q.37.17.76.39a3.6 3.6 0 0 1 .92.63q.39.3.87.62a8.91 8.91 0 0 1 .85.71 4.97 4.97 0 0 1 .68.7q.34.39.67.83l.45.66a2.4 2.4 0 0 1 .44.9q.21.78.5 1.55 0 .02.04.06a4.77 4.77 0 0 0 .35.79l.46.94a6.96 6.96 0 0 1 .31.83 6.88 6.88 0 0 0 .31.85l.33.62.44.89 1.66.17q0-.27.02-.5a2.86 2.86 0 0 0-.17-1.16q-.21-.52-.47-1.08a7.33 7.33 0 0 1-.42-.98l-.33-.81a4.4 4.4 0 0 1-.25-1 5.16 5.16 0 0 0-.21-1 9.04 9.04 0 0 0-.35-.94q-.21-.4-.44-.79l-.5-.75-.55-.83a2.76 2.76 0 0 0-.52-.62 2.03 2.03 0 0 0-1-.54l-1.12-.3a.52.52 0 0 1-.23-.15l-.45-.44a2.9 2.9 0 0 0-.98-.62 2.95 2.95 0 0 1-1-.44z" fill="#980805"/><path d="M31.8 79.53l1.08.06a1.83 1.83 0 0 0 .6-.02 5.41 5.41 0 0 1 .57-.1h.22a.72.72 0 0 1 .17-.01.38.38 0 0 0 .23-.06.2.2 0 0 1 .12-.04 3.06 3.06 0 0 0 .6-.1 1.37 1.37 0 0 0 .17-.05.74.74 0 0 1 .23-.06 2.6 2.6 0 0 0 .31-.06h.12l.57-.12a1.52 1.52 0 0 0 .24-.05h.13l.52-.12a2.03 2.03 0 0 1 .54-.12h.3l.69-.05h.19a6.29 6.29 0 0 1 .7-.04 6.13 6.13 0 0 1 .7.04 2.34 2.34 0 0 0 .3.02q.54.03 1.06.03l1.16.06h.11a3.84 3.84 0 0 1 .41.06h.06a2.37 2.37 0 0 1 .42.04l.76.02a5.61 5.61 0 0 0 1.06-.1 9.2 9.2 0 0 1 1.17-.08 5.81 5.81 0 0 0 1.07-.05 1.87 1.87 0 0 1 .36-.04q.8 0 1.59.04h.05l1.22.05h.06l.58.02a3.04 3.04 0 0 1 .6.06.38.38 0 0 1 .17.04.2.2 0 0 1 .11.04 2.52 2.52 0 0 0 .49.08h.05q.2.03.45.1l.02 1.29a.49.49 0 0 0 .23-.12q.04-.04.06-.04a.83.83 0 0 0 .48-.25.3.3 0 0 1 .06-.08.24.24 0 0 0 .1-.05.31.31 0 0 0 .05-.2 21.1 21.1 0 0 0 .31-3.4l-1 1.74a1.31 1.31 0 0 1-.18-.38 1.22 1.22 0 0 1-.05-.39.93.93 0 0 0-.3-.62 2.55 2.55 0 0 1-.28-.56 7.17 7.17 0 0 0-1.3-2.26 32.68 32.68 0 0 1-2.16-2.74 1.23 1.23 0 0 0-.56-.42 4.71 4.71 0 0 0-1-.23 1.45 1.45 0 0 0-1.06.48 15.26 15.26 0 0 0-1.91 3.09 22.83 22.83 0 0 1-1.68 3 1.04 1.04 0 0 1-.83.51 1.6 1.6 0 0 1-.85-.93q-.31-.67-.66-1.29l-1.45-2.47a1.3 1.3 0 0 0-.75-.62 4.66 4.66 0 0 0-3.38.27 5.71 5.71 0 0 0-.98.56 9.54 9.54 0 0 0-3.24 3.82q-.04 1.36 0 2.8m2.4-18.28a.3.3 0 0 0-.1-.07 1.53 1.53 0 0 0 .19 1.97 17.77 17.77 0 0 0 8.53 2.4h.11a15.95 15.95 0 0 0 8.84-2.8q.23-1.32-.61-1.24a.24.24 0 0 0-.1.05 20.3 20.3 0 0 1-2.74 1.47 14.97 14.97 0 0 1-3.3.95 13.3 13.3 0 0 1-4.94-.12 15.66 15.66 0 0 1-3.86-1.43 18.08 18.08 0 0 1-2.01-1.18m4.24-27.02a1.32 1.32 0 0 0-.1-.27 2.03 2.03 0 0 1-.1-.17q-.45.15-.86.33a9.85 9.85 0 0 1-.92.34l-.58.23a7.11 7.11 0 0 0-.62.37 10.31 10.31 0 0 0-.98.52q-.31.18-.62.39-.4.35-.8.73-.34.35-.73.68a4.6 4.6 0 0 0-.65.67l-.39.45-.58.75q-.33.46-.62.93l-.42.65-.46.68q-.22.33-.41.65a6.97 6.97 0 0 0-.44.7l-.24.37.02.3H28a5.91 5.91 0 0 1 2.42.16q.96.21 1.94.39a1.41 1.41 0 0 1 .37.1q.5.05 1.04.13h.62a4.94 4.94 0 0 1 .62 0q.4-.14.83-.23a6.94 6.94 0 0 0 .9-.27l.43-.47a4.3 4.3 0 0 1 1.12-.85 2.29 2.29 0 0 1 .5-.25 4.77 4.77 0 0 1 1.74-.38.72.72 0 0 1-.15-.35.73.73 0 0 1-.04-.23 1.09 1.09 0 0 1 .3-.78.3.3 0 0 1 .12-.07 1.09 1.09 0 0 1 .39-.2.06.06 0 0 1-.04-.05.72.72 0 0 1-.02-.18l-.04-.02a8.46 8.46 0 0 0-.39-.88 6.03 6.03 0 0 0-.57-.91l-.33-.5a.52.52 0 0 1-.1-.14 3.75 3.75 0 0 1-.35-.75 6.1 6.1 0 0 1-.27-.87l-.02-.02-.23-1.27a.43.43 0 0 1-.15-.06 1.27 1.27 0 0 1-.12-.2l-.04-.03a.36.36 0 0 0-.02-.12m7.18-.79l-.4-.2q-.04.32-.1.6a6.19 6.19 0 0 1-.58 1.86 12.55 12.55 0 0 1-.73 1.27q-.54.77-1.1 1.5-.62.9-1.27 1.75a.95.95 0 0 1 .63.28l.14.18a1.25 1.25 0 0 1 .15.37 1.4 1.4 0 0 1 .02.23v.17a.97.97 0 0 1-.3.56.03.03 0 0 1-.05.04 4.51 4.51 0 0 1 1.74.9.08.08 0 0 1 .06.03 8.38 8.38 0 0 1 2.45 1.15 3.73 3.73 0 0 0 .95.45 8.4 8.4 0 0 0 1.27.33l.48.01q.27.04.56.06h.33a2.37 2.37 0 0 0 .43.04.08.08 0 0 1 .07-.04q.04 0 .04-.02.08-.04.18.08h.15l3.26.37-.44-.89-.33-.62a6.88 6.88 0 0 1-.3-.85 6.96 6.96 0 0 0-.32-.83l-.46-.94a4.77 4.77 0 0 1-.35-.8q-.04-.03-.04-.05-.29-.77-.5-1.55a2.4 2.4 0 0 0-.44-.9l-.45-.66q-.33-.44-.67-.83a4.97 4.97 0 0 0-.68-.7 8.91 8.91 0 0 0-.85-.7l-.87-.63a3.6 3.6 0 0 0-.92-.63q-.39-.22-.76-.39z" fill="red"/><path d="M31.8 79.53v.06a1.7 1.7 0 0 0 .34.33.12.12 0 0 0 .08.06l.54.15a3.74 3.74 0 0 1 .4.14.42.42 0 0 0 .26 0 .24.24 0 0 1 .17.06q0 .03.06.03a1.2 1.2 0 0 1 .23.02.45.45 0 0 0 .15.04h.08a7.62 7.62 0 0 1-.06-.94 5.41 5.41 0 0 0-.58.1 1.83 1.83 0 0 1-.6.01l-1.07-.06"/><path d="M21.47 66.1a8.5 8.5 0 0 1-1.3.44q-.65.08-1.27.18a7.47 7.47 0 0 1-2.59-.23l-.27.5a1.73 1.73 0 0 0 .45 1.08 1.16 1.16 0 0 0-.45.29v.06a.06.06 0 0 1-.05.03.32.32 0 0 0-.1.24v.42l.04.02a.46.46 0 0 0 .1.21l.23.3a1.73 1.73 0 0 0-.22.15.19.19 0 0 0-.05.13.03.03 0 0 1-.04.04 1.66 1.66 0 0 0-.02.27.38.38 0 0 0 .1.25.15.15 0 0 1 .01.06 3.12 3.12 0 0 0 .3.33 1.67 1.67 0 0 0 .17.15 2.16 2.16 0 0 1-.14.23v.06a.77.77 0 0 0 .18.5.25.25 0 0 1 .11.12 1.2 1.2 0 0 0 .35.33l.04.04a1.32 1.32 0 0 1 .27.13.77.77 0 0 1 .11.1 1.1 1.1 0 0 0 .33.11.08.08 0 0 0 .06.02l.2.06.6.1a1.78 1.78 0 0 0 .38-.04l.2-.06a1.2 1.2 0 0 0 .53-.12 1.52 1.52 0 0 0 .23-.05l.35-.14a.45.45 0 0 0 .15-.1h.04l.06-.05a.57.57 0 0 0 .2-.16.24.24 0 0 0 .1-.06.52.52 0 0 0 .09-.13q.02 0 .02-.04a.39.39 0 0 0 .05-.33v-.19a.22.22 0 0 0-.07-.15.06.06 0 0 0-.04-.06 8.72 8.72 0 0 0 2.08-2.92l1.16-3.1a2.29 2.29 0 0 0 .06-.26 1.1 1.1 0 0 0 .06-.19v-.02a3.26 3.26 0 0 0 .06-.35l-.53-.56a4.08 4.08 0 0 1-.83 1.32 6.83 6.83 0 0 1-1.5 1.04m16.46-32.93l.52.84c-.08.05.57.57.47.6a.08.08 0 0 1-.06.03h-.08l.23 1.27.02.02a6.1 6.1 0 0 0 .27.87 3.75 3.75 0 0 0 .35.75.52.52 0 0 0 .1.14l.33.5a6.03 6.03 0 0 1 .57.9 8.46 8.46 0 0 1 .4.9l.03.01a.72.72 0 0 0 .02.18.06.06 0 0 0 .04.05l.46-1.8q.12-.4.21-.78a5.21 5.21 0 0 1 .22-.83 6.31 6.31 0 0 0 .28-1.62 12.83 12.83 0 0 1 .56-3.19 3.34 3.34 0 0 0 1.26-.75 4.16 4.16 0 0 1 .64-.62q.02 0 .05-.04h.06a1.43 1.43 0 0 1-.27-.71 4.87 4.87 0 0 1-.06-1.14l.02-.89v-.67a4.55 4.55 0 0 0-.13-.91 2.31 2.31 0 0 0-.31-.77q-.29-.39-.56-.72a2.53 2.53 0 0 0-.52-.58 5.1 5.1 0 0 1-.85-.75 5.88 5.88 0 0 0-.66-.58l-.71-.44-.86-.35-3.05.45s-.26 2.6-.23 3.35a19.04 19.04 0 0 1-.16 2.27l.59 3.25.26 1.14zm36.04 28.59a2.03 2.03 0 0 0 .17-.12v-.06a.2.2 0 0 0 .04-.07v-.27q-.27-.45-1.23-.3-4.56.97-5.35.08a3.63 3.63 0 0 1-.23 1.12l-.4 1.12a8.46 8.46 0 0 1-.4.89l-.36.85a2.03 2.03 0 0 1-.11.17l.11.2.16.19q.2.21.44.42l.44.4q1 .74 2.09 1.46.56.32 1.21.73a3.14 3.14 0 0 1 .4.23 1.28 1.28 0 0 1 .45.33 5.18 5.18 0 0 1 .9 1.27.6.6 0 0 0 .76.3 1.36 1.36 0 0 0 .08-.9 2.8 2.8 0 0 0-.39-.84 3.59 3.59 0 0 0 .93.71.86.86 0 0 0 .75.14.67.67 0 0 0 .27-.35q.12-.3-.23-.95l.12.12a1.48 1.48 0 0 0 .77.44.46.46 0 0 0 .5-.11.51.51 0 0 0 .08-.54 3.9 3.9 0 0 0-.58-.91l-.71-.85q.34.13.65.29a1.07 1.07 0 0 0 .56-.06.55.55 0 0 0 .12-.52 2.09 2.09 0 0 0-.45-.83 3.28 3.28 0 0 0-.79-.73 3.94 3.94 0 0 0-.87-.56 6.13 6.13 0 0 1-.8-.62 4.23 4.23 0 0 0-.88-.6 1.63 1.63 0 0 0-.57-.17l.52-.3q.56-.2.77-.3a2.97 2.97 0 0 0 1.06-.5m-1.39 6.96l.04.06-.04-.04z" fill="#f3bc84"/><path d="M40.13 22.03a6.47 6.47 0 0 1 .7.4l.71.45a5.88 5.88 0 0 1 .66.58 5.1 5.1 0 0 0 .85.75 2.53 2.53 0 0 1 .52.58q.27.33.56.72a2.31 2.31 0 0 1 .3.77 4.55 4.55 0 0 1 .14.9v.68l-.02.89a4.87 4.87 0 0 0 .06 1.14 1.43 1.43 0 0 0 .27.71 3.82 3.82 0 0 0 .95.8 3 3 0 0 0 .58.32 5.33 5.33 0 0 0 .71-.33 1.87 1.87 0 0 0 .7-.4 2.56 2.56 0 0 0 .56-.8 2.27 2.27 0 0 0 .2-1.1 1.48 1.48 0 0 1 .1-.63 4.12 4.12 0 0 0 .18-.66q.08-.6.17-1.12a1.4 1.4 0 0 0-.17-1.04 2.21 2.21 0 0 1-.3-1.06 8 8 0 0 0-.13-.87 10.11 10.11 0 0 0-.92-.44q-.5-.21-1-.39l-1.01-.29-1.04-.27q-.52-.1-1.03-.15l-1.1-.12-1.08-.02z" fill="#a67c52"/><path d="M45.13 32.01a1.45 1.45 0 0 1-.36-.79 2.18 2.18 0 0 1 0-.58 4.16 4.16 0 0 0-.64.62 3.34 3.34 0 0 1-1.26.75 12.83 12.83 0 0 0-.56 3.19 6.31 6.31 0 0 1-.28 1.62 5.21 5.21 0 0 0-.22.83l-.2.79-.47 1.8.3-.02q.66-.85 1.28-1.74.56-.74 1.1-1.5a12.55 12.55 0 0 0 .73-1.28 6.19 6.19 0 0 0 .58-1.85l.1-.6z" fill="#c69c6d"/><path id="mazzo_asset_m_DiecSpade_line_0_Layer0_0_1_STROKES" data-name="mazzo asset m DiecSpade line 0 Layer0 0 1 STROKES" class="cls-14" d="M16.68 63.75V21.38l2.2-3.07.06.06m-1.47 55.78v-1.57a.77.77 0 0 0-.11-.1 1.32 1.32 0 0 0-.27-.13l-.04-.04a1.2 1.2 0 0 1-.35-.32.25.25 0 0 0-.12-.12.77.77 0 0 1-.17-.5v-.06a2.16 2.16 0 0 0 .14-.23 1.67 1.67 0 0 1-.18-.16 3.12 3.12 0 0 1-.29-.32.15.15 0 0 0-.02-.06.38.38 0 0 1-.1-.25 1.66 1.66 0 0 1 .03-.27.03.03 0 0 0 .04-.04.19.19 0 0 1 .05-.14 1.73 1.73 0 0 1 .22-.15l-.24-.29a.46.46 0 0 1-.1-.21l-.03-.02v-.43a.32.32 0 0 1 .1-.23.06.06 0 0 0 .05-.04v-.05a1.16 1.16 0 0 1 .45-.3 1.73 1.73 0 0 1-.45-1.07l.27-.5m31.81-50.77l1.18 2.87 3.57-1.17-1.7 2.45-.75 1.06-.98 1.39-.97 1.4-.04-.01v.17a.06.06 0 0 1 .04.06v.23q.04.04.04.06v.35a2.49 2.49 0 0 0 .02.3l.04.03v.05a.13.13 0 0 1 .06.12l.01.04v.04a.52.52 0 0 1 .1.13.49.49 0 0 0 .06.12.3.3 0 0 1 .08.11v.06a.62.62 0 0 1 .11.27 3.02 3.02 0 0 1 .04.83v.12a.6.6 0 0 0-.06.27q0 .02-.04.02v.1a1.39 1.39 0 0 0-.07.28.73.73 0 0 1-.06.3 3.74 3.74 0 0 0-.16.5.08.08 0 0 1-.01.05.06.06 0 0 1-.04.06 1.73 1.73 0 0 0-.02.58v.13l-.1.66v.08a2.84 2.84 0 0 0-.1.3.15.15 0 0 1-.02.07.9.9 0 0 1-.11.25l-.21.27-.18.2a.15.15 0 0 1-.05.03l-.22.21a.08.08 0 0 1-.07.04.15.15 0 0 1-.06.02.59.59 0 0 0-.25.17.13.13 0 0 1-.06.06 1.66 1.66 0 0 1-.4.15 1.02 1.02 0 0 0-.22.06.46.46 0 0 1-.27.04.45.45 0 0 1-.2-.1l-.03-.03a.82.82 0 0 1-.23-.08l-.04-.04a2.56 2.56 0 0 1-.43-.3.4.4 0 0 1-.13-.2l-.02-.02a.24.24 0 0 1-.06-.1.08.08 0 0 1-.06-.02.67.67 0 0 0-.17-.2h-.06l-.06.03a4.38 4.38 0 0 0-.03.58l.03.06a.38.38 0 0 0 .06.23 1.56 1.56 0 0 1 .12.25l.02.02a.46.46 0 0 0 .17.23l1.28.54h.03q.85.44 1.76.85a2.8 2.8 0 0 1 .8.62 1.6 1.6 0 0 0 .36.27 5.43 5.43 0 0 1 1.85.67 3.8 3.8 0 0 1 .52.4 1.1 1.1 0 0 1 .33.37l.68 1.24a3.7 3.7 0 0 1 .38.5 5.41 5.41 0 0 1 .39.56 2.55 2.55 0 0 1 .23.62 5.55 5.55 0 0 1 .25.89l.14.89a.24.24 0 0 0 .03.13 7.93 7.93 0 0 0 .3.89q.28.79.55 1.4.18.4.33.68a3.58 3.58 0 0 1 .35 1.1 2.53 2.53 0 0 0 0 .45l-.02.5a18.25 18.25 0 0 1 1.26 2.08 10.97 10.97 0 0 1 1.06 2.73l.11.5.72.13.04.04a.91.91 0 0 1 0 1.22 1.52 1.52 0 0 0-.49 0 17.63 17.63 0 0 1 4.87 5.1 11.97 11.97 0 0 0 2.97 3.12l.56.35.33-.4a.4.4 0 0 1 .48.34 1.4 1.4 0 0 1 .02.23q.8.89 5.35-.08.96-.15 1.23.3v.26a.2.2 0 0 1-.04.08v.06a2.03 2.03 0 0 1-.17.11 2.97 2.97 0 0 1-1.06.5q-.21.1-.77.31l-.53.3a1.63 1.63 0 0 1 .58.17 4.23 4.23 0 0 1 .87.6 6.13 6.13 0 0 0 .81.61 3.94 3.94 0 0 1 .87.56 3.28 3.28 0 0 1 .8.74 2.09 2.09 0 0 1 .44.83.55.55 0 0 1-.12.52 1.07 1.07 0 0 1-.56.06q-.3-.16-.66-.3.4.45.72.86a3.9 3.9 0 0 1 .58.9.51.51 0 0 1-.08.54.46.46 0 0 1-.5.12 1.48 1.48 0 0 1-.77-.44l-.12-.12q.35.66.23.95a.67.67 0 0 1-.27.34.86.86 0 0 1-.75-.13 3.59 3.59 0 0 1-.93-.72 2.8 2.8 0 0 1 .39.85 1.36 1.36 0 0 1-.08.9.6.6 0 0 1-.77-.3 5.18 5.18 0 0 0-.89-1.27 1.28 1.28 0 0 0-.44-.33 3.14 3.14 0 0 0-.4-.23l-1.22-.74q-1.08-.71-2.09-1.44l-.44-.4-.45-.43-.15-.2-.12-.19a.53.53 0 0 1-.13.16.15.15 0 0 1-.14.05.23.23 0 0 1-.19-.07l-.04-.04a1.08 1.08 0 0 1-.02-.22v-.5q-2.91-1.81-5.58-3.8l2.61 26.25q.12 3.6-1.5 4.73-.06.21-.1.43l-.8 2.3a41.24 41.24 0 0 1-8.47 17.06.17.17 0 0 1 .08-.02 3.03 3.03 0 0 0 1.2 2.02 16.35 16.35 0 0 1 3.86 2.4H74.9l-.02 8.19H14.54l.02-8.2h6.04a3.77 3.77 0 0 1 1.87-3.35 8.52 8.52 0 0 0 2.38-7.88 55.7 55.7 0 0 1-.99-6.75 85.44 85.44 0 0 1 .27-15.48v-.02a81.97 81.97 0 0 0 .12-17.57 2.29 2.29 0 0 1-.06.25l-1.14 2.14-.26 1.55a5.7 5.7 0 0 1-1.84 2.34.06.06 0 0 1 .04.05.22.22 0 0 1 .07.16v.19a.39.39 0 0 1-.05.33q0 .04-.02.04a.52.52 0 0 1-.1.13.24.24 0 0 1-.1.06.57.57 0 0 1-.19.15l-.06.06h-.04a.45.45 0 0 1-.15.1l-.35.13-.06 1.57m28.22-58.4l-2.5 1.51m1.44 1.12l1.12 2.38 3-.85m-1.74 2.45a12.2 12.2 0 0 0-1.32-.62l-.2-.1a16.26 16.26 0 0 0-3.29-.9.64.64 0 0 0-.2-.04 18 18 0 0 0-3.27-.29.7.7 0 0 0-.24 0 26.11 26.11 0 0 0-2.8.12q-.9.1-1.85.23l.58 1.75h.06a2.3 2.3 0 0 1 .5-.1 16.95 16.95 0 0 1 2.72-.34 15.84 15.84 0 0 1 8.3 1.68m-.52-2.1l-1.18-2.19-2.18 1.16.08.12m-.08-.12l-.11.08m2.62-2.32l-2.18 1.12-1.49-2.12L41 19.04l-1.43-1.8-1.75 2.05-2.57-1.6.39 1.18 2.3 1.54 1.58-1.95 1.6 1.85 2.2-1.52 1.27 1.85m5.87.35l-2.3.77m-3.24 8.9q0-.02-.04-.06a1.12 1.12 0 0 1-.23-.44l-.04-.02a6.84 6.84 0 0 1-.02-1.7 8.53 8.53 0 0 0-.11-2.14 2.08 2.08 0 0 0-.66-1.24 3 3 0 0 1-.56-.6q-.23-.23-.52-.56a9.27 9.27 0 0 0-1.87-1.4 6.47 6.47 0 0 0-.7-.41M54.2 40.62q-.27-.08-.55-.13l-2.4-.1q-1.3.23-2.58.5a9.28 9.28 0 0 1-2.46.1q-1.4-.16-2.9-.22l-.88.33h-.02a1.4 1.4 0 0 1 .02.23v.16a3.19 3.19 0 0 1 1.56.2 4.64 4.64 0 0 1 .99.47 5.46 5.46 0 0 0 2.26.76 14.3 14.3 0 0 0 2.56.25l2.42.02a15.03 15.03 0 0 0 2.83-.27m-5.65-8.57a7.06 7.06 0 0 1-.66.27q-.29.17-.58.38a2.73 2.73 0 0 0-.87.74l-.63.79a5.04 5.04 0 0 1-.37.5l-.4.44q-.22.24-.45.45l-.44.35q-.45.29-.89.6m1.06-6.8a6.03 6.03 0 0 1-.08 2.43 6.8 6.8 0 0 1-1.21 2.55q-.95 1.27-1.7 2.32a9.92 9.92 0 0 0-.7.9.95.95 0 0 1 .64.3l.14.17a2.5 2.5 0 0 1 1.71-.95 8.93 8.93 0 0 0 2.48-.52A20.08 20.08 0 0 0 49.03 38a6.1 6.1 0 0 1 1.12-.53 4.79 4.79 0 0 1 1.1-.29l1.53-.15m-4.21 8.1l.29 1.45a10.67 10.67 0 0 1 1-1.11l.45-.37q0-.02.03-.02a2.4 2.4 0 0 1-.42-.04h-.33q-.29-.02-.56-.06l-.48-.02a.72.72 0 0 1 .02.18zm2.06-.03q-.1-.12-.17-.08 0 .02-.04.02a.08.08 0 0 0-.08.04 2.34 2.34 0 0 1 .3.02h.15l4.92.54m-4.11.46a2.25 2.25 0 0 0 .33 1.74 14.99 14.99 0 0 1 1.17 2.49 10.8 10.8 0 0 0 1.18 2.26l.56-.5a7.15 7.15 0 0 1-.52-.85l-.6-1a11.78 11.78 0 0 1-.94-2.3q-.3-.95-.68-1.9zm-1.45.5a11.3 11.3 0 0 0 .21 1.24 10.2 10.2 0 0 0 .62 1.87 14.59 14.59 0 0 0 .72 1.5q.67 1.15 1.5 2.3l.02.02.06.06a.24.24 0 0 0 .1.06.26.26 0 0 1 .1-.12l.36-.46q-.4-.5-.8-1.06a18.56 18.56 0 0 1-1.02-1.85l-.71-1.63a15.72 15.72 0 0 1-.68-2.1zm-14.4.87l-.1.37-.32 1.04a4.04 4.04 0 0 1-.3.64l-.34.64a2.02 2.02 0 0 1-.25.3l-.46.66a.27.27 0 0 1 .03.16.81.81 0 0 1 .02.19l-.05.62-.45.44-.5-.08a5.32 5.32 0 0 1-.21.56l1.43 8.3q8.49 5.64 16.85.31l.71-9q-.35-.48-.67-.98a14.61 14.61 0 0 1-1.41-2.55q-.5-1.27-.87-2.5m-.31-1.63a8.4 8.4 0 0 1-1.27-.32 3.73 3.73 0 0 1-.95-.45 10.8 10.8 0 0 0-2.56-1.14m9.49 3.42a11 11 0 0 0 .9 2.68 21.86 21.86 0 0 0 1.43 2.47l.64-.29q-.44-.83-.9-1.56a5.17 5.17 0 0 1-.5-.89q-.57-1.27-1.07-2.47l-.1-.15h-.17a1.02 1.02 0 0 0-.21.05.13.13 0 0 0-.02.16zm1.45-.1l.02.47a5.49 5.49 0 0 0 .54.71 5.33 5.33 0 0 1 .67.98 5.03 5.03 0 0 1 .74 2.61l.67-.13q-.06-.5-.08-.99a3.12 3.12 0 0 0-.54-1.43q-.73-1.06-1.46-2.22zm1.97 4.77l-.45.2m1.91-.4l-.79.07m-11.7-33.73l-1.8-2.43-2.17 2.07-1.99-2.07-1.97 2.72-3.28-2.22.81 2.34m2.91 2.86l-.23-.14m3.27.02l-.08-.12-.16.12m-5.32-1.56l.67 1.9m1.45 15.08a.18.18 0 0 0-.1-.11l-.04-.04a.08.08 0 0 1-.07-.06q0-.08-.1-.08l-.02-.04-.44-.28a3.8 3.8 0 0 0-1.33-.62l-.8-.31-1.15.37a1.27 1.27 0 0 1-.2.11 2.94 2.94 0 0 0-.44.3.81.81 0 0 1-.21.15.13.13 0 0 0-.06.05 1.17 1.17 0 0 1-.17.14.34.34 0 0 0-.1.1 4.6 4.6 0 0 1 2.33.26 7.83 7.83 0 0 1 2.34 1.57 6.18 6.18 0 0 1 1.08 1.47 2.8 2.8 0 0 0 2.03 1.5 3.01 3.01 0 0 1 .48.16 1.09 1.09 0 0 1 .39-.2.06.06 0 0 1-.04-.06.72.72 0 0 1-.02-.17l-.04-.02a8.46 8.46 0 0 0-.39-.89 6.03 6.03 0 0 0-.58-.9q-.2-.33-.42-.64a3.75 3.75 0 0 1-.35-.75 6.1 6.1 0 0 1-.27-.87l-.02-.02-.23-1.28a.43.43 0 0 1-.15-.05 1.27 1.27 0 0 1-.12-.2l-.04-.03a.36.36 0 0 0-.02-.12 1.32 1.32 0 0 0-.1-.27 97555.1 97555.1 0 0 1-.26-.46 2.03 2.03 0 0 0-.12-.18.17.17 0 0 0-.02-.08.19.19 0 0 1-.1-.07q-.11-.23-.2-.48a.36.36 0 0 1-.03-.12m-.05-.14a5.52 5.52 0 0 0-.55.14 3.93 3.93 0 0 0-.46.25 1.43 1.43 0 0 0-.4.35 1.97 1.97 0 0 0-.37.38.56.56 0 0 1-.17.18 3.45 3.45 0 0 1-.41.29 1.19 1.19 0 0 1-.39.23m9.76-3.87a5.6 5.6 0 0 1-1.6 1.33 12.51 12.51 0 0 0-2 1.3M21 63.26l.3-42.12-2.35-2.78.12 45.74m9.47-22.13a4.33 4.33 0 0 1 .62-.2q.31-.09.68-.17.5-.1 1.02-.15l1.04.1.68.13 1.06.37q.4.11.81.25l1.1.21.66.06h1.37a.32.32 0 0 1 .1-.02 1.78 1.78 0 0 0 .38-.04h.21a.06.06 0 0 0 .06.04 2.29 2.29 0 0 1 .5-.25 4.77 4.77 0 0 1 1.74-.39.72.72 0 0 1-.16-.34.08.08 0 0 1-.05-.02.15.15 0 0 0-.16-.1.2.2 0 0 1-.08-.04q0-.02-.03-.02l-.2-.06a.19.19 0 0 1-.1-.03 1.8 1.8 0 0 0-.28-.02.19.19 0 0 1-.1-.04h-.12q-.4-.02-.84-.02a.19.19 0 0 1-.1-.04h-.02a2.3 2.3 0 0 1-1.43-.5 22.18 22.18 0 0 1-1.95-1.74 3.28 3.28 0 0 0-2.59-1.06 11.9 11.9 0 0 0-2.4.37 3.5 3.5 0 0 0-.4.36 10.78 10.78 0 0 1-.77.99 3.65 3.65 0 0 0-.88 2.58v.04l.63-.25zm-.63.25a3.52 3.52 0 0 0 0 .52l.1.85h.03a5.91 5.91 0 0 1 2.41.16q.97.21 1.95.38a1.41 1.41 0 0 1 .37.1l1.04.13h.62a4.94 4.94 0 0 1 .62 0 30.1 30.1 0 0 1 1.63-.44m-8.64-.33l-.2.54-.13.72-.1.67a4.22 4.22 0 0 0-.05.7l.06 1.12q.05.65.11 1.16l.39-.04a16.25 16.25 0 0 1 0-2.24q.06-.68.17-1.37v-.12a1.06 1.06 0 0 0 .06-.13.39.39 0 0 1 .15-.25.44.44 0 0 1 .3-.1.17.17 0 0 1 .11.12 2.48 2.48 0 0 1 0 .61 8.75 8.75 0 0 0-.06 1q0 .55.04 1.1l.02.8v.58l.5.07a29.5 29.5 0 0 1 .16-3 3.12 3.12 0 0 0 .05-.37l.06-.2.06-.27a1.78 1.78 0 0 0 .06-.2l.06-.2.67.06a.11.11 0 0 0-.02.07l-.21 1.12-.06.66a6.41 6.41 0 0 0-.08.73l-.07.66-.02 1.12 1.12.38.11-.54q.23-.96.4-1.97.09-.27.14-.54a1.07 1.07 0 0 0 .08-.29 4.13 4.13 0 0 0 .04-.79q0-.38.46-.27a.17.17 0 0 1 .12.12 2.66 2.66 0 0 1 .06.56 8.13 8.13 0 0 1 0 1.12 6.27 6.27 0 0 1-.14 1.1 6.15 6.15 0 0 1-.15.73q-.1.47-.3 1.08l.76.49.37-.95.11-.39a2.48 2.48 0 0 0 .08-.4 4.96 4.96 0 0 0 .14-.72 5.51 5.51 0 0 1 .19-1.29 1.78 1.78 0 0 0 .06-.21 6.62 6.62 0 0 0 .11-.83l.62.06v.6a6.4 6.4 0 0 1-.08.67q-.06.54-.15 1.1a4.07 4.07 0 0 1-.23.93 5 5 0 0 0-.27.65 5.08 5.08 0 0 1-.39 1.05.15.15 0 0 1-.02.05.08.08 0 0 0-.04.08 3.17 3.17 0 0 1 .72.83m-6.26-2.62l-.35.27-.15.63.1.27a1.17 1.17 0 0 0 .27.3 1.09 1.09 0 0 0 .34.15l.45.04a6.55 6.55 0 0 1 2.74.92 9.42 9.42 0 0 1 1.78 1.33l.13.04m-9.19 9.73l1.62 1.37.02-.02.93-.9a32.09 32.09 0 0 0 6.4-9.62m-8.97 9.17l-1.04-1.5 5.13-10.56a.03.03 0 0 1-.03.04 22.1 22.1 0 0 0-5.1 10.52m9.73-25.16a.57.57 0 0 0-.2.16 1.82 1.82 0 0 0-.42.4.06.06 0 0 1-.06.04l-.2.23-.36.41a2.3 2.3 0 0 0-.29.35q-.17.21-.32.44a3.18 3.18 0 0 0-.18.27.13.13 0 0 1-.04.1.3.3 0 0 0-.07.11 1.3 1.3 0 0 0-.45.22m2.07 11.15l-.83-.3m-1.12-.4l-.66-.17m3.86 1.76l-.13-.13-.37-.27m-3.86-1.43h-.8m-7.5 67.52h15.62a2.07 2.07 0 0 1 .27-.39 7.42 7.42 0 0 1 1.95-2.86h.01A111.8 111.8 0 0 1 36.5 92.3a57.97 57.97 0 0 1-2.13-9.84l-.21-1.97a6.67 6.67 0 0 1-1.95-.56 2.44 2.44 0 0 1-.37-.27.06.06 0 0 1-.03-.06h.03v-1.14a40.3 40.3 0 0 1 2.5-15.25 1.53 1.53 0 0 1-.2-1.96.3.3 0 0 1 .12.07m-17.7 9.77a.73.73 0 0 1 .2.17l.24.12a2.14 2.14 0 0 0 .54.15.08.08 0 0 0 .06.02l.58.1a.63.63 0 0 1 .15.02h.56a.72.72 0 0 0 .18-.02h.17a1.1 1.1 0 0 1 .2-.06 1.75 1.75 0 0 1 .3-.1 1.37 1.37 0 0 0 .62-.27l.2-.11.1-.12a.15.15 0 0 1 .03-.06.08.08 0 0 0 .05-.01 1.64 1.64 0 0 0 .22-.54v-.08q.04-.04.04-.06v-.3a.5.5 0 0 0-.14-.41v-.06q-.29.21-.93.62-.7.38-.92.27h-.56a2.05 2.05 0 0 1-.58-.04h-.16a3.9 3.9 0 0 0-.56-.08.06.06 0 0 1-.05-.04 2.84 2.84 0 0 0-.27-.11l-.14-.1a1.76 1.76 0 0 0-.27-.2.77.77 0 0 0-.11-.09m.15-3.12l-.1-.03m.18 1.59a2.01 2.01 0 0 0 1.46.5 1.52 1.52 0 0 0 .33.04q.3-.04.62-.06.27-.14.56-.25l.71-.7q.12-.11.24-.25a2.95 2.95 0 0 0 .5-.56 4.88 4.88 0 0 1 .33-.42.3.3 0 0 1 .05-.08.5.5 0 0 1 .18-.2 8.5 8.5 0 0 1-1.3.45l-1.27.17a7.43 7.43 0 0 1-2.5-.2m4.5 4.63a.75.75 0 0 0-.26-.18l-.02-.04M19 70.35a.48.48 0 0 1-.18-.33 1.71 1.71 0 0 1 .16-1.04 2.15 2.15 0 0 1 .52-.62m4.36 29.63a10.62 10.62 0 0 1 5.64-6.55 147.04 147.04 0 0 1-3.07-25.78v-.18l-.02-2.86m-2.57 1.18l.52.56a3.26 3.26 0 0 1-.05.35q1.23.15 1.15-1.16m-1.21 1.37a1.1 1.1 0 0 0 .06-.2v-.01m-3.46 4.75a.76.76 0 0 0 .21-.16q.6-.63 1.28-1.29a8.42 8.42 0 0 0 1.68-2.35M20 72.6a1.52 1.52 0 0 1-.23.06 1.2 1.2 0 0 1-.54.12l-.2.06a1.78 1.78 0 0 1-.38.03q-.29-.03-.6-.1l-.2-.05a.08.08 0 0 1-.05-.02 1.1 1.1 0 0 1-.33-.12m2.4 1.52l.05.05.02.02m-2.47-.02a1.76 1.76 0 0 1 1.24-.48 1.69 1.69 0 0 1 1.17.43m11.95 5.5l2.26-.07h.21q.3-.05.53-.11 1.12-.21 2.23-.45a8.22 8.22 0 0 1 1.2-.23 18.06 18.06 0 0 1 1.87-.1q1 .06 2.07.06a19.84 19.84 0 0 1 2.16.2 8.58 8.58 0 0 0 1.82-.08q1.11-.08 2.23-.14a16.4 16.4 0 0 1 1.95 0q.95.02 1.91.08a9.32 9.32 0 0 1 1.88.31 1.33 1.33 0 0 1 .7.17q.3.16.3.39l.17-1.18q.85-7.16-3.33-15.34a1.76 1.76 0 0 0-.18-.31q-8.34 5.44-17.49.4m-2.49 16.4v.05m2.32.83l-.06-.95m32.04-14.3a2.03 2.03 0 0 0 .12-.17q.21-.52.37-.85a8.46 8.46 0 0 0 .38-.89l.4-1.12a3.63 3.63 0 0 0 .24-1.12m-2.03 3.53a6.4 6.4 0 0 1 .64-2.82l.56-.88m4.69 3.76l1 .48a5.29 5.29 0 0 1 1 .52q.3.26.62.5l.56.55m-.17 1.85l-.71-.56a6.68 6.68 0 0 0-.76-.66q-.36-.25-.7-.52a3.95 3.95 0 0 0-.8-.56 2.1 2.1 0 0 1-.5-.17m-1.35-3.05l1.73-.06.23-.08m-1.27.85l-1.27.95m1.54 2.35a2.95 2.95 0 0 1 1 .54 2.32 2.32 0 0 1 .58.68l.22.25.15.25h.02l.04.06.13.17m-.17-.23v.02l.04.04M58.4 52.34a.36.36 0 0 0-.11.02 9.48 9.48 0 0 0-2.18.94l-.3.23a4.54 4.54 0 0 0-.98 1.16 3.92 3.92 0 0 1-.79 1.12q2.03 1.91 4.34 3.75l1.53 1.17a.3.3 0 0 1 .11.08m-6.66-7.16a3.9 3.9 0 0 0-.27.42l-.07.35v.02a.87.87 0 0 0 .13.95l.49.42.13.06.27-.06m-.95-1.74q-.27-.27-.5-.54l-.79-.9m2.47-.04l-.44.48m-2.74 8.55a.24.24 0 0 1 .1-.06q.84-.07.61 1.24m2.34 16.27l.02 1.3a3.15 3.15 0 0 0 .88-.57l.1-.17m3.24-20.07a57.42 57.42 0 0 1-1.04 16.46 7.76 7.76 0 0 0-.64 2.43l.02.74a3.99 3.99 0 0 0 .56 1.89l3.3 6.73a7.16 7.16 0 0 1 .54 3.98M44.36 78.9v.06l.56 3.5.35 2.22q.11.58.27 1.2.11.63.29 1.27.15.62.33 1.23l.34 1.32.35 1.29q.16.64.31 1.35.2 1.08.33 2.2a9.47 9.47 0 0 1 .02 1.6 4.94 4.94 0 0 1-.16.95l-.11.64q-.14.92-.23 1.83l-.12 1.8a5.36 5.36 0 0 0 .27 2.21q.13.47.23.95a8.99 8.99 0 0 0 .27 1.2 19.07 19.07 0 0 1 .45 2.3q.01.38.05.82.06.85.06 1.74v.95a5.73 5.73 0 0 0 3.42.1 112.8 112.8 0 0 0 1.52-15.76.6.6 0 0 1 .06-.27l.04-.07a6.04 6.04 0 0 0 .23-1.91q-.06-1.16 0-2.38.06-.9.1-1.85.06-1.08.19-2.09l.25-1.98q.06-.68.08-1.38.04-.73.06-1.48v-2.09m1.42-28.74l-.75.47M44.36 78.95l-.21 3.5a45.64 45.64 0 0 1-1.84 9.78 10.08 10.08 0 0 0 .5 4.62 13.43 13.43 0 0 1-.44 7.45 28.34 28.34 0 0 0-.13 8.26.57.57 0 0 0 .07-.06 4.8 4.8 0 0 1 .37 3.48h4.8a8.4 8.4 0 0 1 .47-4.58 2.84 2.84 0 0 0 .27.12m3.3 4.96l-.17.08a9.47 9.47 0 0 0 5.94 2.49q2.28.36 1.66-1.05a17.91 17.91 0 0 0-2.04-2.02m-5.14-4.4a.24.24 0 0 0-.13.03m-4.15 4.37a1.54 1.54 0 0 0 .06.4l2.8.62 1-.44m-8.67-.58l-.13.56-1.32.73-.94-.33a9.4 9.4 0 0 1-4.3 4.19h-.04l-1.94.73q-2.6.54-1.94-.85a24.78 24.78 0 0 0 4.15-5.03m6.02-3.42a3.88 3.88 0 0 1-3.79.17m1.84 4.21l.62-.27"/><circle class="cls-14" cx="40.72" cy="47.01" r="5"/><path class="cls-6" d="M41.84 48.84a.05.05 0 0 1-.03.02.06.06 0 0 0-.04.03.04.04 0 0 1 0-.03q.06-.04.07-.02"/><path class="cls-14" d="M36.66 47.23c.15.15.61-.5-.06-.69s-1.17 1.28.13 1.51c.8.15 1.11-.96 1.2-1.2a3 3 0 0 1 1.61-1.8c1.3-.7 1.56-1.3 1.56-1.3a3.31 3.31 0 0 0 1.77 1.78c1.28.48 1.07 1.73 1.47 2.27.38.5 1.39.21 1.3-.48-.11-.95-.94-.5-1.03-.23a.3.3 0 0 0 .15.42"/><path class="cls-14" d="M37.36 44.5s-.72-.71.02-1.26c.5-.38 1.2-.75 1.7-.56a3.76 3.76 0 0 0 3.07.1c1.24-.65 1.93.73 1.98.84a.65.65 0 0 1-.32.88m-6.77-.36a2.46 2.46 0 0 0-.78 2.44m7.95-2.48a2.83 2.83 0 0 1 .95 2.57"/><path class="cls-14" d="M40.4 43.14a17.43 17.43 0 0 0-2.2 1.49c-.42.4-.82.86-.44 2.46 0 0-1.06-1.69-.47-2.48a11.06 11.06 0 0 1 2-1.8m2.15.29s1.66.96 2.06 1.93a5.02 5.02 0 0 1 .42 1.55 2.08 2.08 0 0 0 .02-1.74 7.74 7.74 0 0 0-1.56-2m-5.32 5.23s-.19.7.34.87a.5.5 0 0 0 .67-.47c0-.12.09-.4.2-.2s.24 1.4-.35 1.15c-.02.02.3.4.7-.17"/><path class="cls-15" d="M38.88 46.86s.43.55 1.45.07a.87.87 0 0 0-1.45-.07z"/><ellipse cx="39.58" cy="46.83" rx=".31" ry=".32"/><path class="cls-15" d="M38.74 46.29a1.37 1.37 0 0 1 1.4.44m2.77.17s-.42.55-1.45.07a.87.87 0 0 1 1.45-.07z"/><ellipse cx="42.21" cy="46.87" rx=".31" ry=".32"/><path class="cls-15" d="M43.06 46.4a1.28 1.28 0 0 0-1.4.37m-2.86-.94s1.34-.03 1.55.02a.65.65 0 0 1 .38.55 6.82 6.82 0 0 1-.03.72"/><path class="cls-15" d="M42.8 45.9a3.85 3.85 0 0 0-1.33-.02c-.24.08-.2.19-.24.31a5.71 5.71 0 0 0-.07 1.09m-.86.58a1.3 1.3 0 0 1 .38.27c.06.11.28.11.38.05a1.35 1.35 0 0 1 .42-.22c.16-.03.04-.27.04-.27m-.9 1.01a.32.32 0 0 0 .19.11c.09 0 .14-.13.23-.13s.2.1.35.15a1.43 1.43 0 0 0 .42.06 2.13 2.13 0 0 1-1.8.02 2.02 2.02 0 0 0 .37-.15c.1-.06.17-.1.24-.06z"/><path class="cls-15" d="M40.14 48.98s.27.5.68.54a.68.68 0 0 0 .55-.29 1.92 1.92 0 0 1 .29-.3"/><path class="cls-16" d="M37.06 48.07s-.19.7.34.87a.5.5 0 0 0 .67-.47c0-.12.09-.4.2-.2s.24 1.4-.35 1.15c-.02.02.22.48.8-.25"/><path class="cls-14" d="M37.06 48.07s-.19.7.34.87a.5.5 0 0 0 .67-.47c0-.12.09-.4.2-.2s.24 1.4-.35 1.15c-.02.02.34.42.74-.15"/><path class="cls-16" d="M44.82 48.12s.04.48-.59.56-.67-.54-.77-.58a1.05 1.05 0 0 0 .06 1.32.65.65 0 0 1-.57-.55"/><path class="cls-14" d="M44.82 48.12s.04.48-.59.56-.67-.54-.77-.58a1.05 1.05 0 0 0 .06 1.32.65.65 0 0 1-.57-.55m-4.6-2.82s-.08 1.99 0 2.5a4.25 4.25 0 0 0 1.1 1.38 3.34 3.34 0 0 0 1 .76 3.26 3.26 0 0 0 2.34-1.48 7.77 7.77 0 0 0 .5-3.41m-4.71 5.74a2.4 2.4 0 0 0 .9-1.43m2.35.17a1.32 1.32 0 0 0 .73 1.3"/><circle cx="41.37" cy="41.21" r="1.02" fill="#e6e6e6" stroke-width=".4" stroke="#000" stroke-linecap="round" stroke-linejoin="round"/><circle class="cls-18" cx="18.66" cy="75.4" r="1.75" transform="rotate(-89.21 18.66 75.4)"/><path class="cls-5" d="M18.67 74.24a1.15 1.15 0 0 0-.7.22 1.16 1.16 0 0 1 .54 2.09 1.15 1.15 0 0 0 .13.01 1.16 1.16 0 1 0 .03-2.32z"/><path class="cls-18" d="M22.08 60.34a2.03 2.03 0 0 1 .26.95c0 1.53-1.79 2.77-3.99 2.77s-3.98-1.24-3.98-2.77a2.04 2.04 0 0 1 .28-1.01 3.44 3.44 0 0 0-2.19 2.87c0 2.03 2.62 3.68 5.85 3.68s5.85-1.65 5.85-3.68a3.38 3.38 0 0 0-2.08-2.81z"/><path class="cls-14" d="M43.27 25.56a3.03 3.03 0 0 0-3.51-.8"/><path class="cls-15" d="M37.07 26.12a1.43 1.43 0 0 0 1.4.03m4.45.19s-1.42-1.66-2.73-.78a1.53 1.53 0 0 0-.24.96m-1.31-.96a2.86 2.86 0 0 0-1.67-.44"/><path d="M41.75 25.6s.04.78-.37.85-.7-.1-.73-.24a1.24 1.24 0 0 1-.04-.52c.04-.22.05-.25.27-.31l.22-.06zm-3.73-.22s.16.44-.1.66a.53.53 0 0 1-.72 0 1.01 1.01 0 0 1-.08-.71.37.37 0 0 1 .17-.2z"/><circle class="cls-1" cx="41.03" cy="25.7" r=".18" transform="rotate(-78.84 41.03 25.7)"/><circle class="cls-1" cx="37.47" cy="25.47" r=".17" transform="rotate(-78.84 37.47 25.47)"/><path class="cls-15" d="M38.99 24.46a29 29 0 0 1-.87 3c-.34.78-.32.87-.29 1.05a3.73 3.73 0 0 0 1.97.2c.52-.11 0-.92 0-.92"/><path class="cls-14" d="M37 24.28a3.75 3.75 0 0 1 1.9.17"/><path class="cls-19" d="M42.44 32.29a9.62 9.62 0 0 1-3.5 2.34l-1.17-1.27-.2-.42a1.06 1.06 0 0 1-.17-.45 2.67 2.67 0 0 1-.41-1.2l-.02-.26-.01-.18.23.36 1.19 1.55 2.23-1.07 2.38-.02z"/><path class="cls-19" d="M38.19 30.93l.29 1.07.77-1.07h-1.06z"/><path class="cls-14" d="M36.95 22.53a16.34 16.34 0 0 0-.26 3.4 9.53 9.53 0 0 1-.06 2.14c0 .48.2 2.82.97 3.8"/><path class="cls-19" d="M38.59 28.99a2.14 2.14 0 0 0-1.8.58 10.98 10.98 0 0 1-1.07.95 2.73 2.73 0 0 0 2.9-.86 3.3 3.3 0 0 0 2.07 1.19c1.23.08 1.35.1 1.35.1a4.17 4.17 0 0 0-1.05-1.52 2.85 2.85 0 0 0-2.4-.44z"/></g></g></svg>