<svg xmlns="http://www.w3.org/2000/svg" viewBox="0 0 87 140">
  <rect width="87" height="140" rx="6" ry="6" fill="#fff"/>
  <path fill="#0065b7" d="M54.5 119.6l3.6 4 3.6-4V39.3h-7.2v80.3z"/>
  <path fill="#004da1" d="M54.5 119.6l3.6 4 .1-84.3h-3.7v80.3z"/>
  <path fill="none" stroke="#000" stroke-linecap="round" stroke-linejoin="round" stroke-width=".4" d="M54.5 119.6l3.6 4 3.6-4V39.3h-7.2v80.3z"/>
  <path fill="#0065b7" stroke="#000" stroke-linecap="round" stroke-linejoin="round" stroke-width=".4" d="M58.1 123.6V39.4"/>
  <path fill="#febf10" stroke="#000" stroke-linecap="round" stroke-linejoin="round" stroke-width=".4" d="M58.02 36.4l3.28 3.38-3.37 3.27-3.28-3.37z"/>
  <path d="M58.12 35.17l3.28 3.37-3.37 3.28-3.28-3.37z"/>
  <path d="M61.6 29.7c0 5.8-1.6 9.6-3.5 9.6s-3.3-3.9-3.3-9.6a20.2 20.2 0 0 1 3.6-10.5 20.1 20.1 0 0 1 3.2 10.5z" fill="#febf10" stroke="#000" stroke-linecap="round" stroke-linejoin="round" stroke-width=".4"/>
  <path d="M54.9 32.4c.8-1.3 1.7-2 3.8-3.9a6.9 6.9 0 0 0 2.3-3.1m-.8-2.7a8.5 8.5 0 0 1-2.1 2.4 24.1 24.1 0 0 0-3.2 3.1m.5 7.8c.8-1.4 1.7-2.1 3.9-4.1a7.5 7.5 0 0 0 2.3-2.9" fill="none" stroke="#000" stroke-linecap="round" stroke-linejoin="round" stroke-width=".4"/>
  <path d="M61 25.4a6.9 6.9 0 0 1-2.3 3.1c-2.1 1.9-3 2.6-3.8 3.9m1.4 6.2a27.3 27.3 0 0 1 3.4-3.3 12 12 0 0 0 1.6-1.7m.3-4.6a7.5 7.5 0 0 1-2.3 2.9c-2.2 2-3.1 2.7-3.9 4.1" fill="none" stroke="#000" stroke-linecap="round" stroke-linejoin="round" stroke-width=".4"/>
  <circle cx="63.6" cy="36.5" r="4" fill="#febf10" stroke="#000" stroke-linecap="round" stroke-linejoin="round" stroke-width=".4"/>
  <circle cx="63.6" cy="36.5" r="2.7" fill="#febf10" stroke="#000" stroke-linecap="round" stroke-linejoin="round" stroke-width=".4"/>
  <circle cx="63.6" cy="36.5" r="1.5" fill="#d09b07"/>
  <circle cx="52.7" cy="36.4" r="4" fill="#febf10" stroke="#000" stroke-linecap="round" stroke-linejoin="round" stroke-width=".4"/>
  <circle cx="52.7" cy="36.4" r="2.7" fill="#febf10" stroke="#000" stroke-linecap="round" stroke-linejoin="round" stroke-width=".4"/>
  <circle cx="52.7" cy="36.4" r="1.5" fill="#d09b07"/>
  <ellipse cx="58.4" cy="18.1" rx="1.7" ry="1.1" transform="rotate(-89.2 58.44 18.02)" fill="#febf10" stroke="#000" stroke-linecap="round" stroke-linejoin="round" stroke-width=".4"/>
  <ellipse cx="56.3" cy="20.1" rx="1.1" ry="1.7" transform="rotate(-89.2 56.29 20.1)" fill="#febf10" stroke="#000" stroke-linecap="round" stroke-linejoin="round" stroke-width=".4"/>
  <ellipse cx="60.5" cy="20.1" rx="1.1" ry="1.7" transform="rotate(-89.2 60.56 20.02)" fill="#febf10" stroke="#000" stroke-linecap="round" stroke-linejoin="round" stroke-width=".4"/>
  <circle cx="58.4" cy="20.2" r="1.2" fill="#febf10" stroke="#000" stroke-linecap="round" stroke-linejoin="round" stroke-width=".4"/>
  <path d="M58.4 19.4l-.5.2a.8.8 0 0 1 .7.8.7.7 0 0 1-.3.6.8.8 0 0 0 .9-.8.9.9 0 0 0-.8-.8z" fill="#d09b07"/>
  <circle cx="58.1" cy="33.1" r="1.9" fill="#febf10" stroke="#000" stroke-linecap="round" stroke-linejoin="round" stroke-width=".4"/>
  <circle cx="58.1" cy="33.1" r="1.2"/>
  <circle cx="54.8" cy="36.4" r="1.9" fill="#febf10" stroke="#000" stroke-linecap="round" stroke-linejoin="round" stroke-width=".4"/>
  <circle cx="54.8" cy="36.4" r="1.2"/>
  <circle cx="61.6" cy="36.4" r="1.9" fill="#febf10" stroke="#000" stroke-linecap="round" stroke-linejoin="round" stroke-width=".4"/>
  <circle cx="61.6" cy="36.4" r="1.2"/>
  <circle cx="58.1" cy="36.4" r="3.2" fill="#febf10" stroke="#000" stroke-linecap="round" stroke-linejoin="round" stroke-width=".4"/>
  <path fill="#0065b7" d="M25.3 20.4l3.6-4 3.6 4v80.3h-7.2V20.4z"/>
  <path fill="#004da1" d="M25.3 20.4l3.6-4v84.3h-3.6V20.4z"/>
  <path fill="none" stroke="#000" stroke-linecap="round" stroke-linejoin="round" stroke-width=".4" d="M25.3 20.4l3.6-4 3.6 4v80.3h-7.2V20.4z"/>
  <path fill="#0065b7" stroke="#000" stroke-linecap="round" stroke-linejoin="round" stroke-width=".4" d="M28.9 16.4v84.2"/>
  <path fill="#febf10" stroke="#000" stroke-linecap="round" stroke-linejoin="round" stroke-width=".4" d="M28.94 103.58l-3.28-3.37 3.37-3.28 3.28 3.37z"/>
  <path d="M28.94 104.84l-3.27-3.37 3.37-3.27 3.27 3.37z"/>
  <path d="M25.4 110.3c0-5.8 1.6-9.4 3.5-9.4s3.3 3.7 3.3 9.4a20.2 20.2 0 0 1-3.6 10.5 20.1 20.1 0 0 1-3.2-10.5z" fill="#febf10" stroke="#000" stroke-linecap="round" stroke-linejoin="round" stroke-width=".4"/>
  <path d="M32.1 107.6c-.8 1.3-1.7 2-3.8 3.9a6.9 6.9 0 0 0-2.3 3.1m.8 2.7a8.5 8.5 0 0 1 2.1-2.4 24.1 24.1 0 0 0 3.2-3.1m-.5-7.8c-.8 1.4-1.7 2.1-3.9 4.1a7.5 7.5 0 0 0-2.3 2.9" fill="none" stroke="#000" stroke-linecap="round" stroke-linejoin="round" stroke-width=".4"/>
  <path d="M26 114.6a6.9 6.9 0 0 1 2.3-3.1c2.1-1.9 3-2.6 3.8-3.9m-1.4-6.2a27.3 27.3 0 0 1-3.4 3.3 12 12 0 0 0-1.6 1.7m-.3 4.6a7.5 7.5 0 0 1 2.3-2.9c2.2-2 3.1-2.7 3.9-4.1" fill="none" stroke="#000" stroke-linecap="round" stroke-linejoin="round" stroke-width=".4"/>
  <circle cx="23.4" cy="103.5" r="4" fill="#febf10" stroke="#000" stroke-linecap="round" stroke-linejoin="round" stroke-width=".4"/>
  <circle cx="23.4" cy="103.5" r="2.7" fill="#febf10" stroke="#000" stroke-linecap="round" stroke-linejoin="round" stroke-width=".4"/>
  <circle cx="23.4" cy="103.5" r="1.5" fill="#d09b07"/>
  <circle cx="34.3" cy="103.6" r="4" fill="#febf10" stroke="#000" stroke-linecap="round" stroke-linejoin="round" stroke-width=".4"/>
  <circle cx="34.3" cy="103.6" r="2.7" fill="#febf10" stroke="#000" stroke-linecap="round" stroke-linejoin="round" stroke-width=".4"/>
  <circle cx="34.3" cy="103.6" r="1.5" fill="#d09b07"/>
  <ellipse cx="28.6" cy="121.9" rx="1.7" ry="1.1" transform="rotate(-89.2 28.7 122)" fill="#febf10" stroke="#000" stroke-linecap="round" stroke-linejoin="round" stroke-width=".4"/>
  <ellipse cx="30.7" cy="119.9" rx="1.1" ry="1.7" transform="rotate(-89.2 30.8 119.98)" fill="#febf10" stroke="#000" stroke-linecap="round" stroke-linejoin="round" stroke-width=".4"/>
  <ellipse cx="26.5" cy="119.9" rx="1.1" ry="1.7" transform="rotate(-89.2 26.52 119.96)" fill="#febf10" stroke="#000" stroke-linecap="round" stroke-linejoin="round" stroke-width=".4"/>
  <circle cx="28.6" cy="119.8" r="1.2" fill="#febf10" stroke="#000" stroke-linecap="round" stroke-linejoin="round" stroke-width=".4"/>
  <path d="M28.6 120.6l.5-.2a.8.8 0 0 1-.7-.8.7.7 0 0 1 .3-.6.8.8 0 0 0-.9.8.9.9 0 0 0 .8.8z" fill="#d09b07"/>
  <circle cx="28.9" cy="106.9" r="1.9" fill="#febf10" stroke="#000" stroke-linecap="round" stroke-linejoin="round" stroke-width=".4"/>
  <circle cx="28.9" cy="106.9" r="1.2"/>
  <circle cx="32.2" cy="103.6" r="1.9" fill="#febf10" stroke="#000" stroke-linecap="round" stroke-linejoin="round" stroke-width=".4"/>
  <circle cx="32.2" cy="103.6" r="1.2"/>
  <circle cx="25.4" cy="103.6" r="1.9" fill="#febf10" stroke="#000" stroke-linecap="round" stroke-linejoin="round" stroke-width=".4"/>
  <circle cx="25.4" cy="103.6" r="1.2"/>
  <circle cx="28.9" cy="103.6" r="3.2" fill="#febf10" stroke="#000" stroke-linecap="round" stroke-linejoin="round" stroke-width=".4"/>
  <path d="M43.6 51.4C31.7 51.4 22 56.7 22 63.3a8.6 8.6 0 0 0 3.2 6.3v-.4c0-6.6 8.2-12 18.3-12s18.3 5.4 18.3 12c0 .2-.1.4-.1.7a8.9 8.9 0 0 0 3.5-6.6c0-6.6-9.6-11.9-21.6-11.9z" fill="red"/>
  <path d="M43.6 54.1c11.2 0 20.4 4.6 21.6 10.6a5.9 5.9 0 0 0 .2-1.4c0-6.6-9.7-12-21.8-12s-21.7 5.4-21.7 12a6.1 6.1 0 0 0 .1 1.4c1.3-6 10.5-10.6 21.6-10.6z" fill="#980805"/>
  <path d="M43.6 51.4C31.7 51.4 22 56.7 22 63.3a8.6 8.6 0 0 0 3.2 6.3v-.4c0-6.6 8.2-12 18.3-12s18.3 5.4 18.3 12c0 .2-.1.4-.1.7a8.9 8.9 0 0 0 3.5-6.6c0-6.6-9.6-11.9-21.6-11.9z" fill="none" stroke="#000" stroke-linecap="round" stroke-linejoin="round" stroke-width=".4"/>
  <path d="M54.5 70.8s-3 3.1-2.5 6.7 8.3 4.5 10.1 5.6a6.4 6.4 0 0 1 2.5 2.4s.4-4-1.5-5.5c-.1 0 2.8-2.2.7-6.4 0-.1-.9 2.8-3.2 3.3s-4.3.5-6.1-2.3zm-22-1.8s3.1 3.1 2.5 6.7-8.3 4.5-10.1 5.6a6.4 6.4 0 0 0-2.5 2.4s-.4-4 1.5-5.5c.1 0-2.7-2.2-.7-6.4 0-.1 1 2.8 3.2 3.3s4.4.5 6.1-2.3z" fill="red"/>
  <path d="M32.5 72.7a2.4 2.4 0 0 1 1.4 2.8c-.2 1.8-2 3.3-1.9 3.3a4 4 0 0 0 3.2-4c-.2-2.9-2.7-5.8-2.7-5.8zm21.9 1.8a2.4 2.4 0 0 0-1.3 2.8 6.1 6.1 0 0 0 1.9 3.3c-.6-.1-3.4-1.1-3.2-4s2.7-5.8 2.7-5.8z" fill="#980805"/>
  <path d="M32.5 69s3.1 3.1 2.5 6.7-8.3 4.5-10.1 5.6a6.4 6.4 0 0 0-2.5 2.4s-.4-4 1.5-5.5c.1 0-2.7-2.2-.7-6.4 0-.1 1 2.8 3.2 3.3s4.4.5 6.1-2.3zm22 1.8s-3 3.1-2.5 6.7 8.3 4.5 10.1 5.6a6.4 6.4 0 0 1 2.5 2.4s.4-4-1.5-5.5c-.1 0 2.8-2.2.7-6.4 0-.1-.9 2.8-3.2 3.3s-4.3.5-6.1-2.3z" fill="none" stroke="#000" stroke-linecap="round" stroke-linejoin="round" stroke-width=".4"/>
</svg>
