<svg xmlns="http://www.w3.org/2000/svg" viewBox="0 0 87 140">
  <rect width="87" height="140" rx="6" ry="6" fill="#fff"/>
  <path d="M28.4 63.8a7.2 7.2 0 0 1-2.7 3.7 7.2 7.2 0 0 1-.8-4.5 7.2 7.2 0 0 1 2.7-3.7 7 7 0 0 1 .8 4.5z" fill="#325723"/>
  <path d="M26.3 65.2a8 8 0 0 1-.9-3.5c-.2.4-.3.8-.5 1.3a7.2 7.2 0 0 0 .8 4.5 7.2 7.2 0 0 0 2.7-3.7 3.4 3.4 0 0 0 .1-1 7.2 7.2 0 0 1-2.2 2.4z" fill="#0d3a12"/>
  <path d="M28.4 63.8a7.2 7.2 0 0 1-2.7 3.7 7.2 7.2 0 0 1-.8-4.5 7.2 7.2 0 0 1 2.7-3.7 7 7 0 0 1 .8 4.5z" fill="none" stroke="#000" stroke-linecap="round" stroke-linejoin="round" stroke-width=".4"/>
  <path d="M25.4 66.1a6.8 6.8 0 0 1 1.8 4.2 6.8 6.8 0 0 1-4.2-1.6 6.8 6.8 0 0 1-1.8-4.2 7.4 7.4 0 0 1 4.2 1.6z" fill="#325723" stroke="#000" stroke-linecap="round" stroke-linejoin="round" stroke-width=".4"/>
  <path d="M24.8 69.9a5.5 5.5 0 0 1 3.3.9 5 5 0 0 1-2.9 1.7 5.1 5.1 0 0 1-3.2-.9 5.6 5.6 0 0 1 2.8-1.7z" fill="#325723"/>
  <path d="M26.3 71a5.5 5.5 0 0 1-2.1 1.5h1a5 5 0 0 0 2.9-1.7 5.5 5.5 0 0 0-3.3-.9l-.7.2a6.1 6.1 0 0 1 2.2.9z" fill="#0d3a12"/>
  <path d="M24.8 69.9a5.5 5.5 0 0 1 3.3.9 5 5 0 0 1-2.9 1.7 5.1 5.1 0 0 1-3.2-.9 5.6 5.6 0 0 1 2.8-1.7z" fill="none" stroke="#000" stroke-linecap="round" stroke-linejoin="round" stroke-width=".4"/>
  <path d="M32.8 73.4a5.6 5.6 0 0 1 3.2-1.1 5.1 5.1 0 0 1-1.5 3 4.5 4.5 0 0 1-3.1 1.1 5.3 5.3 0 0 1 1.4-3z" fill="#325723"/>
  <path d="M34.7 73.4a6.3 6.3 0 0 1-1 2.5 2.4 2.4 0 0 0 .8-.6 5.1 5.1 0 0 0 1.5-3 5.6 5.6 0 0 0-3.2 1.1l-.5.6a6 6 0 0 1 2.4-.6z" fill="#0d3a12"/>
  <path d="M32.8 73.4a5.6 5.6 0 0 1 3.2-1.1 5.1 5.1 0 0 1-1.5 3 4.5 4.5 0 0 1-3.1 1.1 5.3 5.3 0 0 1 1.4-3z" fill="none" stroke="#000" stroke-linecap="round" stroke-linejoin="round" stroke-width=".4"/>
  <path d="M28.5 72.2a6.3 6.3 0 0 1 4.1 0 6 6 0 0 1-2.8 2.9 5.9 5.9 0 0 1-4.1.1 6.1 6.1 0 0 1 2.8-3zm7.8-2.2a6.1 6.1 0 0 1 2.1 3.3 6.4 6.4 0 0 1-3.9-.8 6 6 0 0 1-2-3.3 6.2 6.2 0 0 1 3.8.8z" fill="#325723" stroke="#000" stroke-linecap="round" stroke-linejoin="round" stroke-width=".4"/>
  <path d="M39.5 68.2a5.7 5.7 0 0 1 2.7 2.5 5.5 5.5 0 0 1-3.7.1 5.3 5.3 0 0 1-2.6-2.5 6 6 0 0 1 3.6-.1z" fill="#325723"/>
  <path d="M40.4 70a6.3 6.3 0 0 1-2.8.3l.9.5a5.5 5.5 0 0 0 3.7-.1 5.7 5.7 0 0 0-2.7-2.5l-.8-.2a6.2 6.2 0 0 1 1.7 2z" fill="#0d3a12"/>
  <path d="M39.5 68.2a5.7 5.7 0 0 1 2.7 2.5 5.5 5.5 0 0 1-3.7.1 5.3 5.3 0 0 1-2.6-2.5 6 6 0 0 1 3.6-.1z" fill="none" stroke="#000" stroke-linecap="round" stroke-linejoin="round" stroke-width=".4"/>
  <path d="M40.3 75a6.3 6.3 0 0 1-3.5 2.1 6.3 6.3 0 0 1 .9-4 6 6 0 0 1 3.5-2.1 6.3 6.3 0 0 1-.9 4zm9.3-8.2a5 5 0 0 1-2.5 2.1 4.3 4.3 0 0 1 2.7-5.4 5.4 5.4 0 0 1-.2 3.3z" fill="#325723" stroke="#000" stroke-linecap="round" stroke-linejoin="round" stroke-width=".4"/>
  <path d="M54.7 64.9a7.3 7.3 0 0 1-4.2 1.7 6.8 6.8 0 0 1 1.8-4.2 7.4 7.4 0 0 1 4.3-1.7 7.2 7.2 0 0 1-1.9 4.2z" fill="#325723"/>
  <path d="M52.2 65a7.1 7.1 0 0 1 1.2-3.4l-1.1.8a6.8 6.8 0 0 0-1.8 4.2 7.3 7.3 0 0 0 4.2-1.7 2.7 2.7 0 0 0 .7-.8 8.8 8.8 0 0 1-3.2.9z" fill="#0d3a12"/>
  <path d="M54.7 64.9a7.3 7.3 0 0 1-4.2 1.7 6.8 6.8 0 0 1 1.8-4.2 7.4 7.4 0 0 1 4.3-1.7 7.2 7.2 0 0 1-1.9 4.2z" fill="none" stroke="#000" stroke-linecap="round" stroke-linejoin="round" stroke-width=".4"/>
  <path d="M51.5 68.4A3.9 3.9 0 0 1 49 67a4.8 4.8 0 0 1 2.7-.8 4.9 4.9 0 0 1 2.5 1.4 4.1 4.1 0 0 1-2.7.8z" fill="#325723" stroke="#000" stroke-linecap="round" stroke-linejoin="round" stroke-width=".4"/>
  <path d="M49.1 71.7a4.5 4.5 0 0 1-1.7-2.2 4 4 0 0 1 2.7.3 3.9 3.9 0 0 1 1.7 2.2 4.8 4.8 0 0 1-2.7-.3z" fill="#325723"/>
  <path d="M48.6 70.2a5.6 5.6 0 0 1 2.2.1 1.8 1.8 0 0 0-.7-.5 4 4 0 0 0-2.7-.3 4.5 4.5 0 0 0 1.7 2.2l.6.2a4.1 4.1 0 0 1-1.1-1.7z" fill="#0d3a12"/>
  <path d="M49.1 71.7a4.5 4.5 0 0 1-1.7-2.2 4 4 0 0 1 2.7.3 3.9 3.9 0 0 1 1.7 2.2 4.8 4.8 0 0 1-2.7-.3z" fill="none" stroke="#000" stroke-linecap="round" stroke-linejoin="round" stroke-width=".4"/>
  <path d="M61.2 69.1a6.8 6.8 0 0 1-3.1-3.3 7.5 7.5 0 0 1 4.6.1 7.3 7.3 0 0 1 3.1 3.4 7.1 7.1 0 0 1-4.6-.2z" fill="#325723"/>
  <path d="M60.2 66.8a8.4 8.4 0 0 1 3.6-.1l-1.1-.8a7.5 7.5 0 0 0-4.6-.1 6.8 6.8 0 0 0 3.1 3.3l1 .4a8.4 8.4 0 0 1-2-2.7z" fill="#0d3a12"/>
  <path d="M61.2 69.1a6.8 6.8 0 0 1-3.1-3.3 7.5 7.5 0 0 1 4.6.1 7.3 7.3 0 0 1 3.1 3.4 7.1 7.1 0 0 1-4.6-.2z" fill="none" stroke="#000" stroke-linecap="round" stroke-linejoin="round" stroke-width=".4"/>
  <path d="M56 68.7a4 4 0 0 1-.7-2.7 4.1 4.1 0 0 1 2.4 1.3 4.3 4.3 0 0 1 .8 2.7 4.3 4.3 0 0 1-2.5-1.3z" fill="#325723" stroke="#000" stroke-linecap="round" stroke-linejoin="round" stroke-width=".4"/>
  <path d="M57 63.2a6.1 6.1 0 0 1 4.2.6 6.9 6.9 0 0 1-3.4 2.6 6.8 6.8 0 0 1-4.2-.6 6.9 6.9 0 0 1 3.4-2.6z" fill="#325723" stroke="#000" stroke-linecap="round" stroke-linejoin="round" stroke-width=".4"/>
  <path d="M59.3 77a5.6 5.6 0 0 1 2.9-1.7 5.4 5.4 0 0 1-.8 3.3 5.6 5.6 0 0 1-2.9 1.7 5.4 5.4 0 0 1 .8-3.3z" fill="#325723"/>
  <path d="M61.1 76.7a4.6 4.6 0 0 1-.4 2.5c.3-.1.5-.4.7-.6a5.4 5.4 0 0 0 .8-3.3 5.6 5.6 0 0 0-2.9 1.7l-.3.7a4.7 4.7 0 0 1 2.1-1z" fill="#0d3a12"/>
  <path d="M59.3 77a5.6 5.6 0 0 1 2.9-1.7 5.4 5.4 0 0 1-.8 3.3 5.6 5.6 0 0 1-2.9 1.7 5.4 5.4 0 0 1 .8-3.3z" fill="none" stroke="#000" stroke-linecap="round" stroke-linejoin="round" stroke-width=".4"/>
  <path d="M64.9 74.8a6.4 6.4 0 0 1-.8 4 6 6 0 0 1-2.3-3.3 6.1 6.1 0 0 1 .7-4.1 6.4 6.4 0 0 1 2.4 3.4z" fill="#325723" stroke="#000" stroke-linecap="round" stroke-linejoin="round" stroke-width=".4"/>
  <path d="M27 67.3c-.5-.7 0-2.4 0-2.4s1.8-.1 2.4.7a1.5 1.5 0 1 1-2.4 1.7z" fill="#febf10"/>
  <path d="M28 67.9c-.4-.5 0-1.8 0-1.8s1.3 0 1.7.5a1.3 1.3 0 0 1-.1 1.7 1.3 1.3 0 0 1-1.6-.4z" fill="#d09b07"/>
  <path d="M27 67.3c-.5-.7 0-2.4 0-2.4s1.8-.1 2.4.7a1.5 1.5 0 1 1-2.4 1.7z" fill="none" stroke="#000" stroke-linecap="round" stroke-linejoin="round" stroke-width=".4"/>
  <path d="M30.1 65.6c.4-.8 2.1-1.1 2.1-1.1s.9 1.6.5 2.4a1.6 1.6 0 0 1-2.1.9 1.6 1.6 0 0 1-.5-2.2z" fill="#febf10"/>
  <path d="M33.1 68c.9.3 1.3 2.1 1.3 2.1s-1.5.9-2.4.6a1.6 1.6 0 0 1-1-2 1.5 1.5 0 0 1 2.1-.7z" fill="#febf10"/>
  <path d="M29.9 66.7c.3-.6 1.6-.7 1.6-.7s.6 1.2.2 1.7a1 1 0 1 1-1.8-1z" fill="#d09b07"/>
  <path d="M31.8 68c.7.3 1 1.5 1 1.5s-1.1.7-1.7.5a1.1 1.1 0 1 1 .7-2z" fill="#d09b07"/>
  <path d="M31.6 71.1c.1.9-1.3 2.1-1.3 2.1s-1.5-.8-1.6-1.8a1.5 1.5 0 0 1 1.2-1.8 1.6 1.6 0 0 1 1.7 1.5z" fill="#febf10"/>
  <path d="M31.2 70.1c0 .7-1 1.5-1 1.5s-1.1-.7-1.1-1.4a1.1 1.1 0 0 1 1-1.3 1.3 1.3 0 0 1 1.1 1.2z" fill="#d09b07"/>
  <path d="M28.1 70.9c-.9.4-2.5-.4-2.5-.4s.3-1.8 1.2-2.2a1.6 1.6 0 0 1 2.1.6 1.5 1.5 0 0 1-.8 2z" fill="#febf10"/>
  <path d="M30.1 65.6c.4-.8 2.1-1.1 2.1-1.1s.9 1.6.5 2.4a1.6 1.6 0 0 1-2.1.9 1.6 1.6 0 0 1-.5-2.2z" fill="none" stroke="#000" stroke-linecap="round" stroke-linejoin="round" stroke-width=".4"/>
  <path d="M28.8 70.2c-.7.2-1.7-.6-1.7-.6s.4-1.2 1-1.4 1.3 0 1.5.6a1.1 1.1 0 0 1-.8 1.4z" fill="#d09b07"/>
  <path d="M33.1 68c.9.3 1.3 2.1 1.3 2.1s-1.5.9-2.4.6a1.6 1.6 0 0 1-1-2 1.5 1.5 0 0 1 2.1-.7z" fill="none" stroke="#000" stroke-linecap="round" stroke-linejoin="round" stroke-width=".4"/>
  <path d="M31.6 71.1c.1.9-1.3 2.1-1.3 2.1s-1.5-.8-1.6-1.8a1.5 1.5 0 0 1 1.2-1.8 1.6 1.6 0 0 1 1.7 1.5z" fill="none" stroke="#000" stroke-linecap="round" stroke-linejoin="round" stroke-width=".4"/>
  <path d="M28.1 70.9c-.9.4-2.5-.4-2.5-.4s.3-1.8 1.2-2.2a1.6 1.6 0 0 1 2.1.6 1.5 1.5 0 0 1-.8 2z" fill="none" stroke="#000" stroke-linecap="round" stroke-linejoin="round" stroke-width=".4"/>
  <circle cx="29.8" cy="68.6" r="1.5" fill="red" stroke="#000" stroke-linecap="round" stroke-linejoin="round" stroke-width=".4"/>
  <circle cx="29.8" cy="68.6" r=".6" fill="#980805" stroke="#000" stroke-linecap="round" stroke-linejoin="round" stroke-width=".4"/>
  <path d="M42.6 68.4c-.3-.9.7-2.4.7-2.4s1.8.5 2.1 1.4a1.6 1.6 0 0 1-.8 2.1 1.7 1.7 0 0 1-2-1.1z" fill="#febf10"/>
  <path d="M43.4 69.2c-.3-.6.5-1.7.5-1.7s1.2.3 1.5 1a1.2 1.2 0 0 1-.6 1.5 1.1 1.1 0 0 1-1.4-.8z" fill="#d09b07"/>
  <path d="M42.6 68.4c-.3-.9.7-2.4.7-2.4s1.8.5 2.1 1.4a1.6 1.6 0 0 1-.8 2.1 1.7 1.7 0 0 1-2-1.1z" fill="none" stroke="#000" stroke-linecap="round" stroke-linejoin="round" stroke-width=".4"/>
  <path d="M46 67.6c.7-.7 2.4-.4 2.4-.4s.4 1.7-.3 2.4a1.5 1.5 0 0 1-2.2.2 1.6 1.6 0 0 1 .1-2.2z" fill="#febf10"/>
  <path d="M48.3 70.7c.7.6.6 2.4.6 2.4s-1.7.5-2.4-.1a1.5 1.5 0 0 1-.4-2.2 1.6 1.6 0 0 1 2.2-.1z" fill="#febf10"/>
  <path d="M45.6 68.6c.4-.5 1.7-.2 1.7-.2s.2 1.2-.3 1.7a1.1 1.1 0 0 1-1.6.1 1.1 1.1 0 0 1 .2-1.6z" fill="#d09b07"/>
  <path d="M47 70.4c.6.4.5 1.7.5 1.7s-1.2.4-1.8 0a1.3 1.3 0 0 1-.3-1.6 1.1 1.1 0 0 1 1.6-.1z" fill="#d09b07"/>
  <path d="M45.9 73.3c-.1.9-1.8 1.7-1.8 1.7s-1.2-1.3-1.1-2.2a1.6 1.6 0 0 1 1.8-1.4 1.5 1.5 0 0 1 1.1 1.9z" fill="#febf10"/>
  <path d="M45.8 72.2c-.1.7-1.3 1.2-1.3 1.2s-.9-1-.7-1.7a1 1 0 0 1 1.3-.9 1 1 0 0 1 .7 1.4z" fill="#d09b07"/>
  <path d="M42.6 72.1c-.9.2-2.2-1.1-2.2-1.1s.8-1.6 1.7-1.7a1.4 1.4 0 1 1 .5 2.8z" fill="#febf10"/>
  <path d="M46 67.6c.7-.7 2.4-.4 2.4-.4s.4 1.7-.3 2.4a1.5 1.5 0 0 1-2.2.2 1.6 1.6 0 0 1 .1-2.2z" fill="none" stroke="#000" stroke-linecap="round" stroke-linejoin="round" stroke-width=".4"/>
  <path d="M43.5 71.6c-.7 0-1.5-1-1.5-1s.8-1.1 1.4-1.1 1.3.4 1.3 1a1.1 1.1 0 0 1-1.2 1.1z" fill="#d09b07"/>
  <path d="M48.3 70.7c.7.6.6 2.4.6 2.4s-1.7.5-2.4-.1a1.5 1.5 0 0 1-.4-2.2 1.6 1.6 0 0 1 2.2-.1z" fill="none" stroke="#000" stroke-linecap="round" stroke-linejoin="round" stroke-width=".4"/>
  <path d="M45.9 73.3c-.1.9-1.8 1.7-1.8 1.7s-1.2-1.3-1.1-2.2a1.6 1.6 0 0 1 1.8-1.4 1.5 1.5 0 0 1 1.1 1.9zm-3.3-1.2c-.9.2-2.2-1.1-2.2-1.1s.8-1.6 1.7-1.7a1.4 1.4 0 1 1 .5 2.8z" fill="none" stroke="#000" stroke-linecap="round" stroke-linejoin="round" stroke-width=".4"/>
  <circle cx="44.9" cy="70.4" r="1.5" fill="red" stroke="#000" stroke-linecap="round" stroke-linejoin="round" stroke-width=".4"/>
  <circle cx="44.9" cy="70.4" r=".6" fill="#980805" stroke="#000" stroke-linecap="round" stroke-linejoin="round" stroke-width=".4"/>
  <path d="M56.1 72.1c-.8-.4-.9-2.2-.9-2.2s1.6-.8 2.4-.3a1.5 1.5 0 1 1-1.5 2.5z" fill="#febf10"/>
  <path d="M57.2 72.3c-.6-.4-.7-1.6-.7-1.6s1.2-.6 1.8-.3a1.1 1.1 0 1 1-1.1 1.9z" fill="#d09b07"/>
  <path d="M56.1 72.1c-.8-.4-.9-2.2-.9-2.2s1.6-.8 2.4-.3a1.5 1.5 0 1 1-1.5 2.5z" fill="none" stroke="#000" stroke-linecap="round" stroke-linejoin="round" stroke-width=".4"/>
  <path d="M58.2 69.4c.1-1 1.6-1.9 1.6-1.9s1.4 1.1 1.3 2a1.4 1.4 0 0 1-1.5 1.6 1.6 1.6 0 0 1-1.4-1.7z" fill="#febf10"/>
  <path d="M62 70.3c.9 0 2 1.4 2 1.4s-1 1.5-2 1.5a1.6 1.6 0 0 1-1.7-1.4 1.7 1.7 0 0 1 1.7-1.5z" fill="#febf10"/>
  <path d="M58.5 70.4c.1-.7 1.2-1.3 1.2-1.3s1 .9.9 1.5-.6 1.2-1.2 1.1a1 1 0 0 1-.9-1.3z" fill="#d09b07"/>
  <path d="M60.8 70.8c.7 0 1.5 1.1 1.5 1.1s-.7 1-1.4 1.1a1.2 1.2 0 0 1-1.3-1.1 1.3 1.3 0 0 1 1.2-1.1z" fill="#d09b07"/>
  <path d="M61.8 73.8c.5.8-.3 2.4-.3 2.4s-1.8-.2-2.2-1a1.6 1.6 0 0 1 .4-2.2 1.6 1.6 0 0 1 2.1.8z" fill="#febf10"/>
  <path d="M61 73c.3.6-.3 1.8-.3 1.8s-1.3-.2-1.6-.9a1.1 1.1 0 0 1 .4-1.5 1.1 1.1 0 0 1 1.5.6z" fill="#d09b07"/>
  <path d="M58.5 75c-.6.7-2.4.6-2.4.6s-.4-1.8.2-2.5a1.6 1.6 0 0 1 2.2-.3 1.6 1.6 0 0 1 0 2.2z" fill="#febf10"/>
  <path d="M58.2 69.4c.1-1 1.6-1.9 1.6-1.9s1.4 1.1 1.3 2a1.4 1.4 0 0 1-1.5 1.6 1.6 1.6 0 0 1-1.4-1.7z" fill="none" stroke="#000" stroke-linecap="round" stroke-linejoin="round" stroke-width=".4"/>
  <path d="M58.9 74.1c-.5.4-1.8.1-1.8.1s-.1-1.3.4-1.7a1 1 0 0 1 1.6 0 1.1 1.1 0 0 1-.2 1.6z" fill="#d09b07"/>
  <path d="M62 70.3c.9 0 2 1.4 2 1.4s-1 1.5-2 1.5a1.6 1.6 0 0 1-1.7-1.4 1.7 1.7 0 0 1 1.7-1.5z" fill="none" stroke="#000" stroke-linecap="round" stroke-linejoin="round" stroke-width=".4"/>
  <path d="M61.8 73.8c.5.8-.3 2.4-.3 2.4s-1.8-.2-2.2-1a1.6 1.6 0 0 1 .4-2.2 1.6 1.6 0 0 1 2.1.8z" fill="none" stroke="#000" stroke-linecap="round" stroke-linejoin="round" stroke-width=".4"/>
  <path d="M58.5 75c-.6.7-2.4.6-2.4.6s-.4-1.8.2-2.5a1.6 1.6 0 0 1 2.2-.3 1.6 1.6 0 0 1 0 2.2z" fill="none" stroke="#000" stroke-linecap="round" stroke-linejoin="round" stroke-width=".4"/>
  <circle cx="59.2" cy="72.2" r="1.5" fill="red" stroke="#000" stroke-linecap="round" stroke-linejoin="round" stroke-width=".4"/>
  <circle cx="59.2" cy="72.2" r=".6" fill="#980805" stroke="#000" stroke-linecap="round" stroke-linejoin="round" stroke-width=".4"/>
  <path fill="#0065b7" d="M38.9 53.9l-1.2 4.4-4.2-1.7-11.9-24.3 5.5-2.7 11.8 24.3z"/>
  <path fill="#004da1" d="M38.9 53.9l-1.2 4.4L24.3 31l2.8-1.4 11.8 24.3z"/>
  <path fill="none" stroke="#000" stroke-linecap="round" stroke-linejoin="round" stroke-width=".4" d="M38.9 53.9l-1.2 4.4-4.2-1.7-11.9-24.3 5.5-2.7 11.8 24.3z"/>
  <path fill="#0065b7" stroke="#000" stroke-linecap="round" stroke-linejoin="round" stroke-width=".4" d="M37.7 58.3L24.4 31.1"/>
  <path fill="#febf10" stroke="#000" stroke-linecap="round" stroke-linejoin="round" stroke-width=".4" d="M24.43 31.25l3.76 1.35-1.34 3.73-3.76-1.36z"/>
  <path d="M24.06 30.37l3.76 1.35-1.34 3.73-3.77-1.36z"/>
  <path d="M24.7 24.9c2.1 4.4 2.2 7.7.8 8.4s-3.9-1.5-6-5.9a16.7 16.7 0 0 1-1.2-9.2 16.5 16.5 0 0 1 6.4 6.7z" fill="#febf10" stroke="#000" stroke-linecap="round" stroke-linejoin="round" stroke-width=".4"/>
  <path d="M20.6 29.4a14.6 14.6 0 0 1 1.4-4.3 5.7 5.7 0 0 0 .6-3.3M21 20.1a8.5 8.5 0 0 1-.7 2.6 23.6 23.6 0 0 0-1.3 3.5m3.3 5.7c.1-1.3.5-2.2 1.5-4.5a8.2 8.2 0 0 0 .6-3" fill="none" stroke="#000" stroke-linecap="round" stroke-linejoin="round" stroke-width=".4"/>
  <path d="M22.6 21.8a5.7 5.7 0 0 1-.6 3.3 14.6 14.6 0 0 0-1.4 4.3m3.4 4.2a12.6 12.6 0 0 1 1.3-3.7 13 13 0 0 0 .6-1.9m-1.5-3.6a8.2 8.2 0 0 1-.6 3c-1 2.3-1.4 3.2-1.5 4.5" fill="none" stroke="#000" stroke-linecap="round" stroke-linejoin="round" stroke-width=".4"/>
  <circle cx="28.7" cy="29.4" r="3.3" fill="#febf10" stroke="#000" stroke-linecap="round" stroke-linejoin="round" stroke-width=".4"/>
  <circle cx="28.7" cy="29.4" r="2.3" fill="#febf10" stroke="#000" stroke-linecap="round" stroke-linejoin="round" stroke-width=".4"/>
  <circle cx="28.7" cy="29.4" r="1.3" fill="#d09b07"/>
  <circle cx="20.4" cy="33.2" r="3.3" fill="#febf10" stroke="#000" stroke-linecap="round" stroke-linejoin="round" stroke-width=".4"/>
  <circle cx="20.4" cy="33.2" r="2.3" fill="#febf10" stroke="#000" stroke-linecap="round" stroke-linejoin="round" stroke-width=".4"/>
  <circle cx="20.4" cy="33.2" r="1.3" fill="#d09b07"/>
  <ellipse cx="17.9" cy="17.3" rx=".9" ry="1.4" transform="rotate(-25.2 17.95 17.4)" fill="#febf10" stroke="#000" stroke-linecap="round" stroke-linejoin="round" stroke-width=".4"/>
  <ellipse cx="17.1" cy="19.6" rx="1.4" ry=".9" transform="rotate(-25.2 17 19.54)" fill="#febf10" stroke="#000" stroke-linecap="round" stroke-linejoin="round" stroke-width=".4"/>
  <ellipse cx="20.3" cy="18" rx="1.4" ry=".9" transform="rotate(-25.2 20.41 17.95)" fill="#febf10" stroke="#000" stroke-linecap="round" stroke-linejoin="round" stroke-width=".4"/>
  <circle cx="18.7" cy="18.9" r="1" fill="#febf10" stroke="#000" stroke-linecap="round" stroke-linejoin="round" stroke-width=".4"/>
  <path d="M18.4 18.3l-.3.3a.6.6 0 0 1 .8.4.6.6 0 0 1 0 .6.1.1 0 0 0 .1-.1.7.7 0 1 0-.6-1.2z" fill="#d09b07"/>
  <circle cx="23.3" cy="28.8" r="1.6" fill="#febf10" stroke="#000" stroke-linecap="round" stroke-linejoin="round" stroke-width=".4"/>
  <circle cx="23.3" cy="28.8" r="1"/>
  <circle cx="22" cy="32.5" r="1.6" fill="#febf10" stroke="#000" stroke-linecap="round" stroke-linejoin="round" stroke-width=".4"/>
  <circle cx="22" cy="32.5" r="1"/>
  <circle cx="27.1" cy="30" r="1.6" fill="#febf10" stroke="#000" stroke-linecap="round" stroke-linejoin="round" stroke-width=".4"/>
  <circle cx="27.1" cy="30" r="1"/>
  <circle cx="24.5" cy="31.3" r="2.7" fill="#febf10" stroke="#000" stroke-linecap="round" stroke-linejoin="round" stroke-width=".4"/>
  <path fill="#0065b7" d="M53.5 83.4l-4.2-1.7-1.2 4.4 11.8 24.3 5.5-2.7-11.9-24.3z"/>
  <path fill="#004da1" d="M53.5 83.4l-4.2-1.7L62.6 109l2.8-1.3-11.9-24.3z"/>
  <path fill="none" stroke="#000" stroke-linecap="round" stroke-linejoin="round" stroke-width=".4" d="M53.5 83.4l-4.2-1.7-1.2 4.4 11.8 24.3 5.5-2.7-11.9-24.3z"/>
  <path fill="#0065b7" stroke="#000" stroke-linecap="round" stroke-linejoin="round" stroke-width=".4" d="M49.3 81.7l13.3 27.2"/>
  <path fill="#febf10" stroke="#000" stroke-linecap="round" stroke-linejoin="round" stroke-width=".4" d="M62.6 108.67l-3.76-1.35 1.34-3.73 3.76 1.36z"/>
  <path d="M62.97 109.66l-3.76-1.35 1.34-3.73 3.76 1.36z"/>
  <path d="M62.3 115.1c-2.1-4.4-2.2-7.7-.8-8.4s3.9 1.5 6 5.9a16.7 16.7 0 0 1 1.2 9.2 16.5 16.5 0 0 1-6.4-6.7z" fill="#febf10" stroke="#000" stroke-linecap="round" stroke-linejoin="round" stroke-width=".4"/>
  <path d="M66.4 110.6a14.6 14.6 0 0 1-1.4 4.3 5.7 5.7 0 0 0-.6 3.3m1.6 1.7a8.5 8.5 0 0 1 .7-2.6 23.6 23.6 0 0 0 1.3-3.5m-3.3-5.7c-.1 1.3-.5 2.2-1.5 4.5a8.2 8.2 0 0 0-.6 3" fill="none" stroke="#000" stroke-linecap="round" stroke-linejoin="round" stroke-width=".4"/>
  <path d="M64.4 118.2a5.7 5.7 0 0 1 .6-3.3 14.6 14.6 0 0 0 1.4-4.3m-3.4-4.2a12.6 12.6 0 0 1-1.3 3.7 13 13 0 0 0-.6 1.9m1.5 3.6a8.2 8.2 0 0 1 .6-3c1-2.3 1.4-3.2 1.5-4.5" fill="none" stroke="#000" stroke-linecap="round" stroke-linejoin="round" stroke-width=".4"/>
  <circle cx="58.3" cy="110.6" r="3.3" fill="#febf10" stroke="#000" stroke-linecap="round" stroke-linejoin="round" stroke-width=".4"/>
  <circle cx="58.3" cy="110.6" r="2.3" fill="#febf10" stroke="#000" stroke-linecap="round" stroke-linejoin="round" stroke-width=".4"/>
  <circle cx="58.3" cy="110.6" r="1.3" fill="#d09b07"/>
  <circle cx="66.6" cy="106.8" r="3.3" fill="#febf10" stroke="#000" stroke-linecap="round" stroke-linejoin="round" stroke-width=".4"/>
  <circle cx="66.6" cy="106.8" r="2.3" fill="#febf10" stroke="#000" stroke-linecap="round" stroke-linejoin="round" stroke-width=".4"/>
  <circle cx="66.6" cy="106.8" r="1.3" fill="#d09b07"/>
  <ellipse cx="69.1" cy="122.7" rx=".9" ry="1.4" transform="rotate(-25.2 69.3 122.83)" fill="#febf10" stroke="#000" stroke-linecap="round" stroke-linejoin="round" stroke-width=".4"/>
  <ellipse cx="69.9" cy="120.4" rx="1.4" ry=".9" transform="rotate(-25.2 70.03 120.64)" fill="#febf10" stroke="#000" stroke-linecap="round" stroke-linejoin="round" stroke-width=".4"/>
  <ellipse cx="66.7" cy="122" rx="1.4" ry=".9" transform="rotate(-25.2 66.9 122.05)" fill="#febf10" stroke="#000" stroke-linecap="round" stroke-linejoin="round" stroke-width=".4"/>
  <circle cx="68.3" cy="121.1" r="1" fill="#febf10" stroke="#000" stroke-linecap="round" stroke-linejoin="round" stroke-width=".4"/>
  <path d="M68.6 121.7l.3-.3a.6.6 0 0 1-.8-.4.6.6 0 0 1 0-.6H68a.7.7 0 1 0 .6 1.2z" fill="#d09b07"/>
  <circle cx="63.7" cy="111.2" r="1.6" fill="#febf10" stroke="#000" stroke-linecap="round" stroke-linejoin="round" stroke-width=".4"/>
  <circle cx="63.7" cy="111.2" r="1"/>
  <circle cx="65" cy="107.5" r="1.6" fill="#febf10" stroke="#000" stroke-linecap="round" stroke-linejoin="round" stroke-width=".4"/>
  <circle cx="65" cy="107.5" r="1"/>
  <circle cx="59.9" cy="110" r="1.6" fill="#febf10" stroke="#000" stroke-linecap="round" stroke-linejoin="round" stroke-width=".4"/>
  <circle cx="59.9" cy="110" r="1"/>
  <circle cx="62.5" cy="108.7" r="2.7" fill="#febf10" stroke="#000" stroke-linecap="round" stroke-linejoin="round" stroke-width=".4"/>
  <path fill="#0065b7" d="M53.1 56.4l-4.2 1.7-1.2-4.4 12.1-24.2 5.4 2.8-12.1 24.1z"/>
  <path fill="#004da1" d="M53.1 56.4l-4.2 1.7 13.6-27.2 2.7 1.4-12.1 24.1z"/>
  <path fill="none" stroke="#000" stroke-linecap="round" stroke-linejoin="round" stroke-width=".4" d="M53.1 56.4l-4.2 1.7-1.2-4.4 12.1-24.2 5.4 2.8-12.1 24.1z"/>
  <path fill="#0065b7" stroke="#000" stroke-linecap="round" stroke-linejoin="round" stroke-width=".4" d="M48.9 58.1L62.5 31"/>
  <path fill="#febf10" stroke="#000" stroke-linecap="round" stroke-linejoin="round" stroke-width=".4" d="M62.37 31.24l1.22 3.81-3.78 1.2-1.21-3.8z"/>
  <path d="M62.78 30.34l1.21 3.81-3.77 1.2-1.21-3.8z"/>
  <path d="M67.5 27.5c-2.2 4.3-4.8 6.4-6.2 5.7s-1.1-4 1.1-8.3a16.4 16.4 0 0 1 6.6-6.6 17.3 17.3 0 0 1-1.5 9.2z" fill="#febf10" stroke="#000" stroke-linecap="round" stroke-linejoin="round" stroke-width=".4"/>
  <path d="M61.4 27c1.1-.7 2-.9 4.3-1.5a8.9 8.9 0 0 0 3-1.5m.3-2.4a6.7 6.7 0 0 1-2.4 1.1 27.4 27.4 0 0 0-3.6 1.1m-2.5 6.1c1.1-.8 2-1 4.4-1.6a5.9 5.9 0 0 0 2.8-1.4" fill="none" stroke="#000" stroke-linecap="round" stroke-linejoin="round" stroke-width=".4"/>
  <path d="M68.7 24a8.9 8.9 0 0 1-3 1.5c-2.3.6-3.2.8-4.3 1.5m-1.2 5.2A15.4 15.4 0 0 1 64 31l1.8-.7m1.9-3.4a5.9 5.9 0 0 1-2.8 1.4c-2.4.6-3.3.8-4.4 1.6" fill="none" stroke="#000" stroke-linecap="round" stroke-linejoin="round" stroke-width=".4"/>
  <circle cx="66.4" cy="33.3" r="3.3" fill="#febf10" stroke="#000" stroke-linecap="round" stroke-linejoin="round" stroke-width=".4"/>
  <circle cx="66.4" cy="33.3" r="2.3" fill="#febf10" stroke="#000" stroke-linecap="round" stroke-linejoin="round" stroke-width=".4"/>
  <circle cx="66.4" cy="33.3" r="1.3" fill="#d09b07"/>
  <circle cx="58.3" cy="29.1" r="3.3" fill="#febf10" stroke="#000" stroke-linecap="round" stroke-linejoin="round" stroke-width=".4"/>
  <circle cx="58.3" cy="29.1" r="2.3" fill="#febf10" stroke="#000" stroke-linecap="round" stroke-linejoin="round" stroke-width=".4"/>
  <circle cx="58.3" cy="29.1" r="1.3" fill="#d09b07"/>
  <ellipse cx="69.5" cy="17.5" rx="1.4" ry=".9" transform="rotate(-62.7 69.49 17.46)" fill="#febf10" stroke="#000" stroke-linecap="round" stroke-linejoin="round" stroke-width=".4"/>
  <ellipse cx="67.1" cy="18.2" rx=".9" ry="1.4" transform="rotate(-62.7 67.14 18.17)" fill="#febf10" stroke="#000" stroke-linecap="round" stroke-linejoin="round" stroke-width=".4"/>
  <ellipse cx="70.3" cy="19.8" rx=".9" ry="1.4" transform="rotate(-62.7 70.33 19.77)" fill="#febf10" stroke="#000" stroke-linecap="round" stroke-linejoin="round" stroke-width=".4"/>
  <circle cx="68.6" cy="19.1" r="1" fill="#febf10" stroke="#000" stroke-linecap="round" stroke-linejoin="round" stroke-width=".4"/>
  <path d="M68.9 18.5h-.4a.7.7 0 0 1 .2.9.5.5 0 0 1-.5.3h.1a.7.7 0 0 0 .9-.3.6.6 0 0 0-.3-.9z" fill="#d09b07"/>
  <circle cx="63.6" cy="28.7" r="1.6" fill="#febf10" stroke="#000" stroke-linecap="round" stroke-linejoin="round" stroke-width=".4"/>
  <circle cx="63.6" cy="28.7" r="1"/>
  <circle cx="59.9" cy="30" r="1.6" fill="#febf10" stroke="#000" stroke-linecap="round" stroke-linejoin="round" stroke-width=".4"/>
  <circle cx="59.9" cy="30" r="1"/>
  <circle cx="65" cy="32.5" r="1.6" fill="#febf10" stroke="#000" stroke-linecap="round" stroke-linejoin="round" stroke-width=".4"/>
  <circle cx="65" cy="32.5" r="1"/>
  <circle cx="62.3" cy="31.2" r="2.7" fill="#febf10" stroke="#000" stroke-linecap="round" stroke-linejoin="round" stroke-width=".4"/>
  <path fill="#0065b7" d="M39.3 86.3l-1.2-4.4-4.2 1.7-12.1 24.1 5.4 2.8 12.1-24.2z"/>
  <path fill="#004da1" d="M39.3 86.3l-1.2-4.4-13.6 27.2 2.7 1.4 12.1-24.2z"/>
  <path fill="none" stroke="#000" stroke-linecap="round" stroke-linejoin="round" stroke-width=".4" d="M39.3 86.3l-1.2-4.4-4.2 1.7-12.1 24.1 5.4 2.8 12.1-24.2z"/>
  <path fill="#0065b7" stroke="#000" stroke-linecap="round" stroke-linejoin="round" stroke-width=".4" d="M38.1 81.9L24.5 109"/>
  <path fill="#febf10" stroke="#000" stroke-linecap="round" stroke-linejoin="round" stroke-width=".4" d="M24.67 108.73l-1.22-3.82 3.77-1.2 1.22 3.81z"/>
  <path d="M24.17 109.7l-1.22-3.81 3.78-1.2 1.21 3.8z"/>
  <path d="M19.5 112.5c2.2-4.3 4.8-6.4 6.2-5.7s1.1 4-1.1 8.3a16.4 16.4 0 0 1-6.6 6.6 17.3 17.3 0 0 1 1.5-9.2z" fill="#febf10" stroke="#000" stroke-linecap="round" stroke-linejoin="round" stroke-width=".4"/>
  <path d="M25.6 113c-1.1.7-2 .9-4.3 1.5a8.9 8.9 0 0 0-3 1.5m-.3 2.4a6.7 6.7 0 0 1 2.4-1.1 27.4 27.4 0 0 0 3.6-1.1m2.5-6.1c-1.1.8-2 1-4.4 1.6a5.9 5.9 0 0 0-2.8 1.4" fill="none" stroke="#000" stroke-linecap="round" stroke-linejoin="round" stroke-width=".4"/>
  <path d="M18.3 116a8.9 8.9 0 0 1 3-1.5c2.3-.6 3.2-.8 4.3-1.5m1.2-5.2A15.4 15.4 0 0 1 23 109l-1.8.7m-1.9 3.4a5.9 5.9 0 0 1 2.8-1.4c2.4-.6 3.3-.8 4.4-1.6" fill="none" stroke="#000" stroke-linecap="round" stroke-linejoin="round" stroke-width=".4"/>
  <circle cx="20.6" cy="106.7" r="3.3" fill="#febf10" stroke="#000" stroke-linecap="round" stroke-linejoin="round" stroke-width=".4"/>
  <circle cx="20.6" cy="106.7" r="2.3" fill="#febf10" stroke="#000" stroke-linecap="round" stroke-linejoin="round" stroke-width=".4"/>
  <circle cx="20.6" cy="106.7" r="1.3" fill="#d09b07"/>
  <circle cx="28.7" cy="110.9" r="3.3" fill="#febf10" stroke="#000" stroke-linecap="round" stroke-linejoin="round" stroke-width=".4"/>
  <circle cx="28.7" cy="110.9" r="2.3" fill="#febf10" stroke="#000" stroke-linecap="round" stroke-linejoin="round" stroke-width=".4"/>
  <circle cx="28.7" cy="110.9" r="1.3" fill="#d09b07"/>
  <ellipse cx="17.5" cy="122.5" rx="1.4" ry=".9" transform="rotate(-62.7 17.52 122.53)" fill="#febf10" stroke="#000" stroke-linecap="round" stroke-linejoin="round" stroke-width=".4"/>
  <ellipse cx="19.9" cy="121.8" rx=".9" ry="1.4" transform="rotate(-62.7 19.95 121.87)" fill="#febf10" stroke="#000" stroke-linecap="round" stroke-linejoin="round" stroke-width=".4"/>
  <ellipse cx="16.7" cy="120.2" rx=".9" ry="1.4" transform="rotate(-62.7 16.68 120.22)" fill="#febf10" stroke="#000" stroke-linecap="round" stroke-linejoin="round" stroke-width=".4"/>
  <circle cx="18.4" cy="120.9" r="1" fill="#febf10" stroke="#000" stroke-linecap="round" stroke-linejoin="round" stroke-width=".4"/>
  <path d="M18.1 121.5h.4a.7.7 0 0 1-.2-.9.5.5 0 0 1 .5-.3h-.1a.7.7 0 0 0-.9.3.6.6 0 0 0 .3.9z" fill="#d09b07"/>
  <circle cx="23.4" cy="111.3" r="1.6" fill="#febf10" stroke="#000" stroke-linecap="round" stroke-linejoin="round" stroke-width=".4"/>
  <circle cx="23.4" cy="111.3" r="1"/>
  <circle cx="27.1" cy="110" r="1.6" fill="#febf10" stroke="#000" stroke-linecap="round" stroke-linejoin="round" stroke-width=".4"/>
  <circle cx="27.1" cy="110" r="1"/>
  <circle cx="22" cy="107.5" r="1.6" fill="#febf10" stroke="#000" stroke-linecap="round" stroke-linejoin="round" stroke-width=".4"/>
  <circle cx="22" cy="107.5" r="1"/>
  <circle cx="24.7" cy="108.8" r="2.7" fill="#febf10" stroke="#000" stroke-linecap="round" stroke-linejoin="round" stroke-width=".4"/>
</svg>
