<svg xmlns="http://www.w3.org/2000/svg" viewBox="0 0 87 140">
  <rect width="87" height="140" rx="6" ry="6" fill="#fff"/>
  <path d="M51.8 122.2a17.2 17.2 0 0 1-3.9-.4c-7.1-1.5-11.7-8.4-10.8-15.9s6.7-15.6 8.7-17.9l.2-.2C56.9 75.2 58.3 67.5 58.1 64s-1-5.1-2.7-6.4a9.8 9.8 0 0 0-7.1-1.9 22.9 22.9 0 0 0-4.6 2.4c-5 2.7-11.7 6.5-18.4 6A9.4 9.4 0 0 1 17 58c-2.3-6.1.8-14.3 5.1-18.7s11-12.6 12.6-15.7c-.9-.6-2.8-.9-4.1-1.3a3.3 3.3 0 0 1-2.3-4.2 3.4 3.4 0 0 1 4.2-2.4c1.5.5 6.5 2.1 8.4 5.4s.3 5.9-4.8 12.5A109.3 109.3 0 0 1 27 44.1c-2.9 3.1-4.7 8.5-3.6 11.5.3.8.8 1.5 2.5 1.6 4.5.4 10.2-2.8 14.4-5.1s5.2-3 7.2-3.2a16.5 16.5 0 0 1 12.4 3.4c2.1 1.8 4.8 5.3 5.1 11.4.3 8-4.3 17.6-13.8 28.6l-.2.2c-2.2 2.5-6.4 9.2-7 14.2a7.3 7.3 0 0 0 5.4 8.4c3.5.8 8.7-.3 11.5-3.8s2.4-10.7 2.3-24.7v-4.9a3.5 3.5 0 0 1 3.4-3.5h.1a3.4 3.4 0 0 1 3.3 3.4v4.9c.2 16.6.2 24.2-3.7 29.1a18.9 18.9 0 0 1-14.5 6.6z" fill="#325723"/>
  <path d="M25.9 62.4s9.2.5 20.9-7.8c0 .1-1.1 2.4-1.1 2.4s-8.9 5.2-12.4 6-6.7 1.5-7.3 1.2-.1-1.8-.1-1.8zm29.3-10.3s5.5.6 7.7 7.6 0 15.4-6.9 24.6-17.1 19.9-11.6 28.7c.1.1.5-1.4.5-1.4s-2.3-2.9-.4-7.7A47.8 47.8 0 0 1 52 91.2a102.3 102.3 0 0 0 8.3-11.6c1.1-2.1 4.2-7.6 4.4-11.9s.6-8.5-2.8-13.3-7-3.5-7-3.5zm-4.7 68.4s9 1.7 13.7-4.4a24.7 24.7 0 0 0 4.9-14.5c0-1.7 0-20.1-.3-20.8s-.6-2.4-2.2-2.6c.1.2 3.1.2 3.3 2.8s.1 18.1.1 18.1l-.7 9.4s-1.1 5.4-3.4 7.6-5.5 5.2-10 5.7a26.7 26.7 0 0 1-5.9.4zM39.2 26.4s-7.6 10-14 17.6-2.3 13.6-1.6 14 .9-.9.9-.9-2.9-1.2-1-7 7.8-10.5 7.8-10.5l6.5-8.3 2.6-4.1-.5-1.7z" fill="#0d3a12"/>
  <path d="M41.3 25.2s1.8-4.1-4.1-7.5-8-2.3-8.8-.1.2 4.6 3.3 5.2 6.8 2.1 8.4 4.8z" fill="#0065b7"/>
  <path d="M51.8 122.2a17.2 17.2 0 0 1-3.9-.4c-7.1-1.5-11.7-8.4-10.8-15.9s6.7-15.6 8.7-17.9l.2-.2C56.9 75.2 58.3 67.5 58.1 64s-1-5.1-2.7-6.4a9.8 9.8 0 0 0-7.1-1.9 22.9 22.9 0 0 0-4.6 2.4c-5 2.7-11.7 6.5-18.4 6A9.4 9.4 0 0 1 17 58c-2.3-6.1.8-14.3 5.1-18.7s11-12.6 12.6-15.7c-.9-.6-2.8-.9-4.1-1.3a3.3 3.3 0 0 1-2.3-4.2 3.4 3.4 0 0 1 4.2-2.4c1.5.5 6.5 2.1 8.4 5.4s.3 5.9-4.8 12.5A109.3 109.3 0 0 1 27 44.1c-2.9 3.1-4.7 8.5-3.6 11.5.3.8.8 1.5 2.5 1.6 4.5.4 10.2-2.8 14.4-5.1s5.2-3 7.2-3.2a16.5 16.5 0 0 1 12.4 3.4c2.1 1.8 4.8 5.3 5.1 11.4.3 8-4.3 17.6-13.8 28.6l-.2.2c-2.2 2.5-6.4 9.2-7 14.2a7.3 7.3 0 0 0 5.4 8.4c3.5.8 8.7-.3 11.5-3.8s2.4-10.7 2.3-24.7v-4.9a3.5 3.5 0 0 1 3.4-3.5h.1a3.4 3.4 0 0 1 3.3 3.4v4.9c.2 16.6.2 24.2-3.7 29.1a18.9 18.9 0 0 1-14.5 6.6z" fill="none" stroke="#000" stroke-linecap="round" stroke-linejoin="round" stroke-width=".4"/>
  <path d="M27.4 92.5a9.2 9.2 0 0 1-4.4-1c-3.9-2-6.1-6.5-5.9-12.2a57.2 57.2 0 0 1 4.2-17.6 3 3 0 1 1 5.4 2.4S23.3 72 23 79.5c-.1 3.2.9 5.9 2.7 6.8s5.4-.1 9.3-3.1a2.9 2.9 0 0 1 3.6 4.6c-4.6 3.6-8.3 4.7-11.2 4.7z" fill="#febf10"/>
  <path d="M18.8 85.5c.5-10.6 5.1-21.6 5.2-21.7a4.2 4.2 0 0 0-.3-3.8 2.9 2.9 0 0 0-2.4 1.7 57.2 57.2 0 0 0-4.2 17.6 14.9 14.9 0 0 0 1.8 8.1 11.5 11.5 0 0 1-.1-1.9z" fill="#d09b07"/>
  <path d="M27.4 92.5a9.2 9.2 0 0 1-4.4-1c-3.9-2-6.1-6.5-5.9-12.2a57.2 57.2 0 0 1 4.2-17.6 3 3 0 1 1 5.4 2.4S23.3 72 23 79.5c-.1 3.2.9 5.9 2.7 6.8s5.4-.1 9.3-3.1a2.9 2.9 0 0 1 3.6 4.6c-4.6 3.6-8.3 4.7-11.2 4.7z" fill="none" stroke="#000" stroke-linecap="round" stroke-linejoin="round" stroke-width=".4"/>
  <path fill="red" d="M49.67 46.77l6.9 2.67-26.71 68.86-6.9-2.68z"/>
  <path fill="#980805" d="M52.7 53.3l-25 64 3.8-2.7 24.2-62.5-3 1.2z"/>
  <path fill="none" stroke="#000" stroke-linecap="round" stroke-linejoin="round" stroke-width=".4" d="M49.67 46.77l6.9 2.67-26.71 68.86-6.9-2.68z"/>
  <path fill="#004da1" stroke="#000" stroke-linecap="round" stroke-linejoin="round" stroke-width=".4" d="M69.2 98.7h-5.8l2.9 2.9 2.9-2.9zm1.6 7.4v-5.9l-3 2.9 3 3zm-8.9-5.9v5.9l2.9-3-2.9-2.9zm1.5 7.4h5.8l-2.9-3-2.9 3z"/>
  <path fill="#0065b7" stroke="#000" stroke-linecap="round" stroke-linejoin="round" stroke-width=".4" d="M70.8 106.1l-3-3 3-2.9v-1.5h-1.6l-2.9 2.9-2.9-2.9h-1.5v1.5l2.9 2.9-2.9 3v1.5h1.5l2.9-3 2.9 3h1.6v-1.5z"/>
  <path fill="#004da1" stroke="#000" stroke-linecap="round" stroke-linejoin="round" stroke-width=".4" d="M51.9 114l-5.4-2.2 1.6 3.8 3.8-1.6zm-1.4 7.4l2.2-5.4-3.8 1.6 1.6 3.8zm-6-8.8l-2.2 5.5 3.8-1.6-1.6-3.9zm-1.4 7.4l5.4 2.3-1.6-3.9-3.8 1.6z"/>
  <path fill="#0065b7" stroke="#000" stroke-linecap="round" stroke-linejoin="round" stroke-width=".4" d="M50.5 121.4l-1.6-3.8 3.8-1.6.6-1.4-1.4-.6-3.8 1.6-1.6-3.8-1.4-.6-.6 1.4 1.6 3.9-3.8 1.6-.6 1.4 1.4.5 3.8-1.6 1.6 3.9 1.4.5.6-1.4z"/>
  <path fill="#004da1" stroke="#000" stroke-linecap="round" stroke-linejoin="round" stroke-width=".4" d="M33.3 36.7l-4.2-4.1.1 4.1h4.1zm-4 6.3l4.1-4.2-4.2.1.1 4.1zM27 32.6l-4.1 4.2H27v-4.2zM22.9 39l4.3 4.1-.1-4.2-4.2.1z"/>
  <path fill="#0065b7" stroke="#000" stroke-linecap="round" stroke-linejoin="round" stroke-width=".4" d="M29.3 43l-.1-4.1 4.2-.1 1-1.1-1.1-1h-4.1l-.1-4.1-1.1-1.1-1 1.1v4.2h-4.1l-1.1 1.1 1.1 1.1 4.2-.1.1 4.2 1 1 1.1-1.1zM63 36.8c-3 7.6-7.4 13-9.9 12s-2.1-7.9.9-15.5 9.9-12 9.9-12 2.1 7.9-.9 15.5z"/>
  <path d="M52.8 36.9c1.6-1.2 3.1-1.8 6.9-3.2a11.7 11.7 0 0 0 4.7-3m.2-4a14.2 14.2 0 0 1-4 2.2 57.7 57.7 0 0 0-5.7 2.4M51.7 42c1.7-1.5 3.2-2 7.1-3.5a13 13 0 0 0 4.5-2.7" fill="none" stroke="#000" stroke-linecap="round" stroke-linejoin="round" stroke-width=".4"/>
  <path d="M64.4 30.7a11.7 11.7 0 0 1-4.7 3c-3.8 1.4-5.3 2-6.9 3.2m-1.2 9a31.5 31.5 0 0 1 6.1-2.7 15.4 15.4 0 0 0 2.9-1.5m2.7-5.9a13 13 0 0 1-4.5 2.7c-3.9 1.5-5.4 2-7.1 3.5" fill="none" stroke="#000" stroke-linecap="round" stroke-linejoin="round" stroke-width=".4"/>
  <circle cx="62.7" cy="48.8" r="5.6" fill="#febf10" stroke="#000" stroke-linecap="round" stroke-linejoin="round" stroke-width=".4"/>
  <circle cx="62.7" cy="48.8" r="3.9" fill="#febf10" stroke="#000" stroke-linecap="round" stroke-linejoin="round" stroke-width=".4"/>
  <circle cx="62.7" cy="48.8" r="2.1" fill="#d09b07"/>
  <circle cx="46" cy="42.3" r="5.6" fill="#febf10" stroke="#000" stroke-linecap="round" stroke-linejoin="round" stroke-width=".4"/>
  <circle cx="46" cy="42.3" r="3.9" fill="#febf10" stroke="#000" stroke-linecap="round" stroke-linejoin="round" stroke-width=".4"/>
  <circle cx="46" cy="42.3" r="2.1" fill="#d09b07"/>
  <path fill="#febf10" stroke="#000" stroke-linecap="round" stroke-linejoin="round" stroke-width=".4" d="M54.37 45.62l2.65 6.05-6.09 2.66-2.64-6.05z"/>
  <path d="M55.07 43.8l2.65 6.04-6.09 2.66-2.64-6.05z"/>
  <ellipse cx="58" cy="46.5" rx="5.6" ry="3.6" transform="rotate(-68.6 57.95 46.51)" fill="#febf10" stroke="#fff" stroke-linecap="round" stroke-linejoin="round" stroke-width=".4"/>
  <ellipse cx="51.2" cy="43.9" rx="5.6" ry="3.6" transform="rotate(-68.6 51.26 43.88)" fill="#febf10" stroke="#fff" stroke-linecap="round" stroke-linejoin="round" stroke-width=".4"/>
  <ellipse cx="52" cy="44.2" rx="5.5" ry="2.8" transform="rotate(-68.6 52.02 44.19)" fill="#d09b07"/>
  <ellipse cx="57.3" cy="46.3" rx="5.5" ry="2.8" transform="rotate(-68.6 57.27 46.26)" fill="#d09b07"/>
  <ellipse cx="58" cy="46.5" rx="5.6" ry="3.6" transform="rotate(-68.6 57.95 46.51)" fill="none" stroke="#000" stroke-linecap="round" stroke-linejoin="round" stroke-width=".4"/>
  <ellipse cx="51.2" cy="43.9" rx="5.6" ry="3.6" transform="rotate(-68.6 51.26 43.88)" fill="none" stroke="#000" stroke-linecap="round" stroke-linejoin="round" stroke-width=".4"/>
  <ellipse cx="54.5" cy="45.2" rx="5.6" ry="3.6" transform="rotate(-68.3 54.79 45.14)" fill="#febf10" stroke="#000" stroke-linecap="round" stroke-linejoin="round" stroke-width=".4"/>
  <circle cx="64.4" cy="19.9" r="1.6" fill="#febf10" stroke="#000" stroke-linecap="round" stroke-linejoin="round" stroke-width=".4"/>
  <circle cx="63.4" cy="22.5" r="2.3" fill="#e6e6e6" stroke="#000" stroke-linecap="round" stroke-linejoin="round" stroke-width=".4"/>
  <path d="M64 21.1a1.7 1.7 0 0 0-1 0 1.5 1.5 0 0 1 .7 1.9 1.8 1.8 0 0 1-1 .9.1.1 0 0 1 .1.1 1.6 1.6 0 0 0 2-.9 1.6 1.6 0 0 0-.8-2z" fill="#ccc"/>
  <circle cx="36.3" cy="27.2" r="1.2" fill="#0065b7" stroke="#000" stroke-linecap="round" stroke-linejoin="round" stroke-width=".4"/>
  <circle cx="33.2" cy="31.5" r="1.2" fill="#0065b7" stroke="#000" stroke-linecap="round" stroke-linejoin="round" stroke-width=".4"/>
  <circle cx="22.4" cy="44.1" r="1.2" fill="#0065b7" stroke="#000" stroke-linecap="round" stroke-linejoin="round" stroke-width=".4"/>
  <circle cx="19.8" cy="50.2" r="1.2" fill="#0065b7" stroke="#000" stroke-linecap="round" stroke-linejoin="round" stroke-width=".4"/>
  <circle cx="20.1" cy="56.1" r="1.2" fill="#0065b7" stroke="#000" stroke-linecap="round" stroke-linejoin="round" stroke-width=".4"/>
  <circle cx="31.6" cy="59.6" r="1.2" fill="#0065b7" stroke="#000" stroke-linecap="round" stroke-linejoin="round" stroke-width=".4"/>
  <circle cx="38" cy="56.7" r="1.2" fill="#0065b7" stroke="#000" stroke-linecap="round" stroke-linejoin="round" stroke-width=".4"/>
  <circle cx="43.7" cy="53.8" r="1.2" fill="#0065b7" stroke="#000" stroke-linecap="round" stroke-linejoin="round" stroke-width=".4"/>
  <circle cx="60" cy="57.9" r="1.2" fill="#0065b7" stroke="#000" stroke-linecap="round" stroke-linejoin="round" stroke-width=".4"/>
  <circle cx="61.3" cy="66" r="1.2" fill="#0065b7" stroke="#000" stroke-linecap="round" stroke-linejoin="round" stroke-width=".4"/>
  <circle cx="59.4" cy="74.2" r="1.2" fill="#0065b7" stroke="#000" stroke-linecap="round" stroke-linejoin="round" stroke-width=".4"/>
  <circle cx="55.1" cy="81.3" r="1.2" fill="#0065b7" stroke="#000" stroke-linecap="round" stroke-linejoin="round" stroke-width=".4"/>
  <circle cx="50.1" cy="88.2" r="1.2" fill="#0065b7" stroke="#000" stroke-linecap="round" stroke-linejoin="round" stroke-width=".4"/>
  <circle cx="45" cy="95.1" r="1.2" fill="#0065b7" stroke="#000" stroke-linecap="round" stroke-linejoin="round" stroke-width=".4"/>
  <circle cx="40.8" cy="111.1" r="1.2" fill="#0065b7" stroke="#000" stroke-linecap="round" stroke-linejoin="round" stroke-width=".4"/>
  <circle cx="41.3" cy="102.5" r="1.2" fill="#0065b7" stroke="#000" stroke-linecap="round" stroke-linejoin="round" stroke-width=".4"/>
  <circle cx="66.6" cy="82.3" r="1.2" fill="#0065b7" stroke="#000" stroke-linecap="round" stroke-linejoin="round" stroke-width=".4"/>
  <circle cx="55.6" cy="118.6" r="1.2" fill="#0065b7" stroke="#000" stroke-linecap="round" stroke-linejoin="round" stroke-width=".4"/>
  <circle cx="61.5" cy="115.9" r="1.2" fill="#0065b7" stroke="#000" stroke-linecap="round" stroke-linejoin="round" stroke-width=".4"/>
  <circle cx="65.4" cy="110.8" r="1.2" fill="#0065b7" stroke="#000" stroke-linecap="round" stroke-linejoin="round" stroke-width=".4"/>
  <circle cx="66.7" cy="88.8" r="1.2" fill="#0065b7" stroke="#000" stroke-linecap="round" stroke-linejoin="round" stroke-width=".4"/>
  <circle cx="66.7" cy="95" r="1.2" fill="#0065b7" stroke="#000" stroke-linecap="round" stroke-linejoin="round" stroke-width=".4"/>
  <circle cx="24.4" cy="121.2" r="3.2" fill="#e6e6e6" stroke="#000" stroke-linecap="round" stroke-linejoin="round" stroke-width=".4"/>
  <circle cx="24.4" cy="121.2" r="1.4" fill="#febf10" stroke="#000" stroke-linecap="round" stroke-linejoin="round" stroke-width=".4"/>
  <path d="M21.8 110.3a7.8 7.8 0 0 1 1.1 4.9c-.4 2.7-.6 4.4 1.9 5.3s4.2-.7 5.3-2.3a13.5 13.5 0 0 1 3.4-3.4c-2.7-1.5-5.4 1.8-5.4 1.8a10.3 10.3 0 0 0 .1-5 26.8 26.8 0 0 0-3.1 3.9s.7-5-3.3-5.2z" fill="#0065b7" stroke="#000" stroke-linecap="round" stroke-linejoin="round" stroke-width=".4"/>
  <ellipse cx="24.8" cy="60.7" rx="5" ry="3" transform="rotate(-70.1 24.84 60.8)" fill="#0065b7" stroke="#000" stroke-linecap="round" stroke-linejoin="round" stroke-width=".4"/>
  <ellipse cx="24.8" cy="60.7" rx="4.1" ry="2.2" transform="rotate(-70.1 24.85 60.79)" fill="#0065b7" stroke="#000" stroke-linecap="round" stroke-linejoin="round" stroke-width=".4"/>
  <path fill="#0065b7" stroke="#000" stroke-linecap="round" stroke-linejoin="round" stroke-width=".4" d="M36.53 78.64l8.14 3.07-3.65 9.65-8.13-3.08z"/>
  <path fill="#ccc" stroke="#000" stroke-linecap="round" stroke-linejoin="round" stroke-width=".4" d="M37.4 80.7l5.5 2.1-4.2 2.8-1.3-4.9z"/>
  <circle cx="38.5" cy="86" r="2.6" fill="#ccc" stroke="#000" stroke-linecap="round" stroke-linejoin="round" stroke-width=".4"/>
  <circle cx="32.7" cy="19.2" r="1.2" fill="#325723" stroke="#000" stroke-linecap="round" stroke-linejoin="round" stroke-width=".4"/>
  <path d="M34.3 23.4a10.5 10.5 0 0 1 5.8 4.2" fill="none" stroke="#000" stroke-linecap="round" stroke-linejoin="round" stroke-width=".4"/>
  <circle cx="24.3" cy="62" r="1.2" fill="red" stroke="#000" stroke-linecap="round" stroke-linejoin="round" stroke-width=".4"/>
</svg>
