<svg xmlns="http://www.w3.org/2000/svg" viewBox="0 0 87 140">
  <rect width="87" height="140" rx="6" ry="6" fill="#fff"/>
  <path fill="#0065b7" d="M24.2 59.8l-3.1 3.4-3-3.4V32.7h6.1v27.1z"/>
  <path fill="#004da1" d="M24.2 59.8l-3.1 3.4V32.7h3.1v27.1z"/>
  <path fill="none" stroke="#000" stroke-linecap="round" stroke-linejoin="round" stroke-width=".4" d="M24.2 59.8l-3.1 3.4-3-3.4V32.7h6.1v27.1z"/>
  <path fill="#0065b7" stroke="#000" stroke-linecap="round" stroke-linejoin="round" stroke-width=".4" d="M21.1 63.2l.1-30.4"/>
  <path fill="#febf10" stroke="#000" stroke-linecap="round" stroke-linejoin="round" stroke-width=".4" d="M21.11 33.03l2.8 2.86-2.85 2.77-2.79-2.87z"/>
  <path d="M21.27 32.03l2.79 2.87-2.84 2.76-2.79-2.87z"/>
  <path d="M24.1 27.5c-.1 4.8-1.4 7.9-3 7.8s-2.8-3.1-2.8-7.9a17 17 0 0 1 3-8.8 17.3 17.3 0 0 1 2.8 8.9z" fill="#febf10" stroke="#000" stroke-linecap="round" stroke-linejoin="round" stroke-width=".4"/>
  <path d="M18.4 29.7c.6-1.1 1.4-1.7 3.2-3.3a7.1 7.1 0 0 0 2-2.6m-.8-2.3a7.1 7.1 0 0 1-1.7 2.1 24.7 24.7 0 0 0-2.7 2.5m.4 6.6a14.2 14.2 0 0 1 3.3-3.4 6.6 6.6 0 0 0 1.9-2.4" fill="none" stroke="#000" stroke-linecap="round" stroke-linejoin="round" stroke-width=".4"/>
  <path d="M23.6 23.8a7.1 7.1 0 0 1-2 2.6c-1.8 1.6-2.6 2.2-3.2 3.3m1.2 5.2a18.4 18.4 0 0 1 2.8-2.7l1.4-1.5m.2-3.8a6.6 6.6 0 0 1-1.9 2.4 14.2 14.2 0 0 0-3.3 3.4" fill="none" stroke="#000" stroke-linecap="round" stroke-linejoin="round" stroke-width=".4"/>
  <circle cx="25.7" cy="33.2" r="3.3" fill="#febf10" stroke="#000" stroke-linecap="round" stroke-linejoin="round" stroke-width=".4"/>
  <circle cx="25.7" cy="33.2" r="2.3" fill="#febf10" stroke="#000" stroke-linecap="round" stroke-linejoin="round" stroke-width=".4"/>
  <circle cx="25.7" cy="33.2" r="1.3" fill="#d09b07"/>
  <circle cx="16.6" cy="33" r="3.3" fill="#febf10" stroke="#000" stroke-linecap="round" stroke-linejoin="round" stroke-width=".4"/>
  <circle cx="16.6" cy="33" r="2.3" fill="#febf10" stroke="#000" stroke-linecap="round" stroke-linejoin="round" stroke-width=".4"/>
  <circle cx="16.6" cy="33" r="1.3" fill="#d09b07"/>
  <ellipse cx="21.3" cy="17.6" rx="1.4" ry=".9" transform="rotate(-89.2 21.27 17.58)" fill="#febf10" stroke="#000" stroke-linecap="round" stroke-linejoin="round" stroke-width=".4"/>
  <ellipse cx="19.4" cy="19.3" rx=".9" ry="1.4" transform="rotate(-89.2 19.47 19.3)" fill="#febf10" stroke="#000" stroke-linecap="round" stroke-linejoin="round" stroke-width=".4"/>
  <ellipse cx="23.1" cy="19.3" rx=".9" ry="1.4" transform="rotate(-89.2 23.05 19.33)" fill="#febf10" stroke="#000" stroke-linecap="round" stroke-linejoin="round" stroke-width=".4"/>
  <circle cx="21.2" cy="19.4" r="1" fill="#febf10" stroke="#000" stroke-linecap="round" stroke-linejoin="round" stroke-width=".4"/>
  <path d="M21.2 18.7l-.4.2c.4 0 .6.3.6.7a.5.5 0 0 1-.3.5h.1a.7.7 0 0 0 .7-.7.8.8 0 0 0-.7-.7z" fill="#d09b07"/>
  <circle cx="21.1" cy="30.3" r="1.6" fill="#febf10" stroke="#000" stroke-linecap="round" stroke-linejoin="round" stroke-width=".4"/>
  <circle cx="21.1" cy="30.3" r="1"/>
  <circle cx="18.4" cy="33.1" r="1.6" fill="#febf10" stroke="#000" stroke-linecap="round" stroke-linejoin="round" stroke-width=".4"/>
  <circle cx="18.4" cy="33.1" r="1"/>
  <circle cx="24.1" cy="33.1" r="1.6" fill="#febf10" stroke="#000" stroke-linecap="round" stroke-linejoin="round" stroke-width=".4"/>
  <circle cx="24.1" cy="33.1" r="1"/>
  <circle cx="21.1" cy="33.1" r="2.7" fill="#febf10" stroke="#000" stroke-linecap="round" stroke-linejoin="round" stroke-width=".4"/>
  <path fill="#0065b7" d="M46.5 59.8l-3 3.4-3-3.4V32.7h6v27.1z"/>
  <path fill="#004da1" d="M46.5 59.8l-3 3.4V32.7h3v27.1z"/>
  <path fill="none" stroke="#000" stroke-linecap="round" stroke-linejoin="round" stroke-width=".4" d="M46.5 59.8l-3 3.4-3-3.4V32.7h6v27.1z"/>
  <path fill="#0065b7" stroke="#000" stroke-linecap="round" stroke-linejoin="round" stroke-width=".4" d="M43.5 63.2V32.8"/>
  <path fill="#febf10" stroke="#000" stroke-linecap="round" stroke-linejoin="round" stroke-width=".4" d="M43.53 33.09l2.79 2.86-2.84 2.76-2.79-2.86z"/>
  <path d="M43.52 32.02l2.79 2.87-2.84 2.76-2.8-2.87z"/>
  <path d="M46.4 27.5c-.1 4.8-1.4 7.9-3 7.8s-2.8-3.1-2.7-7.9a16.1 16.1 0 0 1 3-8.8 16.7 16.7 0 0 1 2.7 8.9z" fill="#febf10" stroke="#000" stroke-linecap="round" stroke-linejoin="round" stroke-width=".4"/>
  <path d="M40.7 29.7a15.5 15.5 0 0 1 3.2-3.3 6.1 6.1 0 0 0 2-2.6m-.7-2.3a7.7 7.7 0 0 1-1.8 2.1 21.6 21.6 0 0 0-2.6 2.5m.4 6.6a14.2 14.2 0 0 1 3.3-3.4 8 8 0 0 0 1.9-2.4" fill="none" stroke="#000" stroke-linecap="round" stroke-linejoin="round" stroke-width=".4"/>
  <path d="M45.9 23.8a6.1 6.1 0 0 1-2 2.6 15.5 15.5 0 0 0-3.2 3.3m1.2 5.2a20.5 20.5 0 0 1 2.9-2.7l1.3-1.5m.3-3.8a8 8 0 0 1-1.9 2.4 14.2 14.2 0 0 0-3.3 3.4" fill="none" stroke="#000" stroke-linecap="round" stroke-linejoin="round" stroke-width=".4"/>
  <circle cx="48.1" cy="33.2" r="3.3" fill="#febf10" stroke="#000" stroke-linecap="round" stroke-linejoin="round" stroke-width=".4"/>
  <circle cx="48.1" cy="33.2" r="2.3" fill="#febf10" stroke="#000" stroke-linecap="round" stroke-linejoin="round" stroke-width=".4"/>
  <circle cx="48.1" cy="33.2" r="1.3" fill="#d09b07"/>
  <circle cx="38.9" cy="33" r="3.3" fill="#febf10" stroke="#000" stroke-linecap="round" stroke-linejoin="round" stroke-width=".4"/>
  <circle cx="38.9" cy="33" r="2.3" fill="#febf10" stroke="#000" stroke-linecap="round" stroke-linejoin="round" stroke-width=".4"/>
  <circle cx="38.9" cy="33" r="1.3" fill="#d09b07"/>
  <ellipse cx="43.6" cy="17.6" rx="1.4" ry=".9" transform="rotate(-89.2 43.63 17.62)" fill="#febf10" stroke="#000" stroke-linecap="round" stroke-linejoin="round" stroke-width=".4"/>
  <ellipse cx="41.8" cy="19.3" rx=".9" ry="1.4" transform="rotate(-89.2 41.78 19.3)" fill="#febf10" stroke="#000" stroke-linecap="round" stroke-linejoin="round" stroke-width=".4"/>
  <ellipse cx="45.4" cy="19.3" rx=".9" ry="1.4" transform="rotate(-89.2 45.4 19.27)" fill="#febf10" stroke="#000" stroke-linecap="round" stroke-linejoin="round" stroke-width=".4"/>
  <circle cx="43.6" cy="19.4" r="1" fill="#febf10" stroke="#000" stroke-linecap="round" stroke-linejoin="round" stroke-width=".4"/>
  <path d="M43.6 18.7a.5.5 0 0 0-.4.2.7.7 0 0 1 .6.7.5.5 0 0 1-.3.5h.1a.7.7 0 1 0 0-1.4z" fill="#d09b07"/>
  <circle cx="43.5" cy="30.3" r="1.6" fill="#febf10" stroke="#000" stroke-linecap="round" stroke-linejoin="round" stroke-width=".4"/>
  <circle cx="43.5" cy="30.3" r="1"/>
  <circle cx="40.7" cy="33.1" r="1.6" fill="#febf10" stroke="#000" stroke-linecap="round" stroke-linejoin="round" stroke-width=".4"/>
  <circle cx="40.7" cy="33.1" r="1"/>
  <circle cx="46.4" cy="33.1" r="1.6" fill="#febf10" stroke="#000" stroke-linecap="round" stroke-linejoin="round" stroke-width=".4"/>
  <circle cx="46.4" cy="33.1" r="1"/>
  <circle cx="43.5" cy="33.1" r="2.7" fill="#febf10" stroke="#000" stroke-linecap="round" stroke-linejoin="round" stroke-width=".4"/>
  <path fill="#0065b7" d="M68.9 59.8l-3.1 3.4-3-3.4V32.7h6.1v27.1z"/>
  <path fill="#004da1" d="M68.9 59.8l-3.1 3.4V32.7h3.1v27.1z"/>
  <path fill="none" stroke="#000" stroke-linecap="round" stroke-linejoin="round" stroke-width=".4" d="M68.9 59.8l-3.1 3.4-3-3.4V32.7h6.1v27.1z"/>
  <path fill="#0065b7" stroke="#000" stroke-linecap="round" stroke-linejoin="round" stroke-width=".4" d="M65.8 63.2l.1-30.4"/>
  <path fill="#febf10" stroke="#000" stroke-linecap="round" stroke-linejoin="round" stroke-width=".4" d="M65.88 33.07l2.78 2.87-2.83 2.76-2.8-2.87z"/>
  <path d="M65.93 32.08l2.8 2.87-2.85 2.76-2.78-2.87z"/>
  <path d="M68.8 27.5c-.1 4.8-1.4 7.9-3 7.8S63 32.2 63 27.4a17 17 0 0 1 3-8.8 17.3 17.3 0 0 1 2.8 8.9z" fill="#febf10" stroke="#000" stroke-linecap="round" stroke-linejoin="round" stroke-width=".4"/>
  <path d="M63.1 29.7c.6-1.1 1.4-1.7 3.2-3.3a7.1 7.1 0 0 0 2-2.6m-.8-2.3a7.1 7.1 0 0 1-1.7 2.1 24.7 24.7 0 0 0-2.7 2.5m.4 6.6a14.2 14.2 0 0 1 3.3-3.4 6.6 6.6 0 0 0 1.9-2.4" fill="none" stroke="#000" stroke-linecap="round" stroke-linejoin="round" stroke-width=".4"/>
  <path d="M68.3 23.8a7.1 7.1 0 0 1-2 2.6c-1.8 1.6-2.6 2.2-3.2 3.3m1.2 5.2a18.4 18.4 0 0 1 2.8-2.7l1.4-1.5m.2-3.8a6.6 6.6 0 0 1-1.9 2.4 14.2 14.2 0 0 0-3.3 3.4" fill="none" stroke="#000" stroke-linecap="round" stroke-linejoin="round" stroke-width=".4"/>
  <circle cx="70.4" cy="33.2" r="3.3" fill="#febf10" stroke="#000" stroke-linecap="round" stroke-linejoin="round" stroke-width=".4"/>
  <circle cx="70.4" cy="33.2" r="2.3" fill="#febf10" stroke="#000" stroke-linecap="round" stroke-linejoin="round" stroke-width=".4"/>
  <circle cx="70.4" cy="33.2" r="1.3" fill="#d09b07"/>
  <circle cx="61.3" cy="33" r="3.3" fill="#febf10" stroke="#000" stroke-linecap="round" stroke-linejoin="round" stroke-width=".4"/>
  <circle cx="61.3" cy="33" r="2.3" fill="#febf10" stroke="#000" stroke-linecap="round" stroke-linejoin="round" stroke-width=".4"/>
  <circle cx="61.3" cy="33" r="1.3" fill="#d09b07"/>
  <ellipse cx="66" cy="17.6" rx="1.4" ry=".9" transform="rotate(-89.2 65.94 17.62)" fill="#febf10" stroke="#000" stroke-linecap="round" stroke-linejoin="round" stroke-width=".4"/>
  <ellipse cx="64.1" cy="19.3" rx=".9" ry="1.4" transform="rotate(-89.2 64.18 19.3)" fill="#febf10" stroke="#000" stroke-linecap="round" stroke-linejoin="round" stroke-width=".4"/>
  <ellipse cx="67.8" cy="19.3" rx=".9" ry="1.4" transform="rotate(-89.2 67.76 19.32)" fill="#febf10" stroke="#000" stroke-linecap="round" stroke-linejoin="round" stroke-width=".4"/>
  <circle cx="65.9" cy="19.4" r="1" fill="#febf10" stroke="#000" stroke-linecap="round" stroke-linejoin="round" stroke-width=".4"/>
  <path d="M65.9 18.7l-.4.2c.4 0 .6.3.6.7a.5.5 0 0 1-.3.5h.1a.7.7 0 0 0 .7-.7.8.8 0 0 0-.7-.7z" fill="#d09b07"/>
  <circle cx="65.8" cy="30.3" r="1.6" fill="#febf10" stroke="#000" stroke-linecap="round" stroke-linejoin="round" stroke-width=".4"/>
  <circle cx="65.8" cy="30.3" r="1"/>
  <circle cx="63.1" cy="33.1" r="1.6" fill="#febf10" stroke="#000" stroke-linecap="round" stroke-linejoin="round" stroke-width=".4"/>
  <circle cx="63.1" cy="33.1" r="1"/>
  <circle cx="68.8" cy="33.1" r="1.6" fill="#febf10" stroke="#000" stroke-linecap="round" stroke-linejoin="round" stroke-width=".4"/>
  <circle cx="68.8" cy="33.1" r="1"/>
  <circle cx="65.8" cy="33.1" r="2.7" fill="#febf10" stroke="#000" stroke-linecap="round" stroke-linejoin="round" stroke-width=".4"/>
  <path fill="#0065b7" d="M68.9 80.2l-3.1-3.4-3 3.4v27.1h6.1V80.2z"/>
  <path fill="#004da1" d="M68.9 80.2l-3.1-3.4v30.5h3.1V80.2z"/>
  <path fill="none" stroke="#000" stroke-linecap="round" stroke-linejoin="round" stroke-width=".4" d="M68.9 80.2l-3.1-3.4-3 3.4v27.1h6.1V80.2z"/>
  <path fill="#0065b7" stroke="#000" stroke-linecap="round" stroke-linejoin="round" stroke-width=".4" d="M65.8 76.8l.1 30.4"/>
  <path fill="#febf10" stroke="#000" stroke-linecap="round" stroke-linejoin="round" stroke-width=".4" d="M65.85 106.9l-2.8-2.86 2.85-2.76 2.79 2.87z"/>
  <path d="M65.84 107.94l-2.8-2.87 2.85-2.76 2.79 2.87z"/>
  <path d="M62.9 112.5c.1-4.8 1.4-7.9 3-7.8s2.8 3.1 2.8 7.9a17 17 0 0 1-3 8.8 17.3 17.3 0 0 1-2.8-8.9z" fill="#febf10" stroke="#000" stroke-linecap="round" stroke-linejoin="round" stroke-width=".4"/>
  <path d="M68.6 110.3c-.6 1.1-1.4 1.7-3.2 3.3a7.1 7.1 0 0 0-2 2.6m.8 2.3a7.1 7.1 0 0 1 1.7-2.1 24.7 24.7 0 0 0 2.7-2.5m-.4-6.6a14.2 14.2 0 0 1-3.3 3.4 6.6 6.6 0 0 0-1.9 2.4" fill="none" stroke="#000" stroke-linecap="round" stroke-linejoin="round" stroke-width=".4"/>
  <path d="M63.4 116.2a7.1 7.1 0 0 1 2-2.6c1.8-1.6 2.6-2.2 3.2-3.3m-1.2-5.2a18.4 18.4 0 0 1-2.8 2.7l-1.4 1.5m-.2 3.8a6.6 6.6 0 0 1 1.9-2.4 14.2 14.2 0 0 0 3.3-3.4" fill="none" stroke="#000" stroke-linecap="round" stroke-linejoin="round" stroke-width=".4"/>
  <circle cx="61.3" cy="106.8" r="3.3" fill="#febf10" stroke="#000" stroke-linecap="round" stroke-linejoin="round" stroke-width=".4"/>
  <circle cx="61.3" cy="106.8" r="2.3" fill="#febf10" stroke="#000" stroke-linecap="round" stroke-linejoin="round" stroke-width=".4"/>
  <circle cx="61.3" cy="106.8" r="1.3" fill="#d09b07"/>
  <circle cx="70.4" cy="107" r="3.3" fill="#febf10" stroke="#000" stroke-linecap="round" stroke-linejoin="round" stroke-width=".4"/>
  <circle cx="70.4" cy="107" r="2.3" fill="#febf10" stroke="#000" stroke-linecap="round" stroke-linejoin="round" stroke-width=".4"/>
  <circle cx="70.4" cy="107" r="1.3" fill="#d09b07"/>
  <ellipse cx="65.7" cy="122.4" rx="1.4" ry=".9" transform="rotate(-89.2 65.76 122.35)" fill="#febf10" stroke="#000" stroke-linecap="round" stroke-linejoin="round" stroke-width=".4"/>
  <ellipse cx="67.6" cy="120.7" rx=".9" ry="1.4" transform="rotate(-89.2 67.56 120.73)" fill="#febf10" stroke="#000" stroke-linecap="round" stroke-linejoin="round" stroke-width=".4"/>
  <ellipse cx="63.9" cy="120.7" rx=".9" ry="1.4" transform="rotate(-89.2 63.99 120.7)" fill="#febf10" stroke="#000" stroke-linecap="round" stroke-linejoin="round" stroke-width=".4"/>
  <circle cx="65.8" cy="120.6" r="1" fill="#febf10" stroke="#000" stroke-linecap="round" stroke-linejoin="round" stroke-width=".4"/>
  <path d="M65.8 121.3l.4-.2c-.4 0-.6-.3-.6-.7a.5.5 0 0 1 .3-.5h-.1a.7.7 0 0 0-.7.7.8.8 0 0 0 .7.7z" fill="#d09b07"/>
  <circle cx="65.9" cy="109.7" r="1.6" fill="#febf10" stroke="#000" stroke-linecap="round" stroke-linejoin="round" stroke-width=".4"/>
  <circle cx="65.9" cy="109.7" r="1"/>
  <circle cx="68.6" cy="106.9" r="1.6" fill="#febf10" stroke="#000" stroke-linecap="round" stroke-linejoin="round" stroke-width=".4"/>
  <circle cx="68.6" cy="106.9" r="1"/>
  <circle cx="62.9" cy="106.9" r="1.6" fill="#febf10" stroke="#000" stroke-linecap="round" stroke-linejoin="round" stroke-width=".4"/>
  <circle cx="62.9" cy="106.9" r="1"/>
  <circle cx="65.9" cy="106.9" r="2.7" fill="#febf10" stroke="#000" stroke-linecap="round" stroke-linejoin="round" stroke-width=".4"/>
  <path fill="#0065b7" d="M46.5 80.2l-3-3.4-3 3.4v27.1h6V80.2z"/>
  <path fill="#004da1" d="M46.5 80.2l-3-3.4v30.5h3V80.2z"/>
  <path fill="none" stroke="#000" stroke-linecap="round" stroke-linejoin="round" stroke-width=".4" d="M46.5 80.2l-3-3.4-3 3.4v27.1h6V80.2z"/>
  <path fill="#0065b7" stroke="#000" stroke-linecap="round" stroke-linejoin="round" stroke-width=".4" d="M43.5 76.8v30.4"/>
  <path fill="#febf10" stroke="#000" stroke-linecap="round" stroke-linejoin="round" stroke-width=".4" d="M43.5 106.9l-2.8-2.87 2.84-2.76 2.8 2.87z"/>
  <path d="M43.55 108l-2.79-2.87 2.84-2.76 2.8 2.87z"/>
  <path d="M40.6 112.5c.1-4.8 1.4-7.9 3-7.8s2.8 3.1 2.7 7.9a16.1 16.1 0 0 1-3 8.8 16.7 16.7 0 0 1-2.7-8.9z" fill="#febf10" stroke="#000" stroke-linecap="round" stroke-linejoin="round" stroke-width=".4"/>
  <path d="M46.3 110.3a15.5 15.5 0 0 1-3.2 3.3 6.1 6.1 0 0 0-2 2.6m.7 2.3a7.7 7.7 0 0 1 1.8-2.1 21.6 21.6 0 0 0 2.6-2.5m-.4-6.6a14.2 14.2 0 0 1-3.3 3.4 8 8 0 0 0-1.9 2.4" fill="none" stroke="#000" stroke-linecap="round" stroke-linejoin="round" stroke-width=".4"/>
  <path d="M41.1 116.2a6.1 6.1 0 0 1 2-2.6 15.5 15.5 0 0 0 3.2-3.3m-1.2-5.2a20.5 20.5 0 0 1-2.9 2.7l-1.3 1.5m-.3 3.8a8 8 0 0 1 1.9-2.4 14.2 14.2 0 0 0 3.3-3.4" fill="none" stroke="#000" stroke-linecap="round" stroke-linejoin="round" stroke-width=".4"/>
  <circle cx="38.9" cy="106.8" r="3.3" fill="#febf10" stroke="#000" stroke-linecap="round" stroke-linejoin="round" stroke-width=".4"/>
  <circle cx="38.9" cy="106.8" r="2.3" fill="#febf10" stroke="#000" stroke-linecap="round" stroke-linejoin="round" stroke-width=".4"/>
  <circle cx="38.9" cy="106.8" r="1.3" fill="#d09b07"/>
  <circle cx="48.1" cy="107" r="3.3" fill="#febf10" stroke="#000" stroke-linecap="round" stroke-linejoin="round" stroke-width=".4"/>
  <circle cx="48.1" cy="107" r="2.3" fill="#febf10" stroke="#000" stroke-linecap="round" stroke-linejoin="round" stroke-width=".4"/>
  <circle cx="48.1" cy="107" r="1.3" fill="#d09b07"/>
  <ellipse cx="43.4" cy="122.4" rx="1.4" ry=".9" transform="rotate(-89.2 43.4 122.41)" fill="#febf10" stroke="#000" stroke-linecap="round" stroke-linejoin="round" stroke-width=".4"/>
  <ellipse cx="45.2" cy="120.7" rx=".9" ry="1.4" transform="rotate(-89.2 45.2 120.69)" fill="#febf10" stroke="#000" stroke-linecap="round" stroke-linejoin="round" stroke-width=".4"/>
  <ellipse cx="41.6" cy="120.7" rx=".9" ry="1.4" transform="rotate(-89.2 41.63 120.66)" fill="#febf10" stroke="#000" stroke-linecap="round" stroke-linejoin="round" stroke-width=".4"/>
  <circle cx="43.4" cy="120.6" r="1" fill="#febf10" stroke="#000" stroke-linecap="round" stroke-linejoin="round" stroke-width=".4"/>
  <path d="M43.4 121.3a.5.5 0 0 0 .4-.2.7.7 0 0 1-.6-.7.5.5 0 0 1 .3-.5h-.1a.7.7 0 1 0 0 1.4z" fill="#d09b07"/>
  <circle cx="43.5" cy="109.7" r="1.6" fill="#febf10" stroke="#000" stroke-linecap="round" stroke-linejoin="round" stroke-width=".4"/>
  <circle cx="43.5" cy="109.7" r="1"/>
  <circle cx="46.3" cy="106.9" r="1.6" fill="#febf10" stroke="#000" stroke-linecap="round" stroke-linejoin="round" stroke-width=".4"/>
  <circle cx="46.3" cy="106.9" r="1"/>
  <circle cx="40.6" cy="106.9" r="1.6" fill="#febf10" stroke="#000" stroke-linecap="round" stroke-linejoin="round" stroke-width=".4"/>
  <circle cx="40.6" cy="106.9" r="1"/>
  <circle cx="43.5" cy="106.9" r="2.7" fill="#febf10" stroke="#000" stroke-linecap="round" stroke-linejoin="round" stroke-width=".4"/>
  <path fill="#0065b7" d="M24.2 80.2l-3.1-3.4-3 3.4v27.1h6.1V80.2z"/>
  <path fill="#004da1" d="M24.2 80.2l-3.1-3.4v30.5h3.1V80.2z"/>
  <path fill="none" stroke="#000" stroke-linecap="round" stroke-linejoin="round" stroke-width=".4" d="M24.2 80.2l-3.1-3.4-3 3.4v27.1h6.1V80.2z"/>
  <path fill="#0065b7" stroke="#000" stroke-linecap="round" stroke-linejoin="round" stroke-width=".4" d="M21.1 76.8l.1 30.4"/>
  <path fill="#febf10" stroke="#000" stroke-linecap="round" stroke-linejoin="round" stroke-width=".4" d="M21.11 106.95l-2.79-2.86 2.84-2.76 2.79 2.86z"/>
  <path d="M21.1 107.99l-2.79-2.87 2.84-2.76 2.79 2.87z"/>
  <path d="M18.2 112.5c.1-4.8 1.4-7.9 3-7.8s2.8 3.1 2.8 7.9a17 17 0 0 1-3 8.8 17.3 17.3 0 0 1-2.8-8.9z" fill="#febf10" stroke="#000" stroke-linecap="round" stroke-linejoin="round" stroke-width=".4"/>
  <path d="M23.9 110.3c-.6 1.1-1.4 1.7-3.2 3.3a7.1 7.1 0 0 0-2 2.6m.8 2.3a7.1 7.1 0 0 1 1.7-2.1 24.7 24.7 0 0 0 2.7-2.5m-.4-6.6a14.2 14.2 0 0 1-3.3 3.4 6.6 6.6 0 0 0-1.9 2.4" fill="none" stroke="#000" stroke-linecap="round" stroke-linejoin="round" stroke-width=".4"/>
  <path d="M18.7 116.2a7.1 7.1 0 0 1 2-2.6c1.8-1.6 2.6-2.2 3.2-3.3m-1.2-5.2a18.4 18.4 0 0 1-2.8 2.7l-1.4 1.5m-.2 3.8a6.6 6.6 0 0 1 1.9-2.4 14.2 14.2 0 0 0 3.3-3.4" fill="none" stroke="#000" stroke-linecap="round" stroke-linejoin="round" stroke-width=".4"/>
  <circle cx="16.6" cy="106.8" r="3.3" fill="#febf10" stroke="#000" stroke-linecap="round" stroke-linejoin="round" stroke-width=".4"/>
  <circle cx="16.6" cy="106.8" r="2.3" fill="#febf10" stroke="#000" stroke-linecap="round" stroke-linejoin="round" stroke-width=".4"/>
  <circle cx="16.6" cy="106.8" r="1.3" fill="#d09b07"/>
  <circle cx="25.7" cy="107" r="3.3" fill="#febf10" stroke="#000" stroke-linecap="round" stroke-linejoin="round" stroke-width=".4"/>
  <circle cx="25.7" cy="107" r="2.3" fill="#febf10" stroke="#000" stroke-linecap="round" stroke-linejoin="round" stroke-width=".4"/>
  <circle cx="25.7" cy="107" r="1.3" fill="#d09b07"/>
  <ellipse cx="21" cy="122.4" rx="1.4" ry=".9" transform="rotate(-89.2 21.1 122.41)" fill="#febf10" stroke="#000" stroke-linecap="round" stroke-linejoin="round" stroke-width=".4"/>
  <ellipse cx="22.9" cy="120.7" rx=".9" ry="1.4" transform="rotate(-89.2 22.9 120.69)" fill="#febf10" stroke="#000" stroke-linecap="round" stroke-linejoin="round" stroke-width=".4"/>
  <ellipse cx="19.2" cy="120.7" rx=".9" ry="1.4" transform="rotate(-89.2 19.27 120.72)" fill="#febf10" stroke="#000" stroke-linecap="round" stroke-linejoin="round" stroke-width=".4"/>
  <circle cx="21.1" cy="120.6" r="1" fill="#febf10" stroke="#000" stroke-linecap="round" stroke-linejoin="round" stroke-width=".4"/>
  <path d="M21.1 121.3l.4-.2c-.4 0-.6-.3-.6-.7a.5.5 0 0 1 .3-.5h-.1a.7.7 0 0 0-.7.7.8.8 0 0 0 .7.7z" fill="#d09b07"/>
  <circle cx="21.2" cy="109.7" r="1.6" fill="#febf10" stroke="#000" stroke-linecap="round" stroke-linejoin="round" stroke-width=".4"/>
  <circle cx="21.2" cy="109.7" r="1"/>
  <circle cx="23.9" cy="106.9" r="1.6" fill="#febf10" stroke="#000" stroke-linecap="round" stroke-linejoin="round" stroke-width=".4"/>
  <circle cx="23.9" cy="106.9" r="1"/>
  <circle cx="18.2" cy="106.9" r="1.6" fill="#febf10" stroke="#000" stroke-linecap="round" stroke-linejoin="round" stroke-width=".4"/>
  <circle cx="18.2" cy="106.9" r="1"/>
  <circle cx="21.2" cy="106.9" r="2.7" fill="#febf10" stroke="#000" stroke-linecap="round" stroke-linejoin="round" stroke-width=".4"/>
</svg>
