<svg xmlns="http://www.w3.org/2000/svg" viewBox="0 0 87 140"><defs><style>.cls-1{fill:#fff}.cls-5{fill:#f3bc84}.cls-18{fill:#febf10}.cls-11,.cls-15{fill:#0065b7}.cls-12{fill:#d09b07}.cls-13{fill:#a67c52}.cls-14,.cls-19{fill:none}.cls-14,.cls-15,.cls-18,.cls-19{stroke:#000;stroke-linecap:round;stroke-linejoin:round}.cls-14,.cls-15,.cls-18{stroke-width:.4px}.cls-19{stroke-width:.3px}</style></defs><g id="Livello_2" data-name="Livello 2"><g id="Livello_1-2" data-name="Livello 1"><rect class="cls-1" width="87" height="140" rx="6" ry="6"/><path d="M38.28 117.1l-.12-.16h-1.72a28.7 28.7 0 0 1-3.86.69 12.82 12.82 0 0 1-4.1-.69H17.3v7.46h54.34v-7.46H53.2a2.72 2.72 0 0 1 .18.4 13.6 13.6 0 0 0 1.39 2.3 4.46 4.46 0 0 1 .7 1.24 1.16 1.16 0 0 1-1 .82 11.85 11.85 0 0 1-1.52.1 3.34 3.34 0 0 1-2.53-1.65 12.34 12.34 0 0 0-2.03-2.21 5.17 5.17 0 0 0-1.06-.65.73.73 0 0 0-.18-.02 2.76 2.76 0 0 1-.31-.33h-5.68a8.18 8.18 0 0 1-2.88.16M64.9 45.7l-2.23 1.24 1.41 58.72.06.1 1.92-3.05-.94-46.37-.22-10.63M34.87 17.67a.17.17 0 0 1-.05-.12 3.11 3.11 0 0 0-.06-.4 2.01 2.01 0 0 0-.14 1.65 1.49 1.49 0 0 0 1 1.06 7.15 7.15 0 0 0 1.3.45 4.17 4.17 0 0 1 2.05 1.2 11.88 11.88 0 0 1 1.49-.83 2.57 2.57 0 0 0-.42-.23.83.83 0 0 1-.23-.08 13.72 13.72 0 0 0-1.65-.86q-.9-.42-1.88-.83a3.58 3.58 0 0 1-1.4-1.01m8.55-1.3a.03.03 0 0 0-.04-.04 2.83 2.83 0 0 0-2.76-1.11 3.5 3.5 0 0 0-3.25.4 2.52 2.52 0 0 1 1.02.4 18.73 18.73 0 0 0 6.87 2.7 4.83 4.83 0 0 0-1.84-2.35z" fill="#004da1"/><path d="M37.26 113.06a4.52 4.52 0 0 0-2.4.47 24.48 24.48 0 0 1-3.16 1.18 31.02 31.02 0 0 1-3.82.86l-.29.35a.17.17 0 0 0-.02.18 2.65 2.65 0 0 0 .24.6q.3.12.66.24a12.82 12.82 0 0 0 4.11.69 28.7 28.7 0 0 0 3.86-.69q.67-.17 1.37-.37l.35.37.12.16a8.18 8.18 0 0 0 2.88-.16 1.95 1.95 0 0 0 .3-.06 3.01 3.01 0 0 0 .33-.96l.13-1a4.06 4.06 0 0 0 0-1.68v-.08l-.43.12a5.12 5.12 0 0 1-4.05-.3l-.18.08m9.9.28l-.48.37q-.64 2.23-.17 2.86a2.45 2.45 0 0 0 .33.37 2.76 2.76 0 0 0 .31.33.73.73 0 0 1 .18.02 5.17 5.17 0 0 1 1.06.65 12.34 12.34 0 0 1 2.03 2.21 3.34 3.34 0 0 0 2.53 1.65 11.85 11.85 0 0 0 1.53-.1 1.16 1.16 0 0 0 1-.82 4.46 4.46 0 0 0-.71-1.24 13.6 13.6 0 0 1-1.4-2.3 2.72 2.72 0 0 0-.17-.4q-.58-1.17-.88-1.9a4.68 4.68 0 0 0-1.35-1.62q-.02 0-.02.04a2.62 2.62 0 0 1-2.04.66 1.91 1.91 0 0 1-1.58-.78v-.18l-.18.18m-1.13-56.85v-.76h-4.39v.37l-.06 3.04.06.88h4.39v-3.53m-.87-19.6l-.4-.02q-2.77-.45-3.61-2.1-.8.46-1.59.95l-.45.27q.12.43.36.43l-.06.12a1.1 1.1 0 0 0 .88 1.06l.57-.08.25-.33-.12.57.06.29q.24.14.47.3a.99.99 0 0 0 1.12.13l.64-1.02-.37 1.3.36.19.05.04q1.2.6 1.79-.16l.05-.84a5.1 5.1 0 0 0 .1.9q.06.18.14.35a6.2 6.2 0 0 1 .68.04l.6-.11a.84.84 0 0 0 .54-.87l.27.41.24.1a3.1 3.1 0 0 0 1.53-.68l-.1-.53.23.47a.73.73 0 0 0 .75-.2 1.12 1.12 0 0 1 .17-.17l.26-.63a2.85 2.85 0 0 1 .04-.47.22.22 0 0 0 .23-.06 2.37 2.37 0 0 0 .55-.59l-1.23-.02a1.14 1.14 0 0 1-.41-.29.3.3 0 0 1-.08-.12 5.96 5.96 0 0 1-4.5 1.37z" fill="#e6e6e6"/><path d="M39.79 88.08l-.4.02a4.75 4.75 0 0 1-1.87-.02l-.7-.3a16.12 16.12 0 0 1 .27 3.67 2.9 2.9 0 0 1-.06.56v.02q-.04.57-.04 1.12a1.37 1.37 0 0 0 .04.33l.12.55a4.78 4.78 0 0 1 .13.51.24.24 0 0 1 .04.14 31.15 31.15 0 0 1-.1 5.28v.16a2.09 2.09 0 0 0 .24-.94 25.28 25.28 0 0 1 .41-5.17q0-.82.06-1.4l-.06-.58a.53.53 0 0 1 .33-.47.25.25 0 0 1 .24-.17.2.2 0 0 1 .08.04 24.82 24.82 0 0 1 1.27-3.35m6-1.04l-.13-.31q.26 2.58.5 4.52.15 1.14.35 2.4 0-.68.03-1.32a20.62 20.62 0 0 1 .96-5.4q-.88.03-1.72.11m-.39-.49a4.02 4.02 0 0 1-3.07 1.25 41.13 41.13 0 0 1-.34 19.57 17.05 17.05 0 0 0-.49 5.91l.43-.12a6.29 6.29 0 0 1-.06-1.94 21.43 21.43 0 0 1 1.06-5.03q.82-2.4 1.57-4.72a9.82 9.82 0 0 0 .23-4.85 12.2 12.2 0 0 1 .08-5.23 21.41 21.41 0 0 0 .59-4.84m8.9 5.78a21.83 21.83 0 0 0 .73-4.96 1.29 1.29 0 0 1-.2.12l-3.61-.35q.45 5 .76 9.93a3.28 3.28 0 0 1 .98 1.2v.05a4.1 4.1 0 0 1 .08.98 2.44 2.44 0 0 1-.2 1.02 5.59 5.59 0 0 0-.4 1.35l-.17.94.1 1.94a32.32 32.32 0 0 1-.12 4.75l.47-1.29a20.95 20.95 0 0 0 1.2-5.36 26.92 26.92 0 0 0-.06-5.15 14.6 14.6 0 0 1 .45-5.17m-8.15-59.9l-.02-.02-.74 3.47a6.05 6.05 0 0 0 3.76-1.3 3.33 3.33 0 0 1-.18-1.4l-.49.11a3.2 3.2 0 0 1-2.33-.86z" fill="#c69c6d"/><path class="cls-5" d="M42.32 87.8h-.04q-1.2.1-2.5.28a24.82 24.82 0 0 0-1.26 3.35.2.2 0 0 0-.08-.04.25.25 0 0 0-.24.17.53.53 0 0 0-.33.47l.06.57q-.06.59-.06 1.41a25.28 25.28 0 0 0-.41 5.17 2.09 2.09 0 0 1-.24.94 20.91 20.91 0 0 0 .12 4.94q.18 1.64.24 3.36.06 1.92.21 4.4l-.35.17a5.12 5.12 0 0 0 4.05.29 17.05 17.05 0 0 1 .5-5.91 41.13 41.13 0 0 0 .33-19.57m10.04 16.75l-.1-1.94.18-.94a5.59 5.59 0 0 1 .39-1.35 2.44 2.44 0 0 0 .2-1.02 4.1 4.1 0 0 0-.08-.98v-.06a3.28 3.28 0 0 0-.98-1.2q-.31-4.93-.76-9.92l-1.36-.16q-1.17-.08-2.35-.06a20.62 20.62 0 0 0-.96 5.4q-.03.65-.03 1.34.11.78.29 1.6a14.97 14.97 0 0 1 .06 4.8 16.86 16.86 0 0 0 .15 5.49 19.96 19.96 0 0 1 .42 4.75q-.12 1.77-.1 2.86v.18a1.91 1.91 0 0 0 1.58.78 2.62 2.62 0 0 0 2.04-.66q0-.04.02-.04.57-2.12 1.27-4.12a32.32 32.32 0 0 0 .12-4.75m-29.12-46.4l-.96-.07a1.21 1.21 0 0 0-.29-.04l-.74.06-1.06.1h-.12l-.53.76q-.2.26-.37.53a.06.06 0 0 0-.04.06 1.9 1.9 0 0 0-.17.37 5.14 5.14 0 0 0-.47.45.5.5 0 0 0-.18.2q0 .04-.02.04 0 .02-.04.06a2.79 2.79 0 0 0-.2.72l.38.63a1.2 1.2 0 0 0-.3 1.76l.4.21-.34.36a1.01 1.01 0 0 0-.02.7 1.28 1.28 0 0 1 .12.14.85.85 0 0 0 .59.33.51.51 0 0 0-.24.65l.02.02.18.21a2.6 2.6 0 0 0 .88.08 2.16 2.16 0 0 0 1.5-.88l-.03-.37.33-.12.53-.18 1.96-.7a2.75 2.75 0 0 0 1.35-1.14.77.77 0 0 0 .1-.17 2.05 2.05 0 0 0 .13-.79v-.33a3.35 3.35 0 0 0-.35-1.43q-.31-.47-.65-.88a5.7 5.7 0 0 0-1.35-1.33M51.32 25.9v-.18l-.02-.02a4.71 4.71 0 0 0-.53-.94 4.45 4.45 0 0 0-.76-.8l-.04-.02-.2-.7a6.93 6.93 0 0 0-1.15-.22 9.53 9.53 0 0 1-1.88 1.12 4.63 4.63 0 0 0-1.84 1.52 4.05 4.05 0 0 0-.86 2.35 10.87 10.87 0 0 1-.43 2.65q-.41 1.29-.92 2.62a2.1 2.1 0 0 1-.43.76 4.55 4.55 0 0 0 3.13 1.83l.74-3.47.02.02a3.2 3.2 0 0 0 2.33.86l.5-.12.52-.29.04-.04a3.54 3.54 0 0 0 1.23-1.88 12.67 12.67 0 0 0 .44-2.54q.1-1.22.11-2.51"/><path d="M45.08 66.13q1.95-.08 3.72-.2.74-.1 1.45-.15l-.98-6.17a17.36 17.36 0 0 1-3.25-.16v.57h-2.53a16.95 16.95 0 0 0 1.59 6.1m-3.45-6.1l-.06-.88a8.12 8.12 0 0 1-1.53-.1l-2.82 7.32a2.74 2.74 0 0 1 .45.04 15.94 15.94 0 0 0 3.76-.35.43.43 0 0 1 .08-.18 22.83 22.83 0 0 0 1.92-5.85h-1.8m-2.66-23.95a.78.78 0 0 0-.12.1 12.87 12.87 0 0 1 .47 2.43 45.6 45.6 0 0 1 .06 6.93 24.78 24.78 0 0 0 1.43 10.4q.39.1.82.17v-.37h4.39v.76a24.83 24.83 0 0 0 2.9-.27 12.45 12.45 0 0 1 .46-10.04A54.47 54.47 0 0 0 53.2 35.9l-.23.11-.55-.11a5.72 5.72 0 0 0-.7.03l-.34.02a2.37 2.37 0 0 1-.55.6.22.22 0 0 1-.23.05 2.85 2.85 0 0 0-.04.47l-.26.63a1.12 1.12 0 0 0-.17.17.73.73 0 0 1-.75.2l-.23-.47.1.53a3.1 3.1 0 0 1-1.53.68l-.24-.1-.27-.4a.84.84 0 0 1-.55.86l-.59.11a6.2 6.2 0 0 0-.68-.04q-.08-.17-.14-.35a5.1 5.1 0 0 1-.1-.9l-.05.84q-.6.77-1.79.16l-.05-.04-.36-.2.37-1.29-.64 1.02a.99.99 0 0 1-1.12-.14l-.47-.3-.06-.28.12-.57-.25.33-.57.08a1.1 1.1 0 0 1-.88-1.06l.06-.12q-.24 0-.36-.43z" fill="red"/><path d="M41.51 65.87a.43.43 0 0 0-.08.18 15.94 15.94 0 0 1-3.76.35 94.28 94.28 0 0 0-.62 10.83 14.92 14.92 0 0 0 1.98 7.56q.25.43.52-.76a5.27 5.27 0 0 0 3.49 1.25 4.5 4.5 0 0 0 1.16-2.23 23.81 23.81 0 0 0-1.06-12.83q-.8-2.21-1.63-4.35m11.14-.4q-1.15.17-2.4.3-.7.06-1.45.16a21.82 21.82 0 0 0-2.06 9.4 33.97 33.97 0 0 0 .98 7.81 2.72 2.72 0 0 0 2.53 2.43l.76-.64.31 1.15.34.3.05.3 1.36-1.71.43 1.25q1.5-3.82 2.62-7.7a16 16 0 0 0-.12-9.06q-.57-1.92-.98-3.82l-.43 3.46-1.94-3.64m-31.46-.23l.04.37a2.16 2.16 0 0 1-1.51.88 40.7 40.7 0 0 1 .47 5.46 2.68 2.68 0 0 0 1.98-2.13 18.63 18.63 0 0 1-.65-4.7l-.33.12m2.5-39.03l-.35.34a2.9 2.9 0 0 0-1.1 1.52l-.11-1.47a4.72 4.72 0 0 0-.59-1.88 9.43 9.43 0 0 1-.78-1.93 11.34 11.34 0 0 1-.65 2.35 7.63 7.63 0 0 0-.57 2.6 13.5 13.5 0 0 0 .24 2.7 2.37 2.37 0 0 0-.37-.66 5.86 5.86 0 0 1-1-2.1 9.58 9.58 0 0 0-.36 2.64 6.9 6.9 0 0 0 .61 2.92 4.07 4.07 0 0 0-1.55-1.1q-.23-.13-.47-.29a16.3 16.3 0 0 0 .67 2.82 3.11 3.11 0 0 0 .53 1 4.45 4.45 0 0 0-1.31-.6l-.45-.18a8.57 8.57 0 0 0 .47 2.01 4.78 4.78 0 0 0 .86 1.47 4.39 4.39 0 0 0-.94-.55l-.3-.29q0 .3.02.59a7.52 7.52 0 0 0 .4 1.66l.02.04a.24.24 0 0 1 .03.14l.02.04a7.07 7.07 0 0 0 .89 1.37 8.73 8.73 0 0 0 .94 1.23 3.28 3.28 0 0 1 .39.33.81.81 0 0 1-.16-.11.7.7 0 0 1-.23-.22 6.3 6.3 0 0 0-.94-.47 7.75 7.75 0 0 0-1.06-.4l-.02-.03a1.74 1.74 0 0 1-.51-.47 7.56 7.56 0 0 1 .8 2.59 3.22 3.22 0 0 0 .5 1.43q.23.4.52.86v.02l.04.04a1.2 1.2 0 0 0 .14.17l.17.14.04.04a2.34 2.34 0 0 0 .32.3.13.13 0 0 1 .05.05.15.15 0 0 0 .06.02.76.76 0 0 1 .24.22l.04.02a.36.36 0 0 1 .2.23 1.28 1.28 0 0 0-.12-.14l-.02-.04a2.19 2.19 0 0 1-.3-.17 16.53 16.53 0 0 0-3.03-1.26l-.02-.03a2.75 2.75 0 0 1-.18-.24 7.5 7.5 0 0 0 .59 2.3 2.87 2.87 0 0 0 .23.5v.02a5.95 5.95 0 0 0 2.24 2.62 2.38 2.38 0 0 1 .35.2l.02.04q.17.2.39.41a5.85 5.85 0 0 1 1.02 1.37l.04.04a.17.17 0 0 0 .06.12v.06l.01.02a.84.84 0 0 1 .06.29v.33a.08.08 0 0 0 .04.08v.1a1.79 1.79 0 0 1-.06.43 5.47 5.47 0 0 0-.64-1.47l-.33-.41a7.1 7.1 0 0 0-2-1.59l-1.88-1.05.15 1.64A9.1 9.1 0 0 0 18 56.5a9.7 9.7 0 0 0-2.51-.39q.94 3.18 3.64 3.45a.06.06 0 0 1 .04-.06l.37-.53.53-.76h.12l1.06-.1a6.66 6.66 0 0 0 3.1-4.46 3.12 3.12 0 0 1 .3-1.88q-.3.11-.55.23a4.45 4.45 0 0 0 .61-2.88.8.8 0 0 1 .04-.25l.47-1.41-1.57.84a1.93 1.93 0 0 0 .75-1.25 18.2 18.2 0 0 0 .25-3.04 1.65 1.65 0 0 1-.23.45 1.27 1.27 0 0 1-.2.32.13.13 0 0 0-.04.1 3.29 3.29 0 0 0-.43.17 6.56 6.56 0 0 0-1.29.78 2.78 2.78 0 0 1 .31-.37 6.82 6.82 0 0 0 1.16-1.94 4.87 4.87 0 0 0 .25-1q.3-1.58.75-3.74-1.1 1.1-1.7 1.75a.97.97 0 0 1 .11-.24.48.48 0 0 1 .12-.16.02.02 0 0 0 .02-.01v-.04a5.77 5.77 0 0 0 .94-2.76 2.3 2.3 0 0 1 .04-.42l.31-3a2.74 2.74 0 0 1-.25.3l-.83.7a4.5 4.5 0 0 0 .5-2.46 5.68 5.68 0 0 1 .05-1.41 5.57 5.57 0 0 1 .28-.94l-1.36 1.5a11.47 11.47 0 0 0 .2-2.99 6.42 6.42 0 0 1 .33-2.39m-2.74 8.5v-.04H21l-.04.04m-.4 12.47a1.47 1.47 0 0 1 .09-.25l-.06.94a5.86 5.86 0 0 0-.04-.69z" fill="#325723"/><path d="M40.04 59.04a4.99 4.99 0 0 1-1.76-.72 28.97 28.97 0 0 0-3.13 7.28q.17.12.37.23a4.68 4.68 0 0 0 1.7.53l2.82-7.32m10.2 6.74q1.26-.14 2.41-.32a30.94 30.94 0 0 0 3.76-.86l.55-.18q-.12-2.58-2.72-6.22a12.03 12.03 0 0 1-4.97 1.4l.98 6.18m3.54-30.14a.21.21 0 0 0-.12-.04 2.19 2.19 0 0 1-.3.18 2.06 2.06 0 0 1-.17.12 54.47 54.47 0 0 1-3.82 10.28 12.45 12.45 0 0 0-.47 10.04 16.85 16.85 0 0 0 3.86-1.02v-.04l.08-.78a25.52 25.52 0 0 0 2.8-7.09v-.08q-.8-7.14 1.55-10.8a2.76 2.76 0 0 0-.96-.36l-.04-.04h-.06a.46.46 0 0 1-.18-.06l-.02-.02a.41.41 0 0 1-.21-.05l-.02-.04a.87.87 0 0 1-.22-.08.2.2 0 0 1-.07-.04.86.86 0 0 0-.3-.12l-.04-.02h-.37a.15.15 0 0 1-.06.02h-.21a4.9 4.9 0 0 1-.65.04m-16.68 1.47v.02a5.44 5.44 0 0 0-1 2.15 17 17 0 0 0-.3 1.73q-.07.58-.11 1.15-.06 1.2 0 2.49.06.8.15 1.58.06.69.18 1.34a3.3 3.3 0 0 0 .06.35v.06a26.3 26.3 0 0 0 1.3 4.81 11.93 11.93 0 0 0 .87 1.79 1.2 1.2 0 0 0 .14.21 7.77 7.77 0 0 0 2.4 1.14 24.78 24.78 0 0 1-1.42-10.4 45.6 45.6 0 0 0-.06-6.93 12.87 12.87 0 0 0-.47-2.43 4.68 4.68 0 0 0-.63.31l-.78.45-.04.02h-.06a1.29 1.29 0 0 1-.2.12.03.03 0 0 1-.03.04z" fill="#980805"/><path d="M40.8 55.93a7.77 7.77 0 0 1-2.4-1.14 1.2 1.2 0 0 1-.14-.21 6.14 6.14 0 0 0-.15 3.62 2.06 2.06 0 0 1 .17.12 4.99 4.99 0 0 0 1.76.72 8.12 8.12 0 0 0 1.53.1l.06-3.04-.82-.17m11.96-.77v.04a16.85 16.85 0 0 1-3.86 1.02 24.83 24.83 0 0 1-2.9.27v2.96a17.36 17.36 0 0 0 3.26.16 12.03 12.03 0 0 0 4.97-1.41.52.52 0 0 1 .14-.1 4 4 0 0 0-1.6-2.94m-17.63-7.63l.7-1.3q-.1-.78-.15-1.58-.06-1.3 0-2.49.04-.57.11-1.15l-2.48 6.14-5.94 6.54a23.73 23.73 0 0 0-4.56 3.45l-.55.55-.29.35a1.21 1.21 0 0 1 .3.04l.95.08a5.7 5.7 0 0 1 1.35 1.33q.34.41.65.88a3.35 3.35 0 0 1 .35 1.43v.33l.06-.15a2.96 2.96 0 0 0 .53-.84l.33-.71a.6.6 0 0 1 .08-.22 1.57 1.57 0 0 0 .28-.84q0-.33.23-.4a.6.6 0 0 0 .31-.22 2.17 2.17 0 0 1 .42-.36 4.66 4.66 0 0 0 .8-.58 6.65 6.65 0 0 0 1.08-1.26.78.78 0 0 0 .1-.11 5.03 5.03 0 0 1 .3-1.1 1.28 1.28 0 0 1 .12-.14 2.97 2.97 0 0 1 .77-.53 3.35 3.35 0 0 0 .57-.29q.2-.12.4-.27a3 3 0 0 0 .95-1.08q.07-.18.17-.35l.41-.83a24.23 24.23 0 0 0 1.5-4 1.55 1.55 0 0 1 .15-.32m17.27-24.05a2.93 2.93 0 0 0-.3-2.74 15.22 15.22 0 0 0-1.46-.6 1.82 1.82 0 0 0-.1-.7q-.55-.13-1.12-.29a2.85 2.85 0 0 1-2.4-1.25 11.17 11.17 0 0 0-1.9-2.1 5.33 5.33 0 0 0-1.75.53.03.03 0 0 1 .04.04 4.83 4.83 0 0 1 1.84 2.35 3.35 3.35 0 0 1 .18.59 12.5 12.5 0 0 0-5 1.37 11.88 11.88 0 0 0-1.48.82q-1.57 1.94.76 4.27a2.7 2.7 0 0 1 .49-.3q4.7-2.85 8.4-2.44a6.93 6.93 0 0 1 1.16.22 7.92 7.92 0 0 1 2.25.96 7.76 7.76 0 0 0 .39-.73m8.4 19.62l-.59-.21-.27-.06a3.76 3.76 0 0 0-2.88.21q-.02.94 0 1.88a6.17 6.17 0 0 0 3.5 5.52l-.05-2.46" fill="#febf10"/><path d="M56.41 64.6a30.94 30.94 0 0 1-3.76.86l1.94 3.64.43-3.46q.41 1.9.98 3.82a16 16 0 0 1 .12 9.06Q55 82.4 53.5 86.22l-.43-1.25-1.36 1.72-.05-.31-.34-.3-.31-1.15-.76.64a2.72 2.72 0 0 1-2.53-2.43 33.97 33.97 0 0 1-.98-7.8 21.82 21.82 0 0 1 2.06-9.4q-1.77.11-3.72.19a16.95 16.95 0 0 1-1.59-6.11h-.06a22.83 22.83 0 0 1-1.92 5.85q.82 2.14 1.63 4.35a23.81 23.81 0 0 1 1.06 12.83 4.5 4.5 0 0 1-1.16 2.23 5.27 5.27 0 0 1-3.49-1.25q-.27 1.19-.52.76a14.92 14.92 0 0 1-1.98-7.56 94.28 94.28 0 0 1 .62-10.83 2.74 2.74 0 0 0-.45-.04 4.68 4.68 0 0 1-1.7-.53q-.43 2.88-.88 4.82a20.03 20.03 0 0 0-.53 4.74 53.4 53.4 0 0 0 .3 5.4 19.52 19.52 0 0 0 .93 4.6 5.13 5.13 0 0 0 1.22 2.22l.25.18.7.29a4.75 4.75 0 0 0 1.89.02l.39-.02q1.3-.18 2.49-.28h.04a4.02 4.02 0 0 0 3.07-1.25.66.66 0 0 1 .16-.17l.11.35.12.31q.84-.08 1.72-.12 1.18-.02 2.35.06l1.36.16 3.62.35a1.29 1.29 0 0 0 .2-.12 2.93 2.93 0 0 0 1.15-1.52q.41-1.16.6-1.63a25.64 25.64 0 0 0 .83-2.84 29.69 29.69 0 0 0 .8-5.87 23.15 23.15 0 0 0-.45-6.03 29.55 29.55 0 0 0-1.55-4.88z" fill="#0d3a12"/><path class="cls-11" d="M62.66 46.94l-1.23.7a6.26 6.26 0 0 1-.88.34h-.02l.05 2.46.12 4.94 1.24 47.46 2.13 2.82-1.41-58.72M37.38 15.63a3.02 3.02 0 0 0-.7.59h-.75a.06.06 0 0 1-.06.04 1.41 1.41 0 0 0-.3.07 2.47 2.47 0 0 0-.81.83 3.11 3.11 0 0 1 .06.39.17.17 0 0 0 .05.12 3.58 3.58 0 0 0 1.41 1.01q.98.41 1.88.83a13.72 13.72 0 0 1 1.65.86.83.83 0 0 0 .23.08 2.57 2.57 0 0 1 .42.23 12.5 12.5 0 0 1 4.99-1.37 3.35 3.35 0 0 0-.18-.59 18.73 18.73 0 0 1-6.87-2.7 2.52 2.52 0 0 0-1.02-.4m.24 2.24h-.04a.18.18 0 0 1 .08-.02.06.06 0 0 0-.04.02z"/><path class="cls-12" d="M55.65 47.27v.02a14.05 14.05 0 0 0 5.05 8.09l-.12-4.94a6.17 6.17 0 0 1-3.5-5.52q-.02-.94 0-1.88a3.76 3.76 0 0 1 2.88-.21l.27.06.59.21-.04-.18v-2.46l-1.08-.92-.04-.02-.37-.45-.04-.02a2.44 2.44 0 0 1-.6-1.51 5.4 5.4 0 0 0-1.45-1.14q-2.35 3.67-1.55 10.81v.06m-19.8-1.04l-.7 1.3a1.55 1.55 0 0 0-.16.33 24.23 24.23 0 0 1-1.49 4q-.21.4-.4.82-.1.17-.18.35a3 3 0 0 1-.94 1.08l-.41.27a3.35 3.35 0 0 1-.57.3 2.97 2.97 0 0 0-.77.52 1.28 1.28 0 0 0-.11.14 5.03 5.03 0 0 0-.32 1.1.78.78 0 0 1-.1.11 6.65 6.65 0 0 1-1.07 1.26 4.66 4.66 0 0 1-.8.58 2.17 2.17 0 0 0-.42.36.6.6 0 0 1-.3.21q-.24.08-.24.41a1.57 1.57 0 0 1-.28.84.6.6 0 0 0-.08.22l-.33.7a2.96 2.96 0 0 1-.53.85l-.06.15a2.05 2.05 0 0 1-.13.79 2.2 2.2 0 0 0 1.84-.83l5.52-4.93a10.88 10.88 0 0 0 4.56-4.37 26.3 26.3 0 0 1-1.3-4.81v-.06a3.3 3.3 0 0 1-.05-.35q-.12-.65-.18-1.34M49.13 17.5a4.91 4.91 0 0 0-4-1.68 11.17 11.17 0 0 1 1.9 2.09 2.85 2.85 0 0 0 2.41 1.25l1.12.3a6.26 6.26 0 0 0-1.43-1.96m3 3.25a2.93 2.93 0 0 1 .29 2.74 7.76 7.76 0 0 1-.4.73 10.59 10.59 0 0 1 1.75 1.35l.12.11a1.76 1.76 0 0 0 1.07-1.11q.57-1.84-2.05-3.4-.41-.2-.78-.42m14.64 24.95c-.39-.04-.18-.64-.59-.7l-1.29.72.22 10.63q.76.06 1.66-1.65a10.1 10.1 0 0 0 0-9z"/><path class="cls-13" d="M40.22 25.48l-.12.37q-.11.63-.23 1.1l-.3 1.11-.11.61q-.08.53-.18.98a4.06 4.06 0 0 1-.31 1.13 2.3 2.3 0 0 0-.18.47 7.14 7.14 0 0 0-.12 1.12 1.26 1.26 0 0 1-.29.65v.04a7.36 7.36 0 0 0-1.3 2.52 2.71 2.71 0 0 0 .03 1.55v-.02a.03.03 0 0 0 .04-.04 1.29 1.29 0 0 0 .2-.12h.05l.04-.02q.37-.23.78-.45a4.68 4.68 0 0 1 .63-.31.78.78 0 0 1 .12-.1l.13-.08.45-.27q.79-.49 1.59-.94.26-.18.55-.35a3.29 3.29 0 0 0 .57-.38 2.1 2.1 0 0 0 .43-.76q.5-1.33.92-2.62a10.87 10.87 0 0 0 .43-2.65 4.05 4.05 0 0 1 .86-2.35 4.63 4.63 0 0 1 1.84-1.52 9.53 9.53 0 0 0 1.88-1.12q-3.7-.41-8.4 2.45M53.77 25.56a10.59 10.59 0 0 0-1.74-1.35 7.92 7.92 0 0 0-2.25-.96l.2.7.03.02a4.45 4.45 0 0 1 .76.8 4.71 4.71 0 0 1 .53.94l.02.02v.18q-.02 1.3-.11 2.5a12.67 12.67 0 0 1-.44 2.55 3.54 3.54 0 0 1-1.23 1.88l-.04.04-.53.3a3.33 3.33 0 0 0 .18 1.4 3.02 3.02 0 0 0 .5.94.3.3 0 0 0 .09.12 1.14 1.14 0 0 0 .4.3l1.24.01.33-.02a5.72 5.72 0 0 1 .7-.03l.56.11.23-.11a2.06 2.06 0 0 0 .18-.12 2.19 2.19 0 0 0 .3-.18.21.21 0 0 1 .11.04 4.9 4.9 0 0 0 .65-.04h.21a.15.15 0 0 0 .06-.02h.37l.04.02a.86.86 0 0 1 .3.12.2.2 0 0 0 .07.04.87.87 0 0 0 .22.08l.02.04a.41.41 0 0 0 .21.05l.02.02a.46.46 0 0 0 .18.06h.06l.04.04v-.04a.29.29 0 0 0 .08-.13.03.03 0 0 0 .03-.04v-.18l-.03-.02a.48.48 0 0 0-.08-.27 1.7 1.7 0 0 0-.16-.18l-.02-.02a1.66 1.66 0 0 0-.23-.3 5.5 5.5 0 0 1-.4-.38l-.01-.02q-.12-.22-.28-.45a.15.15 0 0 0-.02-.06.33.33 0 0 0-.16-.14l-.05-.04a.68.68 0 0 0-.12-.18l-.02-.02v-.82l-.04-.04v-.17l-.02-.02a.41.41 0 0 0-.06-.22.97.97 0 0 1-.12-.23l-.15-.24-.14-.31-.04-.04a.32.32 0 0 0-.02-.08.16.16 0 0 1-.04-.12l-.02-.04v-.84l-.1-.27a1.17 1.17 0 0 0-.23-.41.5.5 0 0 1-.12-.2l-.02-.04v-.06q-.04 0-.04-.02a.5.5 0 0 0-.06-.11l-.01-.04a1.06 1.06 0 0 1-.04-.3.06.06 0 0 0 .04-.06v-.58a.02.02 0 0 0 .01-.02v-.16q.04 0 .04-.02v-.06q.02 0 .06-.04l.12-.23a.44.44 0 0 0 .08-.2v-.1a.39.39 0 0 1-.06-.23.32.32 0 0 0-.02-.08 1.08 1.08 0 0 0-.1-.21.15.15 0 0 0-.02-.06v-.53l.12-.82z"/><path class="cls-11" d="M42.21 34.22s1.62 2.28 3.82 1.76a7.32 7.32 0 0 0 3.12-1.4l.5.94s-2.61 1.72-4.8 1.38a4.15 4.15 0 0 1-3.52-2.1z"/><path class="cls-14" d="M66.55 45.23a11.07 11.07 0 0 1 .16 9.46q-.9 1.7-1.66 1.65l.94 46.37-1.92 3.05-.06-.1-2.13-2.82-1.24-47.46a14.05 14.05 0 0 1-5.05-8.09 25.52 25.52 0 0 1-2.8 7.09l-.08.78a4 4 0 0 1 1.6 2.94.52.52 0 0 0-.13.1q2.6 3.64 2.72 6.22l-.55.18a29.55 29.55 0 0 1 1.55 4.88 23.15 23.15 0 0 1 .45 6.03 29.69 29.69 0 0 1-.8 5.87 25.64 25.64 0 0 1-.82 2.84q-.2.47-.61 1.63a2.93 2.93 0 0 1-1.16 1.52 21.83 21.83 0 0 1-.72 4.96 14.6 14.6 0 0 0-.45 5.17 26.92 26.92 0 0 1 .06 5.15 20.95 20.95 0 0 1-1.2 5.36l-.47 1.3q-.7 2-1.27 4.1a4.68 4.68 0 0 1 1.35 1.63q.3.73.88 1.9H71.6v7.46H17.25v-7.46h11.16l-.66-.23a2.65 2.65 0 0 1-.24-.61.17.17 0 0 1 .02-.18l.3-.35a31.02 31.02 0 0 0 3.81-.86 24.48 24.48 0 0 0 3.16-1.18 4.52 4.52 0 0 1 2.4-.47l.18-.07.35-.16q-.15-2.49-.21-4.4-.06-1.73-.24-3.37a20.91 20.91 0 0 1-.11-4.94v-.16a31.15 31.15 0 0 0 .1-5.28.24.24 0 0 0-.05-.14 4.78 4.78 0 0 0-.13-.5l-.12-.56a1.37 1.37 0 0 1-.04-.33q0-.55.04-1.12v-.02a2.9 2.9 0 0 0 .06-.56 16.12 16.12 0 0 0-.28-3.66l-.25-.18a5.13 5.13 0 0 1-1.21-2.21 19.52 19.52 0 0 1-.94-4.6 53.4 53.4 0 0 1-.3-5.41 20.03 20.03 0 0 1 .53-4.74q.45-1.94.88-4.82-.2-.11-.37-.23a28.97 28.97 0 0 1 3.13-7.28 2.06 2.06 0 0 0-.17-.12 6.14 6.14 0 0 1 .15-3.62 11.93 11.93 0 0 1-.88-1.79 10.88 10.88 0 0 1-4.56 4.37l-5.52 4.93a2.2 2.2 0 0 1-1.84.83.77.77 0 0 1-.1.17 2.75 2.75 0 0 1-1.35 1.14l-1.96.7-.53.18a18.63 18.63 0 0 0 .65 4.7 2.68 2.68 0 0 1-1.98 2.13 40.7 40.7 0 0 0-.47-5.46 2.6 2.6 0 0 1-.88-.08l-.18-.21-.02-.02a.51.51 0 0 1 .24-.65.85.85 0 0 1-.59-.33 1.28 1.28 0 0 0-.12-.14 1.01 1.01 0 0 1 .02-.7l.34-.36-.4-.21a1.2 1.2 0 0 1 .3-1.76l-.37-.63a2.79 2.79 0 0 1 .2-.72l.03-.06q.02 0 .02-.04a.5.5 0 0 1 .18-.2 5.14 5.14 0 0 1 .47-.45 1.9 1.9 0 0 1 .17-.37q-2.7-.27-3.64-3.45a9.7 9.7 0 0 1 2.5.4 9.1 9.1 0 0 1-2.28-4.98l-.16-1.64 1.88 1.05a7.1 7.1 0 0 1 2 1.59l.33.41a5.47 5.47 0 0 1 .65 1.47 1.79 1.79 0 0 0 .05-.43v-.1a.08.08 0 0 1-.04-.08v-.33a.84.84 0 0 0-.05-.3l-.02-.01v-.06a.17.17 0 0 1-.06-.12l-.04-.04a5.85 5.85 0 0 0-1.02-1.37l-.4-.41-.01-.04a2.38 2.38 0 0 0-.35-.2 5.95 5.95 0 0 1-2.24-2.62v-.02a2.87 2.87 0 0 1-.23-.5 7.5 7.5 0 0 1-.59-2.3 2.75 2.75 0 0 0 .18.24l.31.1a9.62 9.62 0 0 1 1.82.64l.86.43-.86-.88q-.25-.37-.47-.76a3.22 3.22 0 0 1-.49-1.43 7.56 7.56 0 0 0-.8-2.59 1.74 1.74 0 0 0 .51.47l.02.02a7.75 7.75 0 0 1 1.06.41 6.3 6.3 0 0 1 .94.47 8.73 8.73 0 0 1-.94-1.23 7.07 7.07 0 0 1-.88-1.37l-.02-.04a.24.24 0 0 0-.04-.14l-.02-.04a7.52 7.52 0 0 1-.4-1.66l-.01-.59.29.3a4.39 4.39 0 0 1 .94.54 4.78 4.78 0 0 1-.86-1.47 8.57 8.57 0 0 1-.47-2.01l.45.17a4.45 4.45 0 0 1 1.31.61 3.11 3.11 0 0 1-.53-1 16.3 16.3 0 0 1-.66-2.82q.23.16.47.3a4.07 4.07 0 0 1 1.54 1.1 6.9 6.9 0 0 1-.6-2.93 9.58 9.58 0 0 1 .35-2.64 5.86 5.86 0 0 0 1 2.1 2.37 2.37 0 0 1 .37.66 13.5 13.5 0 0 1-.24-2.7 7.63 7.63 0 0 1 .57-2.6 11.34 11.34 0 0 0 .65-2.35 9.43 9.43 0 0 0 .78 1.93 4.72 4.72 0 0 1 .59 1.88l.12 1.47a2.9 2.9 0 0 1 1.1-1.52l.34-.34a6.42 6.42 0 0 0-.33 2.4 11.47 11.47 0 0 1-.2 2.99l1.36-1.51a5.57 5.57 0 0 0-.28.94 5.68 5.68 0 0 0-.06 1.4 4.5 4.5 0 0 1-.49 2.48l.83-.7a2.74 2.74 0 0 0 .25-.3l-.31 3a2.3 2.3 0 0 0-.04.4 5.77 5.77 0 0 1-.94 2.77v.04a.02.02 0 0 1-.02.01.48.48 0 0 0-.12.16.97.97 0 0 0-.11.24q.6-.65 1.7-1.75-.45 2.16-.75 3.74a4.87 4.87 0 0 1-.25 1 1.07 1.07 0 0 0-.06.14l-.5.98a5.91 5.91 0 0 1-.6.82 2.78 2.78 0 0 0-.3.37 13.86 13.86 0 0 1 1.64-1.05 1.3 1.3 0 0 0 .4-.3 1 1 0 0 0 .09-.2l.05-.27-.02 1.3q-.1.88-.23 1.74a1.93 1.93 0 0 1-.74 1.25l1.56-.84-.47 1.4a.8.8 0 0 0-.04.26 4.45 4.45 0 0 1-.6 2.88q.25-.12.54-.23a3.12 3.12 0 0 0-.29 1.88 6.66 6.66 0 0 1-3.11 4.46l.74-.06.3-.35.54-.55a23.73 23.73 0 0 1 4.57-3.45l5.93-6.54 2.49-6.14a17 17 0 0 1 .29-1.73 5.44 5.44 0 0 1 1-2.15 2.71 2.71 0 0 1-.02-1.55 7.36 7.36 0 0 1 1.3-2.52v-.04a1.26 1.26 0 0 0 .28-.65 7.14 7.14 0 0 1 .12-1.12 2.3 2.3 0 0 1 .18-.47 4.06 4.06 0 0 0 .31-1.13q.1-.45.18-.98l.12-.6.29-1.12q.12-.47.23-1.1l.12-.37a2.7 2.7 0 0 0-.49.3q-2.33-2.34-.76-4.28a4.17 4.17 0 0 0-2.06-1.2 7.15 7.15 0 0 1-1.29-.44 1.49 1.49 0 0 1-1-1.06 2.01 2.01 0 0 1 .14-1.64 2.47 2.47 0 0 1 .82-.83 1.41 1.41 0 0 1 .3-.07.06.06 0 0 0 .05-.04h.75a3.02 3.02 0 0 1 .7-.6 3.5 3.5 0 0 1 3.25-.4 2.83 2.83 0 0 1 2.76 1.11 5.33 5.33 0 0 1 1.75-.53 4.91 4.91 0 0 1 4 1.69 6.26 6.26 0 0 1 1.42 1.96 1.82 1.82 0 0 1 .1.68 15.22 15.22 0 0 1 1.47.6q.37.22.78.42 2.62 1.57 2.06 3.4a1.76 1.76 0 0 1-1.08 1.12l-.12-.11-.12.82v.53a.15.15 0 0 1 .02.06 1.08 1.08 0 0 1 .1.21.32.32 0 0 1 .02.08.39.39 0 0 0 .06.23v.1a.44.44 0 0 1-.08.2l-.12.23-.05.04v.06q0 .02-.04.02v.16a.02.02 0 0 1-.02.02v.58a.06.06 0 0 1-.04.06 1.06 1.06 0 0 0 .04.3l.02.04a.5.5 0 0 1 .05.11q0 .02.04.02v.06l.02.04a.5.5 0 0 0 .12.2 1.17 1.17 0 0 1 .24.4q.05.17.1.28v.84l.01.04a.16.16 0 0 0 .04.12.32.32 0 0 1 .02.08l.04.04.14.31.16.24a.97.97 0 0 0 .11.23.41.41 0 0 1 .06.22l.02.02v.17l.04.04v.82l.02.02a.68.68 0 0 1 .12.18q.04.04.06.04a.33.33 0 0 1 .15.14.15.15 0 0 1 .02.06q.16.23.28.45l.02.02a5.51 5.51 0 0 0 .39.39 1.66 1.66 0 0 1 .23.3l.02.01a1.7 1.7 0 0 1 .16.18.48.48 0 0 1 .08.27l.04.02v.18a.03.03 0 0 1-.04.04.29.29 0 0 1-.08.13v.04a2.76 2.76 0 0 1 .96.35 5.4 5.4 0 0 1 1.45 1.14"/><path class="cls-14" d="M43.33 16.33a.03.03 0 0 1 .04.04 4.83 4.83 0 0 1 1.84 2.35 3.35 3.35 0 0 1 .18.59 12.66 12.66 0 0 1 5.2.82M51.26 25.9v-.17l-.02-.02a4.71 4.71 0 0 0-.52-.94 4.45 4.45 0 0 0-.77-.8l-.04-.02-.2-.7a6.93 6.93 0 0 0-1.15-.22 9.53 9.53 0 0 1-1.88 1.12 4.63 4.63 0 0 0-1.84 1.52 4.05 4.05 0 0 0-.86 2.35 10.87 10.87 0 0 1-.43 2.65q-.41 1.29-.92 2.62a2.1 2.1 0 0 1-.43.76 4.55 4.55 0 0 0 3.13 1.83 6.05 6.05 0 0 0 3.76-1.3 3.33 3.33 0 0 1-.18-1.4l-.49.11c-.92.01-2.49-1.24-3.12-1.83"/><path class="cls-14" d="M48.91 33.17l.53-.29.04-.04a3.54 3.54 0 0 0 1.24-1.88 12.66 12.66 0 0 0 .43-2.54q.1-1.22.11-2.51M53.71 25.56a10.59 10.59 0 0 0-1.74-1.35 7.92 7.92 0 0 0-2.25-.96M56.18 36.05l-.04-.04h-.06a.46.46 0 0 1-.18-.06l-.01-.02a.41.41 0 0 1-.22-.05l-.02-.04a.87.87 0 0 1-.22-.08.2.2 0 0 1-.07-.04.86.86 0 0 0-.3-.12l-.04-.02h-.37a.15.15 0 0 1-.06.02h-.21a4.9 4.9 0 0 1-.65.04.21.21 0 0 0-.12-.04 2.19 2.19 0 0 1-.29.18 2.06 2.06 0 0 1-.18.12l-.23.11-.55-.11a5.72 5.72 0 0 0-.7.03l-.34.02a2.37 2.37 0 0 1-.55.6.22.22 0 0 1-.23.05 2.85 2.85 0 0 0-.04.47l-.25.63a1.12 1.12 0 0 0-.18.17.73.73 0 0 1-.74.2l-.24-.47.1.53a3.1 3.1 0 0 1-1.53.68l-.23-.1-.28-.4a.84.84 0 0 1-.55.86l-.58.11a6.2 6.2 0 0 0-.69-.04q-.08-.17-.14-.35a5.1 5.1 0 0 1-.1-.9l-.05.84q-.59.77-1.78.16a12.3 12.3 0 0 0-.93 7.3 70.31 70.31 0 0 1 .3 9.44h3.33v.76a24.83 24.83 0 0 0 2.9-.27 16.85 16.85 0 0 0 3.85-1.02v-.04M42.2 34.05a3.29 3.29 0 0 1-.57.38q-.3.17-.55.35.84 1.64 3.6 2.1l.42.01a5.96 5.96 0 0 0 4.5-1.37 3.02 3.02 0 0 1-.51-.94M51.32 35.95l-1.23-.02a1.14 1.14 0 0 1-.41-.29.3.3 0 0 1-.08-.12M41.55 36.64l-.5.55-.12.57.05.29q.24.14.47.3a.99.99 0 0 0 1.12.13l.65-1.02-.38 1.3.36.19q.02 0 .06.04M47.15 38.3l-.12-.49"/><path class="cls-15" d="M43.51 43.7a.7.7 0 0 1-.18-.48.86.86 0 0 1 .18-.53.7.7 0 0 1 .5-.22.58.58 0 0 1 .48.22.8.8 0 0 1 .2.53.66.66 0 0 1-.2.49.56.56 0 0 1-.47.23.67.67 0 0 1-.51-.23zM44.1 47.45a.61.61 0 0 1-.5-.24.78.78 0 0 1-.17-.5.86.86 0 0 1 .18-.53.66.66 0 0 1 .49-.2.6.6 0 0 1 .47.2.76.76 0 0 1 .21.52.7.7 0 0 1-.21.51.56.56 0 0 1-.47.24zM43.6 50a.66.66 0 0 1 .5-.2.6.6 0 0 1 .47.2.76.76 0 0 1 .21.52.7.7 0 0 1-.21.51.56.56 0 0 1-.47.24.61.61 0 0 1-.5-.24.78.78 0 0 1-.17-.5.86.86 0 0 1 .18-.54z"/><path class="cls-14" d="M55.6 47.3v-.09q-.81-7.14 1.54-10.8M41.4 20.02a.42.42 0 0 1-.08-.53.15.15 0 0 0 .02-.06l-.61-.04q-.1-.14.06-.43l-.8.02-.06-.3a1.58 1.58 0 0 0-.79-.07.24.24 0 0 1-.06-.28q-.03-.08-.1-.08a.94.94 0 0 0-.72-.04q.18-.35-.1-.43l-.6.08h-.04a.2.2 0 0 1 .09-.02q0-.04.03-.04h.03a.5.5 0 0 1 .12-.12q.08-.13-.04-.2a4.23 4.23 0 0 0-.78-.34M37.6 17.84a.07.07 0 0 0-.04.02M38.9 21.5a11.89 11.89 0 0 1 1.5-.82 12.5 12.5 0 0 1 4.99-1.37M23.1 31.59a5 5 0 0 0-1.17 1.17 6.63 6.63 0 0 0-1 1.88v.02l-.04.04-.11.35-.14.43-.1.51-.12.9v.36a1.32 1.32 0 0 0 .04.44v.26a7.06 7.06 0 0 0 .02 1.18 5.42 5.42 0 0 1 .16.92v-.1a6.12 6.12 0 0 1 .88-2.84l.02-.04a1.7 1.7 0 0 1 .16-.18l1.94-2"/><path class="cls-14" d="M20.78 35.05a21.28 21.28 0 0 0 .29-3.8q-.06-1.7-.14-2.87a7.17 7.17 0 0 1-.04-1.92M20.93 34.64a3.9 3.9 0 0 1 .06-.4 3.46 3.46 0 0 1 .2-1.07q.4-1.23.68-2.44a12.8 12.8 0 0 0 .32-2.67M20.64 35.48q0-.23.02-.43a4.56 4.56 0 0 0-.67-1.68q-.11-.24-.23-.43l-.58-1.22M20.93 34.66h-.04v.04"/><path class="cls-14" d="M19.72 30.43l.64 2.63a8.3 8.3 0 0 1 .3 2M18.3 34.2l.05.03.84 1.14.04.04a6.83 6.83 0 0 1 1.23 2.28M20.48 39.13a5.12 5.12 0 0 0-1.23-2.24.02.02 0 0 1-.02-.02L18 35.82l-.22-.16M20.64 40.05a4.53 4.53 0 0 1-.41 1.58 1.29 1.29 0 0 0-.12.2 4 4 0 0 1 .08.59q0 .39.04.8a30.63 30.63 0 0 0 1.53-3M18.6 33.23a8.1 8.1 0 0 1 1.59 2.08l.35.68M20.63 38.43a17 17 0 0 1 1.65-4.27"/><path class="cls-14" d="M18.17 37.25l1.14 1.05.47.7.04.05.07.2.04.03.08.24.12.43a5.53 5.53 0 0 1 .1 1.68M20.11 41.83v-.02a4.28 4.28 0 0 0-1.17-2.17 12.77 12.77 0 0 0-1.6-1.28M23.16 40.52a9.41 9.41 0 0 0-1.1 1.17 7.15 7.15 0 0 0-1.01 1.82l-.4 1.2-.07 2.2 1.02-1.67.04-.02a7.52 7.52 0 0 0 .43-.69 5.83 5.83 0 0 0 1-2.02M18.3 40.58a6.59 6.59 0 0 1 .75.78v.04l.02.02.77 1.33.35 1.06a4.44 4.44 0 0 0 .04-.6M18.13 43.83a8.62 8.62 0 0 1 1.04 1.44l.31.53.22.36a2.38 2.38 0 0 0 .2.35v.02a1.8 1.8 0 0 1 .1.23l.01.04.53 1.31-.02-.25a5.86 5.86 0 0 0-.04-.69 10.4 10.4 0 0 0-.31-1.78l-.06-.27a.21.21 0 0 1-.04-.12 7.08 7.08 0 0 0-.47-1.2.25.25 0 0 0-.06-.1l-.47-.52a2.34 2.34 0 0 0-.25-.26.81.81 0 0 1-.16-.11.7.7 0 0 1-.23-.22 3.28 3.28 0 0 1 .39.33M18.4 48.63a13.92 13.92 0 0 1 2.03 4.21c.02-.31.16-1.9.15-2.2q-.06-.43-.16-.84-.11-.4-.25-.77l-.92-1.39-.02-.02-.22-.27-.49-.47"/><path class="cls-14" d="M20.52 47.86l.06-.94a1.47 1.47 0 0 0-.1.25M20.11 45.12q.06-.67.08-1.31M20.42 49.8a3.7 3.7 0 0 1 .04-.77.73.73 0 0 1 .02-.17l.1-.35-.04-.4"/><path class="cls-14" d="M22.4 45.82a9.64 9.64 0 0 0-1.53 2.12q-.15.27-.29.57M23.6 48.29l-.77.57a6.26 6.26 0 0 0-1.7 2.07l-.53 1.69-.06.31a1.1 1.1 0 0 0-.02.22v.02q0 1.91.3 2.15a6.06 6.06 0 0 1 3.23-3.33M20.58 50.64a13.08 13.08 0 0 1 1.31-2.43 4.43 4.43 0 0 1 1.24-1.36M22.34 51.26c-.55.47-1.26 2.96-1.58 3.82M41.08 34.78q-.8.45-1.58.94l-.45.27q.11.43.35.43l-.06.12a1.1 1.1 0 0 0 .88 1.06l.57-.08.25-.33M39.05 36l-.14.07a.78.78 0 0 0-.12.1 4.68 4.68 0 0 0-.63.31l-.78.45-.04.02h-.06a1.29 1.29 0 0 1-.2.12.03.03 0 0 1-.03.04v.02M37.32 52.8a26.3 26.3 0 0 1-1.29-4.82v-.06a3.3 3.3 0 0 1-.06-.35q-.12-.65-.18-1.34-.1-.78-.15-1.58-.06-1.3 0-2.49.04-.57.12-1.15M42.63 55.73h-1.06v.37l-.06 3.04.06.88h4.39v-3.53"/><path class="cls-14" d="M41.57 56.1l-.82-.17a7.77 7.77 0 0 1-2.41-1.14 1.2 1.2 0 0 1-.14-.21M38.22 58.32a4.99 4.99 0 0 0 1.77.72 8.12 8.12 0 0 0 1.52.1"/><path class="cls-15" d="M42.79 56.91h1.84v2h-1.84z"/><path class="cls-14" d="M43.37 60.02a22.83 22.83 0 0 1-1.92 5.85.43.43 0 0 0-.07.18 15.95 15.95 0 0 1-3.76.35 2.74 2.74 0 0 0-.45-.04 4.68 4.68 0 0 1-1.7-.53M20.82 55.32a6.39 6.39 0 0 0-.36 1.23 15.54 15.54 0 0 1-.35 1.55.22.22 0 0 0 .02.1l1.06-.1M20.46 56.55a6.45 6.45 0 0 0-.11-2.15M25.4 62.92a2.05 2.05 0 0 0 .13-.79v-.33a3.35 3.35 0 0 0-.35-1.43q-.31-.47-.64-.88a5.7 5.7 0 0 0-1.36-1.33l-.95-.08a1.21 1.21 0 0 0-.3-.04M17.47 57.38l2.13 1.42.41-.6h.12M19.07 59.55a.06.06 0 0 1 .04-.06l.37-.53.12-.15M18.37 62.02a1.29 1.29 0 0 0 .8.54 3.65 3.65 0 0 0 1.02.1 2.61 2.61 0 0 0 .68-.21 1.54 1.54 0 0 0 .42-.65.4.4 0 0 0-.18-.49 1.28 1.28 0 0 0-.7-.17q-.46-.04-.53-.28l-.12-.23a.32.32 0 0 0-.1-.02h-.18q-.66-.04-.58-.6v-.09"/><path class="cls-14" d="M23.28 61.33a.5.5 0 0 1-.15-.02.52.52 0 0 1-.14-.1l-.22-.11a.3.3 0 0 0-.11-.08 1.11 1.11 0 0 1-.18-.18.25.25 0 0 0-.12-.12.68.68 0 0 1-.17-.21 2.06 2.06 0 0 1-.12-.18.5.5 0 0 0-.2-.12l-.04-.01-1.17-.1a2.3 2.3 0 0 1-.59.4 1.47 1.47 0 0 0-.25.1.08.08 0 0 0-.06.03M22.8 54.62c-1.31.99-2.22 1.84-2.5 3.29M18.82 65.52a.9.9 0 0 1 .17.02 2.09 2.09 0 0 0 1.06-.08 1.97 1.97 0 0 0 .94-.45l.3-.31a2.53 2.53 0 0 0-.06-.47 1.08 1.08 0 0 0-.1-.22.95.95 0 0 0-.14-.11 3.1 3.1 0 0 0-.47-.12 5.62 5.62 0 0 1-.76.35 3.47 3.47 0 0 1-1-.02l-.3-.12M20.87 62.45l.18.1.06.01v.02a1 1 0 0 0 .82-.15q.5-.3.3.12"/><path class="cls-14" d="M20.52 63.78l.47-.28a.29.29 0 0 1 .14-.07.74.74 0 0 0 .04-.24.98.98 0 0 0-.06-.6.23.23 0 0 0-.06-.04M21 65.01a1.2 1.2 0 0 1 .13.22l.33-.12M21.13 65.23l.04.37a2.16 2.16 0 0 1-1.51.88M20.11 58.1a3.92 3.92 0 0 0-2.17-1.6M37.38 112.99a5.12 5.12 0 0 0 4.05.29l.43-.12a6.29 6.29 0 0 1-.05-1.94 21.43 21.43 0 0 1 1.05-5.03q.83-2.4 1.57-4.72a9.82 9.82 0 0 0 .24-4.85 12.2 12.2 0 0 1 .07-5.23 21.41 21.41 0 0 0 .6-4.84 4.02 4.02 0 0 1-3.08 1.25h-.04q-1.2.1-2.49.28l-.4.02a4.75 4.75 0 0 1-1.87-.02l-.7-.3"/><path class="cls-15" d="M44.25 53.34a.58.58 0 0 1 .47.22.8.8 0 0 1 .2.53.66.66 0 0 1-.2.49.56.56 0 0 1-.47.23.67.67 0 0 1-.5-.23.7.7 0 0 1-.18-.5.86.86 0 0 1 .17-.52.7.7 0 0 1 .51-.22z"/><path class="cls-14" d="M54.18 58.2a12.03 12.03 0 0 1-4.97 1.4 17.36 17.36 0 0 1-3.25-.15M43.43 60.02a16.95 16.95 0 0 0 1.59 6.1q1.96-.07 3.72-.19.74-.1 1.45-.15 1.25-.14 2.4-.32a30.94 30.94 0 0 0 3.76-.86M45.13 71.53a27.79 27.79 0 0 0 .44 5.29 45.63 45.63 0 0 1 .56 4.88 11.97 11.97 0 0 1-.64 4.68l.11.35.12.31q.84-.08 1.73-.12 1.17-.02 2.35.06l4.97.51a1.29 1.29 0 0 0 .2-.12M45.49 86.38a.66.66 0 0 0-.16.17M48.56 23.03q-3.7-.41-8.4 2.45M60.47 47.98l.17 7.4M65.05 56.34l-.22-10.63M17.74 52.78c1.79 1.54 2.05 3.17 2.37 5.13"/><path class="cls-14" d="M41.87 113.16v.08a4.06 4.06 0 0 1 0 1.68l-.14 1a3.01 3.01 0 0 1-.33.96 1.95 1.95 0 0 1-.3.06h5.68a2.45 2.45 0 0 1-.33-.37q-.47-.63.17-2.86l.47-.37.18-.18q-.02-1.1.1-2.86a19.96 19.96 0 0 0-.41-4.75 16.86 16.86 0 0 1-.16-5.49 14.97 14.97 0 0 0-.06-4.8q-.18-.82-.3-1.6l-.35-2.4q-.23-1.95-.49-4.53"/><path class="cls-14" d="M53.14 116.94a2.72 2.72 0 0 1 .18.4 13.6 13.6 0 0 0 1.39 2.3 4.46 4.46 0 0 1 .7 1.24 1.16 1.16 0 0 1-1 .82 11.85 11.85 0 0 1-1.52.1 3.34 3.34 0 0 1-2.53-1.65 12.34 12.34 0 0 0-2.03-2.21 5.17 5.17 0 0 0-1.06-.65.73.73 0 0 0-.18-.02 2.76 2.76 0 0 1-.31-.33M50.91 113.42q-.02 0-.02.04a2.62 2.62 0 0 1-2.03.66 1.91 1.91 0 0 1-1.6-.78v-.18M38.1 116.94l-.35-.37q-.7.2-1.37.37h1.73l.11.16a8.18 8.18 0 0 0 2.88-.16M28.41 116.94a12.82 12.82 0 0 0 4.11.69 28.7 28.7 0 0 0 3.86-.69M62.6 46.94l1.41 58.72"/><path d="M20.04 60.46a5.86 5.86 0 0 1 .58-.36c.03 0 .43-.04.43.09 0 .62.02 1.23.02 1.23s-.8-.14-.93-.3a1.36 1.36 0 0 1-.1-.66z" stroke-width=".4" stroke="#000" stroke-linecap="round" stroke-linejoin="round" fill="#325723"/><path d="M60.1 34.84s-.34-1.14-1.13-.75-.31 1.8-.31 2.76a3.92 3.92 0 0 0 1.97 3.6c.44-.09.14-5-.52-5.61z" stroke-width=".4" stroke="#000" stroke-linecap="round" stroke-linejoin="round" fill="#f3bc84"/><path class="cls-18" d="M65.03 42.24c-.06 3.9-1.16 3.71-2.42 3.7s-2.23.14-2.17-3.76a13.4 13.4 0 0 1 2.39-7.03 13.4 13.4 0 0 1 2.2 7.1z"/><path class="cls-14" d="M64.03 37.48a6.14 6.14 0 0 1-1.38 1.65 17.77 17.77 0 0 0-2.14 2.05M64.4 38.78a5.16 5.16 0 0 1-1.6 1.99 9.55 9.55 0 0 0-2.3 2.36M64.84 40.32a6.36 6.36 0 0 1-1.64 1.86 10.86 10.86 0 0 0-2.62 2.74M45.04 26.55a2.75 2.75 0 0 1 3.22-.48"/><path class="cls-19" d="M51.03 27.68a1.6 1.6 0 0 1-1.47-.07M45.69 27.13s1.12-1.19 2.24-.32a1.36 1.36 0 0 1 .16.88M49.52 27.01a2.85 2.85 0 0 1 1.68-.3"/><path d="M46.52 26.75s-.08.69.28.78.64-.04.68-.17a1.1 1.1 0 0 0 .06-.45c-.02-.2-.02-.23-.22-.3l-.19-.07zM49.96 26.9s-.19.4.06.65a.53.53 0 0 0 .7.05.98.98 0 0 0 .14-.7.37.37 0 0 0-.16-.2z"/><circle class="cls-1" cx="47.17" cy="26.89" r=".16" transform="rotate(-6.82 47.17 26.89)"/><circle class="cls-1" cx="50.5" cy="27.03" r=".17" transform="rotate(-6.82 50.5 27.03)"/><path class="cls-19" d="M49.26 25.9a27.22 27.22 0 0 0 .5 2.8c.18.62.33.52.16.92-.12.3-.96.23-1.46.1s-.36-.52-.36-.52"/><path class="cls-14" d="M51.17 25.86a5.45 5.45 0 0 0-1.86.01"/><path class="cls-19" d="M49.89 30.9l-.8-.1c-.23-.03-.8.27-1.03.26a.93.93 0 0 1-.5-.25M48.08 31.15a2.2 2.2 0 0 0 1.01.2M49.2 32.23a.78.78 0 0 0-.89-.13"/><path class="cls-18" d="M59.97 48.02a2.91 2.91 0 0 1-1.22-.26 2.84 2.84 0 0 1-1.58-2 1.58 1.58 0 0 1 3-.93 3.53 3.53 0 0 0 .84-.39l.57-.33c2.58-1.53 4.44-2.64 6.02-2.13a2.35 2.35 0 0 1 1.45 1.3 1.58 1.58 0 0 1-2.54 1.79 22.51 22.51 0 0 0-3.32 1.75l-.57.34a5.33 5.33 0 0 1-2.65.86z"/><path class="cls-14" d="M58.73 45.47s.36 1.94 3.09.33 5.2-3.2 5.79-1.87"/><circle class="cls-18" cx="62.63" cy="31.06" r="1.56" transform="rotate(-89.21 62.63 31.06)"/><path class="cls-12" d="M62.64 30.03a1.03 1.03 0 0 0-.62.2 1.03 1.03 0 0 1 .48 1.85 1.02 1.02 0 0 0 .11.02 1.04 1.04 0 1 0 .03-2.07z"/><path class="cls-5" d="M66.16 36.64c0 1.27-.38 3.87-1.09 3.16a2.67 2.67 0 0 0-1.98-1.41 4.99 4.99 0 0 0-2.35.76 3.6 3.6 0 0 1-.63-2.51 5.13 5.13 0 0 1 .48-2.99 3.4 3.4 0 0 1 2.54-1.14 3.08 3.08 0 0 1 2.42 1.1 5.26 5.26 0 0 1 .61 3.03z"/><path class="cls-14" d="M60.15 35.14a2.32 2.32 0 0 1 2.15-2.54c3.12-.51 3.64 1.8 3.64 1.8s.75 4.12-.92 5.66a2.07 2.07 0 0 0-1.97-1.67 2.62 2.62 0 0 0-2.42 1.14c-.92-3.25 3.42-2.32 3.42-2.32M63.97 34.22s-4.7-.83-3.82 2.55"/><path class="cls-14" d="M64.1 35.8a3.1 3.1 0 0 0-3.9 1.14 1.63 1.63 0 0 0 .21 1.36"/></g></g></svg>