<svg xmlns="http://www.w3.org/2000/svg" viewBox="0 0 87 140">
  <rect width="87" height="140" rx="6" ry="6" fill="#fff"/>
  <path fill="#d09b07" d="M13.7 116.5h59.7v7.92H13.7z"/>
  <path d="M30.9 114.2l-2.6 2-.9.5-2.1 1.3h-.2c-1.7.2-2.4.6-2.4 1.1s.7 1 1.9 1l-.2-.8a14.6 14.6 0 0 1 6.8-2.4h.2v-1.5a11.1 11.1 0 0 0 2.7-1.2 1.8 1.8 0 0 0 .8-.5l-2.2-.2-1.5.4-.2.2m16.3-.7l-1.1.5.5.2a5.7 5.7 0 0 1 2.7 2.8l2.7 3.5v.2a2.1 2.1 0 0 1-1.9.5l.8.3a4.9 4.9 0 0 0 1.6.5c.6 0 1-.2 1.1-.8a1.7 1.7 0 0 1-.2-.5 3.5 3.5 0 0 1-.5-.8 9 9 0 0 1-1-1.2l-.8-1a1.1 1.1 0 0 1-.2-.5.7.7 0 0 1-.3-.5 9.8 9.8 0 0 0-3.3-3.2m-3.5 1.2l.3-.5a2.4 2.4 0 0 1-1.1-.6 2.9 2.9 0 0 0-.5 2.9v.2c0 .1.1.4.1.5s.1.3.1.4l.5.5h.4c.1.1.4.1.6.3h.1l-.5-2a3.1 3.1 0 0 1 0-1.7z" fill="#ccc"/>
  <path d="M30.9 99.9a38 38 0 0 0 .6 4l1.8 3.9a4.3 4.3 0 0 0-.2-4.5c-.7-1.2-1.5-2.2-2.2-3.4" fill="#d09b07"/>
  <path d="M43.2 100l-.6.9.7 2.4h.3c0-.1 0-.1.1-.1a3 3 0 0 0 .2-1 13.7 13.7 0 0 0-.2-1.9l-.5-.2" fill="#d2b51e"/>
  <path d="M37.9 94.3a6.7 6.7 0 0 0-3-.8 32.7 32.7 0 0 1 .6 14.6c0 .2-.1.3-.1.6a24.9 24.9 0 0 0-.4 4.7v.4a2.3 2.3 0 0 0 1.4-.4 36.3 36.3 0 0 1 .6-4.6c.3-1.5.6-3 1.1-5a19 19 0 0 0-.2-9.5m10.7-1.1a8.4 8.4 0 0 0-2.4-.6 55.3 55.3 0 0 1-1.3 14.1 26 26 0 0 0-.3 2.6 24.5 24.5 0 0 0 .4 3.8 4.1 4.1 0 0 0 .3.8l.8-.2a2.2 2.2 0 0 0 1.1-.5 15 15 0 0 1-.1-3.7 16.7 16.7 0 0 1 .9-4.2v-.2c1.2-4.4 1.5-8.4.6-12m-18-54.8l-.4.2a11 11 0 0 0-1.1 3.5c-.2 1.2-.4 2.5-.5 3.8v.6a20.9 20.9 0 0 1-.4 4.3 8.9 8.9 0 0 1-.7 2.8c.1.4.2.5.5.6a1 1 0 0 1 .6 1H28l-.6.3c-.4.1-.8.2-.9.7a5.7 5.7 0 0 0-.1 1.3l.7 1.1a1.4 1.4 0 0 1 .1 1.5.8.8 0 0 1-.5.5.5.5 0 0 0-.3.5 3.4 3.4 0 0 0 .1 2.6 1.5 1.5 0 0 1 .1.6.8.8 0 0 1-.1.4c-.3.3-.4.5-.5.5a7.3 7.3 0 0 1 3 2.2l1.3-4.8c-.1 0-.1 0-.2-.2V60l.5-.2h.1l-.2-1.9a38.3 38.3 0 0 1 .8-18 3.4 3.4 0 0 1-.4-1.8h-.2m20.6-.5l-.8.8c-.1.1-.1.2-.2.5a2.1 2.1 0 0 0 0 1.8 21.2 21.2 0 0 1 .6 4.4 1.7 1.7 0 0 0 .1.7 18.2 18.2 0 0 1 .7 2.5 10.1 10.1 0 0 0 .7 1.5c.2.5.5 1.1.7 1.7a2.7 2.7 0 0 0 1.4.5h1a2.8 2.8 0 0 1 1.7 1.1v.2a3.8 3.8 0 0 1-1.5 0 1.2 1.2 0 0 0-1.1.5v1.1c0 .3-.2.6-.2 1s-.6 1.7-.8 2.6-.3 1-.4 1.6-.4 1.5-.5 2.2a1.1 1.1 0 0 1-.2.5l1 1.2h.4a16.6 16.6 0 0 0 2.6-2.8 15.2 15.2 0 0 0 2.4-7.6 3.6 3.6 0 0 0-.1-3.2L55.3 42c-1.3-2.5-2.2-4.2-4-4.4z" fill="#d09b07"/>
  <path d="M26.3 99.4L23 105a7.4 7.4 0 0 0 2.2 3.9l5.6 5.1h.1l1.4-.5h.1v-.5a2.8 2.8 0 0 1-2.1-1.7h-.5l-.7-3.1-.2-3.1v-.4l-.6 3.2v.6l-.9-.7a5.1 5.1 0 0 1-1.5-5.3 10.5 10.5 0 0 0 .5-3m20.5 13.4v.3a8.7 8.7 0 0 1 3.3 3.3 1.1 1.1 0 0 1 .2.5c.2.2.4.3.5.6a5 5 0 0 1 3.2.5 17.3 17.3 0 0 0 3.7 1.6l1.1.2a8.6 8.6 0 0 0 3.9-.1l1.5-.3a11.6 11.6 0 0 1-3.9-3 16 16 0 0 1-4.9-.5 2.9 2.9 0 0 1-1.5-.9l-1.6-5.4-.5-4.5c-.1.4-.4.7-.5 1.1a6.2 6.2 0 0 0-1.1 3.2 34.9 34.9 0 0 1 1.2 4.3c0 .1-.1 0-.1.2l-4.5-.8m-4 .2v-.4l-.7-.4-5.7.5v.2h.1l.8.7a11.1 11.1 0 0 1 .2 1.9v.6c0 .2-.1.5-.1.7a8.4 8.4 0 0 0 2.7.2 8.6 8.6 0 0 0 2.4-.4c-.2-.1-.2-.4-.2-.5v-.3a3.3 3.3 0 0 1 .5-2.8M28 75.8a18.5 18.5 0 0 0 .4-2.3c.2-1.6.6-3.3.9-5.1l-.3-.5-.6.6-2.4 2.9-.4.5h-.2v2.7l-2.5 2.6a46.8 46.8 0 0 0 .4 6.6 34.4 34.4 0 0 0 1.2 6.4c.2 1 .3 1.5-.5 2.1l-.5.3a3.8 3.8 0 0 0-1.1.8 8.7 8.7 0 0 0 2.3-.1l.6-.2.5-.8a.7.7 0 0 0 .3-.6 7.6 7.6 0 0 0-.1-1.5l-.2-.2a9.3 9.3 0 0 0-.5-2.9c.3 0 .1-.3.1-.6a6 6 0 0 0-.2-1.2 5.7 5.7 0 0 1-.4-1.4 3 3 0 0 1 .4-2.8l.9-1.3 1-1.6z" fill="#980805"/>
  <path d="M37.4 114.2l-.8-.8h-.2a1.8 1.8 0 0 1-1.3.4h-.5l-.8.5a9 9 0 0 1-2.7 1.1v1.5h-.3a15.7 15.7 0 0 0-6.7 2.5v.8h.6a19.8 19.8 0 0 0 8.4-2.3 6 6 0 0 0 3.8 0c.1-.2.1-.5.2-.7s.1-.5.1-.8v-.6a2.2 2.2 0 0 0 0-1.6m9.1-.3c-.2.2-.6.2-.9.3a2.8 2.8 0 0 1-1.3-.1c-.1.1-.1.3-.2.5a2.1 2.1 0 0 0 0 1.9l.5 2a1.3 1.3 0 0 0 .7-.4c.3-.1.6.1.7-.1a3.8 3.8 0 0 0 1.4 1.4l2 1.1a.9.9 0 0 0 .5.3l.6.3a2.4 2.4 0 0 0 2-.5h.1a46.8 46.8 0 0 0-2.9-3.7 5.3 5.3 0 0 0-2.8-2.7z" fill="#8c8a95"/>
  <path d="M35.5 108.4c0-.2.2-.4.2-.6a30.9 30.9 0 0 0-.5-14.5 7.5 7.5 0 0 0-4.4 1.5c0 1.7.1 3 .1 4.4v1c.7 1 1.3 2 2 2.9a3.5 3.5 0 0 1 .1 3.8l-1.6-3.3c.2.8.2 1.5.4 2.3l.6 7v.5h-.2a10.6 10.6 0 0 0 2.4.2h.5v-.5a25 25 0 0 1 .2-4.7m7-15c-1 4-.9 7.5.1 10.1a41.2 41.2 0 0 1 .8 5.7v.2L43 113v.3l1.1.7h1.3a4.7 4.7 0 0 0-.3-.9 23.1 23.1 0 0 1-.3-3.7 21.1 21.1 0 0 1 .2-2.6 66.4 66.4 0 0 0 1.4-14.2 9.9 9.9 0 0 0-4.1.7M28.8 46.4v-.7c.1-1.2.3-2.6.5-3.8a10.7 10.7 0 0 1 1.2-3.7 7 7 0 0 0-3 4.1 67.2 67.2 0 0 0-1.6 13.4 18.7 18.7 0 0 0-2.3 9l2.4.5c.2 0 .3-.2.5-.5s.2-.2.2-.4-.2-.5-.2-.6a5.7 5.7 0 0 1-.1-2.6l.4-.5a.8.8 0 0 0 .5-.5 2 2 0 0 0-.1-1.5l-.8-1.1a2.4 2.4 0 0 1 .1-1.2 1.4 1.4 0 0 1 .9-.8l.6-.2h.6c0-.5-.1-.9-.6-1s-.5-.4-.5-.6a18.2 18.2 0 0 0 .8-2.9 22.7 22.7 0 0 0 .5-4.3m22.8-8.9c-.4 0-.8-.4-1.1-.3-2 1.3-2.9 3.5-2.4 6.3a30.4 30.4 0 0 0 4.5 9 15.6 15.6 0 0 0-2.9 6.5c-.1.5-.2 1.5-.3 2l3.3 2c.1-.2.1-.4.2-.5a18.9 18.9 0 0 0 .5-2.3 9.4 9.4 0 0 0 .4-1.6 26.7 26.7 0 0 0 .9-2.6c.1-.4.1-.1.1-.4v-1.8a1 1 0 0 1 .9-.6 2.6 2.6 0 0 0 1.5.1l.4-.4a2.6 2.6 0 0 0-1.9-1h-1.1l-1.1-.4a7.6 7.6 0 0 0-.6-1.6 11.9 11.9 0 0 1-.8-1.6 18 18 0 0 0-.6-2.2c.3-.3-.3-.8-.3-1.1a14.9 14.9 0 0 0-.6-4.3 2.5 2.5 0 0 1-.1-.8c0-.4.1-.6.1-.9a1.7 1.7 0 0 1 .3-.6c.3-.3.4-.6.7-.8M43.4 34L42 32.6s0-.1.2-.1a15.5 15.5 0 0 1-4.6 3.5l-1.9-1.7-.2.9-4.5 2.7a4.4 4.4 0 0 0 .4 2.1l.4.3c.5.7 1.2.5 2.5.7a4.7 4.7 0 0 0 1.2.9h-.3a53.4 53.4 0 0 0 .1 18.7h1.4l.8-1 .9.9h.7a63.1 63.1 0 0 1-.5-18.3 9.1 9.1 0 0 0 2.3-.8 3.3 3.3 0 0 0 4.1-1.6c1.4-.1 2.1-1.2 2.5-3.2L45 35.5l-.9-.7-.7-.8M46 18.5l-2.2-2.6-2.1 1.5-1.9-1.9-1.7 2.1-2.1-1.5-1.9 2.3-3.1-1.2 3.2 6.9h.1a29.8 29.8 0 0 1 6.5-.4 30.6 30.6 0 0 1 4.5.6l2.9-6.8z" fill="#febf10"/>
  <path d="M37.9 93.9v.3a21.1 21.1 0 0 1 .3 9.4c-.5 2-1 3.7-1.2 5.1a16.6 16.6 0 0 0-.5 4.4l5.7-.5.7.4.2-3.6a43.5 43.5 0 0 0-.8-5.7c-1-2.6-1-6-.1-10.2a6.3 6.3 0 0 1-2.2-3.8 16.5 16.5 0 0 1-2.1 4.2m14-20.2l.2 7.1c.3 6.3-.9 10.4-3.5 12.4a22.6 22.6 0 0 1-.6 12 17.2 17.2 0 0 0-.8 4.2 9.6 9.6 0 0 0 .1 3.8l4.3 1v-.5a19.2 19.2 0 0 0-.9-4 6.8 6.8 0 0 1 .8-3.1 4.6 4.6 0 0 1 .5-1l.5 4.3 1.3 5.1a3.5 3.5 0 0 0 1.8 1 10.9 10.9 0 0 0 4.7.4 1.8 1.8 0 0 1-.5-.8 36.9 36.9 0 0 0-5.3-9.4c-1.4-2.3-1.8-5.6-1.4-9.9a89.6 89.6 0 0 0 .6-23.1l-.8-.5c-.6.4-.8.8-1 .9m1.1-8.4l-1.8 1.1.2 3 1.8 1.4-.2-5.5M25 86a3.6 3.6 0 0 0 .2 1 16 16 0 0 1 .5 2.9v.2a7.6 7.6 0 0 1 .1 1.5.9.9 0 0 1-.3.7.8.8 0 0 0-.5.5h-.3l-2.4.3a8.5 8.5 0 0 0-2 2.2c-.3.4-.2.7-.3 1.1v.4a.8.8 0 0 0 .4.6c1.6 1.3 2.4 3.5 2.4 6.7v1.1l3.3-5.6c-.1 1-.3 2-.5 3a5.2 5.2 0 0 0 1.5 5.3l.8.8.3-.3.4-2.5.2-1v3.2l.7 3.1h.5a3.2 3.2 0 0 0 2.1 1.8l-.3-7c-.3-.8-.4-1.5-.7-2.4a29 29 0 0 1-.4-3.4l-.2-1c-.1-1.4-.1-2.9-.1-4.4l-.9-.9q-2.6-3.9-2.4-11.7a43.9 43.9 0 0 1 .6-6.9c-.4.7-.7 1.5-1.1 2.1a7.5 7.5 0 0 1-1 1.7 12.5 12.5 0 0 0-.8 1.2 2.8 2.8 0 0 0-.5 2.9l.3 1.4A3 3 0 0 0 25 86z" fill="red"/>
  <path d="M57.3 76.2l-3.8-2.9a94.1 94.1 0 0 1-.6 23.1c-.4 4.3.1 7.6 1.3 9.9a31.7 31.7 0 0 1 5.3 9.4 3.5 3.5 0 0 1 .5.8 11.2 11.2 0 0 0 3.6 2.8 15.3 15.3 0 0 0 3.2 1.3c1.9-.3 2.9-.9 3.1-2.3a3.1 3.1 0 0 0-.3-1.9 5.5 5.5 0 0 0-1.7-2.1 8.8 8.8 0 0 1-3.6-3.1L57 99c-.9-3.8-1.5-5.9-.3-9.1l.2-.9a32.4 32.4 0 0 0 .4-12.8M38.1 63.4v.2l1.3 3.9c.7.9 1.9 1.3 3.8 1L39 63.4h-.9m15.7.6a.9.9 0 0 0 .3.5l-.6.4-.5.3.2 5.5 4.1 3.5a56.2 56.2 0 0 0-1-13 9 9 0 0 1-2.5 2.8M20.9 79.7l-.4-1.1-.5 17.7a1.7 1.7 0 0 1 .8-1.1 6.9 6.9 0 0 1 1.9-2.3l.9-.6h.1c1-.5 1.1-1.3.6-2.3a25.5 25.5 0 0 1-1.2-6.6 46.5 46.5 0 0 1-.1-6.5l-.5.5-.6-.8-.2 2.4c-.2.5-.5.8-.8.7m11.8-16.3h-.3a.8.8 0 0 0-.2.6v.3c0 .1 0 .1-.1.2a1.5 1.5 0 0 0-.1.7v.2c0 .1 0 .4-.1.5a7 7 0 0 0-.3 1.4v.2a.6.6 0 0 1-.1.4 1.8 1.8 0 0 1-.7 1.1c2.4.9 4 .9 4.7 0l1.1-5.6a8.5 8.5 0 0 1-3.9 0m2.5-21.6h-.5l-.8.5a5 5 0 0 0-1.5 1.4 6.1 6.1 0 0 0-.5 1.2v.2c0 .3-.2 2.8-.2 3.1s.5-2.3.6-2.5a13 13 0 0 1 0 7.8v3.9a3.3 3.3 0 0 0 0 1.4c.1.5 0 .9-.3 1h-.1v.6a18.3 18.3 0 0 0 3.7.3 46.8 46.8 0 0 1-.4-19m9.5 3.5a10.8 10.8 0 0 0 .3 7.9 10.6 10.6 0 0 0-.3-7.9z" fill="#0065b7"/>
  <path d="M48.5 69.5a4 4 0 0 1-1.3.7h-1a1.7 1.7 0 0 1-1.2-.6l1.3 1.5c2.2 2.2 4.1 2.6 5.9 1.1l-3.7-2.7m1.6-2.6H50a6.5 6.5 0 0 0-.2 1.1l1.6 1.4-.2-3-1.1.6" fill="#0d3a12"/>
  <path d="M28.3 73c-.2.9-.3 1.8-.4 2.6a45.1 45.1 0 0 0-.6 7c-.1 5.2.6 9 2.4 11.6l.9.9a8.1 8.1 0 0 1 4.4-1.7 6.7 6.7 0 0 1 2.9.8c0-.2.1-.3.1-.4a18.1 18.1 0 0 0 2-4.2 7 7 0 0 0 2.3 3.6 8.9 8.9 0 0 1 4.1-.6 7.1 7.1 0 0 1 2.4.6c2.6-2 3.8-6.1 3.4-12.4l-.2-7.1a4.2 4.2 0 0 1-3.5 0 7.4 7.4 0 0 1-2.8-2.1l-2.5-3.1c-1.9.3-3.1 0-3.7-1l-1.4-3.9v-.2l-.7.9-.6-.7h-.2l-1 5.4c-.6.9-2.2.9-4.7 0l-.9-.4-.7-.5a40.8 40.8 0 0 0-1 4.5" fill="#0d3a12"/>
  <path d="M45.5 64.8l.3.6c.1.8-.1 1.3-.8 1.5l-1.1-.4a1.8 1.8 0 0 0-.3 1.1l1.6 2c.5.4.8.6 1.1.6h1a4 4 0 0 0 1.3-.7 3.6 3.6 0 0 0 1.3-1.7c.1-.3.1-.7.2-1.1l-.2-.2-2.1-2-2.3.4m-25.7 8.6v2.8l.7 2.3.4 1.1c.3.1.6-.2.7-.7v-2.4l.7.8.5-.5 2.4-2.6.2-2.7a3.9 3.9 0 0 0-3.4-1l-2.3 3m22.5-47.2a3.2 3.2 0 0 0-1.5-2.6 28.2 28.2 0 0 0-6.4.3v1.6a10.3 10.3 0 0 0 .1 1.9v3.7l2 2.6 3.1-1.5 2.4.2c0-.2.2-.3.2-.5a20.7 20.7 0 0 0 .1-5.7m-3.6 25.8a1.1 1.1 0 0 1 0-.8 2.1 2.1 0 0 1 1.1 0v.3c0 .2-.1.5-.1.6s-.5.2-.6.1l-.4-.2" fill="#f3bc84"/>
  <path d="M35 27.5v-.8h.9v.9h-.2c-.1.2-.2.2-.3.2l-.4-.2v-.2m1.1 4.4h1.4l-1 1.3-.4-1.3z" fill="#f3bc84"/>
  <path d="M45.5 64.8l2.1-.2.8-2.2a18.5 18.5 0 0 1-5.3 1.1h.2c.1.2.2.3.2.5s-.1.1-.1.3a.9.9 0 0 1 1 0l1.1.7m-3.2-1.6a8.1 8.1 0 0 1-2.2 0l3.3 4.2a1.6 1.6 0 0 1 .4-1.1l-.7-.7-.2-1.1h-.1a.9.9 0 0 1-.5-.3.6.6 0 0 1-.2-.5c0-.2.1-.2.2-.5m-9.3-.1h.2a9.9 9.9 0 0 1-2.6-.6l-1.5 4.9.3.5.5.5.9.3a2.1 2.1 0 0 0 .8-1.1c0-.1 0-.2.2-.3v-.3a6.8 6.8 0 0 0 .2-1.4.4.4 0 0 1 .2-.4v-.3c0-.2 0-.5.1-.6V64c0-.3.2-.4.2-.6s.2-.2.4-.2m-.8-17a5 5 0 0 0-.2 1.7 22.9 22.9 0 0 0 .2 2.5c0 .4.3.9.3 1.4v1.9a15.6 15.6 0 0 0-.1-8.3c0 .2-.2.3-.2.7" fill="#004da1"/>
  <path d="M34.9 42h.4a1.9 1.9 0 0 1-1-1c-1.4 0-2.4-.4-2.8-1.1-1.7 5.3-1.9 11.3-.9 18l.2 2h-.1l1.2.5c0-.2.2-.2.2-.4l.2-.2c.3-.1.1-.6 0-1.1v-5.3a4.3 4.3 0 0 1-.1.5 15.9 15.9 0 0 1-.2-7.8c0-.3-.1-.6-.1-.8V45a5.4 5.4 0 0 0 .5-1.1 5.1 5.1 0 0 1 1.5-1.4c.5-.1.8-.2 1-.5m12.6-5.2c-.5 2-1.3 3-2.6 3.1a3.2 3.2 0 0 1-4.1 1.7 12.7 12.7 0 0 1-2.3.8 63.2 63.2 0 0 0 .5 18.3c4.3.1 7.9-.4 10.6-1.6.7-2.7 1.5-5 2.9-6.6a28.6 28.6 0 0 1-4.5-8.9c-.5-2.9.3-4.8 2.4-6.1l-2.9-.7" fill="#004da1"/>
  <path d="M45 53.1a10.8 10.8 0 0 1-.3-7.9 10.6 10.6 0 0 1 .3 7.9z" fill="#004da1"/>
  <path d="M50.3 65.3c0-.1.2-.4.2-.5v-1.9l2.6 2.1.9-.4a.7.7 0 0 1-.2-.6l-1.3-1.5-1.2-1a15.4 15.4 0 0 1-1.9-.8H49l-.5 1.5-.7 2.2v.2l2.1 2a5.4 5.4 0 0 1 .4-1.5m-26.7-.4c-.1-.1-.1-.3-.1-.1h-.8l-.6 5.8a4.2 4.2 0 0 1 3.4 1h.2l.4-.5-1.5-4.4.9.2 3.1 1.4.6-.6v-.2a8.4 8.4 0 0 0-3-2.2z" fill="#f2f2f2"/>
  <path d="M53 65.2l.5-.3-3-2.1c0 .8-.1 1.4-.1 2.1l-.2.3c-.2.5-.2 1-.4 1.5h.3l1-.6 1.9-.9m-21-4.6a.4.4 0 0 1-.1-.3c-.5-.1-1-.2-1.2-.5l-.5.2v2.4c.1 0 .1.2.2.2a11.5 11.5 0 0 0 2.5.6h1.9s.1 0 .1-.2a.6.6 0 0 0-.1-.8l-.5-.4c-.2-.1-.3-.3-.5-.3h-.3l-.5-.2h-.1a2.6 2.6 0 0 1-.9-.5M25.5 67l-.9-.2 1.5 4.4 2.5-2.8z" fill="#e6e6e6"/>
  <path d="M42.8 71.6V71l-.3-.3h-1.8c-.4 2.6.4 5.7.3 8.4s.4 3.3.4 4.6-.3 3.3.2 5-.3 1.5.4 2.4a2.7 2.7 0 0 0 3 0l.4-.2a3.2 3.2 0 0 0 1-1.3l.8 1.7a.9.9 0 0 0 1-.4 2.4 2.4 0 0 0 .2-.8c.2-.3.2-.7.4-.9a3.1 3.1 0 0 0 .5-1.2c.3.1.4.5.4 1.1v.5a10.7 10.7 0 0 0 1.4-3.9c.1-1.7.3-3.4.3-5.1s-.2-2.9-.3-4.2a1.2 1.2 0 0 0-.8-.3h-.6v.4a7.3 7.3 0 0 0-.5-.9 11.4 11.4 0 0 1-4.8-3.6c-.3-.2-.4-.5-.7-.8a.6.6 0 0 0-.7-.1l-.2.5" fill="#325723"/>
  <path d="M32 47.7v-1.6a14.2 14.2 0 0 0 .3 7.9c0-.1.1-.4.1-.5v-1.8c0-.5-.1-.9-.1-1.4a7.2 7.2 0 0 1-.3-2.6z" fill="#01589f"/>
  <path d="M40.7 23.8a4.5 4.5 0 0 1 1.5 2.6 24.6 24.6 0 0 1 0 5.5c0 .2-.1.3-.1.5h-2.5L36.4 34l-2-2.6v-3.8a10.3 10.3 0 0 1-.1-1.9v-1.6h-.2a22.8 22.8 0 0 0-.6 6.1 10.5 10.5 0 0 0 .6 3.6c.3.2.5.5.8.6h.6l1.9 1.7a16.2 16.2 0 0 0 4.5-3.5h-.1l1.4 1.3q3 .3 3.3-1.5a16.5 16.5 0 0 0-1.5-8 14 14 0 0 0-4.3-.6m-3.2 8h-1.4l.5 1.4.9-1.3m-2-1.7h-.4c-.1.7.3 1.1.8 1.1a7 7 0 0 0 2.9-.1c.5-.4.4-.2.7-.7v-.2h-1.4l-.6-.6H37a1.3 1.3 0 0 1-1.5.4z" fill="#a67c52"/>
  <path d="M46.2 22.2a13.7 13.7 0 0 0-2.8-.5 45.6 45.6 0 0 0-7-.2 11.7 11.7 0 0 0-3.2.4l-2.3-4.6 3.1 1.1 1.9-2.2 2.1 1.5 1.7-2.1 1.9 1.8 2.1-1.4 2.2 2.6 2.4-1-1 2.2-2.1.5-1.6-1.9-1.9 1.4-1.7-1.6-1.8 1.7-1.8-1.3-1.6 1.4-2.9-.9" fill="none" stroke="#000" stroke-linecap="round" stroke-linejoin="round" stroke-width=".4"/>
  <path d="M47.2 19.9l-1 2.3-1 2.2a19.3 19.3 0 0 1 1.5 8.2c-.3 1.2-1.4 1.7-3.4 1.5.3.2.5.6.8.8a2.1 2.1 0 0 0 .8.6 9.6 9.6 0 0 0 2.5 1.2h.1l2.9.7c1.9-.1 3.4 1.4 4.8 4.5l3.5 8.4a3.3 3.3 0 0 1 .1 3.2 15.3 15.3 0 0 1-2.5 7.6 61.7 61.7 0 0 1 1 13l16.4 13.6-.3.4M45.2 24.3a31 31 0 0 0-4.5-.5 4.5 4.5 0 0 1 1.5 2.6 24.6 24.6 0 0 1 0 5.5c0 .2-.1.3-.1.5v.2h-.2l1.4 1.2" fill="none" stroke="#000" stroke-linecap="round" stroke-linejoin="round" stroke-width=".4"/>
  <path d="M47.4 36.7c-.4 1.9-1.2 2.9-2.5 3.1a3.2 3.2 0 0 1-4.1 1.7l-2.3.9a62.5 62.5 0 0 0 .5 18.2c4.3.1 7.9-.4 10.6-1.6.7-2.8 1.5-5 2.9-6.6a29.8 29.8 0 0 1-4.5-8.9c-.5-2.9.3-4.9 2.4-6.1m-7.1.4l1.6 2" fill="none" stroke="#000" stroke-linecap="round" stroke-linejoin="round" stroke-width=".4"/>
  <path d="M45 53.1a10.8 10.8 0 0 1-.3-7.9 10.6 10.6 0 0 1 .3 7.9zm-.3-8.1v.2m8.4 6.6a4.6 4.6 0 0 1-.7.7" fill="none" stroke="#000" stroke-linecap="round" stroke-linejoin="round" stroke-width=".4"/>
  <path fill="red" stroke="#000" stroke-linecap="round" stroke-linejoin="round" stroke-width=".4" d="M39.5 23.3l.7-.8-.7-.8-.8.8.8.8zm-2.4-.8l-.7-.7-.8.7.8.9.7-.9zm5.5.9l.7-.8-.7-.7-.8.7.8.8z"/>
  <path d="M34.3 25.6a10.3 10.3 0 0 0 .1 1.9v3.7l2 2.6 3.1-1.5h2.4" fill="none" stroke="#000" stroke-linecap="round" stroke-linejoin="round" stroke-width=".4"/>
  <path d="M37 29.5c-.3 0-.9-.1-.9-.5s.4-2.8.4-2.8" fill="none" stroke="#000" stroke-linecap="round" stroke-linejoin="round" stroke-width=".3"/>
  <path d="M37 29.6h.5l.6.6h1.4a1.5 1.5 0 0 1-.7.9 9.3 9.3 0 0 1-2.9.1 1.1 1.1 0 0 1-.8-1.1h.4a1.3 1.3 0 0 0 1.5-.5h-.1m-2.5 1.6v.6a5.3 5.3 0 0 0 .6 1.6 1.4 1.4 0 0 0 .3.7l.2.2h.1l1.9 1.7a13.3 13.3 0 0 0 4.6-3.4" fill="none" stroke="#000" stroke-linecap="round" stroke-linejoin="round" stroke-width=".4"/>
  <path d="M34.1 24a22.8 22.8 0 0 0-.6 6.1 10.5 10.5 0 0 0 .6 3.6c.3.2.5.5.8.6h.5" fill="none" stroke="#000" stroke-linecap="round" stroke-linejoin="round" stroke-width=".4"/>
  <path d="M35 34.3h.3" fill="none" stroke="#000" stroke-linecap="round" stroke-linejoin="round" stroke-width=".2"/>
  <path fill="none" stroke="#000" stroke-linecap="round" stroke-linejoin="round" stroke-width=".3" d="M36.1 31.8l.4 1.3 1-1.3h-1.4z"/>
  <path d="M37.6 25.4c1.2-.9 2.4-.9 3.2 0m-6.5.2V24m10.6 11.5a5.9 5.9 0 0 1-2.7 2.9m-1.4.5l.1 2.5m1.3-3a7.9 7.9 0 0 1-4.7.6c-2.6-.4-4-1.3-4.3-2.4l-2.4 1.5a2.9 2.9 0 0 0 .6 1.9 3.3 3.3 0 0 0 2.6 1m4.5 1.4h-1.8a86.6 86.6 0 0 0 .2 17.6" fill="none" stroke="#000" stroke-linecap="round" stroke-linejoin="round" stroke-width=".4"/>
  <path d="M31.3 39.9a41 41 0 0 0-.9 18l.3 1.9h-.2c.8.5 2.4.8 4.9.9a49 49 0 0 1-.1-18.7 2.9 2.9 0 0 1-1.1-1.1m-.9-4.4l1.1-.6 1-.6.1-.9m-.3 4.1l-1 2.5m1.2-5.7v.3c.1.3.9.7 2.1 1" fill="none" stroke="#000" stroke-linecap="round" stroke-linejoin="round" stroke-width=".4"/>
  <path d="M32.3 45.2a16 16 0 0 1 0 8.7 14.4 14.4 0 0 1 0-8.7m4.4-2.7l-1.3-.5m-.8-6a6.4 6.4 0 0 0 3.9 1.5c2.1.1 3.6-.7 5.2-2.7m-.4-.7a6.2 6.2 0 0 1-5.7 2.5M30.8 38a7.4 7.4 0 0 0-3.4 4.4 86.2 86.2 0 0 0-1.6 13.3 19.7 19.7 0 0 0-2.4 9 10.1 10.1 0 0 1 5.5 2.4m8.6-7.6l-1.1 1.3-.9 1.1 1.9 2.4 2.3-2.5-1.1-1.2-1.1-1.1z" fill="none" stroke="#000" stroke-linecap="round" stroke-linejoin="round" stroke-width=".4"/>
  <path d="M30.7 60h-.5v2.5h.2a12.8 12.8 0 0 0 6 .7h.2" fill="none" stroke="#000" stroke-linecap="round" stroke-linejoin="round" stroke-width=".4"/>
  <path d="M30.4 62.7l-1.3 4.8h.1l.2.5.5.5c3 1.3 4.9 1.4 5.6.4l1.1-5.4m6.9 0a.6.6 0 0 1 .1.4v.3a.9.9 0 0 1 1 0l.9.6 2.3-.3.8-2.2a24.8 24.8 0 0 1-5.4 1.2z" fill="none" stroke="#000" stroke-linecap="round" stroke-linejoin="round" stroke-width=".4"/>
  <path d="M43.3 63.3h-.5l-.5.2c-.1.2-.2.3-.2.5a.6.6 0 0 0 .2.5l.5.3h.1c.2 0 .3-.2.4-.3l.3-.2" fill="none" stroke="#000" stroke-linecap="round" stroke-linejoin="round" stroke-width=".4"/>
  <path d="M42.3 63.4l-2.2.2 3.3 4a1.6 1.6 0 0 1 .4-1.1l-.7-.7-.2-1.1m-4.7-1.1H38l1.3 3.9c.7.9 1.9 1.3 3.8 1l-4-4.8a1.2 1.2 0 0 0-.8-.3m1.8.2h-1.3m.3 5.4l-2.7-2.3m-1-6h1.2m-13.1 4h-.8l-.6 5.8a4.2 4.2 0 0 1 3.4 1h.2l3.5-3.9" fill="none" stroke="#000" stroke-linecap="round" stroke-linejoin="round" stroke-width=".4"/>
  <path d="M22.1 70.5l-2.3 3v2.8l.7 2.3.4 1.1c.3.1.6-.2.7-.7v-2.6l.9-1.6" fill="none" stroke="#000" stroke-linecap="round" stroke-linejoin="round" stroke-width=".4"/>
  <path fill="none" stroke="#000" stroke-linecap="round" stroke-linejoin="round" stroke-width=".4" d="M21.7 76.7l.7.7.5-.5 2.4-2.6.2-2.7m-5 7L20 96.3a1.7 1.7 0 0 1 .8-1.1 8.1 8.1 0 0 1 2.7-2.8h.1a1.4 1.4 0 0 0 .7-2.2 45.4 45.4 0 0 1-1.2-6.6c-.2-2.1-.2-4.3-.2-6.5M39.2 69l1.5 14.8a21.3 21.3 0 0 1-.9 5.8 7.2 7.2 0 0 0 2.4 3.6 8.4 8.4 0 0 1 6.4-.1c2.6-2 3.9-6.1 3.5-12.4l-.2-7.1a4.2 4.2 0 0 1-3.5 0 8.6 8.6 0 0 1-2.9-2.1L43 68.6"/>
  <path d="M20 96.3v.4c0 .2.3.4.5.6s2.4 3.4 2.4 6.5.7 3.5 2.3 5.1l5.6 5.1h.1l1.4-.4h.1l-.5-7.2c-.9-2.7-1.2-6.5-1.4-11.2l-.8-.8c-1.8-2.6-2.6-6.5-2.5-11.7a67.6 67.6 0 0 1 1-9.2c.2-1.6.6-3.2 1-5m19.3-6.3l.5-1.5h.4a15.7 15.7 0 0 1 .4-2.3" fill="none" stroke="#000" stroke-linecap="round" stroke-linejoin="round" stroke-width=".4"/>
  <path d="M47.8 64.5l2.2 2.3h.1l1-.6 1.4-.9 1.5-.7-.3-.5a6.1 6.1 0 0 0-4.5-3.5m-3.7 4.3l.3.6c.1.8-.1 1.3-.8 1.5l-1.1-.3m3.3 3.5h-1a1.7 1.7 0 0 1-1.2-.6l1.3 1.5c2.2 2.2 4.1 2.6 5.9 1.1l-3.7-2.7a4 4 0 0 1-1.3.7zm-3.1-2.1l1.4-.1m.9.9l-1.5.6.1.1m2.3-.1l-1.1.7m2.3-.7a4.3 4.3 0 0 0 1.3-1.7 5.8 5.8 0 0 1 .2-1m1.2-.5l.2 3 1.8 1.4-.2-5.4m-3.2 2.6l1.6 1.4m5.1-8.5a14.8 14.8 0 0 1-2.7 3.2m10.1 55.5a13.6 13.6 0 0 0 2.8 1.1c1.9-.3 3-1 3.3-2.4a2.5 2.5 0 0 0-.2-1.7 4.1 4.1 0 0 0-1.7-2.1 9.5 9.5 0 0 1-3.6-3.1l-7.4-12.2a12.8 12.8 0 0 1-.2-9.8 41.3 41.3 0 0 0 .5-13.1l-3.8-2.8a93.4 93.4 0 0 1-.6 23c-.4 4.3.1 7.5 1.3 9.9a32.1 32.1 0 0 1 5.4 9.4 3.5 3.5 0 0 0 .5.8 8.8 8.8 0 0 0 3.7 3.1zM53.6 73.3l-.8-.6-.9 1m21.4 14.5L57.5 76.1M53 72.8l-.8-.6m1-1.5l4.2 3.5m-14-6.6l1.5 1.9" fill="none" stroke="#000" stroke-linecap="round" stroke-linejoin="round" stroke-width=".4"/>
  <path d="M48.6 93.3a22.6 22.6 0 0 1-.6 12v.2a19.2 19.2 0 0 0-.7 8 9.1 9.1 0 0 1 3.1 3.1l.2.4.4.5a5.4 5.4 0 0 1 3.1.6 18.4 18.4 0 0 0 3.5 1.5l1 .2a7.8 7.8 0 0 0 3.7-.1l1.3-.2h.2" fill="none" stroke="#000" stroke-linecap="round" stroke-linejoin="round" stroke-width=".4"/>
  <path d="M42.4 117a7.9 7.9 0 0 1-2.3.4 11.8 11.8 0 0 1-2.7-.2 2.6 2.6 0 0 0-.3.8 7.6 7.6 0 0 1-3.7 0 19.3 19.3 0 0 1-8.3 2.2H25c-1.5-.1-2.3-.5-2.4-1.1s.8-.9 2.4-1.1l.2-.2 2.1-1.2H14v7.9h59.5v-7.9h-3.6" fill="none" stroke="#000" stroke-linecap="round" stroke-linejoin="round" stroke-width=".4"/>
  <path d="M51 117.5l.7 1a3.8 3.8 0 0 1 1 1.2 2.3 2.3 0 0 1 .5.7.9.9 0 0 1 .3.5c-.1.7-.5 1-1.1.9a4.2 4.2 0 0 1-1.7-.5 6.1 6.1 0 0 1-1.4-.7l-.5-.3-1.9-1.1a3.8 3.8 0 0 1-1.4-1.4s-1.6 1.8-3-.8a4.2 4.2 0 0 1 .4-3.6l.3-4a30.1 30.1 0 0 0-.8-5.7v-.4c-1-2.6-.8-5.7 0-9.9" fill="none" stroke="#000" stroke-linecap="round" stroke-linejoin="round" stroke-width=".4"/>
  <path fill="red" d="M33.5 22.4l1.1.4-.5 1.1-.6-1.5z"/>
  <path d="M40 89.7a16.3 16.3 0 0 1-2 4.2v.3a21 21 0 0 1 .4 9.4c-1.3 4.7-1.9 7.8-1.9 9.7h.1l.8.7a7 7 0 0 1 .1 2.5 2.4 2.4 0 0 1-.2.8m.7-23.1a6.7 6.7 0 0 0-7.2.7m.1 19.1l-2.6 2-1 .6m9.2-3.3a6.2 6.2 0 0 1-4.1.1m14.9 0c-1.8 1-3.2 1-4.4 0m-6.4-87.9A2.6 2.6 0 0 0 35 25h-.9m-.6-2.5l.6 1.4m-1-2.1l.4.7v-.2l1 .5-.3 1H34l.2.2h.1a28.2 28.2 0 0 1 6.4-.3" fill="none" stroke="#000" stroke-linecap="round" stroke-linejoin="round" stroke-width=".4"/>
  <path fill="red" d="M45.9 22.4l-1.1.5.5 1.1.6-1.6z"/>
  <path fill="none" stroke="#000" stroke-linecap="round" stroke-linejoin="round" stroke-width=".4" d="M45.3 23.9l-.5-1 1.1-.5v.2"/>
  <path fill="red" stroke="#000" stroke-linecap="round" stroke-linejoin="round" stroke-width=".4" d="M38.2 61.9l-.7-.7-.8.7.8.8.7-.8z"/>
  <path d="M35 26.5c-.2.4-.1.5-.1.8s.1.1.1.2h.8v-.3a.8.8 0 0 0-.2-.6c-.1-.1-.3-.1-.7 0m3.4-.3c-.2.3-.2.7 0 .8l.3.3c.2 0 .4.1.6-.2s.2-.4.2-.6v-.3z"/>
  <path d="M37.9 26.6a1.8 1.8 0 0 1 1.7-.3 2.7 2.7 0 0 1 1.1.5" fill="none" stroke="#000" stroke-linecap="round" stroke-linejoin="round" stroke-width=".3"/>
  <circle cx="39.1" cy="26.5" r=".2" fill="#fff"/>
  <circle cx="35.4" cy="26.7" r=".2" fill="#fff"/>
  <path d="M36 26.5s-.4-.3-1.3.1m0 .9a4.5 4.5 0 0 0 1.2 0" fill="none" stroke="#000" stroke-linecap="round" stroke-linejoin="round" stroke-width=".3"/>
  <path d="M30.4 71.9l-.8-.3-.5-.9c-.2 1.6-.5 3.1-.6 4.7a35.6 35.6 0 0 0 .4 10.8 15.4 15.4 0 0 0 1 3.5l.3.7a7.2 7.2 0 0 0 2.6 2.6 2.5 2.5 0 0 0 1.5.1 4.1 4.1 0 0 0 3.5-3.7c.4-1.8.6-3.5.9-5.4s.4-3.9.5-5.9a22.4 22.4 0 0 0-.4-5.8 1 1 0 0 0-.4-.8 6.9 6.9 0 0 0-1.8-1.6h-.4a3.8 3.8 0 0 1 0 1.5 3.1 3.1 0 0 1-.7 1.4 20.9 20.9 0 0 1-5.1-.9z" fill="#325723"/>
  <circle cx="64.5" cy="23.8" r="8.2" fill="#fff"/>
  <circle cx="64.5" cy="23.8" r="7.2"/>
  <circle cx="64.5" cy="23.8" r="8.2" fill="none" stroke="#000" stroke-miterlimit="10" stroke-width=".6"/>
  <path fill="#fbc219" d="M63.1 20.4l1.4-2.7 1.4 2.7 2.9-1-.9 3 2.7 1.4-2.7 1.4.9 2.9-2.9-1-1.4 2.8-1.4-2.8-2.9 1 .9-2.9-2.7-1.4 2.7-1.4-.9-3 2.9 1z"/>
  <circle cx="64.5" cy="23.8" r="3.6" fill="none" stroke="#000" stroke-miterlimit="10" stroke-width=".3"/>
  <circle cx="64.5" cy="23.8" r="2.9" fill="none" stroke="#000" stroke-miterlimit="10" stroke-width=".4"/>
  <path d="M64.5 21.5a2.2 2.2 0 0 0-2.1 1.5 2.1 2.1 0 0 1 1.2-.3 2.3 2.3 0 0 1 2.1 3 2.4 2.4 0 0 0 1.1-1.9 2.3 2.3 0 0 0-2.3-2.3z" fill="#d09b07"/>
  <circle cx="66.7" cy="18.3" r=".6" fill="#fbc219"/>
  <circle cx="69.9" cy="21.5" r=".6" fill="#fbc219"/>
  <circle cx="69.9" cy="25.9" r=".6" fill="#fbc219"/>
  <circle cx="66.7" cy="29.2" r=".6" fill="#fbc219"/>
  <circle cx="62.1" cy="29.2" r=".6" fill="#fbc219"/>
  <circle cx="59.1" cy="25.9" r=".6" fill="#fbc219"/>
  <circle cx="59.1" cy="21.5" r=".6" fill="#fbc219"/>
  <circle cx="62.1" cy="18.3" r=".6" fill="#fbc219"/>
</svg>
