<svg xmlns="http://www.w3.org/2000/svg" viewBox="0 0 87 140"><defs><style>.cls-1{fill:#fff}.cls-2,.cls-4,.cls-5,.cls-7{fill:none;stroke:#000}.cls-2,.cls-4{stroke-miterlimit:10}.cls-2{stroke-width:.6px}.cls-3{fill:#fbc219}.cls-4,.cls-5{stroke-width:.3px}.cls-5,.cls-7{stroke-linecap:round;stroke-linejoin:round}.cls-7{stroke-width:.4px}.cls-9{fill:#d09b07}</style></defs><g id="Livello_2" data-name="Livello 2"><g id="Livello_1-2" data-name="Livello 1"><rect class="cls-1" width="87" height="140" rx="6" ry="6"/><circle cx="60.771" cy="28.087" r="10.642"/><circle class="cls-2" cx="60.771" cy="28.087" r="11.858"/><path class="cls-3" d="M58.49 22.58l2.281-4.428 2.281 4.428 4.744-1.518-1.517 4.744 4.427 2.281-4.427 2.282 1.517 4.744-4.744-1.518-2.281 4.428-2.281-4.428-4.744 1.518 1.518-4.744-4.428-2.282 4.428-2.281-1.518-4.744 4.744 1.518z"/><circle class="cls-4" cx="60.771" cy="28.087" r="5.899"/><circle class="cls-2" cx="60.771" cy="28.087" r="4.926"/><path class="cls-5" d="M57.462 27.143s.696.902 2.372.129a1.418 1.418 0 0 0-2.372-.13z"/><ellipse cx="58.609" cy="27.104" rx=".503" ry=".529"/><circle class="cls-1" cx="58.545" cy="26.807" r=".155"/><path class="cls-5" d="M57.281 26.524a1.81 1.81 0 0 1 2.244.412M64.056 27.21s-.696.902-2.373.129a1.418 1.418 0 0 1 2.373-.13z"/><ellipse cx="62.908" cy="27.171" rx=".503" ry=".529"/><circle class="cls-1" cx="62.973" cy="26.874" r=".155"/><path class="cls-5" d="M64.236 26.59a1.81 1.81 0 0 0-2.243.413M57.333 25.466s2.192-.051 2.527.026a1.07 1.07 0 0 1 .619.903 11.144 11.144 0 0 1-.052 1.186"/><path class="cls-5" d="M63.857 25.57a6.302 6.302 0 0 0-2.166-.026c-.387.129-.335.31-.387.516a13.482 13.482 0 0 0-.026 2.063M59.783 28.793a2.129 2.129 0 0 1 .619.439c.103.18.464.18.618.077a2.207 2.207 0 0 1 .697-.361c.258-.052.051-.438.051-.438M61.115 30.16a.523.523 0 0 1-.31.18c-.154 0-.232-.206-.386-.206s-.32.161-.568.232a2.333 2.333 0 0 1-.696.103 4.833 4.833 0 0 0 2.966.026 3.31 3.31 0 0 1-.62-.232c-.154-.103-.283-.155-.386-.103z"/><path class="cls-5" d="M61.889 30.616s-.43.825-1.11.885a1.112 1.112 0 0 1-.902-.473 3.138 3.138 0 0 0-.464-.498"/><circle class="cls-3" cx="64.074" cy="19.923" r="1.095"/><circle class="cls-3" cx="68.848" cy="24.781" r="1.095"/><circle class="cls-3" cx="68.848" cy="31.322" r="1.095"/><circle class="cls-3" cx="64.074" cy="36.194" r="1.095"/><circle class="cls-3" cx="57.263" cy="36.194" r="1.095"/><circle class="cls-3" cx="52.679" cy="31.322" r="1.095"/><circle class="cls-3" cx="52.679" cy="24.758" r="1.095"/><circle class="cls-3" cx="57.263" cy="19.923" r="1.095"/><circle cx="26.25" cy="28.087" r="10.642"/><circle class="cls-2" cx="26.25" cy="28.087" r="11.858"/><path class="cls-3" d="M23.969 22.58l2.281-4.428 2.281 4.428 4.744-1.518-1.517 4.744 4.427 2.281-4.427 2.282 1.517 4.744-4.744-1.518-2.281 4.428-2.281-4.428-4.744 1.518 1.518-4.744-4.428-2.282 4.428-2.281-1.518-4.744 4.744 1.518z"/><circle class="cls-4" cx="26.25" cy="28.087" r="5.899"/><circle class="cls-2" cx="26.25" cy="28.087" r="4.926"/><path class="cls-5" d="M22.94 27.143s.697.902 2.373.129a1.418 1.418 0 0 0-2.372-.13z"/><ellipse cx="24.088" cy="27.104" rx=".503" ry=".529"/><circle class="cls-1" cx="24.024" cy="26.807" r=".155"/><path class="cls-5" d="M22.76 26.524a1.81 1.81 0 0 1 2.244.412M29.535 27.21s-.696.902-2.373.129a1.418 1.418 0 0 1 2.373-.13z"/><ellipse cx="28.387" cy="27.171" rx=".503" ry=".529"/><circle class="cls-1" cx="28.452" cy="26.874" r=".155"/><path class="cls-5" d="M29.715 26.59a1.81 1.81 0 0 0-2.243.413M22.812 25.466s2.192-.051 2.527.026a1.07 1.07 0 0 1 .619.903 11.144 11.144 0 0 1-.052 1.186"/><path class="cls-5" d="M29.336 25.57a6.302 6.302 0 0 0-2.166-.026c-.387.129-.335.31-.387.516a13.482 13.482 0 0 0-.026 2.063M25.262 28.793a2.129 2.129 0 0 1 .619.439c.103.18.464.18.618.077a2.207 2.207 0 0 1 .697-.361c.258-.052.051-.438.051-.438M26.594 30.16a.523.523 0 0 1-.31.18c-.154 0-.232-.206-.386-.206s-.32.161-.568.232a2.333 2.333 0 0 1-.696.103 4.833 4.833 0 0 0 2.966.026 3.31 3.31 0 0 1-.62-.232c-.154-.103-.283-.155-.386-.103z"/><path class="cls-5" d="M27.368 30.616s-.43.825-1.11.885a1.112 1.112 0 0 1-.902-.473 3.138 3.138 0 0 0-.464-.498"/><circle class="cls-3" cx="29.553" cy="19.923" r="1.095"/><circle class="cls-3" cx="34.327" cy="24.781" r="1.095"/><circle class="cls-3" cx="34.327" cy="31.322" r="1.095"/><circle class="cls-3" cx="29.553" cy="36.194" r="1.095"/><circle class="cls-3" cx="22.742" cy="36.194" r="1.095"/><circle class="cls-3" cx="18.158" cy="31.322" r="1.095"/><circle class="cls-3" cx="18.158" cy="24.758" r="1.095"/><circle class="cls-3" cx="22.742" cy="19.923" r="1.095"/><circle cx="60.771" cy="111.967" r="10.642"/><circle class="cls-2" cx="60.771" cy="111.967" r="11.858"/><path class="cls-3" d="M58.49 106.459l2.281-4.428 2.281 4.428 4.744-1.518-1.517 4.744 4.427 2.282-4.427 2.281 1.517 4.744-4.744-1.518-2.281 4.428-2.281-4.428-4.744 1.518 1.518-4.744-4.428-2.281 4.428-2.282-1.518-4.744 4.744 1.518z"/><circle class="cls-4" cx="60.771" cy="111.967" r="5.899"/><circle class="cls-2" cx="60.771" cy="111.967" r="4.926"/><path class="cls-5" d="M57.462 111.022s.696.903 2.372.13a1.418 1.418 0 0 0-2.372-.13z"/><ellipse cx="58.609" cy="110.983" rx=".503" ry=".529"/><circle class="cls-1" cx="58.545" cy="110.687" r=".155"/><path class="cls-5" d="M57.281 110.403a1.81 1.81 0 0 1 2.244.413M64.056 111.09s-.696.902-2.373.128a1.418 1.418 0 0 1 2.373-.129z"/><ellipse cx="62.908" cy="111.05" rx=".503" ry=".529"/><circle class="cls-1" cx="62.973" cy="110.754" r=".155"/><path class="cls-5" d="M64.236 110.47a1.81 1.81 0 0 0-2.243.413M57.333 109.346s2.192-.052 2.527.026a1.07 1.07 0 0 1 .619.902 11.144 11.144 0 0 1-.052 1.187"/><path class="cls-5" d="M63.857 109.449a6.302 6.302 0 0 0-2.166-.026c-.387.13-.335.31-.387.516a13.482 13.482 0 0 0-.026 2.063M59.783 112.673a2.129 2.129 0 0 1 .619.438c.103.18.464.18.618.077a2.207 2.207 0 0 1 .697-.36c.258-.052.051-.439.051-.439M61.115 114.04a.523.523 0 0 1-.31.18c-.154 0-.232-.206-.386-.206s-.32.16-.568.232a2.333 2.333 0 0 1-.696.103 4.833 4.833 0 0 0 2.966.026 3.31 3.31 0 0 1-.62-.232c-.154-.104-.283-.155-.386-.104z"/><path class="cls-5" d="M61.889 114.495s-.43.825-1.11.885a1.112 1.112 0 0 1-.902-.472 3.138 3.138 0 0 0-.464-.499"/><circle class="cls-3" cx="64.074" cy="103.803" r="1.095"/><circle class="cls-3" cx="68.848" cy="108.66" r="1.095"/><circle class="cls-3" cx="68.848" cy="115.201" r="1.095"/><circle class="cls-3" cx="64.074" cy="120.074" r="1.095"/><circle class="cls-3" cx="57.263" cy="120.074" r="1.095"/><circle class="cls-3" cx="52.679" cy="115.201" r="1.095"/><circle class="cls-3" cx="52.679" cy="108.637" r="1.095"/><circle class="cls-3" cx="57.263" cy="103.803" r="1.095"/><circle cx="26.25" cy="111.967" r="10.642"/><circle class="cls-2" cx="26.25" cy="111.967" r="11.858"/><path class="cls-3" d="M23.969 106.459l2.281-4.428 2.281 4.428 4.744-1.518-1.517 4.744 4.427 2.282-4.427 2.281 1.517 4.744-4.744-1.518-2.281 4.428-2.281-4.428-4.744 1.518 1.518-4.744-4.428-2.281 4.428-2.282-1.518-4.744 4.744 1.518z"/><circle class="cls-4" cx="26.25" cy="111.967" r="5.899"/><circle class="cls-2" cx="26.25" cy="111.967" r="4.926"/><path class="cls-5" d="M22.94 111.022s.697.903 2.373.13a1.418 1.418 0 0 0-2.372-.13z"/><ellipse cx="24.088" cy="110.983" rx=".503" ry=".529"/><circle class="cls-1" cx="24.024" cy="110.687" r=".155"/><path class="cls-5" d="M22.76 110.403a1.81 1.81 0 0 1 2.244.413M29.535 111.09s-.696.902-2.373.128a1.418 1.418 0 0 1 2.373-.129z"/><ellipse cx="28.387" cy="111.05" rx=".503" ry=".529"/><circle class="cls-1" cx="28.452" cy="110.754" r=".155"/><path class="cls-5" d="M29.715 110.47a1.81 1.81 0 0 0-2.243.413M22.812 109.346s2.192-.052 2.527.026a1.07 1.07 0 0 1 .619.902 11.144 11.144 0 0 1-.052 1.187"/><path class="cls-5" d="M29.336 109.449a6.302 6.302 0 0 0-2.166-.026c-.387.13-.335.31-.387.516a13.482 13.482 0 0 0-.026 2.063M25.262 112.673a2.129 2.129 0 0 1 .619.438c.103.18.464.18.618.077a2.207 2.207 0 0 1 .697-.36c.258-.052.051-.439.051-.439M26.594 114.04a.523.523 0 0 1-.31.18c-.154 0-.232-.206-.386-.206s-.32.16-.568.232a2.333 2.333 0 0 1-.696.103 4.833 4.833 0 0 0 2.966.026 3.31 3.31 0 0 1-.62-.232c-.154-.104-.283-.155-.386-.104z"/><path class="cls-5" d="M27.368 114.495s-.43.825-1.11.885a1.112 1.112 0 0 1-.902-.472 3.138 3.138 0 0 0-.464-.499"/><circle class="cls-3" cx="29.553" cy="103.803" r="1.095"/><circle class="cls-3" cx="34.327" cy="108.66" r="1.095"/><circle class="cls-3" cx="34.327" cy="115.201" r="1.095"/><circle class="cls-3" cx="29.553" cy="120.074" r="1.095"/><circle class="cls-3" cx="22.742" cy="120.074" r="1.095"/><circle class="cls-3" cx="18.158" cy="115.201" r="1.095"/><circle class="cls-3" cx="18.158" cy="108.637" r="1.095"/><circle class="cls-3" cx="22.742" cy="103.803" r="1.095"/><circle cx="43.417" cy="70.082" r="18.556" stroke-width=".4" stroke-linecap="round" stroke-linejoin="round" stroke="#000"/><path class="cls-7" d="M47.869 63.492a.861.861 0 0 1 .769.257 2.547 2.547 0 0 0 .32.384 3.618 3.618 0 0 1 .577.77 1.618 1.618 0 0 1 .193.384q.128.256.256.577a1.041 1.041 0 0 0 .449-.513 3.246 3.246 0 0 0 .256 2.18 3.236 3.236 0 0 1 .385.768 3.89 3.89 0 0 1 .32 1.154 2.97 2.97 0 0 1-.064.577 1.272 1.272 0 0 1-.128.577 2.1 2.1 0 0 0-.257.32 4.19 4.19 0 0 0-.256.449.29.29 0 0 0 .064.32l.641-.128a2.009 2.009 0 0 1-.384.513 2.518 2.518 0 0 0-.513 1.73.95.95 0 0 1-.257.706 2.707 2.707 0 0 1-1.282.897 1.15 1.15 0 0 0-.576.192 1.618 1.618 0 0 1-.385.193 2.547 2.547 0 0 0-.384.32.763.763 0 0 1-.513.385 2.223 2.223 0 0 1 .897.448v.129a1.988 1.988 0 0 0-1.987.769 1.711 1.711 0 0 1-.449.32 1.866 1.866 0 0 1-1.282-.064 4.484 4.484 0 0 1-.64-.32l-.129-.064-.256-.129a.837.837 0 0 0-.962.193.057.057 0 0 0-.064.064l-.064.064a3.562 3.562 0 0 0-1.73-.898 3.764 3.764 0 0 1-1.41-.256 1.009 1.009 0 0 1-.385-.256.412.412 0 0 1-.32-.32.185.185 0 0 0-.065-.129 4.485 4.485 0 0 1-.32-.641 1.084 1.084 0 0 0-.449-.513 4.364 4.364 0 0 1-1.282-1.794 1.882 1.882 0 0 1-.128-.706q.064-.833.064-1.858a.502.502 0 0 0-.448-.577.57.57 0 0 0-.45.705l-.127-.257v-.64a7.944 7.944 0 0 1 .705-.962 2.237 2.237 0 0 0 .384-.577.694.694 0 0 0 .193-.64 2.696 2.696 0 0 0-.064-.642 1.216 1.216 0 0 1 0-.577 2.318 2.318 0 0 1 .833-.961.79.79 0 0 1 .448-.128.185.185 0 0 1 .129-.064h.256a.057.057 0 0 0 .064-.064q.256 0 .256-.193h.065a.783.783 0 0 0-.193-.577.713.713 0 0 0-.32-.064v.064a.261.261 0 0 1-.192-.064.569.569 0 0 0-.065-.256 1.425 1.425 0 0 1 .193-.449 3.962 3.962 0 0 1 1.218.064 3.317 3.317 0 0 0 1.474-.448q.256-.193.448-.32a7.5 7.5 0 0 1 1.282-1.026 4.484 4.484 0 0 0 .641-.32h.193a2.97 2.97 0 0 1 .576.063 2.416 2.416 0 0 1 .834.898q0 .128.256-.129a.826.826 0 0 0 0-.64q-.256-.45 0-.513a1.117 1.117 0 0 1 .577.32 12.584 12.584 0 0 0 1.474 1.282 3.181 3.181 0 0 0 1.09.641z"/><path class="cls-7" d="M48.574 62.595a3.654 3.654 0 0 1-.641-.192 2.1 2.1 0 0 1-.32-.257 4.703 4.703 0 0 1-.834-.64 2.673 2.673 0 0 0-1.666-.706 5.027 5.027 0 0 0-2.116-.064 9.502 9.502 0 0 0-1.666.513 1.618 1.618 0 0 0-.385.192 2.547 2.547 0 0 0-.384.32l-.128.129a.185.185 0 0 1-.129-.064 2.13 2.13 0 0 1-.128-.513 1.004 1.004 0 0 1-.256.192 4.063 4.063 0 0 1-.897.641 2.508 2.508 0 0 1-.577.32 2.414 2.414 0 0 0-.962.578l-.897.897a2.462 2.462 0 0 0-.577 1.09 4.363 4.363 0 0 1-.513 1.153 3.136 3.136 0 0 1-.192.32.713.713 0 0 1-.32.065.805.805 0 0 0-.321.192.96.96 0 0 0 .128.833.057.057 0 0 1 .064.064 2.262 2.262 0 0 1-.192.898 3.517 3.517 0 0 1-.192.448q-.128.385-.257.705a2.41 2.41 0 0 0 .193 1.795 11.15 11.15 0 0 0 .833 1.41.88.88 0 0 1 .128.641l-.513.064q-.256 0 .128.257a9.146 9.146 0 0 1 1.346 1.538 1.405 1.405 0 0 0 .193.385 3.543 3.543 0 0 1 .32.705 3.017 3.017 0 0 0 .834.961 4.484 4.484 0 0 0 .64.32h1.218l-.32.706a3.67 3.67 0 0 1 1.923 0 14.039 14.039 0 0 1 1.474.64 1.753 1.753 0 0 1 .385.065 6.11 6.11 0 0 0 2.627-.32 3.218 3.218 0 0 0 1.282-.77 1.258 1.258 0 0 0 .577.577l.128.128a1.444 1.444 0 0 1 .834-1.346 1.491 1.491 0 0 1 .384-.256l.385-.193a1.711 1.711 0 0 1 .448-.32.805.805 0 0 0 .32-.192q.514-.641 1.026-1.218a1.049 1.049 0 0 0 .321-.77q.064-.64.256-.576h.641a1.447 1.447 0 0 1-.128-1.026 2.758 2.758 0 0 0 .064-.512 2.505 2.505 0 0 0 .193-.513 2.042 2.042 0 0 1 .256-.77 2.716 2.716 0 0 0 .256-.768 3.912 3.912 0 0 0-.192-1.86 2.705 2.705 0 0 0-.513-.704.968.968 0 0 0 .32-.385q.065 0 .193-.192v-.064a.97.97 0 0 1-.77-.385 1.711 1.711 0 0 0-.32-.449q-.064-.192-.128-.448-.128-.32-.192-.513a3.93 3.93 0 0 0-.385-.705 2.594 2.594 0 0 0-1.474-1.218q-.32 0-.064-.192a.545.545 0 0 0 0-.513 2.42 2.42 0 0 1-.77-.128z"/><path class="cls-7" d="M48.446 74.965a6.954 6.954 0 0 1-11.858-4.935 6.52 6.52 0 0 1 2.051-4.871 6.886 6.886 0 0 1 9.807 0 6.52 6.52 0 0 1 2.05 4.871 6.728 6.728 0 0 1-2.05 4.935z"/><path class="cls-7" d="M50.497 63.108a9.935 9.935 0 0 1-6.987 16.92 9.926 9.926 0 0 1-6.986-16.92 9.548 9.548 0 0 1 6.986-2.949 9.412 9.412 0 0 1 6.987 2.949z"/><path class="cls-7" d="M51.458 62.146a11.143 11.143 0 0 1 0 15.896 10.715 10.715 0 0 1-7.948 3.333 11.285 11.285 0 0 1-8.012-19.229 10.924 10.924 0 0 1 8.012-3.333 10.715 10.715 0 0 1 7.948 3.333z"/><path class="cls-5" d="M63.476 70.027a18.971 18.971 0 0 1-5.897 14.101 19.074 19.074 0 0 1-14.1 5.833 19.21 19.21 0 0 1-14.102-5.833 19.962 19.962 0 0 1 0-28.202 19.21 19.21 0 0 1 14.101-5.833 19.074 19.074 0 0 1 14.101 5.833 19.106 19.106 0 0 1 5.897 14.101z"/><path d="M65.11 70.027a20.8 20.8 0 0 1-6.345 15.255 20.663 20.663 0 0 1-15.255 6.345 21.555 21.555 0 0 1-21.6-21.6 21.448 21.448 0 0 1 21.6-21.6 21.555 21.555 0 0 1 21.6 21.6z" stroke-linecap="round" stroke-linejoin="round" stroke-width=".6" stroke="#000" fill="none"/><circle class="cls-3" cx="50.199" cy="54.597" r="1.023"/><circle class="cls-3" cx="58.743" cy="63.741" r="1.023"/><circle class="cls-3" cx="58.743" cy="76.557" r="1.023"/><circle class="cls-3" cx="27.931" cy="63.741" r="1.023"/><circle class="cls-3" cx="27.931" cy="76.557" r="1.023"/><circle class="cls-3" cx="50.199" cy="85.569" r="1.023"/><circle class="cls-3" cx="36.315" cy="54.597" r="1.023"/><circle class="cls-3" cx="36.315" cy="85.569" r="1.023"/><path class="cls-3" d="M39.263 59.647c-2.67-4.761 1.023-5.963 2.581-6.452s1.557-1.29 1.557-1.29a2.742 2.742 0 0 0 2.314 1.424c1.78.178 4.228 1.602 2.448 6.407a10.35 10.35 0 0 0-4.628-.979c-2.27.178-1.736.223-4.272.89z"/><path class="cls-3" d="M48.067 59.768c1.674-4.8 5.067-3.262 6.363-2.505s1.853.256 1.853.256a2.52 2.52 0 0 0 .43 2.47c.968 1.327 1.287 3.964-2.373 6.044a22.182 22.182 0 0 0-2.955-3.79c-1.516-1.437-1.263-1.547-3.318-2.475z"/><path class="cls-3" d="M54.297 65.964c4.633-2.32 5.748 1.375 6.143 2.873s1.154 1.533 1.154 1.533a2.601 2.601 0 0 0-1.452 2.13c-.248 1.679-2.133 3.913-6.312 2.589a15.366 15.366 0 0 0 .962-4.875 14.652 14.652 0 0 0-.495-4.25z"/><path class="cls-3" d="M53.898 74.96c4.764 1.872 3.016 5.238 2.176 6.517s-.364 1.861-.364 1.861a2.57 2.57 0 0 0-2.524.34c-1.397.927-4.17 1.456-5.731-3.089a14.145 14.145 0 0 0 3.857-2.415c1.54-1.476 1.53-1.175 2.586-3.214z"/><path class="cls-3" d="M47.482 80.565c2.591 4.921-1.11 6.1-2.671 6.579s-1.573 1.3-1.573 1.3a2.74 2.74 0 0 0-2.286-1.494c-1.773-.208-4.192-1.704-2.345-6.606a11.752 11.752 0 0 0 4.55.785 13.872 13.872 0 0 0 4.325-.564z"/><path class="cls-3" d="M38.862 80.328c-1.905 5.116-5.038 3.41-6.418 2.537s-1.991-.353-1.991-.353a2.742 2.742 0 0 0-.41-2.686c-1.015-1.473-1.632-4.42 3.186-6.17a11.56 11.56 0 0 0 2.365 4.323 7.117 7.117 0 0 0 3.268 2.35z"/><path class="cls-3" d="M33.05 73.77c-4.873 2.276-5.918-1.042-6.339-2.522s-1.22-1.518-1.22-1.518a2.585 2.585 0 0 0 1.523-2.099c.256-1.657 1.785-3.881 6.508-1.991a9.2 9.2 0 0 0-1.18 4.285c.078 2.132.152 1.44.708 3.845z"/><path class="cls-3" d="M33.289 65.61c-4.877-2.162-3.38-5.44-2.603-6.708s.267-1.769.267-1.769a1.97 1.97 0 0 0 2.202-.267c1.355-.877 4.039-.968 6.241 2.77a14.827 14.827 0 0 0-3.902 2.455c-1.47 1.432-1.251 1.485-2.205 3.52z"/><path class="cls-9" d="M40.686 59.672c-1.744-3.472.67-4.347 1.687-4.704s1.018-.941 1.018-.941a1.817 1.817 0 0 0 1.512 1.038c1.163.13 2.763 1.168 1.6 4.671a6.2 6.2 0 0 0-3.025-.713 8.907 8.907 0 0 0-2.792.649zM49.122 60.942c1.213-2.887 3.163-2.14 3.9-1.755s1.092.067 1.092.067a1.411 1.411 0 0 0 .144 1.427c.517.733.587 2.263-1.685 3.646a10.412 10.412 0 0 0-1.588-2.085c-.837-.774-.682-.85-1.863-1.3zM54.193 67.905c3.028-1.132 3.787.733 4.058 1.488s.77.779.77.779a1.386 1.386 0 0 0-.94 1.06c-.15.842-1.373 1.95-4.13 1.255a6.09 6.09 0 0 0 .598-2.443 5.792 5.792 0 0 0-.356-2.14zM52.85 75.817c3.257 1.497 2.247 3.72 1.747 4.557s-.158 1.257-.158 1.257a1.647 1.647 0 0 0-1.664.117c-.888.57-2.71.805-3.956-2.375a7.832 7.832 0 0 0 2.457-1.476 4.426 4.426 0 0 0 1.575-2.08zM45.524 80.509c1.432 3.46-.63 4.297-1.5 4.638s-.879.92-.879.92a1.611 1.611 0 0 0-1.27-1.048c-.985-.143-2.33-1.19-1.29-4.646a5.349 5.349 0 0 0 2.53.543 6.235 6.235 0 0 0 2.41-.407zM37.868 79.146c-1.429 3.29-3.37 2.344-4.22 1.852s-1.264-.142-1.264-.142a1.658 1.658 0 0 0-.155-1.671c-.592-.885-.869-2.711 2.292-4.004a6.193 6.193 0 0 0 1.344 2.62 3.832 3.832 0 0 0 2.003 1.345zM33.144 72.3c-3.516 1.308-4.293-.65-4.607-1.524s-.895-.9-.895-.9a1.605 1.605 0 0 0 1.09-1.225c.175-.973 1.269-2.271 4.702-1.13a4.626 4.626 0 0 0-.827 2.513 6.04 6.04 0 0 0 .537 2.266zM34.68 64.473c-3.24-1.7-2.462-3.789-2.034-4.585s.074-1.157.074-1.157a1.224 1.224 0 0 0 1.395-.056c.819-.507 2.532-.42 4.147 2.176a7.54 7.54 0 0 0-2.364 1.412c-.862.868-.72.915-1.219 2.21z"/><g id="mazzo_asset_m_due_Denari_0_Layer1_0_FILL" data-name="mazzo asset m due Denari 0 Layer1 0 FILL"><path d="M52.023 61.515a7.887 7.887 0 0 0-1.099-1.03 12.023 12.023 0 0 0-12.837-1.236 13.034 13.034 0 0 0-3.158 2.266 11.402 11.402 0 0 0-2.47 3.57 11.803 11.803 0 0 0-1.03 4.942 13.002 13.002 0 0 0 .411 3.295 11.756 11.756 0 0 0 3.09 5.217 11.022 11.022 0 0 0 4.461 2.883 12.156 12.156 0 0 0 4.12.687 11.753 11.753 0 0 0 7.139-2.265 12.439 12.439 0 0 0 1.372-1.305 11.922 11.922 0 0 0 2.54-3.432 12.444 12.444 0 0 0 1.03-5.08 11.475 11.475 0 0 0-3.57-8.512" stroke-width=".4" fill="#fbc219" stroke-miterlimit="10" stroke="#000"/><path class="cls-3" d="M50.522 62.786a.188.188 0 0 0 .066.13 9.58 9.58 0 0 1 3 7.111 10.549 10.549 0 0 1-.848 4.24 10.352 10.352 0 0 1-2.152 2.87l-.326.327A9.873 9.873 0 0 1 40.15 79.55a9.85 9.85 0 0 1-3.783-2.414 9.543 9.543 0 0 1-2.675-4.762 10.227 10.227 0 0 1-.26-2.348 9.777 9.777 0 0 1 2.935-7.11 11.043 11.043 0 0 1 2.479-1.892 10.135 10.135 0 0 1 11.676 1.761"/><path class="cls-3" d="M49.479 62.786a.579.579 0 0 0-.065-.26 2.463 2.463 0 0 1-.783-.131 3.719 3.719 0 0 1-.653-.196 2.138 2.138 0 0 1-.326-.261 4.787 4.787 0 0 1-.848-.652 2.72 2.72 0 0 0-1.696-.718 5.116 5.116 0 0 0-2.153-.065 9.67 9.67 0 0 0-1.696.522 1.647 1.647 0 0 0-.391.195 2.592 2.592 0 0 0-.391.327l-.13.13a.188.188 0 0 1-.131-.065 2.168 2.168 0 0 1-.13-.522 1.022 1.022 0 0 1-.262.196 3.407 3.407 0 0 1-.717.522.759.759 0 0 1-.196.13 2.553 2.553 0 0 1-.587.326 2.456 2.456 0 0 0-.979.587l-.913.914a2.506 2.506 0 0 0-.587 1.109 4.44 4.44 0 0 1-.522 1.174 2.531 2.531 0 0 0-.13.326h-.066a.726.726 0 0 1-.326.065.819.819 0 0 0-.326.196.977.977 0 0 0 .13.848.058.058 0 0 1 .066.065 2.302 2.302 0 0 1-.196.913 3.58 3.58 0 0 1-.196.457q-.13.391-.26.718a2.453 2.453 0 0 0 .195 1.826l.261.392q.261.521.587 1.043a.896.896 0 0 1 .13.653l-.521.065q-.261 0 .13.26a9.308 9.308 0 0 1 1.37 1.566 1.43 1.43 0 0 0 .196.392 3.606 3.606 0 0 1 .326.717 3.071 3.071 0 0 0 .848.979 4.563 4.563 0 0 0 .652.326h1.24l-.326.718a4.302 4.302 0 0 1 1.5-.13q.196.064.457.13a14.289 14.289 0 0 1 1.5.652 1.784 1.784 0 0 1 .391.065 6.219 6.219 0 0 0 2.675-.326 3.275 3.275 0 0 0 1.305-.783 1.28 1.28 0 0 0 .587.587l.13.13a1.47 1.47 0 0 1 .848-1.37 1.518 1.518 0 0 1 .392-.26l.391-.196a1.741 1.741 0 0 1 .457-.326.819.819 0 0 0 .326-.196 2.138 2.138 0 0 1 .26-.326 7.306 7.306 0 0 1 .784-.913 1.068 1.068 0 0 0 .326-.783q.065-.652.26-.587h.653a1.472 1.472 0 0 1-.13-1.044 2.806 2.806 0 0 0 .065-.522 2.55 2.55 0 0 0 .195-.521 2.078 2.078 0 0 1 .261-.783 2.764 2.764 0 0 0 .261-.783 3.981 3.981 0 0 0-.195-1.892 2.753 2.753 0 0 0-.522-.717.985.985 0 0 0 .326-.392q.065 0 .196-.196v-.065a.988.988 0 0 1-.783-.391 1.741 1.741 0 0 0-.326-.457q-.066-.195-.13-.456-.131-.327-.197-.522a3.999 3.999 0 0 0-.39-.718 2.207 2.207 0 0 0-.523-.587 2.164 2.164 0 0 0-.978-.652q-.326 0-.066-.196a.579.579 0 0 0 .066-.26"/><path class="cls-3" d="M50.457 65.33a.188.188 0 0 1 .065-.13 1.073 1.073 0 0 0-.065.326v.587a4.785 4.785 0 0 0 .326 1.305 3.293 3.293 0 0 1 .392.782 3.96 3.96 0 0 1 .326 1.175 3.023 3.023 0 0 1-.065.587 1.295 1.295 0 0 1-.13.587 2.138 2.138 0 0 0-.262.326 4.264 4.264 0 0 0-.26.457.295.295 0 0 0 .065.326l.652-.13a2.044 2.044 0 0 1-.391.521 2.695 2.695 0 0 0-.457 1.24 2.145 2.145 0 0 0-.065.522.968.968 0 0 1-.261.717 2.755 2.755 0 0 1-1.305.913 1.17 1.17 0 0 0-.587.196 1.646 1.646 0 0 1-.391.196 2.592 2.592 0 0 0-.392.326.776.776 0 0 1-.522.391 2.262 2.262 0 0 1 .914.457v.13a2.024 2.024 0 0 0-2.023.783 1.741 1.741 0 0 1-.456.326 1.9 1.9 0 0 1-1.305-.065 4.563 4.563 0 0 1-.652-.326l-.13-.065-.262-.13a.852.852 0 0 0-.978.195.058.058 0 0 0-.065.065l-.066.065a6.294 6.294 0 0 0-1.043-.717 3.46 3.46 0 0 0-.718-.196 3.83 3.83 0 0 1-1.435-.26 1.027 1.027 0 0 1-.391-.262.419.419 0 0 1-.327-.326.188.188 0 0 0-.065-.13 4.564 4.564 0 0 1-.326-.653 1.103 1.103 0 0 0-.457-.522 4.441 4.441 0 0 1-1.304-1.826 1.915 1.915 0 0 1-.13-.718q.064-.652.064-1.435v-.456a.51.51 0 0 0-.456-.587.58.58 0 0 0-.457.717l-.13-.26V69.7a8.085 8.085 0 0 1 .717-.979 2.277 2.277 0 0 0 .392-.587.706.706 0 0 0 .195-.652 2.745 2.745 0 0 0-.065-.652 1.238 1.238 0 0 1 0-.588 2.36 2.36 0 0 1 .848-.978.804.804 0 0 1 .457-.13.188.188 0 0 1 .13-.066h.261a.058.058 0 0 0 .065-.065q.261 0 .261-.196h.066a.797.797 0 0 0-.196-.587.726.726 0 0 0-.326-.065v.065a.266.266 0 0 1-.196-.065.579.579 0 0 0-.065-.261 1.45 1.45 0 0 1 .195-.457 4.032 4.032 0 0 1 1.24.066q.457-.066.848-.13a2.286 2.286 0 0 0 .652-.327q.261-.196.457-.326a7.634 7.634 0 0 1 1.305-1.044 4.564 4.564 0 0 0 .652-.326h.196a3.023 3.023 0 0 1 .587.065 2.459 2.459 0 0 1 .848.913q0 .13.26-.13a.84.84 0 0 0 0-.652q-.26-.457 0-.522a1.137 1.137 0 0 1 .588.326 12.808 12.808 0 0 0 1.5 1.305 3.238 3.238 0 0 0 1.11.652.877.877 0 0 1 .782.26 2.592 2.592 0 0 0 .326.392 3.682 3.682 0 0 1 .587.783 1.647 1.647 0 0 1 .196.391q.13.261.26.588a.853.853 0 0 0 .392-.392"/><path class="cls-3" d="M50.588 69.962a5.936 5.936 0 0 0-.196-1.566 6.321 6.321 0 0 0-1.892-3.392 6.71 6.71 0 0 0-5.023-2.087 6.51 6.51 0 0 0-3.522.978 6.386 6.386 0 0 0-1.436 1.109 7.134 7.134 0 0 0-1.5 2.153 6.756 6.756 0 0 0-.587 2.805 3.319 3.319 0 0 0 .065.652 6.732 6.732 0 0 0 2.023 4.37 7.118 7.118 0 0 0 2.805 1.762 8.842 8.842 0 0 0 2.152.261 6.82 6.82 0 0 0 5.023-2.022 7.541 7.541 0 0 0 1.435-1.957q.261-.653.457-1.24a8.695 8.695 0 0 0 .196-1.826z"/><path d="M50.588 62.917a.188.188 0 0 1-.066-.13 10.135 10.135 0 0 0-11.676-1.762 11.043 11.043 0 0 0-2.48 1.892 9.777 9.777 0 0 0-2.935 7.11 10.227 10.227 0 0 0 .261 2.348 9.543 9.543 0 0 0 2.675 4.762 9.85 9.85 0 0 0 3.783 2.414 9.873 9.873 0 0 0 10.112-2.087l.326-.327a10.352 10.352 0 0 0 2.152-2.87 10.549 10.549 0 0 0 .848-4.24 9.58 9.58 0 0 0-3-7.11m-1.175-.392a.554.554 0 0 1 0 .522q-.26.196.066.196a2.164 2.164 0 0 1 .978.652 2.207 2.207 0 0 1 .522.587 3.999 3.999 0 0 1 .391.718q.066.195.196.522.065.26.13.456a1.741 1.741 0 0 1 .327.457.988.988 0 0 0 .783.391v.065q-.13.196-.196.196a.985.985 0 0 1-.326.392 2.753 2.753 0 0 1 .522.717A3.981 3.981 0 0 1 53 70.288a2.764 2.764 0 0 1-.26.783 2.078 2.078 0 0 0-.262.783 2.55 2.55 0 0 1-.195.521 2.806 2.806 0 0 1-.065.522 1.472 1.472 0 0 0 .13 1.044h-.652q-.196-.065-.261.587a1.068 1.068 0 0 1-.326.783 7.306 7.306 0 0 0-.783.913 2.138 2.138 0 0 0-.261.326.819.819 0 0 1-.326.196 1.741 1.741 0 0 0-.457.326l-.391.196a1.518 1.518 0 0 0-.392.26 1.47 1.47 0 0 0-.848 1.37l-.13-.13a1.28 1.28 0 0 1-.587-.587 3.275 3.275 0 0 1-1.305.783 6.219 6.219 0 0 1-2.675.326 1.784 1.784 0 0 0-.391-.065 14.289 14.289 0 0 0-1.5-.652q-.261-.066-.457-.13a4.302 4.302 0 0 0-1.5.13l.326-.718h-1.24a4.563 4.563 0 0 1-.652-.326 3.071 3.071 0 0 1-.848-.979 3.606 3.606 0 0 0-.326-.717 1.43 1.43 0 0 1-.196-.392 9.308 9.308 0 0 0-1.37-1.565q-.391-.261-.13-.261l.522-.065a.896.896 0 0 0-.13-.653q-.327-.522-.588-1.043l-.26-.392a2.453 2.453 0 0 1-.197-1.826q.13-.327.261-.718a3.58 3.58 0 0 0 .196-.457 2.302 2.302 0 0 0 .196-.913.058.058 0 0 0-.065-.065.977.977 0 0 1-.13-.848.819.819 0 0 1 .325-.196.726.726 0 0 0 .326-.065h.066a2.531 2.531 0 0 1 .13-.326 4.44 4.44 0 0 0 .522-1.174 2.506 2.506 0 0 1 .587-1.11l.913-.913a2.456 2.456 0 0 1 .979-.587 2.553 2.553 0 0 0 .587-.326.759.759 0 0 0 .196-.13 3.407 3.407 0 0 0 .717-.522 1.022 1.022 0 0 0 .261-.196 2.168 2.168 0 0 0 .13.522.188.188 0 0 0 .131.065l.13-.13a2.592 2.592 0 0 1 .392-.327 1.647 1.647 0 0 1 .391-.195 9.67 9.67 0 0 1 1.696-.522 5.116 5.116 0 0 1 2.153.065 2.72 2.72 0 0 1 1.696.718 4.787 4.787 0 0 0 .848.652 2.138 2.138 0 0 0 .326.261 3.719 3.719 0 0 0 .653.196 2.463 2.463 0 0 0 .783.13m1.109 2.675a.188.188 0 0 0-.066.13.853.853 0 0 1-.391.392q-.13-.327-.261-.588a1.647 1.647 0 0 0-.196-.39 3.682 3.682 0 0 0-.587-.784 2.592 2.592 0 0 1-.326-.391.877.877 0 0 0-.783-.261 3.238 3.238 0 0 1-1.109-.652 12.808 12.808 0 0 1-1.5-1.305 1.137 1.137 0 0 0-.587-.326q-.261.065 0 .522a.84.84 0 0 1 0 .652q-.261.26-.261.13a2.459 2.459 0 0 0-.848-.913 3.023 3.023 0 0 0-.587-.065h-.196a4.564 4.564 0 0 1-.652.326 7.634 7.634 0 0 0-1.305 1.044q-.196.13-.457.326a2.286 2.286 0 0 1-.652.326q-.391.065-.848.13a4.032 4.032 0 0 0-1.24-.065 1.45 1.45 0 0 0-.195.457.579.579 0 0 1 .065.261.266.266 0 0 0 .196.065v-.065a.726.726 0 0 1 .326.065.797.797 0 0 1 .196.587h-.066q0 .196-.26.196a.058.058 0 0 1-.066.065h-.26a.188.188 0 0 0-.131.066.804.804 0 0 0-.457.13 2.36 2.36 0 0 0-.848.978 1.238 1.238 0 0 0 0 .588 2.745 2.745 0 0 1 .065.652.706.706 0 0 1-.195.652 2.277 2.277 0 0 1-.392.587 8.085 8.085 0 0 0-.717.979v.652l.13.261a.58.58 0 0 1 .457-.717.51.51 0 0 1 .457.587v.456q0 .783-.066 1.435a1.915 1.915 0 0 0 .13.718 4.441 4.441 0 0 0 1.305 1.827 1.103 1.103 0 0 1 .457.521 4.564 4.564 0 0 0 .326.653.188.188 0 0 1 .065.13.419.419 0 0 0 .327.326 1.027 1.027 0 0 0 .391.261 3.83 3.83 0 0 0 1.435.261 3.46 3.46 0 0 1 .718.196 6.294 6.294 0 0 1 1.043.718l.066-.066a.058.058 0 0 1 .065-.065.852.852 0 0 1 .978-.196l.261.13.13.066a4.563 4.563 0 0 0 .653.326 1.9 1.9 0 0 0 1.305.065 1.741 1.741 0 0 0 .456-.326 2.024 2.024 0 0 1 2.023-.782v-.131a2.262 2.262 0 0 0-.914-.457.776.776 0 0 0 .522-.391 2.592 2.592 0 0 1 .392-.326 1.646 1.646 0 0 0 .391-.196 1.17 1.17 0 0 1 .587-.196 2.755 2.755 0 0 0 1.305-.913.968.968 0 0 0 .26-.717 2.145 2.145 0 0 1 .066-.522 2.695 2.695 0 0 1 .457-1.24 2.044 2.044 0 0 0 .391-.522l-.652.13a.295.295 0 0 1-.065-.325 4.264 4.264 0 0 1 .26-.457 2.138 2.138 0 0 1 .261-.326 1.295 1.295 0 0 0 .13-.587 3.023 3.023 0 0 0 .066-.587 3.96 3.96 0 0 0-.326-1.175 3.293 3.293 0 0 0-.391-.782 4.785 4.785 0 0 1-.327-1.305v-.587a1.073 1.073 0 0 1 .066-.326m-.131 3.196a5.936 5.936 0 0 1 .196 1.566 8.695 8.695 0 0 1-.196 1.826q-.196.587-.457 1.24a7.541 7.541 0 0 1-1.435 1.957 6.82 6.82 0 0 1-5.023 2.022 8.842 8.842 0 0 1-2.152-.26 7.118 7.118 0 0 1-2.805-1.762 6.732 6.732 0 0 1-2.023-4.37 3.319 3.319 0 0 1-.065-.653 6.756 6.756 0 0 1 .587-2.805 7.134 7.134 0 0 1 1.5-2.153 6.386 6.386 0 0 1 1.436-1.109 6.51 6.51 0 0 1 3.522-.979 6.71 6.71 0 0 1 5.023 2.088 6.321 6.321 0 0 1 1.892 3.392z"/></g><path class="cls-5" d="M38.77 68.803s.982 1.272 3.344.182a1.999 1.999 0 0 0-3.343-.182z"/><ellipse cx="40.388" cy="68.749" rx=".709" ry=".745"/><circle class="cls-1" cx="40.297" cy="68.331" r=".218"/><path class="cls-5" d="M38.516 67.931a2.55 2.55 0 0 1 3.162.582M48.064 68.898s-.981 1.272-3.344.182a1.999 1.999 0 0 1 3.344-.182z"/><ellipse cx="46.447" cy="68.843" rx=".709" ry=".745"/><circle class="cls-1" cx="46.537" cy="68.425" r=".218"/><path class="cls-5" d="M48.318 68.026a2.55 2.55 0 0 0-3.162.581M38.589 66.441s3.09-.073 3.562.036a1.508 1.508 0 0 1 .872 1.272 15.706 15.706 0 0 1-.073 1.672"/><path class="cls-5" d="M47.784 66.586a8.881 8.881 0 0 0-3.053-.036c-.545.182-.472.436-.545.727a19 19 0 0 0-.036 2.907M42.042 71.13a3 3 0 0 1 .872.617c.145.255.654.255.872.11a3.11 3.11 0 0 1 .981-.51c.364-.072.073-.617.073-.617M43.92 73.056a.737.737 0 0 1-.437.254c-.218 0-.327-.29-.545-.29s-.45.226-.8.326a3.288 3.288 0 0 1-.981.146c2.908.666 4.18.036 4.18.036a4.665 4.665 0 0 1-.873-.327c-.218-.145-.4-.218-.545-.145z"/><path class="cls-5" d="M45.01 73.698s-.606 1.163-1.563 1.248a1.567 1.567 0 0 1-1.272-.667 4.423 4.423 0 0 0-.655-.702"/></g></g></svg>