<svg xmlns="http://www.w3.org/2000/svg" viewBox="0 0 87 140">
  <rect width="87" height="140" rx="6" ry="6" fill="#fff"/>
  <path d="M35.2 34.1h-.1l-.9-.5a.3.3 0 0 1-.1-.2h-.3l-.5-.7a.9.9 0 0 1-.1-.5V32l-.3.7c-1.6 1.2-3.5.8-5.6-1s-4.6-3.4-6.9-2.8-5.3 3.5-6.4 8.1a3 3 0 0 0 2.1-2l.2-.3a2.6 2.6 0 0 0 .4 1.8 2.2 2.2 0 0 0 1.1.5h.4a3.4 3.4 0 0 0 1.5-1.6 2 2 0 0 0 0 2h.1a1.2 1.2 0 0 0 1.3.5 2.2 2.2 0 0 0 .9-.7l.4-.5v.9a1.6 1.6 0 0 0 .4.7l.3.3a1.7 1.7 0 0 0 1 .1l.9-.5.6-.8a1.7 1.7 0 0 0-.1 1.2c0 .1 0 .2.1.2a1.4 1.4 0 0 0 1 .8 3.2 3.2 0 0 0 2.5-.8l.5-.6a21.4 21.4 0 0 1 5.6-4M73 37.3c-1.2-3.8-2.7-6.2-4.5-7s-4.2-.1-7 2.5-3.7 3-5.2 1.7a3.7 3.7 0 0 1-.8-3.5 3 3 0 0 0-.4.8c-.1 0-.1.1-.1.2l-.3.6c0 .2-.2.4-.3.6a.1.1 0 0 1-.1.1 1 1 0 0 1-.4.5l-.3.4h-.1l-.3.2h-.1a20.1 20.1 0 0 1 4.8 3.6 22 22 0 0 1 2.8 3.4 1.4 1.4 0 0 0 1.8.2c0-.1.1-.2.2-.3l.2-.2a2 2 0 0 0 .1-1.3v.2h.1a1.6 1.6 0 0 0 1.2.9h.2l.7-.5a2.3 2.3 0 0 0 .8-2.1V38a2.5 2.5 0 0 0 2.2 2.4l.8-.6a2 2 0 0 0 .5-1.8c.3 1.4 1.1 1.9 2.3 1.6a2.4 2.4 0 0 0 1-1 1.9 1.9 0 0 0 .1-1.3" fill="red"/>
  <path d="M52.5 21.8s-8.1 4.1-8.6 10.6l11.5.5c.1-2.4.3-6.6 4.8-7.1s5.6-3.9 5.6-3.9a10.4 10.4 0 0 1-4.2 1.4l.5-.4c2.6-4.1 8.4-2.7 8.4-2.7-4-4.5-7.6-1.2-7.6-1.2l1.3-.8c-.1-.8-.9-2-3.6-1.8s-3.1 1.1-5.7 2.5a8.2 8.2 0 0 1-4.7 1.1 3.8 3.8 0 0 0 4.5 1.6" fill="#fbc219"/>
  <path d="M58.5 26.1s-6-1.7-11.4 6.5c0 .2 4.6 1 5.7 1.7s2.6-3.3 2.6-3.3.1-3.7 3.1-4.9z" fill="#d09b07"/>
  <path d="M54 35.1s1.5-.6 1.6-1.7-1-1.5.2-3.7a6.8 6.8 0 0 0-4.2 4.2" fill="#980805"/>
  <path d="M35.2 20.7s8 5.2 8.5 11.7l-10.7.2c1.3-2.3-1.3-7.5-5.8-8.2s-5.3-3.6-5.3-3.6a10.2 10.2 0 0 0 4.1 1.4l-.4-.4c-2.6-4.1-8.4-2.7-8.4-2.7 4-4.5 7.6-1.2 7.6-1.2l-1.3-.8c.1-.8.9-2 3.6-1.8s3.1 1.1 5.7 2.5a8.2 8.2 0 0 0 4.7 1.1 3.8 3.8 0 0 1-4.5 1.6" fill="#fbc219"/>
  <path d="M64.1 18.2c-.1-.8-1-2-3.7-1.8s-3.1 1.1-5.7 2.5A8.2 8.2 0 0 1 50 20a3.8 3.8 0 0 0 4.5 1.6" fill="none" stroke="#000" stroke-linecap="round" stroke-linejoin="round" stroke-width=".4"/>
  <path d="M63.2 18.8s3.8-2.7 7.1 1.4c0 0-5.8-1.4-8.4 2.7m-.6.2a8.2 8.2 0 0 0 4.3-1.2s-.6 3.6-5.4 3.8-4.7 3.8-4.8 6.1v.7a2.9 2.9 0 0 0 .6 1.6m-3.7-12.3s-7.1 3.9-8.5 10.4" fill="none" stroke="#000" stroke-linecap="round" stroke-linejoin="round" stroke-width=".4"/>
  <path d="M29.7 17.7a7.9 7.9 0 0 1-1.6 0 4.9 4.9 0 0 1-1.2-.4m-.3 1.1s.5.5 2.1.4" fill="none" stroke="#000" stroke-linecap="round" stroke-linejoin="round" stroke-width=".3"/>
  <path d="M27.2 17.5s-.5.5-.2 1 1 .4 1.2.3.5-.8.1-1.1-1.1-.2-1.1-.2z"/>
  <circle cx="28" cy="18" r=".3" fill="#fff"/>
  <path d="M57.8 18.9a7.9 7.9 0 0 0 1.6 0 2.4 2.4 0 0 0 1.1-.3m.4 1s-.5.6-2.1.5" fill="none" stroke="#000" stroke-linecap="round" stroke-linejoin="round" stroke-width=".3"/>
  <path d="M60.2 18.8s.6.5.3.9-1.1.5-1.2.3-.5-.7-.2-1 1.1-.2 1.1-.2z"/>
  <circle cx="59.5" cy="19.3" r=".3" fill="#fff"/>
  <path d="M29.2 24.9s8.6-.8 12.1 7.5c0 .2-3.7.7-4.8 1.4S33 29.9 33 29.9s-.3-2.8-3.8-5z" fill="#d09b07"/>
  <path d="M35.4 34.3s-2.2-.9-2.3-2 .9-1.5-.3-3.6a7.9 7.9 0 0 1 4.5 4.6" fill="#980805"/>
  <path d="M23.4 17.1c.1-.8 1-2 3.7-1.8s3.1 1.1 5.7 2.5a8.2 8.2 0 0 0 4.7 1.1 3.8 3.8 0 0 1-4.5 1.6" fill="none" stroke="#000" stroke-linecap="round" stroke-linejoin="round" stroke-width=".4"/>
  <path d="M24.8 17.9s-3.6-3.3-7.6 1.2c0 0 5.8-1.4 8.4 2.7m9.6-1.1s8 5 8.5 11.5" fill="none" stroke="#000" stroke-linecap="round" stroke-linejoin="round" stroke-width=".4"/>
  <path d="M75.1 115.1l-.2-.2-.6-.2h-.2a.8.8 0 0 0-.6.2h-.1a1.2 1.2 0 0 0 0 1.6 1 1 0 0 0 .9.4.9.9 0 0 0 .8-.4 1.2 1.2 0 0 0 0-1.6m-6.5-3.5h-.1a.9.9 0 0 0-.7.3 1 1 0 0 0 0 1.6.9.9 0 0 0 .8.4.8.8 0 0 0 .8-.4 1 1 0 0 0 .1-1.5c0-.1 0-.1-.1-.1l-.2-.2-.6-.2m-51.4.8h-.1a1.2 1.2 0 0 0-.4.9 1 1 0 0 0 .4.9 1.3 1.3 0 0 0 .9.4 1.8 1.8 0 0 0 .9-.4 1.2 1.2 0 0 0 .3-.9 1.6 1.6 0 0 0-.3-.9 1.6 1.6 0 0 0-.9-.3h-.2l-.6.2m-3.6 1.1l-.2-.2h-.8a.9.9 0 0 0-.7.3 1.1 1.1 0 0 0-.3.8 1.2 1.2 0 0 0 .3.9 1.1 1.1 0 0 0 .8.3 1.4 1.4 0 0 0 .9-.3 1.2 1.2 0 0 0 .3-.9 1.1 1.1 0 0 0-.3-.8" fill="#325723"/>
  <path d="M13.9 84v.4c.1.3.2.5.5.5h.5l.2-.2a2.8 2.8 0 0 0-.1.9c0 .1 0 .1.1.2a.8.8 0 0 0 1.2-.2c-.2.6 0 .9.6 1h.5l.2-.2a1 1 0 0 0 .1 1.1c0 .1.1.1.1.2l.6.4a1.2 1.2 0 0 0 .9-.4l.2-.2a1.5 1.5 0 0 0 .1.7l.2.3h.5a3.2 3.2 0 0 0 2.5-1.7c0-.1.1-.1.2-.2a11.6 11.6 0 0 0 1.3-2.2 14.5 14.5 0 0 1 4.3-7.4l1.5-1.1h-1.4a3.4 3.4 0 0 1-2.8-1.6c0-.1-.1-.2-.1-.3a11.6 11.6 0 0 1-.4-1.8l-.8 1.4a13.9 13.9 0 0 1-4.9 4.4 18.9 18.9 0 0 0-4.6 3.3 4.2 4.2 0 0 0-1.2 2.7m59.6 1.8a4.6 4.6 0 0 0-1.3-2.9 16.3 16.3 0 0 0-4.5-3.5 15 15 0 0 1-5-4.7l-.8-1.7-.7-1.4a.6.6 0 0 0-.1.4c0 .2-.1.3-.1.5s-.1.3-.2.4a9.7 9.7 0 0 1-1.7 1.9l-1.3.9h-.3a2.1 2.1 0 0 1-1.1 0l-.4-.2-1.4-.7 2.5 1.9 1.6 1.3 1.7 1.4a7.4 7.4 0 0 1 2.2 3.9 9.7 9.7 0 0 0 .6 2.5 6.8 6.8 0 0 0 1.4 2.5 3.9 3.9 0 0 0 2.2 1.7h.7c.1-.1.2-.1.2-.3a1.4 1.4 0 0 0 .2-.7v.2c.4.3.7.5 1 .4a1.8 1.8 0 0 0 .7-.5c.2-.2.2-.6 0-1.1l.3.2h.4c.6 0 .8-.3.7-.9a.9.9 0 0 0 1 .3h.2v-.2a1.4 1.4 0 0 0 0-.9l.2.2h.6c.2 0 .4-.2.5-.5v-.4" fill="red"/>
  <path d="M70.6 100.9l.3.9c.4 2.9-.3 6.1-2.3 9.6l.6.2.2.2c.1 0 .1 0 .1.1a5.6 5.6 0 0 0 2.2-3 13.4 13.4 0 0 0 1.8 6.1l.6-.2a5.6 5.6 0 0 1-.7-3.7c1.2-4.3 1.5-7 1-8.3a7.3 7.3 0 0 1-.6-2.1h-3.2m1.5-13.1a.9.9 0 0 1-1-.3c.1.6-.1.9-.7.9H70l-.3-.2c.2.5.2.9 0 1.1a1.8 1.8 0 0 1-.7.5 8.9 8.9 0 0 1 .9 3.8H72l.2.2a1.7 1.7 0 0 0 1 .3l.4.2a13.1 13.1 0 0 0-1.5-6.8M12.6 103c0 .4-.1.9-.1 1.3a11.6 11.6 0 0 0 .3 5.4 4.6 4.6 0 0 1-.1 3.1h.7a12.8 12.8 0 0 0 1.1-4.8 23.3 23.3 0 0 0 2.7 4l.6-.2a13.1 13.1 0 0 1-2.1-8.3 9.9 9.9 0 0 0 .3-2.4 2.8 2.8 0 0 0 .1-.9l-.3.2-.6.5-2.6 2.1m2.3-18.1h-.1a12.3 12.3 0 0 0-2.3 7.8.8.8 0 0 0 0 .7c0-.1.1-.1.2-.1h2.5l.8.6c.1-2.8.7-4.8 1.8-6.2s-.1-.1-.1-.2a1 1 0 0 1-.1-1.1l-.2.2h-.5c-.6-.1-.8-.4-.6-1a.8.8 0 0 1-1.2.2c-.1-.1-.1-.1-.1-.2a2.8 2.8 0 0 1 .1-.9l-.2.2" fill="#d09b07"/>
  <path d="M48.9 32l-.2-.2" fill="#c8a30d"/>
  <path d="M73.6 94.4l-.4-.2a1.7 1.7 0 0 1-1-.3l-.2-.2h-2.1a18 18 0 0 1-.2 2.2 15 15 0 0 0 .2 2.2 16.3 16.3 0 0 0 .7 3h3.2a8.6 8.6 0 0 1-.4-2.8v-2.6a5.7 5.7 0 0 0 .1-1.3m-61-1v1.7c.2 1.4.3 2.7.4 4a24.7 24.7 0 0 1-.3 3.9l2.6-2.1.6-.5.3-.2v-2.8a21.3 21.3 0 0 1-.1-3.5l-.8-.6h-2.5c-.1 0-.2 0-.2.1m50.2 10.1a20 20 0 0 1-8.3 11.2 21.8 21.8 0 0 1-12.6 3.3c-10.5-1-17-6.7-19.5-17.3a10.3 10.3 0 0 1-.1-1.7 17.1 17.1 0 0 1 .9-7.4c.7-2.5.6-4.2-.1-4.9s-.2.1-.2.2a3.2 3.2 0 0 1-2.5 1.7h-.4a22.1 22.1 0 0 0-2.4 10.3v.3c0 .6.1 1.4.1 2.1q.9 11.1 10.2 18.6c9.6 6.6 19.7 6.6 30.4-.1 6.2-5.2 9.6-11.3 10-18.2.1-1.2.1-2.3.1-3.5s-.3-2.9-.5-4.3h-.5c-.1.2-.3.3-.7.3s-.2.1-.2.2l-.3.3c-.1.1-.2.1-.2.2a.9.9 0 0 1-.8.5h-.2a.4.4 0 0 1-.5.1h-.9a20.1 20.1 0 0 1 .1 2.5 30.3 30.3 0 0 1-.9 5.6z" fill="#fbc219"/>
  <path d="M58.3 66.1l-.4.4a19.1 19.1 0 0 1-8 4.9l4.7 3.5 1.4.7.4.2a2.1 2.1 0 0 0 1.1 0h.3l1.3-.9a9.7 9.7 0 0 0 1.7-1.9c.1-.1.1-.3.2-.4s.1-.3.1-.5a.6.6 0 0 1 .1-.4l-2.9-5.5m-28.7.3l-.8-.9-3.4 6.4a11.6 11.6 0 0 0 .4 1.8c0 .1.1.2.1.3a3.4 3.4 0 0 0 2.8 1.6h1.4l6.5-4.7a19 19 0 0 1-7-4.5M15.7 42a.4.4 0 0 1-.1-.3h-.1c-.1.7-.6 1-1.4.9l-.2-.2c-.4-.2-.5-.6-.5-1.2a37.8 37.8 0 0 0-.1 7.5l1.3 1.1v1.5c.1 1 .3 1.5.5 1.5s.2 0 .1-.1v-2.4l.9.5h1.3v.6a3.7 3.7 0 0 0 .3 1.7h.2v-.8a4.9 4.9 0 0 1-.1-1.3h1.6c0 .2-.1.3-.1.5s.1 1.3.1 1.6h.3v-1.9h1.2v1.7h.4v-1.8h1.3v1.8h.3V51h.5a14.5 14.5 0 0 1 1.8-6.4l-.9.5H24l-.4-.2c-.3-.2-.4-.6-.2-1.3l-.2.3a.1.1 0 0 0-.1.1c-.7.7-1.3.8-1.8.2a.5.5 0 0 1-.2-.4 1.1 1.1 0 0 1-.1-1c-.1.1-.1.3-.2.4s-1.2.9-1.9.3-.1-.1-.1-.2-.4-.5-.3-1-.1.2-.1.3-.3.3-.4.4-1.9.3-2.3-.7m.6-7.8l-.2.3a3 3 0 0 1-2.1 2v.2c-.1.6-.3 1.4-.4 2.1l.7.2v.2a5.3 5.3 0 0 0-.1 1.3.3.3 0 0 0 .1.2h.2a3.8 3.8 0 0 0 .6-1.4l.7.3.8.3.6.2a5.8 5.8 0 0 0-.2 1c0 .2.1.2.2.3a2.5 2.5 0 0 0 .4-1.2h.7l.3.2h.1l1.3.4a2.3 2.3 0 0 0-.3.9s0 .1.2.2a8.9 8.9 0 0 0 .5-1l1 .4.9.2 1.5.4h.9a2.3 2.3 0 0 0-.3.9.1.1 0 0 0 .1.1h.1l.8-1h.9a18 18 0 0 1 2.9-3.9 3.2 3.2 0 0 1-2.5.8 1.4 1.4 0 0 1-1-.8c-.1 0-.1-.1-.1-.2a1.7 1.7 0 0 1 .1-1.2l-.6.8-.9.5a1.7 1.7 0 0 1-1-.1l-.3-.3a1.6 1.6 0 0 1-.4-.7v-.9l-.4.5a2.2 2.2 0 0 1-.9.7 1.2 1.2 0 0 1-1.3-.5h-.1a2 2 0 0 1 0-2 3.4 3.4 0 0 1-1.5 1.6h-.4a2.2 2.2 0 0 1-1.1-.5 2.6 2.6 0 0 1-.4-1.8M63.9 46l-.3.5H63l.4 1.3a21.5 21.5 0 0 1 .4 4.5v.3h.6a.8.8 0 0 0-.1.4v.6h.4v-1h.8a5.7 5.7 0 0 0 .1 1.2v.2a2.9 2.9 0 0 0 .5-1.4h1.1a4.1 4.1 0 0 0-.1 1v.2h.3c0-.1.1-.5.2-1a.3.3 0 0 1 .1-.2h.7a3.2 3.2 0 0 0 .9-.3 2.8 2.8 0 0 0-.2 1.1v.2h.2l.4-1.2c0-.2.1-.3.1-.4l.9-.5.5-.3.7-.3c-.1.1-.1.3-.2.6a8.1 8.1 0 0 0-.2.9l.3.2a8.7 8.7 0 0 1 .3-1.3c.1-.2.1-.4.2-.6l.8-.5a32 32 0 0 0 .4-6.9v-1c-.1 0-.2-.5-.3-.4s-.2.7-.3.7l-.2 1.7c-.4 1-.7 1.5-1.1 1.7h-.9a3 3 0 0 1-1-1.4.8.8 0 0 1-.1-.4c0 1.3-.4 2.1-1.1 2.4h-.3c-1 0-1.7-.7-2-2.3a5.8 5.8 0 0 1-.6 1.7 1.2 1.2 0 0 1-.9.6 1.8 1.8 0 0 1-.9-.7v.1" fill="#980805"/>
  <path d="M73.5 39.6c0-.3-.1-.6-.1-.9a10.3 10.3 0 0 1-.4-1.4 1.9 1.9 0 0 1-.1 1.3 2.4 2.4 0 0 1-1 1c-1.2.3-2-.2-2.3-1.6a2 2 0 0 1-.5 1.8l-.8.6a2.5 2.5 0 0 1-2.2-2.4v.4a2.3 2.3 0 0 1-.8 2.1l-.7.5h-.2a1.6 1.6 0 0 1-1.2-.9h-.1V40a2 2 0 0 1-.1 1.3l-.2.2c-.1.1-.2.2-.2.3a1.4 1.4 0 0 1-1.8-.2 15.1 15.1 0 0 1 1.5 2.8h2.5v.2a3.9 3.9 0 0 0 .2 1.3c.1 0 .2 0 .2-.1v-1.6H68v1.7h.3v-1.8h1.5a3.5 3.5 0 0 0 1.4-.3v.9c0 .1.1.3.2.3h.2a5.1 5.1 0 0 1 .2-1.3 3.9 3.9 0 0 0 1.3-.6l.2-.8a.9.9 0 0 1 .1-.5 13.4 13.4 0 0 0 .1-2" fill="#980805"/>
  <path d="M30.1 75.9L28.6 77l4-1.3a38.1 38.1 0 0 1 24.5 1.1l-2.5-1.9-4.7-3.5a20 20 0 0 1-6.1.9 18.8 18.8 0 0 1-7.2-1.3l-6.5 4.9" fill="red"/>
  <path d="M20.6 55.8c-.4 1.1-.9 1-1.4-.2q-.7 2.5-2.1 0c-.2 1.8-1 2-2.4.7a27.6 27.6 0 0 0 .8 2.7 51.4 51.4 0 0 0 9.1 14.4l.8-1.4 3.4-6.4a20.5 20.5 0 0 1-5.1-10.3c-.5 1.2-1.1 1.2-1.6.1-.3 1.3-.8 1.4-1.5.4m50.9 2.1l-.3.2-.4.3c-.2.2-.5.1-.9-.1l-.2-.4h-.1v-.7l-.2.3a1.1 1.1 0 0 1-1.4-.1c0-.2-.1-.5-.1-.7v-.5l-.4.7c-.4.5-.7.5-1.2.1v-.8l-.5.6c-.3.2-.5.2-.7-.1v-.6l-.6.7H64a10.4 10.4 0 0 0-.4-1v.7a19.5 19.5 0 0 1-5.1 9.7l2.9 5.5.7 1.4a38 38 0 0 0 9.4-14.6c-.2-.3-.1-.4 0-.6z" fill="#0d3a12"/>
  <path d="M22.6 51h-1.3v1.7h-.4v-1.6h-1.2v2.1h-.3c0-.3-.1-.8-.1-1.6s.1-.3.1-.5h-1.6a4.9 4.9 0 0 0 .1 1.3v.8h-.2a3.7 3.7 0 0 1-.3-1.7V51h-1.3l-.9-.5v2.4c.1.1.1.1-.1.1s-.4-.5-.5-1.5v-1.6l-1.3-1.1a36.8 36.8 0 0 0 1.4 7.5c1.4 1.3 2.2 1.1 2.4-.7q1.3 2.5 2.1 0c.5 1.2 1 1.3 1.4.2.7 1 1.2.9 1.5-.4.5 1.1 1.1 1.1 1.6-.1s-.2-2.6-.2-4.4H23v1.8h-.3V51m-8.5-11.5v-.2l-.7-.2a16.4 16.4 0 0 0-.2 2.2c0 .6.1 1 .5 1.2l.2.2c.8.1 1.3-.2 1.4-.9v-.3c0 .1 0 .1.1.2a.4.4 0 0 0 .1.3c.4 1 1.2 1.2 2.3.7s.3-.2.4-.4.1-.2.1-.3 0 .8.3 1 0 .1.1.2 1.3.5 1.9-.3.1-.3.2-.4a1.1 1.1 0 0 0 .1 1 .5.5 0 0 0 .2.4c.5.6 1.1.5 1.8-.2a.1.1 0 0 1 .1-.1l.2-.3c-.2.7-.1 1.1.2 1.3l.4.2h.4l.9-.5.9-1.8h-.9l-.8 1h-.1a.1.1 0 0 1-.1-.1 2.3 2.3 0 0 1 .3-.9h-.9l-1.5-.4-.9-.2-1-.4a8.9 8.9 0 0 1-.5 1c-.2-.1-.2-.2-.2-.2a2.3 2.3 0 0 1 .3-.9l-1.3-.4h-.1l-.3-.2h-.7A2.5 2.5 0 0 1 17 42c-.1-.1-.2-.1-.2-.3a5.8 5.8 0 0 1 .2-1l-.6-.2-.8-.3-.7-.3a3.8 3.8 0 0 1-.6 1.4h-.2a.3.3 0 0 1-.1-.2 5.3 5.3 0 0 1 .1-1.3m58 11.4l-.7.3-.5.3-.9.5c0 .1-.1.2-.1.4l-.4 1.2h-.2v-.2a2.8 2.8 0 0 1 .2-1.1 3.2 3.2 0 0 1-.9.3h-.7a.3.3 0 0 0-.1.2c-.1.5-.2.9-.2 1h-.3v-.2a4.1 4.1 0 0 1 .1-1h-1.1a2.9 2.9 0 0 1-.5 1.4V54a5.7 5.7 0 0 1-.1-1.2h-.8v1h-.4v-.6a.8.8 0 0 1 .1-.4H64a6.6 6.6 0 0 1-.1 1.5l-.2 1.6a10.4 10.4 0 0 1 .4 1h.5l.6-.7v.6c.2.3.4.3.7.1l.5-.6v.7c.5.4.8.4 1.2-.1l.4-.7c0 .2-.1.4 0 .5s.1.5.1.7a1.1 1.1 0 0 0 1.4.1l.2-.3v.7h.1l.2.4c.4.2.7.3.9.1l.4-.3.3-.2a39.9 39.9 0 0 0 1.8-7.4l-.8.5c-.1.2-.1.4-.2.6a8.7 8.7 0 0 0-.3 1.3l-.3-.2a8.1 8.1 0 0 1 .2-.9c.1-.3.1-.5.2-.6M69.8 44h-1.5v1.7H68v-1.6h-2.9v1.4c0 .1-.1.1-.2.1a3.9 3.9 0 0 1-.2-1.3v-.2h-2.5a10.4 10.4 0 0 1 .6 1.6 1.4 1.4 0 0 1 .2.6h.6l.3-.5v.4a1.8 1.8 0 0 0 .9.7 1.2 1.2 0 0 0 .9-.6 5.8 5.8 0 0 0 .6-1.7c.3 1.6 1 2.3 2 2.3h.3c.7-.3 1.1-1.1 1.1-2.4a.8.8 0 0 0 .1.4 3 3 0 0 0 1 1.4h.9c.4-.2.7-.7 1.1-1.7l.2-1.7a3.9 3.9 0 0 1-1.3.6 5.1 5.1 0 0 0-.2 1.3h-.2c-.1 0-.2-.2-.2-.3v-.9a3.5 3.5 0 0 1-1.4.3" fill="red"/>
  <path d="M62.9 39.2a.1.1 0 0 1-.1-.1v.2c.1 0 .1.1 0 .1z" fill="#d41111"/>
  <path d="M56 34.1l.4.4c1.4 1.3 3.1.8 5.2-1.6s5-3.5 6.9-2.6 3.3 3.2 4.5 7c.1.5.2.9.3 1.5l.2.8a6.5 6.5 0 0 1-.2 2v.5l-.4 2.5c-.4 1-.7 1.6-1.1 1.7h-.5a33.5 33.5 0 0 1-.4 5.4c-.3 1.5-.6 3-1 4.6l-.4.8v.9h.1l.2.4a1 1 0 0 0 .9.1l.4-.3.3-.3a45.8 45.8 0 0 0 1.8-7.3 32 32 0 0 0 .4-6.9l-.2-4.1" fill="none" stroke="#000" stroke-linecap="round" stroke-linejoin="round" stroke-width=".4"/>
  <path d="M43.8 32.4a24.2 24.2 0 0 0-4.7.5 18.8 18.8 0 0 0-9.4 5.4l-.6.6a21.4 21.4 0 0 0-2.8 3.9l-.9 1.7a16.7 16.7 0 0 0-1.8 6.4c0 1.8.1 3.3.2 4.3a20.4 20.4 0 0 0 5.1 10.4l.8.8a19.8 19.8 0 0 0 7 4.6 18.7 18.7 0 0 0 7.1 1.3 21.1 21.1 0 0 0 6.2-.9 19.6 19.6 0 0 0 8-5l.3-.3h.1a21.1 21.1 0 0 0 5.1-9.8v-2.1a6.6 6.6 0 0 0 .1-1.5v-.3a21.5 21.5 0 0 0-.4-4.5l-.2-1.3a1.4 1.4 0 0 0-.2-.6 5.2 5.2 0 0 0-.6-1.6 15.1 15.1 0 0 0-1.5-2.8 21.6 21.6 0 0 0-2.7-3.3 19.4 19.4 0 0 0-10.4-5.6 23.4 23.4 0 0 0-3.8-.3m50.6 15l-.8.6q-1.8-.2-2.1-2.4v.4a2.9 2.9 0 0 1-.9 2.2 8.9 8.9 0 0 1 1.1 3.6v.5c.3 1.6 1 2.3 2 2.3h.2q1.2-.4 1.2-2.4v-.4a16 16 0 0 0-.1-1.7 5.5 5.5 0 0 0-.6-2.6 2.1 2.1 0 0 0 .5-1.7c.3 1.4 1.1 1.9 2.3 1.5a2.8 2.8 0 0 0 1-.9 3.3 3.3 0 0 0 .1-1.4M132 79.1v.9h.1a1.4 1.4 0 0 0 1.2.9h.2l.7-.4m-2.2-1.1v-.2M63 39.7a.4.4 0 0 0 .1.3 3.2 3.2 0 0 1-.2 1.3l-.2.2-.2.2a22 22 0 0 1 .9 2.1l.5 2.2a.5.5 0 0 0 .2.4 1.7 1.7 0 0 0 .8.7 1.2 1.2 0 0 0 .9-.6 5.8 5.8 0 0 0 .6-1.7" fill="none" stroke="#000" stroke-linecap="round" stroke-linejoin="round" stroke-width=".4"/>
  <path fill="none" stroke="#000" stroke-linecap="round" stroke-linejoin="round" stroke-width=".4" d="M63.9 46.1l-.3.5H63m-.5-4.8a1.4 1.4 0 0 1-1.8-.2m10.6 4.9h-.4a3 3 0 0 1-1-1.4.6.6 0 0 1-.1-.4m-53-8.3a11.8 11.8 0 0 0-1 3.6 10.9 10.9 0 0 0-.1 1.8.4.4 0 0 0 .1.3c.4 1 1.2 1.2 2.3.7s.3-.2.4-.4.1-.1.1-.2a3.4 3.4 0 0 0 .1-1 8.4 8.4 0 0 1 1.1-3.6 2 2 0 0 1 0-2"/>
  <path d="M18.6 42.2a1 1 0 0 0 .3 1h.1c.7.6 1.3.5 1.9-.3a.5.5 0 0 0 .2-.4h.1a1.9 1.9 0 0 1 .2-.7c.5-1.9 1-3.1 1.5-3.4a2 2 0 0 1-.4-.8v-.9l-.4.6-.9.6c-.4.2-.8 0-1.3-.5h-.1m-5.7-.5v.2a15.5 15.5 0 0 1-.4 2.1 16.4 16.4 0 0 0-.2 2.2 1.7 1.7 0 0 0 .5 1.3h.2c.8.1 1.3-.2 1.4-.9v-.3c0 .1.1.1.1.2h-.1" fill="none" stroke="#000" stroke-linecap="round" stroke-linejoin="round" stroke-width=".4"/>
  <path d="M21.1 42.6a1.4 1.4 0 0 0 .1 1.1l.2.3c.5.6 1.1.5 1.8-.2h.1l.2-.3.3-1a11.1 11.1 0 0 1 1.8-3.8 1.7 1.7 0 0 1 .1-1.2l-.6.8a1.4 1.4 0 0 1-.9.5 1.2 1.2 0 0 1-1-.1l-.3-.2" fill="none" stroke="#000" stroke-linecap="round" stroke-linejoin="round" stroke-width=".4"/>
  <path d="M29.1 38.9a3 3 0 0 1-2.5.7 1.3 1.3 0 0 1-.9-.7.4.4 0 0 1-.1-.3m-.2 5.9l-.9.5H24l-.3-.3c-.3-.2-.4-.6-.2-1.3m.3 11.9c-.5 1.3-1.1 1.3-1.6.2-.3 1.3-.8 1.4-1.5.4-.4 1.1-.9 1-1.4-.2-.5 1.7-1.1 1.7-2.1 0-.2 1.8-1 2-2.4.7a27.6 27.6 0 0 0 .8 2.7 51.4 51.4 0 0 0 9.1 14.4l4.2-7.8" fill="none" stroke="#000" stroke-linecap="round" stroke-linejoin="round" stroke-width=".4"/>
  <path d="M17.2 55.7a38.9 38.9 0 0 1-.9-4.7 42.9 42.9 0 0 1-.5-8.8m4.9 13.7a36.7 36.7 0 0 1-.3-4.6 23.7 23.7 0 0 1 .8-7.6m-2.3-.5a36.6 36.6 0 0 0-.3 8.1c.2 1.4.4 2.9.7 4.4m2.9-.2a31.1 31.1 0 0 1-.3-4.3 26.8 26.8 0 0 1 1.3-7.4m-9.7-2.4a37.8 37.8 0 0 0-.1 7.5 36.8 36.8 0 0 0 1.4 7.5m9.9 17.1a12.5 12.5 0 0 1-4.9 4.5 19 19 0 0 0-4.6 3.2A4.7 4.7 0 0 0 14 84v.4c.1.4.3.5.5.5h.5l.2-.2a7.2 7.2 0 0 1 1.1-1.9l.4-.3m1.1.7a11 11 0 0 0-1.3 2.1c0 .1-.1.2-.1.3s0 .9.6 1h.5l.2-.2.2-.3 1-1.2m-3.7-.2a3.1 3.1 0 0 0-.1 1h.1a.8.8 0 0 0 1.2-.2m1.3.9a1.2 1.2 0 0 0 .1 1.2.1.1 0 0 1 .1.1l.6.4c.3.1.6-.1 1-.4v-.2a6.6 6.6 0 0 0 .9-1.9.9.9 0 0 0 .1-.5m42.7.8a11.5 11.5 0 0 1-.6-2.6 7.4 7.4 0 0 0-2.2-3.9l-1.6-1.3-1.7-1.3a38.8 38.8 0 0 0-24.5-1.1L28.7 77h-.1c-1.9 1.6-3.3 4.1-4.3 7.4a6.6 6.6 0 0 1-1.2 2.2m5.6-9.6l8-5.9m32.8-13.8l-.2.3a.9.9 0 0 1-1.3-.1 2.5 2.5 0 0 1-.2-.7v-.5l-.5.7c-.3.4-.6.5-1.1.1v-.8l-.5.6c-.3.2-.5.2-.7-.1v-.6h-.1l-.5.5h-.5l-.3-.8m-5.3 10.3l3.6 6.9a38.8 38.8 0 0 0 9.4-14.6 1.4 1.4 0 0 1 .2-.6" fill="none" stroke="#000" stroke-linecap="round" stroke-linejoin="round" stroke-width=".4"/>
  <path d="M67.8 56.3a18.7 18.7 0 0 0 .8-3.4 19.4 19.4 0 0 0 0-5.9m-3.7.2a21.3 21.3 0 0 1 .5 5.7c-.1 1.1-.3 2.2-.5 3.4m1.4 0c.2-1.1.3-2.2.4-3.3a26.1 26.1 0 0 0-.2-7.4M50 71.5l4 3 .7.5 2.4 1.8m13.7 7.3a.8.8 0 0 0 .4.4 11.8 11.8 0 0 1 1.1 1.9l.2.3h.5c.2 0 .4-.2.5-.5v-.4a4.8 4.8 0 0 0-1.3-2.9 16.3 16.3 0 0 0-4.5-3.4 13.8 13.8 0 0 1-4.9-4.7l-.9-1.7M66.8 90h.7c.1 0 .1-.1.2-.3a1.2 1.2 0 0 0 .2-.7 8.2 8.2 0 0 1-.9-1.9c-.1-.2-.1-.4-.2-.5" fill="none" stroke="#000" stroke-linecap="round" stroke-linejoin="round" stroke-width=".4"/>
  <path d="M67.9 89v.2c.4.4.7.5 1 .4a1.2 1.2 0 0 0 .7-.5c.2-.2.2-.5 0-1.1v-.3a14.7 14.7 0 0 1-1-1.3m1.1 1.6l.3.2h.4c.6 0 .8-.3.7-.9s-.1-.2-.2-.4a9.2 9.2 0 0 0-1.3-2.1" fill="none" stroke="#000" stroke-linecap="round" stroke-linejoin="round" stroke-width=".4"/>
  <path d="M71.1 87.3a.8.8 0 0 0 1 .3h.2v-.2a1.7 1.7 0 0 0 0-1" fill="none" stroke="#000" stroke-linecap="round" stroke-linejoin="round" stroke-width=".4"/>
  <path d="M69 89.6a11.2 11.2 0 0 1 .9 3.8 19.5 19.5 0 0 1-.2 2.3 15 15 0 0 0 .2 2.2 16.3 16.3 0 0 0 .7 3l.3.9c.4 2.9-.3 6.1-2.3 9.6l.7.2v.2h.1a5.4 5.4 0 0 0 2.2-2.9 13.8 13.8 0 0 0 1.8 6.1c.1-.2.3-.2.6-.2a5.7 5.7 0 0 1-.7-3.7c1.2-4.3 1.5-7 1-8.3a6.5 6.5 0 0 1-.6-2.1 12.6 12.6 0 0 1-.4-2.8v-2.2c.1-.4.1-.8.2-1.2a14.6 14.6 0 0 0-1.6-6.9m1.6 27.4h-.1a1.6 1.6 0 0 0-.3.9 1.1 1.1 0 0 0 .3.8 1.2 1.2 0 0 0 .8.4 1.5 1.5 0 0 0 .9-.4 1.1 1.1 0 0 0 .3-.8 1.6 1.6 0 0 0-.3-.9h-.2l-.7-.2h-.1" fill="none" stroke="#000" stroke-linecap="round" stroke-linejoin="round" stroke-width=".4"/>
  <path d="M68.6 111.4h-.1l-.7.4a1.2 1.2 0 0 0 .8 2 1 1 0 0 0 .8-.4.9.9 0 0 0 .4-.8 1.1 1.1 0 0 0-.3-.8M14.9 84.9a12.4 12.4 0 0 0-2.3 7.9v2.3a28.5 28.5 0 0 1 .4 4c0 1.4-.1 2.6-.2 3.9s-.1.9-.2 1.3a11.6 11.6 0 0 0 .3 5.4 4.2 4.2 0 0 1-.1 3h.1l.6.2a12.8 12.8 0 0 0 1.1-4.9 24.2 24.2 0 0 0 2.7 4.1l.6-.2a12.4 12.4 0 0 1-2-8.3l.3-2.5v-.9c0-.4.1-.7.1-1.1s-.1-.5-.1-.8v-.9a21.3 21.3 0 0 1-.1-3.5 10.6 10.6 0 0 1 1.8-6.2" fill="none" stroke="#000" stroke-linecap="round" stroke-linejoin="round" stroke-width=".4"/>
  <path d="M17.3 112.1a.1.1 0 0 0-.1.1 1.3 1.3 0 0 0-.4.9 1.2 1.2 0 0 0 .4.8 1.2 1.2 0 0 0 1.8 0 1.2 1.2 0 0 0 .4-.8 1.3 1.3 0 0 0-.4-.9 1.8 1.8 0 0 0-.9-.4c-.1 0-.2 0-.2.1m-5.1.8h-.1a1.1 1.1 0 0 0-.7.3 1.1 1.1 0 0 0-.3.8 1.4 1.4 0 0 0 .3.9 1.4 1.4 0 0 0 .9.3 1.1 1.1 0 0 0 .8-.3 1.4 1.4 0 0 0 .3-.9 1.1 1.1 0 0 0-.3-.8l-.2-.2M26.2 22a8.2 8.2 0 0 1-4.3-1.2s.4 2.8 5.3 3.6a7.5 7.5 0 0 1 6.2 6.8 2 2 0 0 1-2 2.1 5.4 5.4 0 0 1-4-1.7c-2.3-2.4-4.6-3.4-6.9-2.8s-5.3 3.6-6.4 8.1a3 3 0 0 0 2.2-1.9.6.6 0 0 1 .1-.4 2.4 2.4 0 0 0 .4 1.8 2.3 2.3 0 0 0 1.2.6h.3a3.1 3.1 0 0 0 1.5-1.5v-.2" fill="none" stroke="#000" stroke-linecap="round" stroke-linejoin="round" stroke-width=".4"/>
  <path d="M22.2 96.1s-3.9.5-4.4 1.6-.5-5.1 2.3-9.1c.1.2 1.7 0 2.8-1.6h.4a7.2 7.2 0 0 1 .3 3.5 50.4 50.4 0 0 0-1.4 5.6zm41-10.2s-1.2 1.2-1 2.2a53 53 0 0 1 1 5.5 13.1 13.1 0 0 0 .5 2.5 8.6 8.6 0 0 1 4.6 2.6s-.8-6.7-1-7.4l-.5-1.3a7.2 7.2 0 0 1-3.6-4.1z" fill="#d09b07"/>
  <path d="M19.9 88.5a22.2 22.2 0 0 0-2.2 10.4 16.7 16.7 0 0 0 0 2.3q.9 11.1 10.2 18.6c9.5 6.5 19.6 6.5 30.3-.2a24.4 24.4 0 0 0 10-18.1c.1-1.2.1-2.4.1-3.5s-.3-2.9-.5-4.3-.6-2.5-1-3.7a3.5 3.5 0 0 1-2.2-1.7 7.2 7.2 0 0 1-1.4-2.4 3.1 3.1 0 0 0-1 2.7l1.1 5.6a6.8 6.8 0 0 1 .2 1.4 20.1 20.1 0 0 1 .1 2.5 30.3 30.3 0 0 1-.9 5.4 19.9 19.9 0 0 1-8.2 11.2 22 22 0 0 1-12.6 3.3c-10.5-1-17-6.7-19.5-17.3a15.5 15.5 0 0 1-.2-1.8 20.2 20.2 0 0 1 1-7.3c.7-1.9.6-4.1-.1-4.9l-.2.3a3.4 3.4 0 0 1-2.5 1.6h-.5l-.2-.3c-.1-.1-.1-.4-.1-.7" fill="none" stroke="#000" stroke-linecap="round" stroke-linejoin="round" stroke-width=".4"/>
  <path d="M27.5 113.8a1.4 1.4 0 0 1 .5.8.1.1 0 0 1-.1.1h-.2a.8.8 0 0 0-.3-.7 1.1 1.1 0 0 0-1.5.1 1.1 1.1 0 0 0 .1 1.4l.6.4.3-.4-.3-.3h.2l.4.4c.1 0 .1.1 0 .1l-.5.6h-.1a1.9 1.9 0 0 1-.8-.5 1.3 1.3 0 0 1 1.7-1.9zm1.1 1h.2l-1.5 1.9h-.2zm1.7 1.2a1.3 1.3 0 1 1-1.8.3 1.2 1.2 0 0 1 1.8-.3zm-1.3 1.9a1 1 0 0 0 1.4-.3 1 1 0 0 0-1.7-1.2 1.1 1.1 0 0 0 .3 1.5zm3.7-.5a1.6 1.6 0 0 1 .7.7c0 .1 0 .1-.1.1h-.2a1.2 1.2 0 0 0-.5-.5 1 1 0 0 0-1.4.4 1.1 1.1 0 0 0 .4 1.4h.9a1.1 1.1 0 0 1-1-.1 1.2 1.2 0 0 1-.5-1.4 1.2 1.2 0 0 1 1.7-.6zm0 2.8l1.9-1.9h.1v2.7h-.2v-.6l-1.1-.5-.5.4h-.2c-.1 0-.1-.1 0-.1zm1.8-.1v-1.3l-1 .9zm2.6-.9a1.3 1.3 0 1 1-1.6.9 1.3 1.3 0 0 1 1.6-.9zm-.6 2.2a1 1 0 0 0 1.3-.7 1.2 1.2 0 0 0-.8-1.3 1 1 0 0 0-1.2.7.9.9 0 0 0 .7 1.3zm2.3-1.7h.1l1.3 2.3.3-1.9h.3l-.4 2.4h-.1l-1.3-2.3-.3 1.9h-.3zm2.6.3h.3v2.2h1a.1.1 0 0 1 .1.1h-1.5zm1.7.1h.3v2.4h-.2zm1 0h.1L46 122v-2h.2l.2 2.4h-.1l-1.8-1.9.2 2h-.3zm2.7-.3c-.1 0 0-.1 0-.1l1.4-.2h.1a.1.1 0 0 1-.1.1l-1.1.2v.9l1-.2h.1c.1.1 0 .1 0 .1l-1 .2.2.9 1.1-.2h.1c.1.1 0 .1 0 .1l-1.4.3a.1.1 0 0 1-.1-.1zm3.7-1.1a1.1 1.1 0 0 1 1 .1h-.9a1 1 0 0 0-.6 1.3 1 1 0 0 0 1.3.6.7.7 0 0 0 .5-.4h.3a1.3 1.3 0 0 1-.7.6 1.3 1.3 0 1 1-.9-2.5zm2 2V118h.1l2 1.8h-.1c-.1.1-.1.1-.1 0l-.5-.4-1.2.5v.7h-.2zm1.2-1.5l-1-.8v1.3zm.2-1.8l.8-.5a.8.8 0 0 1 1.1.3.8.8 0 0 1-.1.9l.9.5h-.2l-.9-.5-.6.3.4.8h-.2zm1.5.5a.5.5 0 0 0 .1-.7.6.6 0 0 0-.7-.2l-.6.4.6.9zm.5-1.7c-.1 0-.1-.1 0-.1l.6-.5a1.3 1.3 0 0 1 1.5 2.1l-.7.5zm1.9 1.3a1 1 0 1 0-1.2-1.6l-.4.3 1.2 1.6zm1.4-1.2a1 1 0 0 0 .7-.1.6.6 0 0 0 .1-.7c-.2-.2-.4-.1-.9 0s-.7.2-.9-.1a.7.7 0 0 1 .1-1 .9.9 0 0 1 .6-.3h.1a.6.6 0 0 0-.5.2.4.4 0 0 0-.1.6c.1.2.4.2.7.1s.8-.3 1.1 0a.7.7 0 0 1-.2 1 1.1 1.1 0 0 1-.7.3c-.1.1-.1.1-.1 0z" stroke="#000" stroke-miterlimit="10" stroke-width=".1"/>
</svg>
