<svg xmlns="http://www.w3.org/2000/svg" viewBox="0 0 87 140">
  <rect width="87" height="140" rx="6" ry="6" fill="#fff"/>
  <circle cx="43.5" cy="36" r="17.4" stroke="#000" stroke-linecap="round" stroke-linejoin="round" stroke-width=".4"/>
  <path d="M47.6 29.9a.6.6 0 0 1 .7.2l.3.4a1.8 1.8 0 0 1 .5.7.5.5 0 0 1 .2.4l.3.5a1 1 0 0 0 .4-.5 3.1 3.1 0 0 0 .2 2.1 1.6 1.6 0 0 1 .4.7l.3 1.1a1.1 1.1 0 0 1-.1.5.7.7 0 0 1-.1.5l-.2.3-.3.5a.4.4 0 0 0 .1.3l.6-.2a1 1 0 0 1-.4.5 3 3 0 0 0-.5 1.6c.1.2 0 .4-.2.7a2 2 0 0 1-1.2.8l-.5.2-.4.2-.4.3a.8.8 0 0 1-.4.4 1.2 1.2 0 0 1 .8.4 1.9 1.9 0 0 0-1.9.7l-.4.3a2.4 2.4 0 0 1-1.2 0l-.6-.3h-.3c-.4-.1-.7-.1-.9.2h-.2a3.2 3.2 0 0 0-1.6-.9 2.7 2.7 0 0 1-1.3-.2l-.4-.2-.3-.3v-.2l-.3-.6c-.1-.2-.3-.4-.4-.4a3.8 3.8 0 0 1-1.2-1.7 1.4 1.4 0 0 1-.2-.7 9.1 9.1 0 0 0 .1-1.7.5.5 0 0 0-.4-.6.5.5 0 0 0-.4.7l-.2-.2v-.6a3.5 3.5 0 0 1 .7-.9l.4-.6a.6.6 0 0 0 .1-.6v-.6c-.1-.3-.1-.4 0-.5a1.8 1.8 0 0 1 .8-.9h.4a.1.1 0 0 1 .1-.1h.2c.1 0 .1 0 .1-.1h.3a.8.8 0 0 0-.2-.6H38v-.3l.2-.4h1.1a3.4 3.4 0 0 0 1.4-.5l.4-.3 1.2-.9.6-.3h.7a2.4 2.4 0 0 1 .8.9c0 .1.1 0 .2-.1s.1-.5 0-.6-.1-.5 0-.5a.9.9 0 0 1 .6.3 7.5 7.5 0 0 0 1.4 1.2 2.1 2.1 0 0 0 1 .5z" fill="none" stroke="#000" stroke-linecap="round" stroke-linejoin="round" stroke-width=".4"/>
  <path d="M48.2 29h-.6l-.3-.3-.7-.6a2.5 2.5 0 0 0-1.6-.6 4.4 4.4 0 0 0-2-.1l-1.5.5a.5.5 0 0 0-.4.2l-.4.3h-.2a2 2 0 0 1-.1-.5l-.3.2a2.8 2.8 0 0 1-.8.6l-.5.3a1.5 1.5 0 0 0-.9.6l-.9.8a2.4 2.4 0 0 0-.5 1l-.5 1c0 .1-.1.2-.2.3h-.6a1.1 1.1 0 0 0 .1.8h.1a2.4 2.4 0 0 1-.2.8.8.8 0 0 1-.2.4 1.4 1.4 0 0 1-.2.7 2.1 2.1 0 0 0 .2 1.7 5.7 5.7 0 0 0 .8 1.3 1.3 1.3 0 0 1 .1.6h-.5c-.2 0-.1 0 .1.2a8.6 8.6 0 0 1 1.3 1.8c0 .1 0 .2.2.4l.3.7.7.9.6.3h1.2l-.3.6a5.4 5.4 0 0 1 1.8 0l1.4.6h.3a5.2 5.2 0 0 0 2.5-.3 3.5 3.5 0 0 0 1.2-.7 1.2 1.2 0 0 0 .5.5h.1a1.3 1.3 0 0 1 .8-1.2l.4-.3.3-.2.5-.3h.3l.9-1.2a.9.9 0 0 0 .3-.7c.1-.4.1-.6.3-.5h.6a2 2 0 0 1-.2-1 1.1 1.1 0 0 0 .1-.5c.1-.1.1-.3.2-.5a1.9 1.9 0 0 1 .2-.6l.3-.7a4.7 4.7 0 0 0-.2-1.7 1.8 1.8 0 0 0-.5-.7l.3-.4h.2a.8.8 0 0 1-.7-.4l-.3-.4c-.1-.1-.1-.2-.2-.4a4.3 4.3 0 0 0-.1-.5 2.1 2.1 0 0 0-.4-.6 2.4 2.4 0 0 0-1.4-1.4c-.2 0-.2 0 0-.2v-.4z" fill="none" stroke="#000" stroke-linecap="round" stroke-linejoin="round" stroke-width=".4"/>
  <path d="M48.1 40.6a6 6 0 0 1-4.6 1.9 6.2 6.2 0 0 1-4.6-1.9 6.5 6.5 0 0 1 4.6-11.1 6.4 6.4 0 0 1 4.6 1.9 6.5 6.5 0 0 1 0 9.2z" fill="none" stroke="#000" stroke-linecap="round" stroke-linejoin="round" stroke-width=".4"/>
  <path d="M50 29.5a9.1 9.1 0 0 1 0 13.1 8.8 8.8 0 0 1-6.5 2.8 9 9 0 0 1-6.5-2.8 9.3 9.3 0 0 1 0-13.1 8.9 8.9 0 0 1 6.5-2.7 8.8 8.8 0 0 1 6.5 2.7z" fill="none" stroke="#000" stroke-linecap="round" stroke-linejoin="round" stroke-width=".4"/>
  <path d="M50.9 28.6a10.1 10.1 0 0 1 3.2 7.5 9.9 9.9 0 0 1-3.2 7.4 9.8 9.8 0 0 1-7.4 3.1 10.6 10.6 0 0 1-10.6-10.5 10.4 10.4 0 0 1 3.1-7.5 10.2 10.2 0 0 1 7.5-3.1 9.8 9.8 0 0 1 7.4 3.1z" fill="none" stroke="#000" stroke-linecap="round" stroke-linejoin="round" stroke-width=".4"/>
  <path d="M62.2 36a17.7 17.7 0 0 1-5.5 13.2 18 18 0 0 1-13.2 5.5 18 18 0 0 1-13.2-5.5A17.7 17.7 0 0 1 24.8 36a17.7 17.7 0 0 1 5.5-13.2 18 18 0 0 1 13.2-5.5 18 18 0 0 1 13.2 5.5A17.7 17.7 0 0 1 62.2 36z" fill="none" stroke="#000" stroke-linecap="round" stroke-linejoin="round" stroke-width=".3"/>
  <path d="M63.7 36a19.7 19.7 0 0 1-5.9 14.3 19.6 19.6 0 0 1-14.3 5.9 19.6 19.6 0 0 1-14.3-5.9A19.3 19.3 0 0 1 23.3 36a19.2 19.2 0 0 1 5.9-14.3 19.2 19.2 0 0 1 14.3-5.9 19.2 19.2 0 0 1 14.3 5.9A19.6 19.6 0 0 1 63.7 36z" fill="none" stroke="#000" stroke-linecap="round" stroke-linejoin="round" stroke-width=".6"/>
  <circle cx="49.8" cy="21.5" r="1" fill="#fbc219"/>
  <circle cx="57.8" cy="30.1" r="1" fill="#fbc219"/>
  <circle cx="57.8" cy="42.1" r="1" fill="#fbc219"/>
  <circle cx="29" cy="30.1" r="1" fill="#fbc219"/>
  <circle cx="29" cy="42.1" r="1" fill="#fbc219"/>
  <circle cx="49.8" cy="50.5" r="1" fill="#fbc219"/>
  <circle cx="36.8" cy="21.5" r="1" fill="#fbc219"/>
  <circle cx="36.8" cy="50.5" r="1" fill="#fbc219"/>
  <path d="M39.6 26.2c-2.5-4.4 1-5.6 2.4-6s1.5-1.2 1.5-1.2a2.7 2.7 0 0 0 2.2 1.3c1.6.2 3.9 1.5 2.2 6a9.2 9.2 0 0 0-4.3-.9 16.6 16.6 0 0 0-4 .8z" fill="#fbc219"/>
  <path d="M47.9 26.3c1.5-4.5 4.7-3 5.9-2.3s1.7.2 1.7.2a2.4 2.4 0 0 0 .4 2.3c1 1.3 1.3 3.8-2.2 5.7a18.7 18.7 0 0 0-2.7-3.5c-1.5-1.4-1.2-1.5-3.1-2.4z" fill="#fbc219"/>
  <path d="M53.7 32.1c4.3-2.1 5.4 1.3 5.7 2.7s1.1 1.5 1.1 1.5a2.3 2.3 0 0 0-1.3 2c-.3 1.5-2 3.6-6 2.4a15.8 15.8 0 0 0 1-4.6 15.1 15.1 0 0 0-.5-4z" fill="#fbc219"/>
  <path d="M53.3 40.6c4.5 1.7 2.8 4.9 2.1 6.1s-.4 1.7-.4 1.7a2.7 2.7 0 0 0-2.4.3c-1.3.9-3.9 1.4-5.3-2.9a12.6 12.6 0 0 0 3.6-2.2c1.4-1.4 1.4-1.1 2.4-3z" fill="#fbc219"/>
  <path d="M47.3 45.8c2.4 4.6-1 5.7-2.5 6.2s-1.5 1.2-1.5 1.2a2.4 2.4 0 0 0-2.1-1.4c-1.7-.2-3.9-1.6-2.2-6.2a10.1 10.1 0 0 0 4.3.7 11.8 11.8 0 0 0 4-.5z" fill="#fbc219"/>
  <path d="M39.2 45.6c-1.7 4.8-4.7 3.2-6 2.4s-1.8-.4-1.8-.4a2.7 2.7 0 0 0-.4-2.5c-1-1.4-1.6-4.1 3-5.8a10.7 10.7 0 0 0 2.2 4.1 6.7 6.7 0 0 0 3 2.2z" fill="#fbc219"/>
  <path d="M33.8 39.5c-4.6 2.1-5.5-1-5.9-2.4s-1.2-1.4-1.2-1.4a2.3 2.3 0 0 0 1.4-2c.3-1.5 1.7-3.6 6.1-1.9a10.4 10.4 0 0 0-1.1 4.1c.1 1.9.2 1.3.7 3.6z" fill="#fbc219"/>
  <path d="M34 31.8c-4.5-2-3.1-5.1-2.4-6.3s.2-1.6.2-1.6a2 2 0 0 0 2.1-.3c1.3-.8 3.8-.9 5.8 2.6a15.9 15.9 0 0 0-3.6 2.3c-1.4 1.4-1.2 1.4-2.1 3.3z" fill="#fbc219"/>
  <path d="M40.9 26.3c-1.6-3.3.6-4.1 1.6-4.4s1-.9 1-.9a1.6 1.6 0 0 0 1.4 1c1.1.1 2.6 1.1 1.5 4.4a6.3 6.3 0 0 0-2.9-.7 9.6 9.6 0 0 0-2.6.6zm8 1.2c1.1-2.7 2.9-2 3.6-1.6a1.1 1.1 0 0 0 1.1 0 1.4 1.4 0 0 0 .1 1.4c.5.7.5 2.1-1.6 3.4a11.6 11.6 0 0 0-1.5-2c-.8-.7-.6-.8-1.7-1.2zm4.7 6.6c2.9-1.1 3.6.7 3.8 1.4s.8.7.8.7a1.2 1.2 0 0 0-.9 1c-.2.8-1.3 1.8-3.9 1.2a6.8 6.8 0 0 0 .6-2.3 5.1 5.1 0 0 0-.4-2zm-1.2 7.4c3 1.4 2.1 3.5 1.6 4.3s-.1 1.2-.1 1.2a1.7 1.7 0 0 0-1.6.1c-.8.5-2.6.8-3.7-2.2a7.2 7.2 0 0 0 2.3-1.4 4.4 4.4 0 0 0 1.5-2zm-6.9 4.4c1.3 3.3-.6 4.1-1.4 4.4s-.9.9-.9.9a1.4 1.4 0 0 0-1.2-1c-.9-.2-2.2-1.1-1.2-4.4a5.2 5.2 0 0 0 2.4.5 5.1 5.1 0 0 0 2.3-.4zm-7.2-1.3c-1.4 3.1-3.2 2.3-4 1.8s-1.2-.1-1.2-.1a1.7 1.7 0 0 0-.1-1.6c-.6-.8-.9-2.6 2.1-3.8a6.3 6.3 0 0 0 1.3 2.5c.9.9.6.7 1.9 1.2zm-4.5-6.4c-3.3 1.2-4-.6-4.3-1.4s-.9-.9-.9-.9a1.5 1.5 0 0 0 1.1-1.1c.1-.9 1.2-2.2 4.4-1.1a4.1 4.1 0 0 0-.8 2.4 5.8 5.8 0 0 0 .5 2.1zm1.5-7.4c-3.1-1.6-2.4-3.5-2-4.3s.1-1.1.1-1.1a1.1 1.1 0 0 0 1.3 0c.8-.5 2.4-.4 3.9 2a6.2 6.2 0 0 0-2.2 1.4c-.8.8-.7.8-1.1 2z" fill="#d09b07"/>
  <path d="M51.5 28l-1.1-.9a10.4 10.4 0 0 0-6.9-2.4 11.2 11.2 0 0 0-8 3.3 10.2 10.2 0 0 0-2.3 3.4 10 10 0 0 0-1 4.6 10.6 10.6 0 0 0 .4 3.1 11.2 11.2 0 0 0 2.9 4.9 9.8 9.8 0 0 0 4.1 2.7 12.3 12.3 0 0 0 3.9.6 11.1 11.1 0 0 0 6.7-2.1l1.3-1.2a10.7 10.7 0 0 0 3.3-8 10.9 10.9 0 0 0-3.3-8" fill="#fbc219" stroke="#000" stroke-miterlimit="10" stroke-width=".4"/>
  <path d="M50.1 29.2a9.1 9.1 0 0 1 2.8 6.8 9.2 9.2 0 0 1-.8 4 9.4 9.4 0 0 1-2 2.7l-.3.3a8.9 8.9 0 0 1-6.3 2.5 7.8 7.8 0 0 1-3.1-.6 9.7 9.7 0 0 1-3.6-2.2 9.2 9.2 0 0 1-2.5-4.5 7.8 7.8 0 0 1-.2-2.2 7.9 7.9 0 0 1 .8-3.8 9 9 0 0 1 4.2-4.6 9.4 9.4 0 0 1 11 1.6" fill="#fbc219"/>
  <path d="M49.1 29.2V29h-.7l-.6-.2-.3-.3-.8-.6a3.3 3.3 0 0 0-1.6-.7 6.7 6.7 0 0 0-2 0l-1.6.5-.4.2q-.2 0-.3.3h-.3a2 2 0 0 1-.1-.5l-.3.2c-.1.2-.3.3-.6.5h-.2l-.6.3a4.7 4.7 0 0 0-.9.6l-.8.8a3 3 0 0 0-.6 1.1 3.4 3.4 0 0 1-.5 1.1.4.4 0 0 1-.1.3h-.4l-.3.2a1.1 1.1 0 0 0 .2.8 1.2 1.2 0 0 1-.2.8c0 .2-.1.3-.1.5l-.3.6a2 2 0 0 0 .2 1.7l.2.4.6 1a.7.7 0 0 1 .1.6h-.5c-.1 0-.1 0 .1.2a6.1 6.1 0 0 1 1.3 1.5l.2.3.3.7a2.4 2.4 0 0 0 .8.9l.6.3h1.2l-.3.7a3.2 3.2 0 0 1 1.4-.1h.4l1.4.6h.3a5.4 5.4 0 0 0 2.5-.3 2.5 2.5 0 0 0 1.2-.8.9.9 0 0 0 .6.6h.1a1.3 1.3 0 0 1 .8-1.3l.3-.2.4-.2.4-.3c.2 0 .3-.1.3-.2l.3-.3.7-.9a.9.9 0 0 0 .3-.7c.1-.4.1-.6.3-.5h.6a1.2 1.2 0 0 1-.1-1v-.5c.1-.2.2-.3.2-.5a1.4 1.4 0 0 1 .2-.7 2.6 2.6 0 0 0 .3-.8 3.2 3.2 0 0 0-.2-1.7 1.8 1.8 0 0 0-.5-.7l.3-.4h.2a.8.8 0 0 1-.7-.4l-.3-.4c-.1-.1-.1-.3-.2-.4a4.3 4.3 0 0 0-.1-.5l-.4-.7a1.2 1.2 0 0 0-.5-.5 2.2 2.2 0 0 0-.9-.7c-.2 0-.2 0-.1-.1a.4.4 0 0 0 .1-.3" fill="#fbc219"/>
  <path d="M50 31.6a.1.1 0 0 1 .1-.1.4.4 0 0 0-.1.3v.5a3.5 3.5 0 0 0 .3 1.3 1.6 1.6 0 0 1 .4.7l.3 1.1a.9.9 0 0 1-.1.5 1.3 1.3 0 0 1-.1.6l-.2.3-.3.4a.4.4 0 0 0 .1.3h.6l-.4.5a2.5 2.5 0 0 0-.4 1.2.6.6 0 0 0-.1.4c.1.2 0 .4-.2.7a3.4 3.4 0 0 1-1.2.9.7.7 0 0 0-.6.2h-.4l-.3.3a.7.7 0 0 1-.5.4 2 2 0 0 1 .8.4v.2a1.6 1.6 0 0 0-1.8.7l-.5.3a1.7 1.7 0 0 1-1.2-.1.9.9 0 0 1-.6-.3h-.1l-.3-.2a.9.9 0 0 0-.9.2h-.1l-1-.7-.7-.2-1.3-.2-.4-.3q-.1 0-.3-.3a.9.9 0 0 1-.3-.6 1.2 1.2 0 0 0-.5-.5 6.6 6.6 0 0 1-1.2-1.7 1.7 1.7 0 0 1-.1-.7v-1.7c0-.3-.1-.5-.4-.5s-.5.3-.4.6v-.8l.6-.9a.9.9 0 0 0 .4-.6c.2-.1.2-.3.2-.6a1.3 1.3 0 0 0-.1-.6v-.5a2.7 2.7 0 0 1 .8-1h.9l.2-.2h.1a.8.8 0 0 0-.2-.5H38c0-.1 0-.2-.1-.2s.2-.3.2-.5h2l.6-.3.4-.3 1.2-1 .7-.3h.7a2.4 2.4 0 0 1 .8.9h.2q.1-.4 0-.6c-.1-.3-.1-.5 0-.5l.6.3a7.5 7.5 0 0 0 1.4 1.2 2.7 2.7 0 0 0 1 .6.8.8 0 0 1 .8.3q0 .2.3.3a5.6 5.6 0 0 1 .5.8l.2.3a1.4 1.4 0 0 1 .2.6l.4-.4" fill="#fbc219"/>
  <path d="M50.1 35.9a3.2 3.2 0 0 0-.2-1.4 5.9 5.9 0 0 0-1.7-3.2 6.5 6.5 0 0 0-4.7-2 5.2 5.2 0 0 0-3.3 1 4.1 4.1 0 0 0-1.4 1 6.6 6.6 0 0 0-1.4 2 7.5 7.5 0 0 0-.5 2.6v.6a6.8 6.8 0 0 0 1.9 4.1 5.7 5.7 0 0 0 4.7 1.9 6.4 6.4 0 0 0 4.7-1.9 5.9 5.9 0 0 0 1.3-1.8 5.6 5.6 0 0 0 .4-1.2 4.7 4.7 0 0 0 .2-1.7z" fill="#fbc219"/>
  <path d="M50.1 29.3a9.4 9.4 0 0 0-11-1.6 9 9 0 0 0-4.2 4.6 7.9 7.9 0 0 0-.8 3.8 7.8 7.8 0 0 0 .2 2.2 9.2 9.2 0 0 0 2.5 4.5 9.7 9.7 0 0 0 3.6 2.2 7.8 7.8 0 0 0 3.1.6 8.9 8.9 0 0 0 6.3-2.6l.3-.3a9.4 9.4 0 0 0 2-2.7 9.2 9.2 0 0 0 .8-4 9.1 9.1 0 0 0-2.8-6.7M49 29v.2a.4.4 0 0 1-.1.3c-.1.1-.1.1.1.1a2.2 2.2 0 0 1 .9.7 1.2 1.2 0 0 1 .5.5l.4.7a4.3 4.3 0 0 1 .1.5c.1.1.1.3.2.4l.3.4a.8.8 0 0 0 .7.4H52l-.3.4a1.8 1.8 0 0 1 .5.7 3.2 3.2 0 0 1 .2 1.7 2.6 2.6 0 0 1-.3.8 1.4 1.4 0 0 0-.2.7c0 .2-.1.3-.2.5v.5a1.2 1.2 0 0 0 .1 1h-.6c-.2-.1-.2.1-.3.5a.9.9 0 0 1-.3.7l-.7.9-.3.3c0 .1-.1.2-.3.2l-.4.3-.4.2-.3.2a1.3 1.3 0 0 0-.8 1.3h-.1a.9.9 0 0 1-.6-.6 2.5 2.5 0 0 1-1.2.8 5.4 5.4 0 0 1-2.5.3h-.4l-1.4-.6h-.4a3.2 3.2 0 0 0-1.4.1l.3-.7h-1.2l-.6-.3a2.4 2.4 0 0 1-.8-.9l-.3-.7-.2-.3a6.1 6.1 0 0 0-1.3-1.5c-.2-.2-.2-.2-.1-.2h.5a.7.7 0 0 0-.1-.6l-.6-1-.2-.4a2 2 0 0 1-.2-1.7l.3-.6c0-.2.1-.3.1-.5a1.2 1.2 0 0 0 .2-.8 1.1 1.1 0 0 1-.2-.8l.3-.2h.4a.4.4 0 0 0 .1-.3 3.4 3.4 0 0 0 .5-1.1 3 3 0 0 1 .6-1.1l.8-.8a4.7 4.7 0 0 1 .9-.6l.6-.3h.2c.3-.2.5-.3.6-.5l.3-.2a2 2 0 0 0 .1.5h.3q.1-.3.3-.3l.4-.2 1.6-.5a6.7 6.7 0 0 1 2 0 3.3 3.3 0 0 1 1.6.7l.8.6.3.3.6.2h.7m1.1 2.5a.1.1 0 0 0-.1.1l-.4.4a1.4 1.4 0 0 0-.2-.6l-.2-.3a5.6 5.6 0 0 0-.5-.8q-.3-.2-.3-.3a.8.8 0 0 0-.8-.3 2.7 2.7 0 0 1-1-.6 7.5 7.5 0 0 1-1.4-1.2l-.6-.3c-.1 0-.1.2 0 .5s.1.3 0 .6h-.2a2.4 2.4 0 0 0-.8-.9h-.7l-.7.3-1.2 1-.4.3-.6.3h-2c0 .2-.1.3-.2.5s.1.1.1.2h.5a.8.8 0 0 1 .2.5h-.1l-.2.2h-.9a2.7 2.7 0 0 0-.8 1v.6a1.3 1.3 0 0 1 .1.6c0 .3 0 .5-.2.6a.9.9 0 0 1-.4.6l-.6.9v.8c-.1-.3.1-.5.4-.6s.4.2.4.5v1.8a1.7 1.7 0 0 0 .1.7 6.6 6.6 0 0 0 1.2 1.7 1.2 1.2 0 0 1 .5.5.9.9 0 0 0 .3.6q.2.3.3.3l.4.3 1.3.2.7.2 1 .7h.1a.9.9 0 0 1 .9-.2l.3.2h.1a.9.9 0 0 0 .6.3 1.7 1.7 0 0 0 1.2.1l.5-.3a1.6 1.6 0 0 1 1.8-.7v-.2a2 2 0 0 0-.8-.4.7.7 0 0 0 .5-.4l.3-.3h.4a.7.7 0 0 1 .6-.2 3.4 3.4 0 0 0 1.2-.9c.2-.3.3-.5.2-.7a.6.6 0 0 1 .1-.4 2.5 2.5 0 0 1 .4-1.2l.4-.5h-.6a.4.4 0 0 1-.1-.3l.3-.4.2-.3a1.3 1.3 0 0 0 .1-.6.9.9 0 0 0 .1-.5l-.3-1.1a1.6 1.6 0 0 0-.4-.7 3.5 3.5 0 0 1-.3-1.3v-.5a.4.4 0 0 1 .1-.3m-.2 3A3.2 3.2 0 0 1 50 36a4.7 4.7 0 0 1-.2 1.7 5.6 5.6 0 0 1-.4 1.2 5.9 5.9 0 0 1-1.3 1.8 6.4 6.4 0 0 1-4.7 1.9 5.7 5.7 0 0 1-4.7-1.9 6.8 6.8 0 0 1-1.9-4.1V36a7.5 7.5 0 0 1 .5-2.6 6.6 6.6 0 0 1 1.4-2 4.1 4.1 0 0 1 1.4-1 5.2 5.2 0 0 1 3.3-1 6.5 6.5 0 0 1 4.7 2 5.9 5.9 0 0 1 1.8 3.1z"/>
  <path d="M39.1 34.8s1 1.2 3.2.2a1.9 1.9 0 0 0-3.2-.2z" fill="none" stroke="#000" stroke-linecap="round" stroke-linejoin="round" stroke-width=".3"/>
  <ellipse cx="40.7" cy="34.8" rx=".7" ry=".7"/>
  <circle cx="40.6" cy="34.4" r=".2" fill="#fff"/>
  <path d="M38.9 34a2.4 2.4 0 0 1 3 .5m6 .4s-1 1.2-3.2.2a1.9 1.9 0 0 1 3.2-.2z" fill="none" stroke="#000" stroke-linecap="round" stroke-linejoin="round" stroke-width=".3"/>
  <ellipse cx="46.3" cy="34.8" rx=".7" ry=".7"/>
  <circle cx="46.4" cy="34.4" r=".2" fill="#fff"/>
  <path d="M48.1 34.1a2.4 2.4 0 0 0-3 .5m-6.1-2s2.9-.1 3.3 0 .8.8.8 1.2a8.1 8.1 0 0 1 0 1.6" fill="none" stroke="#000" stroke-linecap="round" stroke-linejoin="round" stroke-width=".3"/>
  <path d="M47.6 32.7a8.2 8.2 0 0 0-2.9 0c-.5.2-.4.4-.5.7a24.2 24.2 0 0 0 0 2.7m-2 .9s.7.3.8.6a.8.8 0 0 0 .8.1 2.3 2.3 0 0 1 1-.5c.3-.1 0-.6 0-.6m-.8 2.2a.7.7 0 0 1-.4.2c-.2 0-.3-.3-.5-.3s-.5.3-.8.4h-.9c2.7.6 3.9 0 3.9 0a2 2 0 0 1-.8-.3c-.2 0-.4-.1-.5 0z" fill="none" stroke="#000" stroke-linecap="round" stroke-linejoin="round" stroke-width=".3"/>
  <path d="M45 39.4s-.6 1.1-1.5 1.2a1.9 1.9 0 0 1-1.2-.7 3.1 3.1 0 0 0-.6-.6" fill="none" stroke="#000" stroke-linecap="round" stroke-linejoin="round" stroke-width=".3"/>
  <circle cx="43.5" cy="104" r="17.4" stroke="#000" stroke-linecap="round" stroke-linejoin="round" stroke-width=".4"/>
  <path d="M47.6 97.9a.6.6 0 0 1 .7.2l.3.4a1.8 1.8 0 0 1 .5.7.5.5 0 0 1 .2.4l.3.5a1 1 0 0 0 .4-.5 3.1 3.1 0 0 0 .2 2.1 1.6 1.6 0 0 1 .4.7l.3 1.1a1.1 1.1 0 0 1-.1.5.7.7 0 0 1-.1.5l-.2.3-.3.5a.4.4 0 0 0 .1.3l.6-.2a1 1 0 0 1-.4.5 3 3 0 0 0-.5 1.6c.1.2 0 .4-.2.7a2 2 0 0 1-1.2.8l-.5.2-.4.2-.4.3a.8.8 0 0 1-.4.4 1.2 1.2 0 0 1 .8.4 1.9 1.9 0 0 0-1.9.7l-.4.3a2.4 2.4 0 0 1-1.2 0l-.6-.3h-.3c-.4-.1-.7-.1-.9.2h-.2a3.2 3.2 0 0 0-1.6-.9 2.7 2.7 0 0 1-1.3-.2l-.4-.2-.3-.3v-.2l-.3-.6c-.1-.2-.3-.4-.4-.4a3.8 3.8 0 0 1-1.2-1.7 1.4 1.4 0 0 1-.2-.7 9.1 9.1 0 0 0 .1-1.7.5.5 0 0 0-.4-.6.5.5 0 0 0-.4.7l-.2-.2v-.6a3.5 3.5 0 0 1 .7-.9l.4-.6a.6.6 0 0 0 .1-.6v-.6c-.1-.3-.1-.4 0-.5a1.8 1.8 0 0 1 .8-.9h.8c.2 0 .2 0 .2-.1h.1a.8.8 0 0 0-.2-.6H38v-.3a.8.8 0 0 1 .2-.4h1.1a3.4 3.4 0 0 0 1.4-.5l.4-.3 1.2-.9.6-.3h.7a2.4 2.4 0 0 1 .8.9h.2q.1-.5 0-.6c-.1-.3-.1-.5 0-.5l.6.3a7.5 7.5 0 0 0 1.4 1.2 2.1 2.1 0 0 0 1 .3z" fill="none" stroke="#000" stroke-linecap="round" stroke-linejoin="round" stroke-width=".4"/>
  <path d="M48.2 97h-.6l-.3-.3-.7-.6a2.5 2.5 0 0 0-1.6-.6 4.4 4.4 0 0 0-2-.1l-1.5.5a.5.5 0 0 0-.4.2l-.4.3h-.1a.1.1 0 0 1-.1-.1 2 2 0 0 1-.1-.5l-.3.2a2.8 2.8 0 0 1-.8.6l-.5.3a1.5 1.5 0 0 0-.9.6l-.9.8a2.4 2.4 0 0 0-.5 1l-.5 1.1-.2.3h-.6a1.1 1.1 0 0 0 .1.8h.1a2.4 2.4 0 0 1-.2.8.8.8 0 0 1-.2.4 1.4 1.4 0 0 1-.2.7 2.1 2.1 0 0 0 .2 1.7 5.7 5.7 0 0 0 .8 1.3 1.3 1.3 0 0 1 .1.6h-.5c-.2 0-.1 0 .1.2a8.6 8.6 0 0 1 1.3 1.4c0 .1 0 .2.2.4l.3.7.7.9.6.3h1.2l-.3.6a5.4 5.4 0 0 1 1.8 0l1.4.6h.3a5.2 5.2 0 0 0 2.5-.3 3.5 3.5 0 0 0 1.2-.7 1.2 1.2 0 0 0 .5.5h.1a1.3 1.3 0 0 1 .8-1.2l.4-.3.3-.2.5-.3h.3l.9-1.2a.9.9 0 0 0 .3-.7c.1-.4.1-.6.3-.5h.6a2 2 0 0 1-.2-1 1.1 1.1 0 0 0 .1-.5c.1-.1.1-.3.2-.5a1.9 1.9 0 0 1 .2-.7l.3-.7a4.7 4.7 0 0 0-.2-1.7 1.8 1.8 0 0 0-.5-.7l.3-.4h.2a.8.8 0 0 1-.7-.4l-.3-.4c-.1-.1-.1-.2-.2-.4a4.3 4.3 0 0 0-.1-.5l-.4-.6a2.4 2.4 0 0 0-1.4-.9c-.2 0-.2 0 0-.2v-.4z" fill="none" stroke="#000" stroke-linecap="round" stroke-linejoin="round" stroke-width=".4"/>
  <path d="M48.1 108.6a6 6 0 0 1-4.6 1.9 6.2 6.2 0 0 1-4.6-1.9 6.5 6.5 0 0 1 4.6-11.1 6.4 6.4 0 0 1 4.6 1.9 6.5 6.5 0 0 1 0 9.2z" fill="none" stroke="#000" stroke-linecap="round" stroke-linejoin="round" stroke-width=".4"/>
  <path d="M50 97.5a9.1 9.1 0 0 1 0 13.1 8.8 8.8 0 0 1-6.5 2.8 9 9 0 0 1-6.5-2.8 9.3 9.3 0 0 1 6.5-15.8 8.8 8.8 0 0 1 6.5 2.7z" fill="none" stroke="#000" stroke-linecap="round" stroke-linejoin="round" stroke-width=".4"/>
  <path d="M50.9 96.6a10.1 10.1 0 0 1 3.2 7.5 9.9 9.9 0 0 1-3.2 7.4 9.8 9.8 0 0 1-7.4 3.1 10.6 10.6 0 0 1-10.6-10.5 10.4 10.4 0 0 1 3.1-7.5 10.2 10.2 0 0 1 7.5-3.1 9.8 9.8 0 0 1 7.4 3.1z" fill="none" stroke="#000" stroke-linecap="round" stroke-linejoin="round" stroke-width=".4"/>
  <path d="M62.2 104a17.7 17.7 0 0 1-5.5 13.2 18 18 0 0 1-13.2 5.5 18 18 0 0 1-13.2-5.5 18.6 18.6 0 0 1 0-26.4 18 18 0 0 1 13.2-5.5 18 18 0 0 1 13.2 5.5 17.7 17.7 0 0 1 5.5 13.2z" fill="none" stroke="#000" stroke-linecap="round" stroke-linejoin="round" stroke-width=".3"/>
  <path d="M63.7 104a20.1 20.1 0 0 1-20.2 20.2 19.6 19.6 0 0 1-14.3-5.9 20.3 20.3 0 0 1 0-28.6 19.2 19.2 0 0 1 14.3-5.9 19.2 19.2 0 0 1 14.3 5.9 19.6 19.6 0 0 1 5.9 14.3z" fill="none" stroke="#000" stroke-linecap="round" stroke-linejoin="round" stroke-width=".6"/>
  <circle cx="49.8" cy="89.5" r="1" fill="#fbc219"/>
  <circle cx="57.8" cy="98.1" r="1" fill="#fbc219"/>
  <circle cx="57.8" cy="110.1" r="1" fill="#fbc219"/>
  <circle cx="29" cy="98.1" r="1" fill="#fbc219"/>
  <circle cx="29" cy="110.1" r="1" fill="#fbc219"/>
  <circle cx="49.8" cy="118.5" r="1" fill="#fbc219"/>
  <circle cx="36.8" cy="89.5" r="1" fill="#fbc219"/>
  <circle cx="36.8" cy="118.5" r="1" fill="#fbc219"/>
  <path d="M39.6 94.2c-2.5-4.4 1-5.6 2.4-6s1.5-1.2 1.5-1.2a2.7 2.7 0 0 0 2.2 1.3c1.6.2 3.9 1.5 2.2 6a9.2 9.2 0 0 0-4.3-.9 16.6 16.6 0 0 0-4 .8z" fill="#fbc219"/>
  <path d="M47.9 94.3c1.5-4.5 4.7-3 5.9-2.3s1.7.2 1.7.2a2.4 2.4 0 0 0 .4 2.3c1 1.3 1.3 3.8-2.2 5.7a18.7 18.7 0 0 0-2.7-3.5c-1.5-1.4-1.2-1.5-3.1-2.4z" fill="#fbc219"/>
  <path d="M53.7 100.1c4.3-2.1 5.4 1.3 5.7 2.7s1.1 1.5 1.1 1.5a2.3 2.3 0 0 0-1.3 2c-.3 1.5-2 3.6-6 2.4a15.8 15.8 0 0 0 1-4.6 15.1 15.1 0 0 0-.5-4z" fill="#fbc219"/>
  <path d="M53.3 108.6c4.5 1.7 2.8 4.9 2.1 6.1s-.4 1.7-.4 1.7a2.7 2.7 0 0 0-2.4.3c-1.3.9-3.9 1.4-5.3-2.9a12.6 12.6 0 0 0 3.6-2.2c1.4-1.4 1.4-1.1 2.4-3z" fill="#fbc219"/>
  <path d="M47.3 113.8c2.4 4.6-1 5.7-2.5 6.2s-1.5 1.2-1.5 1.2a2.4 2.4 0 0 0-2.1-1.4c-1.7-.2-3.9-1.6-2.2-6.2a10.1 10.1 0 0 0 4.3.7 11.8 11.8 0 0 0 4-.5z" fill="#fbc219"/>
  <path d="M39.2 113.6c-1.7 4.8-4.7 3.2-6 2.4s-1.8-.4-1.8-.4a2.7 2.7 0 0 0-.4-2.5c-1-1.4-1.6-4.1 3-5.8a10.7 10.7 0 0 0 2.2 4.1 6.7 6.7 0 0 0 3 2.2z" fill="#fbc219"/>
  <path d="M33.8 107.5c-4.6 2.1-5.5-1-5.9-2.4s-1.2-1.4-1.2-1.4a2.3 2.3 0 0 0 1.4-2c.3-1.5 1.7-3.6 6.1-1.9a10.4 10.4 0 0 0-1.1 4.1c.1 1.9.2 1.3.7 3.6z" fill="#fbc219"/>
  <path d="M34 99.8c-4.5-2-3.1-5.1-2.4-6.3s.2-1.6.2-1.6a2 2 0 0 0 2.1-.3c1.3-.8 3.8-.9 5.8 2.6a15.9 15.9 0 0 0-3.6 2.3c-1.4 1.4-1.2 1.4-2.1 3.3z" fill="#fbc219"/>
  <path d="M40.9 94.3c-1.6-3.3.6-4.1 1.6-4.4s1-.9 1-.9a1.6 1.6 0 0 0 1.4 1c1.1.1 2.6 1.1 1.5 4.4a6.3 6.3 0 0 0-2.9-.7 9.6 9.6 0 0 0-2.6.6zm8 1.2c1.1-2.7 2.9-2 3.6-1.6a1.1 1.1 0 0 0 1.1 0 1.4 1.4 0 0 0 .1 1.4c.5.7.5 2.1-1.6 3.4a11.6 11.6 0 0 0-1.5-2c-.8-.7-.6-.8-1.7-1.2zm4.7 6.6c2.9-1.1 3.6.7 3.8 1.4s.8.7.8.7a1.2 1.2 0 0 0-.9 1c-.2.8-1.3 1.8-3.9 1.2a6.8 6.8 0 0 0 .6-2.3 5.1 5.1 0 0 0-.4-2zm-1.2 7.4c3 1.4 2.1 3.5 1.6 4.3s-.1 1.2-.1 1.2a1.7 1.7 0 0 0-1.6.1c-.8.5-2.6.8-3.7-2.2a7.2 7.2 0 0 0 2.3-1.4 4.4 4.4 0 0 0 1.5-2zm-6.9 4.4c1.3 3.3-.6 4.1-1.4 4.4s-.9.9-.9.9a1.4 1.4 0 0 0-1.2-1c-.9-.2-2.2-1.1-1.2-4.4a5.2 5.2 0 0 0 2.4.5 5.1 5.1 0 0 0 2.3-.4zm-7.2-1.3c-1.4 3.1-3.2 2.3-4 1.8s-1.2-.1-1.2-.1a1.7 1.7 0 0 0-.1-1.6c-.6-.8-.9-2.6 2.1-3.8a6.3 6.3 0 0 0 1.3 2.5c.9.9.6.7 1.9 1.2zm-4.5-6.4c-3.3 1.2-4-.6-4.3-1.4s-.9-.9-.9-.9a1.5 1.5 0 0 0 1.1-1.1c.1-.9 1.2-2.2 4.4-1.1a4.1 4.1 0 0 0-.8 2.4 5.8 5.8 0 0 0 .5 2.1zm1.5-7.4c-3.1-1.6-2.4-3.5-2-4.3s.1-1.1.1-1.1a1.1 1.1 0 0 0 1.3 0c.8-.5 2.4-.4 3.9 2a6.2 6.2 0 0 0-2.2 1.4c-.8.8-.7.8-1.1 2z" fill="#d09b07"/>
  <path d="M51.5 96l-1.1-.9a10.4 10.4 0 0 0-6.9-2.4 11.2 11.2 0 0 0-8 3.3 10.2 10.2 0 0 0-2.3 3.4 10 10 0 0 0-1 4.6 10.6 10.6 0 0 0 .4 3.1 11.2 11.2 0 0 0 2.9 4.9 9.8 9.8 0 0 0 4.1 2.7 12.3 12.3 0 0 0 3.9.6 11.1 11.1 0 0 0 6.7-2.1l1.3-1.2a10.7 10.7 0 0 0 3.3-8 10.9 10.9 0 0 0-3.3-8" fill="#fbc219" stroke="#000" stroke-miterlimit="10" stroke-width=".4"/>
  <path d="M50.1 97.2a9.1 9.1 0 0 1 2.8 6.7 9.2 9.2 0 0 1-.8 4 9.4 9.4 0 0 1-2 2.7l-.3.3a8.9 8.9 0 0 1-6.3 2.5 7.8 7.8 0 0 1-3.1-.6 9.7 9.7 0 0 1-3.6-2.2 9.2 9.2 0 0 1-2.5-4.5 10.3 10.3 0 0 1 .6-6 9 9 0 0 1 4.2-4.6 9.4 9.4 0 0 1 11 1.6" fill="#fbc219"/>
  <path d="M49.1 97.2c0-.1 0-.1-.1-.2h-.7l-.6-.2-.3-.3-.8-.6a3.3 3.3 0 0 0-1.6-.7h-2l-1.6.5-.4.2q-.2 0-.3.3h-.3a2 2 0 0 1-.1-.5l-.3.2c-.1.2-.3.3-.6.5h-.2l-.6.3-.9.6-.8.8a3 3 0 0 0-.6 1.1 3.4 3.4 0 0 1-.5 1.1.4.4 0 0 1-.1.3h-.4l-.3.2a1.1 1.1 0 0 0 .2.8 1.2 1.2 0 0 1-.2.8c0 .2-.1.3-.1.5l-.3.6a2 2 0 0 0 .2 1.7l.2.4.6 1a.7.7 0 0 1 .1.6h-.5c-.1 0-.1 0 .1.2a6.1 6.1 0 0 1 1.3 1.5l.2.3.3.7a2.4 2.4 0 0 0 .8.9l.6.3h1.2l-.3.7a3.2 3.2 0 0 1 1.4-.1h.4l1.4.6h.4a5.4 5.4 0 0 0 2.5-.3 2.5 2.5 0 0 0 1.2-.8.9.9 0 0 0 .6.6h.1a1.3 1.3 0 0 1 .8-1.3l.3-.2.4-.2.4-.3c.2 0 .3-.1.3-.2l.3-.3.7-.9a.9.9 0 0 0 .3-.7c.1-.4.1-.6.3-.5h.6a1.2 1.2 0 0 1-.1-1v-.5c.1-.2.2-.3.2-.5a1.4 1.4 0 0 1 .2-.7 2.6 2.6 0 0 0 .3-.8 3.2 3.2 0 0 0-.2-1.7 1.8 1.8 0 0 0-.5-.7l.3-.4h.2a.8.8 0 0 1-.7-.4l-.3-.4c-.1-.1-.1-.3-.2-.4a4.3 4.3 0 0 0-.1-.5l-.4-.7-.5-.5a2.2 2.2 0 0 0-.9-.7c-.2 0-.2 0-.1-.1a.4.4 0 0 0 .1-.3" fill="#fbc219"/>
  <path d="M50 99.6h.1a.4.4 0 0 0-.1.3v.5a3.5 3.5 0 0 0 .3 1.3 1.6 1.6 0 0 1 .4.7l.3 1.1a.9.9 0 0 1-.1.5 1.3 1.3 0 0 1-.1.6l-.2.3-.3.4a.4.4 0 0 0 .1.3h.6l-.4.5a2.5 2.5 0 0 0-.4 1.2.6.6 0 0 0-.1.4c.1.2 0 .4-.2.7a3.4 3.4 0 0 1-1.2.9.7.7 0 0 0-.6.2h-.4l-.3.3a.7.7 0 0 1-.5.4l.8.4v.2a1.6 1.6 0 0 0-1.8.7l-.5.3a1.7 1.7 0 0 1-1.2-.1.9.9 0 0 1-.6-.3h-.1l-.3-.2a.9.9 0 0 0-.9.2h-.1l-1-.7-.7-.2-1.3-.2-.4-.3-.3-.3a.9.9 0 0 1-.3-.6l-.5-.5a6.6 6.6 0 0 1-1.2-1.7 1.7 1.7 0 0 1-.1-.7v-1.8c0-.3-.1-.5-.4-.5s-.5.3-.4.6v-.8l.6-.9a.9.9 0 0 0 .4-.6c.2-.1.2-.3.2-.6a1.3 1.3 0 0 0-.1-.6v-.5a2.7 2.7 0 0 1 .8-1h.8a.1.1 0 0 0 .1-.1.2.2 0 0 0 .2-.2h.1a.8.8 0 0 0-.2-.5H38c0-.1 0-.2-.1-.2s.2-.3.2-.5h2l.6-.3.4-.3 1.2-1 .7-.3h.7a2.4 2.4 0 0 1 .8.9c0 .1.1 0 .2-.1s.1-.5 0-.6-.1-.5 0-.5l.6.3a7.5 7.5 0 0 0 1.4 1.2 2.7 2.7 0 0 0 1 .6.8.8 0 0 1 .8.3q0 .1.3.3a5.6 5.6 0 0 1 .5.8c.1.1.2.2.2.3a1.4 1.4 0 0 1 .2.6.8.8 0 0 0 .4-.4" fill="#fbc219"/>
  <path d="M50.1 103.9a3.2 3.2 0 0 0-.2-1.4 5.9 5.9 0 0 0-1.7-3.2 6.5 6.5 0 0 0-4.7-2 5.2 5.2 0 0 0-3.3 1 4.1 4.1 0 0 0-1.4 1 6.6 6.6 0 0 0-1.4 2 7.5 7.5 0 0 0-.5 2.6v.6a6.8 6.8 0 0 0 1.9 4.1 5.7 5.7 0 0 0 4.7 1.9 6.4 6.4 0 0 0 4.7-1.9 5.9 5.9 0 0 0 1.3-1.8 5.6 5.6 0 0 0 .4-1.2 4.7 4.7 0 0 0 .2-1.7z" fill="#fbc219"/>
  <path d="M50.1 97.3a9.4 9.4 0 0 0-11-1.6 9 9 0 0 0-4.2 4.6 10.3 10.3 0 0 0-.6 6 9.2 9.2 0 0 0 2.5 4.5 9.7 9.7 0 0 0 3.6 2.2 7.8 7.8 0 0 0 3.1.6 8.9 8.9 0 0 0 6.3-2.5l.3-.3a9.4 9.4 0 0 0 2-2.7 9.2 9.2 0 0 0 .8-4 9.1 9.1 0 0 0-2.8-6.7M49 97c.1.1.1.1.1.2a.4.4 0 0 1-.1.3c-.1.1-.1.1.1.1a2.2 2.2 0 0 1 .9.7l.5.5.4.7a4.3 4.3 0 0 1 .1.5c.1.1.1.3.2.4l.3.4a.8.8 0 0 0 .7.4H52l-.3.4a1.8 1.8 0 0 1 .5.7 3.2 3.2 0 0 1 .2 1.7 2.6 2.6 0 0 1-.3.8 1.4 1.4 0 0 0-.2.7c0 .2-.1.3-.2.5v.5a1.2 1.2 0 0 0 .1 1h-.6c-.2-.1-.2.1-.3.5a.9.9 0 0 1-.3.7l-.7.9-.3.3c0 .1-.1.2-.3.2l-.4.3-.4.2-.3.2a1.3 1.3 0 0 0-.8 1.3h-.1a.9.9 0 0 1-.6-.6 2.5 2.5 0 0 1-1.2.8 5.4 5.4 0 0 1-2.5.3h-.4l-1.4-.6h-.4a3.2 3.2 0 0 0-1.4.1l.3-.7h-1.2l-.6-.3a2.4 2.4 0 0 1-.8-.9l-.3-.7-.2-.3a6.1 6.1 0 0 0-1.3-1.5c-.2-.2-.2-.2-.1-.2h.5a.7.7 0 0 0-.1-.6l-.6-1-.2-.4a2 2 0 0 1-.2-1.7l.3-.6c0-.2.1-.3.1-.5a1.2 1.2 0 0 0 .2-.8 1.1 1.1 0 0 1-.2-.8l.3-.2h.4a.4.4 0 0 0 .1-.3 3.4 3.4 0 0 0 .5-1.1 3 3 0 0 1 .6-1.1l.8-.8.9-.6.6-.3h.2c.3-.2.5-.3.6-.5l.3-.2a2 2 0 0 0 .1.5h.3q.1-.3.3-.3l.4-.2 1.6-.5h2a3.3 3.3 0 0 1 1.6.7l.8.6.3.3.6.2h.7m1.1 2.5H50a.8.8 0 0 1-.4.4 1.4 1.4 0 0 0-.2-.6c0-.1-.1-.2-.2-.3a5.6 5.6 0 0 0-.5-.8q-.3-.1-.3-.3a.8.8 0 0 0-.8-.3 2.7 2.7 0 0 1-1-.6 7.5 7.5 0 0 1-1.4-1.2l-.6-.3c-.1 0-.1.2 0 .5s.1.3 0 .6-.2.2-.2.1a2.4 2.4 0 0 0-.8-.9h-.7l-.7.3-1.2 1-.4.3-.6.3h-2c0 .2-.1.3-.2.5s.1.1.1.2h.5a.8.8 0 0 1 .2.5h-.1a.2.2 0 0 1-.2.2.1.1 0 0 1-.1.1h-.8a2.7 2.7 0 0 0-.8 1v.5a1.3 1.3 0 0 1 .1.6c0 .3 0 .5-.2.6a.9.9 0 0 1-.4.6l-.6.9v.8c-.1-.3.1-.5.4-.6s.4.2.4.5v1.8a1.7 1.7 0 0 0 .1.7 6.6 6.6 0 0 0 1.2 1.7l.5.5a.9.9 0 0 0 .3.6l.3.3.4.3 1.3.2.7.2 1 .7h.1a.9.9 0 0 1 .9-.2l.3.2h.1a.9.9 0 0 0 .6.3 1.7 1.7 0 0 0 1.2.1l.5-.3a1.6 1.6 0 0 1 1.8-.7v-.2l-.8-.4a.7.7 0 0 0 .5-.4l.3-.3h.4a.7.7 0 0 1 .6-.2 3.4 3.4 0 0 0 1.2-.9c.2-.3.3-.5.2-.7a.6.6 0 0 1 .1-.4 2.5 2.5 0 0 1 .4-1.2l.4-.5h-.6a.4.4 0 0 1-.1-.3l.3-.4.2-.3a1.3 1.3 0 0 0 .1-.6.9.9 0 0 0 .1-.5l-.3-1.1a1.6 1.6 0 0 0-.4-.7 3.5 3.5 0 0 1-.3-1.3v-.5a.4.4 0 0 1 .1-.3m-.2 3a3.2 3.2 0 0 1 .2 1.4 4.7 4.7 0 0 1-.2 1.7 5.6 5.6 0 0 1-.4 1.2 5.9 5.9 0 0 1-1.3 1.8 6.4 6.4 0 0 1-4.7 1.9 5.7 5.7 0 0 1-4.7-1.9 6.8 6.8 0 0 1-1.9-4.1v-.6a7.5 7.5 0 0 1 .5-2.6 6.6 6.6 0 0 1 1.4-2 4.1 4.1 0 0 1 1.4-1 5.2 5.2 0 0 1 3.3-1 6.5 6.5 0 0 1 4.7 2 5.9 5.9 0 0 1 1.8 3.1z"/>
  <path d="M39.1 102.8s1 1.2 3.2.2a1.9 1.9 0 0 0-3.2-.2z" fill="none" stroke="#000" stroke-linecap="round" stroke-linejoin="round" stroke-width=".3"/>
  <ellipse cx="40.7" cy="102.8" rx=".7" ry=".7"/>
  <circle cx="40.6" cy="102.4" r=".2" fill="#fff"/>
  <path d="M38.9 102a2.4 2.4 0 0 1 3 .5m6 .4s-1 1.2-3.2.2a1.9 1.9 0 0 1 3.2-.2z" fill="none" stroke="#000" stroke-linecap="round" stroke-linejoin="round" stroke-width=".3"/>
  <ellipse cx="46.3" cy="102.8" rx=".7" ry=".7"/>
  <circle cx="46.4" cy="102.4" r=".2" fill="#fff"/>
  <path d="M48.1 102.1a2.4 2.4 0 0 0-3 .5m-6.1-2h3.3c.5.1.8.8.8 1.2a8.1 8.1 0 0 1 0 1.6" fill="none" stroke="#000" stroke-linecap="round" stroke-linejoin="round" stroke-width=".3"/>
  <path d="M47.6 100.7a8.2 8.2 0 0 0-2.9 0c-.5.2-.4.4-.5.7a24.2 24.2 0 0 0 0 2.7m-2 .9s.7.3.8.6a.8.8 0 0 0 .8.1 2.3 2.3 0 0 1 1-.5c.3-.1 0-.6 0-.6m-.8 2.2l-.4.2c-.2 0-.3-.3-.5-.3s-.5.3-.8.4h-.9c2.7.6 3.9 0 3.9 0a2 2 0 0 1-.8-.3c-.2 0-.4-.1-.5 0z" fill="none" stroke="#000" stroke-linecap="round" stroke-linejoin="round" stroke-width=".3"/>
  <path d="M45 107.4s-.6 1.1-1.5 1.2a1.9 1.9 0 0 1-1.2-.7 3.1 3.1 0 0 0-.6-.6" fill="none" stroke="#000" stroke-linecap="round" stroke-linejoin="round" stroke-width=".3"/>
</svg>
