<svg xmlns="http://www.w3.org/2000/svg" viewBox="0 0 87 140">
  <rect width="87" height="140" rx="6" ry="6" fill="#fff"/>
  <path d="M48.6 97.7a53.8 53.8 0 0 0 .1 8.9 7.7 7.7 0 0 0 .4-7.9l-.5-1M46.1 93l-2.2-.6a14 14 0 0 1-.3 11 8.3 8.3 0 0 0 .1 7.2 12.2 12.2 0 0 1 1.1-5.2A16.9 16.9 0 0 0 46.1 93m8.9.3a17.7 17.7 0 0 1-.8 6.9 48.5 48.5 0 0 0-2.1 13.1l.5-.7v-.2a17.2 17.2 0 0 1 2-6.5c1.8-2.7 2.7-6.6 2.6-11.7a8.5 8.5 0 0 0-2.2-.9m4.4-32.4l-1.6.5c-.1 0-.1 0-.1.1h-.2a27.4 27.4 0 0 1-5 .7 9.7 9.7 0 0 1 1.2 5.5 5.3 5.3 0 0 1-.1 1.3h.7a15.3 15.3 0 0 0 4.9-1.2l-.5-4 .9.9a26.2 26.2 0 0 1-.2-3.8m-2.4-16l-.7 1.1a13.7 13.7 0 0 1-3.2 4.6 19.5 19.5 0 0 0-.3 6.8l.3 1.9a26.8 26.8 0 0 0 6.7-1.1c.1-.5.3-.9.4-1.4a4.3 4.3 0 0 0-.4-.7 15.3 15.3 0 0 1-2.6-6.8l-.2-4.4m-7.7-20.7v-1.4h-.7l-.5-.6a2.3 2.3 0 0 0-1.7-1l-.8.7a8.3 8.3 0 0 0 1.1 2.4l-.2 1.1a13.4 13.4 0 0 1 3 .5h.1a15.1 15.1 0 0 1 7 4.5l.5-.6h.4c1.9-.1 3.1-.8 3.4-2.1l-.5-.7-.3-.7a6 6 0 0 1-.9 1.3c-.2.3-.5.4-1 .5a5.7 5.7 0 0 1-2.2-.2h-.1l-1.5-1.1-1.1-.5-4-2" fill="#980805"/>
  <path d="M34.8 119.1l1.3-1.5H16.6v7.2h53.8v-7.2H55.9a16.3 16.3 0 0 0 1.7 2 5.3 5.3 0 0 1 1.3 2.6 5.5 5.5 0 0 1-3.1.2 9.2 9.2 0 0 1-3.2-1.8 9.7 9.7 0 0 1-1.9-2.2c0-.1-.1-.1-.1-.2H50a4.1 4.1 0 0 1-1.1-.7h-6.2l-.5.3h-.6a2.7 2.7 0 0 0-.7.8l-2.5 2.2a9 9 0 0 1-2 1.4h-.2a4 4 0 0 1-3 .3v-.5a3.1 3.1 0 0 1 .2-.8 16.4 16.4 0 0 1 1.4-2.2m30-47.1l-2.9 2.6-2.5 1.1a4.8 4.8 0 0 0 .7 2.6 4 4 0 0 0 1.4 1.5 3.8 3.8 0 0 0 2.9-1.2c1.3-1.6 1.5-3.8.4-6.6m-.3-6.6h.3a17.3 17.3 0 0 0 1.8-8.6l-1.7-.7-1.8 8.2.2-.3.6.7.6.7" fill="#d09b07"/>
  <path d="M57.5 61.5h.3l1.7-.7v-1.9l.2-.4a12.2 12.2 0 0 1-8 2.1l5.7.9" fill="#004da1"/>
  <path d="M30.1 46.6l-.9-.7a19.9 19.9 0 0 1-4.7-5.7 19.7 19.7 0 0 0 1.2 4.5 9.3 9.3 0 0 0 4.4 4.9c-.1-.1-.1-.1-.1-.2s-.1-.3-.1-.5a5.8 5.8 0 0 1 .2-2.3m2.6-4.7a8.5 8.5 0 0 0-2.2-4.2l-1.2-.5a17.2 17.2 0 0 1 1.6 5.9 4.5 4.5 0 0 0 .1 1.1 11.3 11.3 0 0 1 1.7-2.3m11.9 1.9v1.8a45.2 45.2 0 0 0 3 10.3 14.1 14.1 0 0 1 1.6-4.9h.1a42.4 42.4 0 0 1 2.3-5.9H50a9.4 9.4 0 0 1-5.4-1.3" fill="#d09b07"/>
  <path d="M48.5 112.1l-.4.2H48c-.1 1.1-.3 2.2-.3 3.3v.5a8.1 8.1 0 0 0 1.2 1.4 4.1 4.1 0 0 0 1.1.7h.6c0 .1.1.1.1.2a9.7 9.7 0 0 0 1.9 2.2 9.2 9.2 0 0 0 3.2 1.8 5.5 5.5 0 0 0 3.1-.2 5.3 5.3 0 0 0-1.3-2.6 16.3 16.3 0 0 1-1.7-2 2.1 2.1 0 0 1-.6-.8 7.7 7.7 0 0 1-1.6-3.1l-.3-.4a3 3 0 0 0-.8-.8v.2l-.5.7q-1.2.9-3.6-1.2m1.7 5.4H50m-7.8-4.6l-.9.2a2.6 2.6 0 0 1-1.9-.7 18.3 18.3 0 0 1-2.6 4.4l-.3.4c-.2.1-.3.3-.4.4l-1.3 1.5a16.4 16.4 0 0 0-1.4 2.2 3.1 3.1 0 0 0-.2.8v.5a4 4 0 0 0 3-.3h.2a9 9 0 0 0 2-1.4l2.5-2.2a2.7 2.7 0 0 1 .7-.8v-.4h.4a.1.1 0 0 0 .1.1.1.1 0 0 0 .1.1l.5-.3 1.8-1.1q.6-3.6-.3-4.5h-.1a7 7 0 0 1-1.9 1m15.7-38.7a13.1 13.1 0 0 1-.3-1.5L54.3 69h-.9l3.8 5.1-.5.2a6.5 6.5 0 0 0 4 5.4h.8a4 4 0 0 1-1.4-1.5 4.8 4.8 0 0 1-.7-2.6l2.5-1.1 2.9-2.6c-.1-.2-.1-.4-.2-.6l-.8.5c0 .1 0 .1-.1.2a10.9 10.9 0 0 1-4.4 2l-1.4.2" fill="#fbc219"/>
  <path d="M45.8 60.1l1-1a8.2 8.2 0 0 1-4-1.4c-.9.4-1.2 1.2-.8 2.5a7.5 7.5 0 0 0 5 1.6l-1.2-1.7" fill="#0065b7"/>
  <path d="M64.9 56a5.4 5.4 0 0 0-4.7.8c-.1.5-.3.9-.4 1.4h-.1v.2l-.2.4v1.8l-1.7.7 1.6-.5a26.2 26.2 0 0 0 .2 3.8l.2.3 1.6-1.3.8 1.2.9-.7 1.8-8.1" fill="#fbc219"/>
  <path d="M59.7 58.3a30.1 30.1 0 0 1-6.6 1 25.7 25.7 0 0 1-4.8-.2l1.1 1.4-1.7 1.5a25.7 25.7 0 0 0 4.8.2 27.4 27.4 0 0 0 5-.7l-5.7-.9a11.4 11.4 0 0 0 7.7-1.9" fill="#0065b7"/>
  <path d="M29.3 37.2h-.2l-.4.7-.5.9-1.1-1.4-1.2 1.2-.7-1.2-1 .8.3 2.1a19.9 19.9 0 0 0 4.7 5.7l.9.7a5.9 5.9 0 0 1 .9-2.4 4.5 4.5 0 0 1-.1-1.1 17.2 17.2 0 0 0-1.6-5.9m15.4 1.3v5.2a9.4 9.4 0 0 0 5.3 1.3h1.6c0-.1 0-.1.1-.2a57.1 57.1 0 0 1 3.5-6.4l.2-.2a4.8 4.8 0 0 0-2.1-.7 6.6 6.6 0 0 1-3.2 1.3 6.7 6.7 0 0 1-3-.8 6 6 0 0 0-2.4.6m15.2-14.3a10.5 10.5 0 0 0 2.1-1.2 3.6 3.6 0 0 0 .3-3.3c-.7-1.9-2.3-3-4.7-3.2a7.3 7.3 0 0 0-6 3.4 7.1 7.1 0 0 0 3 1.6z" fill="#fbc219"/>
  <path d="M60.9 17.9s.2 3.6-4.8 4.3l3.9 2.3s2.7-.8 2.7-3a3.9 3.9 0 0 0-1.8-3.6z" fill="#d09b07"/>
  <path d="M43.9 92.4a9.8 9.8 0 0 0-5.6.6 57.5 57.5 0 0 0 .9 14.8l.2 4.6a2.6 2.6 0 0 0 1.9.7l.9-.2a7 7 0 0 0 1.9-1 5.7 5.7 0 0 1-.4-1.4 8.3 8.3 0 0 1-.1-7.2 14 14 0 0 0 .3-11m10.3 7.8a17.7 17.7 0 0 0 .8-6.9 8.1 8.1 0 0 0-5.7.4 13.7 13.7 0 0 0-.7 4l.5 1a7.7 7.7 0 0 1-.4 7.9l-.2 5.2q2.4 2.1 3.6 1.2a48.5 48.5 0 0 1 2.1-13.1M47.7 62l-.2.2 1.4 4.7a2 2 0 0 0 2.3 2h2.4a5.3 5.3 0 0 0 .1-1.3 9.7 9.7 0 0 0-1.2-5.5 25.7 25.7 0 0 1-4.8-.2M42 60.2h-.1a21.1 21.1 0 0 1-2.4 6.2c-.2.7-.1 1.2.3 1.4l.4.2a6.3 6.3 0 0 0 4.5-.2l2.4-5.8v-.2a7.5 7.5 0 0 1-5-1.6m15.8 1.2h-.1c0-.1 0-.1.1-.1m-4.8-10.7a10.7 10.7 0 0 1-1.6 1.4 17.1 17.1 0 0 0-3.3 6.9v.2a25.7 25.7 0 0 0 4.8.2l-.3-1.9a19.5 19.5 0 0 1 .3-6.8m-14-8.7a9.3 9.3 0 0 1 1.5 3.9 11.8 11.8 0 0 1-.4 4.5l2.6 6.3v1.1a8.2 8.2 0 0 0 4 1.4l.2-.2a23 23 0 0 0-2.3-6.5A28.7 28.7 0 0 1 41 39.9a9.7 9.7 0 0 0-2.1 2m16.4-20.1H55a7.3 7.3 0 0 1-3.4-1.7l-.2-.2a3.8 3.8 0 0 0-3.3-1.4c-2 .5-2.9 1.6-2.5 3.2l.8-.7a2.3 2.3 0 0 1 1.7 1l.5.6h.7V24l4 2.1 1.3.6 1.3.9h.1a5.7 5.7 0 0 0 2.2.2c.5-.1.8-.2 1-.5a6 6 0 0 0 .9-1.3l.3.7.5.7a5.4 5.4 0 0 0 0-1.8 4.5 4.5 0 0 0-1.1-1.3 10.8 10.8 0 0 0-4.5-2.7" fill="red"/>
  <path d="M59.3 68.4h-.1v-.6a15.3 15.3 0 0 1-4.9 1.2l3.3 3.7a5.7 5.7 0 0 1 1.7-4.3m-11.9-6.1l-.3-.3-2.4 5.8a6.3 6.3 0 0 1-4.5.2 30.1 30.1 0 0 0-2.1 23.2c-.5.8-.5 1.4.1 1.8h.1a9.8 9.8 0 0 1 5.6-.6l2.2.6h.1l.3-1.4a4 4 0 0 0 1.6-2.5 5.4 5.4 0 0 0 1.1 2.9 1.5 1.5 0 0 0-.1 1.7h.2a8.1 8.1 0 0 1 5.7-.4 8.5 8.5 0 0 1 2.2.9c.1.1.1.2.2.2l.4-1.4c3.1-2.2 4.3-6.7 3.6-13.3h-.7a6.5 6.5 0 0 1-4-5.4l.5-.2-3.8-5.1h-2.2a2 2 0 0 1-2.3-2l-1.4-4.7h-.1m-1 7.5l.6-1.2a1.3 1.3 0 0 0-.1.6 8.5 8.5 0 0 0-.4 1.7 17.5 17.5 0 0 1-1.2 3.2 9.9 9.9 0 0 0 .2 1.7c.2 2.2.4 4.3.7 6.4a13.7 13.7 0 0 1-1.4 7.5 13.1 13.1 0 0 1-4.2-1.1 3.7 3.7 0 0 1-2.2-3.8 31.4 31.4 0 0 1 3.4-13.1l1.6 1.2 1.2-.9.7-.7.6-.7a5.6 5.6 0 0 0 .5-.8m3.3 2.3c0 .3.2.4.3.6a3.3 3.3 0 0 1 .3.6l.7.7h.1l.4.9a1.4 1.4 0 0 1 .2.6 2.5 2.5 0 0 1 .1.8 4.9 4.9 0 0 0-.1 1.2 5.1 5.1 0 0 1-.5 2.5c-.1.1-.1.2-.2.4a3.2 3.2 0 0 0-.3.9c-.1-.4-.1-.9-.2-1.3s-.1-.4-.1-.6a14.2 14.2 0 0 0-.4-2V77a2.5 2.5 0 0 1-.1-1.2c0-1.2-.1-2.4-.2-3.7m6 8.3h.3a.2.2 0 0 0 .2-.2l.8-.6h.1a1.9 1.9 0 0 1 .2.7 17.4 17.4 0 0 1-.5 10.1 8.2 8.2 0 0 1-3.8-.2c-2-.6-2.7-2.1-2.1-4.4s.9-3.2 1.4-4.8 1.3-4.2 2-6.2l.2 3.1 1.1-1v3.5m4.8-39.2a14.1 14.1 0 0 0-1.8 1.7 23.8 23.8 0 0 0-.2 5.9 12.2 12.2 0 0 0 1.3 4.8c.8 1.3 2.5 1.2 5.2-.5a6.8 6.8 0 0 0 .2-1.4 11.3 11.3 0 0 0-4.7-10.5m-.4 4.2l.7.9a7.2 7.2 0 0 1 1.5 4.5l-.6.2a9.9 9.9 0 0 1-1.6-5.6m-19.6.4a9.3 9.3 0 0 0-1.4-3.9 10.4 10.4 0 0 0-4.9.5 1.1 1.1 0 0 0-1.4-.5 11.3 11.3 0 0 0-1.7 2.3 5.9 5.9 0 0 0-.9 2.4 5.8 5.8 0 0 0-.2 2.3l1.7.4h.4a1.8 1.8 0 0 0 .8-.7v-2.8h.3l.9 1.9a29.6 29.6 0 0 1 6.5-1.9z" fill="#325723"/>
  <path d="M61.5 68.2h.1a4.5 4.5 0 0 0-2.5.4 5.4 5.4 0 0 0-1.6 4.2 7.7 7.7 0 0 0 .2 1.5h.1l1.4-.2a1.9 1.9 0 0 0 .2-.8 22.5 22.5 0 0 1 1-4.9h1.1M30.4 32.1l.3-.4v-1a7.5 7.5 0 0 1-3.7.9 8 8 0 0 1-4.3-1.2l.2.8a6.4 6.4 0 0 0 1.3 1.5c.1.1.3.2.4.4a5.4 5.4 0 0 0 2.8.5h.3l1.3-.4a4 4 0 0 0 1.4-1.1m19-6.3a4.3 4.3 0 0 1-2.9 1.2 3.8 3.8 0 0 0-.9.9l-.3.7a2.7 2.7 0 0 0-.1 1.2v.3c-.6 2.5-.3 4.5 1.1 6l.6.4a4 4 0 0 0 2.4-.2l1.4-.7-.8 3.1a7.4 7.4 0 0 0 3.3-1.2v-3a7.4 7.4 0 0 1-.2-2.7l-1.5-3c-1.3-1.3-2.1-2.3-2.2-3.1" fill="#f3bc84"/>
  <path d="M61.6 67.9h-1.2a22.5 22.5 0 0 0-1 4.9 2.4 2.4 0 0 1-.2.8 11.6 11.6 0 0 0 4.4-2h.1a5.3 5.3 0 0 0-.2-2.8l-1.1-.8h-.8M47.1 38a6.7 6.7 0 0 0 3 .8l1.3-4-1.8 1a4.3 4.3 0 0 1-2.6.7z" fill="#c69c6d"/>
  <path d="M56 80.3h-.3v-3.4l-1.1 1-.2-3.1c-.7 2-1.4 4.1-2 6.2s-1 3.2-1.4 4.8.1 3.8 2.1 4.4a8.2 8.2 0 0 0 3.8.2 17.4 17.4 0 0 0 .5-10.1 1.9 1.9 0 0 0-.2-.7H57l-.8.6a.2.2 0 0 1-.2.2m-6-7.6c-.1-.2-.3-.3-.3-.6.1 1.3.2 2.5.2 3.7A2.5 2.5 0 0 0 50 77v.6a14.2 14.2 0 0 1 .4 2c0 .2.1.4.1.6s.1.9.2 1.3a3.2 3.2 0 0 1 .3-.9c.1-.2.1-.3.2-.4a5.1 5.1 0 0 0 .5-2.5 4.9 4.9 0 0 1 .1-1.2 2.5 2.5 0 0 0-.1-.8 1.4 1.4 0 0 0-.2-.6l-.4-.9H51l-.7-.7a3.3 3.3 0 0 0-.3-.6m-3-4.1l-.6 1.2a5.6 5.6 0 0 1-.5.8l-.6.7-.7.7-1.2.9-1.6-1.2A31.4 31.4 0 0 0 38.4 85a3.7 3.7 0 0 0 2.2 3.8 13.1 13.1 0 0 0 4.2 1.1 13.7 13.7 0 0 0 1.4-7.5c-.3-2.1-.5-4.2-.7-6.4a9.9 9.9 0 0 1-.2-1.7 17.5 17.5 0 0 0 1.2-3.2 8.5 8.5 0 0 1 .4-1.7 1.3 1.3 0 0 1 .1-.8z" fill="#247b1d"/>
  <path fill="#fbc219" d="M48.3 59.1l-.1-.2-.6-.7-.6.7-.2.2-1 1 1.2 1.7.1.2.3.3.1-.1.2-.2 1.7-1.5-1.1-1.4"/>
  <path d="M59.8 65l-.2-.3-.9-.9.5 4v.6h.1a3.7 3.7 0 0 1 2.5-.3l2.1-3.5-.6-.7-.2.3-.9.7-.8-1.2-1.6 1.3M27.9 33.6h-.4a5 5 0 0 1-2.7-.5l-1.3 5.5.7-.5 1-.8.7 1.2 1.2-1.2 1.1 1.4.5-.9z" fill="#f2f2f2"/>
  <path d="M64.8 65.2h-.3l-.6-.7-2.1 3.5h.7l1.1.7 2.6-4.1-1.4.3M29.1 37.1h.2l1.2.5 1.1.4-2.4-4.8-1.3.3.8 4.2z" fill="#ccc"/>
  <path d="M31.6 49.3l-1.7-.4c0 .2.1.3.1.5s0 .1.1.2a2.9 2.9 0 0 0 .6 1.1 1.8 1.8 0 0 0 2.3 0l.4-.3 1.4.3a12.1 12.1 0 0 0 5.3-.4 11.8 11.8 0 0 0 .4-4.5 29.6 29.6 0 0 0-6.4 2l-.9-1.9h-.3v2.7a1.8 1.8 0 0 1-.8.7h-.4m29.2-3l-.7-.9a9.9 9.9 0 0 0 1.5 5.6l.6-.2a7.2 7.2 0 0 0-1.5-4.5m5.8 10.3l.9-1.6c1.2-3.3.6-6.6-1.7-9.9s-3.1-4.1-4.5-4.4l-.8.5a11.3 11.3 0 0 1 4.7 10.5 6.8 6.8 0 0 1-.2 1.4c-2.7 1.7-4.4 1.8-5.2.5a12.2 12.2 0 0 1-1.3-4.8 23.8 23.8 0 0 1 .2-5.9 17.7 17.7 0 0 0-1.7 2l.2 4.4a15.3 15.3 0 0 0 2.6 6.8 4.3 4.3 0 0 1 .4.7 5.4 5.4 0 0 1 4.7-.8z" fill="#164a11"/>
  <path d="M32.9 17.5a7.7 7.7 0 0 0-5.8-2.4 7.8 7.8 0 0 0-5.8 2.4 8.1 8.1 0 0 0-2.4 5.9 8.3 8.3 0 0 0 3.9 7 8 8 0 0 0 4.3 1.2 7.5 7.5 0 0 0 3.7-.9 6.2 6.2 0 0 0 2.1-1.5 7.7 7.7 0 0 0 2.5-5.8 7.8 7.8 0 0 0-2.5-5.9m-12.8 5.6a6.2 6.2 0 0 1 2-4.8 6.6 6.6 0 0 1 4.8-2 7 7 0 0 1 4.9 2 6.7 6.7 0 0 1 2 4.8 6.8 6.8 0 0 1-6.9 6.9 6.8 6.8 0 0 1-6.8-6.9z" fill="#fff"/>
  <path d="M58.1 36.1a1.9 1.9 0 0 0-.5-2.3 8.9 8.9 0 0 0-1-3.5 15.1 15.1 0 0 0-7-4.5c.1.9.8 1.9 2.1 3.1l1.5 3.1a7.4 7.4 0 0 0 .2 2.7 2.8 2.8 0 0 0 1.7 2.2l1 .2a1.8 1.8 0 0 0 2-1m-12.8-6.8a.4.4 0 0 1 .1-.3 1.7 1.7 0 0 1 .3-1 2 2 0 0 1 .9-.9 3.9 3.9 0 0 0 2.9-1.3 13.4 13.4 0 0 0-3-.5c-2.3 2.1-3.4 4-3.2 5.5l.2 2.4c-.5 2.9.5 3.9 2.9 2.9-1.4-1.4-1.7-3.5-1-6a2.2 2.2 0 0 1-.1-.8z" fill="#a67c52"/>
  <path d="M44.6 43.8v-5.2a5.5 5.5 0 0 0-3.6 1.3 28.7 28.7 0 0 0 3.6 12.5 23 23 0 0 1 2.4 6.5l.6-.7.6.7a17.1 17.1 0 0 1 3.3-6.9 10.7 10.7 0 0 0 1.6-1.4 13.7 13.7 0 0 0 3.2-4.6l.7-1.1a17.7 17.7 0 0 1 1.7-2 14.1 14.1 0 0 1 1.8-1.7l.8-.5-5.9-2.4-.2.2a57.1 57.1 0 0 0-3.5 6.4c-.1.1-.1.1-.1.2a42.4 42.4 0 0 0-2.3 5.9h-.1a14.1 14.1 0 0 0-1.6 4.9 45.2 45.2 0 0 1-3-10.3z" fill="#f2f2f2"/>
  <path d="M47.4 61l-.6-.9.8-.7.6.9z" fill="#004da1"/>
  <path d="M30.8 30.6v1.1l-.3.3a3.3 3.3 0 0 1-1.4 1.2l2.4 4.9-1.1-.5a7.4 7.4 0 0 1 2.2 4.3 1.1 1.1 0 0 1 1.5.5 11.4 11.4 0 0 1 4.8-.5 19 19 0 0 1 2.2-2 5.9 5.9 0 0 1 3.6-1.3 6 6 0 0 1 2.4-.6v-1.5a.9.9 0 0 1-.6-.4c-2.5.9-3.4-.1-2.9-3l-.3-2.3c-.1-1.6 1-3.4 3.3-5.6l.2-1.1c-2-3.1-1.5-5 1.4-5.7q1.6-.3 3.3 1.5h.1a6.9 6.9 0 0 1 6-3.3 5 5 0 0 1 4.8 3.1c.7 2.4-.1 4-2.5 4.6a4.1 4.1 0 0 1 1 1.3c.5 2.4-.6 3.7-3.4 3.9H57l-.5.5a9.3 9.3 0 0 1 1.1 3.5A1.9 1.9 0 0 1 58 36a1.5 1.5 0 0 1-1.9 1l-1-.2a2.8 2.8 0 0 1-1.8-2.2v3a3.2 3.2 0 0 1 2 .6l6 2.4c1.4.3 2.9 1.8 4.5 4.4a10.8 10.8 0 0 1 1.7 10l-.6 1-.3.5a17.9 17.9 0 0 1-1.8 8.7l1.4-.4-2.7 4.1a4.8 4.8 0 0 1 .3 2.9l.8-.5c1.2 3 1.2 5.4-.2 7.1a4.1 4.1 0 0 1-3 1.2c.6 6.7-.6 11.1-3.6 13.3l-.4 1.3h-.2c0 5.1-.8 8.9-2.7 11.6a18 18 0 0 0-1.9 6.5l.8.8.2.4h.1a6.9 6.9 0 0 0 1.5 3.1l.6.8h14.6v7.2H16.6v-7.2h19.5l.3-.4a19.9 19.9 0 0 0 3-4.8l-.3-4.6a61.8 61.8 0 0 1-.9-14.6c-.6-.5-.6-1.1-.2-1.9a30.1 30.1 0 0 1 2.2-23.2l-.4-.2c-.4-.2-.5-.7-.3-1.4a29.8 29.8 0 0 0 2.4-6.1c-.3-1.3-.1-2.2.9-2.6v-1.1l-2.6-6.3H40a13.4 13.4 0 0 1-5.2.5l-1.4-.3-.5.3a1.7 1.7 0 0 1-2.2-.1 3 3 0 0 1-.7-1.1 8.8 8.8 0 0 1-4.3-4.9 21.3 21.3 0 0 1-1.5-6.6l-.7.6 1.2-5.6-.4-.3a7.6 7.6 0 0 1-1.5-2.3M51.5 20a7.1 7.1 0 0 0 3.8 1.7 10.8 10.8 0 0 1 4.5 2.7M57 29.7a5.2 5.2 0 0 0-3.5-3.4l-3.6-1.9a6 6 0 0 0-3.2-.3m-.2 1.1l3 .5a13.8 13.8 0 0 1 7 4.4m-10.1 6c-1.4-1.5-1.7-3.5-1.1-6.1v-1.1a3 3 0 0 1 .4-1 3.8 3.8 0 0 1 .9-.9c.8.1 1.7-.3 2.9-1.3m0 .1c.1.8.9 1.8 2.2 3l1.4 3.1a18.7 18.7 0 0 0 .2 2.7m2 3.6c0 .1-.1.2-.1.3a64.4 64.4 0 0 0-3.6 6.3 64.4 64.4 0 0 0-2.4 6.1 13.9 13.9 0 0 0-1.6 5 8.1 8.1 0 0 0 0 2.2l.5.6a16 16 0 0 1 3.4-6.7 14.6 14.6 0 0 0 4.7-6.1 10.5 10.5 0 0 1 .8-1.1 14.2 14.2 0 0 1 4.3-4.2M47.6 55.9a48.3 48.3 0 0 1-3-10.3v-7m8.6-.9a5.6 5.6 0 0 1-6.2.4m8.1.6a11 11 0 0 1-6.3 1.3 6.9 6.9 0 0 1-4.1-1.4M57 44.8l.2 4.4a14.6 14.6 0 0 0 2.5 6.8 5.2 5.2 0 0 1 2.7-1 5.1 5.1 0 0 1 3 .2l1.5.8M47 36.5c.9.4 3.9-1.1 4.3-1.6m.3 9.9a11.2 11.2 0 0 1-7-.9M24.2 38l.9-.7.8 1.2 1.2-1.2 1 1.3.9-1.6 1.4.6m2.2 4.3c-2.2 2.4-3.1 4.8-2.7 7.4.1.1.1.1.1.2m-.9-16.3a4.1 4.1 0 0 1-1.6.3 4.5 4.5 0 0 1-2.8-.5m8.3 9.6a3.4 3.4 0 0 0 0 2h.1a7.7 7.7 0 0 0 .7 1.6 3.6 3.6 0 0 1 .2 1v.4a15.3 15.3 0 0 0 .3-3 17.9 17.9 0 0 0-.2-2.3m-1.2 8.3c.1-.2.2-.3.2-.5a3.7 3.7 0 0 0-.3-2.9 4.6 4.6 0 0 1-.7-2.6v-.3m1.9 3.8l-.6 2.3m5.5-8.6a9.4 9.4 0 0 1 1.2 8.4m19.7 8a30.3 30.3 0 0 1-11.5.8l1.1 1.4-1.7 1.5a25.8 25.8 0 0 0 11.7-1.1 10.9 10.9 0 0 1 .4-2.6 8.3 8.3 0 0 1 .4-1.5l-.5-.7m5.1 9.2h-.3l-1.2-1.4-1.1 1-.8-1.2-1.6 1.3-.2-.3-1-.9.5 4.1v.5a3.7 3.7 0 0 1 4.3.6m-3.9-4.3a17 17 0 0 1-.2-3.8m.8-4.1c1.6-1.2 3.7-1.3 6.4-.2m-19 1.6l-.7.8h-.1l-1.1 1 1.4 1.8v.2l.2.3h.1l.3-.2m.6-2.9l-.2-.2m-1.2.1a20 20 0 0 0-2.3-6.6A28.5 28.5 0 0 1 41 39.9m1.7 17.8a7 7 0 0 0 4 1.4M47 62l-2.4 5.8a6.3 6.3 0 0 1-4.5.2m21.3 11.6h-.7a6.4 6.4 0 0 1-4.1-5.4l.6-.2-3.8-5-2.2-.2c-1.4 0-2.2-.6-2.3-1.9l-1.5-4.8m9.2 12.1h1.2a7.7 7.7 0 0 1-.2-1.5L54.3 69h-.9m-5 4.3a34.7 34.7 0 0 1 .4 9.3 15.8 15.8 0 0 0-.7 6.5 6.2 6.2 0 0 0 1 2.9c3.4-1.3 6.3-1 8.7 1m6-21.2a.1.1 0 0 0-.1.1 11.3 11.3 0 0 1-5.8 2.2m1.2-6.3a16.7 16.7 0 0 1-4.8 1.1m4.9-.6a5.6 5.6 0 0 0-1.6 4.3M41.9 60.2a8.3 8.3 0 0 0 5.1 1.5M38.2 93a9.6 9.6 0 0 1 7.8 0h.2l.3-1.4a8.9 8.9 0 0 0-8.4-.3H38m8 1.7a17.2 17.2 0 0 1-1.2 12.3c-1.2 2.7-1.5 4.9-.7 6.6.6.7.8 2.1.4 4.5l-1.8 1.1h6.2a5.3 5.3 0 0 1-1.2-1.4h-.1v-.6c.1-1.1.2-2.2.4-3.3l.4-.3.2-5.2c-.4-6.2-.2-10.5.6-13a.1.1 0 0 1-.1.1 1.5 1.5 0 0 1 0-1.7m8.1 2.2a8.5 8.5 0 0 0-8-.6m3.4 18.7c0 .1-.1.2-.1.3s-2.1 1.2-4.1-.6m7.4 5.6l1.7 2.1a4.3 4.3 0 0 1 1.3 2.5 5.1 5.1 0 0 1-3 .2 9.6 9.6 0 0 1-3.3-1.8 12.4 12.4 0 0 1-1.8-2.2h-.1v-.2h-.7l-1-.7m1.7.6l-.2-.3a.4.4 0 0 0-.1-.3h-.1l-.3.7m.4-.7h-.1m-6.1-5.6c-1.9 1.4-3.5 1.5-4.7.6v-.2m-3.3 5.2l-1.3 1.4a9 9 0 0 0-1.4 2.2 3.1 3.1 0 0 0-.2.8v.5a3.8 3.8 0 0 0 3.1-.4 7 7 0 0 0 2.1-1.4l2.4-2.2.7-.8.2-.2v-.2s.1 0 .1.2c.1.1.1.1.1.2h.1v.2l.6-.4m-.8 0h-.2m-.2.2h.6m6-28.8a4.4 4.4 0 0 1-1.6 2.5M51.8 30a2.9 2.9 0 0 0-3.2-1.2" fill="none" stroke="#000" stroke-linecap="round" stroke-linejoin="round" stroke-width=".4"/>
  <path d="M45.5 29.8a1.4 1.4 0 0 0 1.4.3m4.1.3s-.9-1.4-2.2-.8a1.5 1.5 0 0 0-.3.9m-1.3-1a3 3 0 0 0-1.7-.7" fill="none" stroke="#000" stroke-linecap="round" stroke-linejoin="round" stroke-width=".3"/>
  <path d="M50.2 29.8s0 .8-.4.8-.6-.2-.6-.3-.1-.3 0-.5.1-.2.3-.3h.2zm-3.6-.5a.6.6 0 0 1-.2.6.6.6 0 0 1-.7-.1c-.1-.1 0-.6 0-.7s.2-.2.2-.2z"/>
  <circle cx="49.6" cy="29.9" r=".2" fill="#fff"/>
  <circle cx="46.1" cy="29.3" r=".2" fill="#fff"/>
  <path d="M47.7 28.4a10.5 10.5 0 0 1-1.1 2.7c-.5.7-.5.5-.4.9s.9.5 1.5.4.4-.4.4-.4" fill="none" stroke="#000" stroke-linecap="round" stroke-linejoin="round" stroke-width=".3"/>
  <path d="M45.8 28s1.4 0 1.8.4" fill="none" stroke="#000" stroke-linecap="round" stroke-linejoin="round" stroke-width=".4"/>
  <path d="M46 33.3h.8a4.7 4.7 0 0 1 1 .5l.6-.2m-.7.4a2.9 2.9 0 0 1-1 0m-.3.8s.6-.4 1 0" fill="none" stroke="#000" stroke-linecap="round" stroke-linejoin="round" stroke-width=".3"/>
  <path d="M51.6 40.9l-.7 2.9M49.5 41s-.4 2.1-.4 2.7m-1.4-2.8s-.3 2-.3 2.6M46 40.6s-.2 2.3-.2 2.8" fill="none" stroke="#000" stroke-linecap="round" stroke-linejoin="round" stroke-width=".4"/>
  <circle cx="27" cy="23.1" r="8.2" fill="#fff"/>
  <circle cx="27" cy="23.1" r="7.2"/>
  <circle cx="27" cy="23.1" r="8.2" fill="none" stroke="#000" stroke-miterlimit="10" stroke-width=".6"/>
  <path fill="#fbc219" d="M25.6 19.7L27 17l1.4 2.7 2.9-.9-.9 2.9 2.7 1.4-2.7 1.4.9 3-2.9-1-1.4 2.7-1.4-2.7-2.9 1 .9-3-2.7-1.4 2.7-1.4-.9-2.9 2.9.9z"/>
  <circle cx="27" cy="23.1" r="3.6" fill="none" stroke="#000" stroke-miterlimit="10" stroke-width=".3"/>
  <circle cx="27" cy="23.1" r="2.9" fill="none" stroke="#000" stroke-miterlimit="10" stroke-width=".4"/>
  <path d="M27 20.9a2.2 2.2 0 0 0-2.1 1.5 2.1 2.1 0 0 1 1.2-.4 2.2 2.2 0 0 1 2.2 2.3 1.5 1.5 0 0 1-.1.7 2.4 2.4 0 0 0 1.1-1.9 2.3 2.3 0 0 0-2.3-2.2z" fill="#d09b07"/>
  <circle cx="29.2" cy="17.6" r=".6" fill="#fbc219"/>
  <circle cx="32.4" cy="20.9" r=".6" fill="#fbc219"/>
  <circle cx="32.4" cy="25.3" r=".6" fill="#fbc219"/>
  <circle cx="29.2" cy="28.6" r=".6" fill="#fbc219"/>
  <circle cx="24.6" cy="28.6" r=".6" fill="#fbc219"/>
  <circle cx="21.6" cy="25.3" r=".6" fill="#fbc219"/>
  <circle cx="21.6" cy="20.9" r=".6" fill="#fbc219"/>
  <circle cx="24.6" cy="17.6" r=".6" fill="#fbc219"/>
</svg>
