<svg xmlns="http://www.w3.org/2000/svg" viewBox="0 0 87 140">
  <rect width="87" height="140" rx="6" ry="6" fill="#fff"/>
  <circle cx="23.2" cy="23.4" r="6.7"/>
  <circle cx="23.2" cy="23.4" r="7.8" fill="none" stroke="#000" stroke-miterlimit="10" stroke-width=".4"/>
  <path fill="#fbc219" d="M21.8 20.2l1.4-2.5 1.3 2.5 2.7-.9-.8 2.8 2.5 1.3-2.5 1.3.8 2.8-2.7-.9-1.3 2.6-1.4-2.6-2.7.9.9-2.8-2.6-1.3 2.6-1.3-.9-2.8 2.7.9z"/>
  <circle cx="23.2" cy="23.4" r="3.4" fill="none" stroke="#000" stroke-miterlimit="10" stroke-width=".3"/>
  <circle cx="23.2" cy="23.4" r="2.7" fill="none" stroke="#000" stroke-miterlimit="10" stroke-width=".4"/>
  <path d="M23.2 21.3a2.1 2.1 0 0 0-2 1.4 2 2 0 0 1 1.1-.3 2.1 2.1 0 0 1 2.1 2.1 1.5 1.5 0 0 1-.1.7 2.1 2.1 0 0 0-1.1-3.9z" fill="#d09b07"/>
  <circle cx="25.3" cy="18.2" r=".6" fill="#fbc219"/>
  <circle cx="28.3" cy="21.3" r=".6" fill="#fbc219"/>
  <circle cx="28.3" cy="25.5" r=".6" fill="#fbc219"/>
  <circle cx="25.3" cy="28.6" r=".6" fill="#fbc219"/>
  <circle cx="20.9" cy="28.6" r=".6" fill="#fbc219"/>
  <circle cx="18" cy="25.5" r=".6" fill="#fbc219"/>
  <circle cx="18" cy="21.3" r=".6" fill="#fbc219"/>
  <circle cx="20.9" cy="18.2" r=".6" fill="#fbc219"/>
  <circle cx="63.8" cy="23.4" r="6.7"/>
  <circle cx="63.8" cy="23.4" r="7.8" fill="none" stroke="#000" stroke-miterlimit="10" stroke-width=".4"/>
  <path fill="#fbc219" d="M62.5 20.2l1.3-2.5 1.4 2.5 2.7-.9-.9 2.8 2.6 1.3-2.6 1.3.9 2.8-2.7-.9-1.4 2.6-1.3-2.6-2.7.9.8-2.8-2.5-1.3 2.5-1.3-.8-2.8 2.7.9z"/>
  <circle cx="63.8" cy="23.4" r="3.4" fill="none" stroke="#000" stroke-miterlimit="10" stroke-width=".3"/>
  <circle cx="63.8" cy="23.4" r="2.7" fill="none" stroke="#000" stroke-miterlimit="10" stroke-width=".4"/>
  <path d="M63.8 21.3a2.2 2.2 0 0 0-2 1.4 2.4 2.4 0 0 1 1.2-.3 2.1 2.1 0 0 1 2.1 2.1c0 .3-.1.5-.1.7a2.1 2.1 0 0 0 1-1.8 2.1 2.1 0 0 0-2.2-2.1z" fill="#d09b07"/>
  <circle cx="65.9" cy="18.2" r=".6" fill="#fbc219"/>
  <circle cx="69" cy="21.3" r=".6" fill="#fbc219"/>
  <circle cx="69" cy="25.5" r=".6" fill="#fbc219"/>
  <circle cx="65.9" cy="28.6" r=".6" fill="#fbc219"/>
  <circle cx="61.6" cy="28.6" r=".6" fill="#fbc219"/>
  <circle cx="58.7" cy="25.5" r=".6" fill="#fbc219"/>
  <circle cx="58.7" cy="21.3" r=".6" fill="#fbc219"/>
  <circle cx="61.6" cy="18.2" r=".6" fill="#fbc219"/>
  <circle cx="23.2" cy="70" r="6.7"/>
  <circle cx="23.2" cy="70" r="7.8" fill="none" stroke="#000" stroke-miterlimit="10" stroke-width=".4"/>
  <path fill="#fbc219" d="M21.8 66.8l1.4-2.6 1.3 2.6 2.7-.9-.8 2.8 2.5 1.3-2.5 1.3.8 2.8-2.7-.9-1.3 2.6-1.4-2.6-2.7.9.9-2.8-2.6-1.3 2.6-1.3-.9-2.8 2.7.9z"/>
  <circle cx="23.2" cy="70" r="3.4" fill="none" stroke="#000" stroke-miterlimit="10" stroke-width=".3"/>
  <circle cx="23.2" cy="70" r="2.7" fill="none" stroke="#000" stroke-miterlimit="10" stroke-width=".4"/>
  <path d="M23.2 67.9a2.1 2.1 0 0 0-2 1.4 2 2 0 0 1 1.1-.3 2.1 2.1 0 0 1 2.1 2.1 1.7 1.7 0 0 1-.1.7 2.1 2.1 0 0 0-1.1-3.9z" fill="#d09b07"/>
  <circle cx="25.3" cy="64.8" r=".6" fill="#fbc219"/>
  <circle cx="28.3" cy="67.9" r=".6" fill="#fbc219"/>
  <circle cx="28.3" cy="72.1" r=".6" fill="#fbc219"/>
  <circle cx="25.3" cy="75.1" r=".6" fill="#fbc219"/>
  <circle cx="20.9" cy="75.1" r=".6" fill="#fbc219"/>
  <circle cx="18" cy="72.1" r=".6" fill="#fbc219"/>
  <circle cx="18" cy="67.9" r=".6" fill="#fbc219"/>
  <circle cx="20.9" cy="64.8" r=".6" fill="#fbc219"/>
  <circle cx="63.8" cy="70" r="6.7"/>
  <circle cx="63.8" cy="70" r="7.8" fill="none" stroke="#000" stroke-miterlimit="10" stroke-width=".4"/>
  <path fill="#fbc219" d="M62.5 66.8l1.3-2.6 1.4 2.6 2.7-.9-.9 2.8 2.6 1.3-2.6 1.3.9 2.8-2.7-.9-1.4 2.6-1.3-2.6-2.7.9.8-2.8-2.5-1.3 2.5-1.3-.8-2.8 2.7.9z"/>
  <circle cx="63.8" cy="70" r="3.4" fill="none" stroke="#000" stroke-miterlimit="10" stroke-width=".3"/>
  <circle cx="63.8" cy="70" r="2.7" fill="none" stroke="#000" stroke-miterlimit="10" stroke-width=".4"/>
  <path d="M63.8 67.9a2.2 2.2 0 0 0-2 1.4A2.4 2.4 0 0 1 63 69a2.1 2.1 0 0 1 2.1 2.1c0 .2-.1.5-.1.7a2.1 2.1 0 0 0 1-1.8 2.1 2.1 0 0 0-2.2-2.1z" fill="#d09b07"/>
  <circle cx="65.9" cy="64.8" r=".6" fill="#fbc219"/>
  <circle cx="69" cy="67.9" r=".6" fill="#fbc219"/>
  <circle cx="69" cy="72.1" r=".6" fill="#fbc219"/>
  <circle cx="65.9" cy="75.1" r=".6" fill="#fbc219"/>
  <circle cx="61.6" cy="75.1" r=".6" fill="#fbc219"/>
  <circle cx="58.7" cy="72.1" r=".6" fill="#fbc219"/>
  <circle cx="58.7" cy="67.9" r=".6" fill="#fbc219"/>
  <circle cx="61.6" cy="64.8" r=".6" fill="#fbc219"/>
  <circle cx="23.2" cy="116.6" r="6.7"/>
  <circle cx="23.2" cy="116.6" r="7.8" fill="none" stroke="#000" stroke-miterlimit="10" stroke-width=".4"/>
  <path fill="#fbc219" d="M21.8 113.4l1.4-2.6 1.3 2.6 2.7-.9-.8 2.8 2.5 1.3-2.5 1.3.8 2.8-2.7-.9-1.3 2.5-1.4-2.5-2.7.9.9-2.8-2.6-1.3 2.6-1.3-.9-2.8 2.7.9z"/>
  <circle cx="23.2" cy="116.6" r="3.4" fill="none" stroke="#000" stroke-miterlimit="10" stroke-width=".3"/>
  <circle cx="23.2" cy="116.6" r="2.7" fill="none" stroke="#000" stroke-miterlimit="10" stroke-width=".4"/>
  <path d="M23.2 114.5a2 2 0 0 0-2 1.4 2.1 2.1 0 0 1 1.1-.4 2.1 2.1 0 0 1 2.1 2.2 1.7 1.7 0 0 1-.1.7 2.2 2.2 0 0 0 1-1.8 2.1 2.1 0 0 0-2.1-2.1z" fill="#d09b07"/>
  <circle cx="25.3" cy="111.4" r=".6" fill="#fbc219"/>
  <circle cx="28.3" cy="114.5" r=".6" fill="#fbc219"/>
  <circle cx="28.3" cy="118.6" r=".6" fill="#fbc219"/>
  <circle cx="25.3" cy="121.7" r=".6" fill="#fbc219"/>
  <circle cx="20.9" cy="121.7" r=".6" fill="#fbc219"/>
  <circle cx="18" cy="118.6" r=".6" fill="#fbc219"/>
  <circle cx="18" cy="114.5" r=".6" fill="#fbc219"/>
  <circle cx="20.9" cy="111.4" r=".6" fill="#fbc219"/>
  <circle cx="63.8" cy="116.6" r="6.7"/>
  <circle cx="63.8" cy="116.6" r="7.8" fill="none" stroke="#000" stroke-miterlimit="10" stroke-width=".4"/>
  <path fill="#fbc219" d="M62.5 113.4l1.3-2.6 1.4 2.6 2.7-.9-.9 2.8 2.6 1.3-2.6 1.3.9 2.8-2.7-.9-1.4 2.5-1.3-2.5-2.7.9.8-2.8-2.5-1.3 2.5-1.3-.8-2.8 2.7.9z"/>
  <circle cx="63.8" cy="116.6" r="3.4" fill="none" stroke="#000" stroke-miterlimit="10" stroke-width=".3"/>
  <circle cx="63.8" cy="116.6" r="2.7" fill="none" stroke="#000" stroke-miterlimit="10" stroke-width=".4"/>
  <path d="M63.8 114.5a2 2 0 0 0-2 1.4 2.5 2.5 0 0 1 1.2-.4 2.2 2.2 0 0 1 2.1 2.2c0 .2-.1.5-.1.7a2.2 2.2 0 0 0 1-1.8 2.1 2.1 0 0 0-2.2-2.1z" fill="#d09b07"/>
  <circle cx="65.9" cy="111.4" r=".6" fill="#fbc219"/>
  <circle cx="69" cy="114.5" r=".6" fill="#fbc219"/>
  <circle cx="69" cy="118.6" r=".6" fill="#fbc219"/>
  <circle cx="65.9" cy="121.7" r=".6" fill="#fbc219"/>
  <circle cx="61.6" cy="121.7" r=".6" fill="#fbc219"/>
  <circle cx="58.7" cy="118.6" r=".6" fill="#fbc219"/>
  <circle cx="58.7" cy="114.5" r=".6" fill="#fbc219"/>
  <circle cx="61.6" cy="111.4" r=".6" fill="#fbc219"/>
  <circle cx="43.5" cy="46.7" r="6.7"/>
  <circle cx="43.5" cy="46.7" r="7.8" fill="none" stroke="#000" stroke-miterlimit="10" stroke-width=".4"/>
  <path fill="#fbc219" d="M42.2 43.5l1.3-2.6 1.3 2.6 2.8-.9-.9 2.8 2.6 1.3-2.6 1.3.9 2.8-2.8-.9-1.3 2.6-1.3-2.6-2.8.9.9-2.8-2.6-1.3 2.6-1.3-.9-2.8 2.8.9z"/>
  <circle cx="43.5" cy="46.7" r="3.4" fill="none" stroke="#000" stroke-miterlimit="10" stroke-width=".3"/>
  <circle cx="43.5" cy="46.7" r="2.7" fill="none" stroke="#000" stroke-miterlimit="10" stroke-width=".4"/>
  <path d="M43.5 44.6a2.2 2.2 0 0 0-2 1.4 2 2 0 0 1 1.1-.3 2.1 2.1 0 0 1 2.2 2.1 1.9 1.9 0 0 1-.2.7 2.1 2.1 0 0 0 1-1.8 2.1 2.1 0 0 0-2.1-2.1z" fill="#d09b07"/>
  <circle cx="45.6" cy="41.5" r=".6" fill="#fbc219"/>
  <circle cx="48.6" cy="44.6" r=".6" fill="#fbc219"/>
  <circle cx="48.6" cy="48.8" r=".6" fill="#fbc219"/>
  <circle cx="45.6" cy="51.8" r=".6" fill="#fbc219"/>
  <circle cx="41.3" cy="51.8" r=".6" fill="#fbc219"/>
  <circle cx="38.4" cy="48.8" r=".6" fill="#fbc219"/>
  <circle cx="38.4" cy="44.6" r=".6" fill="#fbc219"/>
  <circle cx="41.3" cy="41.5" r=".6" fill="#fbc219"/>
</svg>
