<svg xmlns="http://www.w3.org/2000/svg" viewBox="0 0 87 140"><defs><style>.cls-1{fill:#fff}.cls-2{fill:#856353}.cls-3{fill:#a77e6a}.cls-4{fill:#a67c52}.cls-5{fill:#d09b07}.cls-7{fill:#febf10}.cls-8{fill:#f2f2f2}.cls-9{fill:#b3b3b3}.cls-14,.cls-19{fill:none;stroke:#000;stroke-linecap:round;stroke-linejoin:round}.cls-14{stroke-width:.4px}.cls-16{fill:#fbc219}.cls-19{stroke-width:.3px}</style></defs><g id="Livello_2" data-name="Livello 2"><g id="Livello_1-2" data-name="Livello 1"><path class="cls-1" d="M6 0h75a6.02 6.02 0 0 1 6 6v128a6.02 6.02 0 0 1-6 6H6a6.02 6.02 0 0 1-6-6V6a6.02 6.02 0 0 1 6-6z"/><path class="cls-2" d="M68.34 114.18a.73.73 0 0 0-.46-.4 3.65 3.65 0 0 1-.56.38 3 3 0 0 1-2.75.02q-1.47.33-.99 3.23a4.46 4.46 0 0 0 4.73-1.46 2.67 2.67 0 0 0 .03-1.77z"/><path class="cls-3" d="M25.36 89.48a15.27 15.27 0 0 0 .71 4.16L26 100.1a3.06 3.06 0 0 0-.23 3.72 40.86 40.86 0 0 1-1.62 9.13l-.02.74a5.25 5.25 0 0 0-.28.49 2.1 2.1 0 0 0-.43 1.7q-.2.22-.69.84-.45.6-1.16 1.73-.73 1.1-.22 1.57a3.05 3.05 0 0 0 .62.1 7.99 7.99 0 0 0 2.72-.17 4.1 4.1 0 0 0 1.9-1.2 2.42 2.42 0 0 0 .55-2.33 2.3 2.3 0 0 1-.26-.41l-.04-.04q-.06-.02-.08-.11a.12.12 0 0 1-.05-.06.2.2 0 0 0-.04-.07q-.02 0-.02-.04-.04-.02-.05-.11a.37.37 0 0 1-.04-.17 9.64 9.64 0 0 1 .05-1.03l1.09.77q.02-.41.02-1 0-1.35-.2-3.69l1.24-6.14a6.19 6.19 0 0 0 1.2-4.13 1.34 1.34 0 0 1-.13-.76 22.46 22.46 0 0 0-1.68-11.54l-2.79 1.59m34.27 3.89q-.23-.1-.44-.22a7.6 7.6 0 0 1-2.89-3.28 2 2 0 0 0-.5.13 3.45 3.45 0 0 0-1.82 3.08 1.97 1.97 0 0 1 .12.17l1.71 2.52a16.5 16.5 0 0 1 1.6 2.84 7.41 7.41 0 0 1 .33 3.94l-.02.16a18.03 18.03 0 0 1-1.4 7.2 3.42 3.42 0 0 1-.19.44.08.08 0 0 1-.04.07v.04a.3.3 0 0 0-.01.1.37.37 0 0 0-.04.16 2.77 2.77 0 0 0 .33 1.39.21.21 0 0 1 .08.07 3.74 3.74 0 0 1-.9 1.34 2.03 2.03 0 0 0-.39.64v.02a4.24 4.24 0 0 0-.19 1.57 4.05 4.05 0 0 0 1.89.16 10.81 10.81 0 0 0 1.64-.44 7.6 7.6 0 0 0 1.42-.68 1.15 1.15 0 0 0 .54-.61 1.48 1.48 0 0 0 .02-.25l.06-.78a.63.63 0 0 0-.17-.15 1.45 1.45 0 0 1-.19-.07l-.4-.23a.55.55 0 0 1-.03-.13 2.07 2.07 0 0 1 .06-.46l.99-.15a1.71 1.71 0 0 0 .1-.23l.12-.69-.18-.2a4.32 4.32 0 0 1-.6-2.08 18.45 18.45 0 0 1-.11-3.47 17.75 17.75 0 0 1 .28-2.76l.25-1.22.57-1.9-.22-.22-.12-.6.38-.5-.22-.35-.16-1.5L60 95.2l-.03-1.83h-.35l.33.14"/><path class="cls-3" d="M26.28 63.52l.33 1.67.2.86a2.28 2.28 0 0 1-.68 1.83A11.55 11.55 0 0 0 24.67 70a14.35 14.35 0 0 0-.26 7.47 7.49 7.49 0 0 0 .2.84l.25.17a2.73 2.73 0 0 0 .17.54 14.57 14.57 0 0 0 2.69 3.94l.31.13.4.64.03-.04.11-.77a2.92 2.92 0 0 1 .77-1.58.4.4 0 0 1 .17-.15.95.95 0 0 0 .02.18 12.18 12.18 0 0 0 .63 1.52q.37.67.82 1.32a13.77 13.77 0 0 0 1.05 4.86q.28.72.67 1.56a2.74 2.74 0 0 1 .11.27q.04.33.06.67.04.32.05.65a5.27 5.27 0 0 1 .04.62q.04.31.06.63l.1.62q.01.28.05.6l.05.57a4.92 4.92 0 0 0 .08.58l.1.56.16 1.1q.07.5.19 1.03l.2 1.01a6.42 6.42 0 0 1 .15.77 1.94 1.94 0 0 1-.11.9v.03a.2.2 0 0 0-.04.07q0 .04-.02.04a.13.13 0 0 1-.03.1v.01a.3.3 0 0 0-.02.1 1.71 1.71 0 0 1-.1.22l-.03.06a.47.47 0 0 1-.06.1.3.3 0 0 0-.02.1.08.08 0 0 1-.04.08c0 .03.18.25.16.27l-.08.13a5.58 5.58 0 0 0-.08 2.17 9.22 9.22 0 0 1 .15 2.5q-.09 1.26-.2 2.47a7.2 7.2 0 0 1-.77 2.67 8.2 8.2 0 0 0-.7 1.83l-.12.5a3.8 3.8 0 0 0 0 1.07l.11.48a3.97 3.97 0 0 0-1.23 1.05 4.51 4.51 0 0 0-.28.48v.02l-.1.2a.12.12 0 0 1-.05.08.13.13 0 0 1-.04.1.8.8 0 0 0-.07.26.56.56 0 0 1-.06.07.55.55 0 0 0-.03.2.08.08 0 0 1-.02.06l-.04.04a.3.3 0 0 0-.02.08.13.13 0 0 1-.04.09.8.8 0 0 0-.07.22v.1a.2.2 0 0 0-.04.07.8.8 0 0 0-.02.15l-.03.06a.87.87 0 0 1-.02.16.56.56 0 0 1-.06.08.2.2 0 0 1-.04.11.93.93 0 0 0-.07.52l.02.02a4 4 0 0 0 1.7.19 5.13 5.13 0 0 0 2.78-1 1.98 1.98 0 0 0 .82-2.03.4.4 0 0 1-.17-.15 1.01 1.01 0 0 1-.32-.52l-.03-.02a.08.08 0 0 0-.02-.05c-.03-.14 0-.04.1-.13.11-.1.39-.15.14-.25.04-.08-.22-.26-.22-.33l.95 1.16.28-.28a1.36 1.36 0 0 0 .5-1.26q-.15-.42-.26-.84a6.06 6.06 0 0 1-.17-.76 1.26 1.26 0 0 1-.01-.2 11.46 11.46 0 0 1-.15-2.43q.03-.7.09-1.48a14.94 14.94 0 0 1 .28-2.26 9.3 9.3 0 0 1 .45-1.62q.39-.97.82-2.1a3.5 3.5 0 0 0 .1-2.33 3.38 3.38 0 0 1 .16-2.44q.5-1.12 1.1-2.22a9.55 9.55 0 0 0 .73-2.84l-.35-.13q-.27-.15-.49-.3l-.26-.19a1.9 1.9 0 0 0-.22-.22l-.02-.02q0-.26.02-.49a1.28 1.28 0 0 1 .09-.26.94.94 0 0 1 .65-.32q.52-.13 1.01-.28a19.94 19.94 0 0 0 .56-2.57 16.6 16.6 0 0 0 .1-4.22q-.77-1.16-1.5-2.4a4.95 4.95 0 0 1-.47-4.45 7.85 7.85 0 0 0 .47 1.38 4.84 4.84 0 0 0 1.75 2.18.69.69 0 0 0 .25-.26 10.09 10.09 0 0 0 1.8-9.04 7.8 7.8 0 0 1-3.63-8.68 11.19 11.19 0 0 1 .7-2.5 29.71 29.71 0 0 1-6.23 1.03 30.44 30.44 0 0 1-.93 4.85 5.19 5.19 0 0 1-.23.62l-.69-.7-.28-4.83a41.56 41.56 0 0 1-5.65-.69l.39 1.77m-5.14-4.29a.41.41 0 0 1-.07-.17 8.24 8.24 0 0 0-4.99-1.5 4.63 4.63 0 0 0-2.24.81 4.74 4.74 0 0 1 .1 2.1l-.2.9-.1.57a1.8 1.8 0 0 0 2.16-.13.66.66 0 0 1 .3-.13l.1.74.7.45a.54.54 0 0 0 .21.2 1.05 1.05 0 0 0 .7.5 6.25 6.25 0 0 0 .68-.04 1.48 1.48 0 0 0 .23-.2l1.02-.42.53-.75a2.2 2.2 0 0 1 .26-1.12q.26-.46.61-.46a.8.8 0 0 1-.02-.15 2.25 2.25 0 0 1 .02-1.2m4.11-7.13q-.07.28-.17.58l-1.64 2.26a17.79 17.79 0 0 1 2 5.49 34.7 34.7 0 0 0 5.6.8 19.58 19.58 0 0 1-.97-1.9 22.14 22.14 0 0 0-4.82-7.23m7.71 2.05q-1.2-1.14-2.35-2.2a1.73 1.73 0 0 0-.2-.06 1.52 1.52 0 0 0 .14.66 84.08 84.08 0 0 1 3.03 8.68 34.01 34.01 0 0 0 4.87-.58l.15-.11q-.5-.64-1.03-1.25a62.5 62.5 0 0 0-4.27-4.8l-.13-.17a1.34 1.34 0 0 1-.2-.17"/><path class="cls-3" d="M34.98 48.05a.22.22 0 0 1-.11-.13l-.25-.25a25.4 25.4 0 0 0-3.36-3.04v.04a17.4 17.4 0 0 0-10.79-4.61 12.03 12.03 0 0 0-2.72-2.54q-.64-.04-.3 1.12l.5 1.36a2.12 2.12 0 0 0-.88.65l-.16.55-.55-.77a3.46 3.46 0 0 0-1.92-1.89 5.05 5.05 0 0 0-.26.84 4.93 4.93 0 0 0-.13.98q.06.76.17 1.58.05.41.17.88a2 2 0 0 0-.49.06l-.34.16a.88.88 0 0 0-.16.23.12.12 0 0 0-.06.07l-.4.5a.61.61 0 0 1-.18.21 2.23 2.23 0 0 1-.24.24 1 1 0 0 1-.49.12q-.1-.02-.15.03 0 .02-.05.02l-.19.1a.23.23 0 0 0 .19.13 1.43 1.43 0 0 0 .26.07.2.2 0 0 1 .11.04.2.2 0 0 0 .1.02.78.78 0 0 0 .82-.26l-.36 1.64-.24.15a4.35 4.35 0 0 0-.43.1l.4.3.05.03a5 5 0 0 0 .16 4.93 6.33 6.33 0 0 1 .92 3.36 19.1 19.1 0 0 0 .11 2.03q.4-.7 2.19-1.04a.42.42 0 0 1 .18-.04 8.44 8.44 0 0 1 3.27.32 5.98 5.98 0 0 1 2.18 1.2l1.18-1.61a1.16 1.16 0 0 1 .04-.28 6.37 6.37 0 0 1 .39-.94 16.26 16.26 0 0 1 .8-1.45 8.7 8.7 0 0 0-.26-1.16 16 16 0 0 1-.6-6.85l-.78-.84a6.46 6.46 0 0 0-.2-1.3l2.23 1.54a.55.55 0 0 0 .2.15 1.27 1.27 0 0 0 .4.2 9.27 9.27 0 0 1 1.37.66 7.11 7.11 0 0 1 .95.73 3.5 3.5 0 0 0 .45.4 4.3 4.3 0 0 0 .69.44 1 1 0 0 1 .33.22 12.66 12.66 0 0 0 1.16 1.03.83.83 0 0 1 .26.2q.32.26.62.54l.91.96v.03q.11.15.23.28a1.48 1.48 0 0 1 .18.23 17.12 17.12 0 0 0 1.53 1.68l1.12 1.1.2.26a2.65 2.65 0 0 1 .36.37q.79.96 1.42 1.68a1.15 1.15 0 0 1 .19.25 1.89 1.89 0 0 0 .52.37.46.46 0 0 1 .17.13 3.28 3.28 0 0 0 1.16.92q.4.18.93.46a12.9 12.9 0 0 0-.48-3.13v-.02a24.39 24.39 0 0 0-4.24-6.74"/><path class="cls-3" d="M20.68 43.04a.27.27 0 0 0 .05.17.42.42 0 0 0 .08.19l-1.59-.67a2.05 2.05 0 0 1-.54-1.31 15.21 15.21 0 0 0-.24-2.5l.65.78a5.57 5.57 0 0 1 1.55 2.07 1.99 1.99 0 0 1 .04 1.27"/><path class="cls-4" d="M47.7 35.46a3.72 3.72 0 0 0-.64-.09l.18.56.88.41h.02a.74.74 0 0 0 .1.11.08.08 0 0 0 .05.02.2.2 0 0 0 .08.13 1.05 1.05 0 0 1 .22.26.73.73 0 0 1 .17.27l.03.01h.27a.35.35 0 0 0 .28-.03.1.1 0 0 0 .07-.02q.04 0 .06.05a2.45 2.45 0 0 0 .3.38l.01.02q.06.03.06.05l.26.24.95-1.1.41-.35a1.5 1.5 0 0 0 .42-.43v-.02h.03a3.34 3.34 0 0 0 .3-.6q-.02 0-.05-.03l-.06-.02a.2.2 0 0 1-.08-.04l-.03-.02a.5.5 0 0 1-.23-.2.14.14 0 0 0-.02-.06.12.12 0 0 1-.09-.11q0 .07-.05.07l-.02.04a.91.91 0 0 0-.06.1 1.26 1.26 0 0 0-.15.2.7.7 0 0 1-.32.28.08.08 0 0 1-.05.02q0 .03-.02.03a.2.2 0 0 1-.1.02q-.07-.02-.1-.13l-.12-.24a.08.08 0 0 0-.02-.06.4.4 0 0 0-.09-.26.03.03 0 0 0-.04-.04q-.11 0-.11.14a.02.02 0 0 1-.02.01.91.91 0 0 0-.05.1q-.06.02-.06.1 0 .03-.04.07a.11.11 0 0 1-.07.07.05.05 0 0 1-.06.06.8.8 0 0 0-.2.2.17.17 0 0 1-.12.1.33.33 0 0 1-.09-.04.49.49 0 0 1-.13-.08l-.04-.03-.22-.23a.22.22 0 0 0-.06-.04.2.2 0 0 1-.02-.09q-.05-.11-.15-.07a.14.14 0 0 1-.01.05q0 .02-.04.06a.12.12 0 0 1-.06.07q0 .04-.02.04a.13.13 0 0 1-.18.06.12.12 0 0 0-.06-.06q-.02 0-.05-.04a1.85 1.85 0 0 1-.14-.15.23.23 0 0 0-.09-.05.28.28 0 0 1-.11-.1.02.02 0 0 0-.02-.01.3.3 0 0 1-.11-.1.33.33 0 0 0-.04-.1.14.14 0 0 1-.05-.01.12.12 0 0 0-.06-.06v.45a.13.13 0 0 1-.04.1.14.14 0 0 1-.02.05.56.56 0 0 1-.05.08.6.6 0 0 1-.23.03m-2.39-5a.63.63 0 0 1 .1.2 1.63 1.63 0 0 0 .33.6 1.22 1.22 0 0 1 1.16-1.3 3.06 3.06 0 0 1 2.93-2.5q-4.7-1-7.26 2.16v.06a4.05 4.05 0 0 0 1.87 4.78l.26-2.26a.33.33 0 0 1-.17-.12.18.18 0 0 1-.1-.03.63.63 0 0 1-.13-.23.16.16 0 0 0-.05-.1.72.72 0 0 1-.06-.23 2.12 2.12 0 0 1-.03-.56.94.94 0 0 1 .26-.64.6.6 0 0 1 .48-.07.44.44 0 0 1 .36.18.12.12 0 0 1 .05.06"/><path class="cls-3" d="M68.4 61.45a8.55 8.55 0 0 0-.7-.56 14.64 14.64 0 0 0-8.06-2.78 9.17 9.17 0 0 1 3.2 5.84l.05.49q-.6 6.12-5.28 8.38c.07.14-.48.53-.4.68a4.83 4.83 0 0 0-2.07 3.54 9.28 9.28 0 0 0 .71 5.94l.67 1.12a28.91 28.91 0 0 0 3.85 4.82q1.2 1.14 2.52 2.2a13.51 13.51 0 0 1 3.4 7.93 8.76 8.76 0 0 0-.11 4.73 9.6 9.6 0 0 1-.79 5.64 6.02 6.02 0 0 0-.82 4.74v.02a3 3 0 0 0 2.75-.02 3.65 3.65 0 0 0 .56-.37.02.02 0 0 0-.02-.02q-.58-.73.13-1.85l.8.82c.45-.52.2-1.39-.52-3.09 0-.04-.19-.47-.19-.5-.17-1.7.67-3.51 1.9-5.73a7.56 7.56 0 0 0 .7-2.4 4.36 4.36 0 0 0 0-1.14 12.99 12.99 0 0 1-3.96-10.81 9.16 9.16 0 0 0-.11-2.34l1.86.28A38.38 38.38 0 0 0 70.5 75.7a42.75 42.75 0 0 0-2.1-14.25z"/><path class="cls-2" d="M31.99 117.31l-1.13.25-.71.88-.25.58-.21 1.3 1.76.25 2.47-.88.96-1.21.17-.92-.54-.67-.59.33-.46.09h-1.47zm-9.42-.34l-1.47 2.01.13 1.05 3.01.04 2.26-1.34.68-1.42-.26-1.22-.37-.63-.05.29-1.92.76-2.01.46zm33.55-4.02l-1.09.84-.83 2.3 1.92-.08 3.19-1.01 1.09-.71.12-1.22-.79-.5-.97.25-1.13.17-1.51-.04z"/><path class="cls-5" d="M36.04 114.92q.11.42.26.84a1.36 1.36 0 0 1-.5 1.26l-.28.28-.95-1.16c0 .07.17.28.13.36l-.05.22c0 .14-.13 0-.1.13a.08.08 0 0 1 .02.05l.03.02a1.01 1.01 0 0 0 .32.53.4.4 0 0 0 .17.14 1.98 1.98 0 0 1-.82 2.02 5.13 5.13 0 0 1-2.78 1 4 4 0 0 1-1.7-.18l-.02-.02a.93.93 0 0 1 .07-.52.2.2 0 0 0 .04-.11.56.56 0 0 0 .06-.08.87.87 0 0 0 .02-.16l.03-.06a.8.8 0 0 1 .02-.15.2.2 0 0 1 .04-.07v-.1a.8.8 0 0 1 .07-.22.13.13 0 0 0 .04-.1.3.3 0 0 1 .02-.07l.04-.04a.08.08 0 0 0 .02-.05.55.55 0 0 1 .03-.2.56.56 0 0 0 .06-.08.8.8 0 0 1 .07-.26.13.13 0 0 0 .04-.1.12.12 0 0 0 .06-.07q.03-.1.1-.2v-.03a4.51 4.51 0 0 1 .27-.48 3.97 3.97 0 0 1 1.23-1.05l-.1-.48a3.8 3.8 0 0 1 0-1.07l.1-.5h-4.38q0 .58-.02.99l-1.09-.77a9.64 9.64 0 0 0-.05 1.03.37.37 0 0 0 .04.17q.01.1.05.11 0 .04.02.04a.2.2 0 0 1 .04.07.12.12 0 0 0 .05.06q.02.1.08.11l.04.04a2.3 2.3 0 0 0 .26.4 2.42 2.42 0 0 1-.54 2.34 4.1 4.1 0 0 1-1.9 1.2 7.99 7.99 0 0 1-2.73.16 3.05 3.05 0 0 1-.62-.09q-.5-.47.22-1.57.71-1.14 1.16-1.73.49-.62.7-.84a2.1 2.1 0 0 1 .42-1.7l-5.04-.02-8.55 9.82 59.01.2 7.53-10.02-8.46.02a2.67 2.67 0 0 1-.04 1.77 4.46 4.46 0 0 1-4.72 1.46q-.48-2.9 1-3.23v-.02l-4.12.02a1.15 1.15 0 0 1-.54.61 7.6 7.6 0 0 1-1.42.68 10.81 10.81 0 0 1-1.64.44 6.54 6.54 0 0 1-2.5.26 6.36 6.36 0 0 1 .46-1.96l-18.95-.05a6.06 6.06 0 0 0 .17.76m12.7-32.35a9.4 9.4 0 0 0-.06 3.86 6.68 6.68 0 0 1-1.38 5.68 6.13 6.13 0 0 0-.76.3 13.89 13.89 0 0 1-8.2 1.21l.26.19q.22.15.49.3l.35.13a2.21 2.21 0 0 1 .24.05q.5.04 1.01.06h.8l1.05-.22q.3-.1.62-.17l.61-.2a4.01 4.01 0 0 1 .6-.25q.52-.17 1.03-.3h.02l1.06-.13-.1 1.03q2.38.33 3.24-.38a7.67 7.67 0 0 0 .37-2.89 13.84 13.84 0 0 1-.15-3.66l.11-.5a17.3 17.3 0 0 0 .34-4.54 1.85 1.85 0 0 1-.28.1 9.67 9.67 0 0 1-1.27.33m-7.5-21.47q-.18.39-.32.8a11.16 11.16 0 0 0-.49 2.04 18.95 18.95 0 0 1 2.33.48 3.7 3.7 0 0 1 1.14.19 19.1 19.1 0 0 1 1.6-3.83q-1.19-.1-2.4-.28-.97.34-1.87.6m15.09-.56l-.58.1a9.11 9.11 0 0 1-.47 3.52 11.82 11.82 0 0 1 4.93-.82l1.16.24a8.9 8.9 0 0 0-.36-2.15 1.98 1.98 0 0 1-.14-.33l-.06-.26-.02-.02a6.66 6.66 0 0 0-.47-.82.49.49 0 0 0-.07-.13 7.72 7.72 0 0 0-4.39-2.9l.47 3.57m-6.5-33.09q.24.08.5.13 3.63 1.24 3.53 3v.16a.08.08 0 0 0-.01.06 2.54 2.54 0 0 0 1.84-2.17q-1.02-.7-2.07-1.36-7.06-4.11-11.87 1.62a2.5 2.5 0 0 0 .82.79v-.06q2.56-3.16 7.26-2.17z"/><path class="cls-2" d="M56.84 73.88c-.09-.15.84-.92.77-1.06A14.05 14.05 0 0 1 53.13 74l-3.5.15a7.95 7.95 0 0 1 .96 4.83q.61-.09.58 1.65a1.56 1.56 0 0 1-.88 1.5 17.3 17.3 0 0 1-.34 4.55 1.66 1.66 0 0 0 .32-.08l.43.38a.84.84 0 0 0 .07.1l.2.3a33.07 33.07 0 0 1 1.56 3.05 15.64 15.64 0 0 0 1.45 2.65A3.45 3.45 0 0 1 55.8 90a2 2 0 0 1 .5-.13 7.6 7.6 0 0 0 2.9 3.28q.35.2.76.36v-.49q.02-.26.02-.54a.2.2 0 0 1 .04-.1v-.08a1.54 1.54 0 0 0 .01-.2 3.83 3.83 0 0 1 .04-.55.35.35 0 0 0 .02-.11v-.73a.18.18 0 0 1 .04-.1.55.55 0 0 0 .02-.31.57.57 0 0 1 .03-.28.35.35 0 0 1 .02-.11.83.83 0 0 0 .04-.27v-.1l.13-.62a28.91 28.91 0 0 1-3.85-4.82l-.67-1.12a9.28 9.28 0 0 1-.7-5.94c.32-1.48.52-2.5 2-3.54m-13.14.48l-.3-.8q-.46-.26-.87-.53a10.09 10.09 0 0 1-1.81 9.04.69.69 0 0 1-.25.26 4.84 4.84 0 0 1-1.75-2.18 7.85 7.85 0 0 1-.47-1.38 4.95 4.95 0 0 0 .47 4.46q.73 1.23 1.5 2.39a16.6 16.6 0 0 1-.1 4.22l5.2-1.46-.72-5.47-.65-.26q-.34-.11-.34-1.06a3.66 3.66 0 0 1 .26-2.06l.4-.17a13.46 13.46 0 0 0-.57-5M24.67 70a11.67 11.67 0 0 0-1.29 6.74 11.3 11.3 0 0 0 2.7 7.25 19.8 19.8 0 0 0-.72 5.49l2.79-1.59a22.46 22.46 0 0 1 1.68 11.54 1.34 1.34 0 0 0 .13.76l-.06-.26a20.23 20.23 0 0 0 1.7-6.25c.02.3.23-.33.23-.38l.87-2.67q-.4-.84-.67-1.56a13.77 13.77 0 0 1-1.05-4.86q-.45-.65-.82-1.32a12.18 12.18 0 0 1-.63-1.52.95.95 0 0 1-.02-.18.4.4 0 0 0-.17.15 2.92 2.92 0 0 0-.77 1.58l-.1.77-.04.04-.4-.64-.31-.13a14.57 14.57 0 0 1-2.7-3.94 2.73 2.73 0 0 1-.16-.54l-.24-.17a7.49 7.49 0 0 1-.2-.84 14.35 14.35 0 0 1 .25-7.47m9-7.5a6.93 6.93 0 0 1-.88.02q-.65-.02-1.25-.08l.28 4.84.7.69a5.19 5.19 0 0 0 .22-.62 30.44 30.44 0 0 0 .93-4.85m-12.53-1.92q-.35 0-.61.46a2.2 2.2 0 0 0-.26 1.12l-.53.75-1.02.43a1.48 1.48 0 0 1-.23.19 6.25 6.25 0 0 1-.69.03 1.05 1.05 0 0 1-.69-.48.54.54 0 0 1-.2-.2l-.71-.46-.1-.74a.66.66 0 0 0-.3.13 1.8 1.8 0 0 1-2.16.13 2.72 2.72 0 0 0 .04.63 2 2 0 0 0 .5 1.09 1.57 1.57 0 0 0 .49.09.93.93 0 0 1 .76.43 4.15 4.15 0 0 0 .93 1.12 1.86 1.86 0 0 0 1.2.35 3.2 3.2 0 0 0 1.64-1 1 1 0 0 0 .95.56q1.82-.86 1.82-2.15a2.45 2.45 0 0 0-.25-.92 8.05 8.05 0 0 1-.58-1.56m3.4-15.78a.55.55 0 0 1-.18-.15l-2.25-1.53a6.46 6.46 0 0 1 .21 1.29l.78.84a16 16 0 0 0 .6 6.85 8.7 8.7 0 0 1 .26 1.16 16.26 16.26 0 0 0-.8 1.45 6.37 6.37 0 0 0-.4.94 1.16 1.16 0 0 0-.03.28l.71-1 1.64-2.25q.1-.3.17-.58a22.14 22.14 0 0 1 4.82 7.22 19.58 19.58 0 0 0 .97 1.9q1.25.03 2.54 0a84.08 84.08 0 0 0-3.03-8.67 1.52 1.52 0 0 1-.15-.66 1.73 1.73 0 0 1 .21.06q1.16 1.06 2.35 2.2a1.34 1.34 0 0 0 .2.17l.14.17a62.5 62.5 0 0 1 4.27 4.8q.53.61 1.03 1.25l.99-.36a13.79 13.79 0 0 0 .11-2.24q-.54-.28-.93-.46a3.28 3.28 0 0 1-1.16-.92.46.46 0 0 0-.17-.13 1.89 1.89 0 0 1-.52-.37 1.15 1.15 0 0 0-.19-.25q-.63-.72-1.42-1.68a2.65 2.65 0 0 0-.37-.37l-.19-.26-1.12-1.1a17.12 17.12 0 0 1-1.53-1.68 1.48 1.48 0 0 0-.18-.23q-.12-.13-.23-.28v-.03l-.91-.96q-.3-.28-.62-.54a.83.83 0 0 0-.26-.2 12.66 12.66 0 0 1-1.16-1.03 1 1 0 0 0-.33-.22 4.3 4.3 0 0 1-.7-.43 3.5 3.5 0 0 1-.44-.41 7.11 7.11 0 0 0-.95-.73 9.27 9.27 0 0 0-1.37-.66 1.27 1.27 0 0 1-.4-.2m-3.82-1.59a.27.27 0 0 1-.05-.17 1.99 1.99 0 0 0-.04-1.27 5.57 5.57 0 0 0-1.55-2.07l-.65-.78a15.21 15.21 0 0 1 .24 2.5 2.05 2.05 0 0 0 .54 1.3l1.59.68a.42.42 0 0 1-.08-.19M71.14 64.5a14.71 14.71 0 0 0-2.74-3.05 42.75 42.75 0 0 1 2.09 14.25A38.38 38.38 0 0 1 68.47 87l-1.86-.28a9.16 9.16 0 0 1 .1 2.34 12.99 12.99 0 0 0 3.97 10.8 4.36 4.36 0 0 1 0 1.15 4.16 4.16 0 0 1 1.94 2.35.67.67 0 0 0 .05.17l.34-.3-.15-1.33q.49.75.92 1.51a1.03 1.03 0 0 1 .07.27.74.74 0 0 0 .1.1 3.24 3.24 0 0 0 0-2.36 13.42 13.42 0 0 1-.5-1.42 8.3 8.3 0 0 1-.3-3.27 33.15 33.15 0 0 1 .59-3.64 2.64 2.64 0 0 0 .04-1 10.16 10.16 0 0 1 .07-4.32l.3-1.2q.05-.3.13-.58a4.04 4.04 0 0 0 .06-2.14 5.52 5.52 0 0 1-.17-1.35 12.8 12.8 0 0 1 .45-3.56 5.56 5.56 0 0 0 .22-1.4 8.82 8.82 0 0 0-.58-3.38 4.1 4.1 0 0 1-.32-1.46q-.05-1.14-.05-2.24a3.13 3.13 0 0 0-.34-1.42l-.2-.4a9.31 9.31 0 0 0-1.22-2.25q-.33-.49-.69-.97-.05-.22-.13-.45a1.71 1.71 0 0 0-.1-.22.8.8 0 0 0-.07-.26z"/><path d="M44.91 82.53a7.27 7.27 0 0 0 3.83.04 9.67 9.67 0 0 0 1.27-.34 1.85 1.85 0 0 0 .28-.1 1.56 1.56 0 0 0 .88-1.5q.03-1.74-.58-1.65l-.08.32a6.99 6.99 0 0 1-1.64.52 6.31 6.31 0 0 1-3.25-.26 5.51 5.51 0 0 1-1.04-.45v-.13l-.4.17a3.66 3.66 0 0 0-.26 2.06q0 .95.34 1.06l.65.26M52.4 58.4l-.47-1.47-.5.15a2.92 2.92 0 0 1-.56-.23q-1.46 3.06-3.7 3.38a2.97 2.97 0 0 1-2.1-.4q-1 .36-1.97.68 1.21.19 2.4.28 1.17.13 2.32.19a36.6 36.6 0 0 0 4.82-.06q-.06-.75-.06-1.51a1.77 1.77 0 0 0-.05-.43q-.08-.28-.13-.58m-9.2-14.8a2.24 2.24 0 0 0-.12.56l-.1.6a2.73 2.73 0 0 1-.16.54l-.06.17-.09.71a4.56 4.56 0 0 1-.22 1.03q-.02.15-.08.17-.24.09-.15.42a.33.33 0 0 1-.02.25 1.44 1.44 0 0 0-.09.91q0 .15-.06.17-.1.04-.14.24v.13a2.5 2.5 0 0 1 0 .75 2.26 2.26 0 0 1-.02.28l-.1 3.66q-.07 2.6-.1 5.23l3.03-1.1a2.08 2.08 0 0 1 .36-1.01 30.9 30.9 0 0 1-.08-7.88 35.31 35.31 0 0 1 .96-5.08 2.66 2.66 0 0 1-.96-.63 2.12 2.12 0 0 1-1.8-.12m4.62.56a5.73 5.73 0 0 1-.65.28 38.88 38.88 0 0 0-.82 4.99 32.54 32.54 0 0 0 .07 6.6 10.31 10.31 0 0 1 2.82-1.1q-.13-.33-.22-.67l1.42-1.32a33.13 33.13 0 0 1-.45-3.47 11.74 11.74 0 0 1-.11-1.35l-.1-.45q-.01-.22-.05-.43a1.6 1.6 0 0 1 .15-.84l1.44-3.13a.65.65 0 0 0-.21-.04q-1.42 1.96-3.29.93z" fill="#325723"/><path class="cls-7" d="M48.68 86.43a9.4 9.4 0 0 1 .06-3.86 7.27 7.27 0 0 1-3.83-.04l.71 5.47.06.47q.15.97-.4 1.27l-.69.26q-.16.07-.33.17a3.38 3.38 0 0 0-.34.1l-.61.25-.64.2-1.1.53q-.65.32-1.33.62a2.6 2.6 0 0 1-.37.16q-.49.15-1 .28a.94.94 0 0 0-.66.32 1.28 1.28 0 0 0-.1.26l-.01.49.02.02a1.9 1.9 0 0 1 .22.22 13.89 13.89 0 0 0 8.2-1.21 6.13 6.13 0 0 1 .76-.3 6.68 6.68 0 0 0 1.38-5.68M55.7 56l.15.97a7.72 7.72 0 0 1 4.39 2.9.49.49 0 0 1 .07.13 6.66 6.66 0 0 1 .47.82l.02.02.2.6a8.9 8.9 0 0 1 .36 2.14l-1.16-.24a11.82 11.82 0 0 0-4.93.82 10.4 10.4 0 0 1-2.3 3.66l-.01-.02-2.63 2.97a2.96 2.96 0 0 0-.66 1.51 2.49 2.49 0 0 0-.05.52 6.84 6.84 0 0 0 .01 1.33v.02l3.5-.15a14.05 14.05 0 0 0 4.48-1.18q4.68-2.26 5.28-8.38-.02-.26-.06-.49a9.17 9.17 0 0 0-3.19-5.84 11.58 11.58 0 0 0-3.94-2.1"/><path class="cls-8" d="M51.52 51.9l-1.08 1.04-1.42 1.32.22.68a3.8 3.8 0 0 0 1.63 1.9 2.92 2.92 0 0 0 .56.22l.5-.14 2.33-.8-.16-.5a11.55 11.55 0 0 0-.6-1.37 9.27 9.27 0 0 0-1.2-1.63q-.22-.24-.44-.45l-.34-.28"/><path class="cls-9" d="M21.13 60.43a.8.8 0 0 0 .01.15 8.05 8.05 0 0 0 .58 1.56 2.45 2.45 0 0 1 .25.92 20.57 20.57 0 0 0 4.64 2.13l-.33-1.66a9.63 9.63 0 0 1-5.04-3l-.12-.1"/><path class="cls-7" d="M41.27 61.09h-.04q-.17.4-.31.81a11.16 11.16 0 0 0-.49 2.04 18.95 18.95 0 0 1 2.33.48 3.7 3.7 0 0 1 1.14.19 13.07 13.07 0 0 0-.63 4l.05.93a2.97 2.97 0 0 1 .06.37v.4l-.06 1.73.4 1.14q-.47-.26-.88-.53a7.8 7.8 0 0 1-3.64-8.68 11.19 11.19 0 0 1 .7-2.5"/><path class="cls-9" d="M21.55 57.53a5.98 5.98 0 0 0-2.18-1.2 8.44 8.44 0 0 0-3.27-.31.42.42 0 0 0-.18.04q-1.8.33-2.19 1.04l-.48.41.16 1.12.04.02a2.06 2.06 0 0 1 .4-.28 4.63 4.63 0 0 1 2.23-.82 8.24 8.24 0 0 1 4.99 1.51.41.41 0 0 0 .07.17.27.27 0 0 0 .25.15 1.16 1.16 0 0 0-.04.28.88.88 0 0 0 .11.49.3.3 0 0 1 .06.07.32.32 0 0 0 .33.11 15.07 15.07 0 0 0 4.04 1.42 41.56 41.56 0 0 0 5.65.7q.6.05 1.25.07a6.93 6.93 0 0 0 .88-.02 29.71 29.71 0 0 0 6.24-1.03L41.5 61c.59-.17.96-.28 1.6-.5l1.98-.67 2.22-.88 1.1-2.02-3.68 1.39-3.04 1.1-2.09.76-.99.36a.14.14 0 0 0 .02.05 1.32 1.32 0 0 0-.17.06 34.01 34.01 0 0 1-4.87.58q-1.29.02-2.54 0a34.7 34.7 0 0 1-5.6-.8q-1.42-.32-2.82-.75a.14.14 0 0 1-.02-.06 1 1 0 0 0-.7-.56c.07-.1-.1-.16-.09-.31 0-.02-.24-.42.03-.44.05-.22.23-.14.18-.27a1.02 1.02 0 0 0-.35-.45.47.47 0 0 0-.12-.06"/><ellipse class="cls-7" cx="21.84" cy="59.59" rx=".63" ry=".59"/><path class="cls-8" d="M29 36.4l-.24 2.8.32.11a5.32 5.32 0 0 0 5.3-1.18l-1.51-2.16a3.76 3.76 0 0 1-3.81.45.14.14 0 0 0-.06-.02"/><path class="cls-7" d="M44.6 36.53a7.1 7.1 0 0 0-.96.24q-3.15.8-3.77 1.9-.17 1.33.86 1.65a3.07 3.07 0 0 0-.06.99 1.85 1.85 0 0 0 .19.56 1.66 1.66 0 0 0 1.53.74 1.91 1.91 0 0 0 .8 1 2.12 2.12 0 0 0 1.81.1 2.66 2.66 0 0 0 .96.64 2.11 2.11 0 0 0 1.21.1 5.73 5.73 0 0 0 .65-.29q1.87 1.03 3.29-.93a.65.65 0 0 1 .2.04q1.9.22 2.64-1.96a.27.27 0 0 0 .15-.04 1.87 1.87 0 0 0 1.64-1.62 4.07 4.07 0 0 0 0-1.1l.95-.57a1.14 1.14 0 0 0-.13-.16 11.64 11.64 0 0 0-4.65-1.89l-.03.02a1.5 1.5 0 0 1-.42.43l-.4.35a3.19 3.19 0 0 1-3.18 3.18 3.63 3.63 0 0 1-3.29-3.38m7.15-15.16a2.93 2.93 0 0 0-1.4-1.51q-2.42-1.2-3.52.39a2.2 2.2 0 0 0-2.41 0q-1.85 1.08-1.05 3.79a9.09 9.09 0 0 0-1.73 1.55 3.26 3.26 0 0 0 .1 3.3q4.82-5.73 11.88-1.62 1.05.65 2.07 1.36l.06-.6a3.82 3.82 0 0 0-.65-2.1q1.21-2.02-1.03-4.3-1.33-1.12-2.32-.26z"/><path d="M44.03 72.11l-.65-1.8-.06 1.73.4 1.14.3.8a13.46 13.46 0 0 1 .55 5v.13a5.51 5.51 0 0 0 1.05.45 47.86 47.86 0 0 0 .8-4.96 1.85 1.85 0 0 0-.03-.53l-2.36-1.96m11.71-11.48q-1.57.19-3.1.28a36.6 36.6 0 0 1-4.82.06q2.95 2.35 3.72 3.08.75.73-2.52 4.03-3.29 3.29-.82 7.92a6.06 6.06 0 0 1 .67 3.82 6.99 6.99 0 0 0 1.64-.52l.08-.32a7.95 7.95 0 0 0-.96-4.83v-.02a6.84 6.84 0 0 1-.01-1.33 2.49 2.49 0 0 1 .05-.52 2.96 2.96 0 0 1 .66-1.51l2.63-2.97.02.02a10.4 10.4 0 0 0 2.3-3.66 9.11 9.11 0 0 0 .46-3.53m0-22.09a4.07 4.07 0 0 1 0 1.1 28.72 28.72 0 0 1 3.16 11.17.23.23 0 0 1-.06.13 10.65 10.65 0 0 1-1.98.54 1.55 1.55 0 0 0-1.7 1.31 1.79 1.79 0 0 1-1.66 1.46 11.55 11.55 0 0 1 .6 1.38q.76-.2 1.5-.43a14.93 14.93 0 0 0 5.12-3.21 2 2 0 0 0 .42-2.45q-1.1-7.86-4.45-11.56l-.95.56m-14.88 3.33a1.85 1.85 0 0 1-.19-.56 4.83 4.83 0 0 0-.65.58 7.85 7.85 0 0 0-2.35 4.44 2.43 2.43 0 0 1-1.05.45q-2.46.3-2.95-2.37l-.26-.17q-.17-.6-.28-1.21-.62-3.35-3.77-3.05l1.9 4.65a25.4 25.4 0 0 1 3.36 3.04l.25.25a.22.22 0 0 0 .1.13q1.95.3 3.74-1.74a.02.02 0 0 0 .02-.02l1.18-1.17a.7.7 0 0 1 .02-.17 26.6 26.6 0 0 1 .93-3.08z" fill="#980805"/><path d="M49.02 68.08q3.27-3.3 2.52-4.03-.77-.73-3.72-3.08-1.15-.06-2.31-.19a19.1 19.1 0 0 0-1.6 3.83 13.07 13.07 0 0 0-.64 4l.05.93a2.97 2.97 0 0 1 .06.37v.4l.65 1.8 2.36 1.96a1.85 1.85 0 0 1 .03.53 47.86 47.86 0 0 1-.8 4.96 6.31 6.31 0 0 0 3.25.26A6.06 6.06 0 0 0 48.2 76q-2.47-4.63.82-7.92m5.08-26.81l.45 2.03q.28 4 2.07 5.8a13.02 13.02 0 0 0-4.52 2.83 2.23 2.23 0 0 0-.24.24q.22.2.44.45a9.27 9.27 0 0 1 1.2 1.63 1.79 1.79 0 0 0 1.66-1.46 1.55 1.55 0 0 1 1.7-1.3 10.65 10.65 0 0 0 1.98-.55.23.23 0 0 0 .06-.13 28.72 28.72 0 0 0-3.16-11.16 1.87 1.87 0 0 1-1.64 1.62m-13.37-.95q-1.03-.32-.86-1.65a12.02 12.02 0 0 0-3.77 2.73l-1.72-3.27a5.32 5.32 0 0 1-5.3 1.18l.28.67q3.15-.3 3.77 3.05.11.61.28 1.2l.26.18q.49 2.67 2.95 2.37a2.43 2.43 0 0 0 1.05-.45 7.85 7.85 0 0 1 2.35-4.44 4.83 4.83 0 0 1 .65-.58 3.07 3.07 0 0 1 .06-1z" fill="red"/><path d="M50.87 56.84a3.8 3.8 0 0 1-1.63-1.9 10.31 10.31 0 0 0-2.82 1.1 3.5 3.5 0 0 0-1.34 1.27 2.08 2.08 0 0 0-.36 1l3.68-1.38-1.1 2.02-2.22.88a2.97 2.97 0 0 0 2.09.39q2.24-.32 3.7-3.38M33.3 34.7a8.03 8.03 0 0 1-1.66.17 7.53 7.53 0 0 1-5.3-2.08A4.97 4.97 0 0 0 29 36.4a.14.14 0 0 1 .06.03 3.76 3.76 0 0 0 3.8-.45v-.02l.44-1.25m18.91.63v-.1a.03.03 0 0 1 .04-.05v-.03l.31-.53c.34 0 .15-.55.23-.74s.38-1.87.38-1.87a3.47 3.47 0 0 0 .42-2.4c-.27-1.01-3.26-2.03-3.26-2.03q-.27-.05-.5-.13a3.06 3.06 0 0 0-2.94 2.5 1.22 1.22 0 0 0-1.16 1.31 1.63 1.63 0 0 1-.33-.6.63.63 0 0 0-.1-.2.12.12 0 0 0-.05-.06.44.44 0 0 0-.36-.18.6.6 0 0 0-.48.07.94.94 0 0 0-.26.64 2.12 2.12 0 0 0 .03.56.72.72 0 0 0 .06.22.16.16 0 0 1 .05.11.63.63 0 0 0 .14.23.18.18 0 0 0 .09.03.33.33 0 0 0 .17.12l-.26 2.26a1.78 1.78 0 0 1 .26.16l-.1 1.9a3.63 3.63 0 0 0 3.29 3.39 3.19 3.19 0 0 0 3.17-3.18l-.95 1.1-.26-.24q0-.02-.06-.05l-.01-.02a2.45 2.45 0 0 1-.3-.38q-.02-.05-.06-.05a.1.1 0 0 1-.07.02.35.35 0 0 1-.28.03h-.27l-.03-.01a.73.73 0 0 0-.17-.27 1.05 1.05 0 0 0-.22-.26.2.2 0 0 1-.08-.13.08.08 0 0 1-.06-.02.74.74 0 0 1-.09-.1h-.02l-.88-.42-.18-.56a3.72 3.72 0 0 1 .63.1.6.6 0 0 0 .23-.04.56.56 0 0 0 .05-.08.14.14 0 0 0 .02-.05.13.13 0 0 0 .04-.1v-.45a.12.12 0 0 1 .06.06.14.14 0 0 0 .05.02.33.33 0 0 1 .04.1.3.3 0 0 0 .11.09.02.02 0 0 1 .02.01.28.28 0 0 0 .11.1.23.23 0 0 1 .1.05 1.85 1.85 0 0 0 .13.15q.03.04.05.04a.12.12 0 0 1 .06.06.13.13 0 0 0 .18-.06q.02 0 .02-.04a.12.12 0 0 0 .06-.07q.04-.04.04-.06a.14.14 0 0 0 .01-.05q.1-.04.15.07a.2.2 0 0 0 .02.1.22.22 0 0 1 .06.03l.22.23.04.03a.49.49 0 0 0 .13.08.33.33 0 0 0 .1.03.17.17 0 0 0 .1-.09.8.8 0 0 1 .21-.2.05.05 0 0 0 .06-.06.11.11 0 0 0 .07-.07q.04-.04.04-.06 0-.1.06-.11a.91.91 0 0 1 .05-.1.02.02 0 0 0 .02-.01q0-.14.11-.14a.03.03 0 0 1 .04.04.4.4 0 0 1 .1.26.08.08 0 0 1 .01.06l.11.24q.04.11.12.13a.2.2 0 0 0 .09-.02q.02 0 .02-.03a.08.08 0 0 0 .05-.02.7.7 0 0 0 .32-.28 1.26 1.26 0 0 1 .15-.2.91.91 0 0 1 .06-.1l.02-.04q.05 0 .05-.07a.12.12 0 0 0 .1.1.14.14 0 0 1 .01.07.5.5 0 0 0 .23.2l.03.02a.2.2 0 0 0 .08.04" fill="#f3bc84"/><path d="M51.93 56.92l.47 1.47q.05.3.13.58a1.77 1.77 0 0 1 .05.43q0 .76.06 1.51 1.53-.1 3.1-.28l.58-.1-.47-3.56-.15-.97-.11-.8q-.73.22-1.5.43l.17.48-2.33.8m2.17-15.64a.27.27 0 0 1-.15.04q-.73 2.18-2.64 1.96l-1.43 3.13a1.6 1.6 0 0 0-.15.84q.04.21.05.43l.1.45a11.74 11.74 0 0 0 .1 1.35 33.13 33.13 0 0 0 .46 3.47l1.08-1.05.34.28a2.23 2.23 0 0 1 .24-.24 13.02 13.02 0 0 1 4.52-2.84q-1.8-1.79-2.07-5.79l-.45-2.03m-13.24.6a26.6 26.6 0 0 0-.93 3.08.7.7 0 0 0-.02.17 31.22 31.22 0 0 0-.7 9.67v.02a12.9 12.9 0 0 1 .5 3.13 13.79 13.79 0 0 1-.12 2.24l2.1-.76q.03-2.64.1-5.23l.1-3.66a2.26 2.26 0 0 0 .02-.28 2.5 2.5 0 0 0 0-.75v-.13q.03-.2.14-.24.06-.02.06-.17a1.44 1.44 0 0 1 .1-.91.33.33 0 0 0 .01-.25q-.1-.33.15-.42.06-.02.08-.17a4.56 4.56 0 0 0 .22-1.03l.1-.7.05-.18a2.73 2.73 0 0 0 .17-.54l.1-.6a2.24 2.24 0 0 1 .1-.56 1.91 1.91 0 0 1-.8-.99 1.66 1.66 0 0 1-1.53-.74z" fill="#0d3a12"/><path class="cls-8" d="M47.17 44.44a2.11 2.11 0 0 1-1.21-.09 35.31 35.31 0 0 0-.96 5.08 30.9 30.9 0 0 0 .08 7.88 3.5 3.5 0 0 1 1.34-1.27 32.54 32.54 0 0 1-.07-6.61 38.88 38.88 0 0 1 .82-4.99z"/><path class="cls-1" d="M39.5 26.99a7.56 7.56 0 0 0-2.32-5.55 7.45 7.45 0 0 0-5.54-2.31 7.87 7.87 0 0 0-7.86 7.86 7.54 7.54 0 0 0 2.3 5.56q.12.13.25.24a7.53 7.53 0 0 0 5.3 2.08 8.03 8.03 0 0 0 1.67-.17 7.33 7.33 0 0 0 3.88-2.15A7.59 7.59 0 0 0 39.5 27m-3.07-5l-.16.36a6.1 6.1 0 0 1 1.92 4.38l.37.12-.37.1V27a6.25 6.25 0 0 1-1.76 4.46l.2.35a2.61 2.61 0 0 1-.38-.18 6.14 6.14 0 0 1-4.43 1.94l-.1.37-.12-.37a6.27 6.27 0 0 1-4.44-1.76l-.34.2.19-.35-.04-.03a6.2 6.2 0 0 1-1.9-4.43l-.38-.11.37-.11a6.2 6.2 0 0 1 1.74-4.46l-.17-.32.34.17v-.02a6.32 6.32 0 0 1 4.4-1.9l.12-.38.1.37h.05a6.25 6.25 0 0 1 4.46 1.76z"/><path id="mazzo_asset_m_NoveDenari_line_0_Layer4_0_1_STROKES" data-name="mazzo asset m NoveDenari line 0 Layer4 0 1 STROKES" class="cls-14" d="M51.98 35.9a11.04 11.04 0 0 1 4.53 1.86l.01.02a.8.8 0 0 0 .15.11l-.03.04q3.34 3.7 4.44 11.55a2 2 0 0 1-.41 2.45 14.93 14.93 0 0 1-5.14 3.21l.12.8a11.58 11.58 0 0 1 3.94 2.11 14.64 14.64 0 0 1 8.06 2.79 8.55 8.55 0 0 1 .7.56 14.71 14.71 0 0 1 2.74 3.04.8.8 0 0 1 .07.26 1.71 1.71 0 0 1 .1.23l.13.44.69.97a9.31 9.31 0 0 1 1.21 2.24l.2.42a3.13 3.13 0 0 1 .34 1.41q0 1.1.06 2.24a4.1 4.1 0 0 0 .31 1.46 8.82 8.82 0 0 1 .58 3.38 5.56 5.56 0 0 1-.22 1.4 12.8 12.8 0 0 0-.45 3.57 5.52 5.52 0 0 0 .17 1.34 4.04 4.04 0 0 1-.06 2.15l-.13.58-.3 1.2a10.16 10.16 0 0 0-.07 4.32 2.64 2.64 0 0 1-.04 1 33.15 33.15 0 0 0-.6 3.63 8.3 8.3 0 0 0 .32 3.27 13.42 13.42 0 0 0 .49 1.42 3.24 3.24 0 0 1 0 2.37.74.74 0 0 1-.1-.11 1.03 1.03 0 0 0-.07-.26q-.43-.77-.92-1.51l.15 1.32-.33.3a.67.67 0 0 1-.06-.17 4.16 4.16 0 0 0-1.94-2.35 7.99 7.99 0 0 1-.85 2.4 12.16 12.16 0 0 0-1.75 5.87v.11c1 1.7 1 2.82.55 3.34l-.72-.82a1.5 1.5 0 0 0-.09 1.85c.01 0 .04 0 .04.02a.75.75 0 0 1 .48.4l8.46-.03-7.52 10.03-59.02-.21 8.55-9.82 5.04.02a5.25 5.25 0 0 1 .28-.48l.02-.75a40.86 40.86 0 0 0 1.63-9.13 3.06 3.06 0 0 1 .22-3.72l.08-6.46a15.27 15.27 0 0 1-.71-4.16 19.8 19.8 0 0 1 .7-5.49 11.3 11.3 0 0 1-2.68-7.24 11.67 11.67 0 0 1 1.29-6.74 11.55 11.55 0 0 1 1.45-2.13 2.28 2.28 0 0 0 .7-1.83l-.21-.86A20.57 20.57 0 0 1 21.9 63q0 1.3-1.81 2.15a1 1 0 0 1-.95-.56 3.2 3.2 0 0 1-1.65 1 1.86 1.86 0 0 1-1.2-.35 4.15 4.15 0 0 1-.93-1.12.93.93 0 0 0-.76-.43 1.57 1.57 0 0 1-.49-.09 2 2 0 0 1-.5-1.08 2.72 2.72 0 0 1-.04-.64l.1-.56.2-.91a4.74 4.74 0 0 0-.1-2.1 2.06 2.06 0 0 0-.38.29l-.04-.02-.17-1.12.49-.41a19.1 19.1 0 0 1-.12-2.04 6.33 6.33 0 0 0-.91-3.36 5 5 0 0 1-.17-4.93l-.06-.02-.39-.31a4.35 4.35 0 0 1 .43-.1l.24-.15.36-1.64a.78.78 0 0 1-.82.26.2.2 0 0 1-.1-.02.2.2 0 0 0-.1-.03 1.43 1.43 0 0 1-.27-.08.23.23 0 0 1-.19-.13l.2-.1.05-.01q.03-.06.15-.04a1 1 0 0 0 .48-.11 2.23 2.23 0 0 0 .24-.24.61.61 0 0 0 .2-.21l.38-.5a.12.12 0 0 1 .06-.08.88.88 0 0 1 .17-.22l.33-.17a2 2 0 0 1 .49-.06q-.11-.46-.17-.87-.11-.83-.17-1.6a4.93 4.93 0 0 1 .13-.96 5.05 5.05 0 0 1 .27-.84 3.46 3.46 0 0 1 1.92 1.88l.54.77.17-.54a2.12 2.12 0 0 1 .88-.66l-.5-1.36q-.35-1.16.29-1.12A11.14 11.14 0 0 1 20.22 40a16.43 16.43 0 0 1 10.56 4.33l.38.17-2.33-5.25c-.09-.02-.1-.06-.22-.1l.29-2.8a5.09 5.09 0 0 1-2.76-4.4m7.11 2.7l-.42 1.24v.02l1.5 2.17 1.72 3.26a12.01 12.01 0 0 1 3.77-2.72q.61-1.1 3.77-1.9a7.09 7.09 0 0 1 .95-.25l.1-1.9a1.78 1.78 0 0 0-.27-.17 4.05 4.05 0 0 1-1.87-4.78 2.5 2.5 0 0 1-.82-.78 3.26 3.26 0 0 1-.11-3.3 9.09 9.09 0 0 1 1.74-1.56q-.8-2.7 1.04-3.79a2.2 2.2 0 0 1 2.41 0q1.1-1.59 3.53-.4a2.93 2.93 0 0 1 1.4 1.52q.99-.86 2.31.26 2.24 2.28 1.03 4.3a3.82 3.82 0 0 1 .65 2.1l-.05.6a2.53 2.53 0 0 1-1.85 2.17m1.25-4.87a7.59 7.59 0 0 0-2.67-2.4 12.7 12.7 0 0 0-1.16-.63 12.39 12.39 0 0 0-2.5-.39 8.5 8.5 0 0 0-5.4 1.53m8.44-2.44a1.47 1.47 0 0 1-.05-.23m.67 2.17a1.63 1.63 0 0 0-.67-1.8m-4.93-1.49a2.19 2.19 0 0 1 .67.75 1.8 1.8 0 0 1 1.27 1.51m-1.64 12.92a9.2 9.2 0 0 0 .85 1.06c.1.02.21-.4.21-.4l.67 1.11a.83.83 0 0 0 .48-.46 4.47 4.47 0 0 0 .83 1.15l.74-1.08a4.21 4.21 0 0 0 2.08-3.4 5.96 5.96 0 0 1 .35-1.34c.25-.63.46-1.09.46-1.09 0-.02.21-.34.21-.35 0 0-.06-.01-.06-.04l-.03-.01c.06-1.17-1.14-2.17-3.56-3a6.26 6.26 0 0 1-.51-.12 3.07 3.07 0 0 0-2.94 2.5 1.22 1.22 0 0 0-1.16 1.3 1.64 1.64 0 0 1-.34-.6.63.63 0 0 0-.1-.2.12.12 0 0 0-.05-.05.44.44 0 0 0-.35-.19.6.6 0 0 0-.49.08.94.94 0 0 0-.26.63 2.12 2.12 0 0 0 .04.56.72.72 0 0 0 .05.22.16.16 0 0 1 .06.12.63.63 0 0 0 .13.22c.04.03.07-.15.1-.15.03.05.09-.08.16-.08h.11c.1 0 .2.2.28.17l.54 1.46m4.2-6.03c-3.14-.66-6.12.08-7.13 2.18m2 2.6l-.26 2.26m12.27 3.53l-.96.56a4.07 4.07 0 0 1 0 1.1 1.87 1.87 0 0 1-1.64 1.62l.45 2.04q.28 4 2.07 5.79a5.26 5.26 0 0 0 .47.44m-.5-11.7a1.19 1.19 0 0 1 .1.15m-4.7-1.9a1.96 1.96 0 0 1 .06 1.32l2 1.14m-1.35 1.7L51.22 39q-.07.1-.17.2a4.67 4.67 0 0 1-1.23 1.01l.88 2.1m1.29-4.95a3.57 3.57 0 0 1-.77 1.64m2.82 2.2a.27.27 0 0 1-.15.04q-.73 2.19-2.63 1.96a.65.65 0 0 0-.2-.04q-1.43 1.96-3.3.94a5.73 5.73 0 0 1-.65.28 38.88 38.88 0 0 0-.82 4.98 32.54 32.54 0 0 0 .08 6.61 10.31 10.31 0 0 1 2.82-1.1q-.13-.34-.23-.67l2.5-2.37.34.28a2.23 2.23 0 0 1 .24-.25 13.02 13.02 0 0 1 4.52-2.83M43.6 36.7a6.25 6.25 0 0 0 .22 1.48 3.23 3.23 0 0 0 1.08 1.5 5.06 5.06 0 0 0 1.16.67 4.92 4.92 0 0 0 .56.18 5.91 5.91 0 0 0 1.36.17 3.97 3.97 0 0 0 1.85-.49m-4.87 3.44a2.12 2.12 0 0 1-1.81-.11 1.91 1.91 0 0 1-.8-1 1.66 1.66 0 0 1-1.54-.74 26.6 26.6 0 0 0-.93 3.08c-.01.05-.25.72-.25.78-.72 3.02-.5 5.63-.5 9.05l.16.88a10.5 10.5 0 0 1 .22 2.29 13.56 13.56 0 0 1-.04 2.24l5.17-1.87a2.1 2.1 0 0 1 .37-1 30.9 30.9 0 0 1-.06-7.89 35.33 35.33 0 0 1 .96-5.08 2.65 2.65 0 0 1-.95-.63zm1.1-3.3l-.7 2.2m2.68.2l-.06-2.05M51 36.68a3.19 3.19 0 0 1-3.18 3.17 3.63 3.63 0 0 1-3.28-3.38m2.57 7.92a2.11 2.11 0 0 1-1.2-.1m-2.7-2.93l1.68-1.68m6.91 12.44q.22.2.45.45a9.27 9.27 0 0 1 1.2 1.62 11.55 11.55 0 0 1 .6 1.38q.76-.2 1.48-.43M20.42 40a11.54 11.54 0 0 1 1.02 1.55 6.78 6.78 0 0 1 .62 1.51 6.46 6.46 0 0 1 .2 1.3l.79.83q.97 1 1.96 1.96a9.81 9.81 0 0 1-.52-1.72q-.08-.43-.2-.84a5.9 5.9 0 0 0-.48-.97 1.98 1.98 0 0 0-.65-.67m-4.78-4.09l.65.79a5.57 5.57 0 0 1 1.55 2.07 1.99 1.99 0 0 1 .04 1.27.27.27 0 0 0 .06.17 3.83 3.83 0 0 1-1.52-.49m-4.83.1l.4-.1.55-.85-.09-1.01-.24-.53a5.74 5.74 0 0 0-.83-.95m-.61 4.78a4.2 4.2 0 0 0-.45.39m2.22-1.48l4.03-.28-.15-.07a2.05 2.05 0 0 1-.54-1.3 15.21 15.21 0 0 0-.24-2.5m-2.52 11.7c-.28 1.57.14 3.75.19 5.4a8.44 8.44 0 0 1 3.26.31 4.4 4.4 0 0 1 .17-.43 2.97 2.97 0 0 0 .32-.78 2.93 2.93 0 0 1 1.47-2.17m-1.96 3.38a5.98 5.98 0 0 1 2.19 1.2l1.88-2.6 1.65-2.26.17-.58a3.7 3.7 0 0 0-.17-2.44m11.65-4.91a4.33 4.33 0 0 0-.49-3.05l-.15-.3m4.76.47a1.85 1.85 0 0 1-.18-.56 3.07 3.07 0 0 1 .05-.99q-1.02-.32-.86-1.64m-10.86-2.28a.14.14 0 0 1 .05.02 3.76 3.76 0 0 0 3.81-.45m-4.04 3.27a5.76 5.76 0 0 0 5.55-1.1m-3.11 6.5a25.4 25.4 0 0 1 3.36 3.04l.24.24a.22.22 0 0 0 .11.13q1.94.3 3.74-1.74a.02.02 0 0 0 .02-.01l1.17-1.18M38.4 60.59a1.32 1.32 0 0 1 .16-.05.14.14 0 0 1-.02-.06l-.14.11a34.01 34.01 0 0 1-4.88.58q-1.29.02-2.54 0a34.7 34.7 0 0 1-5.6-.8q-1.42-.32-2.82-.75a.15.15 0 0 1-.05.19.91.91 0 0 1-.06.1 1.06 1.06 0 0 1-.17.16.12.12 0 0 0-.07.06 1.3 1.3 0 0 1-.41.15 15.07 15.07 0 0 0 4.03 1.42 41.57 41.57 0 0 0 5.66.69q.6.05 1.25.07a6.93 6.93 0 0 0 .88-.02 29.71 29.71 0 0 0 6.23-1.02q.65-.17 1.33-.38.9-.26 1.86-.6.97-.31 1.98-.67l2.22-.88 1.1-2.01-3.67 1.38m-5.14 1.87l-.99.35c-.33-.42-.59-.97-.93-1.38-.97-.25-3.71-4.09-4.65-4.95s-2.77-3.1-4.15-3.6a4.5 4.5 0 0 1-2.14-1.88 29.25 29.25 0 0 0-2.07-3.02m15.25 15.77a11.19 11.19 0 0 0-.7 2.5 7.8 7.8 0 0 0 3.63 8.68q.41.26.88.52l-.4-1.14.05-.33a6.71 6.71 0 0 1-3.38-4.84 7.01 7.01 0 0 1 .05-2.93 6.81 6.81 0 0 1 .88-2.04l.32-.8m2.13 10.6l.01-1.23a6.73 6.73 0 0 1-2.95-6.53 11.16 11.16 0 0 1 .49-2.04m-27.07-3.52a4.63 4.63 0 0 1 2.24-.83A8.24 8.24 0 0 1 21 59.01c.02.06.04-.1.08-.04.04.08.12-.06.24-.06h.11c.05 0 .1.13.17.11.11-.06.1-.03.15-.12.06-.1.01-.14.01-.29v-.09c0-.22.15-.4.1-.54a.88.88 0 0 0-.3-.45.35.35 0 0 0-.1-.05m1.1 2.14a.14.14 0 0 1-.03-.05 1 1 0 0 0-.69-.56m-.05 1.27a.32.32 0 0 1-.34-.12.3.3 0 0 0-.05-.07.88.88 0 0 1-.12-.49 1.16 1.16 0 0 1 .04-.28m5.23 5.81l-.34-1.66a9.63 9.63 0 0 1-5.04-2.99l-.11-.11a.8.8 0 0 0 .02.15 8.05 8.05 0 0 0 .58 1.57 2.45 2.45 0 0 1 .24.91m-1.56-4.22a4 4 0 0 0-.2 1.3 5.96 5.96 0 0 0-.01 1.24q.01.4.05.67a.35.35 0 0 0 .02.12 2.83 2.83 0 0 1-.45 1.71 8.72 8.72 0 0 1-.6.75.02.02 0 0 0-.01.02m1.92-4.22a2.25 2.25 0 0 1 .02-1.2m4.3 1.2a17.79 17.79 0 0 0-2-5.49m-7.34 1.08a.42.42 0 0 0-.19.04q-1.8.34-2.18 1.05m1.92 3.34a2.77 2.77 0 0 0 .15-.49 7.64 7.64 0 0 0 .28-2.4m1.66 2.12q-.62 1.8-.82 2.49a1.26 1.26 0 0 0-.02.7.54.54 0 0 0 .2.21 1.05 1.05 0 0 0 .7.49 6.25 6.25 0 0 0 .69-.04 1.48 1.48 0 0 0 .22-.19 3.02 3.02 0 0 0 .78-2.13m-.57.2l-.58-.83a13.59 13.59 0 0 0-.4 1.7q-.09.58.4.54l.1-.11a.2.2 0 0 0 .07-.15.7.7 0 0 0 .03-.23m7.73 1.2l-.39-1.77m5.34 20.01a8.21 8.21 0 0 0-.24 2.45A13.77 13.77 0 0 0 31.97 89q.28.73.67 1.57a2.74 2.74 0 0 1 .12.26l.05.67q.04.32.06.66a5.27 5.27 0 0 1 .04.61l.05.64.1.61q.01.28.05.6l.06.58a4.92 4.92 0 0 0 .07.58l.1.56.16 1.1q.08.5.19 1.03l.2 1a6.72 6.72 0 0 1 .1.77c.04.27-.15.57-.15.9v.03a.5.5 0 0 0 0 .08l.01.04-.01.09v.02l-.02.1a1.7 1.7 0 0 1-.1.21l-.03.06a.47.47 0 0 1-.06.11.3.3 0 0 0-.01.1c0 .03.12.06.1.07 0 .04.12.07.12.1v.01a13.63 13.63 0 0 0-.12 2.47 9.27 9.27 0 0 1 .08 2.5c-.07.83-.17 1.65-.24 2.46a7.21 7.21 0 0 1-.79 2.67 8.22 8.22 0 0 0-.71 1.83l-.12.5a3.8 3.8 0 0 0 0 1.07l.1.49a3.39 3.39 0 0 0-1.08 1.04.85.85 0 0 0-.14.49v.02c0 .07-.21.14-.24.2 0 .04-.1.06-.12.08 0 .03-.05.06-.08.09a.81.81 0 0 0-.09.26.45.45 0 0 1-.06.08.55.55 0 0 0-.05.2.08.08 0 0 1-.02.06l-.04.03a.32.32 0 0 0-.01.08c0 .04-.1.07-.13.1-.04.07-.17.14-.17.22v.09c0 .04.06.06.06.07-.02.07.02.12.02.15a.06.06 0 0 1-.01.06.8.8 0 0 1-.01.17.71.71 0 0 1-.05.07.2.2 0 0 1-.04.11.93.93 0 0 0-.07.53l.02.02a4 4 0 0 0 1.7.18 5.14 5.14 0 0 0 2.78-1 1.98 1.98 0 0 0 .82-2.02.4.4 0 0 1-.16-.15 1.01 1.01 0 0 1-.32-.52l-.04-.02c0-.03.19-.05.18-.06-.03-.14.15-.27.15-.4v-.08c0-.08-.14-.15-.14-.23l.86 1.16c.09-.09.13-.18.23-.28a1.34 1.34 0 0 0 .48-1.25c-.1-.29-.2-.57-.27-.84a6.1 6.1 0 0 1-.18-.77 1.28 1.28 0 0 1-.02-.2 11.47 11.47 0 0 1-.15-2.43l.1-1.47a14.94 14.94 0 0 1 .27-2.26 9.3 9.3 0 0 1 .45-1.63q.4-.97.82-2.09a3.5 3.5 0 0 0 .1-2.33 3.38 3.38 0 0 1 .16-2.45q.5-1.12 1.1-2.22a9.55 9.55 0 0 0 .73-2.84l-.35-.13-.49-.3a3.85 3.85 0 0 1-.48-.4l-.02-.03q0-.26.02-.48a1.28 1.28 0 0 1 .1-.26.94.94 0 0 1 .65-.32q.52-.13 1-.28a19.94 19.94 0 0 0 .56-2.58 16.6 16.6 0 0 0 .1-4.22 15.17 15.17 0 0 0-.38-2.14m-11.25.44a8.2 8.2 0 0 0 1.23 3.68 5.76 5.76 0 0 0 1.9 1.85m-4.5-19.64l-.7-3.38m3.3 21.17a15.39 15.39 0 0 1-4.05-3.23M59.8 59.31a8.13 8.13 0 0 0-4-2.4l.46 3.57-.58.1a9.11 9.11 0 0 1-.46 3.52 10.4 10.4 0 0 1-2.3 3.66l-.02-.02-2.63 2.97a3.12 3.12 0 0 0-.81 1.52c6.25-.29 9.88-2.7 11.21-7.21.57-4.28-.87-5.71-.87-5.71zM49.42 72.15a4.53 4.53 0 0 0 0 .7 19.26 19.26 0 0 0 5.9-.87 12.3 12.3 0 0 0 4.6-2.84 6.08 6.08 0 0 0 1.68-5.54 8.12 8.12 0 0 0-1.33-3.6m-10.8 12.77c-.05.39.08.8.08 1.3l.37.02 3.32-.15a13.52 13.52 0 0 0 4.4-1.17c3.12-1.5 4.7-3.5 5.1-7.58a8.08 8.08 0 0 0 .04-1.8 7.89 7.89 0 0 0-3.1-5.34m-3.88-1.13l-.15-.98m-1.6-.37l.16.49-2.84.95a2.92 2.92 0 0 1-.56-.22q-1.46 3.06-3.7 3.37a2.97 2.97 0 0 1-2.09-.39m-1.98.67q1.22.2 2.41.28 1.16.14 2.32.2a36.6 36.6 0 0 0 4.81-.06q1.54-.1 3.1-.28m-10.66-3.33a3.5 3.5 0 0 1 1.35-1.27m-.92 4.74a19.1 19.1 0 0 0-1.6 3.83 13.07 13.07 0 0 0-.64 4l.06.93a2.97 2.97 0 0 1 .05.37v.56m7.5-13.63a3.8 3.8 0 0 1-1.63-1.9m1.27 24.37a6.99 6.99 0 0 1-1.65.52 5.62 5.62 0 0 1-3.06-.26c-.36-.12-.85-.26-.85-.45v-.13l-.58.17a3.72 3.72 0 0 0-.36 2.05c0 .63.06.99.29 1.06l.63.27a8.73 8.73 0 0 0 5.08-.3 1.77 1.77 0 0 0 .28-.1 1.55 1.55 0 0 0 .87-1.5q.04-1.75-.58-1.65l-.07.32zm-6.8-6.13l.3.8a13.46 13.46 0 0 1 .56 5m.34 3.56l.7 5.47.06.46q.15.97-.4 1.27l-.68.26-.34.17a3.38 3.38 0 0 0-.33.1l-.62.26-.64.2-1.1.52q-.65.32-1.32.62a2.6 2.6 0 0 1-.38.17m-4.07 22.12l19 .02.04-.02a5.18 5.18 0 0 1 .77-.85 2.8 2.8 0 0 0 .8-1.13c-.02-.03-.03-.06-.05-.07a2.77 2.77 0 0 1-.33-1.38c0-.06-.02-.12 0-.17l-.01-.1v-.03c0-.01.07-.04.07-.08a3.6 3.6 0 0 0 .21-.44 18.05 18.05 0 0 0 1.41-7.2l.03-.16a7.42 7.42 0 0 0-.34-3.94 16.49 16.49 0 0 0-1.58-2.84l-1.72-2.52a1.97 1.97 0 0 0-.11-.17 15.64 15.64 0 0 1-1.46-2.65 33.07 33.07 0 0 0-1.55-3.04q-.1-.17-.2-.3a.84.84 0 0 1-.08-.11l-.43-.37a1.66 1.66 0 0 1-.31.07l-.12.5a13.85 13.85 0 0 0 .15 3.66 7.67 7.67 0 0 1-.37 2.9q-.86.7-3.23.37l.03-1-.98.12-.4.08c-.33 0-.33.13-.67.17a4.13 4.13 0 0 0-.6.26c-.2.08-.4.15-.61.21-.21.05-.42.02-.62.08a5.22 5.22 0 0 1-1.04.13h-.8c-.34 0-.68.06-1.01.04a2.18 2.18 0 0 0-.28 0M57.9 72.68a7.51 7.51 0 0 0-2.81 4.3 9.28 9.28 0 0 0 .7 5.93q.34.58.68 1.12a28.91 28.91 0 0 0 3.84 4.82q1.2 1.14 2.52 2.2a13.51 13.51 0 0 1 3.4 7.94 8.76 8.76 0 0 0-.1 4.72 9.68 9.68 0 0 1-.55 5.64c-.97 1.7-1.49 2.91-.98 4.8a3.32 3.32 0 0 0 2.9-.06c.1-.04.13-.23.32-.38M56.47 84.04a16.65 16.65 0 0 1-6.26 2.5m-.31.08a17.3 17.3 0 0 0 .33-4.54m.3-3.15a7.95 7.95 0 0 0-.95-4.84m5.12 40.12a5.62 5.62 0 0 0-.38 1.84 6.5 6.5 0 0 0 2.48-.2 10.81 10.81 0 0 0 1.65-.44 7.6 7.6 0 0 0 1.42-.67 1.15 1.15 0 0 0 .54-.62 1.48 1.48 0 0 0 .02-.24l.05-.79a.63.63 0 0 0-.17-.14 1.45 1.45 0 0 1-.18-.08l-.41-.22a.55.55 0 0 1-.02-.13 2.08 2.08 0 0 1 .05-.47l1-.15a1.71 1.71 0 0 0 .09-.22l.13-.7-.19-.2a4.32 4.32 0 0 1-.6-2.07 18.45 18.45 0 0 1-.1-3.48 17.75 17.75 0 0 1 .27-2.76q.23-1.16.37-1.72a.5.5 0 0 1 .12-.26.2.2 0 0 0 .02-.1l.03-.01a.2.2 0 0 0 .02-.1.08.08 0 0 0 .04-.07.42.42 0 0 0 .07-.18.08.08 0 0 0 .04-.08q.02 0 .02-.04a.08.08 0 0 0 .04-.07.2.2 0 0 0 .02-.1.4.4 0 0 0 .09-.26.02.02 0 0 0 .02-.01.06.06 0 0 1 .04-.06c0-.04-.17-.09-.17-.15.03-.01-.14-.04-.14-.07v-.1a.58.58 0 0 1 0-.07 4.53 4.53 0 0 0 0-.58v-.08c0-.02.17-.05.17-.09-.01-.04.09-.08.09-.13 0-.02.04-.04.01-.06 0-.02.02-.05 0-.07-.02-.05-.14-.1-.14-.17 0-.01-.13-.03-.13-.05v-.2c0-.02.08-.05.05-.08 0-.02.05-.04.03-.08-.03-.04-.03-.09-.03-.15a.07.07 0 0 0-.02-.05.27.27 0 0 0-.01-.1.7.7 0 0 1-.05-.2.64.64 0 0 0-.1-.23c-.05-.1.06-.18.04-.26-.01-.01.1-.04.1-.07v-.1c0-.03-.19-.07-.21-.1 0-.03-.08-.06-.1-.1a.65.65 0 0 1-.1-.17.58.58 0 0 0-.08-.11.67.67 0 0 0-.03-.08c-.02 0-.04 0-.04-.03a.1.1 0 0 1-.02-.08.44.44 0 0 0-.04-.15c-.01-.02-.16-.04-.16-.05-.02-.1-.23-.2-.23-.27v-.07c0-.03.1-.06.08-.11-.05-.04 0-.1 0-.19 0-.04.02-.08 0-.13-.02-.01 0-.03 0-.06a.19.19 0 0 1-.03-.1.24.24 0 0 0-.02-.08.37.37 0 0 0-.03-.17.14.14 0 0 1-.02-.06c-.03-.02 0-.05 0-.09a3.37 3.37 0 0 1 .02-.62v-.48l-.01-.54v-.19l.02-.2a3.91 3.91 0 0 1 0-.55c.01-.03-.01-.07-.01-.1v-.74c0-.02.04-.05.06-.09a.55.55 0 0 0 .04-.32.57.57 0 0 1 .04-.28c0-.04-.1-.07-.08-.11.02-.07-.06-.16-.06-.26v-.11c0-.19.2-.4.23-.62M34.92 48a24.39 24.39 0 0 1 4.24 6.74m6.4 33.22l-5.19 1.45m3.44-51.21l-1.87 1.25m28.68 61.52a4.36 4.36 0 0 0 0-1.14 7.15 7.15 0 0 0-.56-2.31 24.28 24.28 0 0 1 .77-11.34q3.67-11.03.56-20.8M46.33 94.05l.1-1.03q-.55.08-1.07.13m22.93 20.97a2.67 2.67 0 0 1-.04 1.78 4.46 4.46 0 0 1-4.72 1.45q-.49-2.9.98-3.23m-4.1 0l4.1-.02m-38.08-.02l.13.25 1.08.76q.02-.4.02-.99 0-1.36-.19-3.7l1.24-6.14a6.19 6.19 0 0 0 1.19-4.12c-.01-.08.11-.16.09-.26.9-2.02.83-4.1 1.84-6.26v-.13l.96-2.91m-6.23 23.75a9.64 9.64 0 0 0-.06 1.02.37.37 0 0 0 .04.17q.02.1.06.11l.01.04a.2.2 0 0 1 .04.08.12.12 0 0 0 .06.05q.02.1.07.11l.04.04a2.3 2.3 0 0 0 .26.41 2.42 2.42 0 0 1-.54 2.34 4.1 4.1 0 0 1-1.9 1.2 7.99 7.99 0 0 1-2.73.16 3.05 3.05 0 0 1-.62-.1q-.5-.46.23-1.56.7-1.14 1.15-1.74.49-.62.7-.84a2.1 2.1 0 0 1 .42-1.7m2.71 1.38a1.13 1.13 0 0 1-.8.63c-.14.08-.87.39-1.12.46a7.73 7.73 0 0 1-2.05.38m9.5-2.76h-4.35"/><circle class="cls-1" cx="31.72" cy="26.94" r="8.22"/><circle cx="31.72" cy="26.94" r="7.15"/><circle cx="31.72" cy="26.94" r="8.22" stroke-width=".6" stroke-miterlimit="10" fill="none" stroke="#000"/><path class="cls-16" d="M30.32 23.55l1.4-2.72 1.4 2.72 2.92-.93-.94 2.92 2.72 1.4-2.72 1.4.94 2.92-2.92-.94-1.4 2.72-1.4-2.72-2.92.94.93-2.92-2.72-1.4 2.72-1.4-.93-2.92 2.92.93z"/><circle cx="31.72" cy="26.94" r="3.63" stroke-width=".3" stroke-miterlimit="10" fill="none" stroke="#000"/><circle cx="31.72" cy="26.94" r="2.91" stroke-miterlimit="10" stroke-width=".4" fill="none" stroke="#000"/><path class="cls-5" d="M31.72 24.68a2.25 2.25 0 0 0-2.12 1.5 2.24 2.24 0 0 1 3.32 2.67 2.25 2.25 0 0 0-1.2-4.17z"/><circle class="cls-16" cx="33.94" cy="21.45" r=".59"/><circle class="cls-16" cx="37.15" cy="24.72" r=".59"/><circle class="cls-16" cx="37.15" cy="29.11" r=".59"/><circle class="cls-16" cx="33.94" cy="32.39" r=".59"/><circle class="cls-16" cx="29.36" cy="32.39" r=".59"/><circle class="cls-16" cx="26.28" cy="29.11" r=".59"/><circle class="cls-16" cx="26.28" cy="24.7" r=".59"/><circle class="cls-16" cx="29.36" cy="21.45" r=".59"/><path class="cls-14" d="M59.73 112.49s-2.52 1-3.7.37m-25.08 4.53a12.68 12.68 0 0 0 3.6-.42"/><path d="M20.8 50.24a.77.77 0 0 0-.34-.77l-.45-.01-.28.71a.56.56 0 0 0 .2.4.32.32 0 0 0 .12.12.62.62 0 0 0 .75-.45"/><path class="cls-19" d="M20.33 47.56a3.53 3.53 0 0 0-1.16.7 2.28 2.28 0 0 0-.57 1.1c-.04.6.25 1.49.17 1.59m1.88-2.5l-.36.36-.25.36-.13.32.66-.1a.77.77 0 0 1 .34.77.62.62 0 0 1-.75.44.32.32 0 0 1-.12-.12c-.11-.1-.35-.34-.36-.5l-.2.52c-.08.22-.07.35-.14.46a2.38 2.38 0 0 0-.13.52 1.44 1.44 0 0 0 1.13-.22 1.62 1.62 0 0 0 .61-.6 2.18 2.18 0 0 0 .24-1.1 3.51 3.51 0 0 0-.05-.8 1.77 1.77 0 0 1-.05-.84q-.08.06-.16.15l-.28.38m-.65.85l-.46 1.02"/><path class="cls-14" d="M12.48 46.72a8.46 8.46 0 0 0 3.38-2.6 7.52 7.52 0 0 1 .05 1.17 3.8 3.8 0 0 0 .92-1.38c.04 0 .58 1.09 1 1.6a9.55 9.55 0 0 0 .76-3.44"/><path class="cls-19" d="M53 31.63a1.35 1.35 0 0 1-1.23-.5m-3.3-1.18s1.62-.92 2.24.3a1.67 1.67 0 0 1-.18.91"/><path class="cls-19" d="M53.48 30.82a3.03 3.03 0 0 0-1.7-.3 8.74 8.74 0 0 1-.41 2.37c-.28.29-.88-.22-.88-.22s-.4.17-.55-.1a.47.47 0 0 1 .06-.52"/><path d="M49.37 29.68s-.34.64 0 .88.68.2.76.08a1.1 1.1 0 0 0 .24-.42c.05-.2.06-.23-.12-.37l-.17-.14zm3.05.94s-.32.3-.16.6a.55.55 0 0 0 .64.29.9.9 0 0 0 .36-.57.35.35 0 0 0-.08-.24z"/><ellipse class="cls-1" cx="49.99" cy="30.06" rx=".17" ry=".18" transform="rotate(-76.53 49.99 30.06)"/><ellipse class="cls-1" cx="52.78" cy="30.89" rx=".16" ry=".17" transform="rotate(-76.53 52.78 30.9)"/><path class="cls-14" d="M48.67 28.77s1.96.14 2.2.89"/><path class="cls-19" d="M49.75 34.6s.71-.14 1 .1"/><path class="cls-14" d="M53.61 30.17a1.6 1.6 0 0 0-1.6-.16"/><path class="cls-4" d="M50.08 32.79a1.8 1.8 0 0 0-1.24.15.83.83 0 0 1-1.04-.25 2.13 2.13 0 0 0 2.26 1.23c.07-.04.49-.18.63.03s1.42 1.18 2.3.1a1.23 1.23 0 0 1-.93-.07c-.49-.3-.37-.78-.92-1a2.76 2.76 0 0 0-1.06-.2z"/><path class="cls-19" d="M50.08 32.79a1.8 1.8 0 0 0-1.24.15.83.83 0 0 1-1.04-.25 2.13 2.13 0 0 0 2.26 1.23c.07-.04.49-.18.63.03s1.42 1.18 2.3.1a1.23 1.23 0 0 1-.93-.07c-.49-.3-.37-.78-.92-1a2.76 2.76 0 0 0-1.06-.2z"/></g></g></svg>