<svg xmlns="http://www.w3.org/2000/svg" viewBox="0 0 87 140">
  <rect width="87" height="140" rx="6" ry="6" fill="#fff"/>
  <circle cx="55.8" cy="31.6" r="14.6"/>
  <circle cx="55.8" cy="31.6" r="16.3" fill="none" stroke="#000" stroke-miterlimit="10" stroke-width=".6"/>
  <path fill="#fbc219" d="M52.7 24l3.1-6 3.2 6 6.5-2-2.1 6.5 6 3.1-6 3.1 2.1 6.5-6.5-2.1-3.2 6.1-3.1-6.1-6.5 2.1 2.1-6.5-6.1-3.1 6.1-3.1-2.1-6.5 6.5 2z"/>
  <circle cx="55.8" cy="31.6" r="8.1" fill="none" stroke="#000" stroke-miterlimit="10" stroke-width=".3"/>
  <circle cx="55.8" cy="31.6" r="6.8" fill="none" stroke="#000" stroke-miterlimit="10" stroke-width=".6"/>
  <circle cx="55.8" cy="31.6" r="5.6" fill="none" stroke="#000" stroke-miterlimit="10" stroke-width=".3"/>
  <path d="M52.1 30.6s.8 1 2.7.2a1.6 1.6 0 0 0-2.7-.2z" fill="none" stroke="#000" stroke-linecap="round" stroke-linejoin="round" stroke-width=".3"/>
  <ellipse cx="53.4" cy="30.6" rx=".6" ry=".6"/>
  <circle cx="53.3" cy="30.2" r=".2" fill="#fff"/>
  <path d="M51.9 29.9a2 2 0 0 1 2.5.5m5.1.3s-.8 1-2.6.1a1.6 1.6 0 0 1 2.6-.1z" fill="none" stroke="#000" stroke-linecap="round" stroke-linejoin="round" stroke-width=".3"/>
  <ellipse cx="58.2" cy="30.7" rx=".6" ry=".6"/>
  <circle cx="58.3" cy="30.3" r=".2" fill="#fff"/>
  <path d="M59.7 30a2 2 0 0 0-2.5.5M52 28.7h2.8a1.1 1.1 0 0 1 .7 1c0 .4-.1 1.3-.1 1.3" fill="none" stroke="#000" stroke-linecap="round" stroke-linejoin="round" stroke-width=".3"/>
  <path d="M59.3 28.9a7 7 0 0 0-2.4-.1c-.5.2-.4.4-.5.6a17.6 17.6 0 0 0 0 2.3m-1.7.8s.6.3.7.5.5.2.7 0l.8-.4c.3 0 0-.4 0-.4m-.7 1.8l-.3.2-.5-.2c-.1 0-.3.2-.6.2s-.8.2-.8.1c2.3.6 3.3.1 3.3.1l-.7-.3c-.1-.1-.3-.2-.4-.1z" fill="none" stroke="#000" stroke-linecap="round" stroke-linejoin="round" stroke-width=".3"/>
  <path d="M57.1 34.5a2.1 2.1 0 0 1-1.3 1 1.6 1.6 0 0 1-1-.5 1.6 1.6 0 0 0-.5-.6" fill="none" stroke="#000" stroke-linecap="round" stroke-linejoin="round" stroke-width=".3"/>
  <circle cx="60.4" cy="20.4" r="1.5" fill="#fbc219"/>
  <circle cx="66.9" cy="27.1" r="1.5" fill="#fbc219"/>
  <circle cx="66.9" cy="36" r="1.5" fill="#fbc219"/>
  <circle cx="60.4" cy="42.7" r="1.5" fill="#fbc219"/>
  <circle cx="51" cy="42.7" r="1.5" fill="#fbc219"/>
  <circle cx="44.7" cy="36" r="1.5" fill="#fbc219"/>
  <circle cx="44.7" cy="27" r="1.5" fill="#fbc219"/>
  <circle cx="51" cy="20.4" r="1.5" fill="#fbc219"/>
  <circle cx="55.8" cy="108.4" r="14.6"/>
  <circle cx="55.8" cy="108.4" r="16.3" fill="none" stroke="#000" stroke-miterlimit="10" stroke-width=".6"/>
  <path fill="#fbc219" d="M52.7 100.9l3.1-6.1 3.2 6.1 6.5-2.1-2.1 6.5 6 3.1-6 3.1 2.1 6.5-6.5-2-3.2 6-3.1-6-6.5 2 2.1-6.5-6.1-3.1 6.1-3.1-2.1-6.5 6.5 2.1z"/>
  <circle cx="55.8" cy="108.4" r="8.1" fill="none" stroke="#000" stroke-miterlimit="10" stroke-width=".3"/>
  <circle cx="55.8" cy="108.4" r="6.8" fill="none" stroke="#000" stroke-miterlimit="10" stroke-width=".6"/>
  <circle cx="55.8" cy="108.4" r="5.6" fill="none" stroke="#000" stroke-miterlimit="10" stroke-width=".3"/>
  <path d="M52.1 107.5s.8 1 2.7.1a1.6 1.6 0 0 0-2.7-.1z" fill="none" stroke="#000" stroke-linecap="round" stroke-linejoin="round" stroke-width=".3"/>
  <ellipse cx="53.4" cy="107.4" rx=".6" ry=".6"/>
  <circle cx="53.3" cy="107.1" r=".2" fill="#fff"/>
  <path d="M51.9 106.8a2.1 2.1 0 0 1 2.5.4m5.1.3s-.8 1-2.6.2a1.5 1.5 0 0 1 2.6-.2z" fill="none" stroke="#000" stroke-linecap="round" stroke-linejoin="round" stroke-width=".3"/>
  <ellipse cx="58.2" cy="107.5" rx=".6" ry=".6"/>
  <circle cx="58.3" cy="107.2" r=".2" fill="#fff"/>
  <path d="M59.7 106.8a2 2 0 0 0-2.5.5m-5.2-1.7h2.8a1.1 1.1 0 0 1 .7 1c0 .4-.1 1.3-.1 1.3" fill="none" stroke="#000" stroke-linecap="round" stroke-linejoin="round" stroke-width=".3"/>
  <path d="M59.3 105.7a5.7 5.7 0 0 0-2.4 0c-.5.1-.4.3-.5.5a19.2 19.2 0 0 0 0 2.4m-1.7.7s.6.3.7.5.5.2.7.1.5-.4.8-.4 0-.5 0-.5m-.7 1.8l-.3.2-.5-.2-.6.3H54a5.4 5.4 0 0 0 3.3 0 1.7 1.7 0 0 1-.7-.3z" fill="none" stroke="#000" stroke-linecap="round" stroke-linejoin="round" stroke-width=".3"/>
  <path d="M57.1 111.3s-.5 1-1.3 1a1 1 0 0 1-1-.5 1.6 1.6 0 0 0-.5-.6" fill="none" stroke="#000" stroke-linecap="round" stroke-linejoin="round" stroke-width=".3"/>
  <circle cx="60.4" cy="97.2" r="1.5" fill="#fbc219"/>
  <circle cx="66.9" cy="103.9" r="1.5" fill="#fbc219"/>
  <circle cx="66.9" cy="112.8" r="1.5" fill="#fbc219"/>
  <circle cx="60.4" cy="119.5" r="1.5" fill="#fbc219"/>
  <circle cx="51" cy="119.5" r="1.5" fill="#fbc219"/>
  <circle cx="44.7" cy="112.8" r="1.5" fill="#fbc219"/>
  <circle cx="44.7" cy="103.9" r="1.5" fill="#fbc219"/>
  <circle cx="51" cy="97.2" r="1.5" fill="#fbc219"/>
  <circle cx="31.2" cy="70" r="14.6"/>
  <circle cx="31.2" cy="70" r="16.3" fill="none" stroke="#000" stroke-miterlimit="10" stroke-width=".6"/>
  <path fill="#fbc219" d="M28 62.5l3.2-6.1 3.1 6.1 6.5-2.1-2.1 6.5 6.1 3.1-6.1 3.1 2.1 6.5-6.5-2.1-3.1 6.1-3.2-6.1-6.5 2.1 2.1-6.5-6-3.1 6-3.1-2.1-6.5 6.5 2.1z"/>
  <circle cx="31.2" cy="70" r="8.1" fill="none" stroke="#000" stroke-miterlimit="10" stroke-width=".3"/>
  <circle cx="31.2" cy="70" r="6.7" fill="none" stroke="#000" stroke-miterlimit="10" stroke-width=".6"/>
  <circle cx="31.2" cy="70" r="5.6" fill="none" stroke="#000" stroke-miterlimit="10" stroke-width=".3"/>
  <path d="M27.5 69s.7 1.1 2.6.2a1.5 1.5 0 0 0-2.6-.2z" fill="none" stroke="#000" stroke-linecap="round" stroke-linejoin="round" stroke-width=".3"/>
  <ellipse cx="28.7" cy="69" rx=".6" ry=".6"/>
  <circle cx="28.7" cy="68.7" r=".2" fill="#fff"/>
  <path d="M27.3 68.3a2 2 0 0 1 2.5.5m5 .3s-.7 1-2.6.2a1.5 1.5 0 0 1 2.6-.2z" fill="none" stroke="#000" stroke-linecap="round" stroke-linejoin="round" stroke-width=".3"/>
  <ellipse cx="33.6" cy="69.1" rx=".6" ry=".6"/>
  <circle cx="33.6" cy="68.7" r=".2" fill="#fff"/>
  <path d="M35 68.4a2 2 0 0 0-2.5.5m-5.2-1.7a26 26 0 0 1 2.8 0 1.1 1.1 0 0 1 .7 1 5.4 5.4 0 0 1 0 1.3" fill="none" stroke="#000" stroke-linecap="round" stroke-linejoin="round" stroke-width=".3"/>
  <path d="M34.6 67.3a5.7 5.7 0 0 0-2.4 0c-.4.1-.4.3-.4.5a16.9 16.9 0 0 0-.1 2.3m-1.6.8l.7.5a.5.5 0 0 0 .6.1 1.2 1.2 0 0 1 .8-.4c.3-.1.1-.5.1-.5m-.8 1.8a.4.4 0 0 1-.3.2l-.4-.2-.7.2-.7.2a5.4 5.4 0 0 0 3.3 0l-.7-.3z" fill="none" stroke="#000" stroke-linecap="round" stroke-linejoin="round" stroke-width=".3"/>
  <path d="M32.4 72.9s-.5.9-1.2 1a1.1 1.1 0 0 1-1-.5 3.1 3.1 0 0 0-.6-.6" fill="none" stroke="#000" stroke-linecap="round" stroke-linejoin="round" stroke-width=".3"/>
  <circle cx="35.7" cy="58.8" r="1.5" fill="#fbc219"/>
  <circle cx="42.2" cy="65.5" r="1.5" fill="#fbc219"/>
  <circle cx="42.2" cy="74.4" r="1.5" fill="#fbc219"/>
  <circle cx="35.7" cy="81.1" r="1.5" fill="#fbc219"/>
  <circle cx="26.4" cy="81.1" r="1.5" fill="#fbc219"/>
  <circle cx="20.1" cy="74.4" r="1.5" fill="#fbc219"/>
  <circle cx="20.1" cy="65.4" r="1.5" fill="#fbc219"/>
  <circle cx="26.4" cy="58.8" r="1.5" fill="#fbc219"/>
</svg>
