<svg xmlns="http://www.w3.org/2000/svg" viewBox="0 0 87 140">
  <rect width="87" height="140" rx="6" ry="6" fill="#fff"/>
  <circle cx="60.3" cy="28.1" r="11"/>
  <circle cx="60.3" cy="28.1" r="12.3" fill="none" stroke="#000" stroke-miterlimit="10" stroke-width=".6"/>
  <path fill="#fbc219" d="M57.9 22.4l2.4-4.6 2.4 4.6 4.9-1.6-1.6 4.9 4.6 2.4-4.6 2.4 1.6 4.9-4.9-1.6-2.4 4.6-2.4-4.6-4.9 1.6 1.6-4.9-4.6-2.4 4.6-2.4-1.6-4.9 4.9 1.6z"/>
  <circle cx="60.3" cy="28.1" r="6.1" fill="none" stroke="#000" stroke-miterlimit="10" stroke-width=".3"/>
  <circle cx="60.3" cy="28.1" r="5.1" fill="none" stroke="#000" stroke-miterlimit="10" stroke-width=".6"/>
  <path d="M56.9 27.1s.7.9 2.4.1a1.5 1.5 0 0 0-2.4-.1z" fill="none" stroke="#000" stroke-linecap="round" stroke-linejoin="round" stroke-width=".3"/>
  <ellipse cx="58" cy="27.1" rx=".5" ry=".5"/>
  <circle cx="58" cy="26.8" r=".2" fill="#fff"/>
  <path d="M56.7 26.5a1.8 1.8 0 0 1 2.3.4m4.7.3s-.7.9-2.5.1a1.5 1.5 0 0 1 2.5-.1z" fill="none" stroke="#000" stroke-linecap="round" stroke-linejoin="round" stroke-width=".3"/>
  <ellipse cx="62.5" cy="27.1" rx=".5" ry=".5"/>
  <circle cx="62.6" cy="26.8" r=".2" fill="#fff"/>
  <path d="M63.9 26.5a1.9 1.9 0 0 0-2.3.5m-4.9-1.6h2.6a1.1 1.1 0 0 1 .7.9c0 .4-.1 1.3-.1 1.3" fill="none" stroke="#000" stroke-linecap="round" stroke-linejoin="round" stroke-width=".3"/>
  <path d="M63.5 25.5a6.3 6.3 0 0 0-2.3-.1c-.4.2-.3.4-.4.6v2.1m-1.5.7a2.2 2.2 0 0 1 .6.5c.1.2.5.2.7.1a.8.8 0 0 1 .7-.4c.2-.1 0-.5 0-.5m-.7 1.7a.4.4 0 0 1-.3.2c-.1 0-.2-.2-.4-.2s-.3.2-.6.2l-.7.2a5.9 5.9 0 0 0 3.1 0l-.6-.3z" fill="none" stroke="#000" stroke-linecap="round" stroke-linejoin="round" stroke-width=".3"/>
  <path d="M61.5 30.7s-.5.9-1.2.9a.8.8 0 0 1-.9-.5l-.5-.5" fill="none" stroke="#000" stroke-linecap="round" stroke-linejoin="round" stroke-width=".3"/>
  <circle cx="63.7" cy="19.6" r="1.1" fill="#fbc219"/>
  <circle cx="68.7" cy="24.7" r="1.1" fill="#fbc219"/>
  <circle cx="68.7" cy="31.4" r="1.1" fill="#fbc219"/>
  <circle cx="63.7" cy="36.5" r="1.1" fill="#fbc219"/>
  <circle cx="56.6" cy="36.5" r="1.1" fill="#fbc219"/>
  <circle cx="51.9" cy="31.4" r="1.1" fill="#fbc219"/>
  <circle cx="51.9" cy="24.6" r="1.1" fill="#fbc219"/>
  <circle cx="56.6" cy="19.6" r="1.1" fill="#fbc219"/>
  <circle cx="26.7" cy="28.1" r="11"/>
  <circle cx="26.7" cy="28.1" r="12.3" fill="none" stroke="#000" stroke-miterlimit="10" stroke-width=".6"/>
  <path fill="#fbc219" d="M24.3 22.4l2.4-4.6 2.4 4.6 4.9-1.6-1.6 4.9 4.6 2.4-4.6 2.4 1.6 4.9-4.9-1.6-2.4 4.6-2.4-4.6-4.9 1.6 1.6-4.9-4.6-2.4 4.6-2.4-1.6-4.9 4.9 1.6z"/>
  <circle cx="26.7" cy="28.1" r="6.1" fill="none" stroke="#000" stroke-miterlimit="10" stroke-width=".3"/>
  <circle cx="26.7" cy="28.1" r="5.1" fill="none" stroke="#000" stroke-miterlimit="10" stroke-width=".6"/>
  <path d="M23.3 27.1s.7.9 2.4.1a1.5 1.5 0 0 0-2.4-.1z" fill="none" stroke="#000" stroke-linecap="round" stroke-linejoin="round" stroke-width=".3"/>
  <ellipse cx="24.5" cy="27.1" rx=".5" ry=".5"/>
  <circle cx="24.4" cy="26.8" r=".2" fill="#fff"/>
  <path d="M23.1 26.5a1.8 1.8 0 0 1 2.3.4m4.7.3s-.7.9-2.4.1a1.4 1.4 0 0 1 2.4-.1z" fill="none" stroke="#000" stroke-linecap="round" stroke-linejoin="round" stroke-width=".3"/>
  <ellipse cx="28.9" cy="27.1" rx=".5" ry=".5"/>
  <circle cx="29" cy="26.8" r=".2" fill="#fff"/>
  <path d="M30.3 26.5a1.9 1.9 0 0 0-2.3.5m-4.9-1.6h2.7a1.1 1.1 0 0 1 .6.9v1.3" fill="none" stroke="#000" stroke-linecap="round" stroke-linejoin="round" stroke-width=".3"/>
  <path d="M29.9 25.5a5.9 5.9 0 0 0-2.2-.1c-.4.2-.4.4-.4.6a13.4 13.4 0 0 0-.1 2.1m-1.5.7a2.2 2.2 0 0 1 .6.5c.1.2.5.2.7.1a.8.8 0 0 1 .7-.4c.3-.1 0-.5 0-.5m-.6 1.7l-.4.2-.4-.2-.5.2-.8.2a5.9 5.9 0 0 0 3.1 0l-.6-.3z" fill="none" stroke="#000" stroke-linecap="round" stroke-linejoin="round" stroke-width=".3"/>
  <path d="M27.9 30.7s-.5.9-1.2.9a.8.8 0 0 1-.9-.5l-.5-.5" fill="none" stroke="#000" stroke-linecap="round" stroke-linejoin="round" stroke-width=".3"/>
  <circle cx="30.1" cy="19.6" r="1.1" fill="#fbc219"/>
  <circle cx="35.1" cy="24.7" r="1.1" fill="#fbc219"/>
  <circle cx="35.1" cy="31.4" r="1.1" fill="#fbc219"/>
  <circle cx="30.1" cy="36.5" r="1.1" fill="#fbc219"/>
  <circle cx="23.1" cy="36.5" r="1.1" fill="#fbc219"/>
  <circle cx="18.3" cy="31.4" r="1.1" fill="#fbc219"/>
  <circle cx="18.3" cy="24.6" r="1.1" fill="#fbc219"/>
  <circle cx="23.1" cy="19.6" r="1.1" fill="#fbc219"/>
  <circle cx="60.3" cy="111.9" r="11"/>
  <circle cx="60.3" cy="111.9" r="12.3" fill="none" stroke="#000" stroke-miterlimit="10" stroke-width=".6"/>
  <path fill="#fbc219" d="M57.9 106.2l2.4-4.6 2.4 4.6 4.9-1.6-1.6 4.9 4.6 2.4-4.6 2.4 1.6 4.9-4.9-1.6-2.4 4.6-2.4-4.6-4.9 1.6 1.6-4.9-4.6-2.4 4.6-2.4-1.6-4.9 4.9 1.6z"/>
  <circle cx="60.3" cy="111.9" r="6.1" fill="none" stroke="#000" stroke-miterlimit="10" stroke-width=".3"/>
  <circle cx="60.3" cy="111.9" r="5.1" fill="none" stroke="#000" stroke-miterlimit="10" stroke-width=".6"/>
  <path d="M56.9 110.9s.7 1 2.4.2a1.4 1.4 0 0 0-2.4-.2z" fill="none" stroke="#000" stroke-linecap="round" stroke-linejoin="round" stroke-width=".3"/>
  <ellipse cx="58" cy="110.9" rx=".5" ry=".5"/>
  <circle cx="58" cy="110.6" r=".2" fill="#fff"/>
  <path d="M56.7 110.3a1.8 1.8 0 0 1 2.3.4m4.7.3s-.7.9-2.5.1a1.6 1.6 0 0 1 2.5-.1z" fill="none" stroke="#000" stroke-linecap="round" stroke-linejoin="round" stroke-width=".3"/>
  <ellipse cx="62.5" cy="111" rx=".5" ry=".5"/>
  <circle cx="62.6" cy="110.7" r=".2" fill="#fff"/>
  <path d="M63.9 110.4a1.8 1.8 0 0 0-2.3.4m-4.9-1.6a22.4 22.4 0 0 1 2.6 0 1.1 1.1 0 0 1 .7 1c0 .3-.1 1.2-.1 1.2" fill="none" stroke="#000" stroke-linecap="round" stroke-linejoin="round" stroke-width=".3"/>
  <path d="M63.5 109.3a7.7 7.7 0 0 0-2.3 0c-.4.1-.3.3-.4.5v2.2m-1.5.6a2.2 2.2 0 0 1 .6.5c.1.2.5.2.7.1l.7-.4c.2 0 0-.4 0-.4m-.7 1.7a.4.4 0 0 1-.3.2c-.1 0-.2-.3-.4-.3l-.6.3h-.7c2.2.5 3.1 0 3.1 0l-.6-.2c-.2 0-.3-.1-.5 0z" fill="none" stroke="#000" stroke-linecap="round" stroke-linejoin="round" stroke-width=".3"/>
  <path d="M61.5 114.5s-.5.9-1.2 1a1.1 1.1 0 0 1-.9-.5 2 2 0 0 0-.5-.5" fill="none" stroke="#000" stroke-linecap="round" stroke-linejoin="round" stroke-width=".3"/>
  <circle cx="63.7" cy="103.4" r="1.1" fill="#fbc219"/>
  <circle cx="68.7" cy="108.5" r="1.1" fill="#fbc219"/>
  <circle cx="68.7" cy="115.3" r="1.1" fill="#fbc219"/>
  <circle cx="63.7" cy="120.3" r="1.1" fill="#fbc219"/>
  <circle cx="56.6" cy="120.3" r="1.1" fill="#fbc219"/>
  <circle cx="51.9" cy="115.3" r="1.1" fill="#fbc219"/>
  <circle cx="51.9" cy="108.5" r="1.1" fill="#fbc219"/>
  <circle cx="56.6" cy="103.4" r="1.1" fill="#fbc219"/>
  <circle cx="26.7" cy="111.9" r="11"/>
  <circle cx="26.7" cy="111.9" r="12.3" fill="none" stroke="#000" stroke-miterlimit="10" stroke-width=".6"/>
  <path fill="#fbc219" d="M24.3 106.2l2.4-4.6 2.4 4.6 4.9-1.6-1.6 4.9 4.6 2.4-4.6 2.4 1.6 4.9-4.9-1.6-2.4 4.6-2.4-4.6-4.9 1.6 1.6-4.9-4.6-2.4 4.6-2.4-1.6-4.9 4.9 1.6z"/>
  <circle cx="26.7" cy="111.9" r="6.1" fill="none" stroke="#000" stroke-miterlimit="10" stroke-width=".3"/>
  <circle cx="26.7" cy="111.9" r="5.1" fill="none" stroke="#000" stroke-miterlimit="10" stroke-width=".6"/>
  <path d="M23.3 110.9s.7 1 2.4.2a1.4 1.4 0 0 0-2.4-.2z" fill="none" stroke="#000" stroke-linecap="round" stroke-linejoin="round" stroke-width=".3"/>
  <ellipse cx="24.5" cy="110.9" rx=".5" ry=".5"/>
  <circle cx="24.4" cy="110.6" r=".2" fill="#fff"/>
  <path d="M23.1 110.3a1.8 1.8 0 0 1 2.3.4m4.7.3s-.7.9-2.4.1a1.5 1.5 0 0 1 2.4-.1z" fill="none" stroke="#000" stroke-linecap="round" stroke-linejoin="round" stroke-width=".3"/>
  <ellipse cx="28.9" cy="111" rx=".5" ry=".5"/>
  <circle cx="29" cy="110.7" r=".2" fill="#fff"/>
  <path d="M30.3 110.4a1.8 1.8 0 0 0-2.3.4m-4.9-1.6a24 24 0 0 1 2.7 0 1.2 1.2 0 0 1 .6 1v1.2" fill="none" stroke="#000" stroke-linecap="round" stroke-linejoin="round" stroke-width=".3"/>
  <path d="M29.9 109.3a7.2 7.2 0 0 0-2.2 0c-.4.1-.4.3-.4.5a14.8 14.8 0 0 0-.1 2.2m-1.5.6a2.2 2.2 0 0 1 .6.5c.1.2.5.2.7.1l.7-.4c.3 0 0-.4 0-.4m-.6 1.7l-.4.2c-.1 0-.2-.3-.4-.3l-.5.3H25c2.2.5 3.1 0 3.1 0l-.6-.2c-.2 0-.3-.1-.4 0z" fill="none" stroke="#000" stroke-linecap="round" stroke-linejoin="round" stroke-width=".3"/>
  <path d="M27.9 114.5s-.5.9-1.2 1a1.1 1.1 0 0 1-.9-.5l-.5-.5" fill="none" stroke="#000" stroke-linecap="round" stroke-linejoin="round" stroke-width=".3"/>
  <circle cx="30.1" cy="103.4" r="1.1" fill="#fbc219"/>
  <circle cx="35.1" cy="108.5" r="1.1" fill="#fbc219"/>
  <circle cx="35.1" cy="115.3" r="1.1" fill="#fbc219"/>
  <circle cx="30.1" cy="120.3" r="1.1" fill="#fbc219"/>
  <circle cx="23.1" cy="120.3" r="1.1" fill="#fbc219"/>
  <circle cx="18.3" cy="115.3" r="1.1" fill="#fbc219"/>
  <circle cx="18.3" cy="108.5" r="1.1" fill="#fbc219"/>
  <circle cx="23.1" cy="103.4" r="1.1" fill="#fbc219"/>
  <path d="M36.6 73.9a1.6 1.6 0 0 1 .3.9.1.1 0 0 1-.1.1h-.1c-.1 0-.1 0-.1-.1a1.9 1.9 0 0 0-.2-.7 1.1 1.1 0 0 0-1.5 0 1.1 1.1 0 0 0-.1 1.4l.6.4.4-.4-.3-.3h.2l.4.4-.6.6h-.1a1.9 1.9 0 0 1-.8-.5 1.4 1.4 0 0 1 .1-1.8 1.4 1.4 0 0 1 1.9 0zm1.8 1.4a1.3 1.3 0 0 1 .5 1.8 1.3 1.3 0 0 1-1.7.5 1.2 1.2 0 0 1-.6-1.7 1.4 1.4 0 0 1 1.8-.6zm-1.1 2.1a1 1 0 0 0 1.4-.4 1.1 1.1 0 0 0-.4-1.5 1.1 1.1 0 0 0-1.4.5 1 1 0 0 0 .4 1.4zm2.6-1.3h.2l-.5 2.2 1 .2h-.1l-1.2-.3zm3.4.4a1.4 1.4 0 0 1 .9.3H44a1.5 1.5 0 0 0-.7-.3 1 1 0 0 0-1 1 1 1 0 0 0 .9 1.1l.7-.2h.1v.2a1.1 1.1 0 0 1-.9.4 1.3 1.3 0 0 1-1.1-1.3 1.2 1.2 0 0 1 1.3-1.2zm1.2 2.5l.8-2.6h.2l1.3 2.3c.1 0 0 .1 0 .1h-.2l-.3-.6-1.3.2-.2.6h-.3zm1.6-1l-.6-1.1-.4 1.2zm.7-1.7l.9-.3a.8.8 0 0 1 1 .5.8.8 0 0 1-.3.9l.8.7h-.3l-.7-.8-.7.2.3.9h-.3zm1.3.9a.5.5 0 0 0 .3-.7c0-.3-.3-.4-.6-.3l-.7.2.3 1zm.7-1.6h.1l.6-.4a1.3 1.3 0 0 1 1.8.3 1.2 1.2 0 0 1-.4 1.7l-.6.5h-.1zm2 1.4a1 1 0 0 0-1.2-1.7l-.4.3 1.1 1.7zm1.5-1.5a.7.7 0 0 0 .6-.3c.2-.2.2-.5 0-.6s-.4-.1-.8.1-.7.3-1 .1a.7.7 0 0 1 0-1 1.1 1.1 0 0 1 .5-.4h.1v.2l-.5.2a.5.5 0 0 0 .1.7c.1.1.4.1.7-.1s.7-.4 1.1-.1.3.6 0 1a1.3 1.3 0 0 1-.7.4z" stroke="#000" stroke-miterlimit="10" stroke-width=".1"/>
  <path fill="#fbc219" stroke="#000" stroke-linecap="round" stroke-linejoin="round" stroke-width=".4" d="M45.3 70.4l-1.8-.9-1.7.9.3-2-1.5-1.4 2-.3.9-1.7.9 1.7 2 .3-1.5 1.4.4 2z"/>
  <path fill="#fbc219" d="M38.7 61h9.6v1.5h-9.6z"/>
  <path d="M37.1 69.7h-1.7a.2.2 0 0 1-.2-.2l.6-1-.6-.9c0-.2.1-.3.2-.3h1.7c.1 0 .2.1.2.3v1.9a.2.2 0 0 1-.2.2z" fill="none" stroke="#000" stroke-miterlimit="10" stroke-width=".4"/>
  <path d="M38.7 68.8h-1.6a.2.2 0 0 1-.2-.2v-2l.2-.2h1.6" fill="#fff" stroke="#000" stroke-miterlimit="10" stroke-width=".4"/>
  <path d="M49.9 69.7h1.7a.2.2 0 0 0 .2-.2l-.6-1 .6-.9c0-.2-.1-.3-.2-.3h-1.7c-.1 0-.2.1-.2.3v1.9a.2.2 0 0 0 .2.2z" fill="none" stroke="#000" stroke-miterlimit="10" stroke-width=".4"/>
  <path d="M48.3 68.8h1.6a.2.2 0 0 0 .2-.2v-2l-.2-.2h-1.6" fill="#fff" stroke="#000" stroke-miterlimit="10" stroke-width=".4"/>
  <path d="M48.3 64.7v-3.3a.4.4 0 0 0-.4-.4h-8.8a.4.4 0 0 0-.4.4v8a4.7 4.7 0 0 0 4.8 4.8 4.8 4.8 0 0 0 4.9-4.8l-.1-4.7zm-9.5-2.2h9.5" fill="none" stroke="#000" stroke-miterlimit="10" stroke-width=".4"/>
</svg>
