<svg xmlns="http://www.w3.org/2000/svg" viewBox="0 0 87 140">
  <rect width="87" height="140" rx="6" ry="6" fill="#fff"/>
  <circle cx="62.5" cy="24.3" r="7.5"/>
  <circle cx="62.5" cy="24.3" r="8.7" fill="none" stroke="#000" stroke-miterlimit="10" stroke-width=".4"/>
  <path fill="#fbc219" d="M61 20.7l1.5-2.8 1.5 2.8 3.1-.9-1 3 2.8 1.5-2.8 1.5 1 3.1-3.1-1-1.5 2.9-1.5-2.9-3.1 1 1-3.1-2.8-1.5 2.8-1.5-1-3 3.1.9z"/>
  <circle cx="62.5" cy="24.3" r="3.8" fill="none" stroke="#000" stroke-miterlimit="10" stroke-width=".3"/>
  <circle cx="62.5" cy="24.3" r="3.1" fill="none" stroke="#000" stroke-miterlimit="10" stroke-width=".4"/>
  <path d="M62.5 21.9a2.4 2.4 0 0 0-2.2 1.6 2.3 2.3 0 0 1 3.6 2 1.9 1.9 0 0 1-.1.8 2.4 2.4 0 0 0 1.1-2 2.4 2.4 0 0 0-2.4-2.4z" fill="#d09b07"/>
  <circle cx="64.8" cy="18.5" r=".6" fill="#fbc219"/>
  <circle cx="68.2" cy="22" r=".6" fill="#fbc219"/>
  <circle cx="68.2" cy="26.6" r=".6" fill="#fbc219"/>
  <circle cx="64.8" cy="30.1" r=".6" fill="#fbc219"/>
  <circle cx="60" cy="30.1" r=".6" fill="#fbc219"/>
  <circle cx="56.8" cy="26.6" r=".6" fill="#fbc219"/>
  <circle cx="56.8" cy="22" r=".6" fill="#fbc219"/>
  <circle cx="60" cy="18.5" r=".6" fill="#fbc219"/>
  <circle cx="24.5" cy="24.3" r="7.5"/>
  <circle cx="24.5" cy="24.3" r="8.7" fill="none" stroke="#000" stroke-miterlimit="10" stroke-width=".4"/>
  <path fill="#fbc219" d="M23 20.7l1.5-2.8 1.5 2.8 3.1-.9-1 3 2.8 1.5-2.8 1.5 1 3.1-3.1-1-1.5 2.9-1.5-2.9-3.1 1 1-3.1-2.8-1.5 2.8-1.5-1-3 3.1.9z"/>
  <circle cx="24.5" cy="24.3" r="3.8" fill="none" stroke="#000" stroke-miterlimit="10" stroke-width=".3"/>
  <circle cx="24.5" cy="24.3" r="3.1" fill="none" stroke="#000" stroke-miterlimit="10" stroke-width=".4"/>
  <path d="M24.5 21.9a2.4 2.4 0 0 0-2.2 1.6 2.3 2.3 0 0 1 3.6 2 1.9 1.9 0 0 1-.1.8 2.4 2.4 0 0 0 1.1-2 2.4 2.4 0 0 0-2.4-2.4z" fill="#d09b07"/>
  <circle cx="26.8" cy="18.5" r=".6" fill="#fbc219"/>
  <circle cx="30.2" cy="22" r=".6" fill="#fbc219"/>
  <circle cx="30.2" cy="26.6" r=".6" fill="#fbc219"/>
  <circle cx="26.8" cy="30.1" r=".6" fill="#fbc219"/>
  <circle cx="22" cy="30.1" r=".6" fill="#fbc219"/>
  <circle cx="18.8" cy="26.6" r=".6" fill="#fbc219"/>
  <circle cx="18.8" cy="22" r=".6" fill="#fbc219"/>
  <circle cx="22" cy="18.5" r=".6" fill="#fbc219"/>
  <circle cx="62.5" cy="70.1" r="7.5"/>
  <circle cx="62.5" cy="70.1" r="8.7" fill="none" stroke="#000" stroke-miterlimit="10" stroke-width=".4"/>
  <path fill="#fbc219" d="M61 66.6l1.5-2.9 1.5 2.9 3.1-1-1 3 2.8 1.5-2.8 1.5 1 3.1-3.1-1-1.5 2.9-1.5-2.9-3.1 1 1-3.1-2.8-1.5 2.8-1.5-1-3 3.1 1z"/>
  <circle cx="62.5" cy="70.1" r="3.8" fill="none" stroke="#000" stroke-miterlimit="10" stroke-width=".3"/>
  <circle cx="62.5" cy="70.1" r="3.1" fill="none" stroke="#000" stroke-miterlimit="10" stroke-width=".4"/>
  <path d="M62.5 67.7a2.4 2.4 0 0 0-2.2 1.6 2.4 2.4 0 0 1 1.2-.3 2.3 2.3 0 0 1 2.4 2.3 1.9 1.9 0 0 1-.1.8 2.4 2.4 0 0 0 1.1-2 2.4 2.4 0 0 0-2.4-2.4z" fill="#d09b07"/>
  <circle cx="64.8" cy="64.3" r=".6" fill="#fbc219"/>
  <circle cx="68.2" cy="67.8" r=".6" fill="#fbc219"/>
  <circle cx="68.2" cy="72.4" r=".6" fill="#fbc219"/>
  <circle cx="64.8" cy="75.9" r=".6" fill="#fbc219"/>
  <circle cx="60" cy="75.9" r=".6" fill="#fbc219"/>
  <circle cx="56.8" cy="72.4" r=".6" fill="#fbc219"/>
  <circle cx="56.8" cy="67.8" r=".6" fill="#fbc219"/>
  <circle cx="60" cy="64.3" r=".6" fill="#fbc219"/>
  <circle cx="24.5" cy="70.1" r="7.5"/>
  <circle cx="24.5" cy="70.1" r="8.7" fill="none" stroke="#000" stroke-miterlimit="10" stroke-width=".4"/>
  <path fill="#fbc219" d="M23 66.6l1.5-2.9 1.5 2.9 3.1-1-1 3 2.8 1.5-2.8 1.5 1 3.1-3.1-1-1.5 2.9-1.5-2.9-3.1 1 1-3.1-2.8-1.5 2.8-1.5-1-3 3.1 1z"/>
  <circle cx="24.5" cy="70.1" r="3.8" fill="none" stroke="#000" stroke-miterlimit="10" stroke-width=".3"/>
  <circle cx="24.5" cy="70.1" r="3.1" fill="none" stroke="#000" stroke-miterlimit="10" stroke-width=".4"/>
  <path d="M24.5 67.7a2.4 2.4 0 0 0-2.2 1.6 2.4 2.4 0 0 1 1.2-.3 2.3 2.3 0 0 1 2.4 2.3 1.9 1.9 0 0 1-.1.8 2.4 2.4 0 0 0 1.1-2 2.4 2.4 0 0 0-2.4-2.4z" fill="#d09b07"/>
  <circle cx="26.8" cy="64.3" r=".6" fill="#fbc219"/>
  <circle cx="30.2" cy="67.8" r=".6" fill="#fbc219"/>
  <circle cx="30.2" cy="72.4" r=".6" fill="#fbc219"/>
  <circle cx="26.8" cy="75.9" r=".6" fill="#fbc219"/>
  <circle cx="22" cy="75.9" r=".6" fill="#fbc219"/>
  <circle cx="18.8" cy="72.4" r=".6" fill="#fbc219"/>
  <circle cx="18.8" cy="67.8" r=".6" fill="#fbc219"/>
  <circle cx="22" cy="64.3" r=".6" fill="#fbc219"/>
  <circle cx="62.5" cy="115.9" r="7.5"/>
  <circle cx="62.5" cy="115.9" r="8.7" fill="none" stroke="#000" stroke-miterlimit="10" stroke-width=".4"/>
  <path fill="#fbc219" d="M61 112.4l1.5-2.9 1.5 2.9 3.1-1-1 3.1 2.8 1.4-2.8 1.5 1 3.1-3.1-1-1.5 2.9-1.5-2.9-3.1 1 1-3.1-2.8-1.5 2.8-1.4-1-3.1 3.1 1z"/>
  <circle cx="62.5" cy="115.9" r="3.8" fill="none" stroke="#000" stroke-miterlimit="10" stroke-width=".3"/>
  <circle cx="62.5" cy="115.9" r="3.1" fill="none" stroke="#000" stroke-miterlimit="10" stroke-width=".4"/>
  <path d="M62.5 113.6a2.3 2.3 0 0 0-2.2 1.5 2.4 2.4 0 0 1 3.6 2.1 2.5 2.5 0 0 1-.1.8 2.7 2.7 0 0 0 1.1-2.1 2.3 2.3 0 0 0-2.4-2.3z" fill="#d09b07"/>
  <circle cx="64.8" cy="110.2" r=".6" fill="#fbc219"/>
  <circle cx="68.2" cy="113.6" r=".6" fill="#fbc219"/>
  <circle cx="68.2" cy="118.2" r=".6" fill="#fbc219"/>
  <circle cx="64.8" cy="121.7" r=".6" fill="#fbc219"/>
  <circle cx="60" cy="121.7" r=".6" fill="#fbc219"/>
  <circle cx="56.8" cy="118.2" r=".6" fill="#fbc219"/>
  <circle cx="56.8" cy="113.6" r=".6" fill="#fbc219"/>
  <circle cx="60" cy="110.2" r=".6" fill="#fbc219"/>
  <circle cx="24.5" cy="115.9" r="7.5"/>
  <circle cx="24.5" cy="115.9" r="8.7" fill="none" stroke="#000" stroke-miterlimit="10" stroke-width=".4"/>
  <path fill="#fbc219" d="M23 112.4l1.5-2.9 1.5 2.9 3.1-1-1 3.1 2.8 1.4-2.8 1.5 1 3.1-3.1-1-1.5 2.9-1.5-2.9-3.1 1 1-3.1-2.8-1.5 2.8-1.4-1-3.1 3.1 1z"/>
  <circle cx="24.5" cy="115.9" r="3.8" fill="none" stroke="#000" stroke-miterlimit="10" stroke-width=".3"/>
  <circle cx="24.5" cy="115.9" r="3.1" fill="none" stroke="#000" stroke-miterlimit="10" stroke-width=".4"/>
  <path d="M24.5 113.6a2.3 2.3 0 0 0-2.2 1.5 2.4 2.4 0 0 1 3.6 2.1 2.5 2.5 0 0 1-.1.8 2.7 2.7 0 0 0 1.1-2.1 2.3 2.3 0 0 0-2.4-2.3z" fill="#d09b07"/>
  <circle cx="26.8" cy="110.2" r=".6" fill="#fbc219"/>
  <circle cx="30.2" cy="113.6" r=".6" fill="#fbc219"/>
  <circle cx="30.2" cy="118.2" r=".6" fill="#fbc219"/>
  <circle cx="26.8" cy="121.7" r=".6" fill="#fbc219"/>
  <circle cx="22" cy="121.7" r=".6" fill="#fbc219"/>
  <circle cx="18.8" cy="118.2" r=".6" fill="#fbc219"/>
  <circle cx="18.8" cy="113.6" r=".6" fill="#fbc219"/>
  <circle cx="22" cy="110.2" r=".6" fill="#fbc219"/>
</svg>
